%TF.GenerationSoftware,KiCad,Pcbnew,(5.1.10)-1*%
%TF.CreationDate,2021-06-15T10:49:33-05:00*%
%TF.ProjectId,gd VGC proto pcb,67642056-4743-4207-9072-6f746f207063,rev?*%
%TF.SameCoordinates,Original*%
%TF.FileFunction,Legend,Bot*%
%TF.FilePolarity,Positive*%
%FSLAX46Y46*%
G04 Gerber Fmt 4.6, Leading zero omitted, Abs format (unit mm)*
G04 Created by KiCad (PCBNEW (5.1.10)-1) date 2021-06-15 10:49:33*
%MOMM*%
%LPD*%
G01*
G04 APERTURE LIST*
%ADD10C,0.120000*%
%ADD11C,0.100000*%
%ADD12C,0.150000*%
G04 APERTURE END LIST*
D10*
X85401904Y-68848476D02*
X84601904Y-68848476D01*
X84982857Y-68848476D02*
X84982857Y-69305619D01*
X85401904Y-69305619D02*
X84601904Y-69305619D01*
X85401904Y-69686571D02*
X84868571Y-69686571D01*
X84601904Y-69686571D02*
X84640000Y-69648476D01*
X84678095Y-69686571D01*
X84640000Y-69724666D01*
X84601904Y-69686571D01*
X84678095Y-69686571D01*
X85325714Y-71134190D02*
X85363809Y-71096095D01*
X85401904Y-70981809D01*
X85401904Y-70905619D01*
X85363809Y-70791333D01*
X85287619Y-70715142D01*
X85211428Y-70677047D01*
X85059047Y-70638952D01*
X84944761Y-70638952D01*
X84792380Y-70677047D01*
X84716190Y-70715142D01*
X84640000Y-70791333D01*
X84601904Y-70905619D01*
X84601904Y-70981809D01*
X84640000Y-71096095D01*
X84678095Y-71134190D01*
X85401904Y-71477047D02*
X84601904Y-71477047D01*
X85401904Y-71819904D02*
X84982857Y-71819904D01*
X84906666Y-71781809D01*
X84868571Y-71705619D01*
X84868571Y-71591333D01*
X84906666Y-71515142D01*
X84944761Y-71477047D01*
X85401904Y-72543714D02*
X84982857Y-72543714D01*
X84906666Y-72505619D01*
X84868571Y-72429428D01*
X84868571Y-72277047D01*
X84906666Y-72200857D01*
X85363809Y-72543714D02*
X85401904Y-72467523D01*
X85401904Y-72277047D01*
X85363809Y-72200857D01*
X85287619Y-72162761D01*
X85211428Y-72162761D01*
X85135238Y-72200857D01*
X85097142Y-72277047D01*
X85097142Y-72467523D01*
X85059047Y-72543714D01*
X84868571Y-72810380D02*
X84868571Y-73115142D01*
X84601904Y-72924666D02*
X85287619Y-72924666D01*
X85363809Y-72962761D01*
X85401904Y-73038952D01*
X85401904Y-73115142D01*
X85325714Y-73381809D02*
X85363809Y-73419904D01*
X85401904Y-73381809D01*
X85363809Y-73343714D01*
X85325714Y-73381809D01*
X85401904Y-73381809D01*
X85097142Y-73381809D02*
X84640000Y-73343714D01*
X84601904Y-73381809D01*
X84640000Y-73419904D01*
X85097142Y-73381809D01*
X84601904Y-73381809D01*
X85921904Y-68734190D02*
X85921904Y-69191333D01*
X86721904Y-68962761D02*
X85921904Y-68962761D01*
X86721904Y-69458000D02*
X85921904Y-69458000D01*
X86721904Y-69800857D02*
X86302857Y-69800857D01*
X86226666Y-69762761D01*
X86188571Y-69686571D01*
X86188571Y-69572285D01*
X86226666Y-69496095D01*
X86264761Y-69458000D01*
X86721904Y-70524666D02*
X86302857Y-70524666D01*
X86226666Y-70486571D01*
X86188571Y-70410380D01*
X86188571Y-70258000D01*
X86226666Y-70181809D01*
X86683809Y-70524666D02*
X86721904Y-70448476D01*
X86721904Y-70258000D01*
X86683809Y-70181809D01*
X86607619Y-70143714D01*
X86531428Y-70143714D01*
X86455238Y-70181809D01*
X86417142Y-70258000D01*
X86417142Y-70448476D01*
X86379047Y-70524666D01*
X86188571Y-70905619D02*
X86721904Y-70905619D01*
X86264761Y-70905619D02*
X86226666Y-70943714D01*
X86188571Y-71019904D01*
X86188571Y-71134190D01*
X86226666Y-71210380D01*
X86302857Y-71248476D01*
X86721904Y-71248476D01*
X86721904Y-71629428D02*
X85921904Y-71629428D01*
X86417142Y-71705619D02*
X86721904Y-71934190D01*
X86188571Y-71934190D02*
X86493333Y-71629428D01*
X86340952Y-73038952D02*
X86721904Y-73038952D01*
X85921904Y-72772285D02*
X86340952Y-73038952D01*
X85921904Y-73305619D01*
X86721904Y-73686571D02*
X86683809Y-73610380D01*
X86645714Y-73572285D01*
X86569523Y-73534190D01*
X86340952Y-73534190D01*
X86264761Y-73572285D01*
X86226666Y-73610380D01*
X86188571Y-73686571D01*
X86188571Y-73800857D01*
X86226666Y-73877047D01*
X86264761Y-73915142D01*
X86340952Y-73953238D01*
X86569523Y-73953238D01*
X86645714Y-73915142D01*
X86683809Y-73877047D01*
X86721904Y-73800857D01*
X86721904Y-73686571D01*
X86188571Y-74638952D02*
X86721904Y-74638952D01*
X86188571Y-74296095D02*
X86607619Y-74296095D01*
X86683809Y-74334190D01*
X86721904Y-74410380D01*
X86721904Y-74524666D01*
X86683809Y-74600857D01*
X86645714Y-74638952D01*
X86645714Y-75019904D02*
X86683809Y-75058000D01*
X86721904Y-75019904D01*
X86683809Y-74981809D01*
X86645714Y-75019904D01*
X86721904Y-75019904D01*
X86417142Y-75019904D02*
X85960000Y-74981809D01*
X85921904Y-75019904D01*
X85960000Y-75058000D01*
X86417142Y-75019904D01*
X85921904Y-75019904D01*
X87241904Y-68962761D02*
X87432380Y-68962761D01*
X87356190Y-68772285D02*
X87432380Y-68962761D01*
X87356190Y-69153238D01*
X87584761Y-68848476D02*
X87432380Y-68962761D01*
X87584761Y-69077047D01*
X88041904Y-69458000D02*
X87508571Y-69458000D01*
X87660952Y-69458000D02*
X87584761Y-69496095D01*
X87546666Y-69534190D01*
X87508571Y-69610380D01*
X87508571Y-69686571D01*
X87508571Y-69953238D02*
X88194285Y-69953238D01*
X88270476Y-69915142D01*
X88308571Y-69838952D01*
X88308571Y-69800857D01*
X87241904Y-69953238D02*
X87280000Y-69915142D01*
X87318095Y-69953238D01*
X87280000Y-69991333D01*
X87241904Y-69953238D01*
X87318095Y-69953238D01*
X87508571Y-70867523D02*
X88041904Y-71019904D01*
X87660952Y-71172285D01*
X88041904Y-71324666D01*
X87508571Y-71477047D01*
X88041904Y-72124666D02*
X87622857Y-72124666D01*
X87546666Y-72086571D01*
X87508571Y-72010380D01*
X87508571Y-71858000D01*
X87546666Y-71781809D01*
X88003809Y-72124666D02*
X88041904Y-72048476D01*
X88041904Y-71858000D01*
X88003809Y-71781809D01*
X87927619Y-71743714D01*
X87851428Y-71743714D01*
X87775238Y-71781809D01*
X87737142Y-71858000D01*
X87737142Y-72048476D01*
X87699047Y-72124666D01*
X88003809Y-72467523D02*
X88041904Y-72543714D01*
X88041904Y-72696095D01*
X88003809Y-72772285D01*
X87927619Y-72810380D01*
X87889523Y-72810380D01*
X87813333Y-72772285D01*
X87775238Y-72696095D01*
X87775238Y-72581809D01*
X87737142Y-72505619D01*
X87660952Y-72467523D01*
X87622857Y-72467523D01*
X87546666Y-72505619D01*
X87508571Y-72581809D01*
X87508571Y-72696095D01*
X87546666Y-72772285D01*
X88041904Y-73762761D02*
X87508571Y-73762761D01*
X87660952Y-73762761D02*
X87584761Y-73800857D01*
X87546666Y-73838952D01*
X87508571Y-73915142D01*
X87508571Y-73991333D01*
X88041904Y-74258000D02*
X87508571Y-74258000D01*
X87241904Y-74258000D02*
X87280000Y-74219904D01*
X87318095Y-74258000D01*
X87280000Y-74296095D01*
X87241904Y-74258000D01*
X87318095Y-74258000D01*
X87508571Y-74981809D02*
X88156190Y-74981809D01*
X88232380Y-74943714D01*
X88270476Y-74905619D01*
X88308571Y-74829428D01*
X88308571Y-74715142D01*
X88270476Y-74638952D01*
X88003809Y-74981809D02*
X88041904Y-74905619D01*
X88041904Y-74753238D01*
X88003809Y-74677047D01*
X87965714Y-74638952D01*
X87889523Y-74600857D01*
X87660952Y-74600857D01*
X87584761Y-74638952D01*
X87546666Y-74677047D01*
X87508571Y-74753238D01*
X87508571Y-74905619D01*
X87546666Y-74981809D01*
X88041904Y-75362761D02*
X87241904Y-75362761D01*
X88041904Y-75705619D02*
X87622857Y-75705619D01*
X87546666Y-75667523D01*
X87508571Y-75591333D01*
X87508571Y-75477047D01*
X87546666Y-75400857D01*
X87584761Y-75362761D01*
X87508571Y-75972285D02*
X87508571Y-76277047D01*
X87241904Y-76086571D02*
X87927619Y-76086571D01*
X88003809Y-76124666D01*
X88041904Y-76200857D01*
X88041904Y-76277047D01*
X174572476Y-125890000D02*
X174648666Y-125851904D01*
X174762952Y-125851904D01*
X174877238Y-125890000D01*
X174953428Y-125966190D01*
X174991523Y-126042380D01*
X175029619Y-126194761D01*
X175029619Y-126309047D01*
X174991523Y-126461428D01*
X174953428Y-126537619D01*
X174877238Y-126613809D01*
X174762952Y-126651904D01*
X174686761Y-126651904D01*
X174572476Y-126613809D01*
X174534380Y-126575714D01*
X174534380Y-126309047D01*
X174686761Y-126309047D01*
X174077238Y-126651904D02*
X174153428Y-126613809D01*
X174191523Y-126575714D01*
X174229619Y-126499523D01*
X174229619Y-126270952D01*
X174191523Y-126194761D01*
X174153428Y-126156666D01*
X174077238Y-126118571D01*
X173962952Y-126118571D01*
X173886761Y-126156666D01*
X173848666Y-126194761D01*
X173810571Y-126270952D01*
X173810571Y-126499523D01*
X173848666Y-126575714D01*
X173886761Y-126613809D01*
X173962952Y-126651904D01*
X174077238Y-126651904D01*
X173353428Y-126651904D02*
X173429619Y-126613809D01*
X173467714Y-126537619D01*
X173467714Y-125851904D01*
X172705809Y-126651904D02*
X172705809Y-125851904D01*
X172705809Y-126613809D02*
X172782000Y-126651904D01*
X172934380Y-126651904D01*
X173010571Y-126613809D01*
X173048666Y-126575714D01*
X173086761Y-126499523D01*
X173086761Y-126270952D01*
X173048666Y-126194761D01*
X173010571Y-126156666D01*
X172934380Y-126118571D01*
X172782000Y-126118571D01*
X172705809Y-126156666D01*
X172020095Y-126613809D02*
X172096285Y-126651904D01*
X172248666Y-126651904D01*
X172324857Y-126613809D01*
X172362952Y-126537619D01*
X172362952Y-126232857D01*
X172324857Y-126156666D01*
X172248666Y-126118571D01*
X172096285Y-126118571D01*
X172020095Y-126156666D01*
X171982000Y-126232857D01*
X171982000Y-126309047D01*
X172362952Y-126385238D01*
X171639142Y-126118571D02*
X171639142Y-126651904D01*
X171639142Y-126194761D02*
X171601047Y-126156666D01*
X171524857Y-126118571D01*
X171410571Y-126118571D01*
X171334380Y-126156666D01*
X171296285Y-126232857D01*
X171296285Y-126651904D01*
X170305809Y-126651904D02*
X170305809Y-125851904D01*
X170115333Y-125851904D01*
X170001047Y-125890000D01*
X169924857Y-125966190D01*
X169886761Y-126042380D01*
X169848666Y-126194761D01*
X169848666Y-126309047D01*
X169886761Y-126461428D01*
X169924857Y-126537619D01*
X170001047Y-126613809D01*
X170115333Y-126651904D01*
X170305809Y-126651904D01*
X169201047Y-126613809D02*
X169277238Y-126651904D01*
X169429619Y-126651904D01*
X169505809Y-126613809D01*
X169543904Y-126537619D01*
X169543904Y-126232857D01*
X169505809Y-126156666D01*
X169429619Y-126118571D01*
X169277238Y-126118571D01*
X169201047Y-126156666D01*
X169162952Y-126232857D01*
X169162952Y-126309047D01*
X169543904Y-126385238D01*
X168705809Y-126651904D02*
X168782000Y-126613809D01*
X168820095Y-126537619D01*
X168820095Y-125851904D01*
X168401047Y-126651904D02*
X168401047Y-126118571D01*
X168401047Y-125851904D02*
X168439142Y-125890000D01*
X168401047Y-125928095D01*
X168362952Y-125890000D01*
X168401047Y-125851904D01*
X168401047Y-125928095D01*
X167677238Y-126613809D02*
X167753428Y-126651904D01*
X167905809Y-126651904D01*
X167982000Y-126613809D01*
X168020095Y-126575714D01*
X168058190Y-126499523D01*
X168058190Y-126270952D01*
X168020095Y-126194761D01*
X167982000Y-126156666D01*
X167905809Y-126118571D01*
X167753428Y-126118571D01*
X167677238Y-126156666D01*
X167334380Y-126651904D02*
X167334380Y-126118571D01*
X167334380Y-125851904D02*
X167372476Y-125890000D01*
X167334380Y-125928095D01*
X167296285Y-125890000D01*
X167334380Y-125851904D01*
X167334380Y-125928095D01*
X166839142Y-126651904D02*
X166915333Y-126613809D01*
X166953428Y-126575714D01*
X166991523Y-126499523D01*
X166991523Y-126270952D01*
X166953428Y-126194761D01*
X166915333Y-126156666D01*
X166839142Y-126118571D01*
X166724857Y-126118571D01*
X166648666Y-126156666D01*
X166610571Y-126194761D01*
X166572476Y-126270952D01*
X166572476Y-126499523D01*
X166610571Y-126575714D01*
X166648666Y-126613809D01*
X166724857Y-126651904D01*
X166839142Y-126651904D01*
X165886761Y-126118571D02*
X165886761Y-126651904D01*
X166229619Y-126118571D02*
X166229619Y-126537619D01*
X166191523Y-126613809D01*
X166115333Y-126651904D01*
X166001047Y-126651904D01*
X165924857Y-126613809D01*
X165886761Y-126575714D01*
X165543904Y-126613809D02*
X165467714Y-126651904D01*
X165315333Y-126651904D01*
X165239142Y-126613809D01*
X165201047Y-126537619D01*
X165201047Y-126499523D01*
X165239142Y-126423333D01*
X165315333Y-126385238D01*
X165429619Y-126385238D01*
X165505809Y-126347142D01*
X165543904Y-126270952D01*
X165543904Y-126232857D01*
X165505809Y-126156666D01*
X165429619Y-126118571D01*
X165315333Y-126118571D01*
X165239142Y-126156666D01*
X175105809Y-127171904D02*
X174839142Y-127971904D01*
X174572476Y-127171904D01*
X173886761Y-127210000D02*
X173962952Y-127171904D01*
X174077238Y-127171904D01*
X174191523Y-127210000D01*
X174267714Y-127286190D01*
X174305809Y-127362380D01*
X174343904Y-127514761D01*
X174343904Y-127629047D01*
X174305809Y-127781428D01*
X174267714Y-127857619D01*
X174191523Y-127933809D01*
X174077238Y-127971904D01*
X174001047Y-127971904D01*
X173886761Y-127933809D01*
X173848666Y-127895714D01*
X173848666Y-127629047D01*
X174001047Y-127629047D01*
X173048666Y-127895714D02*
X173086761Y-127933809D01*
X173201047Y-127971904D01*
X173277238Y-127971904D01*
X173391523Y-127933809D01*
X173467714Y-127857619D01*
X173505809Y-127781428D01*
X173543904Y-127629047D01*
X173543904Y-127514761D01*
X173505809Y-127362380D01*
X173467714Y-127286190D01*
X173391523Y-127210000D01*
X173277238Y-127171904D01*
X173201047Y-127171904D01*
X173086761Y-127210000D01*
X173048666Y-127248095D01*
X172096285Y-127971904D02*
X172096285Y-127171904D01*
X171791523Y-127171904D01*
X171715333Y-127210000D01*
X171677238Y-127248095D01*
X171639142Y-127324285D01*
X171639142Y-127438571D01*
X171677238Y-127514761D01*
X171715333Y-127552857D01*
X171791523Y-127590952D01*
X172096285Y-127590952D01*
X171296285Y-127971904D02*
X171296285Y-127438571D01*
X171296285Y-127590952D02*
X171258190Y-127514761D01*
X171220095Y-127476666D01*
X171143904Y-127438571D01*
X171067714Y-127438571D01*
X170686761Y-127971904D02*
X170762952Y-127933809D01*
X170801047Y-127895714D01*
X170839142Y-127819523D01*
X170839142Y-127590952D01*
X170801047Y-127514761D01*
X170762952Y-127476666D01*
X170686761Y-127438571D01*
X170572476Y-127438571D01*
X170496285Y-127476666D01*
X170458190Y-127514761D01*
X170420095Y-127590952D01*
X170420095Y-127819523D01*
X170458190Y-127895714D01*
X170496285Y-127933809D01*
X170572476Y-127971904D01*
X170686761Y-127971904D01*
X170191523Y-127438571D02*
X169886761Y-127438571D01*
X170077238Y-127171904D02*
X170077238Y-127857619D01*
X170039142Y-127933809D01*
X169962952Y-127971904D01*
X169886761Y-127971904D01*
X169505809Y-127971904D02*
X169582000Y-127933809D01*
X169620095Y-127895714D01*
X169658190Y-127819523D01*
X169658190Y-127590952D01*
X169620095Y-127514761D01*
X169582000Y-127476666D01*
X169505809Y-127438571D01*
X169391523Y-127438571D01*
X169315333Y-127476666D01*
X169277238Y-127514761D01*
X169239142Y-127590952D01*
X169239142Y-127819523D01*
X169277238Y-127895714D01*
X169315333Y-127933809D01*
X169391523Y-127971904D01*
X169505809Y-127971904D01*
X168286761Y-127971904D02*
X168286761Y-127171904D01*
X167982000Y-127171904D01*
X167905809Y-127210000D01*
X167867714Y-127248095D01*
X167829619Y-127324285D01*
X167829619Y-127438571D01*
X167867714Y-127514761D01*
X167905809Y-127552857D01*
X167982000Y-127590952D01*
X168286761Y-127590952D01*
X167029619Y-127895714D02*
X167067714Y-127933809D01*
X167182000Y-127971904D01*
X167258190Y-127971904D01*
X167372476Y-127933809D01*
X167448666Y-127857619D01*
X167486761Y-127781428D01*
X167524857Y-127629047D01*
X167524857Y-127514761D01*
X167486761Y-127362380D01*
X167448666Y-127286190D01*
X167372476Y-127210000D01*
X167258190Y-127171904D01*
X167182000Y-127171904D01*
X167067714Y-127210000D01*
X167029619Y-127248095D01*
X166420095Y-127552857D02*
X166305809Y-127590952D01*
X166267714Y-127629047D01*
X166229619Y-127705238D01*
X166229619Y-127819523D01*
X166267714Y-127895714D01*
X166305809Y-127933809D01*
X166382000Y-127971904D01*
X166686761Y-127971904D01*
X166686761Y-127171904D01*
X166420095Y-127171904D01*
X166343904Y-127210000D01*
X166305809Y-127248095D01*
X166267714Y-127324285D01*
X166267714Y-127400476D01*
X166305809Y-127476666D01*
X166343904Y-127514761D01*
X166420095Y-127552857D01*
X166686761Y-127552857D01*
X165353428Y-127438571D02*
X165162952Y-127971904D01*
X164972476Y-127438571D01*
X164248666Y-127971904D02*
X164705809Y-127971904D01*
X164477238Y-127971904D02*
X164477238Y-127171904D01*
X164553428Y-127286190D01*
X164629619Y-127362380D01*
X164705809Y-127400476D01*
X174496285Y-128910952D02*
X174534380Y-128872857D01*
X174610571Y-128834761D01*
X174686761Y-128834761D01*
X174762952Y-128872857D01*
X174801047Y-128910952D01*
X174839142Y-128987142D01*
X174839142Y-129063333D01*
X174801047Y-129139523D01*
X174762952Y-129177619D01*
X174686761Y-129215714D01*
X174610571Y-129215714D01*
X174534380Y-129177619D01*
X174496285Y-129139523D01*
X174496285Y-128834761D02*
X174496285Y-129139523D01*
X174458190Y-129177619D01*
X174420095Y-129177619D01*
X174343904Y-129139523D01*
X174305809Y-129063333D01*
X174305809Y-128872857D01*
X174382000Y-128758571D01*
X174496285Y-128682380D01*
X174648666Y-128644285D01*
X174801047Y-128682380D01*
X174915333Y-128758571D01*
X174991523Y-128872857D01*
X175029619Y-129025238D01*
X174991523Y-129177619D01*
X174915333Y-129291904D01*
X174801047Y-129368095D01*
X174648666Y-129406190D01*
X174496285Y-129368095D01*
X174382000Y-129291904D01*
X173962952Y-129291904D02*
X173962952Y-128491904D01*
X173962952Y-128796666D02*
X173886761Y-128758571D01*
X173734380Y-128758571D01*
X173658190Y-128796666D01*
X173620095Y-128834761D01*
X173582000Y-128910952D01*
X173582000Y-129139523D01*
X173620095Y-129215714D01*
X173658190Y-129253809D01*
X173734380Y-129291904D01*
X173886761Y-129291904D01*
X173962952Y-129253809D01*
X172896285Y-129291904D02*
X172896285Y-128872857D01*
X172934380Y-128796666D01*
X173010571Y-128758571D01*
X173162952Y-128758571D01*
X173239142Y-128796666D01*
X172896285Y-129253809D02*
X172972476Y-129291904D01*
X173162952Y-129291904D01*
X173239142Y-129253809D01*
X173277238Y-129177619D01*
X173277238Y-129101428D01*
X173239142Y-129025238D01*
X173162952Y-128987142D01*
X172972476Y-128987142D01*
X172896285Y-128949047D01*
X172401047Y-129291904D02*
X172477238Y-129253809D01*
X172515333Y-129177619D01*
X172515333Y-128491904D01*
X171753428Y-129291904D02*
X171753428Y-128491904D01*
X171753428Y-129253809D02*
X171829619Y-129291904D01*
X171982000Y-129291904D01*
X172058190Y-129253809D01*
X172096285Y-129215714D01*
X172134380Y-129139523D01*
X172134380Y-128910952D01*
X172096285Y-128834761D01*
X172058190Y-128796666D01*
X171982000Y-128758571D01*
X171829619Y-128758571D01*
X171753428Y-128796666D01*
X171067714Y-129253809D02*
X171143904Y-129291904D01*
X171296285Y-129291904D01*
X171372476Y-129253809D01*
X171410571Y-129177619D01*
X171410571Y-128872857D01*
X171372476Y-128796666D01*
X171296285Y-128758571D01*
X171143904Y-128758571D01*
X171067714Y-128796666D01*
X171029619Y-128872857D01*
X171029619Y-128949047D01*
X171410571Y-129025238D01*
X170686761Y-128758571D02*
X170686761Y-129291904D01*
X170686761Y-128834761D02*
X170648666Y-128796666D01*
X170572476Y-128758571D01*
X170458190Y-128758571D01*
X170382000Y-128796666D01*
X170343904Y-128872857D01*
X170343904Y-129291904D01*
X169620095Y-128758571D02*
X169620095Y-129406190D01*
X169658190Y-129482380D01*
X169696285Y-129520476D01*
X169772476Y-129558571D01*
X169886761Y-129558571D01*
X169962952Y-129520476D01*
X169620095Y-129253809D02*
X169696285Y-129291904D01*
X169848666Y-129291904D01*
X169924857Y-129253809D01*
X169962952Y-129215714D01*
X170001047Y-129139523D01*
X170001047Y-128910952D01*
X169962952Y-128834761D01*
X169924857Y-128796666D01*
X169848666Y-128758571D01*
X169696285Y-128758571D01*
X169620095Y-128796666D01*
X169239142Y-129291904D02*
X169239142Y-128758571D01*
X169239142Y-128491904D02*
X169277238Y-128530000D01*
X169239142Y-128568095D01*
X169201047Y-128530000D01*
X169239142Y-128491904D01*
X169239142Y-128568095D01*
X168858190Y-128758571D02*
X168858190Y-129291904D01*
X168858190Y-128834761D02*
X168820095Y-128796666D01*
X168743904Y-128758571D01*
X168629619Y-128758571D01*
X168553428Y-128796666D01*
X168515333Y-128872857D01*
X168515333Y-129291904D01*
X167829619Y-129253809D02*
X167905809Y-129291904D01*
X168058190Y-129291904D01*
X168134380Y-129253809D01*
X168172476Y-129177619D01*
X168172476Y-128872857D01*
X168134380Y-128796666D01*
X168058190Y-128758571D01*
X167905809Y-128758571D01*
X167829619Y-128796666D01*
X167791523Y-128872857D01*
X167791523Y-128949047D01*
X168172476Y-129025238D01*
X167143904Y-129253809D02*
X167220095Y-129291904D01*
X167372476Y-129291904D01*
X167448666Y-129253809D01*
X167486761Y-129177619D01*
X167486761Y-128872857D01*
X167448666Y-128796666D01*
X167372476Y-128758571D01*
X167220095Y-128758571D01*
X167143904Y-128796666D01*
X167105809Y-128872857D01*
X167105809Y-128949047D01*
X167486761Y-129025238D01*
X166762952Y-129291904D02*
X166762952Y-128758571D01*
X166762952Y-128910952D02*
X166724857Y-128834761D01*
X166686761Y-128796666D01*
X166610571Y-128758571D01*
X166534380Y-128758571D01*
X174991523Y-130611904D02*
X174991523Y-130078571D01*
X174991523Y-130230952D02*
X174953428Y-130154761D01*
X174915333Y-130116666D01*
X174839142Y-130078571D01*
X174762952Y-130078571D01*
X174191523Y-130573809D02*
X174267714Y-130611904D01*
X174420095Y-130611904D01*
X174496285Y-130573809D01*
X174534380Y-130497619D01*
X174534380Y-130192857D01*
X174496285Y-130116666D01*
X174420095Y-130078571D01*
X174267714Y-130078571D01*
X174191523Y-130116666D01*
X174153428Y-130192857D01*
X174153428Y-130269047D01*
X174534380Y-130345238D01*
X173886761Y-130078571D02*
X173696285Y-130611904D01*
X173505809Y-130078571D01*
X172782000Y-130611904D02*
X173239142Y-130611904D01*
X173010571Y-130611904D02*
X173010571Y-129811904D01*
X173086761Y-129926190D01*
X173162952Y-130002380D01*
X173239142Y-130040476D01*
D11*
X148380261Y-102368404D02*
X148113595Y-103168404D01*
X147846928Y-102368404D01*
X147313595Y-102749357D02*
X147199309Y-102787452D01*
X147161214Y-102825547D01*
X147123119Y-102901738D01*
X147123119Y-103016023D01*
X147161214Y-103092214D01*
X147199309Y-103130309D01*
X147275500Y-103168404D01*
X147580261Y-103168404D01*
X147580261Y-102368404D01*
X147313595Y-102368404D01*
X147237404Y-102406500D01*
X147199309Y-102444595D01*
X147161214Y-102520785D01*
X147161214Y-102596976D01*
X147199309Y-102673166D01*
X147237404Y-102711261D01*
X147313595Y-102749357D01*
X147580261Y-102749357D01*
X146399309Y-103168404D02*
X146780261Y-103168404D01*
X146780261Y-102368404D01*
X146132642Y-103092214D02*
X146094547Y-103130309D01*
X146132642Y-103168404D01*
X146170738Y-103130309D01*
X146132642Y-103092214D01*
X146132642Y-103168404D01*
X145370738Y-103168404D02*
X145751690Y-103168404D01*
X145751690Y-102368404D01*
G36*
X102362000Y-85090000D02*
G01*
X99060000Y-85090000D01*
X99060000Y-82550000D01*
X102362000Y-82550000D01*
X102362000Y-85090000D01*
G37*
X102362000Y-85090000D02*
X99060000Y-85090000D01*
X99060000Y-82550000D01*
X102362000Y-82550000D01*
X102362000Y-85090000D01*
X107683428Y-69792857D02*
X108292952Y-69792857D01*
X107988190Y-69488095D02*
X107988190Y-70097619D01*
X109054857Y-70288095D02*
X108673904Y-70288095D01*
X108635809Y-69907142D01*
X108673904Y-69945238D01*
X108750095Y-69983333D01*
X108940571Y-69983333D01*
X109016761Y-69945238D01*
X109054857Y-69907142D01*
X109092952Y-69830952D01*
X109092952Y-69640476D01*
X109054857Y-69564285D01*
X109016761Y-69526190D01*
X108940571Y-69488095D01*
X108750095Y-69488095D01*
X108673904Y-69526190D01*
X108635809Y-69564285D01*
X109321523Y-70288095D02*
X109588190Y-69488095D01*
X109854857Y-70288095D01*
X174866476Y-73348857D02*
X175476000Y-73348857D01*
X175171238Y-73044095D02*
X175171238Y-73653619D01*
X176276000Y-73044095D02*
X175818857Y-73044095D01*
X176047428Y-73044095D02*
X176047428Y-73844095D01*
X175971238Y-73729809D01*
X175895047Y-73653619D01*
X175818857Y-73615523D01*
X176580761Y-73767904D02*
X176618857Y-73806000D01*
X176695047Y-73844095D01*
X176885523Y-73844095D01*
X176961714Y-73806000D01*
X176999809Y-73767904D01*
X177037904Y-73691714D01*
X177037904Y-73615523D01*
X176999809Y-73501238D01*
X176542666Y-73044095D01*
X177037904Y-73044095D01*
X177266476Y-73844095D02*
X177533142Y-73044095D01*
X177799809Y-73844095D01*
D10*
X122555000Y-73660000D02*
X122555000Y-81280000D01*
X123825000Y-73660000D02*
X123825000Y-81280000D01*
X132715000Y-81280000D02*
X132715000Y-73660000D01*
X133985000Y-73660000D02*
X133985000Y-81280000D01*
D12*
X117873428Y-81689714D02*
X117273428Y-81689714D01*
X117559142Y-81689714D02*
X117559142Y-82032571D01*
X117873428Y-82032571D02*
X117273428Y-82032571D01*
X117473428Y-82575428D02*
X117873428Y-82575428D01*
X117244857Y-82432571D02*
X117673428Y-82289714D01*
X117673428Y-82661142D01*
X117644857Y-82889714D02*
X117644857Y-83346857D01*
X117273428Y-83889714D02*
X117273428Y-83775428D01*
X117302000Y-83718285D01*
X117330571Y-83689714D01*
X117416285Y-83632571D01*
X117530571Y-83604000D01*
X117759142Y-83604000D01*
X117816285Y-83632571D01*
X117844857Y-83661142D01*
X117873428Y-83718285D01*
X117873428Y-83832571D01*
X117844857Y-83889714D01*
X117816285Y-83918285D01*
X117759142Y-83946857D01*
X117616285Y-83946857D01*
X117559142Y-83918285D01*
X117530571Y-83889714D01*
X117502000Y-83832571D01*
X117502000Y-83718285D01*
X117530571Y-83661142D01*
X117559142Y-83632571D01*
X117616285Y-83604000D01*
X127409714Y-82532571D02*
X127409714Y-83132571D01*
X127409714Y-82846857D02*
X127752571Y-82846857D01*
X127752571Y-82532571D02*
X127752571Y-83132571D01*
X127981142Y-83132571D02*
X128352571Y-83132571D01*
X128152571Y-82904000D01*
X128238285Y-82904000D01*
X128295428Y-82875428D01*
X128324000Y-82846857D01*
X128352571Y-82789714D01*
X128352571Y-82646857D01*
X128324000Y-82589714D01*
X128295428Y-82561142D01*
X128238285Y-82532571D01*
X128066857Y-82532571D01*
X128009714Y-82561142D01*
X127981142Y-82589714D01*
X128609714Y-82761142D02*
X129066857Y-82761142D01*
X129609714Y-83132571D02*
X129495428Y-83132571D01*
X129438285Y-83104000D01*
X129409714Y-83075428D01*
X129352571Y-82989714D01*
X129324000Y-82875428D01*
X129324000Y-82646857D01*
X129352571Y-82589714D01*
X129381142Y-82561142D01*
X129438285Y-82532571D01*
X129552571Y-82532571D01*
X129609714Y-82561142D01*
X129638285Y-82589714D01*
X129666857Y-82646857D01*
X129666857Y-82789714D01*
X129638285Y-82846857D01*
X129609714Y-82875428D01*
X129552571Y-82904000D01*
X129438285Y-82904000D01*
X129381142Y-82875428D01*
X129352571Y-82846857D01*
X129324000Y-82789714D01*
X137823714Y-82278571D02*
X137823714Y-82878571D01*
X137823714Y-82592857D02*
X138166571Y-82592857D01*
X138166571Y-82278571D02*
X138166571Y-82878571D01*
X138423714Y-82821428D02*
X138452285Y-82850000D01*
X138509428Y-82878571D01*
X138652285Y-82878571D01*
X138709428Y-82850000D01*
X138738000Y-82821428D01*
X138766571Y-82764285D01*
X138766571Y-82707142D01*
X138738000Y-82621428D01*
X138395142Y-82278571D01*
X138766571Y-82278571D01*
X139023714Y-82507142D02*
X139480857Y-82507142D01*
X140023714Y-82878571D02*
X139909428Y-82878571D01*
X139852285Y-82850000D01*
X139823714Y-82821428D01*
X139766571Y-82735714D01*
X139738000Y-82621428D01*
X139738000Y-82392857D01*
X139766571Y-82335714D01*
X139795142Y-82307142D01*
X139852285Y-82278571D01*
X139966571Y-82278571D01*
X140023714Y-82307142D01*
X140052285Y-82335714D01*
X140080857Y-82392857D01*
X140080857Y-82535714D01*
X140052285Y-82592857D01*
X140023714Y-82621428D01*
X139966571Y-82650000D01*
X139852285Y-82650000D01*
X139795142Y-82621428D01*
X139766571Y-82592857D01*
X139738000Y-82535714D01*
X118127428Y-68481714D02*
X117527428Y-68481714D01*
X117813142Y-68481714D02*
X117813142Y-68824571D01*
X118127428Y-68824571D02*
X117527428Y-68824571D01*
X117727428Y-69367428D02*
X118127428Y-69367428D01*
X117498857Y-69224571D02*
X117927428Y-69081714D01*
X117927428Y-69453142D01*
X117898857Y-69681714D02*
X117898857Y-70138857D01*
X118127428Y-70738857D02*
X118127428Y-70396000D01*
X118127428Y-70567428D02*
X117527428Y-70567428D01*
X117613142Y-70510285D01*
X117670285Y-70453142D01*
X117698857Y-70396000D01*
X128287428Y-68481714D02*
X127687428Y-68481714D01*
X127973142Y-68481714D02*
X127973142Y-68824571D01*
X128287428Y-68824571D02*
X127687428Y-68824571D01*
X127687428Y-69053142D02*
X127687428Y-69424571D01*
X127916000Y-69224571D01*
X127916000Y-69310285D01*
X127944571Y-69367428D01*
X127973142Y-69396000D01*
X128030285Y-69424571D01*
X128173142Y-69424571D01*
X128230285Y-69396000D01*
X128258857Y-69367428D01*
X128287428Y-69310285D01*
X128287428Y-69138857D01*
X128258857Y-69081714D01*
X128230285Y-69053142D01*
X128058857Y-69681714D02*
X128058857Y-70138857D01*
X128287428Y-70738857D02*
X128287428Y-70396000D01*
X128287428Y-70567428D02*
X127687428Y-70567428D01*
X127773142Y-70510285D01*
X127830285Y-70453142D01*
X127858857Y-70396000D01*
X138447428Y-68481714D02*
X137847428Y-68481714D01*
X138133142Y-68481714D02*
X138133142Y-68824571D01*
X138447428Y-68824571D02*
X137847428Y-68824571D01*
X137904571Y-69081714D02*
X137876000Y-69110285D01*
X137847428Y-69167428D01*
X137847428Y-69310285D01*
X137876000Y-69367428D01*
X137904571Y-69396000D01*
X137961714Y-69424571D01*
X138018857Y-69424571D01*
X138104571Y-69396000D01*
X138447428Y-69053142D01*
X138447428Y-69424571D01*
X138218857Y-69681714D02*
X138218857Y-70138857D01*
X138447428Y-70738857D02*
X138447428Y-70396000D01*
X138447428Y-70567428D02*
X137847428Y-70567428D01*
X137933142Y-70510285D01*
X137990285Y-70453142D01*
X138018857Y-70396000D01*
D10*
X133985000Y-81280000D02*
X142875000Y-81280000D01*
X133985000Y-73660000D02*
X142875000Y-73660000D01*
X133985000Y-76200000D02*
X142875000Y-76200000D01*
X133985000Y-78740000D02*
X142875000Y-78740000D01*
X123825000Y-76200000D02*
X132715000Y-76200000D01*
X123825000Y-73660000D02*
X132715000Y-73660000D01*
X123825000Y-78740000D02*
X132715000Y-78740000D01*
X123825000Y-81280000D02*
X132715000Y-81280000D01*
X113665000Y-73660000D02*
X122555000Y-73660000D01*
X113665000Y-81280000D02*
X122555000Y-81280000D01*
X113665000Y-76200000D02*
X122555000Y-76200000D01*
X113665000Y-78740000D02*
X122555000Y-78740000D01*
D11*
X138328428Y-78022404D02*
X138785571Y-78022404D01*
X138557000Y-78022404D02*
X138557000Y-77222404D01*
X138633190Y-77336690D01*
X138709380Y-77412880D01*
X138785571Y-77450976D01*
X138531595Y-79762404D02*
X138455404Y-79762404D01*
X138379214Y-79800500D01*
X138341119Y-79838595D01*
X138303023Y-79914785D01*
X138264928Y-80067166D01*
X138264928Y-80257642D01*
X138303023Y-80410023D01*
X138341119Y-80486214D01*
X138379214Y-80524309D01*
X138455404Y-80562404D01*
X138531595Y-80562404D01*
X138607785Y-80524309D01*
X138645880Y-80486214D01*
X138683976Y-80410023D01*
X138722071Y-80257642D01*
X138722071Y-80067166D01*
X138683976Y-79914785D01*
X138645880Y-79838595D01*
X138607785Y-79800500D01*
X138531595Y-79762404D01*
X138887166Y-72142404D02*
X138391928Y-72142404D01*
X138658595Y-72447166D01*
X138544309Y-72447166D01*
X138468119Y-72485261D01*
X138430023Y-72523357D01*
X138391928Y-72599547D01*
X138391928Y-72790023D01*
X138430023Y-72866214D01*
X138468119Y-72904309D01*
X138544309Y-72942404D01*
X138772880Y-72942404D01*
X138849071Y-72904309D01*
X138887166Y-72866214D01*
X138849071Y-74758595D02*
X138810976Y-74720500D01*
X138734785Y-74682404D01*
X138544309Y-74682404D01*
X138468119Y-74720500D01*
X138430023Y-74758595D01*
X138391928Y-74834785D01*
X138391928Y-74910976D01*
X138430023Y-75025261D01*
X138887166Y-75482404D01*
X138391928Y-75482404D01*
X128206523Y-77031904D02*
X128587476Y-77031904D01*
X128625571Y-77412857D01*
X128587476Y-77374761D01*
X128511285Y-77336666D01*
X128320809Y-77336666D01*
X128244619Y-77374761D01*
X128206523Y-77412857D01*
X128168428Y-77489047D01*
X128168428Y-77679523D01*
X128206523Y-77755714D01*
X128244619Y-77793809D01*
X128320809Y-77831904D01*
X128511285Y-77831904D01*
X128587476Y-77793809D01*
X128625571Y-77755714D01*
X128181119Y-79838571D02*
X128181119Y-80371904D01*
X128371595Y-79533809D02*
X128562071Y-80105238D01*
X128066833Y-80105238D01*
X128308119Y-74491904D02*
X128460500Y-74491904D01*
X128536690Y-74530000D01*
X128574785Y-74568095D01*
X128650976Y-74682380D01*
X128689071Y-74834761D01*
X128689071Y-75139523D01*
X128650976Y-75215714D01*
X128612880Y-75253809D01*
X128536690Y-75291904D01*
X128384309Y-75291904D01*
X128308119Y-75253809D01*
X128270023Y-75215714D01*
X128231928Y-75139523D01*
X128231928Y-74949047D01*
X128270023Y-74872857D01*
X128308119Y-74834761D01*
X128384309Y-74796666D01*
X128536690Y-74796666D01*
X128612880Y-74834761D01*
X128650976Y-74872857D01*
X128689071Y-74949047D01*
X128727166Y-71951904D02*
X128193833Y-71951904D01*
X128536690Y-72751904D01*
X118516380Y-75291904D02*
X118973523Y-75291904D01*
X118744952Y-75291904D02*
X118744952Y-74491904D01*
X118821142Y-74606190D01*
X118897333Y-74682380D01*
X118973523Y-74720476D01*
X118021142Y-74491904D02*
X117944952Y-74491904D01*
X117868761Y-74530000D01*
X117830666Y-74568095D01*
X117792571Y-74644285D01*
X117754476Y-74796666D01*
X117754476Y-74987142D01*
X117792571Y-75139523D01*
X117830666Y-75215714D01*
X117868761Y-75253809D01*
X117944952Y-75291904D01*
X118021142Y-75291904D01*
X118097333Y-75253809D01*
X118135428Y-75215714D01*
X118173523Y-75139523D01*
X118211619Y-74987142D01*
X118211619Y-74796666D01*
X118173523Y-74644285D01*
X118135428Y-74568095D01*
X118097333Y-74530000D01*
X118021142Y-74491904D01*
X118516380Y-77831904D02*
X118364000Y-77831904D01*
X118287809Y-77793809D01*
X118249714Y-77755714D01*
X118173523Y-77641428D01*
X118135428Y-77489047D01*
X118135428Y-77184285D01*
X118173523Y-77108095D01*
X118211619Y-77070000D01*
X118287809Y-77031904D01*
X118440190Y-77031904D01*
X118516380Y-77070000D01*
X118554476Y-77108095D01*
X118592571Y-77184285D01*
X118592571Y-77374761D01*
X118554476Y-77450952D01*
X118516380Y-77489047D01*
X118440190Y-77527142D01*
X118287809Y-77527142D01*
X118211619Y-77489047D01*
X118173523Y-77450952D01*
X118135428Y-77374761D01*
X118440190Y-79851261D02*
X118516380Y-79813166D01*
X118554476Y-79775071D01*
X118592571Y-79698880D01*
X118592571Y-79660785D01*
X118554476Y-79584595D01*
X118516380Y-79546500D01*
X118440190Y-79508404D01*
X118287809Y-79508404D01*
X118211619Y-79546500D01*
X118173523Y-79584595D01*
X118135428Y-79660785D01*
X118135428Y-79698880D01*
X118173523Y-79775071D01*
X118211619Y-79813166D01*
X118287809Y-79851261D01*
X118440190Y-79851261D01*
X118516380Y-79889357D01*
X118554476Y-79927452D01*
X118592571Y-80003642D01*
X118592571Y-80156023D01*
X118554476Y-80232214D01*
X118516380Y-80270309D01*
X118440190Y-80308404D01*
X118287809Y-80308404D01*
X118211619Y-80270309D01*
X118173523Y-80232214D01*
X118135428Y-80156023D01*
X118135428Y-80003642D01*
X118173523Y-79927452D01*
X118211619Y-79889357D01*
X118287809Y-79851261D01*
X118516380Y-72751904D02*
X118973523Y-72751904D01*
X118744952Y-72751904D02*
X118744952Y-71951904D01*
X118821142Y-72066190D01*
X118897333Y-72142380D01*
X118973523Y-72180476D01*
X117754476Y-72751904D02*
X118211619Y-72751904D01*
X117983047Y-72751904D02*
X117983047Y-71951904D01*
X118059238Y-72066190D01*
X118135428Y-72142380D01*
X118211619Y-72180476D01*
X152925428Y-104548000D02*
X152925428Y-104262285D01*
X152325428Y-104262285D01*
X152325428Y-104690857D02*
X152325428Y-105062285D01*
X152554000Y-104862285D01*
X152554000Y-104948000D01*
X152582571Y-105005142D01*
X152611142Y-105033714D01*
X152668285Y-105062285D01*
X152811142Y-105062285D01*
X152868285Y-105033714D01*
X152896857Y-105005142D01*
X152925428Y-104948000D01*
X152925428Y-104776571D01*
X152896857Y-104719428D01*
X152868285Y-104690857D01*
X161644000Y-109745428D02*
X161929714Y-109745428D01*
X161929714Y-109145428D01*
X161186857Y-109345428D02*
X161186857Y-109745428D01*
X161329714Y-109116857D02*
X161472571Y-109545428D01*
X161101142Y-109545428D01*
X178555714Y-77108095D02*
X178174761Y-77108095D01*
X178174761Y-77908095D01*
X179241428Y-77108095D02*
X178784285Y-77108095D01*
X179012857Y-77108095D02*
X179012857Y-77908095D01*
X178936666Y-77793809D01*
X178860476Y-77717619D01*
X178784285Y-77679523D01*
X179546190Y-77831904D02*
X179584285Y-77870000D01*
X179660476Y-77908095D01*
X179850952Y-77908095D01*
X179927142Y-77870000D01*
X179965238Y-77831904D01*
X180003333Y-77755714D01*
X180003333Y-77679523D01*
X179965238Y-77565238D01*
X179508095Y-77108095D01*
X180003333Y-77108095D01*
X179239857Y-97113857D02*
X179239857Y-97571000D01*
X179468428Y-97342428D02*
X179011285Y-97342428D01*
X179468428Y-98171000D02*
X179468428Y-97828142D01*
X179468428Y-97999571D02*
X178868428Y-97999571D01*
X178954142Y-97942428D01*
X179011285Y-97885285D01*
X179039857Y-97828142D01*
X178925571Y-98399571D02*
X178897000Y-98428142D01*
X178868428Y-98485285D01*
X178868428Y-98628142D01*
X178897000Y-98685285D01*
X178925571Y-98713857D01*
X178982714Y-98742428D01*
X179039857Y-98742428D01*
X179125571Y-98713857D01*
X179468428Y-98371000D01*
X179468428Y-98742428D01*
X178868428Y-98913857D02*
X179468428Y-99113857D01*
X178868428Y-99313857D01*
X167718000Y-108024571D02*
X167718000Y-107538857D01*
X167746571Y-107481714D01*
X167775142Y-107453142D01*
X167832285Y-107424571D01*
X167946571Y-107424571D01*
X168003714Y-107453142D01*
X168032285Y-107481714D01*
X168060857Y-107538857D01*
X168060857Y-108024571D01*
X168689428Y-107481714D02*
X168660857Y-107453142D01*
X168575142Y-107424571D01*
X168518000Y-107424571D01*
X168432285Y-107453142D01*
X168375142Y-107510285D01*
X168346571Y-107567428D01*
X168318000Y-107681714D01*
X168318000Y-107767428D01*
X168346571Y-107881714D01*
X168375142Y-107938857D01*
X168432285Y-107996000D01*
X168518000Y-108024571D01*
X168575142Y-108024571D01*
X168660857Y-107996000D01*
X168689428Y-107967428D01*
X168918000Y-107967428D02*
X168946571Y-107996000D01*
X169003714Y-108024571D01*
X169146571Y-108024571D01*
X169203714Y-107996000D01*
X169232285Y-107967428D01*
X169260857Y-107910285D01*
X169260857Y-107853142D01*
X169232285Y-107767428D01*
X168889428Y-107424571D01*
X169260857Y-107424571D01*
X169518000Y-107653142D02*
X169975142Y-107653142D01*
X170575142Y-107424571D02*
X170232285Y-107424571D01*
X170403714Y-107424571D02*
X170403714Y-108024571D01*
X170346571Y-107938857D01*
X170289428Y-107881714D01*
X170232285Y-107853142D01*
X170946571Y-108024571D02*
X171003714Y-108024571D01*
X171060857Y-107996000D01*
X171089428Y-107967428D01*
X171118000Y-107910285D01*
X171146571Y-107796000D01*
X171146571Y-107653142D01*
X171118000Y-107538857D01*
X171089428Y-107481714D01*
X171060857Y-107453142D01*
X171003714Y-107424571D01*
X170946571Y-107424571D01*
X170889428Y-107453142D01*
X170860857Y-107481714D01*
X170832285Y-107538857D01*
X170803714Y-107653142D01*
X170803714Y-107796000D01*
X170832285Y-107910285D01*
X170860857Y-107967428D01*
X170889428Y-107996000D01*
X170946571Y-108024571D01*
X167874714Y-89858904D02*
X167874714Y-90506523D01*
X167836619Y-90582714D01*
X167798523Y-90620809D01*
X167722333Y-90658904D01*
X167569952Y-90658904D01*
X167493761Y-90620809D01*
X167455666Y-90582714D01*
X167417571Y-90506523D01*
X167417571Y-89858904D01*
X166579476Y-90582714D02*
X166617571Y-90620809D01*
X166731857Y-90658904D01*
X166808047Y-90658904D01*
X166922333Y-90620809D01*
X166998523Y-90544619D01*
X167036619Y-90468428D01*
X167074714Y-90316047D01*
X167074714Y-90201761D01*
X167036619Y-90049380D01*
X166998523Y-89973190D01*
X166922333Y-89897000D01*
X166808047Y-89858904D01*
X166731857Y-89858904D01*
X166617571Y-89897000D01*
X166579476Y-89935095D01*
X166274714Y-89935095D02*
X166236619Y-89897000D01*
X166160428Y-89858904D01*
X165969952Y-89858904D01*
X165893761Y-89897000D01*
X165855666Y-89935095D01*
X165817571Y-90011285D01*
X165817571Y-90087476D01*
X165855666Y-90201761D01*
X166312809Y-90658904D01*
X165817571Y-90658904D01*
X165474714Y-90354142D02*
X164865190Y-90354142D01*
X164141380Y-90125571D02*
X164141380Y-90658904D01*
X164331857Y-89820809D02*
X164522333Y-90392238D01*
X164027095Y-90392238D01*
X167874714Y-87318904D02*
X167874714Y-87966523D01*
X167836619Y-88042714D01*
X167798523Y-88080809D01*
X167722333Y-88118904D01*
X167569952Y-88118904D01*
X167493761Y-88080809D01*
X167455666Y-88042714D01*
X167417571Y-87966523D01*
X167417571Y-87318904D01*
X166579476Y-88042714D02*
X166617571Y-88080809D01*
X166731857Y-88118904D01*
X166808047Y-88118904D01*
X166922333Y-88080809D01*
X166998523Y-88004619D01*
X167036619Y-87928428D01*
X167074714Y-87776047D01*
X167074714Y-87661761D01*
X167036619Y-87509380D01*
X166998523Y-87433190D01*
X166922333Y-87357000D01*
X166808047Y-87318904D01*
X166731857Y-87318904D01*
X166617571Y-87357000D01*
X166579476Y-87395095D01*
X166274714Y-87395095D02*
X166236619Y-87357000D01*
X166160428Y-87318904D01*
X165969952Y-87318904D01*
X165893761Y-87357000D01*
X165855666Y-87395095D01*
X165817571Y-87471285D01*
X165817571Y-87547476D01*
X165855666Y-87661761D01*
X166312809Y-88118904D01*
X165817571Y-88118904D01*
X165474714Y-87814142D02*
X164865190Y-87814142D01*
X164560428Y-87318904D02*
X164065190Y-87318904D01*
X164331857Y-87623666D01*
X164217571Y-87623666D01*
X164141380Y-87661761D01*
X164103285Y-87699857D01*
X164065190Y-87776047D01*
X164065190Y-87966523D01*
X164103285Y-88042714D01*
X164141380Y-88080809D01*
X164217571Y-88118904D01*
X164446142Y-88118904D01*
X164522333Y-88080809D01*
X164560428Y-88042714D01*
X168001714Y-92398904D02*
X168001714Y-93046523D01*
X167963619Y-93122714D01*
X167925523Y-93160809D01*
X167849333Y-93198904D01*
X167696952Y-93198904D01*
X167620761Y-93160809D01*
X167582666Y-93122714D01*
X167544571Y-93046523D01*
X167544571Y-92398904D01*
X166706476Y-93122714D02*
X166744571Y-93160809D01*
X166858857Y-93198904D01*
X166935047Y-93198904D01*
X167049333Y-93160809D01*
X167125523Y-93084619D01*
X167163619Y-93008428D01*
X167201714Y-92856047D01*
X167201714Y-92741761D01*
X167163619Y-92589380D01*
X167125523Y-92513190D01*
X167049333Y-92437000D01*
X166935047Y-92398904D01*
X166858857Y-92398904D01*
X166744571Y-92437000D01*
X166706476Y-92475095D01*
X166401714Y-92475095D02*
X166363619Y-92437000D01*
X166287428Y-92398904D01*
X166096952Y-92398904D01*
X166020761Y-92437000D01*
X165982666Y-92475095D01*
X165944571Y-92551285D01*
X165944571Y-92627476D01*
X165982666Y-92741761D01*
X166439809Y-93198904D01*
X165944571Y-93198904D01*
X165601714Y-92894142D02*
X164992190Y-92894142D01*
X164230285Y-92398904D02*
X164611238Y-92398904D01*
X164649333Y-92779857D01*
X164611238Y-92741761D01*
X164535047Y-92703666D01*
X164344571Y-92703666D01*
X164268380Y-92741761D01*
X164230285Y-92779857D01*
X164192190Y-92856047D01*
X164192190Y-93046523D01*
X164230285Y-93122714D01*
X164268380Y-93160809D01*
X164344571Y-93198904D01*
X164535047Y-93198904D01*
X164611238Y-93160809D01*
X164649333Y-93122714D01*
X142150881Y-89922404D02*
X142150881Y-90570023D01*
X142112786Y-90646214D01*
X142074690Y-90684309D01*
X141998500Y-90722404D01*
X141846119Y-90722404D01*
X141769928Y-90684309D01*
X141731833Y-90646214D01*
X141693738Y-90570023D01*
X141693738Y-89922404D01*
X140893738Y-89960500D02*
X140969928Y-89922404D01*
X141084214Y-89922404D01*
X141198500Y-89960500D01*
X141274690Y-90036690D01*
X141312786Y-90112880D01*
X141350881Y-90265261D01*
X141350881Y-90379547D01*
X141312786Y-90531928D01*
X141274690Y-90608119D01*
X141198500Y-90684309D01*
X141084214Y-90722404D01*
X141008024Y-90722404D01*
X140893738Y-90684309D01*
X140855643Y-90646214D01*
X140855643Y-90379547D01*
X141008024Y-90379547D01*
X140588976Y-89922404D02*
X140093738Y-89922404D01*
X140360405Y-90227166D01*
X140246119Y-90227166D01*
X140169928Y-90265261D01*
X140131833Y-90303357D01*
X140093738Y-90379547D01*
X140093738Y-90570023D01*
X140131833Y-90646214D01*
X140169928Y-90684309D01*
X140246119Y-90722404D01*
X140474690Y-90722404D01*
X140550881Y-90684309D01*
X140588976Y-90646214D01*
X139750881Y-90417642D02*
X139141357Y-90417642D01*
X138341357Y-90722404D02*
X138798500Y-90722404D01*
X138569928Y-90722404D02*
X138569928Y-89922404D01*
X138646119Y-90036690D01*
X138722309Y-90112880D01*
X138798500Y-90150976D01*
X141960404Y-87128404D02*
X141465166Y-87128404D01*
X141731833Y-87433166D01*
X141617547Y-87433166D01*
X141541356Y-87471261D01*
X141503261Y-87509357D01*
X141465166Y-87585547D01*
X141465166Y-87776023D01*
X141503261Y-87852214D01*
X141541356Y-87890309D01*
X141617547Y-87928404D01*
X141846118Y-87928404D01*
X141922309Y-87890309D01*
X141960404Y-87852214D01*
X141122309Y-87852214D02*
X141084213Y-87890309D01*
X141122309Y-87928404D01*
X141160404Y-87890309D01*
X141122309Y-87852214D01*
X141122309Y-87928404D01*
X140360404Y-87128404D02*
X140741356Y-87128404D01*
X140779452Y-87509357D01*
X140741356Y-87471261D01*
X140665166Y-87433166D01*
X140474690Y-87433166D01*
X140398499Y-87471261D01*
X140360404Y-87509357D01*
X140322309Y-87585547D01*
X140322309Y-87776023D01*
X140360404Y-87852214D01*
X140398499Y-87890309D01*
X140474690Y-87928404D01*
X140665166Y-87928404D01*
X140741356Y-87890309D01*
X140779452Y-87852214D01*
X139979452Y-87928404D02*
X139979452Y-87128404D01*
X139788975Y-87128404D01*
X139674690Y-87166500D01*
X139598499Y-87242690D01*
X139560404Y-87318880D01*
X139522309Y-87471261D01*
X139522309Y-87585547D01*
X139560404Y-87737928D01*
X139598499Y-87814119D01*
X139674690Y-87890309D01*
X139788975Y-87928404D01*
X139979452Y-87928404D01*
X139179452Y-87928404D02*
X139179452Y-87128404D01*
X138798499Y-87928404D02*
X138798499Y-87128404D01*
X138341356Y-87928404D02*
X138684213Y-87471261D01*
X138341356Y-87128404D02*
X138798499Y-87585547D01*
X142150881Y-94875404D02*
X142150881Y-95523023D01*
X142112786Y-95599214D01*
X142074690Y-95637309D01*
X141998500Y-95675404D01*
X141846119Y-95675404D01*
X141769928Y-95637309D01*
X141731833Y-95599214D01*
X141693738Y-95523023D01*
X141693738Y-94875404D01*
X140893738Y-94913500D02*
X140969928Y-94875404D01*
X141084214Y-94875404D01*
X141198500Y-94913500D01*
X141274690Y-94989690D01*
X141312786Y-95065880D01*
X141350881Y-95218261D01*
X141350881Y-95332547D01*
X141312786Y-95484928D01*
X141274690Y-95561119D01*
X141198500Y-95637309D01*
X141084214Y-95675404D01*
X141008024Y-95675404D01*
X140893738Y-95637309D01*
X140855643Y-95599214D01*
X140855643Y-95332547D01*
X141008024Y-95332547D01*
X140588976Y-94875404D02*
X140093738Y-94875404D01*
X140360405Y-95180166D01*
X140246119Y-95180166D01*
X140169928Y-95218261D01*
X140131833Y-95256357D01*
X140093738Y-95332547D01*
X140093738Y-95523023D01*
X140131833Y-95599214D01*
X140169928Y-95637309D01*
X140246119Y-95675404D01*
X140474690Y-95675404D01*
X140550881Y-95637309D01*
X140588976Y-95599214D01*
X139750881Y-95370642D02*
X139141357Y-95370642D01*
X138417547Y-94875404D02*
X138569928Y-94875404D01*
X138646119Y-94913500D01*
X138684214Y-94951595D01*
X138760405Y-95065880D01*
X138798500Y-95218261D01*
X138798500Y-95523023D01*
X138760405Y-95599214D01*
X138722309Y-95637309D01*
X138646119Y-95675404D01*
X138493738Y-95675404D01*
X138417547Y-95637309D01*
X138379452Y-95599214D01*
X138341357Y-95523023D01*
X138341357Y-95332547D01*
X138379452Y-95256357D01*
X138417547Y-95218261D01*
X138493738Y-95180166D01*
X138646119Y-95180166D01*
X138722309Y-95218261D01*
X138760405Y-95256357D01*
X138798500Y-95332547D01*
X142150881Y-92462404D02*
X142150881Y-93110023D01*
X142112786Y-93186214D01*
X142074690Y-93224309D01*
X141998500Y-93262404D01*
X141846119Y-93262404D01*
X141769928Y-93224309D01*
X141731833Y-93186214D01*
X141693738Y-93110023D01*
X141693738Y-92462404D01*
X140893738Y-92500500D02*
X140969928Y-92462404D01*
X141084214Y-92462404D01*
X141198500Y-92500500D01*
X141274690Y-92576690D01*
X141312786Y-92652880D01*
X141350881Y-92805261D01*
X141350881Y-92919547D01*
X141312786Y-93071928D01*
X141274690Y-93148119D01*
X141198500Y-93224309D01*
X141084214Y-93262404D01*
X141008024Y-93262404D01*
X140893738Y-93224309D01*
X140855643Y-93186214D01*
X140855643Y-92919547D01*
X141008024Y-92919547D01*
X140588976Y-92462404D02*
X140093738Y-92462404D01*
X140360405Y-92767166D01*
X140246119Y-92767166D01*
X140169928Y-92805261D01*
X140131833Y-92843357D01*
X140093738Y-92919547D01*
X140093738Y-93110023D01*
X140131833Y-93186214D01*
X140169928Y-93224309D01*
X140246119Y-93262404D01*
X140474690Y-93262404D01*
X140550881Y-93224309D01*
X140588976Y-93186214D01*
X139750881Y-92957642D02*
X139141357Y-92957642D01*
X138836595Y-92462404D02*
X138303262Y-92462404D01*
X138646119Y-93262404D01*
X142150881Y-97415404D02*
X142150881Y-98063023D01*
X142112786Y-98139214D01*
X142074690Y-98177309D01*
X141998500Y-98215404D01*
X141846119Y-98215404D01*
X141769928Y-98177309D01*
X141731833Y-98139214D01*
X141693738Y-98063023D01*
X141693738Y-97415404D01*
X140893738Y-97453500D02*
X140969928Y-97415404D01*
X141084214Y-97415404D01*
X141198500Y-97453500D01*
X141274690Y-97529690D01*
X141312786Y-97605880D01*
X141350881Y-97758261D01*
X141350881Y-97872547D01*
X141312786Y-98024928D01*
X141274690Y-98101119D01*
X141198500Y-98177309D01*
X141084214Y-98215404D01*
X141008024Y-98215404D01*
X140893738Y-98177309D01*
X140855643Y-98139214D01*
X140855643Y-97872547D01*
X141008024Y-97872547D01*
X140588976Y-97415404D02*
X140093738Y-97415404D01*
X140360405Y-97720166D01*
X140246119Y-97720166D01*
X140169928Y-97758261D01*
X140131833Y-97796357D01*
X140093738Y-97872547D01*
X140093738Y-98063023D01*
X140131833Y-98139214D01*
X140169928Y-98177309D01*
X140246119Y-98215404D01*
X140474690Y-98215404D01*
X140550881Y-98177309D01*
X140588976Y-98139214D01*
X139750881Y-97910642D02*
X139141357Y-97910642D01*
X138379452Y-97415404D02*
X138760405Y-97415404D01*
X138798500Y-97796357D01*
X138760405Y-97758261D01*
X138684214Y-97720166D01*
X138493738Y-97720166D01*
X138417547Y-97758261D01*
X138379452Y-97796357D01*
X138341357Y-97872547D01*
X138341357Y-98063023D01*
X138379452Y-98139214D01*
X138417547Y-98177309D01*
X138493738Y-98215404D01*
X138684214Y-98215404D01*
X138760405Y-98177309D01*
X138798500Y-98139214D01*
D10*
X146431000Y-113030000D02*
X138557000Y-113030000D01*
X138557000Y-110490000D02*
X146431000Y-110490000D01*
X146431000Y-118110000D02*
X138684000Y-118110000D01*
X146431000Y-107950000D02*
X138557000Y-107950000D01*
X138684000Y-115570000D02*
X146431000Y-115570000D01*
D11*
X149163285Y-106813309D02*
X149048999Y-106851404D01*
X148858523Y-106851404D01*
X148782333Y-106813309D01*
X148744237Y-106775214D01*
X148706142Y-106699023D01*
X148706142Y-106622833D01*
X148744237Y-106546642D01*
X148782333Y-106508547D01*
X148858523Y-106470452D01*
X149010904Y-106432357D01*
X149087094Y-106394261D01*
X149125190Y-106356166D01*
X149163285Y-106279976D01*
X149163285Y-106203785D01*
X149125190Y-106127595D01*
X149087094Y-106089500D01*
X149010904Y-106051404D01*
X148820428Y-106051404D01*
X148706142Y-106089500D01*
X148477571Y-106318071D02*
X148172809Y-106318071D01*
X148363285Y-106051404D02*
X148363285Y-106737119D01*
X148325190Y-106813309D01*
X148248999Y-106851404D01*
X148172809Y-106851404D01*
X147906142Y-106851404D02*
X147906142Y-106318071D01*
X147906142Y-106470452D02*
X147868047Y-106394261D01*
X147829952Y-106356166D01*
X147753761Y-106318071D01*
X147677571Y-106318071D01*
X147106142Y-106813309D02*
X147182333Y-106851404D01*
X147334713Y-106851404D01*
X147410904Y-106813309D01*
X147448999Y-106737119D01*
X147448999Y-106432357D01*
X147410904Y-106356166D01*
X147334713Y-106318071D01*
X147182333Y-106318071D01*
X147106142Y-106356166D01*
X147068047Y-106432357D01*
X147068047Y-106508547D01*
X147448999Y-106584738D01*
X146839475Y-106318071D02*
X146534713Y-106318071D01*
X146725190Y-106051404D02*
X146725190Y-106737119D01*
X146687094Y-106813309D01*
X146610904Y-106851404D01*
X146534713Y-106851404D01*
X145925190Y-106813309D02*
X146001380Y-106851404D01*
X146153761Y-106851404D01*
X146229952Y-106813309D01*
X146268047Y-106775214D01*
X146306142Y-106699023D01*
X146306142Y-106470452D01*
X146268047Y-106394261D01*
X146229952Y-106356166D01*
X146153761Y-106318071D01*
X146001380Y-106318071D01*
X145925190Y-106356166D01*
X145582333Y-106851404D02*
X145582333Y-106051404D01*
X145239475Y-106851404D02*
X145239475Y-106432357D01*
X145277571Y-106356166D01*
X145353761Y-106318071D01*
X145468047Y-106318071D01*
X145544237Y-106356166D01*
X145582333Y-106394261D01*
X149201381Y-111575857D02*
X149087095Y-111613952D01*
X149049000Y-111652047D01*
X149010904Y-111728238D01*
X149010904Y-111842523D01*
X149049000Y-111918714D01*
X149087095Y-111956809D01*
X149163285Y-111994904D01*
X149468047Y-111994904D01*
X149468047Y-111194904D01*
X149201381Y-111194904D01*
X149125190Y-111233000D01*
X149087095Y-111271095D01*
X149049000Y-111347285D01*
X149049000Y-111423476D01*
X149087095Y-111499666D01*
X149125190Y-111537761D01*
X149201381Y-111575857D01*
X149468047Y-111575857D01*
X148706142Y-111766333D02*
X148325190Y-111766333D01*
X148782333Y-111994904D02*
X148515666Y-111194904D01*
X148249000Y-111994904D01*
X147982333Y-111194904D02*
X147982333Y-111842523D01*
X147944238Y-111918714D01*
X147906142Y-111956809D01*
X147829952Y-111994904D01*
X147677571Y-111994904D01*
X147601381Y-111956809D01*
X147563285Y-111918714D01*
X147525190Y-111842523D01*
X147525190Y-111194904D01*
X147182333Y-111956809D02*
X147068047Y-111994904D01*
X146877571Y-111994904D01*
X146801381Y-111956809D01*
X146763285Y-111918714D01*
X146725190Y-111842523D01*
X146725190Y-111766333D01*
X146763285Y-111690142D01*
X146801381Y-111652047D01*
X146877571Y-111613952D01*
X147029952Y-111575857D01*
X147106142Y-111537761D01*
X147144238Y-111499666D01*
X147182333Y-111423476D01*
X147182333Y-111347285D01*
X147144238Y-111271095D01*
X147106142Y-111233000D01*
X147029952Y-111194904D01*
X146839476Y-111194904D01*
X146725190Y-111233000D01*
X145963285Y-111994904D02*
X146420428Y-111994904D01*
X146191857Y-111994904D02*
X146191857Y-111194904D01*
X146268047Y-111309190D01*
X146344238Y-111385380D01*
X146420428Y-111423476D01*
X145658523Y-111271095D02*
X145620428Y-111233000D01*
X145544238Y-111194904D01*
X145353762Y-111194904D01*
X145277571Y-111233000D01*
X145239476Y-111271095D01*
X145201381Y-111347285D01*
X145201381Y-111423476D01*
X145239476Y-111537761D01*
X145696619Y-111994904D01*
X145201381Y-111994904D01*
X145584857Y-120659428D02*
X145584857Y-120859428D01*
X145270571Y-120859428D02*
X145870571Y-120859428D01*
X145870571Y-120573714D01*
X145270571Y-120259428D02*
X145299142Y-120316571D01*
X145356285Y-120345142D01*
X145870571Y-120345142D01*
X145270571Y-120030857D02*
X145670571Y-120030857D01*
X145870571Y-120030857D02*
X145842000Y-120059428D01*
X145813428Y-120030857D01*
X145842000Y-120002285D01*
X145870571Y-120030857D01*
X145813428Y-120030857D01*
X145670571Y-119745142D02*
X145070571Y-119745142D01*
X145642000Y-119745142D02*
X145670571Y-119688000D01*
X145670571Y-119573714D01*
X145642000Y-119516571D01*
X145613428Y-119488000D01*
X145556285Y-119459428D01*
X145384857Y-119459428D01*
X145327714Y-119488000D01*
X145299142Y-119516571D01*
X145270571Y-119573714D01*
X145270571Y-119688000D01*
X145299142Y-119745142D01*
X145870571Y-118945142D02*
X145870571Y-119059428D01*
X145842000Y-119116571D01*
X145813428Y-119145142D01*
X145727714Y-119202285D01*
X145613428Y-119230857D01*
X145384857Y-119230857D01*
X145327714Y-119202285D01*
X145299142Y-119173714D01*
X145270571Y-119116571D01*
X145270571Y-119002285D01*
X145299142Y-118945142D01*
X145327714Y-118916571D01*
X145384857Y-118888000D01*
X145527714Y-118888000D01*
X145584857Y-118916571D01*
X145613428Y-118945142D01*
X145642000Y-119002285D01*
X145642000Y-119116571D01*
X145613428Y-119173714D01*
X145584857Y-119202285D01*
X145527714Y-119230857D01*
X148629952Y-114534904D02*
X148629952Y-113734904D01*
X148629952Y-114115857D02*
X148172809Y-114115857D01*
X148172809Y-114534904D02*
X148172809Y-113734904D01*
X147791856Y-114534904D02*
X147791856Y-113734904D01*
X147601380Y-113734904D01*
X147487094Y-113773000D01*
X147410904Y-113849190D01*
X147372809Y-113925380D01*
X147334714Y-114077761D01*
X147334714Y-114192047D01*
X147372809Y-114344428D01*
X147410904Y-114420619D01*
X147487094Y-114496809D01*
X147601380Y-114534904D01*
X147791856Y-114534904D01*
X147029952Y-114496809D02*
X146915666Y-114534904D01*
X146725190Y-114534904D01*
X146648999Y-114496809D01*
X146610904Y-114458714D01*
X146572809Y-114382523D01*
X146572809Y-114306333D01*
X146610904Y-114230142D01*
X146648999Y-114192047D01*
X146725190Y-114153952D01*
X146877571Y-114115857D01*
X146953761Y-114077761D01*
X146991856Y-114039666D01*
X147029952Y-113963476D01*
X147029952Y-113887285D01*
X146991856Y-113811095D01*
X146953761Y-113773000D01*
X146877571Y-113734904D01*
X146687094Y-113734904D01*
X146572809Y-113773000D01*
X146229952Y-114115857D02*
X145963285Y-114115857D01*
X145848999Y-114534904D02*
X146229952Y-114534904D01*
X146229952Y-113734904D01*
X145848999Y-113734904D01*
X145125190Y-114534904D02*
X145506142Y-114534904D01*
X145506142Y-113734904D01*
X148668047Y-109454904D02*
X148668047Y-108654904D01*
X148401381Y-109226333D01*
X148134714Y-108654904D01*
X148134714Y-109454904D01*
X147791857Y-108731095D02*
X147753762Y-108693000D01*
X147677571Y-108654904D01*
X147487095Y-108654904D01*
X147410904Y-108693000D01*
X147372809Y-108731095D01*
X147334714Y-108807285D01*
X147334714Y-108883476D01*
X147372809Y-108997761D01*
X147829952Y-109454904D01*
X147334714Y-109454904D01*
X147029952Y-109416809D02*
X146915666Y-109454904D01*
X146725190Y-109454904D01*
X146649000Y-109416809D01*
X146610904Y-109378714D01*
X146572809Y-109302523D01*
X146572809Y-109226333D01*
X146610904Y-109150142D01*
X146649000Y-109112047D01*
X146725190Y-109073952D01*
X146877571Y-109035857D01*
X146953762Y-108997761D01*
X146991857Y-108959666D01*
X147029952Y-108883476D01*
X147029952Y-108807285D01*
X146991857Y-108731095D01*
X146953762Y-108693000D01*
X146877571Y-108654904D01*
X146687095Y-108654904D01*
X146572809Y-108693000D01*
X146229952Y-109035857D02*
X145963285Y-109035857D01*
X145849000Y-109454904D02*
X146229952Y-109454904D01*
X146229952Y-108654904D01*
X145849000Y-108654904D01*
X145125190Y-109454904D02*
X145506142Y-109454904D01*
X145506142Y-108654904D01*
X145584857Y-117484428D02*
X145584857Y-117684428D01*
X145270571Y-117684428D02*
X145870571Y-117684428D01*
X145870571Y-117398714D01*
X145270571Y-117084428D02*
X145299142Y-117141571D01*
X145356285Y-117170142D01*
X145870571Y-117170142D01*
X145270571Y-116855857D02*
X145670571Y-116855857D01*
X145870571Y-116855857D02*
X145842000Y-116884428D01*
X145813428Y-116855857D01*
X145842000Y-116827285D01*
X145870571Y-116855857D01*
X145813428Y-116855857D01*
X145670571Y-116570142D02*
X145070571Y-116570142D01*
X145642000Y-116570142D02*
X145670571Y-116513000D01*
X145670571Y-116398714D01*
X145642000Y-116341571D01*
X145613428Y-116313000D01*
X145556285Y-116284428D01*
X145384857Y-116284428D01*
X145327714Y-116313000D01*
X145299142Y-116341571D01*
X145270571Y-116398714D01*
X145270571Y-116513000D01*
X145299142Y-116570142D01*
X145870571Y-116084428D02*
X145870571Y-115684428D01*
X145270571Y-115941571D01*
X193455095Y-120573738D02*
X193836047Y-120840404D01*
X193455095Y-121030880D02*
X194255095Y-121030880D01*
X194255095Y-120726119D01*
X194217000Y-120649928D01*
X194178904Y-120611833D01*
X194102714Y-120573738D01*
X193988428Y-120573738D01*
X193912238Y-120611833D01*
X193874142Y-120649928D01*
X193836047Y-120726119D01*
X193836047Y-121030880D01*
X193531285Y-119773738D02*
X193493190Y-119811833D01*
X193455095Y-119926119D01*
X193455095Y-120002309D01*
X193493190Y-120116595D01*
X193569380Y-120192785D01*
X193645571Y-120230880D01*
X193797952Y-120268976D01*
X193912238Y-120268976D01*
X194064619Y-120230880D01*
X194140809Y-120192785D01*
X194217000Y-120116595D01*
X194255095Y-120002309D01*
X194255095Y-119926119D01*
X194217000Y-119811833D01*
X194178904Y-119773738D01*
X193683666Y-119468976D02*
X193683666Y-119088023D01*
X193455095Y-119545166D02*
X194255095Y-119278500D01*
X193455095Y-119011833D01*
X192193190Y-121621357D02*
X192155095Y-121507071D01*
X192155095Y-121316595D01*
X192193190Y-121240404D01*
X192231285Y-121202309D01*
X192307476Y-121164214D01*
X192383666Y-121164214D01*
X192459857Y-121202309D01*
X192497952Y-121240404D01*
X192536047Y-121316595D01*
X192574142Y-121468976D01*
X192612238Y-121545166D01*
X192650333Y-121583261D01*
X192726523Y-121621357D01*
X192802714Y-121621357D01*
X192878904Y-121583261D01*
X192917000Y-121545166D01*
X192955095Y-121468976D01*
X192955095Y-121278500D01*
X192917000Y-121164214D01*
X192155095Y-120821357D02*
X192955095Y-120821357D01*
X192155095Y-120478500D02*
X192574142Y-120478500D01*
X192650333Y-120516595D01*
X192688428Y-120592785D01*
X192688428Y-120707071D01*
X192650333Y-120783261D01*
X192612238Y-120821357D01*
X192688428Y-119754690D02*
X192155095Y-119754690D01*
X192688428Y-120097547D02*
X192269380Y-120097547D01*
X192193190Y-120059452D01*
X192155095Y-119983261D01*
X192155095Y-119868976D01*
X192193190Y-119792785D01*
X192231285Y-119754690D01*
X192688428Y-119373738D02*
X192155095Y-119373738D01*
X192612238Y-119373738D02*
X192650333Y-119335642D01*
X192688428Y-119259452D01*
X192688428Y-119145166D01*
X192650333Y-119068976D01*
X192574142Y-119030880D01*
X192155095Y-119030880D01*
X192688428Y-118764214D02*
X192688428Y-118459452D01*
X192955095Y-118649928D02*
X192269380Y-118649928D01*
X192193190Y-118611833D01*
X192155095Y-118535642D01*
X192155095Y-118459452D01*
X186931238Y-111281404D02*
X187197904Y-110900452D01*
X187388380Y-111281404D02*
X187388380Y-110481404D01*
X187083619Y-110481404D01*
X187007428Y-110519500D01*
X186969333Y-110557595D01*
X186931238Y-110633785D01*
X186931238Y-110748071D01*
X186969333Y-110824261D01*
X187007428Y-110862357D01*
X187083619Y-110900452D01*
X187388380Y-110900452D01*
X186131238Y-111205214D02*
X186169333Y-111243309D01*
X186283619Y-111281404D01*
X186359809Y-111281404D01*
X186474095Y-111243309D01*
X186550285Y-111167119D01*
X186588380Y-111090928D01*
X186626476Y-110938547D01*
X186626476Y-110824261D01*
X186588380Y-110671880D01*
X186550285Y-110595690D01*
X186474095Y-110519500D01*
X186359809Y-110481404D01*
X186283619Y-110481404D01*
X186169333Y-110519500D01*
X186131238Y-110557595D01*
X185826476Y-111052833D02*
X185445523Y-111052833D01*
X185902666Y-111281404D02*
X185636000Y-110481404D01*
X185369333Y-111281404D01*
X187102666Y-111781404D02*
X186950285Y-111781404D01*
X186874095Y-111819500D01*
X186797904Y-111895690D01*
X186759809Y-112048071D01*
X186759809Y-112314738D01*
X186797904Y-112467119D01*
X186874095Y-112543309D01*
X186950285Y-112581404D01*
X187102666Y-112581404D01*
X187178857Y-112543309D01*
X187255047Y-112467119D01*
X187293142Y-112314738D01*
X187293142Y-112048071D01*
X187255047Y-111895690D01*
X187178857Y-111819500D01*
X187102666Y-111781404D01*
X186074095Y-112048071D02*
X186074095Y-112581404D01*
X186416952Y-112048071D02*
X186416952Y-112467119D01*
X186378857Y-112543309D01*
X186302666Y-112581404D01*
X186188380Y-112581404D01*
X186112190Y-112543309D01*
X186074095Y-112505214D01*
X185807428Y-112048071D02*
X185502666Y-112048071D01*
X185693142Y-111781404D02*
X185693142Y-112467119D01*
X185655047Y-112543309D01*
X185578857Y-112581404D01*
X185502666Y-112581404D01*
X183800714Y-93148333D02*
X183838809Y-93110238D01*
X183876904Y-92995952D01*
X183876904Y-92919761D01*
X183838809Y-92805476D01*
X183762619Y-92729285D01*
X183686428Y-92691190D01*
X183534047Y-92653095D01*
X183419761Y-92653095D01*
X183267380Y-92691190D01*
X183191190Y-92729285D01*
X183115000Y-92805476D01*
X183076904Y-92919761D01*
X183076904Y-92995952D01*
X183115000Y-93110238D01*
X183153095Y-93148333D01*
X183876904Y-93948333D02*
X183495952Y-93681666D01*
X183876904Y-93491190D02*
X183076904Y-93491190D01*
X183076904Y-93795952D01*
X183115000Y-93872142D01*
X183153095Y-93910238D01*
X183229285Y-93948333D01*
X183343571Y-93948333D01*
X183419761Y-93910238D01*
X183457857Y-93872142D01*
X183495952Y-93795952D01*
X183495952Y-93491190D01*
X183457857Y-94291190D02*
X183457857Y-94557857D01*
X183876904Y-94672142D02*
X183876904Y-94291190D01*
X183076904Y-94291190D01*
X183076904Y-94672142D01*
X183457857Y-95281666D02*
X183457857Y-95015000D01*
X183876904Y-95015000D02*
X183076904Y-95015000D01*
X183076904Y-95395952D01*
X183800714Y-95700714D02*
X183838809Y-95738809D01*
X183876904Y-95700714D01*
X183838809Y-95662619D01*
X183800714Y-95700714D01*
X183876904Y-95700714D01*
X183876904Y-96081666D02*
X183076904Y-96081666D01*
X183457857Y-96081666D02*
X183457857Y-96538809D01*
X183876904Y-96538809D02*
X183076904Y-96538809D01*
X190531714Y-93243571D02*
X190569809Y-93205476D01*
X190607904Y-93091190D01*
X190607904Y-93015000D01*
X190569809Y-92900714D01*
X190493619Y-92824523D01*
X190417428Y-92786428D01*
X190265047Y-92748333D01*
X190150761Y-92748333D01*
X189998380Y-92786428D01*
X189922190Y-92824523D01*
X189846000Y-92900714D01*
X189807904Y-93015000D01*
X189807904Y-93091190D01*
X189846000Y-93205476D01*
X189884095Y-93243571D01*
X190607904Y-94043571D02*
X190226952Y-93776904D01*
X190607904Y-93586428D02*
X189807904Y-93586428D01*
X189807904Y-93891190D01*
X189846000Y-93967380D01*
X189884095Y-94005476D01*
X189960285Y-94043571D01*
X190074571Y-94043571D01*
X190150761Y-94005476D01*
X190188857Y-93967380D01*
X190226952Y-93891190D01*
X190226952Y-93586428D01*
X190188857Y-94386428D02*
X190188857Y-94653095D01*
X190607904Y-94767380D02*
X190607904Y-94386428D01*
X189807904Y-94386428D01*
X189807904Y-94767380D01*
X190188857Y-95376904D02*
X190188857Y-95110238D01*
X190607904Y-95110238D02*
X189807904Y-95110238D01*
X189807904Y-95491190D01*
X190531714Y-95795952D02*
X190569809Y-95834047D01*
X190607904Y-95795952D01*
X190569809Y-95757857D01*
X190531714Y-95795952D01*
X190607904Y-95795952D01*
X190607904Y-96557857D02*
X190607904Y-96176904D01*
X189807904Y-96176904D01*
D10*
X186817000Y-97790000D02*
X186817000Y-91567000D01*
D12*
X188304428Y-75127285D02*
X188333000Y-75155857D01*
X188418714Y-75184428D01*
X188475857Y-75184428D01*
X188561571Y-75155857D01*
X188618714Y-75098714D01*
X188647285Y-75041571D01*
X188675857Y-74927285D01*
X188675857Y-74841571D01*
X188647285Y-74727285D01*
X188618714Y-74670142D01*
X188561571Y-74613000D01*
X188475857Y-74584428D01*
X188418714Y-74584428D01*
X188333000Y-74613000D01*
X188304428Y-74641571D01*
X187933000Y-74584428D02*
X187818714Y-74584428D01*
X187761571Y-74613000D01*
X187704428Y-74670142D01*
X187675857Y-74784428D01*
X187675857Y-74984428D01*
X187704428Y-75098714D01*
X187761571Y-75155857D01*
X187818714Y-75184428D01*
X187933000Y-75184428D01*
X187990142Y-75155857D01*
X188047285Y-75098714D01*
X188075857Y-74984428D01*
X188075857Y-74784428D01*
X188047285Y-74670142D01*
X187990142Y-74613000D01*
X187933000Y-74584428D01*
X187418714Y-75184428D02*
X187418714Y-74584428D01*
X187218714Y-75013000D01*
X187018714Y-74584428D01*
X187018714Y-75184428D01*
X188875857Y-76205857D02*
X188790142Y-76234428D01*
X188647285Y-76234428D01*
X188590142Y-76205857D01*
X188561571Y-76177285D01*
X188533000Y-76120142D01*
X188533000Y-76063000D01*
X188561571Y-76005857D01*
X188590142Y-75977285D01*
X188647285Y-75948714D01*
X188761571Y-75920142D01*
X188818714Y-75891571D01*
X188847285Y-75863000D01*
X188875857Y-75805857D01*
X188875857Y-75748714D01*
X188847285Y-75691571D01*
X188818714Y-75663000D01*
X188761571Y-75634428D01*
X188618714Y-75634428D01*
X188533000Y-75663000D01*
X188161571Y-75948714D02*
X188161571Y-76234428D01*
X188361571Y-75634428D02*
X188161571Y-75948714D01*
X187961571Y-75634428D01*
X187761571Y-76234428D02*
X187761571Y-75634428D01*
X187418714Y-76234428D01*
X187418714Y-75634428D01*
X186790142Y-76177285D02*
X186818714Y-76205857D01*
X186904428Y-76234428D01*
X186961571Y-76234428D01*
X187047285Y-76205857D01*
X187104428Y-76148714D01*
X187133000Y-76091571D01*
X187161571Y-75977285D01*
X187161571Y-75891571D01*
X187133000Y-75777285D01*
X187104428Y-75720142D01*
X187047285Y-75663000D01*
X186961571Y-75634428D01*
X186904428Y-75634428D01*
X186818714Y-75663000D01*
X186790142Y-75691571D01*
X167085857Y-75254285D02*
X167114428Y-75282857D01*
X167200142Y-75311428D01*
X167257285Y-75311428D01*
X167343000Y-75282857D01*
X167400142Y-75225714D01*
X167428714Y-75168571D01*
X167457285Y-75054285D01*
X167457285Y-74968571D01*
X167428714Y-74854285D01*
X167400142Y-74797142D01*
X167343000Y-74740000D01*
X167257285Y-74711428D01*
X167200142Y-74711428D01*
X167114428Y-74740000D01*
X167085857Y-74768571D01*
X166714428Y-74711428D02*
X166600142Y-74711428D01*
X166543000Y-74740000D01*
X166485857Y-74797142D01*
X166457285Y-74911428D01*
X166457285Y-75111428D01*
X166485857Y-75225714D01*
X166543000Y-75282857D01*
X166600142Y-75311428D01*
X166714428Y-75311428D01*
X166771571Y-75282857D01*
X166828714Y-75225714D01*
X166857285Y-75111428D01*
X166857285Y-74911428D01*
X166828714Y-74797142D01*
X166771571Y-74740000D01*
X166714428Y-74711428D01*
X166200142Y-75311428D02*
X166200142Y-74711428D01*
X166000142Y-75140000D01*
X165800142Y-74711428D01*
X165800142Y-75311428D01*
X165514428Y-75082857D02*
X165057285Y-75082857D01*
X167285857Y-76332857D02*
X167200142Y-76361428D01*
X167057285Y-76361428D01*
X167000142Y-76332857D01*
X166971571Y-76304285D01*
X166943000Y-76247142D01*
X166943000Y-76190000D01*
X166971571Y-76132857D01*
X167000142Y-76104285D01*
X167057285Y-76075714D01*
X167171571Y-76047142D01*
X167228714Y-76018571D01*
X167257285Y-75990000D01*
X167285857Y-75932857D01*
X167285857Y-75875714D01*
X167257285Y-75818571D01*
X167228714Y-75790000D01*
X167171571Y-75761428D01*
X167028714Y-75761428D01*
X166943000Y-75790000D01*
X166571571Y-76075714D02*
X166571571Y-76361428D01*
X166771571Y-75761428D02*
X166571571Y-76075714D01*
X166371571Y-75761428D01*
X166171571Y-76361428D02*
X166171571Y-75761428D01*
X165828714Y-76361428D01*
X165828714Y-75761428D01*
X165200142Y-76304285D02*
X165228714Y-76332857D01*
X165314428Y-76361428D01*
X165371571Y-76361428D01*
X165457285Y-76332857D01*
X165514428Y-76275714D01*
X165543000Y-76218571D01*
X165571571Y-76104285D01*
X165571571Y-76018571D01*
X165543000Y-75904285D01*
X165514428Y-75847142D01*
X165457285Y-75790000D01*
X165371571Y-75761428D01*
X165314428Y-75761428D01*
X165228714Y-75790000D01*
X165200142Y-75818571D01*
X184079714Y-63082428D02*
X184051142Y-63111000D01*
X184022571Y-63196714D01*
X184022571Y-63253857D01*
X184051142Y-63339571D01*
X184108285Y-63396714D01*
X184165428Y-63425285D01*
X184279714Y-63453857D01*
X184365428Y-63453857D01*
X184479714Y-63425285D01*
X184536857Y-63396714D01*
X184594000Y-63339571D01*
X184622571Y-63253857D01*
X184622571Y-63196714D01*
X184594000Y-63111000D01*
X184565428Y-63082428D01*
X184622571Y-62711000D02*
X184622571Y-62596714D01*
X184594000Y-62539571D01*
X184536857Y-62482428D01*
X184422571Y-62453857D01*
X184222571Y-62453857D01*
X184108285Y-62482428D01*
X184051142Y-62539571D01*
X184022571Y-62596714D01*
X184022571Y-62711000D01*
X184051142Y-62768142D01*
X184108285Y-62825285D01*
X184222571Y-62853857D01*
X184422571Y-62853857D01*
X184536857Y-62825285D01*
X184594000Y-62768142D01*
X184622571Y-62711000D01*
X184022571Y-62196714D02*
X184622571Y-62196714D01*
X184194000Y-61996714D01*
X184622571Y-61796714D01*
X184022571Y-61796714D01*
X183001142Y-63653857D02*
X182972571Y-63568142D01*
X182972571Y-63425285D01*
X183001142Y-63368142D01*
X183029714Y-63339571D01*
X183086857Y-63311000D01*
X183144000Y-63311000D01*
X183201142Y-63339571D01*
X183229714Y-63368142D01*
X183258285Y-63425285D01*
X183286857Y-63539571D01*
X183315428Y-63596714D01*
X183344000Y-63625285D01*
X183401142Y-63653857D01*
X183458285Y-63653857D01*
X183515428Y-63625285D01*
X183544000Y-63596714D01*
X183572571Y-63539571D01*
X183572571Y-63396714D01*
X183544000Y-63311000D01*
X183258285Y-62939571D02*
X182972571Y-62939571D01*
X183572571Y-63139571D02*
X183258285Y-62939571D01*
X183572571Y-62739571D01*
X182972571Y-62539571D02*
X183572571Y-62539571D01*
X182972571Y-62196714D01*
X183572571Y-62196714D01*
X183029714Y-61568142D02*
X183001142Y-61596714D01*
X182972571Y-61682428D01*
X182972571Y-61739571D01*
X183001142Y-61825285D01*
X183058285Y-61882428D01*
X183115428Y-61911000D01*
X183229714Y-61939571D01*
X183315428Y-61939571D01*
X183429714Y-61911000D01*
X183486857Y-61882428D01*
X183544000Y-61825285D01*
X183572571Y-61739571D01*
X183572571Y-61682428D01*
X183544000Y-61596714D01*
X183515428Y-61568142D01*
X170854714Y-63269714D02*
X170826142Y-63298285D01*
X170797571Y-63384000D01*
X170797571Y-63441143D01*
X170826142Y-63526857D01*
X170883285Y-63584000D01*
X170940428Y-63612571D01*
X171054714Y-63641143D01*
X171140428Y-63641143D01*
X171254714Y-63612571D01*
X171311857Y-63584000D01*
X171369000Y-63526857D01*
X171397571Y-63441143D01*
X171397571Y-63384000D01*
X171369000Y-63298285D01*
X171340428Y-63269714D01*
X171369000Y-62698285D02*
X171397571Y-62755428D01*
X171397571Y-62841143D01*
X171369000Y-62926857D01*
X171311857Y-62984000D01*
X171254714Y-63012571D01*
X171140428Y-63041143D01*
X171054714Y-63041143D01*
X170940428Y-63012571D01*
X170883285Y-62984000D01*
X170826142Y-62926857D01*
X170797571Y-62841143D01*
X170797571Y-62784000D01*
X170826142Y-62698285D01*
X170854714Y-62669714D01*
X171054714Y-62669714D01*
X171054714Y-62784000D01*
X170797571Y-62069714D02*
X171083285Y-62269714D01*
X170797571Y-62412571D02*
X171397571Y-62412571D01*
X171397571Y-62184000D01*
X171369000Y-62126857D01*
X171340428Y-62098285D01*
X171283285Y-62069714D01*
X171197571Y-62069714D01*
X171140428Y-62098285D01*
X171111857Y-62126857D01*
X171083285Y-62184000D01*
X171083285Y-62412571D01*
X170797571Y-61812571D02*
X171397571Y-61812571D01*
X170797571Y-61469714D01*
X171397571Y-61469714D01*
X173394714Y-63353857D02*
X173366142Y-63382428D01*
X173337571Y-63468143D01*
X173337571Y-63525285D01*
X173366142Y-63611000D01*
X173423285Y-63668143D01*
X173480428Y-63696714D01*
X173594714Y-63725285D01*
X173680428Y-63725285D01*
X173794714Y-63696714D01*
X173851857Y-63668143D01*
X173909000Y-63611000D01*
X173937571Y-63525285D01*
X173937571Y-63468143D01*
X173909000Y-63382428D01*
X173880428Y-63353857D01*
X173337571Y-62753857D02*
X173623285Y-62953857D01*
X173337571Y-63096714D02*
X173937571Y-63096714D01*
X173937571Y-62868143D01*
X173909000Y-62811000D01*
X173880428Y-62782428D01*
X173823285Y-62753857D01*
X173737571Y-62753857D01*
X173680428Y-62782428D01*
X173651857Y-62811000D01*
X173623285Y-62868143D01*
X173623285Y-63096714D01*
X173651857Y-62496714D02*
X173651857Y-62296714D01*
X173337571Y-62211000D02*
X173337571Y-62496714D01*
X173937571Y-62496714D01*
X173937571Y-62211000D01*
X173337571Y-61953857D02*
X173937571Y-61953857D01*
X173937571Y-61811000D01*
X173909000Y-61725285D01*
X173851857Y-61668143D01*
X173794714Y-61639571D01*
X173680428Y-61611000D01*
X173594714Y-61611000D01*
X173480428Y-61639571D01*
X173423285Y-61668143D01*
X173366142Y-61725285D01*
X173337571Y-61811000D01*
X173337571Y-61953857D01*
X168441714Y-63409428D02*
X168413142Y-63438000D01*
X168384571Y-63523714D01*
X168384571Y-63580857D01*
X168413142Y-63666571D01*
X168470285Y-63723714D01*
X168527428Y-63752285D01*
X168641714Y-63780857D01*
X168727428Y-63780857D01*
X168841714Y-63752285D01*
X168898857Y-63723714D01*
X168956000Y-63666571D01*
X168984571Y-63580857D01*
X168984571Y-63523714D01*
X168956000Y-63438000D01*
X168927428Y-63409428D01*
X168698857Y-62952285D02*
X168670285Y-62866571D01*
X168641714Y-62838000D01*
X168584571Y-62809428D01*
X168498857Y-62809428D01*
X168441714Y-62838000D01*
X168413142Y-62866571D01*
X168384571Y-62923714D01*
X168384571Y-63152285D01*
X168984571Y-63152285D01*
X168984571Y-62952285D01*
X168956000Y-62895142D01*
X168927428Y-62866571D01*
X168870285Y-62838000D01*
X168813142Y-62838000D01*
X168756000Y-62866571D01*
X168727428Y-62895142D01*
X168698857Y-62952285D01*
X168698857Y-63152285D01*
X168384571Y-62266571D02*
X168384571Y-62552285D01*
X168984571Y-62552285D01*
X168984571Y-62066571D02*
X168498857Y-62066571D01*
X168441714Y-62038000D01*
X168413142Y-62009428D01*
X168384571Y-61952285D01*
X168384571Y-61838000D01*
X168413142Y-61780857D01*
X168441714Y-61752285D01*
X168498857Y-61723714D01*
X168984571Y-61723714D01*
X163107714Y-63480857D02*
X163079142Y-63509428D01*
X163050571Y-63595143D01*
X163050571Y-63652285D01*
X163079142Y-63738000D01*
X163136285Y-63795143D01*
X163193428Y-63823714D01*
X163307714Y-63852285D01*
X163393428Y-63852285D01*
X163507714Y-63823714D01*
X163564857Y-63795143D01*
X163622000Y-63738000D01*
X163650571Y-63652285D01*
X163650571Y-63595143D01*
X163622000Y-63509428D01*
X163593428Y-63480857D01*
X163050571Y-62880857D02*
X163336285Y-63080857D01*
X163050571Y-63223714D02*
X163650571Y-63223714D01*
X163650571Y-62995143D01*
X163622000Y-62938000D01*
X163593428Y-62909428D01*
X163536285Y-62880857D01*
X163450571Y-62880857D01*
X163393428Y-62909428D01*
X163364857Y-62938000D01*
X163336285Y-62995143D01*
X163336285Y-63223714D01*
X163364857Y-62623714D02*
X163364857Y-62423714D01*
X163050571Y-62338000D02*
X163050571Y-62623714D01*
X163650571Y-62623714D01*
X163650571Y-62338000D01*
X163050571Y-62080857D02*
X163650571Y-62080857D01*
X163650571Y-61938000D01*
X163622000Y-61852285D01*
X163564857Y-61795143D01*
X163507714Y-61766571D01*
X163393428Y-61738000D01*
X163307714Y-61738000D01*
X163193428Y-61766571D01*
X163136285Y-61795143D01*
X163079142Y-61852285D01*
X163050571Y-61938000D01*
X163050571Y-62080857D01*
X157773714Y-63396714D02*
X157745142Y-63425285D01*
X157716571Y-63511000D01*
X157716571Y-63568143D01*
X157745142Y-63653857D01*
X157802285Y-63711000D01*
X157859428Y-63739571D01*
X157973714Y-63768143D01*
X158059428Y-63768143D01*
X158173714Y-63739571D01*
X158230857Y-63711000D01*
X158288000Y-63653857D01*
X158316571Y-63568143D01*
X158316571Y-63511000D01*
X158288000Y-63425285D01*
X158259428Y-63396714D01*
X158288000Y-62825285D02*
X158316571Y-62882428D01*
X158316571Y-62968143D01*
X158288000Y-63053857D01*
X158230857Y-63111000D01*
X158173714Y-63139571D01*
X158059428Y-63168143D01*
X157973714Y-63168143D01*
X157859428Y-63139571D01*
X157802285Y-63111000D01*
X157745142Y-63053857D01*
X157716571Y-62968143D01*
X157716571Y-62911000D01*
X157745142Y-62825285D01*
X157773714Y-62796714D01*
X157973714Y-62796714D01*
X157973714Y-62911000D01*
X157716571Y-62196714D02*
X158002285Y-62396714D01*
X157716571Y-62539571D02*
X158316571Y-62539571D01*
X158316571Y-62311000D01*
X158288000Y-62253857D01*
X158259428Y-62225285D01*
X158202285Y-62196714D01*
X158116571Y-62196714D01*
X158059428Y-62225285D01*
X158030857Y-62253857D01*
X158002285Y-62311000D01*
X158002285Y-62539571D01*
X157716571Y-61939571D02*
X158316571Y-61939571D01*
X157716571Y-61596714D01*
X158316571Y-61596714D01*
X152820714Y-63466571D02*
X152792142Y-63495143D01*
X152763571Y-63580857D01*
X152763571Y-63638000D01*
X152792142Y-63723714D01*
X152849285Y-63780857D01*
X152906428Y-63809428D01*
X153020714Y-63838000D01*
X153106428Y-63838000D01*
X153220714Y-63809428D01*
X153277857Y-63780857D01*
X153335000Y-63723714D01*
X153363571Y-63638000D01*
X153363571Y-63580857D01*
X153335000Y-63495143D01*
X153306428Y-63466571D01*
X153077857Y-63009428D02*
X153049285Y-62923714D01*
X153020714Y-62895143D01*
X152963571Y-62866571D01*
X152877857Y-62866571D01*
X152820714Y-62895143D01*
X152792142Y-62923714D01*
X152763571Y-62980857D01*
X152763571Y-63209428D01*
X153363571Y-63209428D01*
X153363571Y-63009428D01*
X153335000Y-62952285D01*
X153306428Y-62923714D01*
X153249285Y-62895143D01*
X153192142Y-62895143D01*
X153135000Y-62923714D01*
X153106428Y-62952285D01*
X153077857Y-63009428D01*
X153077857Y-63209428D01*
X152763571Y-62323714D02*
X152763571Y-62609428D01*
X153363571Y-62609428D01*
X153363571Y-62123714D02*
X152877857Y-62123714D01*
X152820714Y-62095143D01*
X152792142Y-62066571D01*
X152763571Y-62009428D01*
X152763571Y-61895143D01*
X152792142Y-61838000D01*
X152820714Y-61809428D01*
X152877857Y-61780857D01*
X153363571Y-61780857D01*
D11*
X147516857Y-63532809D02*
X147516857Y-62923285D01*
X148012095Y-62161380D02*
X148012095Y-62542333D01*
X147631142Y-62580428D01*
X147669238Y-62542333D01*
X147707333Y-62466142D01*
X147707333Y-62275666D01*
X147669238Y-62199476D01*
X147631142Y-62161380D01*
X147554952Y-62123285D01*
X147364476Y-62123285D01*
X147288285Y-62161380D01*
X147250190Y-62199476D01*
X147212095Y-62275666D01*
X147212095Y-62466142D01*
X147250190Y-62542333D01*
X147288285Y-62580428D01*
X148012095Y-61894714D02*
X147212095Y-61628047D01*
X148012095Y-61361380D01*
D12*
X140247714Y-63212571D02*
X140219142Y-63241143D01*
X140190571Y-63326857D01*
X140190571Y-63384000D01*
X140219142Y-63469714D01*
X140276285Y-63526857D01*
X140333428Y-63555428D01*
X140447714Y-63584000D01*
X140533428Y-63584000D01*
X140647714Y-63555428D01*
X140704857Y-63526857D01*
X140762000Y-63469714D01*
X140790571Y-63384000D01*
X140790571Y-63326857D01*
X140762000Y-63241143D01*
X140733428Y-63212571D01*
X140504857Y-62755428D02*
X140476285Y-62669714D01*
X140447714Y-62641143D01*
X140390571Y-62612571D01*
X140304857Y-62612571D01*
X140247714Y-62641143D01*
X140219142Y-62669714D01*
X140190571Y-62726857D01*
X140190571Y-62955428D01*
X140790571Y-62955428D01*
X140790571Y-62755428D01*
X140762000Y-62698285D01*
X140733428Y-62669714D01*
X140676285Y-62641143D01*
X140619142Y-62641143D01*
X140562000Y-62669714D01*
X140533428Y-62698285D01*
X140504857Y-62755428D01*
X140504857Y-62955428D01*
X140190571Y-62069714D02*
X140190571Y-62355428D01*
X140790571Y-62355428D01*
X140790571Y-61869714D02*
X140304857Y-61869714D01*
X140247714Y-61841143D01*
X140219142Y-61812571D01*
X140190571Y-61755428D01*
X140190571Y-61641143D01*
X140219142Y-61584000D01*
X140247714Y-61555428D01*
X140304857Y-61526857D01*
X140790571Y-61526857D01*
D11*
X137991857Y-63532809D02*
X137991857Y-62923285D01*
X138487095Y-62161380D02*
X138487095Y-62542333D01*
X138106142Y-62580428D01*
X138144238Y-62542333D01*
X138182333Y-62466142D01*
X138182333Y-62275666D01*
X138144238Y-62199476D01*
X138106142Y-62161380D01*
X138029952Y-62123285D01*
X137839476Y-62123285D01*
X137763285Y-62161380D01*
X137725190Y-62199476D01*
X137687095Y-62275666D01*
X137687095Y-62466142D01*
X137725190Y-62542333D01*
X137763285Y-62580428D01*
X138487095Y-61894714D02*
X137687095Y-61628047D01*
X138487095Y-61361380D01*
X143071857Y-63532809D02*
X143071857Y-62923285D01*
X142767095Y-63228047D02*
X143376619Y-63228047D01*
X143567095Y-62161380D02*
X143567095Y-62542333D01*
X143186142Y-62580428D01*
X143224238Y-62542333D01*
X143262333Y-62466142D01*
X143262333Y-62275666D01*
X143224238Y-62199476D01*
X143186142Y-62161380D01*
X143109952Y-62123285D01*
X142919476Y-62123285D01*
X142843285Y-62161380D01*
X142805190Y-62199476D01*
X142767095Y-62275666D01*
X142767095Y-62466142D01*
X142805190Y-62542333D01*
X142843285Y-62580428D01*
X143567095Y-61894714D02*
X142767095Y-61628047D01*
X143567095Y-61361380D01*
X136245523Y-63436190D02*
X136245523Y-62636190D01*
X136245523Y-63017143D02*
X135788380Y-63017143D01*
X135788380Y-63436190D02*
X135788380Y-62636190D01*
X135445523Y-62712381D02*
X135407428Y-62674286D01*
X135331238Y-62636190D01*
X135140761Y-62636190D01*
X135064571Y-62674286D01*
X135026476Y-62712381D01*
X134988380Y-62788571D01*
X134988380Y-62864762D01*
X135026476Y-62979047D01*
X135483619Y-63436190D01*
X134988380Y-63436190D01*
D12*
X127547714Y-63212571D02*
X127519142Y-63241142D01*
X127490571Y-63326857D01*
X127490571Y-63384000D01*
X127519142Y-63469714D01*
X127576285Y-63526857D01*
X127633428Y-63555428D01*
X127747714Y-63584000D01*
X127833428Y-63584000D01*
X127947714Y-63555428D01*
X128004857Y-63526857D01*
X128062000Y-63469714D01*
X128090571Y-63384000D01*
X128090571Y-63326857D01*
X128062000Y-63241142D01*
X128033428Y-63212571D01*
X128062000Y-62641142D02*
X128090571Y-62698285D01*
X128090571Y-62784000D01*
X128062000Y-62869714D01*
X128004857Y-62926857D01*
X127947714Y-62955428D01*
X127833428Y-62984000D01*
X127747714Y-62984000D01*
X127633428Y-62955428D01*
X127576285Y-62926857D01*
X127519142Y-62869714D01*
X127490571Y-62784000D01*
X127490571Y-62726857D01*
X127519142Y-62641142D01*
X127547714Y-62612571D01*
X127747714Y-62612571D01*
X127747714Y-62726857D01*
X127490571Y-62012571D02*
X127776285Y-62212571D01*
X127490571Y-62355428D02*
X128090571Y-62355428D01*
X128090571Y-62126857D01*
X128062000Y-62069714D01*
X128033428Y-62041142D01*
X127976285Y-62012571D01*
X127890571Y-62012571D01*
X127833428Y-62041142D01*
X127804857Y-62069714D01*
X127776285Y-62126857D01*
X127776285Y-62355428D01*
X127490571Y-61755428D02*
X128090571Y-61755428D01*
X127490571Y-61412571D01*
X128090571Y-61412571D01*
X120054714Y-63212571D02*
X120026142Y-63241142D01*
X119997571Y-63326857D01*
X119997571Y-63383999D01*
X120026142Y-63469714D01*
X120083285Y-63526857D01*
X120140428Y-63555428D01*
X120254714Y-63583999D01*
X120340428Y-63583999D01*
X120454714Y-63555428D01*
X120511857Y-63526857D01*
X120569000Y-63469714D01*
X120597571Y-63383999D01*
X120597571Y-63326857D01*
X120569000Y-63241142D01*
X120540428Y-63212571D01*
X119997571Y-62612571D02*
X120283285Y-62812571D01*
X119997571Y-62955428D02*
X120597571Y-62955428D01*
X120597571Y-62726857D01*
X120569000Y-62669714D01*
X120540428Y-62641142D01*
X120483285Y-62612571D01*
X120397571Y-62612571D01*
X120340428Y-62641142D01*
X120311857Y-62669714D01*
X120283285Y-62726857D01*
X120283285Y-62955428D01*
X120311857Y-62355428D02*
X120311857Y-62155428D01*
X119997571Y-62069714D02*
X119997571Y-62355428D01*
X120597571Y-62355428D01*
X120597571Y-62069714D01*
X119997571Y-61812571D02*
X120597571Y-61812571D01*
X120597571Y-61669714D01*
X120569000Y-61583999D01*
X120511857Y-61526857D01*
X120454714Y-61498285D01*
X120340428Y-61469714D01*
X120254714Y-61469714D01*
X120140428Y-61498285D01*
X120083285Y-61526857D01*
X120026142Y-61583999D01*
X119997571Y-61669714D01*
X119997571Y-61812571D01*
X125134714Y-63212571D02*
X125106142Y-63241143D01*
X125077571Y-63326857D01*
X125077571Y-63384000D01*
X125106142Y-63469714D01*
X125163285Y-63526857D01*
X125220428Y-63555428D01*
X125334714Y-63584000D01*
X125420428Y-63584000D01*
X125534714Y-63555428D01*
X125591857Y-63526857D01*
X125649000Y-63469714D01*
X125677571Y-63384000D01*
X125677571Y-63326857D01*
X125649000Y-63241143D01*
X125620428Y-63212571D01*
X125106142Y-62984000D02*
X125077571Y-62898285D01*
X125077571Y-62755428D01*
X125106142Y-62698285D01*
X125134714Y-62669714D01*
X125191857Y-62641143D01*
X125249000Y-62641143D01*
X125306142Y-62669714D01*
X125334714Y-62698285D01*
X125363285Y-62755428D01*
X125391857Y-62869714D01*
X125420428Y-62926857D01*
X125449000Y-62955428D01*
X125506142Y-62984000D01*
X125563285Y-62984000D01*
X125620428Y-62955428D01*
X125649000Y-62926857D01*
X125677571Y-62869714D01*
X125677571Y-62726857D01*
X125649000Y-62641143D01*
X125363285Y-62269714D02*
X125077571Y-62269714D01*
X125677571Y-62469714D02*
X125363285Y-62269714D01*
X125677571Y-62069714D01*
X125077571Y-61869714D02*
X125677571Y-61869714D01*
X125077571Y-61526857D01*
X125677571Y-61526857D01*
D11*
X130784523Y-63436190D02*
X130784523Y-62636190D01*
X130784523Y-63017143D02*
X130327380Y-63017143D01*
X130327380Y-63436190D02*
X130327380Y-62636190D01*
X130022619Y-62636190D02*
X129527380Y-62636190D01*
X129794047Y-62940952D01*
X129679761Y-62940952D01*
X129603571Y-62979047D01*
X129565476Y-63017143D01*
X129527380Y-63093333D01*
X129527380Y-63283809D01*
X129565476Y-63360000D01*
X129603571Y-63398095D01*
X129679761Y-63436190D01*
X129908333Y-63436190D01*
X129984523Y-63398095D01*
X130022619Y-63360000D01*
X123164523Y-63436190D02*
X123164523Y-62636190D01*
X123164523Y-63017143D02*
X122707380Y-63017143D01*
X122707380Y-63436190D02*
X122707380Y-62636190D01*
X121983571Y-62902857D02*
X121983571Y-63436190D01*
X122174047Y-62598095D02*
X122364523Y-63169524D01*
X121869285Y-63169524D01*
X110591523Y-63607904D02*
X110591523Y-62807904D01*
X110591523Y-63188857D02*
X110134380Y-63188857D01*
X110134380Y-63607904D02*
X110134380Y-62807904D01*
X109410571Y-63074571D02*
X109410571Y-63607904D01*
X109601047Y-62769809D02*
X109791523Y-63341238D01*
X109296285Y-63341238D01*
X115544523Y-63607904D02*
X115544523Y-62807904D01*
X115544523Y-63188857D02*
X115087380Y-63188857D01*
X115087380Y-63607904D02*
X115087380Y-62807904D01*
X114744523Y-62884095D02*
X114706428Y-62846000D01*
X114630238Y-62807904D01*
X114439761Y-62807904D01*
X114363571Y-62846000D01*
X114325476Y-62884095D01*
X114287380Y-62960285D01*
X114287380Y-63036476D01*
X114325476Y-63150761D01*
X114782619Y-63607904D01*
X114287380Y-63607904D01*
X113004523Y-63607904D02*
X113004523Y-62807904D01*
X113004523Y-63188857D02*
X112547380Y-63188857D01*
X112547380Y-63607904D02*
X112547380Y-62807904D01*
X112242619Y-62807904D02*
X111747380Y-62807904D01*
X112014047Y-63112666D01*
X111899761Y-63112666D01*
X111823571Y-63150761D01*
X111785476Y-63188857D01*
X111747380Y-63265047D01*
X111747380Y-63455523D01*
X111785476Y-63531714D01*
X111823571Y-63569809D01*
X111899761Y-63607904D01*
X112128333Y-63607904D01*
X112204523Y-63569809D01*
X112242619Y-63531714D01*
G36*
X98044000Y-84582000D02*
G01*
X93472000Y-84582000D01*
X93472000Y-81534000D01*
X98044000Y-81534000D01*
X98044000Y-84582000D01*
G37*
X98044000Y-84582000D02*
X93472000Y-84582000D01*
X93472000Y-81534000D01*
X98044000Y-81534000D01*
X98044000Y-84582000D01*
X149132095Y-131654380D02*
X149932095Y-131654380D01*
X149360666Y-131387714D01*
X149932095Y-131121047D01*
X149132095Y-131121047D01*
X149132095Y-130625809D02*
X149170190Y-130702000D01*
X149208285Y-130740095D01*
X149284476Y-130778190D01*
X149513047Y-130778190D01*
X149589238Y-130740095D01*
X149627333Y-130702000D01*
X149665428Y-130625809D01*
X149665428Y-130511523D01*
X149627333Y-130435333D01*
X149589238Y-130397238D01*
X149513047Y-130359142D01*
X149284476Y-130359142D01*
X149208285Y-130397238D01*
X149170190Y-130435333D01*
X149132095Y-130511523D01*
X149132095Y-130625809D01*
X149665428Y-130016285D02*
X149132095Y-130016285D01*
X149589238Y-130016285D02*
X149627333Y-129978190D01*
X149665428Y-129902000D01*
X149665428Y-129787714D01*
X149627333Y-129711523D01*
X149551142Y-129673428D01*
X149132095Y-129673428D01*
X149132095Y-129178190D02*
X149170190Y-129254380D01*
X149208285Y-129292476D01*
X149284476Y-129330571D01*
X149513047Y-129330571D01*
X149589238Y-129292476D01*
X149627333Y-129254380D01*
X149665428Y-129178190D01*
X149665428Y-129063904D01*
X149627333Y-128987714D01*
X149589238Y-128949619D01*
X149513047Y-128911523D01*
X149284476Y-128911523D01*
X149208285Y-128949619D01*
X149170190Y-128987714D01*
X149132095Y-129063904D01*
X149132095Y-129178190D01*
X147908285Y-131235333D02*
X147870190Y-131273428D01*
X147832095Y-131387714D01*
X147832095Y-131463904D01*
X147870190Y-131578190D01*
X147946380Y-131654380D01*
X148022571Y-131692476D01*
X148174952Y-131730571D01*
X148289238Y-131730571D01*
X148441619Y-131692476D01*
X148517809Y-131654380D01*
X148594000Y-131578190D01*
X148632095Y-131463904D01*
X148632095Y-131387714D01*
X148594000Y-131273428D01*
X148555904Y-131235333D01*
X147832095Y-130778190D02*
X147870190Y-130854380D01*
X147908285Y-130892476D01*
X147984476Y-130930571D01*
X148213047Y-130930571D01*
X148289238Y-130892476D01*
X148327333Y-130854380D01*
X148365428Y-130778190D01*
X148365428Y-130663904D01*
X148327333Y-130587714D01*
X148289238Y-130549619D01*
X148213047Y-130511523D01*
X147984476Y-130511523D01*
X147908285Y-130549619D01*
X147870190Y-130587714D01*
X147832095Y-130663904D01*
X147832095Y-130778190D01*
X147832095Y-130054380D02*
X147870190Y-130130571D01*
X147946380Y-130168666D01*
X148632095Y-130168666D01*
X147832095Y-129635333D02*
X147870190Y-129711523D01*
X147908285Y-129749619D01*
X147984476Y-129787714D01*
X148213047Y-129787714D01*
X148289238Y-129749619D01*
X148327333Y-129711523D01*
X148365428Y-129635333D01*
X148365428Y-129521047D01*
X148327333Y-129444857D01*
X148289238Y-129406761D01*
X148213047Y-129368666D01*
X147984476Y-129368666D01*
X147908285Y-129406761D01*
X147870190Y-129444857D01*
X147832095Y-129521047D01*
X147832095Y-129635333D01*
X147832095Y-129025809D02*
X148365428Y-129025809D01*
X148213047Y-129025809D02*
X148289238Y-128987714D01*
X148327333Y-128949619D01*
X148365428Y-128873428D01*
X148365428Y-128797238D01*
D10*
X144780000Y-124460000D02*
X135890000Y-124460000D01*
X144780000Y-127000000D02*
X135890000Y-127000000D01*
D11*
X138550476Y-126091904D02*
X138817143Y-125710952D01*
X139007619Y-126091904D02*
X139007619Y-125291904D01*
X138702857Y-125291904D01*
X138626667Y-125330000D01*
X138588572Y-125368095D01*
X138550476Y-125444285D01*
X138550476Y-125558571D01*
X138588572Y-125634761D01*
X138626667Y-125672857D01*
X138702857Y-125710952D01*
X139007619Y-125710952D01*
X138207619Y-125672857D02*
X137940952Y-125672857D01*
X137826667Y-126091904D02*
X138207619Y-126091904D01*
X138207619Y-125291904D01*
X137826667Y-125291904D01*
X137521905Y-126053809D02*
X137407619Y-126091904D01*
X137217143Y-126091904D01*
X137140952Y-126053809D01*
X137102857Y-126015714D01*
X137064762Y-125939523D01*
X137064762Y-125863333D01*
X137102857Y-125787142D01*
X137140952Y-125749047D01*
X137217143Y-125710952D01*
X137369524Y-125672857D01*
X137445714Y-125634761D01*
X137483810Y-125596666D01*
X137521905Y-125520476D01*
X137521905Y-125444285D01*
X137483810Y-125368095D01*
X137445714Y-125330000D01*
X137369524Y-125291904D01*
X137179048Y-125291904D01*
X137064762Y-125330000D01*
X136721905Y-125672857D02*
X136455238Y-125672857D01*
X136340952Y-126091904D02*
X136721905Y-126091904D01*
X136721905Y-125291904D01*
X136340952Y-125291904D01*
X136112381Y-125291904D02*
X135655238Y-125291904D01*
X135883810Y-126091904D02*
X135883810Y-125291904D01*
X139045714Y-123323333D02*
X138664762Y-123323333D01*
X139121904Y-123551904D02*
X138855238Y-122751904D01*
X138588571Y-123551904D01*
X138360000Y-122828095D02*
X138321904Y-122790000D01*
X138245714Y-122751904D01*
X138055238Y-122751904D01*
X137979047Y-122790000D01*
X137940952Y-122828095D01*
X137902857Y-122904285D01*
X137902857Y-122980476D01*
X137940952Y-123094761D01*
X138398095Y-123551904D01*
X137902857Y-123551904D01*
X137102857Y-123551904D02*
X137369523Y-123170952D01*
X137560000Y-123551904D02*
X137560000Y-122751904D01*
X137255238Y-122751904D01*
X137179047Y-122790000D01*
X137140952Y-122828095D01*
X137102857Y-122904285D01*
X137102857Y-123018571D01*
X137140952Y-123094761D01*
X137179047Y-123132857D01*
X137255238Y-123170952D01*
X137560000Y-123170952D01*
X136836190Y-122751904D02*
X136645714Y-123551904D01*
X136493333Y-122980476D01*
X136340952Y-123551904D01*
X136150476Y-122751904D01*
X138931523Y-128631904D02*
X138931523Y-127831904D01*
X138626761Y-127831904D01*
X138550571Y-127870000D01*
X138512476Y-127908095D01*
X138474380Y-127984285D01*
X138474380Y-128098571D01*
X138512476Y-128174761D01*
X138550571Y-128212857D01*
X138626761Y-128250952D01*
X138931523Y-128250952D01*
X138131523Y-128631904D02*
X138131523Y-127831904D01*
X138131523Y-128212857D02*
X137674380Y-128212857D01*
X137674380Y-128631904D02*
X137674380Y-127831904D01*
X137141047Y-127831904D02*
X137064857Y-127831904D01*
X136988666Y-127870000D01*
X136950571Y-127908095D01*
X136912476Y-127984285D01*
X136874380Y-128136666D01*
X136874380Y-128327142D01*
X136912476Y-128479523D01*
X136950571Y-128555714D01*
X136988666Y-128593809D01*
X137064857Y-128631904D01*
X137141047Y-128631904D01*
X137217238Y-128593809D01*
X137255333Y-128555714D01*
X137293428Y-128479523D01*
X137331523Y-128327142D01*
X137331523Y-128136666D01*
X137293428Y-127984285D01*
X137255333Y-127908095D01*
X137217238Y-127870000D01*
X137141047Y-127831904D01*
X127146095Y-132327523D02*
X127946095Y-132327523D01*
X127946095Y-132022761D01*
X127908000Y-131946571D01*
X127869904Y-131908476D01*
X127793714Y-131870380D01*
X127679428Y-131870380D01*
X127603238Y-131908476D01*
X127565142Y-131946571D01*
X127527047Y-132022761D01*
X127527047Y-132327523D01*
X127146095Y-131527523D02*
X127946095Y-131527523D01*
X127565142Y-131527523D02*
X127565142Y-131070380D01*
X127146095Y-131070380D02*
X127946095Y-131070380D01*
X127946095Y-130537047D02*
X127946095Y-130460857D01*
X127908000Y-130384666D01*
X127869904Y-130346571D01*
X127793714Y-130308476D01*
X127641333Y-130270380D01*
X127450857Y-130270380D01*
X127298476Y-130308476D01*
X127222285Y-130346571D01*
X127184190Y-130384666D01*
X127146095Y-130460857D01*
X127146095Y-130537047D01*
X127184190Y-130613238D01*
X127222285Y-130651333D01*
X127298476Y-130689428D01*
X127450857Y-130727523D01*
X127641333Y-130727523D01*
X127793714Y-130689428D01*
X127869904Y-130651333D01*
X127908000Y-130613238D01*
X127946095Y-130537047D01*
X124580476Y-133165809D02*
X124466190Y-133203904D01*
X124275714Y-133203904D01*
X124199523Y-133165809D01*
X124161428Y-133127714D01*
X124123333Y-133051523D01*
X124123333Y-132975333D01*
X124161428Y-132899142D01*
X124199523Y-132861047D01*
X124275714Y-132822952D01*
X124428095Y-132784857D01*
X124504285Y-132746761D01*
X124542380Y-132708666D01*
X124580476Y-132632476D01*
X124580476Y-132556285D01*
X124542380Y-132480095D01*
X124504285Y-132442000D01*
X124428095Y-132403904D01*
X124237619Y-132403904D01*
X124123333Y-132442000D01*
X123628095Y-132822952D02*
X123628095Y-133203904D01*
X123894761Y-132403904D02*
X123628095Y-132822952D01*
X123361428Y-132403904D01*
X123094761Y-133203904D02*
X123094761Y-132403904D01*
X122637619Y-133203904D01*
X122637619Y-132403904D01*
X121799523Y-133127714D02*
X121837619Y-133165809D01*
X121951904Y-133203904D01*
X122028095Y-133203904D01*
X122142380Y-133165809D01*
X122218571Y-133089619D01*
X122256666Y-133013428D01*
X122294761Y-132861047D01*
X122294761Y-132746761D01*
X122256666Y-132594380D01*
X122218571Y-132518190D01*
X122142380Y-132442000D01*
X122028095Y-132403904D01*
X121951904Y-132403904D01*
X121837619Y-132442000D01*
X121799523Y-132480095D01*
G36*
X184658000Y-127762000D02*
G01*
X181102000Y-127762000D01*
X181102000Y-123952000D01*
X184658000Y-123952000D01*
X184658000Y-127762000D01*
G37*
X184658000Y-127762000D02*
X181102000Y-127762000D01*
X181102000Y-123952000D01*
X184658000Y-123952000D01*
X184658000Y-127762000D01*
G36*
X137160000Y-86360000D02*
G01*
X133350000Y-86360000D01*
X133350000Y-83820000D01*
X137160000Y-83820000D01*
X137160000Y-86360000D01*
G37*
X137160000Y-86360000D02*
X133350000Y-86360000D01*
X133350000Y-83820000D01*
X137160000Y-83820000D01*
X137160000Y-86360000D01*
G36*
X128270000Y-86360000D02*
G01*
X124460000Y-86360000D01*
X124460000Y-83820000D01*
X128270000Y-83820000D01*
X128270000Y-86360000D01*
G37*
X128270000Y-86360000D02*
X124460000Y-86360000D01*
X124460000Y-83820000D01*
X128270000Y-83820000D01*
X128270000Y-86360000D01*
G36*
X116840000Y-86360000D02*
G01*
X113030000Y-86360000D01*
X113030000Y-83820000D01*
X116840000Y-83820000D01*
X116840000Y-86360000D01*
G37*
X116840000Y-86360000D02*
X113030000Y-86360000D01*
X113030000Y-83820000D01*
X116840000Y-83820000D01*
X116840000Y-86360000D01*
G36*
X104902000Y-71120000D02*
G01*
X99822000Y-71120000D01*
X99822000Y-67056000D01*
X104902000Y-67056000D01*
X104902000Y-71120000D01*
G37*
X104902000Y-71120000D02*
X99822000Y-71120000D01*
X99822000Y-67056000D01*
X104902000Y-67056000D01*
X104902000Y-71120000D01*
G36*
X134112000Y-66548000D02*
G01*
X131572000Y-66548000D01*
X131572000Y-62738000D01*
X134112000Y-62738000D01*
X134112000Y-66548000D01*
G37*
X134112000Y-66548000D02*
X131572000Y-66548000D01*
X131572000Y-62738000D01*
X134112000Y-62738000D01*
X134112000Y-66548000D01*
G36*
X148590000Y-69342000D02*
G01*
X144780000Y-69342000D01*
X144780000Y-66802000D01*
X148590000Y-66802000D01*
X148590000Y-69342000D01*
G37*
X148590000Y-69342000D02*
X144780000Y-69342000D01*
X144780000Y-66802000D01*
X148590000Y-66802000D01*
X148590000Y-69342000D01*
G36*
X156718000Y-66802000D02*
G01*
X154178000Y-66802000D01*
X154178000Y-62992000D01*
X156718000Y-62992000D01*
X156718000Y-66802000D01*
G37*
X156718000Y-66802000D02*
X154178000Y-66802000D01*
X154178000Y-62992000D01*
X156718000Y-62992000D01*
X156718000Y-66802000D01*
G36*
X161798000Y-66802000D02*
G01*
X159258000Y-66802000D01*
X159258000Y-62992000D01*
X161798000Y-62992000D01*
X161798000Y-66802000D01*
G37*
X161798000Y-66802000D02*
X159258000Y-66802000D01*
X159258000Y-62992000D01*
X161798000Y-62992000D01*
X161798000Y-66802000D01*
G36*
X180086000Y-66548000D02*
G01*
X177546000Y-66548000D01*
X177546000Y-62738000D01*
X180086000Y-62738000D01*
X180086000Y-66548000D01*
G37*
X180086000Y-66548000D02*
X177546000Y-66548000D01*
X177546000Y-62738000D01*
X180086000Y-62738000D01*
X180086000Y-66548000D01*
G36*
X180594000Y-73660000D02*
G01*
X178054000Y-73660000D01*
X178054000Y-69850000D01*
X180594000Y-69850000D01*
X180594000Y-73660000D01*
G37*
X180594000Y-73660000D02*
X178054000Y-73660000D01*
X178054000Y-69850000D01*
X180594000Y-69850000D01*
X180594000Y-73660000D01*
G36*
X179832000Y-96774000D02*
G01*
X176022000Y-96774000D01*
X176022000Y-94234000D01*
X179832000Y-94234000D01*
X179832000Y-96774000D01*
G37*
X179832000Y-96774000D02*
X176022000Y-96774000D01*
X176022000Y-94234000D01*
X179832000Y-94234000D01*
X179832000Y-96774000D01*
G36*
X185166000Y-110236000D02*
G01*
X182626000Y-110236000D01*
X182626000Y-106426000D01*
X185166000Y-106426000D01*
X185166000Y-110236000D01*
G37*
X185166000Y-110236000D02*
X182626000Y-110236000D01*
X182626000Y-106426000D01*
X185166000Y-106426000D01*
X185166000Y-110236000D01*
G36*
X193294000Y-124460000D02*
G01*
X189484000Y-124460000D01*
X189484000Y-121920000D01*
X193294000Y-121920000D01*
X193294000Y-124460000D01*
G37*
X193294000Y-124460000D02*
X189484000Y-124460000D01*
X189484000Y-121920000D01*
X193294000Y-121920000D01*
X193294000Y-124460000D01*
G36*
X133350000Y-133350000D02*
G01*
X130810000Y-133350000D01*
X130810000Y-129540000D01*
X133350000Y-129540000D01*
X133350000Y-133350000D01*
G37*
X133350000Y-133350000D02*
X130810000Y-133350000D01*
X130810000Y-129540000D01*
X133350000Y-129540000D01*
X133350000Y-133350000D01*
G36*
X92456000Y-129413000D02*
G01*
X87630000Y-129413000D01*
X87630000Y-127127000D01*
X92456000Y-127127000D01*
X92456000Y-129413000D01*
G37*
X92456000Y-129413000D02*
X87630000Y-129413000D01*
X87630000Y-127127000D01*
X92456000Y-127127000D01*
X92456000Y-129413000D01*
G36*
X92456000Y-126873000D02*
G01*
X87630000Y-126873000D01*
X87630000Y-124587000D01*
X92456000Y-124587000D01*
X92456000Y-126873000D01*
G37*
X92456000Y-126873000D02*
X87630000Y-126873000D01*
X87630000Y-124587000D01*
X92456000Y-124587000D01*
X92456000Y-126873000D01*
G36*
X87503000Y-126873000D02*
G01*
X82677000Y-126873000D01*
X82677000Y-124587000D01*
X87503000Y-124587000D01*
X87503000Y-126873000D01*
G37*
X87503000Y-126873000D02*
X82677000Y-126873000D01*
X82677000Y-124587000D01*
X87503000Y-124587000D01*
X87503000Y-126873000D01*
G36*
X92583000Y-116713000D02*
G01*
X87757000Y-116713000D01*
X87757000Y-114427000D01*
X92583000Y-114427000D01*
X92583000Y-116713000D01*
G37*
X92583000Y-116713000D02*
X87757000Y-116713000D01*
X87757000Y-114427000D01*
X92583000Y-114427000D01*
X92583000Y-116713000D01*
G36*
X87503000Y-114173000D02*
G01*
X82677000Y-114173000D01*
X82677000Y-111887000D01*
X87503000Y-111887000D01*
X87503000Y-114173000D01*
G37*
X87503000Y-114173000D02*
X82677000Y-114173000D01*
X82677000Y-111887000D01*
X87503000Y-111887000D01*
X87503000Y-114173000D01*
G36*
X92456000Y-106553000D02*
G01*
X87630000Y-106553000D01*
X87630000Y-104267000D01*
X92456000Y-104267000D01*
X92456000Y-106553000D01*
G37*
X92456000Y-106553000D02*
X87630000Y-106553000D01*
X87630000Y-104267000D01*
X92456000Y-104267000D01*
X92456000Y-106553000D01*
G36*
X87503000Y-104013000D02*
G01*
X82677000Y-104013000D01*
X82677000Y-101727000D01*
X87503000Y-101727000D01*
X87503000Y-104013000D01*
G37*
X87503000Y-104013000D02*
X82677000Y-104013000D01*
X82677000Y-101727000D01*
X87503000Y-101727000D01*
X87503000Y-104013000D01*
G36*
X92329000Y-86233000D02*
G01*
X87630000Y-86233000D01*
X87630000Y-83947000D01*
X92329000Y-83947000D01*
X92329000Y-86233000D01*
G37*
X92329000Y-86233000D02*
X87630000Y-86233000D01*
X87630000Y-83947000D01*
X92329000Y-83947000D01*
X92329000Y-86233000D01*
G36*
X87630000Y-83693000D02*
G01*
X82931000Y-83693000D01*
X82931000Y-81407000D01*
X87630000Y-81407000D01*
X87630000Y-83693000D01*
G37*
X87630000Y-83693000D02*
X82931000Y-83693000D01*
X82931000Y-81407000D01*
X87630000Y-81407000D01*
X87630000Y-83693000D01*
G36*
X92329000Y-83693000D02*
G01*
X87630000Y-83693000D01*
X87630000Y-81407000D01*
X92329000Y-81407000D01*
X92329000Y-83693000D01*
G37*
X92329000Y-83693000D02*
X87630000Y-83693000D01*
X87630000Y-81407000D01*
X92329000Y-81407000D01*
X92329000Y-83693000D01*
G36*
X87503000Y-81153000D02*
G01*
X82931000Y-81153000D01*
X82931000Y-78613000D01*
X87503000Y-78613000D01*
X87503000Y-81153000D01*
G37*
X87503000Y-81153000D02*
X82931000Y-81153000D01*
X82931000Y-78613000D01*
X87503000Y-78613000D01*
X87503000Y-81153000D01*
G36*
X87503000Y-93980000D02*
G01*
X82804000Y-93980000D01*
X82804000Y-91440000D01*
X87503000Y-91440000D01*
X87503000Y-93980000D01*
G37*
X87503000Y-93980000D02*
X82804000Y-93980000D01*
X82804000Y-91440000D01*
X87503000Y-91440000D01*
X87503000Y-93980000D01*
G36*
X92583000Y-96520000D02*
G01*
X87630000Y-96520000D01*
X87630000Y-93980000D01*
X92583000Y-93980000D01*
X92583000Y-96520000D01*
G37*
X92583000Y-96520000D02*
X87630000Y-96520000D01*
X87630000Y-93980000D01*
X92583000Y-93980000D01*
X92583000Y-96520000D01*
G36*
X132080000Y-100330000D02*
G01*
X129540000Y-100330000D01*
X129540000Y-97790000D01*
X132080000Y-97790000D01*
X132080000Y-100330000D01*
G37*
X132080000Y-100330000D02*
X129540000Y-100330000D01*
X129540000Y-97790000D01*
X132080000Y-97790000D01*
X132080000Y-100330000D01*
G36*
X111760000Y-95250000D02*
G01*
X109855000Y-95250000D01*
X109220000Y-94361000D01*
X109220000Y-92710000D01*
X111760000Y-92710000D01*
X111760000Y-95250000D01*
G37*
X111760000Y-95250000D02*
X109855000Y-95250000D01*
X109220000Y-94361000D01*
X109220000Y-92710000D01*
X111760000Y-92710000D01*
X111760000Y-95250000D01*
G36*
X132080000Y-100330000D02*
G01*
X129540000Y-100330000D01*
X129540000Y-97790000D01*
X132080000Y-97790000D01*
X132080000Y-100330000D01*
G37*
X132080000Y-100330000D02*
X129540000Y-100330000D01*
X129540000Y-97790000D01*
X132080000Y-97790000D01*
X132080000Y-100330000D01*
X107828847Y-94497658D02*
X107828847Y-94551532D01*
X107855784Y-94632345D01*
X107990471Y-94767032D01*
X108071284Y-94793969D01*
X108125158Y-94793969D01*
X108205971Y-94767032D01*
X108259845Y-94713157D01*
X108313720Y-94605407D01*
X108313720Y-93958910D01*
X108663906Y-94309096D01*
X108663906Y-94955593D02*
X108583094Y-94928656D01*
X108529219Y-94928656D01*
X108448407Y-94955593D01*
X108421470Y-94982531D01*
X108394532Y-95063343D01*
X108394532Y-95117218D01*
X108421470Y-95198030D01*
X108529219Y-95305780D01*
X108610032Y-95332717D01*
X108663906Y-95332717D01*
X108744719Y-95305780D01*
X108771656Y-95278842D01*
X108798593Y-95198030D01*
X108798593Y-95144155D01*
X108771656Y-95063343D01*
X108663906Y-94955593D01*
X108636969Y-94874781D01*
X108636969Y-94820906D01*
X108663906Y-94740094D01*
X108771656Y-94632345D01*
X108852468Y-94605407D01*
X108906343Y-94605407D01*
X108987155Y-94632345D01*
X109094905Y-94740094D01*
X109121842Y-94820906D01*
X109121842Y-94874781D01*
X109094905Y-94955593D01*
X108987155Y-95063343D01*
X108906343Y-95090280D01*
X108852468Y-95090280D01*
X108771656Y-95063343D01*
X109445091Y-95090280D02*
X108879406Y-95655966D01*
X109472028Y-95440467D01*
X109256529Y-96033089D01*
X109822215Y-95467404D01*
X106787904Y-95656476D02*
X106787904Y-95199333D01*
X106787904Y-95427904D02*
X105987904Y-95427904D01*
X106102190Y-95351714D01*
X106178380Y-95275523D01*
X106216476Y-95199333D01*
X106254571Y-96342190D02*
X106787904Y-96342190D01*
X105949809Y-96151714D02*
X106521238Y-95961238D01*
X106521238Y-96456476D01*
X106787904Y-96761238D02*
X105987904Y-96761238D01*
X106559333Y-97027904D01*
X105987904Y-97294571D01*
X106787904Y-97294571D01*
X113391904Y-91535333D02*
X112591904Y-91535333D01*
X113163333Y-91802000D01*
X112591904Y-92068666D01*
X113391904Y-92068666D01*
X113315714Y-92906761D02*
X113353809Y-92868666D01*
X113391904Y-92754380D01*
X113391904Y-92678190D01*
X113353809Y-92563904D01*
X113277619Y-92487714D01*
X113201428Y-92449619D01*
X113049047Y-92411523D01*
X112934761Y-92411523D01*
X112782380Y-92449619D01*
X112706190Y-92487714D01*
X112630000Y-92563904D01*
X112591904Y-92678190D01*
X112591904Y-92754380D01*
X112630000Y-92868666D01*
X112668095Y-92906761D01*
X115855714Y-98361809D02*
X115893809Y-98323714D01*
X115931904Y-98209428D01*
X115931904Y-98133238D01*
X115893809Y-98018952D01*
X115817619Y-97942761D01*
X115741428Y-97904666D01*
X115589047Y-97866571D01*
X115474761Y-97866571D01*
X115322380Y-97904666D01*
X115246190Y-97942761D01*
X115170000Y-98018952D01*
X115131904Y-98133238D01*
X115131904Y-98209428D01*
X115170000Y-98323714D01*
X115208095Y-98361809D01*
X115131904Y-98857047D02*
X115131904Y-99009428D01*
X115170000Y-99085619D01*
X115246190Y-99161809D01*
X115398571Y-99199904D01*
X115665238Y-99199904D01*
X115817619Y-99161809D01*
X115893809Y-99085619D01*
X115931904Y-99009428D01*
X115931904Y-98857047D01*
X115893809Y-98780857D01*
X115817619Y-98704666D01*
X115665238Y-98666571D01*
X115398571Y-98666571D01*
X115246190Y-98704666D01*
X115170000Y-98780857D01*
X115131904Y-98857047D01*
X115931904Y-99542761D02*
X115131904Y-99542761D01*
X115703333Y-99809428D01*
X115131904Y-100076095D01*
X115931904Y-100076095D01*
X115931904Y-100457047D02*
X115131904Y-100457047D01*
X115131904Y-100761809D01*
X115170000Y-100838000D01*
X115208095Y-100876095D01*
X115284285Y-100914190D01*
X115398571Y-100914190D01*
X115474761Y-100876095D01*
X115512857Y-100838000D01*
X115550952Y-100761809D01*
X115550952Y-100457047D01*
X116008095Y-101066571D02*
X116008095Y-101676095D01*
X115893809Y-101828476D02*
X115931904Y-101942761D01*
X115931904Y-102133238D01*
X115893809Y-102209428D01*
X115855714Y-102247523D01*
X115779523Y-102285619D01*
X115703333Y-102285619D01*
X115627142Y-102247523D01*
X115589047Y-102209428D01*
X115550952Y-102133238D01*
X115512857Y-101980857D01*
X115474761Y-101904666D01*
X115436666Y-101866571D01*
X115360476Y-101828476D01*
X115284285Y-101828476D01*
X115208095Y-101866571D01*
X115170000Y-101904666D01*
X115131904Y-101980857D01*
X115131904Y-102171333D01*
X115170000Y-102285619D01*
X115550952Y-102780857D02*
X115931904Y-102780857D01*
X115131904Y-102514190D02*
X115550952Y-102780857D01*
X115131904Y-103047523D01*
X115931904Y-103314190D02*
X115131904Y-103314190D01*
X115931904Y-103771333D01*
X115131904Y-103771333D01*
X124555142Y-98875904D02*
X124288476Y-99675904D01*
X124021809Y-98875904D01*
X123755142Y-99675904D02*
X123755142Y-98875904D01*
X123374190Y-99675904D02*
X123374190Y-98875904D01*
X123183714Y-98875904D01*
X123069428Y-98914000D01*
X122993238Y-98990190D01*
X122955142Y-99066380D01*
X122917047Y-99218761D01*
X122917047Y-99333047D01*
X122955142Y-99485428D01*
X122993238Y-99561619D01*
X123069428Y-99637809D01*
X123183714Y-99675904D01*
X123374190Y-99675904D01*
X127937095Y-92354428D02*
X127937095Y-92811571D01*
X127937095Y-92583000D02*
X128737095Y-92583000D01*
X128622809Y-92659190D01*
X128546619Y-92735380D01*
X128508523Y-92811571D01*
X126197095Y-92849666D02*
X126197095Y-92354428D01*
X125892333Y-92621095D01*
X125892333Y-92506809D01*
X125854238Y-92430619D01*
X125816142Y-92392523D01*
X125739952Y-92354428D01*
X125549476Y-92354428D01*
X125473285Y-92392523D01*
X125435190Y-92430619D01*
X125397095Y-92506809D01*
X125397095Y-92735380D01*
X125435190Y-92811571D01*
X125473285Y-92849666D01*
X123657095Y-92392523D02*
X123657095Y-92773476D01*
X123276142Y-92811571D01*
X123314238Y-92773476D01*
X123352333Y-92697285D01*
X123352333Y-92506809D01*
X123314238Y-92430619D01*
X123276142Y-92392523D01*
X123199952Y-92354428D01*
X123009476Y-92354428D01*
X122933285Y-92392523D01*
X122895190Y-92430619D01*
X122857095Y-92506809D01*
X122857095Y-92697285D01*
X122895190Y-92773476D01*
X122933285Y-92811571D01*
X120990095Y-92849666D02*
X120990095Y-92316333D01*
X120190095Y-92659190D01*
X117777095Y-92735380D02*
X117777095Y-92583000D01*
X117815190Y-92506809D01*
X117853285Y-92468714D01*
X117967571Y-92392523D01*
X118119952Y-92354428D01*
X118424714Y-92354428D01*
X118500904Y-92392523D01*
X118539000Y-92430619D01*
X118577095Y-92506809D01*
X118577095Y-92659190D01*
X118539000Y-92735380D01*
X118500904Y-92773476D01*
X118424714Y-92811571D01*
X118234238Y-92811571D01*
X118158047Y-92773476D01*
X118119952Y-92735380D01*
X118081857Y-92659190D01*
X118081857Y-92506809D01*
X118119952Y-92430619D01*
X118158047Y-92392523D01*
X118234238Y-92354428D01*
X115760095Y-92354428D02*
X115760095Y-92811571D01*
X115760095Y-92583000D02*
X116560095Y-92583000D01*
X116445809Y-92659190D01*
X116369619Y-92735380D01*
X116331523Y-92811571D01*
X114460095Y-92354428D02*
X114460095Y-92811571D01*
X114460095Y-92583000D02*
X115260095Y-92583000D01*
X115145809Y-92659190D01*
X115069619Y-92735380D01*
X115031523Y-92811571D01*
X118442904Y-98272619D02*
X118442904Y-97815476D01*
X118442904Y-98044047D02*
X117642904Y-98044047D01*
X117757190Y-97967857D01*
X117833380Y-97891666D01*
X117871476Y-97815476D01*
X117642904Y-98767857D02*
X117642904Y-98844047D01*
X117681000Y-98920238D01*
X117719095Y-98958333D01*
X117795285Y-98996428D01*
X117947666Y-99034523D01*
X118138142Y-99034523D01*
X118290523Y-98996428D01*
X118366714Y-98958333D01*
X118404809Y-98920238D01*
X118442904Y-98844047D01*
X118442904Y-98767857D01*
X118404809Y-98691666D01*
X118366714Y-98653571D01*
X118290523Y-98615476D01*
X118138142Y-98577380D01*
X117947666Y-98577380D01*
X117795285Y-98615476D01*
X117719095Y-98653571D01*
X117681000Y-98691666D01*
X117642904Y-98767857D01*
X120525761Y-97967809D02*
X120487666Y-97891619D01*
X120449571Y-97853523D01*
X120373380Y-97815428D01*
X120335285Y-97815428D01*
X120259095Y-97853523D01*
X120221000Y-97891619D01*
X120182904Y-97967809D01*
X120182904Y-98120190D01*
X120221000Y-98196380D01*
X120259095Y-98234476D01*
X120335285Y-98272571D01*
X120373380Y-98272571D01*
X120449571Y-98234476D01*
X120487666Y-98196380D01*
X120525761Y-98120190D01*
X120525761Y-97967809D01*
X120563857Y-97891619D01*
X120601952Y-97853523D01*
X120678142Y-97815428D01*
X120830523Y-97815428D01*
X120906714Y-97853523D01*
X120944809Y-97891619D01*
X120982904Y-97967809D01*
X120982904Y-98120190D01*
X120944809Y-98196380D01*
X120906714Y-98234476D01*
X120830523Y-98272571D01*
X120678142Y-98272571D01*
X120601952Y-98234476D01*
X120563857Y-98196380D01*
X120525761Y-98120190D01*
X122722904Y-98196380D02*
X122722904Y-98044000D01*
X122761000Y-97967809D01*
X122799095Y-97929714D01*
X122913380Y-97853523D01*
X123065761Y-97815428D01*
X123370523Y-97815428D01*
X123446714Y-97853523D01*
X123484809Y-97891619D01*
X123522904Y-97967809D01*
X123522904Y-98120190D01*
X123484809Y-98196380D01*
X123446714Y-98234476D01*
X123370523Y-98272571D01*
X123180047Y-98272571D01*
X123103857Y-98234476D01*
X123065761Y-98196380D01*
X123027666Y-98120190D01*
X123027666Y-97967809D01*
X123065761Y-97891619D01*
X123103857Y-97853523D01*
X123180047Y-97815428D01*
X125529571Y-98196380D02*
X126062904Y-98196380D01*
X125224809Y-98005904D02*
X125796238Y-97815428D01*
X125796238Y-98310666D01*
X128006095Y-97815428D02*
X127968000Y-97853523D01*
X127929904Y-97929714D01*
X127929904Y-98120190D01*
X127968000Y-98196380D01*
X128006095Y-98234476D01*
X128082285Y-98272571D01*
X128158476Y-98272571D01*
X128272761Y-98234476D01*
X128729904Y-97777333D01*
X128729904Y-98272571D01*
D10*
X116840000Y-98298000D02*
X116840000Y-98552000D01*
X129540000Y-97790000D02*
X129540000Y-98552000D01*
X116840000Y-95250000D02*
X116840000Y-98298000D01*
X114300000Y-95250000D02*
X116840000Y-95250000D01*
X114300000Y-92202000D02*
X114300000Y-95250000D01*
X129540000Y-92202000D02*
X114300000Y-92202000D01*
X129540000Y-95250000D02*
X129540000Y-92202000D01*
X132080000Y-95250000D02*
X129540000Y-95250000D01*
X132080000Y-97790000D02*
X132080000Y-95250000D01*
X129540000Y-97790000D02*
X132080000Y-97790000D01*
D11*
X134550190Y-97161047D02*
X134512095Y-97046761D01*
X134512095Y-96856285D01*
X134550190Y-96780095D01*
X134588285Y-96742000D01*
X134664476Y-96703904D01*
X134740666Y-96703904D01*
X134816857Y-96742000D01*
X134854952Y-96780095D01*
X134893047Y-96856285D01*
X134931142Y-97008666D01*
X134969238Y-97084857D01*
X135007333Y-97122952D01*
X135083523Y-97161047D01*
X135159714Y-97161047D01*
X135235904Y-97122952D01*
X135274000Y-97084857D01*
X135312095Y-97008666D01*
X135312095Y-96818190D01*
X135274000Y-96703904D01*
X135312095Y-96475333D02*
X135312095Y-96018190D01*
X134512095Y-96246761D02*
X135312095Y-96246761D01*
X134512095Y-95294380D02*
X134893047Y-95561047D01*
X134512095Y-95751523D02*
X135312095Y-95751523D01*
X135312095Y-95446761D01*
X135274000Y-95370571D01*
X135235904Y-95332476D01*
X135159714Y-95294380D01*
X135045428Y-95294380D01*
X134969238Y-95332476D01*
X134931142Y-95370571D01*
X134893047Y-95446761D01*
X134893047Y-95751523D01*
X134931142Y-94951523D02*
X134931142Y-94684857D01*
X134512095Y-94570571D02*
X134512095Y-94951523D01*
X135312095Y-94951523D01*
X135312095Y-94570571D01*
X135312095Y-94342000D02*
X135312095Y-93884857D01*
X134512095Y-94113428D02*
X135312095Y-94113428D01*
X134588285Y-93161047D02*
X134550190Y-93199142D01*
X134512095Y-93313428D01*
X134512095Y-93389619D01*
X134550190Y-93503904D01*
X134626380Y-93580095D01*
X134702571Y-93618190D01*
X134854952Y-93656285D01*
X134969238Y-93656285D01*
X135121619Y-93618190D01*
X135197809Y-93580095D01*
X135274000Y-93503904D01*
X135312095Y-93389619D01*
X135312095Y-93313428D01*
X135274000Y-93199142D01*
X135235904Y-93161047D01*
X134512095Y-92818190D02*
X135312095Y-92818190D01*
X134931142Y-92818190D02*
X134931142Y-92361047D01*
X134512095Y-92361047D02*
X135312095Y-92361047D01*
X135280380Y-98621904D02*
X135661333Y-98621904D01*
X135699428Y-99002857D01*
X135661333Y-98964761D01*
X135585142Y-98926666D01*
X135394666Y-98926666D01*
X135318476Y-98964761D01*
X135280380Y-99002857D01*
X135242285Y-99079047D01*
X135242285Y-99269523D01*
X135280380Y-99345714D01*
X135318476Y-99383809D01*
X135394666Y-99421904D01*
X135585142Y-99421904D01*
X135661333Y-99383809D01*
X135699428Y-99345714D01*
X135013714Y-98621904D02*
X134747047Y-99421904D01*
X134480380Y-98621904D01*
X134435904Y-105943523D02*
X135235904Y-106210190D01*
X134435904Y-106476857D01*
X134816857Y-107010190D02*
X134854952Y-107124476D01*
X134893047Y-107162571D01*
X134969238Y-107200666D01*
X135083523Y-107200666D01*
X135159714Y-107162571D01*
X135197809Y-107124476D01*
X135235904Y-107048285D01*
X135235904Y-106743523D01*
X134435904Y-106743523D01*
X134435904Y-107010190D01*
X134474000Y-107086380D01*
X134512095Y-107124476D01*
X134588285Y-107162571D01*
X134664476Y-107162571D01*
X134740666Y-107124476D01*
X134778761Y-107086380D01*
X134816857Y-107010190D01*
X134816857Y-106743523D01*
X135235904Y-107924476D02*
X135235904Y-107543523D01*
X134435904Y-107543523D01*
X129476285Y-107295904D02*
X129476285Y-106495904D01*
X129209619Y-107067333D01*
X128942952Y-106495904D01*
X128942952Y-107295904D01*
X128600095Y-106572095D02*
X128562000Y-106534000D01*
X128485809Y-106495904D01*
X128295333Y-106495904D01*
X128219142Y-106534000D01*
X128181047Y-106572095D01*
X128142952Y-106648285D01*
X128142952Y-106724476D01*
X128181047Y-106838761D01*
X128638190Y-107295904D01*
X128142952Y-107295904D01*
X127838190Y-107257809D02*
X127723904Y-107295904D01*
X127533428Y-107295904D01*
X127457238Y-107257809D01*
X127419142Y-107219714D01*
X127381047Y-107143523D01*
X127381047Y-107067333D01*
X127419142Y-106991142D01*
X127457238Y-106953047D01*
X127533428Y-106914952D01*
X127685809Y-106876857D01*
X127762000Y-106838761D01*
X127800095Y-106800666D01*
X127838190Y-106724476D01*
X127838190Y-106648285D01*
X127800095Y-106572095D01*
X127762000Y-106534000D01*
X127685809Y-106495904D01*
X127495333Y-106495904D01*
X127381047Y-106534000D01*
X127038190Y-106876857D02*
X126771523Y-106876857D01*
X126657238Y-107295904D02*
X127038190Y-107295904D01*
X127038190Y-106495904D01*
X126657238Y-106495904D01*
X125933428Y-107295904D02*
X126314380Y-107295904D01*
X126314380Y-106495904D01*
X129457238Y-109581904D02*
X129457238Y-108781904D01*
X129457238Y-109162857D02*
X129000095Y-109162857D01*
X129000095Y-109581904D02*
X129000095Y-108781904D01*
X128619142Y-109581904D02*
X128619142Y-108781904D01*
X128428666Y-108781904D01*
X128314380Y-108820000D01*
X128238190Y-108896190D01*
X128200095Y-108972380D01*
X128162000Y-109124761D01*
X128162000Y-109239047D01*
X128200095Y-109391428D01*
X128238190Y-109467619D01*
X128314380Y-109543809D01*
X128428666Y-109581904D01*
X128619142Y-109581904D01*
X127857238Y-109543809D02*
X127742952Y-109581904D01*
X127552476Y-109581904D01*
X127476285Y-109543809D01*
X127438190Y-109505714D01*
X127400095Y-109429523D01*
X127400095Y-109353333D01*
X127438190Y-109277142D01*
X127476285Y-109239047D01*
X127552476Y-109200952D01*
X127704857Y-109162857D01*
X127781047Y-109124761D01*
X127819142Y-109086666D01*
X127857238Y-109010476D01*
X127857238Y-108934285D01*
X127819142Y-108858095D01*
X127781047Y-108820000D01*
X127704857Y-108781904D01*
X127514380Y-108781904D01*
X127400095Y-108820000D01*
X127057238Y-109162857D02*
X126790571Y-109162857D01*
X126676285Y-109581904D02*
X127057238Y-109581904D01*
X127057238Y-108781904D01*
X126676285Y-108781904D01*
X125952476Y-109581904D02*
X126333428Y-109581904D01*
X126333428Y-108781904D01*
X135267666Y-111350904D02*
X134734333Y-111350904D01*
X135077190Y-112150904D01*
X129196952Y-111702857D02*
X129463619Y-111702857D01*
X129463619Y-112121904D02*
X129463619Y-111321904D01*
X129082666Y-111321904D01*
X128396952Y-112121904D02*
X128777904Y-112121904D01*
X128777904Y-111321904D01*
X128130285Y-112121904D02*
X128130285Y-111321904D01*
X127749333Y-112121904D02*
X127749333Y-111321904D01*
X127444571Y-111321904D01*
X127368380Y-111360000D01*
X127330285Y-111398095D01*
X127292190Y-111474285D01*
X127292190Y-111588571D01*
X127330285Y-111664761D01*
X127368380Y-111702857D01*
X127444571Y-111740952D01*
X127749333Y-111740952D01*
X126606476Y-111321904D02*
X126758857Y-111321904D01*
X126835047Y-111360000D01*
X126873142Y-111398095D01*
X126949333Y-111512380D01*
X126987428Y-111664761D01*
X126987428Y-111969523D01*
X126949333Y-112045714D01*
X126911238Y-112083809D01*
X126835047Y-112121904D01*
X126682666Y-112121904D01*
X126606476Y-112083809D01*
X126568380Y-112045714D01*
X126530285Y-111969523D01*
X126530285Y-111779047D01*
X126568380Y-111702857D01*
X126606476Y-111664761D01*
X126682666Y-111626666D01*
X126835047Y-111626666D01*
X126911238Y-111664761D01*
X126949333Y-111702857D01*
X126987428Y-111779047D01*
X135264904Y-113963476D02*
X134883952Y-113696809D01*
X135264904Y-113506333D02*
X134464904Y-113506333D01*
X134464904Y-113811095D01*
X134503000Y-113887285D01*
X134541095Y-113925380D01*
X134617285Y-113963476D01*
X134731571Y-113963476D01*
X134807761Y-113925380D01*
X134845857Y-113887285D01*
X134883952Y-113811095D01*
X134883952Y-113506333D01*
X134464904Y-114230142D02*
X135264904Y-114420619D01*
X134693476Y-114573000D01*
X135264904Y-114725380D01*
X134464904Y-114915857D01*
X129050904Y-114661904D02*
X129317571Y-114280952D01*
X129508047Y-114661904D02*
X129508047Y-113861904D01*
X129203285Y-113861904D01*
X129127095Y-113900000D01*
X129089000Y-113938095D01*
X129050904Y-114014285D01*
X129050904Y-114128571D01*
X129089000Y-114204761D01*
X129127095Y-114242857D01*
X129203285Y-114280952D01*
X129508047Y-114280952D01*
X128708047Y-114242857D02*
X128441380Y-114242857D01*
X128327095Y-114661904D02*
X128708047Y-114661904D01*
X128708047Y-113861904D01*
X128327095Y-113861904D01*
X128022333Y-114623809D02*
X127908047Y-114661904D01*
X127717571Y-114661904D01*
X127641380Y-114623809D01*
X127603285Y-114585714D01*
X127565190Y-114509523D01*
X127565190Y-114433333D01*
X127603285Y-114357142D01*
X127641380Y-114319047D01*
X127717571Y-114280952D01*
X127869952Y-114242857D01*
X127946142Y-114204761D01*
X127984238Y-114166666D01*
X128022333Y-114090476D01*
X128022333Y-114014285D01*
X127984238Y-113938095D01*
X127946142Y-113900000D01*
X127869952Y-113861904D01*
X127679476Y-113861904D01*
X127565190Y-113900000D01*
X127222333Y-114242857D02*
X126955666Y-114242857D01*
X126841380Y-114661904D02*
X127222333Y-114661904D01*
X127222333Y-113861904D01*
X126841380Y-113861904D01*
X126612809Y-113861904D02*
X126155666Y-113861904D01*
X126384238Y-114661904D02*
X126384238Y-113861904D01*
X131876064Y-117394253D02*
X131310378Y-117959938D01*
X131525877Y-118175438D01*
X131606690Y-118202375D01*
X131660564Y-118202375D01*
X131741377Y-118175438D01*
X131822189Y-118094625D01*
X131849126Y-118013813D01*
X131849126Y-117959938D01*
X131822189Y-117879126D01*
X131606690Y-117663627D01*
X132441749Y-117959938D02*
X131876064Y-118525624D01*
X132145438Y-118256250D02*
X132468687Y-118579499D01*
X132764998Y-118283187D02*
X132199312Y-118848873D01*
X132576436Y-119225996D02*
X132630311Y-119279871D01*
X132711123Y-119306809D01*
X132764998Y-119306809D01*
X132845810Y-119279871D01*
X132980497Y-119199059D01*
X133115184Y-119064372D01*
X133195996Y-118929685D01*
X133222934Y-118848873D01*
X133222934Y-118794998D01*
X133195996Y-118714186D01*
X133142122Y-118660311D01*
X133061309Y-118633374D01*
X133007435Y-118633374D01*
X132926622Y-118660311D01*
X132791935Y-118741123D01*
X132657248Y-118875810D01*
X132576436Y-119010497D01*
X132549499Y-119091309D01*
X132549499Y-119145184D01*
X132576436Y-119225996D01*
X128758904Y-120621952D02*
X127958904Y-120621952D01*
X128758904Y-121460047D02*
X128377952Y-121193380D01*
X128758904Y-121002904D02*
X127958904Y-121002904D01*
X127958904Y-121307666D01*
X127997000Y-121383857D01*
X128035095Y-121421952D01*
X128111285Y-121460047D01*
X128225571Y-121460047D01*
X128301761Y-121421952D01*
X128339857Y-121383857D01*
X128377952Y-121307666D01*
X128377952Y-121002904D01*
X128835095Y-122336238D02*
X128797000Y-122260047D01*
X128720809Y-122183857D01*
X128606523Y-122069571D01*
X128568428Y-121993380D01*
X128568428Y-121917190D01*
X128758904Y-121955285D02*
X128720809Y-121879095D01*
X128644619Y-121802904D01*
X128492238Y-121764809D01*
X128225571Y-121764809D01*
X128073190Y-121802904D01*
X127997000Y-121879095D01*
X127958904Y-121955285D01*
X127958904Y-122107666D01*
X127997000Y-122183857D01*
X128073190Y-122260047D01*
X128225571Y-122298142D01*
X128492238Y-122298142D01*
X128644619Y-122260047D01*
X128720809Y-122183857D01*
X128758904Y-122107666D01*
X128758904Y-121955285D01*
X126139095Y-121043666D02*
X126139095Y-120510333D01*
X125339095Y-120853190D01*
X123599095Y-120586523D02*
X123599095Y-120967476D01*
X123218142Y-121005571D01*
X123256238Y-120967476D01*
X123294333Y-120891285D01*
X123294333Y-120700809D01*
X123256238Y-120624619D01*
X123218142Y-120586523D01*
X123141952Y-120548428D01*
X122951476Y-120548428D01*
X122875285Y-120586523D01*
X122837190Y-120624619D01*
X122799095Y-120700809D01*
X122799095Y-120891285D01*
X122837190Y-120967476D01*
X122875285Y-121005571D01*
X121059095Y-121043666D02*
X121059095Y-120548428D01*
X120754333Y-120815095D01*
X120754333Y-120700809D01*
X120716238Y-120624619D01*
X120678142Y-120586523D01*
X120601952Y-120548428D01*
X120411476Y-120548428D01*
X120335285Y-120586523D01*
X120297190Y-120624619D01*
X120259095Y-120700809D01*
X120259095Y-120929380D01*
X120297190Y-121005571D01*
X120335285Y-121043666D01*
X117719095Y-120548428D02*
X117719095Y-121005571D01*
X117719095Y-120777000D02*
X118519095Y-120777000D01*
X118404809Y-120853190D01*
X118328619Y-120929380D01*
X118290523Y-121005571D01*
X115979095Y-115481095D02*
X115979095Y-115404904D01*
X115941000Y-115328714D01*
X115902904Y-115290619D01*
X115826714Y-115252523D01*
X115674333Y-115214428D01*
X115483857Y-115214428D01*
X115331476Y-115252523D01*
X115255285Y-115290619D01*
X115217190Y-115328714D01*
X115179095Y-115404904D01*
X115179095Y-115481095D01*
X115217190Y-115557285D01*
X115255285Y-115595380D01*
X115331476Y-115633476D01*
X115483857Y-115671571D01*
X115674333Y-115671571D01*
X115826714Y-115633476D01*
X115902904Y-115595380D01*
X115941000Y-115557285D01*
X115979095Y-115481095D01*
X118442904Y-115671571D02*
X118481000Y-115633476D01*
X118519095Y-115557285D01*
X118519095Y-115366809D01*
X118481000Y-115290619D01*
X118442904Y-115252523D01*
X118366714Y-115214428D01*
X118290523Y-115214428D01*
X118176238Y-115252523D01*
X117719095Y-115709666D01*
X117719095Y-115214428D01*
X120792428Y-115290619D02*
X120259095Y-115290619D01*
X121097190Y-115481095D02*
X120525761Y-115671571D01*
X120525761Y-115176333D01*
X123599095Y-115290619D02*
X123599095Y-115443000D01*
X123561000Y-115519190D01*
X123522904Y-115557285D01*
X123408619Y-115633476D01*
X123256238Y-115671571D01*
X122951476Y-115671571D01*
X122875285Y-115633476D01*
X122837190Y-115595380D01*
X122799095Y-115519190D01*
X122799095Y-115366809D01*
X122837190Y-115290619D01*
X122875285Y-115252523D01*
X122951476Y-115214428D01*
X123141952Y-115214428D01*
X123218142Y-115252523D01*
X123256238Y-115290619D01*
X123294333Y-115366809D01*
X123294333Y-115519190D01*
X123256238Y-115595380D01*
X123218142Y-115633476D01*
X123141952Y-115671571D01*
X121424428Y-114661904D02*
X121691095Y-114280952D01*
X121881571Y-114661904D02*
X121881571Y-113861904D01*
X121576809Y-113861904D01*
X121500619Y-113900000D01*
X121462523Y-113938095D01*
X121424428Y-114014285D01*
X121424428Y-114128571D01*
X121462523Y-114204761D01*
X121500619Y-114242857D01*
X121576809Y-114280952D01*
X121881571Y-114280952D01*
X121119666Y-114433333D02*
X120738714Y-114433333D01*
X121195857Y-114661904D02*
X120929190Y-113861904D01*
X120662523Y-114661904D01*
X120395857Y-114661904D02*
X120395857Y-113861904D01*
X120129190Y-114433333D01*
X119862523Y-113861904D01*
X119862523Y-114661904D01*
X118910142Y-114433333D02*
X118529190Y-114433333D01*
X118986333Y-114661904D02*
X118719666Y-113861904D01*
X118453000Y-114661904D01*
X117843476Y-114661904D02*
X117843476Y-113861904D01*
X117843476Y-114623809D02*
X117919666Y-114661904D01*
X118072047Y-114661904D01*
X118148238Y-114623809D01*
X118186333Y-114585714D01*
X118224428Y-114509523D01*
X118224428Y-114280952D01*
X118186333Y-114204761D01*
X118148238Y-114166666D01*
X118072047Y-114128571D01*
X117919666Y-114128571D01*
X117843476Y-114166666D01*
X117119666Y-114661904D02*
X117119666Y-113861904D01*
X117119666Y-114623809D02*
X117195857Y-114661904D01*
X117348238Y-114661904D01*
X117424428Y-114623809D01*
X117462523Y-114585714D01*
X117500619Y-114509523D01*
X117500619Y-114280952D01*
X117462523Y-114204761D01*
X117424428Y-114166666D01*
X117348238Y-114128571D01*
X117195857Y-114128571D01*
X117119666Y-114166666D01*
X116738714Y-114661904D02*
X116738714Y-114128571D01*
X116738714Y-114280952D02*
X116700619Y-114204761D01*
X116662523Y-114166666D01*
X116586333Y-114128571D01*
X116510142Y-114128571D01*
D10*
X124460000Y-118110000D02*
X124460000Y-115570000D01*
X127000000Y-118110000D02*
X124460000Y-118110000D01*
X127000000Y-121285000D02*
X127000000Y-118110000D01*
X116840000Y-121285000D02*
X127000000Y-121285000D01*
D11*
X113836095Y-122789904D02*
X113836095Y-121989904D01*
X113569428Y-122561333D01*
X113302761Y-121989904D01*
X113302761Y-122789904D01*
X112578952Y-122789904D02*
X112578952Y-122370857D01*
X112617047Y-122294666D01*
X112693238Y-122256571D01*
X112845619Y-122256571D01*
X112921809Y-122294666D01*
X112578952Y-122751809D02*
X112655142Y-122789904D01*
X112845619Y-122789904D01*
X112921809Y-122751809D01*
X112959904Y-122675619D01*
X112959904Y-122599428D01*
X112921809Y-122523238D01*
X112845619Y-122485142D01*
X112655142Y-122485142D01*
X112578952Y-122447047D01*
X112198000Y-122789904D02*
X112198000Y-122256571D01*
X112198000Y-121989904D02*
X112236095Y-122028000D01*
X112198000Y-122066095D01*
X112159904Y-122028000D01*
X112198000Y-121989904D01*
X112198000Y-122066095D01*
X111817047Y-122256571D02*
X111817047Y-122789904D01*
X111817047Y-122332761D02*
X111778952Y-122294666D01*
X111702761Y-122256571D01*
X111588476Y-122256571D01*
X111512285Y-122294666D01*
X111474190Y-122370857D01*
X111474190Y-122789904D01*
X110483714Y-122789904D02*
X110483714Y-121989904D01*
X110293238Y-121989904D01*
X110178952Y-122028000D01*
X110102761Y-122104190D01*
X110064666Y-122180380D01*
X110026571Y-122332761D01*
X110026571Y-122447047D01*
X110064666Y-122599428D01*
X110102761Y-122675619D01*
X110178952Y-122751809D01*
X110293238Y-122789904D01*
X110483714Y-122789904D01*
X109340857Y-122789904D02*
X109340857Y-122370857D01*
X109378952Y-122294666D01*
X109455142Y-122256571D01*
X109607523Y-122256571D01*
X109683714Y-122294666D01*
X109340857Y-122751809D02*
X109417047Y-122789904D01*
X109607523Y-122789904D01*
X109683714Y-122751809D01*
X109721809Y-122675619D01*
X109721809Y-122599428D01*
X109683714Y-122523238D01*
X109607523Y-122485142D01*
X109417047Y-122485142D01*
X109340857Y-122447047D01*
X109074190Y-122256571D02*
X108769428Y-122256571D01*
X108959904Y-121989904D02*
X108959904Y-122675619D01*
X108921809Y-122751809D01*
X108845619Y-122789904D01*
X108769428Y-122789904D01*
X108159904Y-122789904D02*
X108159904Y-122370857D01*
X108198000Y-122294666D01*
X108274190Y-122256571D01*
X108426571Y-122256571D01*
X108502761Y-122294666D01*
X108159904Y-122751809D02*
X108236095Y-122789904D01*
X108426571Y-122789904D01*
X108502761Y-122751809D01*
X108540857Y-122675619D01*
X108540857Y-122599428D01*
X108502761Y-122523238D01*
X108426571Y-122485142D01*
X108236095Y-122485142D01*
X108159904Y-122447047D01*
X109204468Y-118008032D02*
X108827345Y-118385155D01*
X109554654Y-117927219D02*
X109285280Y-118465967D01*
X108935094Y-118115781D01*
X111658428Y-114632904D02*
X112115571Y-114632904D01*
X111887000Y-114632904D02*
X111887000Y-113832904D01*
X111963190Y-113947190D01*
X112039380Y-114023380D01*
X112115571Y-114061476D01*
X113362904Y-115671571D02*
X113401000Y-115633476D01*
X113439095Y-115557285D01*
X113439095Y-115366809D01*
X113401000Y-115290619D01*
X113362904Y-115252523D01*
X113286714Y-115214428D01*
X113210523Y-115214428D01*
X113096238Y-115252523D01*
X112639095Y-115709666D01*
X112639095Y-115214428D01*
X115979095Y-121043666D02*
X115979095Y-120510333D01*
X115179095Y-120853190D01*
X113439095Y-120586523D02*
X113439095Y-120967476D01*
X113058142Y-121005571D01*
X113096238Y-120967476D01*
X113134333Y-120891285D01*
X113134333Y-120700809D01*
X113096238Y-120624619D01*
X113058142Y-120586523D01*
X112981952Y-120548428D01*
X112791476Y-120548428D01*
X112715285Y-120586523D01*
X112677190Y-120624619D01*
X112639095Y-120700809D01*
X112639095Y-120891285D01*
X112677190Y-120967476D01*
X112715285Y-121005571D01*
X110899095Y-121043666D02*
X110899095Y-120548428D01*
X110594333Y-120815095D01*
X110594333Y-120700809D01*
X110556238Y-120624619D01*
X110518142Y-120586523D01*
X110441952Y-120548428D01*
X110251476Y-120548428D01*
X110175285Y-120586523D01*
X110137190Y-120624619D01*
X110099095Y-120700809D01*
X110099095Y-120929380D01*
X110137190Y-121005571D01*
X110175285Y-121043666D01*
X106781571Y-116449095D02*
X106743476Y-116411000D01*
X106667285Y-116372904D01*
X106476809Y-116372904D01*
X106400619Y-116411000D01*
X106362523Y-116449095D01*
X106324428Y-116525285D01*
X106324428Y-116601476D01*
X106362523Y-116715761D01*
X106819666Y-117172904D01*
X106324428Y-117172904D01*
X106591095Y-113832904D02*
X106514904Y-113832904D01*
X106438714Y-113871000D01*
X106400619Y-113909095D01*
X106362523Y-113985285D01*
X106324428Y-114137666D01*
X106324428Y-114328142D01*
X106362523Y-114480523D01*
X106400619Y-114556714D01*
X106438714Y-114594809D01*
X106514904Y-114632904D01*
X106591095Y-114632904D01*
X106667285Y-114594809D01*
X106705380Y-114556714D01*
X106743476Y-114480523D01*
X106781571Y-114328142D01*
X106781571Y-114137666D01*
X106743476Y-113985285D01*
X106705380Y-113909095D01*
X106667285Y-113871000D01*
X106591095Y-113832904D01*
D10*
X114300000Y-118110000D02*
X114300000Y-115570000D01*
X116840000Y-118110000D02*
X114300000Y-118110000D01*
X116840000Y-121285000D02*
X116840000Y-118110000D01*
X106045000Y-121285000D02*
X116840000Y-121285000D01*
X106045000Y-97790000D02*
X106045000Y-121285000D01*
D11*
X112668095Y-110788380D02*
X113049047Y-111055047D01*
X112668095Y-111245523D02*
X113468095Y-111245523D01*
X113468095Y-110940761D01*
X113430000Y-110864571D01*
X113391904Y-110826476D01*
X113315714Y-110788380D01*
X113201428Y-110788380D01*
X113125238Y-110826476D01*
X113087142Y-110864571D01*
X113049047Y-110940761D01*
X113049047Y-111245523D01*
X113430000Y-110026476D02*
X113468095Y-110102666D01*
X113468095Y-110216952D01*
X113430000Y-110331238D01*
X113353809Y-110407428D01*
X113277619Y-110445523D01*
X113125238Y-110483619D01*
X113010952Y-110483619D01*
X112858571Y-110445523D01*
X112782380Y-110407428D01*
X112706190Y-110331238D01*
X112668095Y-110216952D01*
X112668095Y-110140761D01*
X112706190Y-110026476D01*
X112744285Y-109988380D01*
X113010952Y-109988380D01*
X113010952Y-110140761D01*
X113087142Y-109378857D02*
X113049047Y-109264571D01*
X113010952Y-109226476D01*
X112934761Y-109188380D01*
X112820476Y-109188380D01*
X112744285Y-109226476D01*
X112706190Y-109264571D01*
X112668095Y-109340761D01*
X112668095Y-109645523D01*
X113468095Y-109645523D01*
X113468095Y-109378857D01*
X113430000Y-109302666D01*
X113391904Y-109264571D01*
X113315714Y-109226476D01*
X113239523Y-109226476D01*
X113163333Y-109264571D01*
X113125238Y-109302666D01*
X113087142Y-109378857D01*
X113087142Y-109645523D01*
X111658428Y-112092904D02*
X112115571Y-112092904D01*
X111887000Y-112092904D02*
X111887000Y-111292904D01*
X111963190Y-111407190D01*
X112039380Y-111483380D01*
X112115571Y-111521476D01*
X111734619Y-108765571D02*
X111734619Y-109298904D01*
X111925095Y-108460809D02*
X112115571Y-109032238D01*
X111620333Y-109032238D01*
X106629190Y-109095761D02*
X106705380Y-109057666D01*
X106743476Y-109019571D01*
X106781571Y-108943380D01*
X106781571Y-108905285D01*
X106743476Y-108829095D01*
X106705380Y-108791000D01*
X106629190Y-108752904D01*
X106476809Y-108752904D01*
X106400619Y-108791000D01*
X106362523Y-108829095D01*
X106324428Y-108905285D01*
X106324428Y-108943380D01*
X106362523Y-109019571D01*
X106400619Y-109057666D01*
X106476809Y-109095761D01*
X106629190Y-109095761D01*
X106705380Y-109133857D01*
X106743476Y-109171952D01*
X106781571Y-109248142D01*
X106781571Y-109400523D01*
X106743476Y-109476714D01*
X106705380Y-109514809D01*
X106629190Y-109552904D01*
X106476809Y-109552904D01*
X106400619Y-109514809D01*
X106362523Y-109476714D01*
X106324428Y-109400523D01*
X106324428Y-109248142D01*
X106362523Y-109171952D01*
X106400619Y-109133857D01*
X106476809Y-109095761D01*
X106781571Y-111369095D02*
X106743476Y-111331000D01*
X106667285Y-111292904D01*
X106476809Y-111292904D01*
X106400619Y-111331000D01*
X106362523Y-111369095D01*
X106324428Y-111445285D01*
X106324428Y-111521476D01*
X106362523Y-111635761D01*
X106819666Y-112092904D01*
X106324428Y-112092904D01*
D10*
X106045000Y-113030000D02*
X112395000Y-113030000D01*
D11*
X113023666Y-105120333D02*
X113023666Y-104739380D01*
X112795095Y-105196523D02*
X113595095Y-104929857D01*
X112795095Y-104663190D01*
X113328428Y-104053666D02*
X112795095Y-104053666D01*
X113328428Y-104396523D02*
X112909380Y-104396523D01*
X112833190Y-104358428D01*
X112795095Y-104282238D01*
X112795095Y-104167952D01*
X112833190Y-104091761D01*
X112871285Y-104053666D01*
X112795095Y-103748904D02*
X113328428Y-103329857D01*
X113328428Y-103748904D02*
X112795095Y-103329857D01*
X112795095Y-102415571D02*
X113595095Y-102415571D01*
X113595095Y-102225095D01*
X113557000Y-102110809D01*
X113480809Y-102034619D01*
X113404619Y-101996523D01*
X113252238Y-101958428D01*
X113137952Y-101958428D01*
X112985571Y-101996523D01*
X112909380Y-102034619D01*
X112833190Y-102110809D01*
X112795095Y-102225095D01*
X112795095Y-102415571D01*
X112795095Y-101272714D02*
X113214142Y-101272714D01*
X113290333Y-101310809D01*
X113328428Y-101387000D01*
X113328428Y-101539380D01*
X113290333Y-101615571D01*
X112833190Y-101272714D02*
X112795095Y-101348904D01*
X112795095Y-101539380D01*
X112833190Y-101615571D01*
X112909380Y-101653666D01*
X112985571Y-101653666D01*
X113061761Y-101615571D01*
X113099857Y-101539380D01*
X113099857Y-101348904D01*
X113137952Y-101272714D01*
X113328428Y-101006047D02*
X113328428Y-100701285D01*
X113595095Y-100891761D02*
X112909380Y-100891761D01*
X112833190Y-100853666D01*
X112795095Y-100777476D01*
X112795095Y-100701285D01*
X112795095Y-100091761D02*
X113214142Y-100091761D01*
X113290333Y-100129857D01*
X113328428Y-100206047D01*
X113328428Y-100358428D01*
X113290333Y-100434619D01*
X112833190Y-100091761D02*
X112795095Y-100167952D01*
X112795095Y-100358428D01*
X112833190Y-100434619D01*
X112909380Y-100472714D01*
X112985571Y-100472714D01*
X113061761Y-100434619D01*
X113099857Y-100358428D01*
X113099857Y-100167952D01*
X113137952Y-100091761D01*
X111925095Y-106212904D02*
X111848904Y-106212904D01*
X111772714Y-106251000D01*
X111734619Y-106289095D01*
X111696523Y-106365285D01*
X111658428Y-106517666D01*
X111658428Y-106708142D01*
X111696523Y-106860523D01*
X111734619Y-106936714D01*
X111772714Y-106974809D01*
X111848904Y-107012904D01*
X111925095Y-107012904D01*
X112001285Y-106974809D01*
X112039380Y-106936714D01*
X112077476Y-106860523D01*
X112115571Y-106708142D01*
X112115571Y-106517666D01*
X112077476Y-106365285D01*
X112039380Y-106289095D01*
X112001285Y-106251000D01*
X111925095Y-106212904D01*
X112115571Y-103749095D02*
X112077476Y-103711000D01*
X112001285Y-103672904D01*
X111810809Y-103672904D01*
X111734619Y-103711000D01*
X111696523Y-103749095D01*
X111658428Y-103825285D01*
X111658428Y-103901476D01*
X111696523Y-104015761D01*
X112153666Y-104472904D01*
X111658428Y-104472904D01*
X111734619Y-101399571D02*
X111734619Y-101932904D01*
X111925095Y-101094809D02*
X112115571Y-101666238D01*
X111620333Y-101666238D01*
X111734619Y-98592904D02*
X111887000Y-98592904D01*
X111963190Y-98631000D01*
X112001285Y-98669095D01*
X112077476Y-98783380D01*
X112115571Y-98935761D01*
X112115571Y-99240523D01*
X112077476Y-99316714D01*
X112039380Y-99354809D01*
X111963190Y-99392904D01*
X111810809Y-99392904D01*
X111734619Y-99354809D01*
X111696523Y-99316714D01*
X111658428Y-99240523D01*
X111658428Y-99050047D01*
X111696523Y-98973857D01*
X111734619Y-98935761D01*
X111810809Y-98897666D01*
X111963190Y-98897666D01*
X112039380Y-98935761D01*
X112077476Y-98973857D01*
X112115571Y-99050047D01*
X106819666Y-98592904D02*
X106286333Y-98592904D01*
X106629190Y-99392904D01*
X106362523Y-101132904D02*
X106743476Y-101132904D01*
X106781571Y-101513857D01*
X106743476Y-101475761D01*
X106667285Y-101437666D01*
X106476809Y-101437666D01*
X106400619Y-101475761D01*
X106362523Y-101513857D01*
X106324428Y-101590047D01*
X106324428Y-101780523D01*
X106362523Y-101856714D01*
X106400619Y-101894809D01*
X106476809Y-101932904D01*
X106667285Y-101932904D01*
X106743476Y-101894809D01*
X106781571Y-101856714D01*
X106819666Y-103672904D02*
X106324428Y-103672904D01*
X106591095Y-103977666D01*
X106476809Y-103977666D01*
X106400619Y-104015761D01*
X106362523Y-104053857D01*
X106324428Y-104130047D01*
X106324428Y-104320523D01*
X106362523Y-104396714D01*
X106400619Y-104434809D01*
X106476809Y-104472904D01*
X106705380Y-104472904D01*
X106781571Y-104434809D01*
X106819666Y-104396714D01*
X106324428Y-107012904D02*
X106781571Y-107012904D01*
X106553000Y-107012904D02*
X106553000Y-106212904D01*
X106629190Y-106327190D01*
X106705380Y-106403380D01*
X106781571Y-106441476D01*
D10*
X106045000Y-107950000D02*
X112395000Y-107950000D01*
X112395000Y-97790000D02*
X106045000Y-97790000D01*
D11*
X91179714Y-79648095D02*
X90722571Y-79648095D01*
X90951142Y-79648095D02*
X90951142Y-80448095D01*
X90874952Y-80333809D01*
X90798761Y-80257619D01*
X90722571Y-80219523D01*
X91865428Y-80181428D02*
X91865428Y-79648095D01*
X91674952Y-80486190D02*
X91484476Y-79914761D01*
X91979714Y-79914761D01*
X92284476Y-79648095D02*
X92284476Y-80448095D01*
X92551142Y-79876666D01*
X92817809Y-80448095D01*
X92817809Y-79648095D01*
X101746095Y-81635523D02*
X101746095Y-82092666D01*
X101746095Y-81864095D02*
X102546095Y-81864095D01*
X102431809Y-81940285D01*
X102355619Y-82016476D01*
X102317523Y-82092666D01*
X102279428Y-80949809D02*
X101746095Y-80949809D01*
X102584190Y-81140285D02*
X102012761Y-81330761D01*
X102012761Y-80835523D01*
X101746095Y-80530761D02*
X102546095Y-80530761D01*
X101974666Y-80264095D01*
X102546095Y-79997428D01*
X101746095Y-79997428D01*
X100920476Y-86874333D02*
X100539523Y-86874333D01*
X100996666Y-87102904D02*
X100730000Y-86302904D01*
X100463333Y-87102904D01*
X100196666Y-87102904D02*
X100196666Y-86302904D01*
X100006190Y-86302904D01*
X99891904Y-86341000D01*
X99815714Y-86417190D01*
X99777619Y-86493380D01*
X99739523Y-86645761D01*
X99739523Y-86760047D01*
X99777619Y-86912428D01*
X99815714Y-86988619D01*
X99891904Y-87064809D01*
X100006190Y-87102904D01*
X100196666Y-87102904D01*
X102800095Y-91414619D02*
X102800095Y-91567000D01*
X102762000Y-91643190D01*
X102723904Y-91681285D01*
X102609619Y-91757476D01*
X102457238Y-91795571D01*
X102152476Y-91795571D01*
X102076285Y-91757476D01*
X102038190Y-91719380D01*
X102000095Y-91643190D01*
X102000095Y-91490809D01*
X102038190Y-91414619D01*
X102076285Y-91376523D01*
X102152476Y-91338428D01*
X102342952Y-91338428D01*
X102419142Y-91376523D01*
X102457238Y-91414619D01*
X102495333Y-91490809D01*
X102495333Y-91643190D01*
X102457238Y-91719380D01*
X102419142Y-91757476D01*
X102342952Y-91795571D01*
X102000095Y-103911428D02*
X102000095Y-104368571D01*
X102000095Y-104140000D02*
X102800095Y-104140000D01*
X102685809Y-104216190D01*
X102609619Y-104292380D01*
X102571523Y-104368571D01*
X102800095Y-89293666D02*
X102800095Y-88760333D01*
X102000095Y-89103190D01*
X102800095Y-99326666D02*
X102800095Y-98831428D01*
X102495333Y-99098095D01*
X102495333Y-98983809D01*
X102457238Y-98907619D01*
X102419142Y-98869523D01*
X102342952Y-98831428D01*
X102152476Y-98831428D01*
X102076285Y-98869523D01*
X102038190Y-98907619D01*
X102000095Y-98983809D01*
X102000095Y-99212380D01*
X102038190Y-99288571D01*
X102076285Y-99326666D01*
X102533428Y-96367619D02*
X102000095Y-96367619D01*
X102838190Y-96558095D02*
X102266761Y-96748571D01*
X102266761Y-96253333D01*
X102723904Y-101828571D02*
X102762000Y-101790476D01*
X102800095Y-101714285D01*
X102800095Y-101523809D01*
X102762000Y-101447619D01*
X102723904Y-101409523D01*
X102647714Y-101371428D01*
X102571523Y-101371428D01*
X102457238Y-101409523D01*
X102000095Y-101866666D01*
X102000095Y-101371428D01*
X102800095Y-106718095D02*
X102800095Y-106641904D01*
X102762000Y-106565714D01*
X102723904Y-106527619D01*
X102647714Y-106489523D01*
X102495333Y-106451428D01*
X102304857Y-106451428D01*
X102152476Y-106489523D01*
X102076285Y-106527619D01*
X102038190Y-106565714D01*
X102000095Y-106641904D01*
X102000095Y-106718095D01*
X102038190Y-106794285D01*
X102076285Y-106832380D01*
X102152476Y-106870476D01*
X102304857Y-106908571D01*
X102495333Y-106908571D01*
X102647714Y-106870476D01*
X102723904Y-106832380D01*
X102762000Y-106794285D01*
X102800095Y-106718095D01*
X102800095Y-93789523D02*
X102800095Y-94170476D01*
X102419142Y-94208571D01*
X102457238Y-94170476D01*
X102495333Y-94094285D01*
X102495333Y-93903809D01*
X102457238Y-93827619D01*
X102419142Y-93789523D01*
X102342952Y-93751428D01*
X102152476Y-93751428D01*
X102076285Y-93789523D01*
X102038190Y-93827619D01*
X102000095Y-93903809D01*
X102000095Y-94094285D01*
X102038190Y-94170476D01*
X102076285Y-94208571D01*
X96551761Y-130194095D02*
X96285095Y-130575047D01*
X96094619Y-130194095D02*
X96094619Y-130994095D01*
X96399380Y-130994095D01*
X96475571Y-130956000D01*
X96513666Y-130917904D01*
X96551761Y-130841714D01*
X96551761Y-130727428D01*
X96513666Y-130651238D01*
X96475571Y-130613142D01*
X96399380Y-130575047D01*
X96094619Y-130575047D01*
X96856523Y-130422666D02*
X97237476Y-130422666D01*
X96780333Y-130194095D02*
X97047000Y-130994095D01*
X97313666Y-130194095D01*
X99790333Y-130067095D02*
X99790333Y-130867095D01*
X100057000Y-130295666D01*
X100323666Y-130867095D01*
X100323666Y-130067095D01*
X100704619Y-130067095D02*
X100704619Y-130867095D01*
X100895095Y-130867095D01*
X101009380Y-130829000D01*
X101085571Y-130752809D01*
X101123666Y-130676619D01*
X101161761Y-130524238D01*
X101161761Y-130409952D01*
X101123666Y-130257571D01*
X101085571Y-130181380D01*
X101009380Y-130105190D01*
X100895095Y-130067095D01*
X100704619Y-130067095D01*
X102177904Y-125882380D02*
X102177904Y-125730000D01*
X102216000Y-125653809D01*
X102254095Y-125615714D01*
X102368380Y-125539523D01*
X102520761Y-125501428D01*
X102825523Y-125501428D01*
X102901714Y-125539523D01*
X102939809Y-125577619D01*
X102977904Y-125653809D01*
X102977904Y-125806190D01*
X102939809Y-125882380D01*
X102901714Y-125920476D01*
X102825523Y-125958571D01*
X102635047Y-125958571D01*
X102558857Y-125920476D01*
X102520761Y-125882380D01*
X102482666Y-125806190D01*
X102482666Y-125653809D01*
X102520761Y-125577619D01*
X102558857Y-125539523D01*
X102635047Y-125501428D01*
X102977904Y-113385571D02*
X102977904Y-112928428D01*
X102977904Y-113157000D02*
X102177904Y-113157000D01*
X102292190Y-113080809D01*
X102368380Y-113004619D01*
X102406476Y-112928428D01*
X102177904Y-128003333D02*
X102177904Y-128536666D01*
X102977904Y-128193809D01*
X102177904Y-117970333D02*
X102177904Y-118465571D01*
X102482666Y-118198904D01*
X102482666Y-118313190D01*
X102520761Y-118389380D01*
X102558857Y-118427476D01*
X102635047Y-118465571D01*
X102825523Y-118465571D01*
X102901714Y-118427476D01*
X102939809Y-118389380D01*
X102977904Y-118313190D01*
X102977904Y-118084619D01*
X102939809Y-118008428D01*
X102901714Y-117970333D01*
X102444571Y-120929380D02*
X102977904Y-120929380D01*
X102139809Y-120738904D02*
X102711238Y-120548428D01*
X102711238Y-121043666D01*
X102254095Y-115468428D02*
X102216000Y-115506523D01*
X102177904Y-115582714D01*
X102177904Y-115773190D01*
X102216000Y-115849380D01*
X102254095Y-115887476D01*
X102330285Y-115925571D01*
X102406476Y-115925571D01*
X102520761Y-115887476D01*
X102977904Y-115430333D01*
X102977904Y-115925571D01*
X102177904Y-110578904D02*
X102177904Y-110655095D01*
X102216000Y-110731285D01*
X102254095Y-110769380D01*
X102330285Y-110807476D01*
X102482666Y-110845571D01*
X102673142Y-110845571D01*
X102825523Y-110807476D01*
X102901714Y-110769380D01*
X102939809Y-110731285D01*
X102977904Y-110655095D01*
X102977904Y-110578904D01*
X102939809Y-110502714D01*
X102901714Y-110464619D01*
X102825523Y-110426523D01*
X102673142Y-110388428D01*
X102482666Y-110388428D01*
X102330285Y-110426523D01*
X102254095Y-110464619D01*
X102216000Y-110502714D01*
X102177904Y-110578904D01*
X102177904Y-123507476D02*
X102177904Y-123126523D01*
X102558857Y-123088428D01*
X102520761Y-123126523D01*
X102482666Y-123202714D01*
X102482666Y-123393190D01*
X102520761Y-123469380D01*
X102558857Y-123507476D01*
X102635047Y-123545571D01*
X102825523Y-123545571D01*
X102901714Y-123507476D01*
X102939809Y-123469380D01*
X102977904Y-123393190D01*
X102977904Y-123202714D01*
X102939809Y-123126523D01*
X102901714Y-123088428D01*
X94049904Y-128003333D02*
X94049904Y-128536666D01*
X94849904Y-128193809D01*
X94849904Y-94316666D02*
X94468952Y-94050000D01*
X94849904Y-93859523D02*
X94049904Y-93859523D01*
X94049904Y-94164285D01*
X94088000Y-94240476D01*
X94126095Y-94278571D01*
X94202285Y-94316666D01*
X94316571Y-94316666D01*
X94392761Y-94278571D01*
X94430857Y-94240476D01*
X94468952Y-94164285D01*
X94468952Y-93859523D01*
X94088000Y-95078571D02*
X94049904Y-95002380D01*
X94049904Y-94888095D01*
X94088000Y-94773809D01*
X94164190Y-94697619D01*
X94240380Y-94659523D01*
X94392761Y-94621428D01*
X94507047Y-94621428D01*
X94659428Y-94659523D01*
X94735619Y-94697619D01*
X94811809Y-94773809D01*
X94849904Y-94888095D01*
X94849904Y-94964285D01*
X94811809Y-95078571D01*
X94773714Y-95116666D01*
X94507047Y-95116666D01*
X94507047Y-94964285D01*
X94430857Y-95726190D02*
X94468952Y-95840476D01*
X94507047Y-95878571D01*
X94583238Y-95916666D01*
X94697523Y-95916666D01*
X94773714Y-95878571D01*
X94811809Y-95840476D01*
X94849904Y-95764285D01*
X94849904Y-95459523D01*
X94049904Y-95459523D01*
X94049904Y-95726190D01*
X94088000Y-95802380D01*
X94126095Y-95840476D01*
X94202285Y-95878571D01*
X94278476Y-95878571D01*
X94354666Y-95840476D01*
X94392761Y-95802380D01*
X94430857Y-95726190D01*
X94430857Y-95459523D01*
X94392761Y-96373809D02*
X94354666Y-96297619D01*
X94316571Y-96259523D01*
X94240380Y-96221428D01*
X94202285Y-96221428D01*
X94126095Y-96259523D01*
X94088000Y-96297619D01*
X94049904Y-96373809D01*
X94049904Y-96526190D01*
X94088000Y-96602380D01*
X94126095Y-96640476D01*
X94202285Y-96678571D01*
X94240380Y-96678571D01*
X94316571Y-96640476D01*
X94354666Y-96602380D01*
X94392761Y-96526190D01*
X94392761Y-96373809D01*
X94430857Y-96297619D01*
X94468952Y-96259523D01*
X94545142Y-96221428D01*
X94697523Y-96221428D01*
X94773714Y-96259523D01*
X94811809Y-96297619D01*
X94849904Y-96373809D01*
X94849904Y-96526190D01*
X94811809Y-96602380D01*
X94773714Y-96640476D01*
X94697523Y-96678571D01*
X94545142Y-96678571D01*
X94468952Y-96640476D01*
X94430857Y-96602380D01*
X94392761Y-96526190D01*
X94849904Y-99396666D02*
X94468952Y-99130000D01*
X94849904Y-98939523D02*
X94049904Y-98939523D01*
X94049904Y-99244285D01*
X94088000Y-99320476D01*
X94126095Y-99358571D01*
X94202285Y-99396666D01*
X94316571Y-99396666D01*
X94392761Y-99358571D01*
X94430857Y-99320476D01*
X94468952Y-99244285D01*
X94468952Y-98939523D01*
X94088000Y-100158571D02*
X94049904Y-100082380D01*
X94049904Y-99968095D01*
X94088000Y-99853809D01*
X94164190Y-99777619D01*
X94240380Y-99739523D01*
X94392761Y-99701428D01*
X94507047Y-99701428D01*
X94659428Y-99739523D01*
X94735619Y-99777619D01*
X94811809Y-99853809D01*
X94849904Y-99968095D01*
X94849904Y-100044285D01*
X94811809Y-100158571D01*
X94773714Y-100196666D01*
X94507047Y-100196666D01*
X94507047Y-100044285D01*
X94430857Y-100806190D02*
X94468952Y-100920476D01*
X94507047Y-100958571D01*
X94583238Y-100996666D01*
X94697523Y-100996666D01*
X94773714Y-100958571D01*
X94811809Y-100920476D01*
X94849904Y-100844285D01*
X94849904Y-100539523D01*
X94049904Y-100539523D01*
X94049904Y-100806190D01*
X94088000Y-100882380D01*
X94126095Y-100920476D01*
X94202285Y-100958571D01*
X94278476Y-100958571D01*
X94354666Y-100920476D01*
X94392761Y-100882380D01*
X94430857Y-100806190D01*
X94430857Y-100539523D01*
X94849904Y-101758571D02*
X94849904Y-101301428D01*
X94849904Y-101530000D02*
X94049904Y-101530000D01*
X94164190Y-101453809D01*
X94240380Y-101377619D01*
X94278476Y-101301428D01*
X94849904Y-89236666D02*
X94468952Y-88970000D01*
X94849904Y-88779523D02*
X94049904Y-88779523D01*
X94049904Y-89084285D01*
X94088000Y-89160476D01*
X94126095Y-89198571D01*
X94202285Y-89236666D01*
X94316571Y-89236666D01*
X94392761Y-89198571D01*
X94430857Y-89160476D01*
X94468952Y-89084285D01*
X94468952Y-88779523D01*
X94088000Y-89998571D02*
X94049904Y-89922380D01*
X94049904Y-89808095D01*
X94088000Y-89693809D01*
X94164190Y-89617619D01*
X94240380Y-89579523D01*
X94392761Y-89541428D01*
X94507047Y-89541428D01*
X94659428Y-89579523D01*
X94735619Y-89617619D01*
X94811809Y-89693809D01*
X94849904Y-89808095D01*
X94849904Y-89884285D01*
X94811809Y-89998571D01*
X94773714Y-90036666D01*
X94507047Y-90036666D01*
X94507047Y-89884285D01*
X94430857Y-90646190D02*
X94468952Y-90760476D01*
X94507047Y-90798571D01*
X94583238Y-90836666D01*
X94697523Y-90836666D01*
X94773714Y-90798571D01*
X94811809Y-90760476D01*
X94849904Y-90684285D01*
X94849904Y-90379523D01*
X94049904Y-90379523D01*
X94049904Y-90646190D01*
X94088000Y-90722380D01*
X94126095Y-90760476D01*
X94202285Y-90798571D01*
X94278476Y-90798571D01*
X94354666Y-90760476D01*
X94392761Y-90722380D01*
X94430857Y-90646190D01*
X94430857Y-90379523D01*
X94316571Y-91522380D02*
X94849904Y-91522380D01*
X94011809Y-91331904D02*
X94583238Y-91141428D01*
X94583238Y-91636666D01*
X94849904Y-104476666D02*
X94468952Y-104210000D01*
X94849904Y-104019523D02*
X94049904Y-104019523D01*
X94049904Y-104324285D01*
X94088000Y-104400476D01*
X94126095Y-104438571D01*
X94202285Y-104476666D01*
X94316571Y-104476666D01*
X94392761Y-104438571D01*
X94430857Y-104400476D01*
X94468952Y-104324285D01*
X94468952Y-104019523D01*
X94088000Y-105238571D02*
X94049904Y-105162380D01*
X94049904Y-105048095D01*
X94088000Y-104933809D01*
X94164190Y-104857619D01*
X94240380Y-104819523D01*
X94392761Y-104781428D01*
X94507047Y-104781428D01*
X94659428Y-104819523D01*
X94735619Y-104857619D01*
X94811809Y-104933809D01*
X94849904Y-105048095D01*
X94849904Y-105124285D01*
X94811809Y-105238571D01*
X94773714Y-105276666D01*
X94507047Y-105276666D01*
X94507047Y-105124285D01*
X94430857Y-105886190D02*
X94468952Y-106000476D01*
X94507047Y-106038571D01*
X94583238Y-106076666D01*
X94697523Y-106076666D01*
X94773714Y-106038571D01*
X94811809Y-106000476D01*
X94849904Y-105924285D01*
X94849904Y-105619523D01*
X94049904Y-105619523D01*
X94049904Y-105886190D01*
X94088000Y-105962380D01*
X94126095Y-106000476D01*
X94202285Y-106038571D01*
X94278476Y-106038571D01*
X94354666Y-106000476D01*
X94392761Y-105962380D01*
X94430857Y-105886190D01*
X94430857Y-105619523D01*
X94126095Y-106381428D02*
X94088000Y-106419523D01*
X94049904Y-106495714D01*
X94049904Y-106686190D01*
X94088000Y-106762380D01*
X94126095Y-106800476D01*
X94202285Y-106838571D01*
X94278476Y-106838571D01*
X94392761Y-106800476D01*
X94849904Y-106343333D01*
X94849904Y-106838571D01*
X94849904Y-113385571D02*
X94849904Y-112928428D01*
X94849904Y-113157000D02*
X94049904Y-113157000D01*
X94164190Y-113080809D01*
X94240380Y-113004619D01*
X94278476Y-112928428D01*
X94316571Y-120929380D02*
X94849904Y-120929380D01*
X94011809Y-120738904D02*
X94583238Y-120548428D01*
X94583238Y-121043666D01*
X93922904Y-110578904D02*
X93922904Y-110655095D01*
X93961000Y-110731285D01*
X93999095Y-110769380D01*
X94075285Y-110807476D01*
X94227666Y-110845571D01*
X94418142Y-110845571D01*
X94570523Y-110807476D01*
X94646714Y-110769380D01*
X94684809Y-110731285D01*
X94722904Y-110655095D01*
X94722904Y-110578904D01*
X94684809Y-110502714D01*
X94646714Y-110464619D01*
X94570523Y-110426523D01*
X94418142Y-110388428D01*
X94227666Y-110388428D01*
X94075285Y-110426523D01*
X93999095Y-110464619D01*
X93961000Y-110502714D01*
X93922904Y-110578904D01*
X94126095Y-115468428D02*
X94088000Y-115506523D01*
X94049904Y-115582714D01*
X94049904Y-115773190D01*
X94088000Y-115849380D01*
X94126095Y-115887476D01*
X94202285Y-115925571D01*
X94278476Y-115925571D01*
X94392761Y-115887476D01*
X94849904Y-115430333D01*
X94849904Y-115925571D01*
X94049904Y-123507476D02*
X94049904Y-123126523D01*
X94430857Y-123088428D01*
X94392761Y-123126523D01*
X94354666Y-123202714D01*
X94354666Y-123393190D01*
X94392761Y-123469380D01*
X94430857Y-123507476D01*
X94507047Y-123545571D01*
X94697523Y-123545571D01*
X94773714Y-123507476D01*
X94811809Y-123469380D01*
X94849904Y-123393190D01*
X94849904Y-123202714D01*
X94811809Y-123126523D01*
X94773714Y-123088428D01*
X94049904Y-117970333D02*
X94049904Y-118465571D01*
X94354666Y-118198904D01*
X94354666Y-118313190D01*
X94392761Y-118389380D01*
X94430857Y-118427476D01*
X94507047Y-118465571D01*
X94697523Y-118465571D01*
X94773714Y-118427476D01*
X94811809Y-118389380D01*
X94849904Y-118313190D01*
X94849904Y-118084619D01*
X94811809Y-118008428D01*
X94773714Y-117970333D01*
X94049904Y-125882380D02*
X94049904Y-125730000D01*
X94088000Y-125653809D01*
X94126095Y-125615714D01*
X94240380Y-125539523D01*
X94392761Y-125501428D01*
X94697523Y-125501428D01*
X94773714Y-125539523D01*
X94811809Y-125577619D01*
X94849904Y-125653809D01*
X94849904Y-125806190D01*
X94811809Y-125882380D01*
X94773714Y-125920476D01*
X94697523Y-125958571D01*
X94507047Y-125958571D01*
X94430857Y-125920476D01*
X94392761Y-125882380D01*
X94354666Y-125806190D01*
X94354666Y-125653809D01*
X94392761Y-125577619D01*
X94430857Y-125539523D01*
X94507047Y-125501428D01*
X92741619Y-110978904D02*
X92741619Y-110178904D01*
X92474952Y-110750333D01*
X92208285Y-110178904D01*
X92208285Y-110978904D01*
X91827333Y-110978904D02*
X91827333Y-110178904D01*
X91636857Y-110178904D01*
X91522571Y-110217000D01*
X91446380Y-110293190D01*
X91408285Y-110369380D01*
X91370190Y-110521761D01*
X91370190Y-110636047D01*
X91408285Y-110788428D01*
X91446380Y-110864619D01*
X91522571Y-110940809D01*
X91636857Y-110978904D01*
X91827333Y-110978904D01*
X91103523Y-110178904D02*
X90608285Y-110178904D01*
X90874952Y-110483666D01*
X90760666Y-110483666D01*
X90684476Y-110521761D01*
X90646380Y-110559857D01*
X90608285Y-110636047D01*
X90608285Y-110826523D01*
X90646380Y-110902714D01*
X90684476Y-110940809D01*
X90760666Y-110978904D01*
X90989238Y-110978904D01*
X91065428Y-110940809D01*
X91103523Y-110902714D01*
X92741619Y-113518904D02*
X92741619Y-112718904D01*
X92474952Y-113290333D01*
X92208285Y-112718904D01*
X92208285Y-113518904D01*
X91827333Y-113518904D02*
X91827333Y-112718904D01*
X91636857Y-112718904D01*
X91522571Y-112757000D01*
X91446380Y-112833190D01*
X91408285Y-112909380D01*
X91370190Y-113061761D01*
X91370190Y-113176047D01*
X91408285Y-113328428D01*
X91446380Y-113404619D01*
X91522571Y-113480809D01*
X91636857Y-113518904D01*
X91827333Y-113518904D01*
X90684476Y-112985571D02*
X90684476Y-113518904D01*
X90874952Y-112680809D02*
X91065428Y-113252238D01*
X90570190Y-113252238D01*
X92665428Y-90303333D02*
X92284476Y-90303333D01*
X92741619Y-90531904D02*
X92474952Y-89731904D01*
X92208285Y-90531904D01*
X91941619Y-90531904D02*
X91941619Y-89731904D01*
X91751142Y-89731904D01*
X91636857Y-89770000D01*
X91560666Y-89846190D01*
X91522571Y-89922380D01*
X91484476Y-90074761D01*
X91484476Y-90189047D01*
X91522571Y-90341428D01*
X91560666Y-90417619D01*
X91636857Y-90493809D01*
X91751142Y-90531904D01*
X91941619Y-90531904D01*
X90798761Y-89998571D02*
X90798761Y-90531904D01*
X90989238Y-89693809D02*
X91179714Y-90265238D01*
X90684476Y-90265238D01*
X92741619Y-98278904D02*
X92741619Y-97478904D01*
X92474952Y-98050333D01*
X92208285Y-97478904D01*
X92208285Y-98278904D01*
X91827333Y-98278904D02*
X91827333Y-97478904D01*
X91636857Y-97478904D01*
X91522571Y-97517000D01*
X91446380Y-97593190D01*
X91408285Y-97669380D01*
X91370190Y-97821761D01*
X91370190Y-97936047D01*
X91408285Y-98088428D01*
X91446380Y-98164619D01*
X91522571Y-98240809D01*
X91636857Y-98278904D01*
X91827333Y-98278904D01*
X90874952Y-97478904D02*
X90798761Y-97478904D01*
X90722571Y-97517000D01*
X90684476Y-97555095D01*
X90646380Y-97631285D01*
X90608285Y-97783666D01*
X90608285Y-97974142D01*
X90646380Y-98126523D01*
X90684476Y-98202714D01*
X90722571Y-98240809D01*
X90798761Y-98278904D01*
X90874952Y-98278904D01*
X90951142Y-98240809D01*
X90989238Y-98202714D01*
X91027333Y-98126523D01*
X91065428Y-97974142D01*
X91065428Y-97783666D01*
X91027333Y-97631285D01*
X90989238Y-97555095D01*
X90951142Y-97517000D01*
X90874952Y-97478904D01*
X92741619Y-100818904D02*
X92741619Y-100018904D01*
X92474952Y-100590333D01*
X92208285Y-100018904D01*
X92208285Y-100818904D01*
X91827333Y-100818904D02*
X91827333Y-100018904D01*
X91636857Y-100018904D01*
X91522571Y-100057000D01*
X91446380Y-100133190D01*
X91408285Y-100209380D01*
X91370190Y-100361761D01*
X91370190Y-100476047D01*
X91408285Y-100628428D01*
X91446380Y-100704619D01*
X91522571Y-100780809D01*
X91636857Y-100818904D01*
X91827333Y-100818904D01*
X90608285Y-100818904D02*
X91065428Y-100818904D01*
X90836857Y-100818904D02*
X90836857Y-100018904D01*
X90913047Y-100133190D01*
X90989238Y-100209380D01*
X91065428Y-100247476D01*
X92741619Y-118598904D02*
X92741619Y-117798904D01*
X92474952Y-118370333D01*
X92208285Y-117798904D01*
X92208285Y-118598904D01*
X91827333Y-118598904D02*
X91827333Y-117798904D01*
X91636857Y-117798904D01*
X91522571Y-117837000D01*
X91446380Y-117913190D01*
X91408285Y-117989380D01*
X91370190Y-118141761D01*
X91370190Y-118256047D01*
X91408285Y-118408428D01*
X91446380Y-118484619D01*
X91522571Y-118560809D01*
X91636857Y-118598904D01*
X91827333Y-118598904D01*
X90646380Y-117798904D02*
X91027333Y-117798904D01*
X91065428Y-118179857D01*
X91027333Y-118141761D01*
X90951142Y-118103666D01*
X90760666Y-118103666D01*
X90684476Y-118141761D01*
X90646380Y-118179857D01*
X90608285Y-118256047D01*
X90608285Y-118446523D01*
X90646380Y-118522714D01*
X90684476Y-118560809D01*
X90760666Y-118598904D01*
X90951142Y-118598904D01*
X91027333Y-118560809D01*
X91065428Y-118522714D01*
X92741619Y-108438904D02*
X92741619Y-107638904D01*
X92474952Y-108210333D01*
X92208285Y-107638904D01*
X92208285Y-108438904D01*
X91827333Y-108438904D02*
X91827333Y-107638904D01*
X91636857Y-107638904D01*
X91522571Y-107677000D01*
X91446380Y-107753190D01*
X91408285Y-107829380D01*
X91370190Y-107981761D01*
X91370190Y-108096047D01*
X91408285Y-108248428D01*
X91446380Y-108324619D01*
X91522571Y-108400809D01*
X91636857Y-108438904D01*
X91827333Y-108438904D01*
X91065428Y-107715095D02*
X91027333Y-107677000D01*
X90951142Y-107638904D01*
X90760666Y-107638904D01*
X90684476Y-107677000D01*
X90646380Y-107715095D01*
X90608285Y-107791285D01*
X90608285Y-107867476D01*
X90646380Y-107981761D01*
X91103523Y-108438904D01*
X90608285Y-108438904D01*
D12*
X92606714Y-103268428D02*
X92606714Y-102668428D01*
X92263857Y-103268428D01*
X92263857Y-102668428D01*
X91549571Y-102639857D02*
X92063857Y-103411285D01*
X91006714Y-103211285D02*
X91035285Y-103239857D01*
X91121000Y-103268428D01*
X91178142Y-103268428D01*
X91263857Y-103239857D01*
X91321000Y-103182714D01*
X91349571Y-103125571D01*
X91378142Y-103011285D01*
X91378142Y-102925571D01*
X91349571Y-102811285D01*
X91321000Y-102754142D01*
X91263857Y-102697000D01*
X91178142Y-102668428D01*
X91121000Y-102668428D01*
X91035285Y-102697000D01*
X91006714Y-102725571D01*
D11*
X92665428Y-87763333D02*
X92284476Y-87763333D01*
X92741619Y-87991904D02*
X92474952Y-87191904D01*
X92208285Y-87991904D01*
X91941619Y-87991904D02*
X91941619Y-87191904D01*
X91751142Y-87191904D01*
X91636857Y-87230000D01*
X91560666Y-87306190D01*
X91522571Y-87382380D01*
X91484476Y-87534761D01*
X91484476Y-87649047D01*
X91522571Y-87801428D01*
X91560666Y-87877619D01*
X91636857Y-87953809D01*
X91751142Y-87991904D01*
X91941619Y-87991904D01*
X90798761Y-87191904D02*
X90951142Y-87191904D01*
X91027333Y-87230000D01*
X91065428Y-87268095D01*
X91141619Y-87382380D01*
X91179714Y-87534761D01*
X91179714Y-87839523D01*
X91141619Y-87915714D01*
X91103523Y-87953809D01*
X91027333Y-87991904D01*
X90874952Y-87991904D01*
X90798761Y-87953809D01*
X90760666Y-87915714D01*
X90722571Y-87839523D01*
X90722571Y-87649047D01*
X90760666Y-87572857D01*
X90798761Y-87534761D01*
X90874952Y-87496666D01*
X91027333Y-87496666D01*
X91103523Y-87534761D01*
X91141619Y-87572857D01*
X91179714Y-87649047D01*
X92665428Y-92843333D02*
X92284476Y-92843333D01*
X92741619Y-93071904D02*
X92474952Y-92271904D01*
X92208285Y-93071904D01*
X91941619Y-93071904D02*
X91941619Y-92271904D01*
X91751142Y-92271904D01*
X91636857Y-92310000D01*
X91560666Y-92386190D01*
X91522571Y-92462380D01*
X91484476Y-92614761D01*
X91484476Y-92729047D01*
X91522571Y-92881428D01*
X91560666Y-92957619D01*
X91636857Y-93033809D01*
X91751142Y-93071904D01*
X91941619Y-93071904D01*
X91179714Y-92348095D02*
X91141619Y-92310000D01*
X91065428Y-92271904D01*
X90874952Y-92271904D01*
X90798761Y-92310000D01*
X90760666Y-92348095D01*
X90722571Y-92424285D01*
X90722571Y-92500476D01*
X90760666Y-92614761D01*
X91217809Y-93071904D01*
X90722571Y-93071904D01*
X92741619Y-123678904D02*
X92741619Y-122878904D01*
X92474952Y-123450333D01*
X92208285Y-122878904D01*
X92208285Y-123678904D01*
X91827333Y-123678904D02*
X91827333Y-122878904D01*
X91636857Y-122878904D01*
X91522571Y-122917000D01*
X91446380Y-122993190D01*
X91408285Y-123069380D01*
X91370190Y-123221761D01*
X91370190Y-123336047D01*
X91408285Y-123488428D01*
X91446380Y-123564619D01*
X91522571Y-123640809D01*
X91636857Y-123678904D01*
X91827333Y-123678904D01*
X91103523Y-122878904D02*
X90570190Y-122878904D01*
X90913047Y-123678904D01*
X92741619Y-121138904D02*
X92741619Y-120338904D01*
X92474952Y-120910333D01*
X92208285Y-120338904D01*
X92208285Y-121138904D01*
X91827333Y-121138904D02*
X91827333Y-120338904D01*
X91636857Y-120338904D01*
X91522571Y-120377000D01*
X91446380Y-120453190D01*
X91408285Y-120529380D01*
X91370190Y-120681761D01*
X91370190Y-120796047D01*
X91408285Y-120948428D01*
X91446380Y-121024619D01*
X91522571Y-121100809D01*
X91636857Y-121138904D01*
X91827333Y-121138904D01*
X90684476Y-120338904D02*
X90836857Y-120338904D01*
X90913047Y-120377000D01*
X90951142Y-120415095D01*
X91027333Y-120529380D01*
X91065428Y-120681761D01*
X91065428Y-120986523D01*
X91027333Y-121062714D01*
X90989238Y-121100809D01*
X90913047Y-121138904D01*
X90760666Y-121138904D01*
X90684476Y-121100809D01*
X90646380Y-121062714D01*
X90608285Y-120986523D01*
X90608285Y-120796047D01*
X90646380Y-120719857D01*
X90684476Y-120681761D01*
X90760666Y-120643666D01*
X90913047Y-120643666D01*
X90989238Y-120681761D01*
X91027333Y-120719857D01*
X91065428Y-120796047D01*
X82721571Y-84956666D02*
X83102523Y-84956666D01*
X82645380Y-84728095D02*
X82912047Y-85528095D01*
X83178714Y-84728095D01*
X83445380Y-84728095D02*
X83445380Y-85528095D01*
X83635857Y-85528095D01*
X83750142Y-85490000D01*
X83826333Y-85413809D01*
X83864428Y-85337619D01*
X83902523Y-85185238D01*
X83902523Y-85070952D01*
X83864428Y-84918571D01*
X83826333Y-84842380D01*
X83750142Y-84766190D01*
X83635857Y-84728095D01*
X83445380Y-84728095D01*
X84169190Y-85528095D02*
X84702523Y-85528095D01*
X84359666Y-84728095D01*
X82721571Y-87496666D02*
X83102523Y-87496666D01*
X82645380Y-87268095D02*
X82912047Y-88068095D01*
X83178714Y-87268095D01*
X83445380Y-87268095D02*
X83445380Y-88068095D01*
X83635857Y-88068095D01*
X83750142Y-88030000D01*
X83826333Y-87953809D01*
X83864428Y-87877619D01*
X83902523Y-87725238D01*
X83902523Y-87610952D01*
X83864428Y-87458571D01*
X83826333Y-87382380D01*
X83750142Y-87306190D01*
X83635857Y-87268095D01*
X83445380Y-87268095D01*
X84626333Y-88068095D02*
X84245380Y-88068095D01*
X84207285Y-87687142D01*
X84245380Y-87725238D01*
X84321571Y-87763333D01*
X84512047Y-87763333D01*
X84588238Y-87725238D01*
X84626333Y-87687142D01*
X84664428Y-87610952D01*
X84664428Y-87420476D01*
X84626333Y-87344285D01*
X84588238Y-87306190D01*
X84512047Y-87268095D01*
X84321571Y-87268095D01*
X84245380Y-87306190D01*
X84207285Y-87344285D01*
X82721571Y-90036666D02*
X83102523Y-90036666D01*
X82645380Y-89808095D02*
X82912047Y-90608095D01*
X83178714Y-89808095D01*
X83445380Y-89808095D02*
X83445380Y-90608095D01*
X83635857Y-90608095D01*
X83750142Y-90570000D01*
X83826333Y-90493809D01*
X83864428Y-90417619D01*
X83902523Y-90265238D01*
X83902523Y-90150952D01*
X83864428Y-89998571D01*
X83826333Y-89922380D01*
X83750142Y-89846190D01*
X83635857Y-89808095D01*
X83445380Y-89808095D01*
X84169190Y-90608095D02*
X84664428Y-90608095D01*
X84397761Y-90303333D01*
X84512047Y-90303333D01*
X84588238Y-90265238D01*
X84626333Y-90227142D01*
X84664428Y-90150952D01*
X84664428Y-89960476D01*
X84626333Y-89884285D01*
X84588238Y-89846190D01*
X84512047Y-89808095D01*
X84283476Y-89808095D01*
X84207285Y-89846190D01*
X84169190Y-89884285D01*
X82721571Y-95116666D02*
X83102523Y-95116666D01*
X82645380Y-94888095D02*
X82912047Y-95688095D01*
X83178714Y-94888095D01*
X83445380Y-94888095D02*
X83445380Y-95688095D01*
X83635857Y-95688095D01*
X83750142Y-95650000D01*
X83826333Y-95573809D01*
X83864428Y-95497619D01*
X83902523Y-95345238D01*
X83902523Y-95230952D01*
X83864428Y-95078571D01*
X83826333Y-95002380D01*
X83750142Y-94926190D01*
X83635857Y-94888095D01*
X83445380Y-94888095D01*
X84664428Y-94888095D02*
X84207285Y-94888095D01*
X84435857Y-94888095D02*
X84435857Y-95688095D01*
X84359666Y-95573809D01*
X84283476Y-95497619D01*
X84207285Y-95459523D01*
X82721571Y-97529666D02*
X83102523Y-97529666D01*
X82645380Y-97301095D02*
X82912047Y-98101095D01*
X83178714Y-97301095D01*
X83445380Y-97301095D02*
X83445380Y-98101095D01*
X83635857Y-98101095D01*
X83750142Y-98063000D01*
X83826333Y-97986809D01*
X83864428Y-97910619D01*
X83902523Y-97758238D01*
X83902523Y-97643952D01*
X83864428Y-97491571D01*
X83826333Y-97415380D01*
X83750142Y-97339190D01*
X83635857Y-97301095D01*
X83445380Y-97301095D01*
X84397761Y-98101095D02*
X84473952Y-98101095D01*
X84550142Y-98063000D01*
X84588238Y-98024904D01*
X84626333Y-97948714D01*
X84664428Y-97796333D01*
X84664428Y-97605857D01*
X84626333Y-97453476D01*
X84588238Y-97377285D01*
X84550142Y-97339190D01*
X84473952Y-97301095D01*
X84397761Y-97301095D01*
X84321571Y-97339190D01*
X84283476Y-97377285D01*
X84245380Y-97453476D01*
X84207285Y-97605857D01*
X84207285Y-97796333D01*
X84245380Y-97948714D01*
X84283476Y-98024904D01*
X84321571Y-98063000D01*
X84397761Y-98101095D01*
X83216809Y-120288095D02*
X82950142Y-120669047D01*
X82759666Y-120288095D02*
X82759666Y-121088095D01*
X83064428Y-121088095D01*
X83140619Y-121050000D01*
X83178714Y-121011904D01*
X83216809Y-120935714D01*
X83216809Y-120821428D01*
X83178714Y-120745238D01*
X83140619Y-120707142D01*
X83064428Y-120669047D01*
X82759666Y-120669047D01*
X83521571Y-120516666D02*
X83902523Y-120516666D01*
X83445380Y-120288095D02*
X83712047Y-121088095D01*
X83978714Y-120288095D01*
X84588238Y-121088095D02*
X84435857Y-121088095D01*
X84359666Y-121050000D01*
X84321571Y-121011904D01*
X84245380Y-120897619D01*
X84207285Y-120745238D01*
X84207285Y-120440476D01*
X84245380Y-120364285D01*
X84283476Y-120326190D01*
X84359666Y-120288095D01*
X84512047Y-120288095D01*
X84588238Y-120326190D01*
X84626333Y-120364285D01*
X84664428Y-120440476D01*
X84664428Y-120630952D01*
X84626333Y-120707142D01*
X84588238Y-120745238D01*
X84512047Y-120783333D01*
X84359666Y-120783333D01*
X84283476Y-120745238D01*
X84245380Y-120707142D01*
X84207285Y-120630952D01*
X83216809Y-115208095D02*
X82950142Y-115589047D01*
X82759666Y-115208095D02*
X82759666Y-116008095D01*
X83064428Y-116008095D01*
X83140619Y-115970000D01*
X83178714Y-115931904D01*
X83216809Y-115855714D01*
X83216809Y-115741428D01*
X83178714Y-115665238D01*
X83140619Y-115627142D01*
X83064428Y-115589047D01*
X82759666Y-115589047D01*
X83521571Y-115436666D02*
X83902523Y-115436666D01*
X83445380Y-115208095D02*
X83712047Y-116008095D01*
X83978714Y-115208095D01*
X84588238Y-115741428D02*
X84588238Y-115208095D01*
X84397761Y-116046190D02*
X84207285Y-115474761D01*
X84702523Y-115474761D01*
X83216809Y-105175095D02*
X82950142Y-105556047D01*
X82759666Y-105175095D02*
X82759666Y-105975095D01*
X83064428Y-105975095D01*
X83140619Y-105937000D01*
X83178714Y-105898904D01*
X83216809Y-105822714D01*
X83216809Y-105708428D01*
X83178714Y-105632238D01*
X83140619Y-105594142D01*
X83064428Y-105556047D01*
X82759666Y-105556047D01*
X83521571Y-105403666D02*
X83902523Y-105403666D01*
X83445380Y-105175095D02*
X83712047Y-105975095D01*
X83978714Y-105175095D01*
X84664428Y-105175095D02*
X84207285Y-105175095D01*
X84435857Y-105175095D02*
X84435857Y-105975095D01*
X84359666Y-105860809D01*
X84283476Y-105784619D01*
X84207285Y-105746523D01*
X83216809Y-100095095D02*
X82950142Y-100476047D01*
X82759666Y-100095095D02*
X82759666Y-100895095D01*
X83064428Y-100895095D01*
X83140619Y-100857000D01*
X83178714Y-100818904D01*
X83216809Y-100742714D01*
X83216809Y-100628428D01*
X83178714Y-100552238D01*
X83140619Y-100514142D01*
X83064428Y-100476047D01*
X82759666Y-100476047D01*
X83521571Y-100323666D02*
X83902523Y-100323666D01*
X83445380Y-100095095D02*
X83712047Y-100895095D01*
X83978714Y-100095095D01*
X84397761Y-100895095D02*
X84473952Y-100895095D01*
X84550142Y-100857000D01*
X84588238Y-100818904D01*
X84626333Y-100742714D01*
X84664428Y-100590333D01*
X84664428Y-100399857D01*
X84626333Y-100247476D01*
X84588238Y-100171285D01*
X84550142Y-100133190D01*
X84473952Y-100095095D01*
X84397761Y-100095095D01*
X84321571Y-100133190D01*
X84283476Y-100171285D01*
X84245380Y-100247476D01*
X84207285Y-100399857D01*
X84207285Y-100590333D01*
X84245380Y-100742714D01*
X84283476Y-100818904D01*
X84321571Y-100857000D01*
X84397761Y-100895095D01*
X83216809Y-117748095D02*
X82950142Y-118129047D01*
X82759666Y-117748095D02*
X82759666Y-118548095D01*
X83064428Y-118548095D01*
X83140619Y-118510000D01*
X83178714Y-118471904D01*
X83216809Y-118395714D01*
X83216809Y-118281428D01*
X83178714Y-118205238D01*
X83140619Y-118167142D01*
X83064428Y-118129047D01*
X82759666Y-118129047D01*
X83521571Y-117976666D02*
X83902523Y-117976666D01*
X83445380Y-117748095D02*
X83712047Y-118548095D01*
X83978714Y-117748095D01*
X84626333Y-118548095D02*
X84245380Y-118548095D01*
X84207285Y-118167142D01*
X84245380Y-118205238D01*
X84321571Y-118243333D01*
X84512047Y-118243333D01*
X84588238Y-118205238D01*
X84626333Y-118167142D01*
X84664428Y-118090952D01*
X84664428Y-117900476D01*
X84626333Y-117824285D01*
X84588238Y-117786190D01*
X84512047Y-117748095D01*
X84321571Y-117748095D01*
X84245380Y-117786190D01*
X84207285Y-117824285D01*
X83216809Y-122828095D02*
X82950142Y-123209047D01*
X82759666Y-122828095D02*
X82759666Y-123628095D01*
X83064428Y-123628095D01*
X83140619Y-123590000D01*
X83178714Y-123551904D01*
X83216809Y-123475714D01*
X83216809Y-123361428D01*
X83178714Y-123285238D01*
X83140619Y-123247142D01*
X83064428Y-123209047D01*
X82759666Y-123209047D01*
X83521571Y-123056666D02*
X83902523Y-123056666D01*
X83445380Y-122828095D02*
X83712047Y-123628095D01*
X83978714Y-122828095D01*
X84169190Y-123628095D02*
X84702523Y-123628095D01*
X84359666Y-122828095D01*
X83216809Y-110255095D02*
X82950142Y-110636047D01*
X82759666Y-110255095D02*
X82759666Y-111055095D01*
X83064428Y-111055095D01*
X83140619Y-111017000D01*
X83178714Y-110978904D01*
X83216809Y-110902714D01*
X83216809Y-110788428D01*
X83178714Y-110712238D01*
X83140619Y-110674142D01*
X83064428Y-110636047D01*
X82759666Y-110636047D01*
X83521571Y-110483666D02*
X83902523Y-110483666D01*
X83445380Y-110255095D02*
X83712047Y-111055095D01*
X83978714Y-110255095D01*
X84169190Y-111055095D02*
X84664428Y-111055095D01*
X84397761Y-110750333D01*
X84512047Y-110750333D01*
X84588238Y-110712238D01*
X84626333Y-110674142D01*
X84664428Y-110597952D01*
X84664428Y-110407476D01*
X84626333Y-110331285D01*
X84588238Y-110293190D01*
X84512047Y-110255095D01*
X84283476Y-110255095D01*
X84207285Y-110293190D01*
X84169190Y-110331285D01*
X83216809Y-107715095D02*
X82950142Y-108096047D01*
X82759666Y-107715095D02*
X82759666Y-108515095D01*
X83064428Y-108515095D01*
X83140619Y-108477000D01*
X83178714Y-108438904D01*
X83216809Y-108362714D01*
X83216809Y-108248428D01*
X83178714Y-108172238D01*
X83140619Y-108134142D01*
X83064428Y-108096047D01*
X82759666Y-108096047D01*
X83521571Y-107943666D02*
X83902523Y-107943666D01*
X83445380Y-107715095D02*
X83712047Y-108515095D01*
X83978714Y-107715095D01*
X84207285Y-108438904D02*
X84245380Y-108477000D01*
X84321571Y-108515095D01*
X84512047Y-108515095D01*
X84588238Y-108477000D01*
X84626333Y-108438904D01*
X84664428Y-108362714D01*
X84664428Y-108286523D01*
X84626333Y-108172238D01*
X84169190Y-107715095D01*
X84664428Y-107715095D01*
X82683476Y-127908095D02*
X82683476Y-128708095D01*
X82988238Y-128708095D01*
X83064428Y-128670000D01*
X83102523Y-128631904D01*
X83140619Y-128555714D01*
X83140619Y-128441428D01*
X83102523Y-128365238D01*
X83064428Y-128327142D01*
X82988238Y-128289047D01*
X82683476Y-128289047D01*
X83483476Y-127908095D02*
X83483476Y-128708095D01*
X83483476Y-128327142D02*
X83940619Y-128327142D01*
X83940619Y-127908095D02*
X83940619Y-128708095D01*
X84473952Y-128708095D02*
X84550142Y-128708095D01*
X84626333Y-128670000D01*
X84664428Y-128631904D01*
X84702523Y-128555714D01*
X84740619Y-128403333D01*
X84740619Y-128212857D01*
X84702523Y-128060476D01*
X84664428Y-127984285D01*
X84626333Y-127946190D01*
X84550142Y-127908095D01*
X84473952Y-127908095D01*
X84397761Y-127946190D01*
X84359666Y-127984285D01*
X84321571Y-128060476D01*
X84283476Y-128212857D01*
X84283476Y-128403333D01*
X84321571Y-128555714D01*
X84359666Y-128631904D01*
X84397761Y-128670000D01*
X84473952Y-128708095D01*
D10*
%TO.C,R11*%
X131799000Y-125756936D02*
X131799000Y-126211064D01*
X130329000Y-125756936D02*
X130329000Y-126211064D01*
%TO.C,R196*%
X124433000Y-125756936D02*
X124433000Y-126211064D01*
X122963000Y-125756936D02*
X122963000Y-126211064D01*
%TO.C,R9*%
X165437136Y-102262000D02*
X165891264Y-102262000D01*
X165437136Y-103732000D02*
X165891264Y-103732000D01*
%TO.C,C59*%
X136425000Y-110497252D02*
X136425000Y-109974748D01*
X137895000Y-110497252D02*
X137895000Y-109974748D01*
%TO.C,R11*%
D11*
X129775904Y-125469714D02*
X129394952Y-125203047D01*
X129775904Y-125012571D02*
X128975904Y-125012571D01*
X128975904Y-125317333D01*
X129014000Y-125393523D01*
X129052095Y-125431619D01*
X129128285Y-125469714D01*
X129242571Y-125469714D01*
X129318761Y-125431619D01*
X129356857Y-125393523D01*
X129394952Y-125317333D01*
X129394952Y-125012571D01*
X129775904Y-126231619D02*
X129775904Y-125774476D01*
X129775904Y-126003047D02*
X128975904Y-126003047D01*
X129090190Y-125926857D01*
X129166380Y-125850666D01*
X129204476Y-125774476D01*
X129775904Y-126993523D02*
X129775904Y-126536380D01*
X129775904Y-126764952D02*
X128975904Y-126764952D01*
X129090190Y-126688761D01*
X129166380Y-126612571D01*
X129204476Y-126536380D01*
%TO.C,TP112*%
X138677428Y-116147904D02*
X138220285Y-116147904D01*
X138448857Y-116947904D02*
X138448857Y-116147904D01*
X137953619Y-116947904D02*
X137953619Y-116147904D01*
X137648857Y-116147904D01*
X137572666Y-116186000D01*
X137534571Y-116224095D01*
X137496476Y-116300285D01*
X137496476Y-116414571D01*
X137534571Y-116490761D01*
X137572666Y-116528857D01*
X137648857Y-116566952D01*
X137953619Y-116566952D01*
X136734571Y-116947904D02*
X137191714Y-116947904D01*
X136963142Y-116947904D02*
X136963142Y-116147904D01*
X137039333Y-116262190D01*
X137115523Y-116338380D01*
X137191714Y-116376476D01*
X135972666Y-116947904D02*
X136429809Y-116947904D01*
X136201238Y-116947904D02*
X136201238Y-116147904D01*
X136277428Y-116262190D01*
X136353619Y-116338380D01*
X136429809Y-116376476D01*
X135667904Y-116224095D02*
X135629809Y-116186000D01*
X135553619Y-116147904D01*
X135363142Y-116147904D01*
X135286952Y-116186000D01*
X135248857Y-116224095D01*
X135210761Y-116300285D01*
X135210761Y-116376476D01*
X135248857Y-116490761D01*
X135706000Y-116947904D01*
X135210761Y-116947904D01*
%TO.C,TP93*%
X125418904Y-124339523D02*
X125418904Y-124796666D01*
X126218904Y-124568095D02*
X125418904Y-124568095D01*
X126218904Y-125063333D02*
X125418904Y-125063333D01*
X125418904Y-125368095D01*
X125457000Y-125444285D01*
X125495095Y-125482380D01*
X125571285Y-125520476D01*
X125685571Y-125520476D01*
X125761761Y-125482380D01*
X125799857Y-125444285D01*
X125837952Y-125368095D01*
X125837952Y-125063333D01*
X126218904Y-125901428D02*
X126218904Y-126053809D01*
X126180809Y-126130000D01*
X126142714Y-126168095D01*
X126028428Y-126244285D01*
X125876047Y-126282380D01*
X125571285Y-126282380D01*
X125495095Y-126244285D01*
X125457000Y-126206190D01*
X125418904Y-126130000D01*
X125418904Y-125977619D01*
X125457000Y-125901428D01*
X125495095Y-125863333D01*
X125571285Y-125825238D01*
X125761761Y-125825238D01*
X125837952Y-125863333D01*
X125876047Y-125901428D01*
X125914142Y-125977619D01*
X125914142Y-126130000D01*
X125876047Y-126206190D01*
X125837952Y-126244285D01*
X125761761Y-126282380D01*
X125418904Y-126549047D02*
X125418904Y-127044285D01*
X125723666Y-126777619D01*
X125723666Y-126891904D01*
X125761761Y-126968095D01*
X125799857Y-127006190D01*
X125876047Y-127044285D01*
X126066523Y-127044285D01*
X126142714Y-127006190D01*
X126180809Y-126968095D01*
X126218904Y-126891904D01*
X126218904Y-126663333D01*
X126180809Y-126587142D01*
X126142714Y-126549047D01*
%TO.C,R196*%
X122535904Y-123691761D02*
X122154952Y-123425095D01*
X122535904Y-123234619D02*
X121735904Y-123234619D01*
X121735904Y-123539380D01*
X121774000Y-123615571D01*
X121812095Y-123653666D01*
X121888285Y-123691761D01*
X122002571Y-123691761D01*
X122078761Y-123653666D01*
X122116857Y-123615571D01*
X122154952Y-123539380D01*
X122154952Y-123234619D01*
X122535904Y-124453666D02*
X122535904Y-123996523D01*
X122535904Y-124225095D02*
X121735904Y-124225095D01*
X121850190Y-124148904D01*
X121926380Y-124072714D01*
X121964476Y-123996523D01*
X122535904Y-124834619D02*
X122535904Y-124987000D01*
X122497809Y-125063190D01*
X122459714Y-125101285D01*
X122345428Y-125177476D01*
X122193047Y-125215571D01*
X121888285Y-125215571D01*
X121812095Y-125177476D01*
X121774000Y-125139380D01*
X121735904Y-125063190D01*
X121735904Y-124910809D01*
X121774000Y-124834619D01*
X121812095Y-124796523D01*
X121888285Y-124758428D01*
X122078761Y-124758428D01*
X122154952Y-124796523D01*
X122193047Y-124834619D01*
X122231142Y-124910809D01*
X122231142Y-125063190D01*
X122193047Y-125139380D01*
X122154952Y-125177476D01*
X122078761Y-125215571D01*
X121735904Y-125901285D02*
X121735904Y-125748904D01*
X121774000Y-125672714D01*
X121812095Y-125634619D01*
X121926380Y-125558428D01*
X122078761Y-125520333D01*
X122383523Y-125520333D01*
X122459714Y-125558428D01*
X122497809Y-125596523D01*
X122535904Y-125672714D01*
X122535904Y-125825095D01*
X122497809Y-125901285D01*
X122459714Y-125939380D01*
X122383523Y-125977476D01*
X122193047Y-125977476D01*
X122116857Y-125939380D01*
X122078761Y-125901285D01*
X122040666Y-125825095D01*
X122040666Y-125672714D01*
X122078761Y-125596523D01*
X122116857Y-125558428D01*
X122193047Y-125520333D01*
%TO.C,R9*%
X163328333Y-103739904D02*
X163595000Y-103358952D01*
X163785476Y-103739904D02*
X163785476Y-102939904D01*
X163480714Y-102939904D01*
X163404523Y-102978000D01*
X163366428Y-103016095D01*
X163328333Y-103092285D01*
X163328333Y-103206571D01*
X163366428Y-103282761D01*
X163404523Y-103320857D01*
X163480714Y-103358952D01*
X163785476Y-103358952D01*
X162947380Y-103739904D02*
X162795000Y-103739904D01*
X162718809Y-103701809D01*
X162680714Y-103663714D01*
X162604523Y-103549428D01*
X162566428Y-103397047D01*
X162566428Y-103092285D01*
X162604523Y-103016095D01*
X162642619Y-102978000D01*
X162718809Y-102939904D01*
X162871190Y-102939904D01*
X162947380Y-102978000D01*
X162985476Y-103016095D01*
X163023571Y-103092285D01*
X163023571Y-103282761D01*
X162985476Y-103358952D01*
X162947380Y-103397047D01*
X162871190Y-103435142D01*
X162718809Y-103435142D01*
X162642619Y-103397047D01*
X162604523Y-103358952D01*
X162566428Y-103282761D01*
%TO.C,C59*%
X137445714Y-106673714D02*
X137483809Y-106635619D01*
X137521904Y-106521333D01*
X137521904Y-106445142D01*
X137483809Y-106330857D01*
X137407619Y-106254666D01*
X137331428Y-106216571D01*
X137179047Y-106178476D01*
X137064761Y-106178476D01*
X136912380Y-106216571D01*
X136836190Y-106254666D01*
X136760000Y-106330857D01*
X136721904Y-106445142D01*
X136721904Y-106521333D01*
X136760000Y-106635619D01*
X136798095Y-106673714D01*
X136721904Y-107397523D02*
X136721904Y-107016571D01*
X137102857Y-106978476D01*
X137064761Y-107016571D01*
X137026666Y-107092761D01*
X137026666Y-107283238D01*
X137064761Y-107359428D01*
X137102857Y-107397523D01*
X137179047Y-107435619D01*
X137369523Y-107435619D01*
X137445714Y-107397523D01*
X137483809Y-107359428D01*
X137521904Y-107283238D01*
X137521904Y-107092761D01*
X137483809Y-107016571D01*
X137445714Y-106978476D01*
X137521904Y-107816571D02*
X137521904Y-107968952D01*
X137483809Y-108045142D01*
X137445714Y-108083238D01*
X137331428Y-108159428D01*
X137179047Y-108197523D01*
X136874285Y-108197523D01*
X136798095Y-108159428D01*
X136760000Y-108121333D01*
X136721904Y-108045142D01*
X136721904Y-107892761D01*
X136760000Y-107816571D01*
X136798095Y-107778476D01*
X136874285Y-107740380D01*
X137064761Y-107740380D01*
X137140952Y-107778476D01*
X137179047Y-107816571D01*
X137217142Y-107892761D01*
X137217142Y-108045142D01*
X137179047Y-108121333D01*
X137140952Y-108159428D01*
X137064761Y-108197523D01*
%TD*%
M02*
