%TF.GenerationSoftware,KiCad,Pcbnew,(5.1.10)-1*%
%TF.CreationDate,2021-06-15T10:49:33-05:00*%
%TF.ProjectId,gd VGC proto pcb,67642056-4743-4207-9072-6f746f207063,rev?*%
%TF.SameCoordinates,Original*%
%TF.FileFunction,Paste,Top*%
%TF.FilePolarity,Positive*%
%FSLAX46Y46*%
G04 Gerber Fmt 4.6, Leading zero omitted, Abs format (unit mm)*
G04 Created by KiCad (PCBNEW (5.1.10)-1) date 2021-06-15 10:49:33*
%MOMM*%
%LPD*%
G01*
G04 APERTURE LIST*
%ADD10R,3.450000X1.850000*%
%ADD11R,1.850000X3.450000*%
%ADD12R,1.800000X2.000000*%
%ADD13R,1.060000X0.650000*%
%ADD14R,0.900000X0.800000*%
%ADD15R,0.800000X0.900000*%
G04 APERTURE END LIST*
D10*
%TO.C,TP4*%
X149860000Y-93726000D03*
%TD*%
%TO.C,TP3*%
X187452000Y-82931000D03*
%TD*%
%TO.C,TP2*%
X171958000Y-127000000D03*
%TD*%
%TO.C,C25*%
G36*
G01*
X180942000Y-98991000D02*
X179992000Y-98991000D01*
G75*
G02*
X179742000Y-98741000I0J250000D01*
G01*
X179742000Y-98241000D01*
G75*
G02*
X179992000Y-97991000I250000J0D01*
G01*
X180942000Y-97991000D01*
G75*
G02*
X181192000Y-98241000I0J-250000D01*
G01*
X181192000Y-98741000D01*
G75*
G02*
X180942000Y-98991000I-250000J0D01*
G01*
G37*
G36*
G01*
X180942000Y-100891000D02*
X179992000Y-100891000D01*
G75*
G02*
X179742000Y-100641000I0J250000D01*
G01*
X179742000Y-100141000D01*
G75*
G02*
X179992000Y-99891000I250000J0D01*
G01*
X180942000Y-99891000D01*
G75*
G02*
X181192000Y-100141000I0J-250000D01*
G01*
X181192000Y-100641000D01*
G75*
G02*
X180942000Y-100891000I-250000J0D01*
G01*
G37*
%TD*%
%TO.C,C102*%
G36*
G01*
X153474000Y-70518000D02*
X153474000Y-71468000D01*
G75*
G02*
X153224000Y-71718000I-250000J0D01*
G01*
X152724000Y-71718000D01*
G75*
G02*
X152474000Y-71468000I0J250000D01*
G01*
X152474000Y-70518000D01*
G75*
G02*
X152724000Y-70268000I250000J0D01*
G01*
X153224000Y-70268000D01*
G75*
G02*
X153474000Y-70518000I0J-250000D01*
G01*
G37*
G36*
G01*
X155374000Y-70518000D02*
X155374000Y-71468000D01*
G75*
G02*
X155124000Y-71718000I-250000J0D01*
G01*
X154624000Y-71718000D01*
G75*
G02*
X154374000Y-71468000I0J250000D01*
G01*
X154374000Y-70518000D01*
G75*
G02*
X154624000Y-70268000I250000J0D01*
G01*
X155124000Y-70268000D01*
G75*
G02*
X155374000Y-70518000I0J-250000D01*
G01*
G37*
%TD*%
%TO.C,C6alt1*%
G36*
G01*
X160205000Y-81694000D02*
X160205000Y-82644000D01*
G75*
G02*
X159955000Y-82894000I-250000J0D01*
G01*
X159455000Y-82894000D01*
G75*
G02*
X159205000Y-82644000I0J250000D01*
G01*
X159205000Y-81694000D01*
G75*
G02*
X159455000Y-81444000I250000J0D01*
G01*
X159955000Y-81444000D01*
G75*
G02*
X160205000Y-81694000I0J-250000D01*
G01*
G37*
G36*
G01*
X162105000Y-81694000D02*
X162105000Y-82644000D01*
G75*
G02*
X161855000Y-82894000I-250000J0D01*
G01*
X161355000Y-82894000D01*
G75*
G02*
X161105000Y-82644000I0J250000D01*
G01*
X161105000Y-81694000D01*
G75*
G02*
X161355000Y-81444000I250000J0D01*
G01*
X161855000Y-81444000D01*
G75*
G02*
X162105000Y-81694000I0J-250000D01*
G01*
G37*
%TD*%
%TO.C,C5alt1*%
G36*
G01*
X160205000Y-87536000D02*
X160205000Y-88486000D01*
G75*
G02*
X159955000Y-88736000I-250000J0D01*
G01*
X159455000Y-88736000D01*
G75*
G02*
X159205000Y-88486000I0J250000D01*
G01*
X159205000Y-87536000D01*
G75*
G02*
X159455000Y-87286000I250000J0D01*
G01*
X159955000Y-87286000D01*
G75*
G02*
X160205000Y-87536000I0J-250000D01*
G01*
G37*
G36*
G01*
X162105000Y-87536000D02*
X162105000Y-88486000D01*
G75*
G02*
X161855000Y-88736000I-250000J0D01*
G01*
X161355000Y-88736000D01*
G75*
G02*
X161105000Y-88486000I0J250000D01*
G01*
X161105000Y-87536000D01*
G75*
G02*
X161355000Y-87286000I250000J0D01*
G01*
X161855000Y-87286000D01*
G75*
G02*
X162105000Y-87536000I0J-250000D01*
G01*
G37*
%TD*%
%TO.C,C4alt1*%
G36*
G01*
X160139000Y-93632000D02*
X160139000Y-94582000D01*
G75*
G02*
X159889000Y-94832000I-250000J0D01*
G01*
X159389000Y-94832000D01*
G75*
G02*
X159139000Y-94582000I0J250000D01*
G01*
X159139000Y-93632000D01*
G75*
G02*
X159389000Y-93382000I250000J0D01*
G01*
X159889000Y-93382000D01*
G75*
G02*
X160139000Y-93632000I0J-250000D01*
G01*
G37*
G36*
G01*
X162039000Y-93632000D02*
X162039000Y-94582000D01*
G75*
G02*
X161789000Y-94832000I-250000J0D01*
G01*
X161289000Y-94832000D01*
G75*
G02*
X161039000Y-94582000I0J250000D01*
G01*
X161039000Y-93632000D01*
G75*
G02*
X161289000Y-93382000I250000J0D01*
G01*
X161789000Y-93382000D01*
G75*
G02*
X162039000Y-93632000I0J-250000D01*
G01*
G37*
%TD*%
%TO.C,C20*%
G36*
G01*
X189923000Y-107602000D02*
X189923000Y-108552000D01*
G75*
G02*
X189673000Y-108802000I-250000J0D01*
G01*
X189173000Y-108802000D01*
G75*
G02*
X188923000Y-108552000I0J250000D01*
G01*
X188923000Y-107602000D01*
G75*
G02*
X189173000Y-107352000I250000J0D01*
G01*
X189673000Y-107352000D01*
G75*
G02*
X189923000Y-107602000I0J-250000D01*
G01*
G37*
G36*
G01*
X191823000Y-107602000D02*
X191823000Y-108552000D01*
G75*
G02*
X191573000Y-108802000I-250000J0D01*
G01*
X191073000Y-108802000D01*
G75*
G02*
X190823000Y-108552000I0J250000D01*
G01*
X190823000Y-107602000D01*
G75*
G02*
X191073000Y-107352000I250000J0D01*
G01*
X191573000Y-107352000D01*
G75*
G02*
X191823000Y-107602000I0J-250000D01*
G01*
G37*
%TD*%
D11*
%TO.C,TP127*%
X162306000Y-75692000D03*
%TD*%
%TO.C,TP67*%
X188087000Y-88773000D03*
%TD*%
D10*
%TO.C,TP61*%
X158623000Y-122301000D03*
%TD*%
%TO.C,TP60*%
X154559000Y-115951000D03*
%TD*%
%TO.C,TP59*%
X149225000Y-122555000D03*
%TD*%
%TO.C,TP1*%
X161417000Y-105029000D03*
%TD*%
%TO.C,R206*%
G36*
G01*
X99879999Y-76600000D02*
X100780001Y-76600000D01*
G75*
G02*
X101030000Y-76849999I0J-249999D01*
G01*
X101030000Y-77375001D01*
G75*
G02*
X100780001Y-77625000I-249999J0D01*
G01*
X99879999Y-77625000D01*
G75*
G02*
X99630000Y-77375001I0J249999D01*
G01*
X99630000Y-76849999D01*
G75*
G02*
X99879999Y-76600000I249999J0D01*
G01*
G37*
G36*
G01*
X99879999Y-74775000D02*
X100780001Y-74775000D01*
G75*
G02*
X101030000Y-75024999I0J-249999D01*
G01*
X101030000Y-75550001D01*
G75*
G02*
X100780001Y-75800000I-249999J0D01*
G01*
X99879999Y-75800000D01*
G75*
G02*
X99630000Y-75550001I0J249999D01*
G01*
X99630000Y-75024999D01*
G75*
G02*
X99879999Y-74775000I249999J0D01*
G01*
G37*
%TD*%
%TO.C,R193*%
G36*
G01*
X165627000Y-116655001D02*
X165627000Y-115754999D01*
G75*
G02*
X165876999Y-115505000I249999J0D01*
G01*
X166402001Y-115505000D01*
G75*
G02*
X166652000Y-115754999I0J-249999D01*
G01*
X166652000Y-116655001D01*
G75*
G02*
X166402001Y-116905000I-249999J0D01*
G01*
X165876999Y-116905000D01*
G75*
G02*
X165627000Y-116655001I0J249999D01*
G01*
G37*
G36*
G01*
X163802000Y-116655001D02*
X163802000Y-115754999D01*
G75*
G02*
X164051999Y-115505000I249999J0D01*
G01*
X164577001Y-115505000D01*
G75*
G02*
X164827000Y-115754999I0J-249999D01*
G01*
X164827000Y-116655001D01*
G75*
G02*
X164577001Y-116905000I-249999J0D01*
G01*
X164051999Y-116905000D01*
G75*
G02*
X163802000Y-116655001I0J249999D01*
G01*
G37*
%TD*%
%TO.C,R191*%
G36*
G01*
X153181000Y-130879001D02*
X153181000Y-129978999D01*
G75*
G02*
X153430999Y-129729000I249999J0D01*
G01*
X153956001Y-129729000D01*
G75*
G02*
X154206000Y-129978999I0J-249999D01*
G01*
X154206000Y-130879001D01*
G75*
G02*
X153956001Y-131129000I-249999J0D01*
G01*
X153430999Y-131129000D01*
G75*
G02*
X153181000Y-130879001I0J249999D01*
G01*
G37*
G36*
G01*
X151356000Y-130879001D02*
X151356000Y-129978999D01*
G75*
G02*
X151605999Y-129729000I249999J0D01*
G01*
X152131001Y-129729000D01*
G75*
G02*
X152381000Y-129978999I0J-249999D01*
G01*
X152381000Y-130879001D01*
G75*
G02*
X152131001Y-131129000I-249999J0D01*
G01*
X151605999Y-131129000D01*
G75*
G02*
X151356000Y-130879001I0J249999D01*
G01*
G37*
%TD*%
%TO.C,R138*%
G36*
G01*
X181337000Y-81972999D02*
X181337000Y-82873001D01*
G75*
G02*
X181087001Y-83123000I-249999J0D01*
G01*
X180561999Y-83123000D01*
G75*
G02*
X180312000Y-82873001I0J249999D01*
G01*
X180312000Y-81972999D01*
G75*
G02*
X180561999Y-81723000I249999J0D01*
G01*
X181087001Y-81723000D01*
G75*
G02*
X181337000Y-81972999I0J-249999D01*
G01*
G37*
G36*
G01*
X183162000Y-81972999D02*
X183162000Y-82873001D01*
G75*
G02*
X182912001Y-83123000I-249999J0D01*
G01*
X182386999Y-83123000D01*
G75*
G02*
X182137000Y-82873001I0J249999D01*
G01*
X182137000Y-81972999D01*
G75*
G02*
X182386999Y-81723000I249999J0D01*
G01*
X182912001Y-81723000D01*
G75*
G02*
X183162000Y-81972999I0J-249999D01*
G01*
G37*
%TD*%
%TO.C,R135*%
G36*
G01*
X185350999Y-89173000D02*
X186251001Y-89173000D01*
G75*
G02*
X186501000Y-89422999I0J-249999D01*
G01*
X186501000Y-89948001D01*
G75*
G02*
X186251001Y-90198000I-249999J0D01*
G01*
X185350999Y-90198000D01*
G75*
G02*
X185101000Y-89948001I0J249999D01*
G01*
X185101000Y-89422999D01*
G75*
G02*
X185350999Y-89173000I249999J0D01*
G01*
G37*
G36*
G01*
X185350999Y-87348000D02*
X186251001Y-87348000D01*
G75*
G02*
X186501000Y-87597999I0J-249999D01*
G01*
X186501000Y-88123001D01*
G75*
G02*
X186251001Y-88373000I-249999J0D01*
G01*
X185350999Y-88373000D01*
G75*
G02*
X185101000Y-88123001I0J249999D01*
G01*
X185101000Y-87597999D01*
G75*
G02*
X185350999Y-87348000I249999J0D01*
G01*
G37*
%TD*%
%TO.C,R114*%
G36*
G01*
X169360001Y-71863000D02*
X168459999Y-71863000D01*
G75*
G02*
X168210000Y-71613001I0J249999D01*
G01*
X168210000Y-71087999D01*
G75*
G02*
X168459999Y-70838000I249999J0D01*
G01*
X169360001Y-70838000D01*
G75*
G02*
X169610000Y-71087999I0J-249999D01*
G01*
X169610000Y-71613001D01*
G75*
G02*
X169360001Y-71863000I-249999J0D01*
G01*
G37*
G36*
G01*
X169360001Y-73688000D02*
X168459999Y-73688000D01*
G75*
G02*
X168210000Y-73438001I0J249999D01*
G01*
X168210000Y-72912999D01*
G75*
G02*
X168459999Y-72663000I249999J0D01*
G01*
X169360001Y-72663000D01*
G75*
G02*
X169610000Y-72912999I0J-249999D01*
G01*
X169610000Y-73438001D01*
G75*
G02*
X169360001Y-73688000I-249999J0D01*
G01*
G37*
%TD*%
%TO.C,R54*%
G36*
G01*
X182264000Y-113480001D02*
X182264000Y-112579999D01*
G75*
G02*
X182513999Y-112330000I249999J0D01*
G01*
X183039001Y-112330000D01*
G75*
G02*
X183289000Y-112579999I0J-249999D01*
G01*
X183289000Y-113480001D01*
G75*
G02*
X183039001Y-113730000I-249999J0D01*
G01*
X182513999Y-113730000D01*
G75*
G02*
X182264000Y-113480001I0J249999D01*
G01*
G37*
G36*
G01*
X180439000Y-113480001D02*
X180439000Y-112579999D01*
G75*
G02*
X180688999Y-112330000I249999J0D01*
G01*
X181214001Y-112330000D01*
G75*
G02*
X181464000Y-112579999I0J-249999D01*
G01*
X181464000Y-113480001D01*
G75*
G02*
X181214001Y-113730000I-249999J0D01*
G01*
X180688999Y-113730000D01*
G75*
G02*
X180439000Y-113480001I0J249999D01*
G01*
G37*
%TD*%
%TO.C,R30*%
G36*
G01*
X126854000Y-127057999D02*
X126854000Y-127958001D01*
G75*
G02*
X126604001Y-128208000I-249999J0D01*
G01*
X126078999Y-128208000D01*
G75*
G02*
X125829000Y-127958001I0J249999D01*
G01*
X125829000Y-127057999D01*
G75*
G02*
X126078999Y-126808000I249999J0D01*
G01*
X126604001Y-126808000D01*
G75*
G02*
X126854000Y-127057999I0J-249999D01*
G01*
G37*
G36*
G01*
X128679000Y-127057999D02*
X128679000Y-127958001D01*
G75*
G02*
X128429001Y-128208000I-249999J0D01*
G01*
X127903999Y-128208000D01*
G75*
G02*
X127654000Y-127958001I0J249999D01*
G01*
X127654000Y-127057999D01*
G75*
G02*
X127903999Y-126808000I249999J0D01*
G01*
X128429001Y-126808000D01*
G75*
G02*
X128679000Y-127057999I0J-249999D01*
G01*
G37*
%TD*%
%TO.C,R19*%
G36*
G01*
X166064200Y-101008601D02*
X166064200Y-100108599D01*
G75*
G02*
X166314199Y-99858600I249999J0D01*
G01*
X166839201Y-99858600D01*
G75*
G02*
X167089200Y-100108599I0J-249999D01*
G01*
X167089200Y-101008601D01*
G75*
G02*
X166839201Y-101258600I-249999J0D01*
G01*
X166314199Y-101258600D01*
G75*
G02*
X166064200Y-101008601I0J249999D01*
G01*
G37*
G36*
G01*
X164239200Y-101008601D02*
X164239200Y-100108599D01*
G75*
G02*
X164489199Y-99858600I249999J0D01*
G01*
X165014201Y-99858600D01*
G75*
G02*
X165264200Y-100108599I0J-249999D01*
G01*
X165264200Y-101008601D01*
G75*
G02*
X165014201Y-101258600I-249999J0D01*
G01*
X164489199Y-101258600D01*
G75*
G02*
X164239200Y-101008601I0J249999D01*
G01*
G37*
%TD*%
%TO.C,R18*%
G36*
G01*
X152127000Y-96450999D02*
X152127000Y-97351001D01*
G75*
G02*
X151877001Y-97601000I-249999J0D01*
G01*
X151351999Y-97601000D01*
G75*
G02*
X151102000Y-97351001I0J249999D01*
G01*
X151102000Y-96450999D01*
G75*
G02*
X151351999Y-96201000I249999J0D01*
G01*
X151877001Y-96201000D01*
G75*
G02*
X152127000Y-96450999I0J-249999D01*
G01*
G37*
G36*
G01*
X153952000Y-96450999D02*
X153952000Y-97351001D01*
G75*
G02*
X153702001Y-97601000I-249999J0D01*
G01*
X153176999Y-97601000D01*
G75*
G02*
X152927000Y-97351001I0J249999D01*
G01*
X152927000Y-96450999D01*
G75*
G02*
X153176999Y-96201000I249999J0D01*
G01*
X153702001Y-96201000D01*
G75*
G02*
X153952000Y-96450999I0J-249999D01*
G01*
G37*
%TD*%
%TO.C,R17*%
G36*
G01*
X158769000Y-127323001D02*
X158769000Y-126422999D01*
G75*
G02*
X159018999Y-126173000I249999J0D01*
G01*
X159544001Y-126173000D01*
G75*
G02*
X159794000Y-126422999I0J-249999D01*
G01*
X159794000Y-127323001D01*
G75*
G02*
X159544001Y-127573000I-249999J0D01*
G01*
X159018999Y-127573000D01*
G75*
G02*
X158769000Y-127323001I0J249999D01*
G01*
G37*
G36*
G01*
X156944000Y-127323001D02*
X156944000Y-126422999D01*
G75*
G02*
X157193999Y-126173000I249999J0D01*
G01*
X157719001Y-126173000D01*
G75*
G02*
X157969000Y-126422999I0J-249999D01*
G01*
X157969000Y-127323001D01*
G75*
G02*
X157719001Y-127573000I-249999J0D01*
G01*
X157193999Y-127573000D01*
G75*
G02*
X156944000Y-127323001I0J249999D01*
G01*
G37*
%TD*%
%TO.C,R16*%
G36*
G01*
X166439001Y-81515000D02*
X165538999Y-81515000D01*
G75*
G02*
X165289000Y-81265001I0J249999D01*
G01*
X165289000Y-80739999D01*
G75*
G02*
X165538999Y-80490000I249999J0D01*
G01*
X166439001Y-80490000D01*
G75*
G02*
X166689000Y-80739999I0J-249999D01*
G01*
X166689000Y-81265001D01*
G75*
G02*
X166439001Y-81515000I-249999J0D01*
G01*
G37*
G36*
G01*
X166439001Y-83340000D02*
X165538999Y-83340000D01*
G75*
G02*
X165289000Y-83090001I0J249999D01*
G01*
X165289000Y-82564999D01*
G75*
G02*
X165538999Y-82315000I249999J0D01*
G01*
X166439001Y-82315000D01*
G75*
G02*
X166689000Y-82564999I0J-249999D01*
G01*
X166689000Y-83090001D01*
G75*
G02*
X166439001Y-83340000I-249999J0D01*
G01*
G37*
%TD*%
%TO.C,R15*%
G36*
G01*
X183064999Y-89173000D02*
X183965001Y-89173000D01*
G75*
G02*
X184215000Y-89422999I0J-249999D01*
G01*
X184215000Y-89948001D01*
G75*
G02*
X183965001Y-90198000I-249999J0D01*
G01*
X183064999Y-90198000D01*
G75*
G02*
X182815000Y-89948001I0J249999D01*
G01*
X182815000Y-89422999D01*
G75*
G02*
X183064999Y-89173000I249999J0D01*
G01*
G37*
G36*
G01*
X183064999Y-87348000D02*
X183965001Y-87348000D01*
G75*
G02*
X184215000Y-87597999I0J-249999D01*
G01*
X184215000Y-88123001D01*
G75*
G02*
X183965001Y-88373000I-249999J0D01*
G01*
X183064999Y-88373000D01*
G75*
G02*
X182815000Y-88123001I0J249999D01*
G01*
X182815000Y-87597999D01*
G75*
G02*
X183064999Y-87348000I249999J0D01*
G01*
G37*
%TD*%
%TO.C,R14*%
G36*
G01*
X162375001Y-115043000D02*
X161474999Y-115043000D01*
G75*
G02*
X161225000Y-114793001I0J249999D01*
G01*
X161225000Y-114267999D01*
G75*
G02*
X161474999Y-114018000I249999J0D01*
G01*
X162375001Y-114018000D01*
G75*
G02*
X162625000Y-114267999I0J-249999D01*
G01*
X162625000Y-114793001D01*
G75*
G02*
X162375001Y-115043000I-249999J0D01*
G01*
G37*
G36*
G01*
X162375001Y-116868000D02*
X161474999Y-116868000D01*
G75*
G02*
X161225000Y-116618001I0J249999D01*
G01*
X161225000Y-116092999D01*
G75*
G02*
X161474999Y-115843000I249999J0D01*
G01*
X162375001Y-115843000D01*
G75*
G02*
X162625000Y-116092999I0J-249999D01*
G01*
X162625000Y-116618001D01*
G75*
G02*
X162375001Y-116868000I-249999J0D01*
G01*
G37*
%TD*%
%TO.C,R13*%
G36*
G01*
X149790999Y-119653000D02*
X150691001Y-119653000D01*
G75*
G02*
X150941000Y-119902999I0J-249999D01*
G01*
X150941000Y-120428001D01*
G75*
G02*
X150691001Y-120678000I-249999J0D01*
G01*
X149790999Y-120678000D01*
G75*
G02*
X149541000Y-120428001I0J249999D01*
G01*
X149541000Y-119902999D01*
G75*
G02*
X149790999Y-119653000I249999J0D01*
G01*
G37*
G36*
G01*
X149790999Y-117828000D02*
X150691001Y-117828000D01*
G75*
G02*
X150941000Y-118077999I0J-249999D01*
G01*
X150941000Y-118603001D01*
G75*
G02*
X150691001Y-118853000I-249999J0D01*
G01*
X149790999Y-118853000D01*
G75*
G02*
X149541000Y-118603001I0J249999D01*
G01*
X149541000Y-118077999D01*
G75*
G02*
X149790999Y-117828000I249999J0D01*
G01*
G37*
%TD*%
%TO.C,R12*%
G36*
G01*
X154959000Y-123259001D02*
X154959000Y-122358999D01*
G75*
G02*
X155208999Y-122109000I249999J0D01*
G01*
X155734001Y-122109000D01*
G75*
G02*
X155984000Y-122358999I0J-249999D01*
G01*
X155984000Y-123259001D01*
G75*
G02*
X155734001Y-123509000I-249999J0D01*
G01*
X155208999Y-123509000D01*
G75*
G02*
X154959000Y-123259001I0J249999D01*
G01*
G37*
G36*
G01*
X153134000Y-123259001D02*
X153134000Y-122358999D01*
G75*
G02*
X153383999Y-122109000I249999J0D01*
G01*
X153909001Y-122109000D01*
G75*
G02*
X154159000Y-122358999I0J-249999D01*
G01*
X154159000Y-123259001D01*
G75*
G02*
X153909001Y-123509000I-249999J0D01*
G01*
X153383999Y-123509000D01*
G75*
G02*
X153134000Y-123259001I0J249999D01*
G01*
G37*
%TD*%
%TO.C,R10*%
G36*
G01*
X170326000Y-76650001D02*
X170326000Y-75749999D01*
G75*
G02*
X170575999Y-75500000I249999J0D01*
G01*
X171101001Y-75500000D01*
G75*
G02*
X171351000Y-75749999I0J-249999D01*
G01*
X171351000Y-76650001D01*
G75*
G02*
X171101001Y-76900000I-249999J0D01*
G01*
X170575999Y-76900000D01*
G75*
G02*
X170326000Y-76650001I0J249999D01*
G01*
G37*
G36*
G01*
X168501000Y-76650001D02*
X168501000Y-75749999D01*
G75*
G02*
X168750999Y-75500000I249999J0D01*
G01*
X169276001Y-75500000D01*
G75*
G02*
X169526000Y-75749999I0J-249999D01*
G01*
X169526000Y-76650001D01*
G75*
G02*
X169276001Y-76900000I-249999J0D01*
G01*
X168750999Y-76900000D01*
G75*
G02*
X168501000Y-76650001I0J249999D01*
G01*
G37*
%TD*%
%TO.C,R8*%
G36*
G01*
X182264000Y-115766001D02*
X182264000Y-114865999D01*
G75*
G02*
X182513999Y-114616000I249999J0D01*
G01*
X183039001Y-114616000D01*
G75*
G02*
X183289000Y-114865999I0J-249999D01*
G01*
X183289000Y-115766001D01*
G75*
G02*
X183039001Y-116016000I-249999J0D01*
G01*
X182513999Y-116016000D01*
G75*
G02*
X182264000Y-115766001I0J249999D01*
G01*
G37*
G36*
G01*
X180439000Y-115766001D02*
X180439000Y-114865999D01*
G75*
G02*
X180688999Y-114616000I249999J0D01*
G01*
X181214001Y-114616000D01*
G75*
G02*
X181464000Y-114865999I0J-249999D01*
G01*
X181464000Y-115766001D01*
G75*
G02*
X181214001Y-116016000I-249999J0D01*
G01*
X180688999Y-116016000D01*
G75*
G02*
X180439000Y-115766001I0J249999D01*
G01*
G37*
%TD*%
%TO.C,R1*%
G36*
G01*
X157664999Y-115843000D02*
X158565001Y-115843000D01*
G75*
G02*
X158815000Y-116092999I0J-249999D01*
G01*
X158815000Y-116618001D01*
G75*
G02*
X158565001Y-116868000I-249999J0D01*
G01*
X157664999Y-116868000D01*
G75*
G02*
X157415000Y-116618001I0J249999D01*
G01*
X157415000Y-116092999D01*
G75*
G02*
X157664999Y-115843000I249999J0D01*
G01*
G37*
G36*
G01*
X157664999Y-114018000D02*
X158565001Y-114018000D01*
G75*
G02*
X158815000Y-114267999I0J-249999D01*
G01*
X158815000Y-114793001D01*
G75*
G02*
X158565001Y-115043000I-249999J0D01*
G01*
X157664999Y-115043000D01*
G75*
G02*
X157415000Y-114793001I0J249999D01*
G01*
X157415000Y-114267999D01*
G75*
G02*
X157664999Y-114018000I249999J0D01*
G01*
G37*
%TD*%
%TO.C,C101*%
G36*
G01*
X158046000Y-70391000D02*
X158046000Y-71341000D01*
G75*
G02*
X157796000Y-71591000I-250000J0D01*
G01*
X157296000Y-71591000D01*
G75*
G02*
X157046000Y-71341000I0J250000D01*
G01*
X157046000Y-70391000D01*
G75*
G02*
X157296000Y-70141000I250000J0D01*
G01*
X157796000Y-70141000D01*
G75*
G02*
X158046000Y-70391000I0J-250000D01*
G01*
G37*
G36*
G01*
X159946000Y-70391000D02*
X159946000Y-71341000D01*
G75*
G02*
X159696000Y-71591000I-250000J0D01*
G01*
X159196000Y-71591000D01*
G75*
G02*
X158946000Y-71341000I0J250000D01*
G01*
X158946000Y-70391000D01*
G75*
G02*
X159196000Y-70141000I250000J0D01*
G01*
X159696000Y-70141000D01*
G75*
G02*
X159946000Y-70391000I0J-250000D01*
G01*
G37*
%TD*%
%TO.C,C100*%
G36*
G01*
X162491000Y-70264000D02*
X162491000Y-71214000D01*
G75*
G02*
X162241000Y-71464000I-250000J0D01*
G01*
X161741000Y-71464000D01*
G75*
G02*
X161491000Y-71214000I0J250000D01*
G01*
X161491000Y-70264000D01*
G75*
G02*
X161741000Y-70014000I250000J0D01*
G01*
X162241000Y-70014000D01*
G75*
G02*
X162491000Y-70264000I0J-250000D01*
G01*
G37*
G36*
G01*
X164391000Y-70264000D02*
X164391000Y-71214000D01*
G75*
G02*
X164141000Y-71464000I-250000J0D01*
G01*
X163641000Y-71464000D01*
G75*
G02*
X163391000Y-71214000I0J250000D01*
G01*
X163391000Y-70264000D01*
G75*
G02*
X163641000Y-70014000I250000J0D01*
G01*
X164141000Y-70014000D01*
G75*
G02*
X164391000Y-70264000I0J-250000D01*
G01*
G37*
%TD*%
%TO.C,C33*%
G36*
G01*
X180500000Y-89243000D02*
X181450000Y-89243000D01*
G75*
G02*
X181700000Y-89493000I0J-250000D01*
G01*
X181700000Y-89993000D01*
G75*
G02*
X181450000Y-90243000I-250000J0D01*
G01*
X180500000Y-90243000D01*
G75*
G02*
X180250000Y-89993000I0J250000D01*
G01*
X180250000Y-89493000D01*
G75*
G02*
X180500000Y-89243000I250000J0D01*
G01*
G37*
G36*
G01*
X180500000Y-87343000D02*
X181450000Y-87343000D01*
G75*
G02*
X181700000Y-87593000I0J-250000D01*
G01*
X181700000Y-88093000D01*
G75*
G02*
X181450000Y-88343000I-250000J0D01*
G01*
X180500000Y-88343000D01*
G75*
G02*
X180250000Y-88093000I0J250000D01*
G01*
X180250000Y-87593000D01*
G75*
G02*
X180500000Y-87343000I250000J0D01*
G01*
G37*
%TD*%
%TO.C,C32*%
G36*
G01*
X163391000Y-69055000D02*
X163391000Y-68105000D01*
G75*
G02*
X163641000Y-67855000I250000J0D01*
G01*
X164141000Y-67855000D01*
G75*
G02*
X164391000Y-68105000I0J-250000D01*
G01*
X164391000Y-69055000D01*
G75*
G02*
X164141000Y-69305000I-250000J0D01*
G01*
X163641000Y-69305000D01*
G75*
G02*
X163391000Y-69055000I0J250000D01*
G01*
G37*
G36*
G01*
X161491000Y-69055000D02*
X161491000Y-68105000D01*
G75*
G02*
X161741000Y-67855000I250000J0D01*
G01*
X162241000Y-67855000D01*
G75*
G02*
X162491000Y-68105000I0J-250000D01*
G01*
X162491000Y-69055000D01*
G75*
G02*
X162241000Y-69305000I-250000J0D01*
G01*
X161741000Y-69305000D01*
G75*
G02*
X161491000Y-69055000I0J250000D01*
G01*
G37*
%TD*%
%TO.C,C31*%
G36*
G01*
X158946000Y-69055000D02*
X158946000Y-68105000D01*
G75*
G02*
X159196000Y-67855000I250000J0D01*
G01*
X159696000Y-67855000D01*
G75*
G02*
X159946000Y-68105000I0J-250000D01*
G01*
X159946000Y-69055000D01*
G75*
G02*
X159696000Y-69305000I-250000J0D01*
G01*
X159196000Y-69305000D01*
G75*
G02*
X158946000Y-69055000I0J250000D01*
G01*
G37*
G36*
G01*
X157046000Y-69055000D02*
X157046000Y-68105000D01*
G75*
G02*
X157296000Y-67855000I250000J0D01*
G01*
X157796000Y-67855000D01*
G75*
G02*
X158046000Y-68105000I0J-250000D01*
G01*
X158046000Y-69055000D01*
G75*
G02*
X157796000Y-69305000I-250000J0D01*
G01*
X157296000Y-69305000D01*
G75*
G02*
X157046000Y-69055000I0J250000D01*
G01*
G37*
%TD*%
%TO.C,C30*%
G36*
G01*
X127704000Y-125697000D02*
X127704000Y-124747000D01*
G75*
G02*
X127954000Y-124497000I250000J0D01*
G01*
X128454000Y-124497000D01*
G75*
G02*
X128704000Y-124747000I0J-250000D01*
G01*
X128704000Y-125697000D01*
G75*
G02*
X128454000Y-125947000I-250000J0D01*
G01*
X127954000Y-125947000D01*
G75*
G02*
X127704000Y-125697000I0J250000D01*
G01*
G37*
G36*
G01*
X125804000Y-125697000D02*
X125804000Y-124747000D01*
G75*
G02*
X126054000Y-124497000I250000J0D01*
G01*
X126554000Y-124497000D01*
G75*
G02*
X126804000Y-124747000I0J-250000D01*
G01*
X126804000Y-125697000D01*
G75*
G02*
X126554000Y-125947000I-250000J0D01*
G01*
X126054000Y-125947000D01*
G75*
G02*
X125804000Y-125697000I0J250000D01*
G01*
G37*
%TD*%
%TO.C,C29*%
G36*
G01*
X154374000Y-69055000D02*
X154374000Y-68105000D01*
G75*
G02*
X154624000Y-67855000I250000J0D01*
G01*
X155124000Y-67855000D01*
G75*
G02*
X155374000Y-68105000I0J-250000D01*
G01*
X155374000Y-69055000D01*
G75*
G02*
X155124000Y-69305000I-250000J0D01*
G01*
X154624000Y-69305000D01*
G75*
G02*
X154374000Y-69055000I0J250000D01*
G01*
G37*
G36*
G01*
X152474000Y-69055000D02*
X152474000Y-68105000D01*
G75*
G02*
X152724000Y-67855000I250000J0D01*
G01*
X153224000Y-67855000D01*
G75*
G02*
X153474000Y-68105000I0J-250000D01*
G01*
X153474000Y-69055000D01*
G75*
G02*
X153224000Y-69305000I-250000J0D01*
G01*
X152724000Y-69305000D01*
G75*
G02*
X152474000Y-69055000I0J250000D01*
G01*
G37*
%TD*%
%TO.C,C23*%
G36*
G01*
X157919000Y-124112000D02*
X157919000Y-125062000D01*
G75*
G02*
X157669000Y-125312000I-250000J0D01*
G01*
X157169000Y-125312000D01*
G75*
G02*
X156919000Y-125062000I0J250000D01*
G01*
X156919000Y-124112000D01*
G75*
G02*
X157169000Y-123862000I250000J0D01*
G01*
X157669000Y-123862000D01*
G75*
G02*
X157919000Y-124112000I0J-250000D01*
G01*
G37*
G36*
G01*
X159819000Y-124112000D02*
X159819000Y-125062000D01*
G75*
G02*
X159569000Y-125312000I-250000J0D01*
G01*
X159069000Y-125312000D01*
G75*
G02*
X158819000Y-125062000I0J250000D01*
G01*
X158819000Y-124112000D01*
G75*
G02*
X159069000Y-123862000I250000J0D01*
G01*
X159569000Y-123862000D01*
G75*
G02*
X159819000Y-124112000I0J-250000D01*
G01*
G37*
%TD*%
%TO.C,C19*%
G36*
G01*
X158590000Y-118803000D02*
X157640000Y-118803000D01*
G75*
G02*
X157390000Y-118553000I0J250000D01*
G01*
X157390000Y-118053000D01*
G75*
G02*
X157640000Y-117803000I250000J0D01*
G01*
X158590000Y-117803000D01*
G75*
G02*
X158840000Y-118053000I0J-250000D01*
G01*
X158840000Y-118553000D01*
G75*
G02*
X158590000Y-118803000I-250000J0D01*
G01*
G37*
G36*
G01*
X158590000Y-120703000D02*
X157640000Y-120703000D01*
G75*
G02*
X157390000Y-120453000I0J250000D01*
G01*
X157390000Y-119953000D01*
G75*
G02*
X157640000Y-119703000I250000J0D01*
G01*
X158590000Y-119703000D01*
G75*
G02*
X158840000Y-119953000I0J-250000D01*
G01*
X158840000Y-120453000D01*
G75*
G02*
X158590000Y-120703000I-250000J0D01*
G01*
G37*
%TD*%
%TO.C,C18*%
G36*
G01*
X147480000Y-119703000D02*
X148430000Y-119703000D01*
G75*
G02*
X148680000Y-119953000I0J-250000D01*
G01*
X148680000Y-120453000D01*
G75*
G02*
X148430000Y-120703000I-250000J0D01*
G01*
X147480000Y-120703000D01*
G75*
G02*
X147230000Y-120453000I0J250000D01*
G01*
X147230000Y-119953000D01*
G75*
G02*
X147480000Y-119703000I250000J0D01*
G01*
G37*
G36*
G01*
X147480000Y-117803000D02*
X148430000Y-117803000D01*
G75*
G02*
X148680000Y-118053000I0J-250000D01*
G01*
X148680000Y-118553000D01*
G75*
G02*
X148430000Y-118803000I-250000J0D01*
G01*
X147480000Y-118803000D01*
G75*
G02*
X147230000Y-118553000I0J250000D01*
G01*
X147230000Y-118053000D01*
G75*
G02*
X147480000Y-117803000I250000J0D01*
G01*
G37*
%TD*%
%TO.C,C17*%
G36*
G01*
X155887000Y-129954000D02*
X155887000Y-130904000D01*
G75*
G02*
X155637000Y-131154000I-250000J0D01*
G01*
X155137000Y-131154000D01*
G75*
G02*
X154887000Y-130904000I0J250000D01*
G01*
X154887000Y-129954000D01*
G75*
G02*
X155137000Y-129704000I250000J0D01*
G01*
X155637000Y-129704000D01*
G75*
G02*
X155887000Y-129954000I0J-250000D01*
G01*
G37*
G36*
G01*
X157787000Y-129954000D02*
X157787000Y-130904000D01*
G75*
G02*
X157537000Y-131154000I-250000J0D01*
G01*
X157037000Y-131154000D01*
G75*
G02*
X156787000Y-130904000I0J250000D01*
G01*
X156787000Y-129954000D01*
G75*
G02*
X157037000Y-129704000I250000J0D01*
G01*
X157537000Y-129704000D01*
G75*
G02*
X157787000Y-129954000I0J-250000D01*
G01*
G37*
%TD*%
%TO.C,C12*%
G36*
G01*
X182187000Y-85692000D02*
X182187000Y-84742000D01*
G75*
G02*
X182437000Y-84492000I250000J0D01*
G01*
X182937000Y-84492000D01*
G75*
G02*
X183187000Y-84742000I0J-250000D01*
G01*
X183187000Y-85692000D01*
G75*
G02*
X182937000Y-85942000I-250000J0D01*
G01*
X182437000Y-85942000D01*
G75*
G02*
X182187000Y-85692000I0J250000D01*
G01*
G37*
G36*
G01*
X180287000Y-85692000D02*
X180287000Y-84742000D01*
G75*
G02*
X180537000Y-84492000I250000J0D01*
G01*
X181037000Y-84492000D01*
G75*
G02*
X181287000Y-84742000I0J-250000D01*
G01*
X181287000Y-85692000D01*
G75*
G02*
X181037000Y-85942000I-250000J0D01*
G01*
X180537000Y-85942000D01*
G75*
G02*
X180287000Y-85692000I0J250000D01*
G01*
G37*
%TD*%
%TO.C,C11*%
G36*
G01*
X165234200Y-97594400D02*
X165234200Y-98544400D01*
G75*
G02*
X164984200Y-98794400I-250000J0D01*
G01*
X164484200Y-98794400D01*
G75*
G02*
X164234200Y-98544400I0J250000D01*
G01*
X164234200Y-97594400D01*
G75*
G02*
X164484200Y-97344400I250000J0D01*
G01*
X164984200Y-97344400D01*
G75*
G02*
X165234200Y-97594400I0J-250000D01*
G01*
G37*
G36*
G01*
X167134200Y-97594400D02*
X167134200Y-98544400D01*
G75*
G02*
X166884200Y-98794400I-250000J0D01*
G01*
X166384200Y-98794400D01*
G75*
G02*
X166134200Y-98544400I0J250000D01*
G01*
X166134200Y-97594400D01*
G75*
G02*
X166384200Y-97344400I250000J0D01*
G01*
X166884200Y-97344400D01*
G75*
G02*
X167134200Y-97594400I0J-250000D01*
G01*
G37*
%TD*%
%TO.C,C10*%
G36*
G01*
X179992000Y-104971000D02*
X180942000Y-104971000D01*
G75*
G02*
X181192000Y-105221000I0J-250000D01*
G01*
X181192000Y-105721000D01*
G75*
G02*
X180942000Y-105971000I-250000J0D01*
G01*
X179992000Y-105971000D01*
G75*
G02*
X179742000Y-105721000I0J250000D01*
G01*
X179742000Y-105221000D01*
G75*
G02*
X179992000Y-104971000I250000J0D01*
G01*
G37*
G36*
G01*
X179992000Y-103071000D02*
X180942000Y-103071000D01*
G75*
G02*
X181192000Y-103321000I0J-250000D01*
G01*
X181192000Y-103821000D01*
G75*
G02*
X180942000Y-104071000I-250000J0D01*
G01*
X179992000Y-104071000D01*
G75*
G02*
X179742000Y-103821000I0J250000D01*
G01*
X179742000Y-103321000D01*
G75*
G02*
X179992000Y-103071000I250000J0D01*
G01*
G37*
%TD*%
%TO.C,C9*%
G36*
G01*
X180942000Y-107881000D02*
X179992000Y-107881000D01*
G75*
G02*
X179742000Y-107631000I0J250000D01*
G01*
X179742000Y-107131000D01*
G75*
G02*
X179992000Y-106881000I250000J0D01*
G01*
X180942000Y-106881000D01*
G75*
G02*
X181192000Y-107131000I0J-250000D01*
G01*
X181192000Y-107631000D01*
G75*
G02*
X180942000Y-107881000I-250000J0D01*
G01*
G37*
G36*
G01*
X180942000Y-109781000D02*
X179992000Y-109781000D01*
G75*
G02*
X179742000Y-109531000I0J250000D01*
G01*
X179742000Y-109031000D01*
G75*
G02*
X179992000Y-108781000I250000J0D01*
G01*
X180942000Y-108781000D01*
G75*
G02*
X181192000Y-109031000I0J-250000D01*
G01*
X181192000Y-109531000D01*
G75*
G02*
X180942000Y-109781000I-250000J0D01*
G01*
G37*
%TD*%
%TO.C,C8*%
G36*
G01*
X169603000Y-78138000D02*
X169603000Y-79088000D01*
G75*
G02*
X169353000Y-79338000I-250000J0D01*
G01*
X168853000Y-79338000D01*
G75*
G02*
X168603000Y-79088000I0J250000D01*
G01*
X168603000Y-78138000D01*
G75*
G02*
X168853000Y-77888000I250000J0D01*
G01*
X169353000Y-77888000D01*
G75*
G02*
X169603000Y-78138000I0J-250000D01*
G01*
G37*
G36*
G01*
X171503000Y-78138000D02*
X171503000Y-79088000D01*
G75*
G02*
X171253000Y-79338000I-250000J0D01*
G01*
X170753000Y-79338000D01*
G75*
G02*
X170503000Y-79088000I0J250000D01*
G01*
X170503000Y-78138000D01*
G75*
G02*
X170753000Y-77888000I250000J0D01*
G01*
X171253000Y-77888000D01*
G75*
G02*
X171503000Y-78138000I0J-250000D01*
G01*
G37*
%TD*%
%TO.C,C7*%
G36*
G01*
X180500000Y-94303000D02*
X181450000Y-94303000D01*
G75*
G02*
X181700000Y-94553000I0J-250000D01*
G01*
X181700000Y-95053000D01*
G75*
G02*
X181450000Y-95303000I-250000J0D01*
G01*
X180500000Y-95303000D01*
G75*
G02*
X180250000Y-95053000I0J250000D01*
G01*
X180250000Y-94553000D01*
G75*
G02*
X180500000Y-94303000I250000J0D01*
G01*
G37*
G36*
G01*
X180500000Y-92403000D02*
X181450000Y-92403000D01*
G75*
G02*
X181700000Y-92653000I0J-250000D01*
G01*
X181700000Y-93153000D01*
G75*
G02*
X181450000Y-93403000I-250000J0D01*
G01*
X180500000Y-93403000D01*
G75*
G02*
X180250000Y-93153000I0J250000D01*
G01*
X180250000Y-92653000D01*
G75*
G02*
X180500000Y-92403000I250000J0D01*
G01*
G37*
%TD*%
%TO.C,C3*%
G36*
G01*
X155354000Y-100907000D02*
X156304000Y-100907000D01*
G75*
G02*
X156554000Y-101157000I0J-250000D01*
G01*
X156554000Y-101657000D01*
G75*
G02*
X156304000Y-101907000I-250000J0D01*
G01*
X155354000Y-101907000D01*
G75*
G02*
X155104000Y-101657000I0J250000D01*
G01*
X155104000Y-101157000D01*
G75*
G02*
X155354000Y-100907000I250000J0D01*
G01*
G37*
G36*
G01*
X155354000Y-99007000D02*
X156304000Y-99007000D01*
G75*
G02*
X156554000Y-99257000I0J-250000D01*
G01*
X156554000Y-99757000D01*
G75*
G02*
X156304000Y-100007000I-250000J0D01*
G01*
X155354000Y-100007000D01*
G75*
G02*
X155104000Y-99757000I0J250000D01*
G01*
X155104000Y-99257000D01*
G75*
G02*
X155354000Y-99007000I250000J0D01*
G01*
G37*
%TD*%
%TO.C,C2*%
G36*
G01*
X165351000Y-105570000D02*
X165351000Y-106520000D01*
G75*
G02*
X165101000Y-106770000I-250000J0D01*
G01*
X164601000Y-106770000D01*
G75*
G02*
X164351000Y-106520000I0J250000D01*
G01*
X164351000Y-105570000D01*
G75*
G02*
X164601000Y-105320000I250000J0D01*
G01*
X165101000Y-105320000D01*
G75*
G02*
X165351000Y-105570000I0J-250000D01*
G01*
G37*
G36*
G01*
X167251000Y-105570000D02*
X167251000Y-106520000D01*
G75*
G02*
X167001000Y-106770000I-250000J0D01*
G01*
X166501000Y-106770000D01*
G75*
G02*
X166251000Y-106520000I0J250000D01*
G01*
X166251000Y-105570000D01*
G75*
G02*
X166501000Y-105320000I250000J0D01*
G01*
X167001000Y-105320000D01*
G75*
G02*
X167251000Y-105570000I0J-250000D01*
G01*
G37*
%TD*%
%TO.C,C1*%
G36*
G01*
X157549000Y-106520000D02*
X157549000Y-105570000D01*
G75*
G02*
X157799000Y-105320000I250000J0D01*
G01*
X158299000Y-105320000D01*
G75*
G02*
X158549000Y-105570000I0J-250000D01*
G01*
X158549000Y-106520000D01*
G75*
G02*
X158299000Y-106770000I-250000J0D01*
G01*
X157799000Y-106770000D01*
G75*
G02*
X157549000Y-106520000I0J250000D01*
G01*
G37*
G36*
G01*
X155649000Y-106520000D02*
X155649000Y-105570000D01*
G75*
G02*
X155899000Y-105320000I250000J0D01*
G01*
X156399000Y-105320000D01*
G75*
G02*
X156649000Y-105570000I0J-250000D01*
G01*
X156649000Y-106520000D01*
G75*
G02*
X156399000Y-106770000I-250000J0D01*
G01*
X155899000Y-106770000D01*
G75*
G02*
X155649000Y-106520000I0J250000D01*
G01*
G37*
%TD*%
%TO.C,UE7-1*%
G36*
G01*
X190985000Y-103989000D02*
X191285000Y-103989000D01*
G75*
G02*
X191435000Y-104139000I0J-150000D01*
G01*
X191435000Y-105789000D01*
G75*
G02*
X191285000Y-105939000I-150000J0D01*
G01*
X190985000Y-105939000D01*
G75*
G02*
X190835000Y-105789000I0J150000D01*
G01*
X190835000Y-104139000D01*
G75*
G02*
X190985000Y-103989000I150000J0D01*
G01*
G37*
G36*
G01*
X189715000Y-103989000D02*
X190015000Y-103989000D01*
G75*
G02*
X190165000Y-104139000I0J-150000D01*
G01*
X190165000Y-105789000D01*
G75*
G02*
X190015000Y-105939000I-150000J0D01*
G01*
X189715000Y-105939000D01*
G75*
G02*
X189565000Y-105789000I0J150000D01*
G01*
X189565000Y-104139000D01*
G75*
G02*
X189715000Y-103989000I150000J0D01*
G01*
G37*
G36*
G01*
X188445000Y-103989000D02*
X188745000Y-103989000D01*
G75*
G02*
X188895000Y-104139000I0J-150000D01*
G01*
X188895000Y-105789000D01*
G75*
G02*
X188745000Y-105939000I-150000J0D01*
G01*
X188445000Y-105939000D01*
G75*
G02*
X188295000Y-105789000I0J150000D01*
G01*
X188295000Y-104139000D01*
G75*
G02*
X188445000Y-103989000I150000J0D01*
G01*
G37*
G36*
G01*
X187175000Y-103989000D02*
X187475000Y-103989000D01*
G75*
G02*
X187625000Y-104139000I0J-150000D01*
G01*
X187625000Y-105789000D01*
G75*
G02*
X187475000Y-105939000I-150000J0D01*
G01*
X187175000Y-105939000D01*
G75*
G02*
X187025000Y-105789000I0J150000D01*
G01*
X187025000Y-104139000D01*
G75*
G02*
X187175000Y-103989000I150000J0D01*
G01*
G37*
G36*
G01*
X185905000Y-103989000D02*
X186205000Y-103989000D01*
G75*
G02*
X186355000Y-104139000I0J-150000D01*
G01*
X186355000Y-105789000D01*
G75*
G02*
X186205000Y-105939000I-150000J0D01*
G01*
X185905000Y-105939000D01*
G75*
G02*
X185755000Y-105789000I0J150000D01*
G01*
X185755000Y-104139000D01*
G75*
G02*
X185905000Y-103989000I150000J0D01*
G01*
G37*
G36*
G01*
X184635000Y-103989000D02*
X184935000Y-103989000D01*
G75*
G02*
X185085000Y-104139000I0J-150000D01*
G01*
X185085000Y-105789000D01*
G75*
G02*
X184935000Y-105939000I-150000J0D01*
G01*
X184635000Y-105939000D01*
G75*
G02*
X184485000Y-105789000I0J150000D01*
G01*
X184485000Y-104139000D01*
G75*
G02*
X184635000Y-103989000I150000J0D01*
G01*
G37*
G36*
G01*
X183365000Y-103989000D02*
X183665000Y-103989000D01*
G75*
G02*
X183815000Y-104139000I0J-150000D01*
G01*
X183815000Y-105789000D01*
G75*
G02*
X183665000Y-105939000I-150000J0D01*
G01*
X183365000Y-105939000D01*
G75*
G02*
X183215000Y-105789000I0J150000D01*
G01*
X183215000Y-104139000D01*
G75*
G02*
X183365000Y-103989000I150000J0D01*
G01*
G37*
G36*
G01*
X183365000Y-99039000D02*
X183665000Y-99039000D01*
G75*
G02*
X183815000Y-99189000I0J-150000D01*
G01*
X183815000Y-100839000D01*
G75*
G02*
X183665000Y-100989000I-150000J0D01*
G01*
X183365000Y-100989000D01*
G75*
G02*
X183215000Y-100839000I0J150000D01*
G01*
X183215000Y-99189000D01*
G75*
G02*
X183365000Y-99039000I150000J0D01*
G01*
G37*
G36*
G01*
X184635000Y-99039000D02*
X184935000Y-99039000D01*
G75*
G02*
X185085000Y-99189000I0J-150000D01*
G01*
X185085000Y-100839000D01*
G75*
G02*
X184935000Y-100989000I-150000J0D01*
G01*
X184635000Y-100989000D01*
G75*
G02*
X184485000Y-100839000I0J150000D01*
G01*
X184485000Y-99189000D01*
G75*
G02*
X184635000Y-99039000I150000J0D01*
G01*
G37*
G36*
G01*
X185905000Y-99039000D02*
X186205000Y-99039000D01*
G75*
G02*
X186355000Y-99189000I0J-150000D01*
G01*
X186355000Y-100839000D01*
G75*
G02*
X186205000Y-100989000I-150000J0D01*
G01*
X185905000Y-100989000D01*
G75*
G02*
X185755000Y-100839000I0J150000D01*
G01*
X185755000Y-99189000D01*
G75*
G02*
X185905000Y-99039000I150000J0D01*
G01*
G37*
G36*
G01*
X187175000Y-99039000D02*
X187475000Y-99039000D01*
G75*
G02*
X187625000Y-99189000I0J-150000D01*
G01*
X187625000Y-100839000D01*
G75*
G02*
X187475000Y-100989000I-150000J0D01*
G01*
X187175000Y-100989000D01*
G75*
G02*
X187025000Y-100839000I0J150000D01*
G01*
X187025000Y-99189000D01*
G75*
G02*
X187175000Y-99039000I150000J0D01*
G01*
G37*
G36*
G01*
X188445000Y-99039000D02*
X188745000Y-99039000D01*
G75*
G02*
X188895000Y-99189000I0J-150000D01*
G01*
X188895000Y-100839000D01*
G75*
G02*
X188745000Y-100989000I-150000J0D01*
G01*
X188445000Y-100989000D01*
G75*
G02*
X188295000Y-100839000I0J150000D01*
G01*
X188295000Y-99189000D01*
G75*
G02*
X188445000Y-99039000I150000J0D01*
G01*
G37*
G36*
G01*
X189715000Y-99039000D02*
X190015000Y-99039000D01*
G75*
G02*
X190165000Y-99189000I0J-150000D01*
G01*
X190165000Y-100839000D01*
G75*
G02*
X190015000Y-100989000I-150000J0D01*
G01*
X189715000Y-100989000D01*
G75*
G02*
X189565000Y-100839000I0J150000D01*
G01*
X189565000Y-99189000D01*
G75*
G02*
X189715000Y-99039000I150000J0D01*
G01*
G37*
G36*
G01*
X190985000Y-99039000D02*
X191285000Y-99039000D01*
G75*
G02*
X191435000Y-99189000I0J-150000D01*
G01*
X191435000Y-100839000D01*
G75*
G02*
X191285000Y-100989000I-150000J0D01*
G01*
X190985000Y-100989000D01*
G75*
G02*
X190835000Y-100839000I0J150000D01*
G01*
X190835000Y-99189000D01*
G75*
G02*
X190985000Y-99039000I150000J0D01*
G01*
G37*
%TD*%
D12*
%TO.C,U2*%
X110490000Y-80450000D03*
X105410000Y-80450000D03*
X105410000Y-84650000D03*
X110490000Y-84650000D03*
X107950000Y-80450000D03*
X107950000Y-84650000D03*
%TD*%
D13*
%TO.C,U1*%
X111336000Y-73980000D03*
X111336000Y-75880000D03*
X109136000Y-75880000D03*
X109136000Y-74930000D03*
X109136000Y-73980000D03*
%TD*%
D14*
%TO.C,Q3*%
X158004000Y-75057000D03*
X160004000Y-74107000D03*
X160004000Y-76007000D03*
%TD*%
D15*
%TO.C,Q2*%
X154559000Y-118253000D03*
X155509000Y-120253000D03*
X153609000Y-120253000D03*
%TD*%
%TO.C,Q1*%
X154559000Y-125111000D03*
X155509000Y-127111000D03*
X153609000Y-127111000D03*
%TD*%
%TO.C,C15*%
G36*
G01*
X109720000Y-77503000D02*
X109720000Y-78453000D01*
G75*
G02*
X109470000Y-78703000I-250000J0D01*
G01*
X108970000Y-78703000D01*
G75*
G02*
X108720000Y-78453000I0J250000D01*
G01*
X108720000Y-77503000D01*
G75*
G02*
X108970000Y-77253000I250000J0D01*
G01*
X109470000Y-77253000D01*
G75*
G02*
X109720000Y-77503000I0J-250000D01*
G01*
G37*
G36*
G01*
X111620000Y-77503000D02*
X111620000Y-78453000D01*
G75*
G02*
X111370000Y-78703000I-250000J0D01*
G01*
X110870000Y-78703000D01*
G75*
G02*
X110620000Y-78453000I0J250000D01*
G01*
X110620000Y-77503000D01*
G75*
G02*
X110870000Y-77253000I250000J0D01*
G01*
X111370000Y-77253000D01*
G75*
G02*
X111620000Y-77503000I0J-250000D01*
G01*
G37*
%TD*%
%TO.C,C14*%
G36*
G01*
X101288000Y-73627000D02*
X101288000Y-72677000D01*
G75*
G02*
X101538000Y-72427000I250000J0D01*
G01*
X102038000Y-72427000D01*
G75*
G02*
X102288000Y-72677000I0J-250000D01*
G01*
X102288000Y-73627000D01*
G75*
G02*
X102038000Y-73877000I-250000J0D01*
G01*
X101538000Y-73877000D01*
G75*
G02*
X101288000Y-73627000I0J250000D01*
G01*
G37*
G36*
G01*
X99388000Y-73627000D02*
X99388000Y-72677000D01*
G75*
G02*
X99638000Y-72427000I250000J0D01*
G01*
X100138000Y-72427000D01*
G75*
G02*
X100388000Y-72677000I0J-250000D01*
G01*
X100388000Y-73627000D01*
G75*
G02*
X100138000Y-73877000I-250000J0D01*
G01*
X99638000Y-73877000D01*
G75*
G02*
X99388000Y-73627000I0J250000D01*
G01*
G37*
%TD*%
M02*
