%TF.GenerationSoftware,KiCad,Pcbnew,(5.1.10)-1*%
%TF.CreationDate,2021-06-15T10:47:19-05:00*%
%TF.ProjectId,gd 6502 proto pcb,67642036-3530-4322-9070-726f746f2070,rev?*%
%TF.SameCoordinates,Original*%
%TF.FileFunction,Soldermask,Top*%
%TF.FilePolarity,Negative*%
%FSLAX46Y46*%
G04 Gerber Fmt 4.6, Leading zero omitted, Abs format (unit mm)*
G04 Created by KiCad (PCBNEW (5.1.10)-1) date 2021-06-15 10:47:19*
%MOMM*%
%LPD*%
G01*
G04 APERTURE LIST*
%ADD10C,0.100000*%
%ADD11C,0.095901*%
%ADD12C,0.134262*%
%ADD13C,2.700000*%
%ADD14O,1.700000X1.700000*%
%ADD15R,1.700000X1.700000*%
%ADD16R,0.520000X1.500000*%
%ADD17R,1.500000X0.520000*%
%ADD18O,2.400000X1.600000*%
%ADD19R,2.400000X1.600000*%
%ADD20R,0.700000X0.640000*%
%ADD21R,0.700000X0.500000*%
%ADD22R,1.000000X1.500000*%
%ADD23C,1.600000*%
G04 APERTURE END LIST*
D10*
G36*
X208915000Y-64770000D02*
G01*
X201295000Y-64770000D01*
X201295000Y-61595000D01*
X208915000Y-61595000D01*
X208915000Y-64770000D01*
G37*
X208915000Y-64770000D02*
X201295000Y-64770000D01*
X201295000Y-61595000D01*
X208915000Y-61595000D01*
X208915000Y-64770000D01*
G36*
X224155000Y-78105000D02*
G01*
X219710000Y-78105000D01*
X219710000Y-68580000D01*
X224155000Y-68580000D01*
X224155000Y-78105000D01*
G37*
X224155000Y-78105000D02*
X219710000Y-78105000D01*
X219710000Y-68580000D01*
X224155000Y-68580000D01*
X224155000Y-78105000D01*
G36*
X224155000Y-108585000D02*
G01*
X217805000Y-108585000D01*
X217805000Y-100330000D01*
X224155000Y-100330000D01*
X224155000Y-108585000D01*
G37*
X224155000Y-108585000D02*
X217805000Y-108585000D01*
X217805000Y-100330000D01*
X224155000Y-100330000D01*
X224155000Y-108585000D01*
G36*
X182880000Y-114935000D02*
G01*
X177800000Y-114935000D01*
X177800000Y-112395000D01*
X182880000Y-112395000D01*
X182880000Y-114935000D01*
G37*
X182880000Y-114935000D02*
X177800000Y-114935000D01*
X177800000Y-112395000D01*
X182880000Y-112395000D01*
X182880000Y-114935000D01*
G36*
X135255000Y-107315000D02*
G01*
X130810000Y-107315000D01*
X130810000Y-99695000D01*
X135255000Y-99695000D01*
X135255000Y-107315000D01*
G37*
X135255000Y-107315000D02*
X130810000Y-107315000D01*
X130810000Y-99695000D01*
X135255000Y-99695000D01*
X135255000Y-107315000D01*
G36*
X177800000Y-64770000D02*
G01*
X149860000Y-64770000D01*
X149860000Y-59690000D01*
X177800000Y-59690000D01*
X177800000Y-64770000D01*
G37*
X177800000Y-64770000D02*
X149860000Y-64770000D01*
X149860000Y-59690000D01*
X177800000Y-59690000D01*
X177800000Y-64770000D01*
G36*
X139065000Y-83947000D02*
G01*
X133985000Y-83947000D01*
X133985000Y-81343500D01*
X139065000Y-81343500D01*
X139065000Y-83947000D01*
G37*
X139065000Y-83947000D02*
X133985000Y-83947000D01*
X133985000Y-81343500D01*
X139065000Y-81343500D01*
X139065000Y-83947000D01*
D11*
%TO.C,svg2mod*%
G36*
X187852750Y-112999261D02*
G01*
X187852750Y-112915563D01*
X187922750Y-112915563D01*
X187972750Y-112910413D01*
X188000250Y-112888522D01*
X188012750Y-112849892D01*
X188000250Y-112812550D01*
X187974000Y-112791948D01*
X187920250Y-112788085D01*
X187852750Y-112788084D01*
X187852750Y-112915563D01*
X187852750Y-112999261D01*
X187852750Y-113196274D01*
X187739000Y-113196274D01*
X187739000Y-112697948D01*
X187951500Y-112697948D01*
X188046500Y-112712112D01*
X188105250Y-112763618D01*
X188129000Y-112847317D01*
X188108219Y-112924255D01*
X188045250Y-112976083D01*
X188134000Y-113196274D01*
X188009000Y-113196274D01*
X187935250Y-112999261D01*
X187852750Y-112999261D01*
G37*
X187852750Y-112999261D02*
X187852750Y-112915563D01*
X187922750Y-112915563D01*
X187972750Y-112910413D01*
X188000250Y-112888522D01*
X188012750Y-112849892D01*
X188000250Y-112812550D01*
X187974000Y-112791948D01*
X187920250Y-112788085D01*
X187852750Y-112788084D01*
X187852750Y-112915563D01*
X187852750Y-112999261D01*
X187852750Y-113196274D01*
X187739000Y-113196274D01*
X187739000Y-112697948D01*
X187951500Y-112697948D01*
X188046500Y-112712112D01*
X188105250Y-112763618D01*
X188129000Y-112847317D01*
X188108219Y-112924255D01*
X188045250Y-112976083D01*
X188134000Y-113196274D01*
X188009000Y-113196274D01*
X187935250Y-112999261D01*
X187852750Y-112999261D01*
G36*
X187671500Y-112793235D02*
G01*
X187441500Y-112793235D01*
X187441500Y-112894960D01*
X187621500Y-112894960D01*
X187621500Y-112988960D01*
X187440250Y-112988960D01*
X187440250Y-113097123D01*
X187671500Y-113097123D01*
X187671500Y-113196274D01*
X187326500Y-113196274D01*
X187326500Y-112697948D01*
X187671500Y-112697948D01*
X187671500Y-112793235D01*
G37*
X187671500Y-112793235D02*
X187441500Y-112793235D01*
X187441500Y-112894960D01*
X187621500Y-112894960D01*
X187621500Y-112988960D01*
X187440250Y-112988960D01*
X187440250Y-113097123D01*
X187671500Y-113097123D01*
X187671500Y-113196274D01*
X187326500Y-113196274D01*
X187326500Y-112697948D01*
X187671500Y-112697948D01*
X187671500Y-112793235D01*
G36*
X187257750Y-112793235D02*
G01*
X187027750Y-112793235D01*
X187027750Y-112894960D01*
X187209000Y-112894960D01*
X187209000Y-112988960D01*
X187027750Y-112988960D01*
X187027750Y-113097123D01*
X187257750Y-113097123D01*
X187257750Y-113196274D01*
X186912750Y-113196274D01*
X186912750Y-112697948D01*
X187257750Y-112697948D01*
X187257750Y-112793235D01*
G37*
X187257750Y-112793235D02*
X187027750Y-112793235D01*
X187027750Y-112894960D01*
X187209000Y-112894960D01*
X187209000Y-112988960D01*
X187027750Y-112988960D01*
X187027750Y-113097123D01*
X187257750Y-113097123D01*
X187257750Y-113196274D01*
X186912750Y-113196274D01*
X186912750Y-112697948D01*
X187257750Y-112697948D01*
X187257750Y-112793235D01*
G36*
X186815250Y-112699235D02*
G01*
X186815250Y-113197561D01*
X186719000Y-113197561D01*
X186530250Y-112861481D01*
X186531493Y-112878221D01*
X186532737Y-112900111D01*
X186532737Y-113198849D01*
X186443987Y-113198849D01*
X186443987Y-112700523D01*
X186566487Y-112700523D01*
X186731487Y-112994110D01*
X186728987Y-112960631D01*
X186728987Y-112700523D01*
X186815237Y-112700523D01*
X186815250Y-112699235D01*
G37*
X186815250Y-112699235D02*
X186815250Y-113197561D01*
X186719000Y-113197561D01*
X186530250Y-112861481D01*
X186531493Y-112878221D01*
X186532737Y-112900111D01*
X186532737Y-113198849D01*
X186443987Y-113198849D01*
X186443987Y-112700523D01*
X186566487Y-112700523D01*
X186731487Y-112994110D01*
X186728987Y-112960631D01*
X186728987Y-112700523D01*
X186815237Y-112700523D01*
X186815250Y-112699235D01*
G36*
X186345250Y-112699235D02*
G01*
X186345250Y-113197561D01*
X186232750Y-113197561D01*
X186232750Y-112699235D01*
X186345250Y-112699235D01*
G37*
X186345250Y-112699235D02*
X186345250Y-113197561D01*
X186232750Y-113197561D01*
X186232750Y-112699235D01*
X186345250Y-112699235D01*
G36*
X186144000Y-112931015D02*
G01*
X186144000Y-113197561D01*
X186092750Y-113197561D01*
X186076500Y-113139616D01*
X185944000Y-113204000D01*
X185859937Y-113186616D01*
X185796500Y-113134466D01*
X185757125Y-113054470D01*
X185744000Y-112954193D01*
X185758062Y-112846673D01*
X185800250Y-112762331D01*
X185866656Y-112708410D01*
X185952750Y-112690222D01*
X186082750Y-112736577D01*
X186142750Y-112861481D01*
X186035250Y-112875645D01*
X185951500Y-112785509D01*
X185881500Y-112828002D01*
X185857750Y-112950330D01*
X185882750Y-113067507D01*
X185955250Y-113107425D01*
X186009000Y-113086822D01*
X186032750Y-113021151D01*
X185941500Y-113021151D01*
X185941500Y-112928439D01*
X186144000Y-112928439D01*
X186144000Y-112931015D01*
G37*
X186144000Y-112931015D02*
X186144000Y-113197561D01*
X186092750Y-113197561D01*
X186076500Y-113139616D01*
X185944000Y-113204000D01*
X185859937Y-113186616D01*
X185796500Y-113134466D01*
X185757125Y-113054470D01*
X185744000Y-112954193D01*
X185758062Y-112846673D01*
X185800250Y-112762331D01*
X185866656Y-112708410D01*
X185952750Y-112690222D01*
X186082750Y-112736577D01*
X186142750Y-112861481D01*
X186035250Y-112875645D01*
X185951500Y-112785509D01*
X185881500Y-112828002D01*
X185857750Y-112950330D01*
X185882750Y-113067507D01*
X185955250Y-113107425D01*
X186009000Y-113086822D01*
X186032750Y-113021151D01*
X185941500Y-113021151D01*
X185941500Y-112928439D01*
X186144000Y-112928439D01*
X186144000Y-112931015D01*
G36*
X185669000Y-112699235D02*
G01*
X185669000Y-113197561D01*
X185572750Y-113197561D01*
X185384000Y-112860193D01*
X185385243Y-112876933D01*
X185386487Y-112898823D01*
X185386487Y-113197561D01*
X185297737Y-113197561D01*
X185297737Y-112699235D01*
X185420237Y-112699235D01*
X185585237Y-112992823D01*
X185582737Y-112959343D01*
X185582737Y-112699235D01*
X185669000Y-112699235D01*
G37*
X185669000Y-112699235D02*
X185669000Y-113197561D01*
X185572750Y-113197561D01*
X185384000Y-112860193D01*
X185385243Y-112876933D01*
X185386487Y-112898823D01*
X185386487Y-113197561D01*
X185297737Y-113197561D01*
X185297737Y-112699235D01*
X185420237Y-112699235D01*
X185585237Y-112992823D01*
X185582737Y-112959343D01*
X185582737Y-112699235D01*
X185669000Y-112699235D01*
G36*
X185229000Y-112793235D02*
G01*
X184999000Y-112793235D01*
X184999000Y-112894960D01*
X185180250Y-112894960D01*
X185180250Y-112988960D01*
X184999000Y-112988960D01*
X184999000Y-113097123D01*
X185229000Y-113097123D01*
X185229000Y-113196274D01*
X184884000Y-113196274D01*
X184884000Y-112697948D01*
X185229000Y-112697948D01*
X185229000Y-112793235D01*
G37*
X185229000Y-112793235D02*
X184999000Y-112793235D01*
X184999000Y-112894960D01*
X185180250Y-112894960D01*
X185180250Y-112988960D01*
X184999000Y-112988960D01*
X184999000Y-113097123D01*
X185229000Y-113097123D01*
X185229000Y-113196274D01*
X184884000Y-113196274D01*
X184884000Y-112697948D01*
X185229000Y-112697948D01*
X185229000Y-112793235D01*
D12*
G36*
X184739000Y-109048708D02*
G01*
X184477613Y-109481644D01*
X184538531Y-109388329D01*
X184628746Y-109325435D01*
X184739000Y-109302377D01*
X184849781Y-109325435D01*
X184939937Y-109388329D01*
X185000562Y-109481644D01*
X185022750Y-109595965D01*
X185000562Y-109709541D01*
X184939937Y-109802474D01*
X184849781Y-109865228D01*
X184739000Y-109888265D01*
X184628219Y-109865228D01*
X184538062Y-109802474D01*
X184477437Y-109709541D01*
X184455250Y-109595965D01*
X184477613Y-109481644D01*
X184739000Y-109048708D01*
X184600898Y-109067546D01*
X184476685Y-109120435D01*
X184370250Y-109201940D01*
X183402750Y-109201940D01*
X183402750Y-109989990D01*
X184370250Y-109989990D01*
X184476130Y-110072067D01*
X184600620Y-110124670D01*
X184739000Y-110143222D01*
X184880348Y-110123699D01*
X185007287Y-110068585D01*
X185114781Y-109983069D01*
X185197796Y-109872336D01*
X185251297Y-109741572D01*
X185270250Y-109595965D01*
X185251297Y-109450358D01*
X185197796Y-109319594D01*
X185114781Y-109208861D01*
X185007287Y-109123344D01*
X184880348Y-109068231D01*
X184739000Y-109048708D01*
G37*
X184739000Y-109048708D02*
X184477613Y-109481644D01*
X184538531Y-109388329D01*
X184628746Y-109325435D01*
X184739000Y-109302377D01*
X184849781Y-109325435D01*
X184939937Y-109388329D01*
X185000562Y-109481644D01*
X185022750Y-109595965D01*
X185000562Y-109709541D01*
X184939937Y-109802474D01*
X184849781Y-109865228D01*
X184739000Y-109888265D01*
X184628219Y-109865228D01*
X184538062Y-109802474D01*
X184477437Y-109709541D01*
X184455250Y-109595965D01*
X184477613Y-109481644D01*
X184739000Y-109048708D01*
X184600898Y-109067546D01*
X184476685Y-109120435D01*
X184370250Y-109201940D01*
X183402750Y-109201940D01*
X183402750Y-109989990D01*
X184370250Y-109989990D01*
X184476130Y-110072067D01*
X184600620Y-110124670D01*
X184739000Y-110143222D01*
X184880348Y-110123699D01*
X185007287Y-110068585D01*
X185114781Y-109983069D01*
X185197796Y-109872336D01*
X185251297Y-109741572D01*
X185270250Y-109595965D01*
X185251297Y-109450358D01*
X185197796Y-109319594D01*
X185114781Y-109208861D01*
X185007287Y-109123344D01*
X184880348Y-109068231D01*
X184739000Y-109048708D01*
G36*
X186549000Y-111401270D02*
G01*
X187866500Y-111401270D01*
X187866500Y-112012910D01*
X186549000Y-112012910D01*
X186549000Y-111401270D01*
G37*
X186549000Y-111401270D02*
X187866500Y-111401270D01*
X187866500Y-112012910D01*
X186549000Y-112012910D01*
X186549000Y-111401270D01*
G36*
X186549000Y-109997716D02*
G01*
X187866500Y-109997716D01*
X187866500Y-110609357D01*
X186549000Y-110609357D01*
X186549000Y-109997716D01*
G37*
X186549000Y-109997716D02*
X187866500Y-109997716D01*
X187866500Y-110609357D01*
X186549000Y-110609357D01*
X186549000Y-109997716D01*
G36*
X186549000Y-108598025D02*
G01*
X187866500Y-108598025D01*
X187866500Y-109209666D01*
X186549000Y-109209666D01*
X186549000Y-108598025D01*
G37*
X186549000Y-108598025D02*
X187866500Y-108598025D01*
X187866500Y-109209666D01*
X186549000Y-109209666D01*
X186549000Y-108598025D01*
G36*
X184739000Y-110445823D02*
G01*
X184477613Y-110878961D01*
X184538531Y-110786088D01*
X184628746Y-110723637D01*
X184739000Y-110700781D01*
X184849781Y-110723818D01*
X184939937Y-110786571D01*
X185000562Y-110879505D01*
X185022750Y-110993080D01*
X185000562Y-111107401D01*
X184939937Y-111200716D01*
X184849781Y-111263611D01*
X184739000Y-111286668D01*
X184628219Y-111263611D01*
X184538062Y-111200716D01*
X184477437Y-111107401D01*
X184455250Y-110993080D01*
X184477613Y-110878961D01*
X184739000Y-110445823D01*
X184600898Y-110464661D01*
X184476685Y-110517551D01*
X184370250Y-110599055D01*
X183402750Y-110599055D01*
X183402750Y-111387106D01*
X184370250Y-111387106D01*
X184476130Y-111469182D01*
X184600620Y-111521786D01*
X184739000Y-111540338D01*
X184880348Y-111520814D01*
X185007287Y-111465701D01*
X185114781Y-111380185D01*
X185197796Y-111269451D01*
X185251297Y-111138688D01*
X185270250Y-110993080D01*
X185251297Y-110847473D01*
X185197796Y-110716710D01*
X185114781Y-110605976D01*
X185007287Y-110520460D01*
X184880348Y-110465347D01*
X184739000Y-110445823D01*
G37*
X184739000Y-110445823D02*
X184477613Y-110878961D01*
X184538531Y-110786088D01*
X184628746Y-110723637D01*
X184739000Y-110700781D01*
X184849781Y-110723818D01*
X184939937Y-110786571D01*
X185000562Y-110879505D01*
X185022750Y-110993080D01*
X185000562Y-111107401D01*
X184939937Y-111200716D01*
X184849781Y-111263611D01*
X184739000Y-111286668D01*
X184628219Y-111263611D01*
X184538062Y-111200716D01*
X184477437Y-111107401D01*
X184455250Y-110993080D01*
X184477613Y-110878961D01*
X184739000Y-110445823D01*
X184600898Y-110464661D01*
X184476685Y-110517551D01*
X184370250Y-110599055D01*
X183402750Y-110599055D01*
X183402750Y-111387106D01*
X184370250Y-111387106D01*
X184476130Y-111469182D01*
X184600620Y-111521786D01*
X184739000Y-111540338D01*
X184880348Y-111520814D01*
X185007287Y-111465701D01*
X185114781Y-111380185D01*
X185197796Y-111269451D01*
X185251297Y-111138688D01*
X185270250Y-110993080D01*
X185251297Y-110847473D01*
X185197796Y-110716710D01*
X185114781Y-110605976D01*
X185007287Y-110520460D01*
X184880348Y-110465347D01*
X184739000Y-110445823D01*
%TD*%
D13*
%TO.C,H4*%
X220853000Y-111734600D03*
%TD*%
%TO.C,H3*%
X136050000Y-111760000D03*
%TD*%
%TO.C,He*%
X220853000Y-64897000D03*
%TD*%
%TO.C,H1*%
X136050000Y-64930000D03*
%TD*%
D14*
%TO.C,J1*%
X147510500Y-107886500D03*
X147510500Y-110426500D03*
X144970500Y-107886500D03*
D15*
X144970500Y-110426500D03*
%TD*%
D14*
%TO.C,J10*%
X213360000Y-104394000D03*
X213360000Y-101854000D03*
X213360000Y-99314000D03*
X213360000Y-96774000D03*
X213360000Y-94234000D03*
X213360000Y-91694000D03*
D15*
X213360000Y-89154000D03*
%TD*%
D14*
%TO.C,J2*%
X176403000Y-98806000D03*
X176403000Y-96266000D03*
X176403000Y-93726000D03*
X176403000Y-91186000D03*
X176403000Y-88646000D03*
X176403000Y-86106000D03*
X176403000Y-83566000D03*
X176403000Y-81026000D03*
X176403000Y-78486000D03*
X176403000Y-75946000D03*
D15*
X176403000Y-73406000D03*
%TD*%
%TO.C,U5*%
G36*
G01*
X160464000Y-100688000D02*
X160464000Y-100988000D01*
G75*
G02*
X160314000Y-101138000I-150000J0D01*
G01*
X158564000Y-101138000D01*
G75*
G02*
X158414000Y-100988000I0J150000D01*
G01*
X158414000Y-100688000D01*
G75*
G02*
X158564000Y-100538000I150000J0D01*
G01*
X160314000Y-100538000D01*
G75*
G02*
X160464000Y-100688000I0J-150000D01*
G01*
G37*
G36*
G01*
X160464000Y-99418000D02*
X160464000Y-99718000D01*
G75*
G02*
X160314000Y-99868000I-150000J0D01*
G01*
X158564000Y-99868000D01*
G75*
G02*
X158414000Y-99718000I0J150000D01*
G01*
X158414000Y-99418000D01*
G75*
G02*
X158564000Y-99268000I150000J0D01*
G01*
X160314000Y-99268000D01*
G75*
G02*
X160464000Y-99418000I0J-150000D01*
G01*
G37*
G36*
G01*
X160464000Y-98148000D02*
X160464000Y-98448000D01*
G75*
G02*
X160314000Y-98598000I-150000J0D01*
G01*
X158564000Y-98598000D01*
G75*
G02*
X158414000Y-98448000I0J150000D01*
G01*
X158414000Y-98148000D01*
G75*
G02*
X158564000Y-97998000I150000J0D01*
G01*
X160314000Y-97998000D01*
G75*
G02*
X160464000Y-98148000I0J-150000D01*
G01*
G37*
G36*
G01*
X160464000Y-96878000D02*
X160464000Y-97178000D01*
G75*
G02*
X160314000Y-97328000I-150000J0D01*
G01*
X158564000Y-97328000D01*
G75*
G02*
X158414000Y-97178000I0J150000D01*
G01*
X158414000Y-96878000D01*
G75*
G02*
X158564000Y-96728000I150000J0D01*
G01*
X160314000Y-96728000D01*
G75*
G02*
X160464000Y-96878000I0J-150000D01*
G01*
G37*
G36*
G01*
X160464000Y-95608000D02*
X160464000Y-95908000D01*
G75*
G02*
X160314000Y-96058000I-150000J0D01*
G01*
X158564000Y-96058000D01*
G75*
G02*
X158414000Y-95908000I0J150000D01*
G01*
X158414000Y-95608000D01*
G75*
G02*
X158564000Y-95458000I150000J0D01*
G01*
X160314000Y-95458000D01*
G75*
G02*
X160464000Y-95608000I0J-150000D01*
G01*
G37*
G36*
G01*
X160464000Y-94338000D02*
X160464000Y-94638000D01*
G75*
G02*
X160314000Y-94788000I-150000J0D01*
G01*
X158564000Y-94788000D01*
G75*
G02*
X158414000Y-94638000I0J150000D01*
G01*
X158414000Y-94338000D01*
G75*
G02*
X158564000Y-94188000I150000J0D01*
G01*
X160314000Y-94188000D01*
G75*
G02*
X160464000Y-94338000I0J-150000D01*
G01*
G37*
G36*
G01*
X160464000Y-93068000D02*
X160464000Y-93368000D01*
G75*
G02*
X160314000Y-93518000I-150000J0D01*
G01*
X158564000Y-93518000D01*
G75*
G02*
X158414000Y-93368000I0J150000D01*
G01*
X158414000Y-93068000D01*
G75*
G02*
X158564000Y-92918000I150000J0D01*
G01*
X160314000Y-92918000D01*
G75*
G02*
X160464000Y-93068000I0J-150000D01*
G01*
G37*
G36*
G01*
X160464000Y-91798000D02*
X160464000Y-92098000D01*
G75*
G02*
X160314000Y-92248000I-150000J0D01*
G01*
X158564000Y-92248000D01*
G75*
G02*
X158414000Y-92098000I0J150000D01*
G01*
X158414000Y-91798000D01*
G75*
G02*
X158564000Y-91648000I150000J0D01*
G01*
X160314000Y-91648000D01*
G75*
G02*
X160464000Y-91798000I0J-150000D01*
G01*
G37*
G36*
G01*
X160464000Y-90528000D02*
X160464000Y-90828000D01*
G75*
G02*
X160314000Y-90978000I-150000J0D01*
G01*
X158564000Y-90978000D01*
G75*
G02*
X158414000Y-90828000I0J150000D01*
G01*
X158414000Y-90528000D01*
G75*
G02*
X158564000Y-90378000I150000J0D01*
G01*
X160314000Y-90378000D01*
G75*
G02*
X160464000Y-90528000I0J-150000D01*
G01*
G37*
G36*
G01*
X160464000Y-89258000D02*
X160464000Y-89558000D01*
G75*
G02*
X160314000Y-89708000I-150000J0D01*
G01*
X158564000Y-89708000D01*
G75*
G02*
X158414000Y-89558000I0J150000D01*
G01*
X158414000Y-89258000D01*
G75*
G02*
X158564000Y-89108000I150000J0D01*
G01*
X160314000Y-89108000D01*
G75*
G02*
X160464000Y-89258000I0J-150000D01*
G01*
G37*
G36*
G01*
X169764000Y-89258000D02*
X169764000Y-89558000D01*
G75*
G02*
X169614000Y-89708000I-150000J0D01*
G01*
X167864000Y-89708000D01*
G75*
G02*
X167714000Y-89558000I0J150000D01*
G01*
X167714000Y-89258000D01*
G75*
G02*
X167864000Y-89108000I150000J0D01*
G01*
X169614000Y-89108000D01*
G75*
G02*
X169764000Y-89258000I0J-150000D01*
G01*
G37*
G36*
G01*
X169764000Y-90528000D02*
X169764000Y-90828000D01*
G75*
G02*
X169614000Y-90978000I-150000J0D01*
G01*
X167864000Y-90978000D01*
G75*
G02*
X167714000Y-90828000I0J150000D01*
G01*
X167714000Y-90528000D01*
G75*
G02*
X167864000Y-90378000I150000J0D01*
G01*
X169614000Y-90378000D01*
G75*
G02*
X169764000Y-90528000I0J-150000D01*
G01*
G37*
G36*
G01*
X169764000Y-91798000D02*
X169764000Y-92098000D01*
G75*
G02*
X169614000Y-92248000I-150000J0D01*
G01*
X167864000Y-92248000D01*
G75*
G02*
X167714000Y-92098000I0J150000D01*
G01*
X167714000Y-91798000D01*
G75*
G02*
X167864000Y-91648000I150000J0D01*
G01*
X169614000Y-91648000D01*
G75*
G02*
X169764000Y-91798000I0J-150000D01*
G01*
G37*
G36*
G01*
X169764000Y-93068000D02*
X169764000Y-93368000D01*
G75*
G02*
X169614000Y-93518000I-150000J0D01*
G01*
X167864000Y-93518000D01*
G75*
G02*
X167714000Y-93368000I0J150000D01*
G01*
X167714000Y-93068000D01*
G75*
G02*
X167864000Y-92918000I150000J0D01*
G01*
X169614000Y-92918000D01*
G75*
G02*
X169764000Y-93068000I0J-150000D01*
G01*
G37*
G36*
G01*
X169764000Y-94338000D02*
X169764000Y-94638000D01*
G75*
G02*
X169614000Y-94788000I-150000J0D01*
G01*
X167864000Y-94788000D01*
G75*
G02*
X167714000Y-94638000I0J150000D01*
G01*
X167714000Y-94338000D01*
G75*
G02*
X167864000Y-94188000I150000J0D01*
G01*
X169614000Y-94188000D01*
G75*
G02*
X169764000Y-94338000I0J-150000D01*
G01*
G37*
G36*
G01*
X169764000Y-95608000D02*
X169764000Y-95908000D01*
G75*
G02*
X169614000Y-96058000I-150000J0D01*
G01*
X167864000Y-96058000D01*
G75*
G02*
X167714000Y-95908000I0J150000D01*
G01*
X167714000Y-95608000D01*
G75*
G02*
X167864000Y-95458000I150000J0D01*
G01*
X169614000Y-95458000D01*
G75*
G02*
X169764000Y-95608000I0J-150000D01*
G01*
G37*
G36*
G01*
X169764000Y-96878000D02*
X169764000Y-97178000D01*
G75*
G02*
X169614000Y-97328000I-150000J0D01*
G01*
X167864000Y-97328000D01*
G75*
G02*
X167714000Y-97178000I0J150000D01*
G01*
X167714000Y-96878000D01*
G75*
G02*
X167864000Y-96728000I150000J0D01*
G01*
X169614000Y-96728000D01*
G75*
G02*
X169764000Y-96878000I0J-150000D01*
G01*
G37*
G36*
G01*
X169764000Y-98148000D02*
X169764000Y-98448000D01*
G75*
G02*
X169614000Y-98598000I-150000J0D01*
G01*
X167864000Y-98598000D01*
G75*
G02*
X167714000Y-98448000I0J150000D01*
G01*
X167714000Y-98148000D01*
G75*
G02*
X167864000Y-97998000I150000J0D01*
G01*
X169614000Y-97998000D01*
G75*
G02*
X169764000Y-98148000I0J-150000D01*
G01*
G37*
G36*
G01*
X169764000Y-99418000D02*
X169764000Y-99718000D01*
G75*
G02*
X169614000Y-99868000I-150000J0D01*
G01*
X167864000Y-99868000D01*
G75*
G02*
X167714000Y-99718000I0J150000D01*
G01*
X167714000Y-99418000D01*
G75*
G02*
X167864000Y-99268000I150000J0D01*
G01*
X169614000Y-99268000D01*
G75*
G02*
X169764000Y-99418000I0J-150000D01*
G01*
G37*
G36*
G01*
X169764000Y-100688000D02*
X169764000Y-100988000D01*
G75*
G02*
X169614000Y-101138000I-150000J0D01*
G01*
X167864000Y-101138000D01*
G75*
G02*
X167714000Y-100988000I0J150000D01*
G01*
X167714000Y-100688000D01*
G75*
G02*
X167864000Y-100538000I150000J0D01*
G01*
X169614000Y-100538000D01*
G75*
G02*
X169764000Y-100688000I0J-150000D01*
G01*
G37*
%TD*%
D14*
%TO.C,J11*%
X205359000Y-102616000D03*
X202819000Y-102616000D03*
X200279000Y-102616000D03*
X197739000Y-102616000D03*
X195199000Y-102616000D03*
X192659000Y-102616000D03*
X190119000Y-102616000D03*
X187579000Y-102616000D03*
X185039000Y-102616000D03*
X182499000Y-102616000D03*
D15*
X179959000Y-102616000D03*
%TD*%
D14*
%TO.C,J4*%
X205359000Y-69596000D03*
X202819000Y-69596000D03*
X200279000Y-69596000D03*
X197739000Y-69596000D03*
X195199000Y-69596000D03*
X192659000Y-69596000D03*
X190119000Y-69596000D03*
X187579000Y-69596000D03*
X185039000Y-69596000D03*
X182499000Y-69596000D03*
D15*
X179959000Y-69596000D03*
%TD*%
D14*
%TO.C,J3*%
X208915000Y-73406000D03*
X208915000Y-75946000D03*
X208915000Y-78486000D03*
X208915000Y-81026000D03*
X208915000Y-83566000D03*
X208915000Y-86106000D03*
X208915000Y-88646000D03*
X208915000Y-91186000D03*
X208915000Y-93726000D03*
X208915000Y-96266000D03*
D15*
X208915000Y-98806000D03*
%TD*%
D14*
%TO.C,J12*%
X146304000Y-66294000D03*
D15*
X143764000Y-66294000D03*
%TD*%
%TO.C,R4*%
G36*
G01*
X158959500Y-106368001D02*
X158959500Y-105467999D01*
G75*
G02*
X159209499Y-105218000I249999J0D01*
G01*
X159734501Y-105218000D01*
G75*
G02*
X159984500Y-105467999I0J-249999D01*
G01*
X159984500Y-106368001D01*
G75*
G02*
X159734501Y-106618000I-249999J0D01*
G01*
X159209499Y-106618000D01*
G75*
G02*
X158959500Y-106368001I0J249999D01*
G01*
G37*
G36*
G01*
X157134500Y-106368001D02*
X157134500Y-105467999D01*
G75*
G02*
X157384499Y-105218000I249999J0D01*
G01*
X157909501Y-105218000D01*
G75*
G02*
X158159500Y-105467999I0J-249999D01*
G01*
X158159500Y-106368001D01*
G75*
G02*
X157909501Y-106618000I-249999J0D01*
G01*
X157384499Y-106618000D01*
G75*
G02*
X157134500Y-106368001I0J249999D01*
G01*
G37*
%TD*%
%TO.C,D1*%
G36*
G01*
X159311500Y-109270500D02*
X158061500Y-109270500D01*
G75*
G02*
X157811500Y-109020500I0J250000D01*
G01*
X157811500Y-108270500D01*
G75*
G02*
X158061500Y-108020500I250000J0D01*
G01*
X159311500Y-108020500D01*
G75*
G02*
X159561500Y-108270500I0J-250000D01*
G01*
X159561500Y-109020500D01*
G75*
G02*
X159311500Y-109270500I-250000J0D01*
G01*
G37*
G36*
G01*
X159311500Y-112070500D02*
X158061500Y-112070500D01*
G75*
G02*
X157811500Y-111820500I0J250000D01*
G01*
X157811500Y-111070500D01*
G75*
G02*
X158061500Y-110820500I250000J0D01*
G01*
X159311500Y-110820500D01*
G75*
G02*
X159561500Y-111070500I0J-250000D01*
G01*
X159561500Y-111820500D01*
G75*
G02*
X159311500Y-112070500I-250000J0D01*
G01*
G37*
%TD*%
%TO.C,U4*%
G36*
G01*
X160464000Y-82908000D02*
X160464000Y-83208000D01*
G75*
G02*
X160314000Y-83358000I-150000J0D01*
G01*
X158564000Y-83358000D01*
G75*
G02*
X158414000Y-83208000I0J150000D01*
G01*
X158414000Y-82908000D01*
G75*
G02*
X158564000Y-82758000I150000J0D01*
G01*
X160314000Y-82758000D01*
G75*
G02*
X160464000Y-82908000I0J-150000D01*
G01*
G37*
G36*
G01*
X160464000Y-81638000D02*
X160464000Y-81938000D01*
G75*
G02*
X160314000Y-82088000I-150000J0D01*
G01*
X158564000Y-82088000D01*
G75*
G02*
X158414000Y-81938000I0J150000D01*
G01*
X158414000Y-81638000D01*
G75*
G02*
X158564000Y-81488000I150000J0D01*
G01*
X160314000Y-81488000D01*
G75*
G02*
X160464000Y-81638000I0J-150000D01*
G01*
G37*
G36*
G01*
X160464000Y-80368000D02*
X160464000Y-80668000D01*
G75*
G02*
X160314000Y-80818000I-150000J0D01*
G01*
X158564000Y-80818000D01*
G75*
G02*
X158414000Y-80668000I0J150000D01*
G01*
X158414000Y-80368000D01*
G75*
G02*
X158564000Y-80218000I150000J0D01*
G01*
X160314000Y-80218000D01*
G75*
G02*
X160464000Y-80368000I0J-150000D01*
G01*
G37*
G36*
G01*
X160464000Y-79098000D02*
X160464000Y-79398000D01*
G75*
G02*
X160314000Y-79548000I-150000J0D01*
G01*
X158564000Y-79548000D01*
G75*
G02*
X158414000Y-79398000I0J150000D01*
G01*
X158414000Y-79098000D01*
G75*
G02*
X158564000Y-78948000I150000J0D01*
G01*
X160314000Y-78948000D01*
G75*
G02*
X160464000Y-79098000I0J-150000D01*
G01*
G37*
G36*
G01*
X160464000Y-77828000D02*
X160464000Y-78128000D01*
G75*
G02*
X160314000Y-78278000I-150000J0D01*
G01*
X158564000Y-78278000D01*
G75*
G02*
X158414000Y-78128000I0J150000D01*
G01*
X158414000Y-77828000D01*
G75*
G02*
X158564000Y-77678000I150000J0D01*
G01*
X160314000Y-77678000D01*
G75*
G02*
X160464000Y-77828000I0J-150000D01*
G01*
G37*
G36*
G01*
X160464000Y-76558000D02*
X160464000Y-76858000D01*
G75*
G02*
X160314000Y-77008000I-150000J0D01*
G01*
X158564000Y-77008000D01*
G75*
G02*
X158414000Y-76858000I0J150000D01*
G01*
X158414000Y-76558000D01*
G75*
G02*
X158564000Y-76408000I150000J0D01*
G01*
X160314000Y-76408000D01*
G75*
G02*
X160464000Y-76558000I0J-150000D01*
G01*
G37*
G36*
G01*
X160464000Y-75288000D02*
X160464000Y-75588000D01*
G75*
G02*
X160314000Y-75738000I-150000J0D01*
G01*
X158564000Y-75738000D01*
G75*
G02*
X158414000Y-75588000I0J150000D01*
G01*
X158414000Y-75288000D01*
G75*
G02*
X158564000Y-75138000I150000J0D01*
G01*
X160314000Y-75138000D01*
G75*
G02*
X160464000Y-75288000I0J-150000D01*
G01*
G37*
G36*
G01*
X160464000Y-74018000D02*
X160464000Y-74318000D01*
G75*
G02*
X160314000Y-74468000I-150000J0D01*
G01*
X158564000Y-74468000D01*
G75*
G02*
X158414000Y-74318000I0J150000D01*
G01*
X158414000Y-74018000D01*
G75*
G02*
X158564000Y-73868000I150000J0D01*
G01*
X160314000Y-73868000D01*
G75*
G02*
X160464000Y-74018000I0J-150000D01*
G01*
G37*
G36*
G01*
X160464000Y-72748000D02*
X160464000Y-73048000D01*
G75*
G02*
X160314000Y-73198000I-150000J0D01*
G01*
X158564000Y-73198000D01*
G75*
G02*
X158414000Y-73048000I0J150000D01*
G01*
X158414000Y-72748000D01*
G75*
G02*
X158564000Y-72598000I150000J0D01*
G01*
X160314000Y-72598000D01*
G75*
G02*
X160464000Y-72748000I0J-150000D01*
G01*
G37*
G36*
G01*
X160464000Y-71478000D02*
X160464000Y-71778000D01*
G75*
G02*
X160314000Y-71928000I-150000J0D01*
G01*
X158564000Y-71928000D01*
G75*
G02*
X158414000Y-71778000I0J150000D01*
G01*
X158414000Y-71478000D01*
G75*
G02*
X158564000Y-71328000I150000J0D01*
G01*
X160314000Y-71328000D01*
G75*
G02*
X160464000Y-71478000I0J-150000D01*
G01*
G37*
G36*
G01*
X169764000Y-71478000D02*
X169764000Y-71778000D01*
G75*
G02*
X169614000Y-71928000I-150000J0D01*
G01*
X167864000Y-71928000D01*
G75*
G02*
X167714000Y-71778000I0J150000D01*
G01*
X167714000Y-71478000D01*
G75*
G02*
X167864000Y-71328000I150000J0D01*
G01*
X169614000Y-71328000D01*
G75*
G02*
X169764000Y-71478000I0J-150000D01*
G01*
G37*
G36*
G01*
X169764000Y-72748000D02*
X169764000Y-73048000D01*
G75*
G02*
X169614000Y-73198000I-150000J0D01*
G01*
X167864000Y-73198000D01*
G75*
G02*
X167714000Y-73048000I0J150000D01*
G01*
X167714000Y-72748000D01*
G75*
G02*
X167864000Y-72598000I150000J0D01*
G01*
X169614000Y-72598000D01*
G75*
G02*
X169764000Y-72748000I0J-150000D01*
G01*
G37*
G36*
G01*
X169764000Y-74018000D02*
X169764000Y-74318000D01*
G75*
G02*
X169614000Y-74468000I-150000J0D01*
G01*
X167864000Y-74468000D01*
G75*
G02*
X167714000Y-74318000I0J150000D01*
G01*
X167714000Y-74018000D01*
G75*
G02*
X167864000Y-73868000I150000J0D01*
G01*
X169614000Y-73868000D01*
G75*
G02*
X169764000Y-74018000I0J-150000D01*
G01*
G37*
G36*
G01*
X169764000Y-75288000D02*
X169764000Y-75588000D01*
G75*
G02*
X169614000Y-75738000I-150000J0D01*
G01*
X167864000Y-75738000D01*
G75*
G02*
X167714000Y-75588000I0J150000D01*
G01*
X167714000Y-75288000D01*
G75*
G02*
X167864000Y-75138000I150000J0D01*
G01*
X169614000Y-75138000D01*
G75*
G02*
X169764000Y-75288000I0J-150000D01*
G01*
G37*
G36*
G01*
X169764000Y-76558000D02*
X169764000Y-76858000D01*
G75*
G02*
X169614000Y-77008000I-150000J0D01*
G01*
X167864000Y-77008000D01*
G75*
G02*
X167714000Y-76858000I0J150000D01*
G01*
X167714000Y-76558000D01*
G75*
G02*
X167864000Y-76408000I150000J0D01*
G01*
X169614000Y-76408000D01*
G75*
G02*
X169764000Y-76558000I0J-150000D01*
G01*
G37*
G36*
G01*
X169764000Y-77828000D02*
X169764000Y-78128000D01*
G75*
G02*
X169614000Y-78278000I-150000J0D01*
G01*
X167864000Y-78278000D01*
G75*
G02*
X167714000Y-78128000I0J150000D01*
G01*
X167714000Y-77828000D01*
G75*
G02*
X167864000Y-77678000I150000J0D01*
G01*
X169614000Y-77678000D01*
G75*
G02*
X169764000Y-77828000I0J-150000D01*
G01*
G37*
G36*
G01*
X169764000Y-79098000D02*
X169764000Y-79398000D01*
G75*
G02*
X169614000Y-79548000I-150000J0D01*
G01*
X167864000Y-79548000D01*
G75*
G02*
X167714000Y-79398000I0J150000D01*
G01*
X167714000Y-79098000D01*
G75*
G02*
X167864000Y-78948000I150000J0D01*
G01*
X169614000Y-78948000D01*
G75*
G02*
X169764000Y-79098000I0J-150000D01*
G01*
G37*
G36*
G01*
X169764000Y-80368000D02*
X169764000Y-80668000D01*
G75*
G02*
X169614000Y-80818000I-150000J0D01*
G01*
X167864000Y-80818000D01*
G75*
G02*
X167714000Y-80668000I0J150000D01*
G01*
X167714000Y-80368000D01*
G75*
G02*
X167864000Y-80218000I150000J0D01*
G01*
X169614000Y-80218000D01*
G75*
G02*
X169764000Y-80368000I0J-150000D01*
G01*
G37*
G36*
G01*
X169764000Y-81638000D02*
X169764000Y-81938000D01*
G75*
G02*
X169614000Y-82088000I-150000J0D01*
G01*
X167864000Y-82088000D01*
G75*
G02*
X167714000Y-81938000I0J150000D01*
G01*
X167714000Y-81638000D01*
G75*
G02*
X167864000Y-81488000I150000J0D01*
G01*
X169614000Y-81488000D01*
G75*
G02*
X169764000Y-81638000I0J-150000D01*
G01*
G37*
G36*
G01*
X169764000Y-82908000D02*
X169764000Y-83208000D01*
G75*
G02*
X169614000Y-83358000I-150000J0D01*
G01*
X167864000Y-83358000D01*
G75*
G02*
X167714000Y-83208000I0J150000D01*
G01*
X167714000Y-82908000D01*
G75*
G02*
X167864000Y-82758000I150000J0D01*
G01*
X169614000Y-82758000D01*
G75*
G02*
X169764000Y-82908000I0J-150000D01*
G01*
G37*
%TD*%
%TO.C,U3*%
G36*
G01*
X216701500Y-78509000D02*
X216701500Y-78209000D01*
G75*
G02*
X216851500Y-78059000I150000J0D01*
G01*
X218501500Y-78059000D01*
G75*
G02*
X218651500Y-78209000I0J-150000D01*
G01*
X218651500Y-78509000D01*
G75*
G02*
X218501500Y-78659000I-150000J0D01*
G01*
X216851500Y-78659000D01*
G75*
G02*
X216701500Y-78509000I0J150000D01*
G01*
G37*
G36*
G01*
X216701500Y-79779000D02*
X216701500Y-79479000D01*
G75*
G02*
X216851500Y-79329000I150000J0D01*
G01*
X218501500Y-79329000D01*
G75*
G02*
X218651500Y-79479000I0J-150000D01*
G01*
X218651500Y-79779000D01*
G75*
G02*
X218501500Y-79929000I-150000J0D01*
G01*
X216851500Y-79929000D01*
G75*
G02*
X216701500Y-79779000I0J150000D01*
G01*
G37*
G36*
G01*
X216701500Y-81049000D02*
X216701500Y-80749000D01*
G75*
G02*
X216851500Y-80599000I150000J0D01*
G01*
X218501500Y-80599000D01*
G75*
G02*
X218651500Y-80749000I0J-150000D01*
G01*
X218651500Y-81049000D01*
G75*
G02*
X218501500Y-81199000I-150000J0D01*
G01*
X216851500Y-81199000D01*
G75*
G02*
X216701500Y-81049000I0J150000D01*
G01*
G37*
G36*
G01*
X216701500Y-82319000D02*
X216701500Y-82019000D01*
G75*
G02*
X216851500Y-81869000I150000J0D01*
G01*
X218501500Y-81869000D01*
G75*
G02*
X218651500Y-82019000I0J-150000D01*
G01*
X218651500Y-82319000D01*
G75*
G02*
X218501500Y-82469000I-150000J0D01*
G01*
X216851500Y-82469000D01*
G75*
G02*
X216701500Y-82319000I0J150000D01*
G01*
G37*
G36*
G01*
X216701500Y-83589000D02*
X216701500Y-83289000D01*
G75*
G02*
X216851500Y-83139000I150000J0D01*
G01*
X218501500Y-83139000D01*
G75*
G02*
X218651500Y-83289000I0J-150000D01*
G01*
X218651500Y-83589000D01*
G75*
G02*
X218501500Y-83739000I-150000J0D01*
G01*
X216851500Y-83739000D01*
G75*
G02*
X216701500Y-83589000I0J150000D01*
G01*
G37*
G36*
G01*
X216701500Y-84859000D02*
X216701500Y-84559000D01*
G75*
G02*
X216851500Y-84409000I150000J0D01*
G01*
X218501500Y-84409000D01*
G75*
G02*
X218651500Y-84559000I0J-150000D01*
G01*
X218651500Y-84859000D01*
G75*
G02*
X218501500Y-85009000I-150000J0D01*
G01*
X216851500Y-85009000D01*
G75*
G02*
X216701500Y-84859000I0J150000D01*
G01*
G37*
G36*
G01*
X216701500Y-86129000D02*
X216701500Y-85829000D01*
G75*
G02*
X216851500Y-85679000I150000J0D01*
G01*
X218501500Y-85679000D01*
G75*
G02*
X218651500Y-85829000I0J-150000D01*
G01*
X218651500Y-86129000D01*
G75*
G02*
X218501500Y-86279000I-150000J0D01*
G01*
X216851500Y-86279000D01*
G75*
G02*
X216701500Y-86129000I0J150000D01*
G01*
G37*
G36*
G01*
X211751500Y-86129000D02*
X211751500Y-85829000D01*
G75*
G02*
X211901500Y-85679000I150000J0D01*
G01*
X213551500Y-85679000D01*
G75*
G02*
X213701500Y-85829000I0J-150000D01*
G01*
X213701500Y-86129000D01*
G75*
G02*
X213551500Y-86279000I-150000J0D01*
G01*
X211901500Y-86279000D01*
G75*
G02*
X211751500Y-86129000I0J150000D01*
G01*
G37*
G36*
G01*
X211751500Y-84859000D02*
X211751500Y-84559000D01*
G75*
G02*
X211901500Y-84409000I150000J0D01*
G01*
X213551500Y-84409000D01*
G75*
G02*
X213701500Y-84559000I0J-150000D01*
G01*
X213701500Y-84859000D01*
G75*
G02*
X213551500Y-85009000I-150000J0D01*
G01*
X211901500Y-85009000D01*
G75*
G02*
X211751500Y-84859000I0J150000D01*
G01*
G37*
G36*
G01*
X211751500Y-83589000D02*
X211751500Y-83289000D01*
G75*
G02*
X211901500Y-83139000I150000J0D01*
G01*
X213551500Y-83139000D01*
G75*
G02*
X213701500Y-83289000I0J-150000D01*
G01*
X213701500Y-83589000D01*
G75*
G02*
X213551500Y-83739000I-150000J0D01*
G01*
X211901500Y-83739000D01*
G75*
G02*
X211751500Y-83589000I0J150000D01*
G01*
G37*
G36*
G01*
X211751500Y-82319000D02*
X211751500Y-82019000D01*
G75*
G02*
X211901500Y-81869000I150000J0D01*
G01*
X213551500Y-81869000D01*
G75*
G02*
X213701500Y-82019000I0J-150000D01*
G01*
X213701500Y-82319000D01*
G75*
G02*
X213551500Y-82469000I-150000J0D01*
G01*
X211901500Y-82469000D01*
G75*
G02*
X211751500Y-82319000I0J150000D01*
G01*
G37*
G36*
G01*
X211751500Y-81049000D02*
X211751500Y-80749000D01*
G75*
G02*
X211901500Y-80599000I150000J0D01*
G01*
X213551500Y-80599000D01*
G75*
G02*
X213701500Y-80749000I0J-150000D01*
G01*
X213701500Y-81049000D01*
G75*
G02*
X213551500Y-81199000I-150000J0D01*
G01*
X211901500Y-81199000D01*
G75*
G02*
X211751500Y-81049000I0J150000D01*
G01*
G37*
G36*
G01*
X211751500Y-79779000D02*
X211751500Y-79479000D01*
G75*
G02*
X211901500Y-79329000I150000J0D01*
G01*
X213551500Y-79329000D01*
G75*
G02*
X213701500Y-79479000I0J-150000D01*
G01*
X213701500Y-79779000D01*
G75*
G02*
X213551500Y-79929000I-150000J0D01*
G01*
X211901500Y-79929000D01*
G75*
G02*
X211751500Y-79779000I0J150000D01*
G01*
G37*
G36*
G01*
X211751500Y-78509000D02*
X211751500Y-78209000D01*
G75*
G02*
X211901500Y-78059000I150000J0D01*
G01*
X213551500Y-78059000D01*
G75*
G02*
X213701500Y-78209000I0J-150000D01*
G01*
X213701500Y-78509000D01*
G75*
G02*
X213551500Y-78659000I-150000J0D01*
G01*
X211901500Y-78659000D01*
G75*
G02*
X211751500Y-78509000I0J150000D01*
G01*
G37*
%TD*%
D16*
%TO.C,U2*%
X188659000Y-80056000D03*
X189459000Y-80056000D03*
X190259000Y-80056000D03*
X191059000Y-80056000D03*
X191859000Y-80056000D03*
X192659000Y-80056000D03*
X193459000Y-80056000D03*
X194259000Y-80056000D03*
X195059000Y-80056000D03*
X195859000Y-80056000D03*
X196659000Y-80056000D03*
D17*
X198709000Y-82106000D03*
X198709000Y-82906000D03*
X198709000Y-83706000D03*
X198709000Y-84506000D03*
X198709000Y-85306000D03*
X198709000Y-86106000D03*
X198709000Y-86906000D03*
X198709000Y-87706000D03*
X198709000Y-88506000D03*
X198709000Y-89306000D03*
X198709000Y-90106000D03*
D16*
X196659000Y-92156000D03*
X195859000Y-92156000D03*
X195059000Y-92156000D03*
X194259000Y-92156000D03*
X193459000Y-92156000D03*
X192659000Y-92156000D03*
X191859000Y-92156000D03*
X191059000Y-92156000D03*
X190259000Y-92156000D03*
X189459000Y-92156000D03*
X188659000Y-92156000D03*
D17*
X186609000Y-90106000D03*
X186609000Y-89306000D03*
X186609000Y-88506000D03*
X186609000Y-87706000D03*
X186609000Y-86906000D03*
X186609000Y-86106000D03*
X186609000Y-85306000D03*
X186609000Y-84506000D03*
X186609000Y-83706000D03*
X186609000Y-82906000D03*
X186609000Y-82106000D03*
%TD*%
D18*
%TO.C,U1*%
X137414000Y-102997000D03*
X152654000Y-69977000D03*
X137414000Y-100457000D03*
X152654000Y-72517000D03*
X137414000Y-97917000D03*
X152654000Y-75057000D03*
X137414000Y-95377000D03*
X152654000Y-77597000D03*
X137414000Y-92837000D03*
X152654000Y-80137000D03*
X137414000Y-90297000D03*
X152654000Y-82677000D03*
X137414000Y-87757000D03*
X152654000Y-85217000D03*
X137414000Y-85217000D03*
X152654000Y-87757000D03*
X137414000Y-82677000D03*
X152654000Y-90297000D03*
X137414000Y-80137000D03*
X152654000Y-92837000D03*
X137414000Y-77597000D03*
X152654000Y-95377000D03*
X137414000Y-75057000D03*
X152654000Y-97917000D03*
X137414000Y-72517000D03*
X152654000Y-100457000D03*
X137414000Y-69977000D03*
D19*
X152654000Y-102997000D03*
%TD*%
%TO.C,RNP1*%
G36*
G01*
X213506000Y-75824501D02*
X213506000Y-74924499D01*
G75*
G02*
X213755999Y-74674500I249999J0D01*
G01*
X214281001Y-74674500D01*
G75*
G02*
X214531000Y-74924499I0J-249999D01*
G01*
X214531000Y-75824501D01*
G75*
G02*
X214281001Y-76074500I-249999J0D01*
G01*
X213755999Y-76074500D01*
G75*
G02*
X213506000Y-75824501I0J249999D01*
G01*
G37*
G36*
G01*
X211681000Y-75824501D02*
X211681000Y-74924499D01*
G75*
G02*
X211930999Y-74674500I249999J0D01*
G01*
X212456001Y-74674500D01*
G75*
G02*
X212706000Y-74924499I0J-249999D01*
G01*
X212706000Y-75824501D01*
G75*
G02*
X212456001Y-76074500I-249999J0D01*
G01*
X211930999Y-76074500D01*
G75*
G02*
X211681000Y-75824501I0J249999D01*
G01*
G37*
%TD*%
D20*
%TO.C,RN4*%
X163385500Y-95929500D03*
D21*
X163385500Y-97599500D03*
X163385500Y-96799500D03*
D20*
X163385500Y-98469500D03*
D21*
X164785500Y-96799500D03*
D20*
X164785500Y-95929500D03*
D21*
X164785500Y-97599500D03*
D20*
X164785500Y-98469500D03*
%TD*%
%TO.C,RN3*%
X163320500Y-90551000D03*
D21*
X163320500Y-92221000D03*
X163320500Y-91421000D03*
D20*
X163320500Y-93091000D03*
D21*
X164720500Y-91421000D03*
D20*
X164720500Y-90551000D03*
D21*
X164720500Y-92221000D03*
D20*
X164720500Y-93091000D03*
%TD*%
%TO.C,RN2*%
X163447500Y-78994000D03*
D21*
X163447500Y-80664000D03*
X163447500Y-79864000D03*
D20*
X163447500Y-81534000D03*
D21*
X164847500Y-79864000D03*
D20*
X164847500Y-78994000D03*
D21*
X164847500Y-80664000D03*
D20*
X164847500Y-81534000D03*
%TD*%
%TO.C,RN1*%
X163382500Y-72707500D03*
D21*
X163382500Y-74377500D03*
X163382500Y-73577500D03*
D20*
X163382500Y-75247500D03*
D21*
X164782500Y-73577500D03*
D20*
X164782500Y-72707500D03*
D21*
X164782500Y-74377500D03*
D20*
X164782500Y-75247500D03*
%TD*%
D10*
%TO.C,JP3*%
G36*
X217375500Y-72148602D02*
G01*
X217400034Y-72148602D01*
X217448865Y-72153412D01*
X217496990Y-72162984D01*
X217543945Y-72177228D01*
X217589278Y-72196005D01*
X217632551Y-72219136D01*
X217673350Y-72246396D01*
X217711279Y-72277524D01*
X217745976Y-72312221D01*
X217777104Y-72350150D01*
X217804364Y-72390949D01*
X217827495Y-72434222D01*
X217846272Y-72479555D01*
X217860516Y-72526510D01*
X217870088Y-72574635D01*
X217874898Y-72623466D01*
X217874898Y-72648000D01*
X217875500Y-72648000D01*
X217875500Y-73148000D01*
X217874898Y-73148000D01*
X217874898Y-73172534D01*
X217870088Y-73221365D01*
X217860516Y-73269490D01*
X217846272Y-73316445D01*
X217827495Y-73361778D01*
X217804364Y-73405051D01*
X217777104Y-73445850D01*
X217745976Y-73483779D01*
X217711279Y-73518476D01*
X217673350Y-73549604D01*
X217632551Y-73576864D01*
X217589278Y-73599995D01*
X217543945Y-73618772D01*
X217496990Y-73633016D01*
X217448865Y-73642588D01*
X217400034Y-73647398D01*
X217375500Y-73647398D01*
X217375500Y-73648000D01*
X216875500Y-73648000D01*
X216875500Y-72148000D01*
X217375500Y-72148000D01*
X217375500Y-72148602D01*
G37*
G36*
X216575500Y-73648000D02*
G01*
X216075500Y-73648000D01*
X216075500Y-73647398D01*
X216050966Y-73647398D01*
X216002135Y-73642588D01*
X215954010Y-73633016D01*
X215907055Y-73618772D01*
X215861722Y-73599995D01*
X215818449Y-73576864D01*
X215777650Y-73549604D01*
X215739721Y-73518476D01*
X215705024Y-73483779D01*
X215673896Y-73445850D01*
X215646636Y-73405051D01*
X215623505Y-73361778D01*
X215604728Y-73316445D01*
X215590484Y-73269490D01*
X215580912Y-73221365D01*
X215576102Y-73172534D01*
X215576102Y-73148000D01*
X215575500Y-73148000D01*
X215575500Y-72648000D01*
X215576102Y-72648000D01*
X215576102Y-72623466D01*
X215580912Y-72574635D01*
X215590484Y-72526510D01*
X215604728Y-72479555D01*
X215623505Y-72434222D01*
X215646636Y-72390949D01*
X215673896Y-72350150D01*
X215705024Y-72312221D01*
X215739721Y-72277524D01*
X215777650Y-72246396D01*
X215818449Y-72219136D01*
X215861722Y-72196005D01*
X215907055Y-72177228D01*
X215954010Y-72162984D01*
X216002135Y-72153412D01*
X216050966Y-72148602D01*
X216075500Y-72148602D01*
X216075500Y-72148000D01*
X216575500Y-72148000D01*
X216575500Y-73648000D01*
G37*
%TD*%
D22*
%TO.C,JP2*%
X212456000Y-72898000D03*
X213756000Y-72898000D03*
%TD*%
D14*
%TO.C,J9*%
X209804000Y-69596000D03*
D15*
X212344000Y-69596000D03*
%TD*%
D14*
%TO.C,J8*%
X156908500Y-68326000D03*
X159448500Y-68326000D03*
D15*
X161988500Y-68326000D03*
%TD*%
D14*
%TO.C,J7*%
X166179500Y-68326000D03*
X168719500Y-68326000D03*
D15*
X171259500Y-68326000D03*
%TD*%
D14*
%TO.C,J6*%
X173545500Y-108331000D03*
X173545500Y-110871000D03*
X171005500Y-108331000D03*
X171005500Y-110871000D03*
X168465500Y-108331000D03*
X168465500Y-110871000D03*
X165925500Y-108331000D03*
X165925500Y-110871000D03*
X163385500Y-108331000D03*
D15*
X163385500Y-110871000D03*
%TD*%
D14*
%TO.C,J5*%
X215963500Y-108394500D03*
X215963500Y-110934500D03*
X213423500Y-108394500D03*
X213423500Y-110934500D03*
X210883500Y-108394500D03*
X210883500Y-110934500D03*
X208343500Y-108394500D03*
X208343500Y-110934500D03*
X205803500Y-108394500D03*
X205803500Y-110934500D03*
X203263500Y-108394500D03*
X203263500Y-110934500D03*
X200723500Y-108394500D03*
X200723500Y-110934500D03*
X198183500Y-108394500D03*
X198183500Y-110934500D03*
X195643500Y-108394500D03*
X195643500Y-110934500D03*
X193103500Y-108394500D03*
D15*
X193103500Y-110934500D03*
%TD*%
%TO.C,C7*%
G36*
G01*
X216339000Y-74899500D02*
X216339000Y-75849500D01*
G75*
G02*
X216089000Y-76099500I-250000J0D01*
G01*
X215589000Y-76099500D01*
G75*
G02*
X215339000Y-75849500I0J250000D01*
G01*
X215339000Y-74899500D01*
G75*
G02*
X215589000Y-74649500I250000J0D01*
G01*
X216089000Y-74649500D01*
G75*
G02*
X216339000Y-74899500I0J-250000D01*
G01*
G37*
G36*
G01*
X218239000Y-74899500D02*
X218239000Y-75849500D01*
G75*
G02*
X217989000Y-76099500I-250000J0D01*
G01*
X217489000Y-76099500D01*
G75*
G02*
X217239000Y-75849500I0J250000D01*
G01*
X217239000Y-74899500D01*
G75*
G02*
X217489000Y-74649500I250000J0D01*
G01*
X217989000Y-74649500D01*
G75*
G02*
X218239000Y-74899500I0J-250000D01*
G01*
G37*
%TD*%
D23*
%TO.C,C2*%
X154773000Y-108839000D03*
X152273000Y-108839000D03*
%TD*%
M02*
