%TF.GenerationSoftware,KiCad,Pcbnew,(5.1.10)-1*%
%TF.CreationDate,2021-06-15T10:47:19-05:00*%
%TF.ProjectId,gd 6502 proto pcb,67642036-3530-4322-9070-726f746f2070,rev?*%
%TF.SameCoordinates,Original*%
%TF.FileFunction,Legend,Bot*%
%TF.FilePolarity,Positive*%
%FSLAX46Y46*%
G04 Gerber Fmt 4.6, Leading zero omitted, Abs format (unit mm)*
G04 Created by KiCad (PCBNEW (5.1.10)-1) date 2021-06-15 10:47:19*
%MOMM*%
%LPD*%
G01*
G04 APERTURE LIST*
%ADD10C,0.150000*%
%ADD11C,0.200000*%
%ADD12C,0.100000*%
%ADD13C,0.010000*%
%ADD14C,0.120000*%
G04 APERTURE END LIST*
D10*
X222347095Y-88899523D02*
X222347095Y-88442380D01*
X221547095Y-88670952D02*
X222347095Y-88670952D01*
X221547095Y-88175714D02*
X222347095Y-88175714D01*
X221547095Y-87832857D02*
X221966142Y-87832857D01*
X222042333Y-87870952D01*
X222080428Y-87947142D01*
X222080428Y-88061428D01*
X222042333Y-88137619D01*
X222004238Y-88175714D01*
X221547095Y-87109047D02*
X221966142Y-87109047D01*
X222042333Y-87147142D01*
X222080428Y-87223333D01*
X222080428Y-87375714D01*
X222042333Y-87451904D01*
X221585190Y-87109047D02*
X221547095Y-87185238D01*
X221547095Y-87375714D01*
X221585190Y-87451904D01*
X221661380Y-87490000D01*
X221737571Y-87490000D01*
X221813761Y-87451904D01*
X221851857Y-87375714D01*
X221851857Y-87185238D01*
X221889952Y-87109047D01*
X222080428Y-86728095D02*
X221547095Y-86728095D01*
X222004238Y-86728095D02*
X222042333Y-86690000D01*
X222080428Y-86613809D01*
X222080428Y-86499523D01*
X222042333Y-86423333D01*
X221966142Y-86385238D01*
X221547095Y-86385238D01*
X221547095Y-86004285D02*
X222347095Y-86004285D01*
X221851857Y-85928095D02*
X221547095Y-85699523D01*
X222080428Y-85699523D02*
X221775666Y-86004285D01*
X221585190Y-85394761D02*
X221547095Y-85318571D01*
X221547095Y-85166190D01*
X221585190Y-85090000D01*
X221661380Y-85051904D01*
X221699476Y-85051904D01*
X221775666Y-85090000D01*
X221813761Y-85166190D01*
X221813761Y-85280476D01*
X221851857Y-85356666D01*
X221928047Y-85394761D01*
X221966142Y-85394761D01*
X222042333Y-85356666D01*
X222080428Y-85280476D01*
X222080428Y-85166190D01*
X222042333Y-85090000D01*
X221623285Y-83642380D02*
X221585190Y-83680476D01*
X221547095Y-83794761D01*
X221547095Y-83870952D01*
X221585190Y-83985238D01*
X221661380Y-84061428D01*
X221737571Y-84099523D01*
X221889952Y-84137619D01*
X222004238Y-84137619D01*
X222156619Y-84099523D01*
X222232809Y-84061428D01*
X222309000Y-83985238D01*
X222347095Y-83870952D01*
X222347095Y-83794761D01*
X222309000Y-83680476D01*
X222270904Y-83642380D01*
X221547095Y-83299523D02*
X222347095Y-83299523D01*
X221547095Y-82956666D02*
X221966142Y-82956666D01*
X222042333Y-82994761D01*
X222080428Y-83070952D01*
X222080428Y-83185238D01*
X222042333Y-83261428D01*
X222004238Y-83299523D01*
X221547095Y-82232857D02*
X221966142Y-82232857D01*
X222042333Y-82270952D01*
X222080428Y-82347142D01*
X222080428Y-82499523D01*
X222042333Y-82575714D01*
X221585190Y-82232857D02*
X221547095Y-82309047D01*
X221547095Y-82499523D01*
X221585190Y-82575714D01*
X221661380Y-82613809D01*
X221737571Y-82613809D01*
X221813761Y-82575714D01*
X221851857Y-82499523D01*
X221851857Y-82309047D01*
X221889952Y-82232857D01*
X222080428Y-81966190D02*
X222080428Y-81661428D01*
X222347095Y-81851904D02*
X221661380Y-81851904D01*
X221585190Y-81813809D01*
X221547095Y-81737619D01*
X221547095Y-81661428D01*
X221623285Y-81394761D02*
X221585190Y-81356666D01*
X221547095Y-81394761D01*
X221585190Y-81432857D01*
X221623285Y-81394761D01*
X221547095Y-81394761D01*
X221851857Y-81394761D02*
X222309000Y-81432857D01*
X222347095Y-81394761D01*
X222309000Y-81356666D01*
X221851857Y-81394761D01*
X222347095Y-81394761D01*
X220578047Y-91566190D02*
X220197095Y-91566190D01*
X220997095Y-91832857D02*
X220578047Y-91566190D01*
X220997095Y-91299523D01*
X220197095Y-90918571D02*
X220235190Y-90994761D01*
X220273285Y-91032857D01*
X220349476Y-91070952D01*
X220578047Y-91070952D01*
X220654238Y-91032857D01*
X220692333Y-90994761D01*
X220730428Y-90918571D01*
X220730428Y-90804285D01*
X220692333Y-90728095D01*
X220654238Y-90690000D01*
X220578047Y-90651904D01*
X220349476Y-90651904D01*
X220273285Y-90690000D01*
X220235190Y-90728095D01*
X220197095Y-90804285D01*
X220197095Y-90918571D01*
X220730428Y-89966190D02*
X220197095Y-89966190D01*
X220730428Y-90309047D02*
X220311380Y-90309047D01*
X220235190Y-90270952D01*
X220197095Y-90194761D01*
X220197095Y-90080476D01*
X220235190Y-90004285D01*
X220273285Y-89966190D01*
X220197095Y-88594761D02*
X220197095Y-88975714D01*
X220997095Y-88975714D01*
X220197095Y-88213809D02*
X220235190Y-88290000D01*
X220273285Y-88328095D01*
X220349476Y-88366190D01*
X220578047Y-88366190D01*
X220654238Y-88328095D01*
X220692333Y-88290000D01*
X220730428Y-88213809D01*
X220730428Y-88099523D01*
X220692333Y-88023333D01*
X220654238Y-87985238D01*
X220578047Y-87947142D01*
X220349476Y-87947142D01*
X220273285Y-87985238D01*
X220235190Y-88023333D01*
X220197095Y-88099523D01*
X220197095Y-88213809D01*
X220197095Y-87490000D02*
X220235190Y-87566190D01*
X220273285Y-87604285D01*
X220349476Y-87642380D01*
X220578047Y-87642380D01*
X220654238Y-87604285D01*
X220692333Y-87566190D01*
X220730428Y-87490000D01*
X220730428Y-87375714D01*
X220692333Y-87299523D01*
X220654238Y-87261428D01*
X220578047Y-87223333D01*
X220349476Y-87223333D01*
X220273285Y-87261428D01*
X220235190Y-87299523D01*
X220197095Y-87375714D01*
X220197095Y-87490000D01*
X220197095Y-86880476D02*
X220997095Y-86880476D01*
X220501857Y-86804285D02*
X220197095Y-86575714D01*
X220730428Y-86575714D02*
X220425666Y-86880476D01*
X220959000Y-85204285D02*
X220997095Y-85280476D01*
X220997095Y-85394761D01*
X220959000Y-85509047D01*
X220882809Y-85585238D01*
X220806619Y-85623333D01*
X220654238Y-85661428D01*
X220539952Y-85661428D01*
X220387571Y-85623333D01*
X220311380Y-85585238D01*
X220235190Y-85509047D01*
X220197095Y-85394761D01*
X220197095Y-85318571D01*
X220235190Y-85204285D01*
X220273285Y-85166190D01*
X220539952Y-85166190D01*
X220539952Y-85318571D01*
X220197095Y-84823333D02*
X220730428Y-84823333D01*
X220578047Y-84823333D02*
X220654238Y-84785238D01*
X220692333Y-84747142D01*
X220730428Y-84670952D01*
X220730428Y-84594761D01*
X220235190Y-84023333D02*
X220197095Y-84099523D01*
X220197095Y-84251904D01*
X220235190Y-84328095D01*
X220311380Y-84366190D01*
X220616142Y-84366190D01*
X220692333Y-84328095D01*
X220730428Y-84251904D01*
X220730428Y-84099523D01*
X220692333Y-84023333D01*
X220616142Y-83985238D01*
X220539952Y-83985238D01*
X220463761Y-84366190D01*
X220197095Y-83299523D02*
X220616142Y-83299523D01*
X220692333Y-83337619D01*
X220730428Y-83413809D01*
X220730428Y-83566190D01*
X220692333Y-83642380D01*
X220235190Y-83299523D02*
X220197095Y-83375714D01*
X220197095Y-83566190D01*
X220235190Y-83642380D01*
X220311380Y-83680476D01*
X220387571Y-83680476D01*
X220463761Y-83642380D01*
X220501857Y-83566190D01*
X220501857Y-83375714D01*
X220539952Y-83299523D01*
X220730428Y-83032857D02*
X220730428Y-82728095D01*
X220997095Y-82918571D02*
X220311380Y-82918571D01*
X220235190Y-82880476D01*
X220197095Y-82804285D01*
X220197095Y-82728095D01*
X220997095Y-81966190D02*
X220997095Y-81509047D01*
X220197095Y-81737619D02*
X220997095Y-81737619D01*
X220197095Y-81128095D02*
X220235190Y-81204285D01*
X220273285Y-81242380D01*
X220349476Y-81280476D01*
X220578047Y-81280476D01*
X220654238Y-81242380D01*
X220692333Y-81204285D01*
X220730428Y-81128095D01*
X220730428Y-81013809D01*
X220692333Y-80937619D01*
X220654238Y-80899523D01*
X220578047Y-80861428D01*
X220349476Y-80861428D01*
X220273285Y-80899523D01*
X220235190Y-80937619D01*
X220197095Y-81013809D01*
X220197095Y-81128095D01*
X220197095Y-80175714D02*
X220997095Y-80175714D01*
X220235190Y-80175714D02*
X220197095Y-80251904D01*
X220197095Y-80404285D01*
X220235190Y-80480476D01*
X220273285Y-80518571D01*
X220349476Y-80556666D01*
X220578047Y-80556666D01*
X220654238Y-80518571D01*
X220692333Y-80480476D01*
X220730428Y-80404285D01*
X220730428Y-80251904D01*
X220692333Y-80175714D01*
X220197095Y-79451904D02*
X220616142Y-79451904D01*
X220692333Y-79490000D01*
X220730428Y-79566190D01*
X220730428Y-79718571D01*
X220692333Y-79794761D01*
X220235190Y-79451904D02*
X220197095Y-79528095D01*
X220197095Y-79718571D01*
X220235190Y-79794761D01*
X220311380Y-79832857D01*
X220387571Y-79832857D01*
X220463761Y-79794761D01*
X220501857Y-79718571D01*
X220501857Y-79528095D01*
X220539952Y-79451904D01*
X220730428Y-79147142D02*
X220197095Y-78956666D01*
X220730428Y-78766190D02*
X220197095Y-78956666D01*
X220006619Y-79032857D01*
X219968523Y-79070952D01*
X219930428Y-79147142D01*
X220273285Y-78461428D02*
X220235190Y-78423333D01*
X220197095Y-78461428D01*
X220235190Y-78499523D01*
X220273285Y-78461428D01*
X220197095Y-78461428D01*
X220501857Y-78461428D02*
X220959000Y-78499523D01*
X220997095Y-78461428D01*
X220959000Y-78423333D01*
X220501857Y-78461428D01*
X220997095Y-78461428D01*
D11*
X140527562Y-80800304D02*
X140479942Y-80705066D01*
X140479942Y-80562209D01*
X140527562Y-80419352D01*
X140622800Y-80324114D01*
X140718038Y-80276495D01*
X140908514Y-80228876D01*
X141051371Y-80228876D01*
X141241847Y-80276495D01*
X141337085Y-80324114D01*
X141432323Y-80419352D01*
X141479942Y-80562209D01*
X141479942Y-80657447D01*
X141432323Y-80800304D01*
X141384704Y-80847923D01*
X141051371Y-80847923D01*
X141051371Y-80657447D01*
X141479942Y-81276495D02*
X140479942Y-81276495D01*
X140479942Y-81514590D01*
X140527562Y-81657447D01*
X140622800Y-81752685D01*
X140718038Y-81800304D01*
X140908514Y-81847923D01*
X141051371Y-81847923D01*
X141241847Y-81800304D01*
X141337085Y-81752685D01*
X141432323Y-81657447D01*
X141479942Y-81514590D01*
X141479942Y-81276495D01*
X140479942Y-83466971D02*
X140479942Y-83276495D01*
X140527562Y-83181257D01*
X140575181Y-83133638D01*
X140718038Y-83038400D01*
X140908514Y-82990780D01*
X141289466Y-82990780D01*
X141384704Y-83038400D01*
X141432323Y-83086019D01*
X141479942Y-83181257D01*
X141479942Y-83371733D01*
X141432323Y-83466971D01*
X141384704Y-83514590D01*
X141289466Y-83562209D01*
X141051371Y-83562209D01*
X140956133Y-83514590D01*
X140908514Y-83466971D01*
X140860895Y-83371733D01*
X140860895Y-83181257D01*
X140908514Y-83086019D01*
X140956133Y-83038400D01*
X141051371Y-82990780D01*
X140479942Y-84466971D02*
X140479942Y-83990780D01*
X140956133Y-83943161D01*
X140908514Y-83990780D01*
X140860895Y-84086019D01*
X140860895Y-84324114D01*
X140908514Y-84419352D01*
X140956133Y-84466971D01*
X141051371Y-84514590D01*
X141289466Y-84514590D01*
X141384704Y-84466971D01*
X141432323Y-84419352D01*
X141479942Y-84324114D01*
X141479942Y-84086019D01*
X141432323Y-83990780D01*
X141384704Y-83943161D01*
X141432323Y-85371733D02*
X141479942Y-85276495D01*
X141479942Y-85086019D01*
X141432323Y-84990780D01*
X141384704Y-84943161D01*
X141289466Y-84895542D01*
X141003752Y-84895542D01*
X140908514Y-84943161D01*
X140860895Y-84990780D01*
X140813276Y-85086019D01*
X140813276Y-85276495D01*
X140860895Y-85371733D01*
X140479942Y-85990780D02*
X140479942Y-86086019D01*
X140527562Y-86181257D01*
X140575181Y-86228876D01*
X140670419Y-86276495D01*
X140860895Y-86324114D01*
X141098990Y-86324114D01*
X141289466Y-86276495D01*
X141384704Y-86228876D01*
X141432323Y-86181257D01*
X141479942Y-86086019D01*
X141479942Y-85990780D01*
X141432323Y-85895542D01*
X141384704Y-85847923D01*
X141289466Y-85800304D01*
X141098990Y-85752685D01*
X140860895Y-85752685D01*
X140670419Y-85800304D01*
X140575181Y-85847923D01*
X140527562Y-85895542D01*
X140479942Y-85990780D01*
X140575181Y-86705066D02*
X140527562Y-86752685D01*
X140479942Y-86847923D01*
X140479942Y-87086019D01*
X140527562Y-87181257D01*
X140575181Y-87228876D01*
X140670419Y-87276495D01*
X140765657Y-87276495D01*
X140908514Y-87228876D01*
X141479942Y-86657447D01*
X141479942Y-87276495D01*
X142703752Y-80895542D02*
X142656133Y-80847923D01*
X142608514Y-80752685D01*
X142608514Y-80657447D01*
X142656133Y-80562209D01*
X142703752Y-80514590D01*
X142798990Y-80466971D01*
X142894228Y-80466971D01*
X142989466Y-80514590D01*
X143037085Y-80562209D01*
X143084704Y-80657447D01*
X143084704Y-80752685D01*
X143037085Y-80847923D01*
X142989466Y-80895542D01*
X142608514Y-80895542D02*
X142989466Y-80895542D01*
X143037085Y-80943161D01*
X143037085Y-80990780D01*
X142989466Y-81086019D01*
X142894228Y-81133638D01*
X142656133Y-81133638D01*
X142513276Y-81038400D01*
X142418038Y-80895542D01*
X142370419Y-80705066D01*
X142418038Y-80514590D01*
X142513276Y-80371733D01*
X142656133Y-80276495D01*
X142846609Y-80228876D01*
X143037085Y-80276495D01*
X143179942Y-80371733D01*
X143275181Y-80514590D01*
X143322800Y-80705066D01*
X143275181Y-80895542D01*
X143179942Y-81038400D01*
X143179942Y-81562209D02*
X142179942Y-81562209D01*
X142560895Y-81562209D02*
X142513276Y-81657447D01*
X142513276Y-81847923D01*
X142560895Y-81943161D01*
X142608514Y-81990780D01*
X142703752Y-82038400D01*
X142989466Y-82038400D01*
X143084704Y-81990780D01*
X143132323Y-81943161D01*
X143179942Y-81847923D01*
X143179942Y-81657447D01*
X143132323Y-81562209D01*
X143179942Y-82895542D02*
X142656133Y-82895542D01*
X142560895Y-82847923D01*
X142513276Y-82752685D01*
X142513276Y-82562209D01*
X142560895Y-82466971D01*
X143132323Y-82895542D02*
X143179942Y-82800304D01*
X143179942Y-82562209D01*
X143132323Y-82466971D01*
X143037085Y-82419352D01*
X142941847Y-82419352D01*
X142846609Y-82466971D01*
X142798990Y-82562209D01*
X142798990Y-82800304D01*
X142751371Y-82895542D01*
X143179942Y-83514590D02*
X143132323Y-83419352D01*
X143037085Y-83371733D01*
X142179942Y-83371733D01*
X143179942Y-84324114D02*
X142179942Y-84324114D01*
X143132323Y-84324114D02*
X143179942Y-84228876D01*
X143179942Y-84038400D01*
X143132323Y-83943161D01*
X143084704Y-83895542D01*
X142989466Y-83847923D01*
X142703752Y-83847923D01*
X142608514Y-83895542D01*
X142560895Y-83943161D01*
X142513276Y-84038400D01*
X142513276Y-84228876D01*
X142560895Y-84324114D01*
X143132323Y-85181257D02*
X143179942Y-85086019D01*
X143179942Y-84895542D01*
X143132323Y-84800304D01*
X143037085Y-84752685D01*
X142656133Y-84752685D01*
X142560895Y-84800304D01*
X142513276Y-84895542D01*
X142513276Y-85086019D01*
X142560895Y-85181257D01*
X142656133Y-85228876D01*
X142751371Y-85228876D01*
X142846609Y-84752685D01*
X142513276Y-85657447D02*
X143179942Y-85657447D01*
X142608514Y-85657447D02*
X142560895Y-85705066D01*
X142513276Y-85800304D01*
X142513276Y-85943161D01*
X142560895Y-86038400D01*
X142656133Y-86086019D01*
X143179942Y-86086019D01*
X142513276Y-86990780D02*
X143322800Y-86990780D01*
X143418038Y-86943161D01*
X143465657Y-86895542D01*
X143513276Y-86800304D01*
X143513276Y-86657447D01*
X143465657Y-86562209D01*
X143132323Y-86990780D02*
X143179942Y-86895542D01*
X143179942Y-86705066D01*
X143132323Y-86609828D01*
X143084704Y-86562209D01*
X142989466Y-86514590D01*
X142703752Y-86514590D01*
X142608514Y-86562209D01*
X142560895Y-86609828D01*
X142513276Y-86705066D01*
X142513276Y-86895542D01*
X142560895Y-86990780D01*
X143179942Y-87466971D02*
X142513276Y-87466971D01*
X142179942Y-87466971D02*
X142227562Y-87419352D01*
X142275181Y-87466971D01*
X142227562Y-87514590D01*
X142179942Y-87466971D01*
X142275181Y-87466971D01*
X142513276Y-87943161D02*
X143179942Y-87943161D01*
X142608514Y-87943161D02*
X142560895Y-87990780D01*
X142513276Y-88086019D01*
X142513276Y-88228876D01*
X142560895Y-88324114D01*
X142656133Y-88371733D01*
X143179942Y-88371733D01*
X143132323Y-89228876D02*
X143179942Y-89133638D01*
X143179942Y-88943161D01*
X143132323Y-88847923D01*
X143037085Y-88800304D01*
X142656133Y-88800304D01*
X142560895Y-88847923D01*
X142513276Y-88943161D01*
X142513276Y-89133638D01*
X142560895Y-89228876D01*
X142656133Y-89276495D01*
X142751371Y-89276495D01*
X142846609Y-88800304D01*
X143132323Y-90086019D02*
X143179942Y-89990780D01*
X143179942Y-89800304D01*
X143132323Y-89705066D01*
X143037085Y-89657447D01*
X142656133Y-89657447D01*
X142560895Y-89705066D01*
X142513276Y-89800304D01*
X142513276Y-89990780D01*
X142560895Y-90086019D01*
X142656133Y-90133638D01*
X142751371Y-90133638D01*
X142846609Y-89657447D01*
X143179942Y-90562209D02*
X142513276Y-90562209D01*
X142703752Y-90562209D02*
X142608514Y-90609828D01*
X142560895Y-90657447D01*
X142513276Y-90752685D01*
X142513276Y-90847923D01*
X144879942Y-80276495D02*
X144213276Y-80276495D01*
X144403752Y-80276495D02*
X144308514Y-80324114D01*
X144260895Y-80371733D01*
X144213276Y-80466971D01*
X144213276Y-80562209D01*
X144832323Y-81276495D02*
X144879942Y-81181257D01*
X144879942Y-80990780D01*
X144832323Y-80895542D01*
X144737085Y-80847923D01*
X144356133Y-80847923D01*
X144260895Y-80895542D01*
X144213276Y-80990780D01*
X144213276Y-81181257D01*
X144260895Y-81276495D01*
X144356133Y-81324114D01*
X144451371Y-81324114D01*
X144546609Y-80847923D01*
X144213276Y-81657447D02*
X144879942Y-81895542D01*
X144213276Y-82133638D01*
X144879942Y-83038400D02*
X144879942Y-82466971D01*
X144879942Y-82752685D02*
X143879942Y-82752685D01*
X144022800Y-82657447D01*
X144118038Y-82562209D01*
X144165657Y-82466971D01*
D10*
X147294619Y-112909295D02*
X146913666Y-112909295D01*
X146875571Y-112528342D01*
X146913666Y-112566438D01*
X146989857Y-112604533D01*
X147180333Y-112604533D01*
X147256523Y-112566438D01*
X147294619Y-112528342D01*
X147332714Y-112452152D01*
X147332714Y-112261676D01*
X147294619Y-112185485D01*
X147256523Y-112147390D01*
X147180333Y-112109295D01*
X146989857Y-112109295D01*
X146913666Y-112147390D01*
X146875571Y-112185485D01*
X147561285Y-112909295D02*
X147827952Y-112109295D01*
X148094619Y-112909295D01*
X144754619Y-112909295D02*
X144373666Y-112909295D01*
X144335571Y-112528342D01*
X144373666Y-112566438D01*
X144449857Y-112604533D01*
X144640333Y-112604533D01*
X144716523Y-112566438D01*
X144754619Y-112528342D01*
X144792714Y-112452152D01*
X144792714Y-112261676D01*
X144754619Y-112185485D01*
X144716523Y-112147390D01*
X144640333Y-112109295D01*
X144449857Y-112109295D01*
X144373666Y-112147390D01*
X144335571Y-112185485D01*
X145021285Y-112909295D02*
X145287952Y-112109295D01*
X145554619Y-112909295D01*
D12*
G36*
X156133800Y-110896400D02*
G01*
X153530300Y-110896400D01*
X153530300Y-106832400D01*
X156133800Y-106832400D01*
X156133800Y-110896400D01*
G37*
X156133800Y-110896400D02*
X153530300Y-110896400D01*
X153530300Y-106832400D01*
X156133800Y-106832400D01*
X156133800Y-110896400D01*
G36*
X179832000Y-89827100D02*
G01*
X179832000Y-92430600D01*
X175133000Y-92411550D01*
X175133000Y-89808050D01*
X179832000Y-89827100D01*
G37*
X179832000Y-89827100D02*
X179832000Y-92430600D01*
X175133000Y-92411550D01*
X175133000Y-89808050D01*
X179832000Y-89827100D01*
G36*
X188366400Y-99212400D02*
G01*
X188402913Y-105054400D01*
X185993088Y-105054400D01*
X186042300Y-99187000D01*
X188366400Y-99212400D01*
G37*
X188366400Y-99212400D02*
X188402913Y-105054400D01*
X185993088Y-105054400D01*
X186042300Y-99187000D01*
X188366400Y-99212400D01*
G36*
X198907400Y-105156000D02*
G01*
X196697600Y-105105200D01*
X196634100Y-99187000D01*
X198882000Y-99187000D01*
X198907400Y-105156000D01*
G37*
X198907400Y-105156000D02*
X196697600Y-105105200D01*
X196634100Y-99187000D01*
X198882000Y-99187000D01*
X198907400Y-105156000D01*
G36*
X210210400Y-89877900D02*
G01*
X210210400Y-92481400D01*
X205511400Y-92462350D01*
X205511400Y-89858850D01*
X210210400Y-89877900D01*
G37*
X210210400Y-89877900D02*
X210210400Y-92481400D01*
X205511400Y-92462350D01*
X205511400Y-89858850D01*
X210210400Y-89877900D01*
G36*
X210261200Y-79692500D02*
G01*
X210261200Y-82296000D01*
X205562200Y-82276950D01*
X205562200Y-79673450D01*
X210261200Y-79692500D01*
G37*
X210261200Y-79692500D02*
X210261200Y-82296000D01*
X205562200Y-82276950D01*
X205562200Y-79673450D01*
X210261200Y-79692500D01*
G36*
X199040750Y-70916800D02*
G01*
X196437250Y-70916800D01*
X196456300Y-64262000D01*
X199059800Y-64262000D01*
X199040750Y-70916800D01*
G37*
X199040750Y-70916800D02*
X196437250Y-70916800D01*
X196456300Y-64262000D01*
X199059800Y-64262000D01*
X199040750Y-70916800D01*
G36*
X188804550Y-70891400D02*
G01*
X186201050Y-70891400D01*
X186220100Y-64236600D01*
X188823600Y-64236600D01*
X188804550Y-70891400D01*
G37*
X188804550Y-70891400D02*
X186201050Y-70891400D01*
X186220100Y-64236600D01*
X188823600Y-64236600D01*
X188804550Y-70891400D01*
G36*
X172859700Y-69697600D02*
G01*
X170256200Y-69697600D01*
X170275250Y-65608200D01*
X172878750Y-65608200D01*
X172859700Y-69697600D01*
G37*
X172859700Y-69697600D02*
X170256200Y-69697600D01*
X170275250Y-65608200D01*
X172878750Y-65608200D01*
X172859700Y-69697600D01*
G36*
X163436300Y-69646800D02*
G01*
X160832800Y-69646800D01*
X160851850Y-65557400D01*
X163455350Y-65557400D01*
X163436300Y-69646800D01*
G37*
X163436300Y-69646800D02*
X160832800Y-69646800D01*
X160851850Y-65557400D01*
X163455350Y-65557400D01*
X163436300Y-69646800D01*
G36*
X147612100Y-67640200D02*
G01*
X145008600Y-67640200D01*
X145027650Y-63550800D01*
X147631150Y-63550800D01*
X147612100Y-67640200D01*
G37*
X147612100Y-67640200D02*
X145008600Y-67640200D01*
X145027650Y-63550800D01*
X147631150Y-63550800D01*
X147612100Y-67640200D01*
G36*
X155168600Y-68726050D02*
G01*
X155168600Y-71329550D01*
X151079200Y-71310500D01*
X151079200Y-68707000D01*
X155168600Y-68726050D01*
G37*
X155168600Y-68726050D02*
X155168600Y-71329550D01*
X151079200Y-71310500D01*
X151079200Y-68707000D01*
X155168600Y-68726050D01*
G36*
X149415500Y-109029500D02*
G01*
X145351500Y-109029500D01*
X145351500Y-106426000D01*
X149415500Y-106426000D01*
X149415500Y-109029500D01*
G37*
X149415500Y-109029500D02*
X145351500Y-109029500D01*
X145351500Y-106426000D01*
X149415500Y-106426000D01*
X149415500Y-109029500D01*
G36*
X146177000Y-109029500D02*
G01*
X142113000Y-109029500D01*
X142113000Y-106426000D01*
X146177000Y-106426000D01*
X146177000Y-109029500D01*
G37*
X146177000Y-109029500D02*
X142113000Y-109029500D01*
X142113000Y-106426000D01*
X146177000Y-106426000D01*
X146177000Y-109029500D01*
G36*
X172339000Y-109664500D02*
G01*
X169735500Y-109664500D01*
X169735500Y-105600500D01*
X172339000Y-105600500D01*
X172339000Y-109664500D01*
G37*
X172339000Y-109664500D02*
X169735500Y-109664500D01*
X169735500Y-105600500D01*
X172339000Y-105600500D01*
X172339000Y-109664500D01*
G36*
X169735500Y-113728500D02*
G01*
X167132000Y-113728500D01*
X167132000Y-109664500D01*
X169735500Y-109664500D01*
X169735500Y-113728500D01*
G37*
X169735500Y-113728500D02*
X167132000Y-113728500D01*
X167132000Y-109664500D01*
X169735500Y-109664500D01*
X169735500Y-113728500D01*
G36*
X196913500Y-109537500D02*
G01*
X194310000Y-109537500D01*
X194310000Y-105473500D01*
X196913500Y-105473500D01*
X196913500Y-109537500D01*
G37*
X196913500Y-109537500D02*
X194310000Y-109537500D01*
X194310000Y-105473500D01*
X196913500Y-105473500D01*
X196913500Y-109537500D01*
G36*
X207073500Y-109664500D02*
G01*
X204470000Y-109664500D01*
X204470000Y-105600500D01*
X207073500Y-105600500D01*
X207073500Y-109664500D01*
G37*
X207073500Y-109664500D02*
X204470000Y-109664500D01*
X204470000Y-105600500D01*
X207073500Y-105600500D01*
X207073500Y-109664500D01*
G36*
X212153500Y-113665000D02*
G01*
X209550000Y-113665000D01*
X209550000Y-109601000D01*
X212153500Y-109601000D01*
X212153500Y-113665000D01*
G37*
X212153500Y-113665000D02*
X209550000Y-113665000D01*
X209550000Y-109601000D01*
X212153500Y-109601000D01*
X212153500Y-113665000D01*
G36*
X201993500Y-113792000D02*
G01*
X199390000Y-113792000D01*
X199390000Y-109728000D01*
X201993500Y-109728000D01*
X201993500Y-113792000D01*
G37*
X201993500Y-113792000D02*
X199390000Y-113792000D01*
X199390000Y-109728000D01*
X201993500Y-109728000D01*
X201993500Y-113792000D01*
D10*
X155314666Y-88455428D02*
X155314666Y-88074476D01*
X155086095Y-88531619D02*
X155886095Y-88264952D01*
X155086095Y-87998285D01*
X155886095Y-87807809D02*
X155886095Y-87312571D01*
X155581333Y-87579238D01*
X155581333Y-87464952D01*
X155543238Y-87388761D01*
X155505142Y-87350666D01*
X155428952Y-87312571D01*
X155238476Y-87312571D01*
X155162285Y-87350666D01*
X155124190Y-87388761D01*
X155086095Y-87464952D01*
X155086095Y-87693523D01*
X155124190Y-87769714D01*
X155162285Y-87807809D01*
X155314666Y-83248428D02*
X155314666Y-82867476D01*
X155086095Y-83324619D02*
X155886095Y-83057952D01*
X155086095Y-82791285D01*
X155086095Y-82105571D02*
X155086095Y-82562714D01*
X155086095Y-82334142D02*
X155886095Y-82334142D01*
X155771809Y-82410333D01*
X155695619Y-82486523D01*
X155657523Y-82562714D01*
X155314666Y-93408428D02*
X155314666Y-93027476D01*
X155086095Y-93484619D02*
X155886095Y-93217952D01*
X155086095Y-92951285D01*
X155886095Y-92303666D02*
X155886095Y-92684619D01*
X155505142Y-92722714D01*
X155543238Y-92684619D01*
X155581333Y-92608428D01*
X155581333Y-92417952D01*
X155543238Y-92341761D01*
X155505142Y-92303666D01*
X155428952Y-92265571D01*
X155238476Y-92265571D01*
X155162285Y-92303666D01*
X155124190Y-92341761D01*
X155086095Y-92417952D01*
X155086095Y-92608428D01*
X155124190Y-92684619D01*
X155162285Y-92722714D01*
X155314666Y-101409380D02*
X155314666Y-101028428D01*
X155086095Y-101485571D02*
X155886095Y-101218904D01*
X155086095Y-100952238D01*
X155086095Y-100266523D02*
X155086095Y-100723666D01*
X155086095Y-100495095D02*
X155886095Y-100495095D01*
X155771809Y-100571285D01*
X155695619Y-100647476D01*
X155657523Y-100723666D01*
X155809904Y-99961761D02*
X155848000Y-99923666D01*
X155886095Y-99847476D01*
X155886095Y-99657000D01*
X155848000Y-99580809D01*
X155809904Y-99542714D01*
X155733714Y-99504619D01*
X155657523Y-99504619D01*
X155543238Y-99542714D01*
X155086095Y-99999857D01*
X155086095Y-99504619D01*
X155086095Y-78314476D02*
X155886095Y-78314476D01*
X155886095Y-78124000D01*
X155848000Y-78009714D01*
X155771809Y-77933523D01*
X155695619Y-77895428D01*
X155543238Y-77857333D01*
X155428952Y-77857333D01*
X155276571Y-77895428D01*
X155200380Y-77933523D01*
X155124190Y-78009714D01*
X155086095Y-78124000D01*
X155086095Y-78314476D01*
X155886095Y-77362095D02*
X155886095Y-77285904D01*
X155848000Y-77209714D01*
X155809904Y-77171619D01*
X155733714Y-77133523D01*
X155581333Y-77095428D01*
X155390857Y-77095428D01*
X155238476Y-77133523D01*
X155162285Y-77171619D01*
X155124190Y-77209714D01*
X155086095Y-77285904D01*
X155086095Y-77362095D01*
X155124190Y-77438285D01*
X155162285Y-77476380D01*
X155238476Y-77514476D01*
X155390857Y-77552571D01*
X155581333Y-77552571D01*
X155733714Y-77514476D01*
X155809904Y-77476380D01*
X155848000Y-77438285D01*
X155886095Y-77362095D01*
X155314666Y-80835428D02*
X155314666Y-80454476D01*
X155086095Y-80911619D02*
X155886095Y-80644952D01*
X155086095Y-80378285D01*
X155886095Y-79959238D02*
X155886095Y-79883047D01*
X155848000Y-79806857D01*
X155809904Y-79768761D01*
X155733714Y-79730666D01*
X155581333Y-79692571D01*
X155390857Y-79692571D01*
X155238476Y-79730666D01*
X155162285Y-79768761D01*
X155124190Y-79806857D01*
X155086095Y-79883047D01*
X155086095Y-79959238D01*
X155124190Y-80035428D01*
X155162285Y-80073523D01*
X155238476Y-80111619D01*
X155390857Y-80149714D01*
X155581333Y-80149714D01*
X155733714Y-80111619D01*
X155809904Y-80073523D01*
X155848000Y-80035428D01*
X155886095Y-79959238D01*
X155086095Y-73361476D02*
X155886095Y-73361476D01*
X155886095Y-73171000D01*
X155848000Y-73056714D01*
X155771809Y-72980523D01*
X155695619Y-72942428D01*
X155543238Y-72904333D01*
X155428952Y-72904333D01*
X155276571Y-72942428D01*
X155200380Y-72980523D01*
X155124190Y-73056714D01*
X155086095Y-73171000D01*
X155086095Y-73361476D01*
X155809904Y-72599571D02*
X155848000Y-72561476D01*
X155886095Y-72485285D01*
X155886095Y-72294809D01*
X155848000Y-72218619D01*
X155809904Y-72180523D01*
X155733714Y-72142428D01*
X155657523Y-72142428D01*
X155543238Y-72180523D01*
X155086095Y-72637666D01*
X155086095Y-72142428D01*
X155314666Y-98488428D02*
X155314666Y-98107476D01*
X155086095Y-98564619D02*
X155886095Y-98297952D01*
X155086095Y-98031285D01*
X155886095Y-97840809D02*
X155886095Y-97307476D01*
X155086095Y-97650333D01*
X155314666Y-90868428D02*
X155314666Y-90487476D01*
X155086095Y-90944619D02*
X155886095Y-90677952D01*
X155086095Y-90411285D01*
X155619428Y-89801761D02*
X155086095Y-89801761D01*
X155924190Y-89992238D02*
X155352761Y-90182714D01*
X155352761Y-89687476D01*
X155086095Y-75774476D02*
X155886095Y-75774476D01*
X155886095Y-75584000D01*
X155848000Y-75469714D01*
X155771809Y-75393523D01*
X155695619Y-75355428D01*
X155543238Y-75317333D01*
X155428952Y-75317333D01*
X155276571Y-75355428D01*
X155200380Y-75393523D01*
X155124190Y-75469714D01*
X155086095Y-75584000D01*
X155086095Y-75774476D01*
X155086095Y-74555428D02*
X155086095Y-75012571D01*
X155086095Y-74784000D02*
X155886095Y-74784000D01*
X155771809Y-74860190D01*
X155695619Y-74936380D01*
X155657523Y-75012571D01*
X155314666Y-85788428D02*
X155314666Y-85407476D01*
X155086095Y-85864619D02*
X155886095Y-85597952D01*
X155086095Y-85331285D01*
X155809904Y-85102714D02*
X155848000Y-85064619D01*
X155886095Y-84988428D01*
X155886095Y-84797952D01*
X155848000Y-84721761D01*
X155809904Y-84683666D01*
X155733714Y-84645571D01*
X155657523Y-84645571D01*
X155543238Y-84683666D01*
X155086095Y-85140809D01*
X155086095Y-84645571D01*
X155314666Y-95948428D02*
X155314666Y-95567476D01*
X155086095Y-96024619D02*
X155886095Y-95757952D01*
X155086095Y-95491285D01*
X155886095Y-94881761D02*
X155886095Y-95034142D01*
X155848000Y-95110333D01*
X155809904Y-95148428D01*
X155695619Y-95224619D01*
X155543238Y-95262714D01*
X155238476Y-95262714D01*
X155162285Y-95224619D01*
X155124190Y-95186523D01*
X155086095Y-95110333D01*
X155086095Y-94957952D01*
X155124190Y-94881761D01*
X155162285Y-94843666D01*
X155238476Y-94805571D01*
X155428952Y-94805571D01*
X155505142Y-94843666D01*
X155543238Y-94881761D01*
X155581333Y-94957952D01*
X155581333Y-95110333D01*
X155543238Y-95186523D01*
X155505142Y-95224619D01*
X155428952Y-95262714D01*
X174301095Y-81286333D02*
X173920143Y-81286333D01*
X174377286Y-81514904D02*
X174110619Y-80714904D01*
X173843952Y-81514904D01*
X173424905Y-80714904D02*
X173348714Y-80714904D01*
X173272524Y-80753000D01*
X173234428Y-80791095D01*
X173196333Y-80867285D01*
X173158238Y-81019666D01*
X173158238Y-81210142D01*
X173196333Y-81362523D01*
X173234428Y-81438714D01*
X173272524Y-81476809D01*
X173348714Y-81514904D01*
X173424905Y-81514904D01*
X173501095Y-81476809D01*
X173539190Y-81438714D01*
X173577286Y-81362523D01*
X173615381Y-81210142D01*
X173615381Y-81019666D01*
X173577286Y-80867285D01*
X173539190Y-80791095D01*
X173501095Y-80753000D01*
X173424905Y-80714904D01*
X174301095Y-94113333D02*
X173920143Y-94113333D01*
X174377286Y-94341904D02*
X174110619Y-93541904D01*
X173843952Y-94341904D01*
X173234428Y-93808571D02*
X173234428Y-94341904D01*
X173424905Y-93503809D02*
X173615381Y-94075238D01*
X173120143Y-94075238D01*
X174453477Y-75302000D02*
X173691572Y-75302000D01*
X174301096Y-76396809D02*
X174186810Y-76434904D01*
X173996334Y-76434904D01*
X173920143Y-76396809D01*
X173882048Y-76358714D01*
X173843953Y-76282523D01*
X173843953Y-76206333D01*
X173882048Y-76130142D01*
X173920143Y-76092047D01*
X173996334Y-76053952D01*
X174148715Y-76015857D01*
X174224905Y-75977761D01*
X174263000Y-75939666D01*
X174301096Y-75863476D01*
X174301096Y-75787285D01*
X174263000Y-75711095D01*
X174224905Y-75673000D01*
X174148715Y-75634904D01*
X173958239Y-75634904D01*
X173843953Y-75673000D01*
X173691572Y-75302000D02*
X173005858Y-75302000D01*
X173348715Y-76053952D02*
X173348715Y-76434904D01*
X173615381Y-75634904D02*
X173348715Y-76053952D01*
X173082048Y-75634904D01*
X173005858Y-75302000D02*
X172167762Y-75302000D01*
X172815381Y-76434904D02*
X172815381Y-75634904D01*
X172358239Y-76434904D01*
X172358239Y-75634904D01*
X172167762Y-75302000D02*
X171367762Y-75302000D01*
X171520143Y-76358714D02*
X171558239Y-76396809D01*
X171672524Y-76434904D01*
X171748715Y-76434904D01*
X171863000Y-76396809D01*
X171939191Y-76320619D01*
X171977286Y-76244428D01*
X172015381Y-76092047D01*
X172015381Y-75977761D01*
X171977286Y-75825380D01*
X171939191Y-75749190D01*
X171863000Y-75673000D01*
X171748715Y-75634904D01*
X171672524Y-75634904D01*
X171558239Y-75673000D01*
X171520143Y-75711095D01*
X174301095Y-84080333D02*
X173920143Y-84080333D01*
X174377286Y-84308904D02*
X174110619Y-83508904D01*
X173843952Y-84308904D01*
X173158238Y-84308904D02*
X173615381Y-84308904D01*
X173386809Y-84308904D02*
X173386809Y-83508904D01*
X173463000Y-83623190D01*
X173539190Y-83699380D01*
X173615381Y-83737476D01*
X174301095Y-96653333D02*
X173920143Y-96653333D01*
X174377286Y-96881904D02*
X174110619Y-96081904D01*
X173843952Y-96881904D01*
X173196333Y-96081904D02*
X173577286Y-96081904D01*
X173615381Y-96462857D01*
X173577286Y-96424761D01*
X173501095Y-96386666D01*
X173310619Y-96386666D01*
X173234428Y-96424761D01*
X173196333Y-96462857D01*
X173158238Y-96539047D01*
X173158238Y-96729523D01*
X173196333Y-96805714D01*
X173234428Y-96843809D01*
X173310619Y-96881904D01*
X173501095Y-96881904D01*
X173577286Y-96843809D01*
X173615381Y-96805714D01*
X174453476Y-73016000D02*
X173615381Y-73016000D01*
X174263000Y-74148904D02*
X174263000Y-73348904D01*
X173805857Y-74148904D01*
X173805857Y-73348904D01*
X173615381Y-73016000D02*
X172701095Y-73016000D01*
X173424905Y-74148904D02*
X173424905Y-73348904D01*
X173158238Y-73920333D01*
X172891571Y-73348904D01*
X172891571Y-74148904D01*
X172701095Y-73016000D02*
X172320143Y-73016000D01*
X172510619Y-74148904D02*
X172510619Y-73348904D01*
X174301095Y-99320333D02*
X173920143Y-99320333D01*
X174377286Y-99548904D02*
X174110619Y-98748904D01*
X173843952Y-99548904D01*
X173234428Y-98748904D02*
X173386809Y-98748904D01*
X173463000Y-98787000D01*
X173501095Y-98825095D01*
X173577286Y-98939380D01*
X173615381Y-99091761D01*
X173615381Y-99396523D01*
X173577286Y-99472714D01*
X173539190Y-99510809D01*
X173463000Y-99548904D01*
X173310619Y-99548904D01*
X173234428Y-99510809D01*
X173196333Y-99472714D01*
X173158238Y-99396523D01*
X173158238Y-99206047D01*
X173196333Y-99129857D01*
X173234428Y-99091761D01*
X173310619Y-99053666D01*
X173463000Y-99053666D01*
X173539190Y-99091761D01*
X173577286Y-99129857D01*
X173615381Y-99206047D01*
X174301095Y-86493333D02*
X173920143Y-86493333D01*
X174377286Y-86721904D02*
X174110619Y-85921904D01*
X173843952Y-86721904D01*
X173615381Y-85998095D02*
X173577286Y-85960000D01*
X173501095Y-85921904D01*
X173310619Y-85921904D01*
X173234428Y-85960000D01*
X173196333Y-85998095D01*
X173158238Y-86074285D01*
X173158238Y-86150476D01*
X173196333Y-86264761D01*
X173653476Y-86721904D01*
X173158238Y-86721904D01*
X173882047Y-78174904D02*
X174263000Y-78174904D01*
X174301095Y-78555857D01*
X174263000Y-78517761D01*
X174186809Y-78479666D01*
X173996333Y-78479666D01*
X173920143Y-78517761D01*
X173882047Y-78555857D01*
X173843952Y-78632047D01*
X173843952Y-78822523D01*
X173882047Y-78898714D01*
X173920143Y-78936809D01*
X173996333Y-78974904D01*
X174186809Y-78974904D01*
X174263000Y-78936809D01*
X174301095Y-78898714D01*
X173615381Y-78174904D02*
X173348714Y-78974904D01*
X173082047Y-78174904D01*
X174301095Y-89033333D02*
X173920143Y-89033333D01*
X174377286Y-89261904D02*
X174110619Y-88461904D01*
X173843952Y-89261904D01*
X173653476Y-88461904D02*
X173158238Y-88461904D01*
X173424905Y-88766666D01*
X173310619Y-88766666D01*
X173234428Y-88804761D01*
X173196333Y-88842857D01*
X173158238Y-88919047D01*
X173158238Y-89109523D01*
X173196333Y-89185714D01*
X173234428Y-89223809D01*
X173310619Y-89261904D01*
X173539190Y-89261904D01*
X173615381Y-89223809D01*
X173653476Y-89185714D01*
X181488953Y-75302000D02*
X180727048Y-75302000D01*
X181336572Y-76396809D02*
X181222286Y-76434904D01*
X181031810Y-76434904D01*
X180955619Y-76396809D01*
X180917524Y-76358714D01*
X180879429Y-76282523D01*
X180879429Y-76206333D01*
X180917524Y-76130142D01*
X180955619Y-76092047D01*
X181031810Y-76053952D01*
X181184191Y-76015857D01*
X181260381Y-75977761D01*
X181298476Y-75939666D01*
X181336572Y-75863476D01*
X181336572Y-75787285D01*
X181298476Y-75711095D01*
X181260381Y-75673000D01*
X181184191Y-75634904D01*
X180993715Y-75634904D01*
X180879429Y-75673000D01*
X180727048Y-75302000D02*
X180041334Y-75302000D01*
X180384191Y-76053952D02*
X180384191Y-76434904D01*
X180650857Y-75634904D02*
X180384191Y-76053952D01*
X180117524Y-75634904D01*
X180041334Y-75302000D02*
X179203238Y-75302000D01*
X179850857Y-76434904D02*
X179850857Y-75634904D01*
X179393715Y-76434904D01*
X179393715Y-75634904D01*
X179203238Y-75302000D02*
X178403238Y-75302000D01*
X178555619Y-76358714D02*
X178593715Y-76396809D01*
X178708000Y-76434904D01*
X178784191Y-76434904D01*
X178898476Y-76396809D01*
X178974667Y-76320619D01*
X179012762Y-76244428D01*
X179050857Y-76092047D01*
X179050857Y-75977761D01*
X179012762Y-75825380D01*
X178974667Y-75749190D01*
X178898476Y-75673000D01*
X178784191Y-75634904D01*
X178708000Y-75634904D01*
X178593715Y-75673000D01*
X178555619Y-75711095D01*
X179698476Y-94113333D02*
X179317524Y-94113333D01*
X179774667Y-94341904D02*
X179508000Y-93541904D01*
X179241333Y-94341904D01*
X178631809Y-93808571D02*
X178631809Y-94341904D01*
X178822286Y-93503809D02*
X179012762Y-94075238D01*
X178517524Y-94075238D01*
X179698476Y-84080333D02*
X179317524Y-84080333D01*
X179774667Y-84308904D02*
X179508000Y-83508904D01*
X179241333Y-84308904D01*
X178555619Y-84308904D02*
X179012762Y-84308904D01*
X178784190Y-84308904D02*
X178784190Y-83508904D01*
X178860381Y-83623190D01*
X178936571Y-83699380D01*
X179012762Y-83737476D01*
X179698476Y-81286333D02*
X179317524Y-81286333D01*
X179774667Y-81514904D02*
X179508000Y-80714904D01*
X179241333Y-81514904D01*
X178822286Y-80714904D02*
X178746095Y-80714904D01*
X178669905Y-80753000D01*
X178631809Y-80791095D01*
X178593714Y-80867285D01*
X178555619Y-81019666D01*
X178555619Y-81210142D01*
X178593714Y-81362523D01*
X178631809Y-81438714D01*
X178669905Y-81476809D01*
X178746095Y-81514904D01*
X178822286Y-81514904D01*
X178898476Y-81476809D01*
X178936571Y-81438714D01*
X178974667Y-81362523D01*
X179012762Y-81210142D01*
X179012762Y-81019666D01*
X178974667Y-80867285D01*
X178936571Y-80791095D01*
X178898476Y-80753000D01*
X178822286Y-80714904D01*
X179698476Y-96653333D02*
X179317524Y-96653333D01*
X179774667Y-96881904D02*
X179508000Y-96081904D01*
X179241333Y-96881904D01*
X178593714Y-96081904D02*
X178974667Y-96081904D01*
X179012762Y-96462857D01*
X178974667Y-96424761D01*
X178898476Y-96386666D01*
X178708000Y-96386666D01*
X178631809Y-96424761D01*
X178593714Y-96462857D01*
X178555619Y-96539047D01*
X178555619Y-96729523D01*
X178593714Y-96805714D01*
X178631809Y-96843809D01*
X178708000Y-96881904D01*
X178898476Y-96881904D01*
X178974667Y-96843809D01*
X179012762Y-96805714D01*
X179279428Y-78174904D02*
X179660381Y-78174904D01*
X179698476Y-78555857D01*
X179660381Y-78517761D01*
X179584190Y-78479666D01*
X179393714Y-78479666D01*
X179317524Y-78517761D01*
X179279428Y-78555857D01*
X179241333Y-78632047D01*
X179241333Y-78822523D01*
X179279428Y-78898714D01*
X179317524Y-78936809D01*
X179393714Y-78974904D01*
X179584190Y-78974904D01*
X179660381Y-78936809D01*
X179698476Y-78898714D01*
X179012762Y-78174904D02*
X178746095Y-78974904D01*
X178479428Y-78174904D01*
X180536571Y-73016000D02*
X179698476Y-73016000D01*
X180346095Y-74148904D02*
X180346095Y-73348904D01*
X179888952Y-74148904D01*
X179888952Y-73348904D01*
X179698476Y-73016000D02*
X178784190Y-73016000D01*
X179508000Y-74148904D02*
X179508000Y-73348904D01*
X179241333Y-73920333D01*
X178974666Y-73348904D01*
X178974666Y-74148904D01*
X178784190Y-73016000D02*
X178403238Y-73016000D01*
X178593714Y-74148904D02*
X178593714Y-73348904D01*
X179698476Y-89033333D02*
X179317524Y-89033333D01*
X179774667Y-89261904D02*
X179508000Y-88461904D01*
X179241333Y-89261904D01*
X179050857Y-88461904D02*
X178555619Y-88461904D01*
X178822286Y-88766666D01*
X178708000Y-88766666D01*
X178631809Y-88804761D01*
X178593714Y-88842857D01*
X178555619Y-88919047D01*
X178555619Y-89109523D01*
X178593714Y-89185714D01*
X178631809Y-89223809D01*
X178708000Y-89261904D01*
X178936571Y-89261904D01*
X179012762Y-89223809D01*
X179050857Y-89185714D01*
X179698476Y-99320333D02*
X179317524Y-99320333D01*
X179774667Y-99548904D02*
X179508000Y-98748904D01*
X179241333Y-99548904D01*
X178631809Y-98748904D02*
X178784190Y-98748904D01*
X178860381Y-98787000D01*
X178898476Y-98825095D01*
X178974667Y-98939380D01*
X179012762Y-99091761D01*
X179012762Y-99396523D01*
X178974667Y-99472714D01*
X178936571Y-99510809D01*
X178860381Y-99548904D01*
X178708000Y-99548904D01*
X178631809Y-99510809D01*
X178593714Y-99472714D01*
X178555619Y-99396523D01*
X178555619Y-99206047D01*
X178593714Y-99129857D01*
X178631809Y-99091761D01*
X178708000Y-99053666D01*
X178860381Y-99053666D01*
X178936571Y-99091761D01*
X178974667Y-99129857D01*
X179012762Y-99206047D01*
X179698476Y-86493333D02*
X179317524Y-86493333D01*
X179774667Y-86721904D02*
X179508000Y-85921904D01*
X179241333Y-86721904D01*
X179012762Y-85998095D02*
X178974667Y-85960000D01*
X178898476Y-85921904D01*
X178708000Y-85921904D01*
X178631809Y-85960000D01*
X178593714Y-85998095D01*
X178555619Y-86074285D01*
X178555619Y-86150476D01*
X178593714Y-86264761D01*
X179050857Y-86721904D01*
X178555619Y-86721904D01*
X156997380Y-65855904D02*
X157378333Y-65855904D01*
X157416428Y-66236857D01*
X157378333Y-66198761D01*
X157302142Y-66160666D01*
X157111666Y-66160666D01*
X157035476Y-66198761D01*
X156997380Y-66236857D01*
X156959285Y-66313047D01*
X156959285Y-66503523D01*
X156997380Y-66579714D01*
X157035476Y-66617809D01*
X157111666Y-66655904D01*
X157302142Y-66655904D01*
X157378333Y-66617809D01*
X157416428Y-66579714D01*
X156730714Y-65855904D02*
X156464047Y-66655904D01*
X156197380Y-65855904D01*
X159785000Y-65523000D02*
X158985000Y-65523000D01*
X159175476Y-65894000D02*
X159251666Y-65855904D01*
X159365952Y-65855904D01*
X159480238Y-65894000D01*
X159556428Y-65970190D01*
X159594523Y-66046380D01*
X159632619Y-66198761D01*
X159632619Y-66313047D01*
X159594523Y-66465428D01*
X159556428Y-66541619D01*
X159480238Y-66617809D01*
X159365952Y-66655904D01*
X159289761Y-66655904D01*
X159175476Y-66617809D01*
X159137380Y-66579714D01*
X159137380Y-66313047D01*
X159289761Y-66313047D01*
X169456000Y-66655904D02*
X169456000Y-65855904D01*
X169265523Y-65855904D01*
X169151238Y-65894000D01*
X169075047Y-65970190D01*
X169036952Y-66046380D01*
X168998857Y-66198761D01*
X168998857Y-66313047D01*
X169036952Y-66465428D01*
X169075047Y-66541619D01*
X169151238Y-66617809D01*
X169265523Y-66655904D01*
X169456000Y-66655904D01*
X168656000Y-66655904D02*
X168656000Y-65855904D01*
X167817904Y-66655904D02*
X168084571Y-66274952D01*
X168275047Y-66655904D02*
X168275047Y-65855904D01*
X167970285Y-65855904D01*
X167894095Y-65894000D01*
X167856000Y-65932095D01*
X167817904Y-66008285D01*
X167817904Y-66122571D01*
X167856000Y-66198761D01*
X167894095Y-66236857D01*
X167970285Y-66274952D01*
X168275047Y-66274952D01*
X166141380Y-65855904D02*
X166522333Y-65855904D01*
X166560428Y-66236857D01*
X166522333Y-66198761D01*
X166446142Y-66160666D01*
X166255666Y-66160666D01*
X166179476Y-66198761D01*
X166141380Y-66236857D01*
X166103285Y-66313047D01*
X166103285Y-66503523D01*
X166141380Y-66579714D01*
X166179476Y-66617809D01*
X166255666Y-66655904D01*
X166446142Y-66655904D01*
X166522333Y-66617809D01*
X166560428Y-66579714D01*
X165874714Y-65855904D02*
X165608047Y-66655904D01*
X165341380Y-65855904D01*
X141995000Y-67716142D02*
X141995000Y-66916142D01*
X140862095Y-67068523D02*
X141243047Y-67335190D01*
X140862095Y-67525666D02*
X141662095Y-67525666D01*
X141662095Y-67220904D01*
X141624000Y-67144714D01*
X141585904Y-67106619D01*
X141509714Y-67068523D01*
X141395428Y-67068523D01*
X141319238Y-67106619D01*
X141281142Y-67144714D01*
X141243047Y-67220904D01*
X141243047Y-67525666D01*
X141995000Y-66916142D02*
X141995000Y-66078047D01*
X141662095Y-66573285D02*
X141662095Y-66420904D01*
X141624000Y-66344714D01*
X141547809Y-66268523D01*
X141395428Y-66230428D01*
X141128761Y-66230428D01*
X140976380Y-66268523D01*
X140900190Y-66344714D01*
X140862095Y-66420904D01*
X140862095Y-66573285D01*
X140900190Y-66649476D01*
X140976380Y-66725666D01*
X141128761Y-66763761D01*
X141395428Y-66763761D01*
X141547809Y-66725666D01*
X141624000Y-66649476D01*
X141662095Y-66573285D01*
X141995000Y-66078047D02*
X141995000Y-65163761D01*
X140862095Y-65887571D02*
X141662095Y-65887571D01*
X141090666Y-65620904D01*
X141662095Y-65354238D01*
X140862095Y-65354238D01*
X141995000Y-65163761D02*
X141995000Y-64439952D01*
X141281142Y-64973285D02*
X141281142Y-64706619D01*
X140862095Y-64592333D02*
X140862095Y-64973285D01*
X141662095Y-64973285D01*
X141662095Y-64592333D01*
X141995000Y-64439952D02*
X141995000Y-63601857D01*
X140862095Y-64249476D02*
X141662095Y-64249476D01*
X140862095Y-63792333D01*
X141662095Y-63792333D01*
X135108904Y-69386523D02*
X134308904Y-69386523D01*
X134308904Y-69577000D01*
X134347000Y-69691285D01*
X134423190Y-69767476D01*
X134499380Y-69805571D01*
X134651761Y-69843666D01*
X134766047Y-69843666D01*
X134918428Y-69805571D01*
X134994619Y-69767476D01*
X135070809Y-69691285D01*
X135108904Y-69577000D01*
X135108904Y-69386523D01*
X134308904Y-70110333D02*
X134308904Y-70605571D01*
X134613666Y-70338904D01*
X134613666Y-70453190D01*
X134651761Y-70529380D01*
X134689857Y-70567476D01*
X134766047Y-70605571D01*
X134956523Y-70605571D01*
X135032714Y-70567476D01*
X135070809Y-70529380D01*
X135108904Y-70453190D01*
X135108904Y-70224619D01*
X135070809Y-70148428D01*
X135032714Y-70110333D01*
X135108904Y-74593523D02*
X134308904Y-74593523D01*
X134308904Y-74784000D01*
X134347000Y-74898285D01*
X134423190Y-74974476D01*
X134499380Y-75012571D01*
X134651761Y-75050666D01*
X134766047Y-75050666D01*
X134918428Y-75012571D01*
X134994619Y-74974476D01*
X135070809Y-74898285D01*
X135108904Y-74784000D01*
X135108904Y-74593523D01*
X134308904Y-75774476D02*
X134308904Y-75393523D01*
X134689857Y-75355428D01*
X134651761Y-75393523D01*
X134613666Y-75469714D01*
X134613666Y-75660190D01*
X134651761Y-75736380D01*
X134689857Y-75774476D01*
X134766047Y-75812571D01*
X134956523Y-75812571D01*
X135032714Y-75774476D01*
X135070809Y-75736380D01*
X135108904Y-75660190D01*
X135108904Y-75469714D01*
X135070809Y-75393523D01*
X135032714Y-75355428D01*
X135108904Y-77133523D02*
X134308904Y-77133523D01*
X134308904Y-77324000D01*
X134347000Y-77438285D01*
X134423190Y-77514476D01*
X134499380Y-77552571D01*
X134651761Y-77590666D01*
X134766047Y-77590666D01*
X134918428Y-77552571D01*
X134994619Y-77514476D01*
X135070809Y-77438285D01*
X135108904Y-77324000D01*
X135108904Y-77133523D01*
X134308904Y-78276380D02*
X134308904Y-78124000D01*
X134347000Y-78047809D01*
X134385095Y-78009714D01*
X134499380Y-77933523D01*
X134651761Y-77895428D01*
X134956523Y-77895428D01*
X135032714Y-77933523D01*
X135070809Y-77971619D01*
X135108904Y-78047809D01*
X135108904Y-78200190D01*
X135070809Y-78276380D01*
X135032714Y-78314476D01*
X134956523Y-78352571D01*
X134766047Y-78352571D01*
X134689857Y-78314476D01*
X134651761Y-78276380D01*
X134613666Y-78200190D01*
X134613666Y-78047809D01*
X134651761Y-77971619D01*
X134689857Y-77933523D01*
X134766047Y-77895428D01*
X135108904Y-79673523D02*
X134308904Y-79673523D01*
X134308904Y-79864000D01*
X134347000Y-79978285D01*
X134423190Y-80054476D01*
X134499380Y-80092571D01*
X134651761Y-80130666D01*
X134766047Y-80130666D01*
X134918428Y-80092571D01*
X134994619Y-80054476D01*
X135070809Y-79978285D01*
X135108904Y-79864000D01*
X135108904Y-79673523D01*
X134308904Y-80397333D02*
X134308904Y-80930666D01*
X135108904Y-80587809D01*
X135108904Y-71926523D02*
X134308904Y-71926523D01*
X134308904Y-72117000D01*
X134347000Y-72231285D01*
X134423190Y-72307476D01*
X134499380Y-72345571D01*
X134651761Y-72383666D01*
X134766047Y-72383666D01*
X134918428Y-72345571D01*
X134994619Y-72307476D01*
X135070809Y-72231285D01*
X135108904Y-72117000D01*
X135108904Y-71926523D01*
X134575571Y-73069380D02*
X135108904Y-73069380D01*
X134270809Y-72878904D02*
X134842238Y-72688428D01*
X134842238Y-73183666D01*
X134753333Y-92392571D02*
X134753333Y-92773523D01*
X134981904Y-92316380D02*
X134181904Y-92583047D01*
X134981904Y-92849714D01*
X134981904Y-93154476D02*
X134981904Y-93306857D01*
X134943809Y-93383047D01*
X134905714Y-93421142D01*
X134791428Y-93497333D01*
X134639047Y-93535428D01*
X134334285Y-93535428D01*
X134258095Y-93497333D01*
X134220000Y-93459238D01*
X134181904Y-93383047D01*
X134181904Y-93230666D01*
X134220000Y-93154476D01*
X134258095Y-93116380D01*
X134334285Y-93078285D01*
X134524761Y-93078285D01*
X134600952Y-93116380D01*
X134639047Y-93154476D01*
X134677142Y-93230666D01*
X134677142Y-93383047D01*
X134639047Y-93459238D01*
X134600952Y-93497333D01*
X134524761Y-93535428D01*
X134753333Y-89344619D02*
X134753333Y-89725571D01*
X134981904Y-89268428D02*
X134181904Y-89535095D01*
X134981904Y-89801761D01*
X134981904Y-90487476D02*
X134981904Y-90030333D01*
X134981904Y-90258904D02*
X134181904Y-90258904D01*
X134296190Y-90182714D01*
X134372380Y-90106523D01*
X134410476Y-90030333D01*
X134981904Y-91249380D02*
X134981904Y-90792238D01*
X134981904Y-91020809D02*
X134181904Y-91020809D01*
X134296190Y-90944619D01*
X134372380Y-90868428D01*
X134410476Y-90792238D01*
X134753333Y-84391619D02*
X134753333Y-84772571D01*
X134981904Y-84315428D02*
X134181904Y-84582095D01*
X134981904Y-84848761D01*
X134981904Y-85534476D02*
X134981904Y-85077333D01*
X134981904Y-85305904D02*
X134181904Y-85305904D01*
X134296190Y-85229714D01*
X134372380Y-85153523D01*
X134410476Y-85077333D01*
X134181904Y-86029714D02*
X134181904Y-86105904D01*
X134220000Y-86182095D01*
X134258095Y-86220190D01*
X134334285Y-86258285D01*
X134486666Y-86296380D01*
X134677142Y-86296380D01*
X134829523Y-86258285D01*
X134905714Y-86220190D01*
X134943809Y-86182095D01*
X134981904Y-86105904D01*
X134981904Y-86029714D01*
X134943809Y-85953523D01*
X134905714Y-85915428D01*
X134829523Y-85877333D01*
X134677142Y-85839238D01*
X134486666Y-85839238D01*
X134334285Y-85877333D01*
X134258095Y-85915428D01*
X134220000Y-85953523D01*
X134181904Y-86029714D01*
X134753333Y-97218619D02*
X134753333Y-97599571D01*
X134981904Y-97142428D02*
X134181904Y-97409095D01*
X134981904Y-97675761D01*
X134981904Y-98361476D02*
X134981904Y-97904333D01*
X134981904Y-98132904D02*
X134181904Y-98132904D01*
X134296190Y-98056714D01*
X134372380Y-97980523D01*
X134410476Y-97904333D01*
X134181904Y-98628142D02*
X134181904Y-99123380D01*
X134486666Y-98856714D01*
X134486666Y-98971000D01*
X134524761Y-99047190D01*
X134562857Y-99085285D01*
X134639047Y-99123380D01*
X134829523Y-99123380D01*
X134905714Y-99085285D01*
X134943809Y-99047190D01*
X134981904Y-98971000D01*
X134981904Y-98742428D01*
X134943809Y-98666238D01*
X134905714Y-98628142D01*
X134753333Y-94932571D02*
X134753333Y-95313523D01*
X134981904Y-94856380D02*
X134181904Y-95123047D01*
X134981904Y-95389714D01*
X134981904Y-95694476D02*
X134981904Y-95846857D01*
X134943809Y-95923047D01*
X134905714Y-95961142D01*
X134791428Y-96037333D01*
X134639047Y-96075428D01*
X134334285Y-96075428D01*
X134258095Y-96037333D01*
X134220000Y-95999238D01*
X134181904Y-95923047D01*
X134181904Y-95770666D01*
X134220000Y-95694476D01*
X134258095Y-95656380D01*
X134334285Y-95618285D01*
X134524761Y-95618285D01*
X134600952Y-95656380D01*
X134639047Y-95694476D01*
X134677142Y-95770666D01*
X134677142Y-95923047D01*
X134639047Y-95999238D01*
X134600952Y-96037333D01*
X134524761Y-96075428D01*
X133849000Y-86976047D02*
X133849000Y-87699857D01*
X134562857Y-87166523D02*
X134562857Y-87433190D01*
X134981904Y-87547476D02*
X134981904Y-87166523D01*
X134181904Y-87166523D01*
X134181904Y-87547476D01*
X133849000Y-87699857D02*
X133849000Y-88537952D01*
X134981904Y-87890333D02*
X134181904Y-87890333D01*
X134981904Y-88347476D01*
X134181904Y-88347476D01*
X163912476Y-106660904D02*
X163912476Y-105860904D01*
X163722000Y-105860904D01*
X163607714Y-105899000D01*
X163531523Y-105975190D01*
X163493428Y-106051380D01*
X163455333Y-106203761D01*
X163455333Y-106318047D01*
X163493428Y-106470428D01*
X163531523Y-106546619D01*
X163607714Y-106622809D01*
X163722000Y-106660904D01*
X163912476Y-106660904D01*
X162693428Y-106660904D02*
X163150571Y-106660904D01*
X162922000Y-106660904D02*
X162922000Y-105860904D01*
X162998190Y-105975190D01*
X163074380Y-106051380D01*
X163150571Y-106089476D01*
X174199476Y-106660904D02*
X174199476Y-105860904D01*
X174009000Y-105860904D01*
X173894714Y-105899000D01*
X173818523Y-105975190D01*
X173780428Y-106051380D01*
X173742333Y-106203761D01*
X173742333Y-106318047D01*
X173780428Y-106470428D01*
X173818523Y-106546619D01*
X173894714Y-106622809D01*
X174009000Y-106660904D01*
X174199476Y-106660904D01*
X173475666Y-105860904D02*
X172942333Y-105860904D01*
X173285190Y-106660904D01*
X168992476Y-106660904D02*
X168992476Y-105860904D01*
X168802000Y-105860904D01*
X168687714Y-105899000D01*
X168611523Y-105975190D01*
X168573428Y-106051380D01*
X168535333Y-106203761D01*
X168535333Y-106318047D01*
X168573428Y-106470428D01*
X168611523Y-106546619D01*
X168687714Y-106622809D01*
X168802000Y-106660904D01*
X168992476Y-106660904D01*
X167811523Y-105860904D02*
X168192476Y-105860904D01*
X168230571Y-106241857D01*
X168192476Y-106203761D01*
X168116285Y-106165666D01*
X167925809Y-106165666D01*
X167849619Y-106203761D01*
X167811523Y-106241857D01*
X167773428Y-106318047D01*
X167773428Y-106508523D01*
X167811523Y-106584714D01*
X167849619Y-106622809D01*
X167925809Y-106660904D01*
X168116285Y-106660904D01*
X168192476Y-106622809D01*
X168230571Y-106584714D01*
X166579476Y-106660904D02*
X166579476Y-105860904D01*
X166389000Y-105860904D01*
X166274714Y-105899000D01*
X166198523Y-105975190D01*
X166160428Y-106051380D01*
X166122333Y-106203761D01*
X166122333Y-106318047D01*
X166160428Y-106470428D01*
X166198523Y-106546619D01*
X166274714Y-106622809D01*
X166389000Y-106660904D01*
X166579476Y-106660904D01*
X165855666Y-105860904D02*
X165360428Y-105860904D01*
X165627095Y-106165666D01*
X165512809Y-106165666D01*
X165436619Y-106203761D01*
X165398523Y-106241857D01*
X165360428Y-106318047D01*
X165360428Y-106508523D01*
X165398523Y-106584714D01*
X165436619Y-106622809D01*
X165512809Y-106660904D01*
X165741380Y-106660904D01*
X165817571Y-106622809D01*
X165855666Y-106584714D01*
X162858523Y-112668095D02*
X162858523Y-113468095D01*
X163049000Y-113468095D01*
X163163285Y-113430000D01*
X163239476Y-113353809D01*
X163277571Y-113277619D01*
X163315666Y-113125238D01*
X163315666Y-113010952D01*
X163277571Y-112858571D01*
X163239476Y-112782380D01*
X163163285Y-112706190D01*
X163049000Y-112668095D01*
X162858523Y-112668095D01*
X163810904Y-113468095D02*
X163887095Y-113468095D01*
X163963285Y-113430000D01*
X164001380Y-113391904D01*
X164039476Y-113315714D01*
X164077571Y-113163333D01*
X164077571Y-112972857D01*
X164039476Y-112820476D01*
X164001380Y-112744285D01*
X163963285Y-112706190D01*
X163887095Y-112668095D01*
X163810904Y-112668095D01*
X163734714Y-112706190D01*
X163696619Y-112744285D01*
X163658523Y-112820476D01*
X163620428Y-112972857D01*
X163620428Y-113163333D01*
X163658523Y-113315714D01*
X163696619Y-113391904D01*
X163734714Y-113430000D01*
X163810904Y-113468095D01*
X173018523Y-112668095D02*
X173018523Y-113468095D01*
X173209000Y-113468095D01*
X173323285Y-113430000D01*
X173399476Y-113353809D01*
X173437571Y-113277619D01*
X173475666Y-113125238D01*
X173475666Y-113010952D01*
X173437571Y-112858571D01*
X173399476Y-112782380D01*
X173323285Y-112706190D01*
X173209000Y-112668095D01*
X173018523Y-112668095D01*
X174161380Y-113468095D02*
X174009000Y-113468095D01*
X173932809Y-113430000D01*
X173894714Y-113391904D01*
X173818523Y-113277619D01*
X173780428Y-113125238D01*
X173780428Y-112820476D01*
X173818523Y-112744285D01*
X173856619Y-112706190D01*
X173932809Y-112668095D01*
X174085190Y-112668095D01*
X174161380Y-112706190D01*
X174199476Y-112744285D01*
X174237571Y-112820476D01*
X174237571Y-113010952D01*
X174199476Y-113087142D01*
X174161380Y-113125238D01*
X174085190Y-113163333D01*
X173932809Y-113163333D01*
X173856619Y-113125238D01*
X173818523Y-113087142D01*
X173780428Y-113010952D01*
X170605523Y-112668095D02*
X170605523Y-113468095D01*
X170796000Y-113468095D01*
X170910285Y-113430000D01*
X170986476Y-113353809D01*
X171024571Y-113277619D01*
X171062666Y-113125238D01*
X171062666Y-113010952D01*
X171024571Y-112858571D01*
X170986476Y-112782380D01*
X170910285Y-112706190D01*
X170796000Y-112668095D01*
X170605523Y-112668095D01*
X171748380Y-113201428D02*
X171748380Y-112668095D01*
X171557904Y-113506190D02*
X171367428Y-112934761D01*
X171862666Y-112934761D01*
X165398523Y-112668095D02*
X165398523Y-113468095D01*
X165589000Y-113468095D01*
X165703285Y-113430000D01*
X165779476Y-113353809D01*
X165817571Y-113277619D01*
X165855666Y-113125238D01*
X165855666Y-113010952D01*
X165817571Y-112858571D01*
X165779476Y-112782380D01*
X165703285Y-112706190D01*
X165589000Y-112668095D01*
X165398523Y-112668095D01*
X166160428Y-113391904D02*
X166198523Y-113430000D01*
X166274714Y-113468095D01*
X166465190Y-113468095D01*
X166541380Y-113430000D01*
X166579476Y-113391904D01*
X166617571Y-113315714D01*
X166617571Y-113239523D01*
X166579476Y-113125238D01*
X166122333Y-112668095D01*
X166617571Y-112668095D01*
X190112666Y-111880380D02*
X190112666Y-111499428D01*
X189884095Y-111956571D02*
X190684095Y-111689904D01*
X189884095Y-111423238D01*
X189884095Y-110813714D02*
X190684095Y-110813714D01*
X189922190Y-110813714D02*
X189884095Y-110889904D01*
X189884095Y-111042285D01*
X189922190Y-111118476D01*
X189960285Y-111156571D01*
X190036476Y-111194666D01*
X190265047Y-111194666D01*
X190341238Y-111156571D01*
X190379333Y-111118476D01*
X190417428Y-111042285D01*
X190417428Y-110889904D01*
X190379333Y-110813714D01*
X189884095Y-110089904D02*
X190684095Y-110089904D01*
X189922190Y-110089904D02*
X189884095Y-110166095D01*
X189884095Y-110318476D01*
X189922190Y-110394666D01*
X189960285Y-110432761D01*
X190036476Y-110470857D01*
X190265047Y-110470857D01*
X190341238Y-110432761D01*
X190379333Y-110394666D01*
X190417428Y-110318476D01*
X190417428Y-110166095D01*
X190379333Y-110089904D01*
X189884095Y-109708952D02*
X190417428Y-109708952D01*
X190265047Y-109708952D02*
X190341238Y-109670857D01*
X190379333Y-109632761D01*
X190417428Y-109556571D01*
X190417428Y-109480380D01*
X189922190Y-108908952D02*
X189884095Y-108985142D01*
X189884095Y-109137523D01*
X189922190Y-109213714D01*
X189998380Y-109251809D01*
X190303142Y-109251809D01*
X190379333Y-109213714D01*
X190417428Y-109137523D01*
X190417428Y-108985142D01*
X190379333Y-108908952D01*
X190303142Y-108870857D01*
X190226952Y-108870857D01*
X190150761Y-109251809D01*
X189922190Y-108566095D02*
X189884095Y-108489904D01*
X189884095Y-108337523D01*
X189922190Y-108261333D01*
X189998380Y-108223238D01*
X190036476Y-108223238D01*
X190112666Y-108261333D01*
X190150761Y-108337523D01*
X190150761Y-108451809D01*
X190188857Y-108528000D01*
X190265047Y-108566095D01*
X190303142Y-108566095D01*
X190379333Y-108528000D01*
X190417428Y-108451809D01*
X190417428Y-108337523D01*
X190379333Y-108261333D01*
X189922190Y-107918476D02*
X189884095Y-107842285D01*
X189884095Y-107689904D01*
X189922190Y-107613714D01*
X189998380Y-107575619D01*
X190036476Y-107575619D01*
X190112666Y-107613714D01*
X190150761Y-107689904D01*
X190150761Y-107804190D01*
X190188857Y-107880380D01*
X190265047Y-107918476D01*
X190303142Y-107918476D01*
X190379333Y-107880380D01*
X190417428Y-107804190D01*
X190417428Y-107689904D01*
X190379333Y-107613714D01*
X176295095Y-110762904D02*
X177095095Y-110762904D01*
X177095095Y-110572428D01*
X177057000Y-110458142D01*
X176980809Y-110381952D01*
X176904619Y-110343857D01*
X176752238Y-110305761D01*
X176637952Y-110305761D01*
X176485571Y-110343857D01*
X176409380Y-110381952D01*
X176333190Y-110458142D01*
X176295095Y-110572428D01*
X176295095Y-110762904D01*
X176295095Y-109620047D02*
X176714142Y-109620047D01*
X176790333Y-109658142D01*
X176828428Y-109734333D01*
X176828428Y-109886714D01*
X176790333Y-109962904D01*
X176333190Y-109620047D02*
X176295095Y-109696238D01*
X176295095Y-109886714D01*
X176333190Y-109962904D01*
X176409380Y-110001000D01*
X176485571Y-110001000D01*
X176561761Y-109962904D01*
X176599857Y-109886714D01*
X176599857Y-109696238D01*
X176637952Y-109620047D01*
X176828428Y-109353380D02*
X176828428Y-109048619D01*
X177095095Y-109239095D02*
X176409380Y-109239095D01*
X176333190Y-109201000D01*
X176295095Y-109124809D01*
X176295095Y-109048619D01*
X176295095Y-108439095D02*
X176714142Y-108439095D01*
X176790333Y-108477190D01*
X176828428Y-108553380D01*
X176828428Y-108705761D01*
X176790333Y-108781952D01*
X176333190Y-108439095D02*
X176295095Y-108515285D01*
X176295095Y-108705761D01*
X176333190Y-108781952D01*
X176409380Y-108820047D01*
X176485571Y-108820047D01*
X176561761Y-108781952D01*
X176599857Y-108705761D01*
X176599857Y-108515285D01*
X176637952Y-108439095D01*
X217257523Y-89579404D02*
X217257523Y-88779404D01*
X216952761Y-88779404D01*
X216876571Y-88817500D01*
X216838476Y-88855595D01*
X216800380Y-88931785D01*
X216800380Y-89046071D01*
X216838476Y-89122261D01*
X216876571Y-89160357D01*
X216952761Y-89198452D01*
X217257523Y-89198452D01*
X216457523Y-89579404D02*
X216457523Y-88779404D01*
X216457523Y-89160357D02*
X216000380Y-89160357D01*
X216000380Y-89579404D02*
X216000380Y-88779404D01*
X215200380Y-89579404D02*
X215657523Y-89579404D01*
X215428952Y-89579404D02*
X215428952Y-88779404D01*
X215505142Y-88893690D01*
X215581333Y-88969880D01*
X215657523Y-89007976D01*
X215880928Y-96900976D02*
X215347595Y-96900976D01*
X216185690Y-97091452D02*
X215614261Y-97281928D01*
X215614261Y-96786690D01*
X215576166Y-96520023D02*
X215576166Y-96139071D01*
X215347595Y-96596214D02*
X216147595Y-96329547D01*
X215347595Y-96062880D01*
X216147595Y-102457166D02*
X216147595Y-101961928D01*
X215842833Y-102228595D01*
X215842833Y-102114309D01*
X215804738Y-102038119D01*
X215766642Y-102000023D01*
X215690452Y-101961928D01*
X215499976Y-101961928D01*
X215423785Y-102000023D01*
X215385690Y-102038119D01*
X215347595Y-102114309D01*
X215347595Y-102342880D01*
X215385690Y-102419071D01*
X215423785Y-102457166D01*
X215766642Y-101352404D02*
X215728547Y-101238119D01*
X215690452Y-101200023D01*
X215614261Y-101161928D01*
X215499976Y-101161928D01*
X215423785Y-101200023D01*
X215385690Y-101238119D01*
X215347595Y-101314309D01*
X215347595Y-101619071D01*
X216147595Y-101619071D01*
X216147595Y-101352404D01*
X216109500Y-101276214D01*
X216071404Y-101238119D01*
X215995214Y-101200023D01*
X215919023Y-101200023D01*
X215842833Y-101238119D01*
X215804738Y-101276214D01*
X215766642Y-101352404D01*
X215766642Y-101619071D01*
X216147595Y-105067023D02*
X216147595Y-104571785D01*
X215842833Y-104838452D01*
X215842833Y-104724166D01*
X215804738Y-104647976D01*
X215766642Y-104609880D01*
X215690452Y-104571785D01*
X215499976Y-104571785D01*
X215423785Y-104609880D01*
X215385690Y-104647976D01*
X215347595Y-104724166D01*
X215347595Y-104952738D01*
X215385690Y-105028928D01*
X215423785Y-105067023D01*
X215576166Y-104267023D02*
X215576166Y-103886071D01*
X215347595Y-104343214D02*
X216147595Y-104076547D01*
X215347595Y-103809880D01*
X216147595Y-99860023D02*
X216147595Y-99364785D01*
X215842833Y-99631452D01*
X215842833Y-99517166D01*
X215804738Y-99440976D01*
X215766642Y-99402880D01*
X215690452Y-99364785D01*
X215499976Y-99364785D01*
X215423785Y-99402880D01*
X215385690Y-99440976D01*
X215347595Y-99517166D01*
X215347595Y-99745738D01*
X215385690Y-99821928D01*
X215423785Y-99860023D01*
X215728547Y-98869547D02*
X215347595Y-98869547D01*
X216147595Y-99136214D02*
X215728547Y-98869547D01*
X216147595Y-98602880D01*
X215880928Y-94418119D02*
X215347595Y-94418119D01*
X216185690Y-94608595D02*
X215614261Y-94799071D01*
X215614261Y-94303833D01*
X215766642Y-93732404D02*
X215728547Y-93618119D01*
X215690452Y-93580023D01*
X215614261Y-93541928D01*
X215499976Y-93541928D01*
X215423785Y-93580023D01*
X215385690Y-93618119D01*
X215347595Y-93694309D01*
X215347595Y-93999071D01*
X216147595Y-93999071D01*
X216147595Y-93732404D01*
X216109500Y-93656214D01*
X216071404Y-93618119D01*
X215995214Y-93580023D01*
X215919023Y-93580023D01*
X215842833Y-93618119D01*
X215804738Y-93656214D01*
X215766642Y-93732404D01*
X215766642Y-93999071D01*
X215880928Y-91884476D02*
X215347595Y-91884476D01*
X216185690Y-92074952D02*
X215614261Y-92265428D01*
X215614261Y-91770190D01*
X215728547Y-91313047D02*
X215347595Y-91313047D01*
X216147595Y-91579714D02*
X215728547Y-91313047D01*
X216147595Y-91046380D01*
X207454619Y-113023666D02*
X207835571Y-113023666D01*
X207378428Y-112795095D02*
X207645095Y-113595095D01*
X207911761Y-112795095D01*
X208597476Y-112795095D02*
X208140333Y-112795095D01*
X208368904Y-112795095D02*
X208368904Y-113595095D01*
X208292714Y-113480809D01*
X208216523Y-113404619D01*
X208140333Y-113366523D01*
X209092714Y-113595095D02*
X209168904Y-113595095D01*
X209245095Y-113557000D01*
X209283190Y-113518904D01*
X209321285Y-113442714D01*
X209359380Y-113290333D01*
X209359380Y-113099857D01*
X209321285Y-112947476D01*
X209283190Y-112871285D01*
X209245095Y-112833190D01*
X209168904Y-112795095D01*
X209092714Y-112795095D01*
X209016523Y-112833190D01*
X208978428Y-112871285D01*
X208940333Y-112947476D01*
X208902238Y-113099857D01*
X208902238Y-113290333D01*
X208940333Y-113442714D01*
X208978428Y-113518904D01*
X209016523Y-113557000D01*
X209092714Y-113595095D01*
X192468571Y-113023666D02*
X192849523Y-113023666D01*
X192392380Y-112795095D02*
X192659047Y-113595095D01*
X192925714Y-112795095D01*
X193344761Y-113595095D02*
X193420952Y-113595095D01*
X193497142Y-113557000D01*
X193535238Y-113518904D01*
X193573333Y-113442714D01*
X193611428Y-113290333D01*
X193611428Y-113099857D01*
X193573333Y-112947476D01*
X193535238Y-112871285D01*
X193497142Y-112833190D01*
X193420952Y-112795095D01*
X193344761Y-112795095D01*
X193268571Y-112833190D01*
X193230476Y-112871285D01*
X193192380Y-112947476D01*
X193154285Y-113099857D01*
X193154285Y-113290333D01*
X193192380Y-113442714D01*
X193230476Y-113518904D01*
X193268571Y-113557000D01*
X193344761Y-113595095D01*
X215201619Y-113023666D02*
X215582571Y-113023666D01*
X215125428Y-112795095D02*
X215392095Y-113595095D01*
X215658761Y-112795095D01*
X216344476Y-112795095D02*
X215887333Y-112795095D01*
X216115904Y-112795095D02*
X216115904Y-113595095D01*
X216039714Y-113480809D01*
X215963523Y-113404619D01*
X215887333Y-113366523D01*
X217030190Y-113328428D02*
X217030190Y-112795095D01*
X216839714Y-113633190D02*
X216649238Y-113061761D01*
X217144476Y-113061761D01*
X212407619Y-113023666D02*
X212788571Y-113023666D01*
X212331428Y-112795095D02*
X212598095Y-113595095D01*
X212864761Y-112795095D01*
X213550476Y-112795095D02*
X213093333Y-112795095D01*
X213321904Y-112795095D02*
X213321904Y-113595095D01*
X213245714Y-113480809D01*
X213169523Y-113404619D01*
X213093333Y-113366523D01*
X213855238Y-113518904D02*
X213893333Y-113557000D01*
X213969523Y-113595095D01*
X214160000Y-113595095D01*
X214236190Y-113557000D01*
X214274285Y-113518904D01*
X214312380Y-113442714D01*
X214312380Y-113366523D01*
X214274285Y-113252238D01*
X213817142Y-112795095D01*
X214312380Y-112795095D01*
X197548571Y-113023666D02*
X197929523Y-113023666D01*
X197472380Y-112795095D02*
X197739047Y-113595095D01*
X198005714Y-112795095D01*
X198615238Y-113328428D02*
X198615238Y-112795095D01*
X198424761Y-113633190D02*
X198234285Y-113061761D01*
X198729523Y-113061761D01*
X205168571Y-113023666D02*
X205549523Y-113023666D01*
X205092380Y-112795095D02*
X205359047Y-113595095D01*
X205625714Y-112795095D01*
X206006666Y-113252238D02*
X205930476Y-113290333D01*
X205892380Y-113328428D01*
X205854285Y-113404619D01*
X205854285Y-113442714D01*
X205892380Y-113518904D01*
X205930476Y-113557000D01*
X206006666Y-113595095D01*
X206159047Y-113595095D01*
X206235238Y-113557000D01*
X206273333Y-113518904D01*
X206311428Y-113442714D01*
X206311428Y-113404619D01*
X206273333Y-113328428D01*
X206235238Y-113290333D01*
X206159047Y-113252238D01*
X206006666Y-113252238D01*
X205930476Y-113214142D01*
X205892380Y-113176047D01*
X205854285Y-113099857D01*
X205854285Y-112947476D01*
X205892380Y-112871285D01*
X205930476Y-112833190D01*
X206006666Y-112795095D01*
X206159047Y-112795095D01*
X206235238Y-112833190D01*
X206273333Y-112871285D01*
X206311428Y-112947476D01*
X206311428Y-113099857D01*
X206273333Y-113176047D01*
X206235238Y-113214142D01*
X206159047Y-113252238D01*
X195008571Y-113023666D02*
X195389523Y-113023666D01*
X194932380Y-112795095D02*
X195199047Y-113595095D01*
X195465714Y-112795095D01*
X195694285Y-113518904D02*
X195732380Y-113557000D01*
X195808571Y-113595095D01*
X195999047Y-113595095D01*
X196075238Y-113557000D01*
X196113333Y-113518904D01*
X196151428Y-113442714D01*
X196151428Y-113366523D01*
X196113333Y-113252238D01*
X195656190Y-112795095D01*
X196151428Y-112795095D01*
X202628571Y-113023666D02*
X203009523Y-113023666D01*
X202552380Y-112795095D02*
X202819047Y-113595095D01*
X203085714Y-112795095D01*
X203695238Y-113595095D02*
X203542857Y-113595095D01*
X203466666Y-113557000D01*
X203428571Y-113518904D01*
X203352380Y-113404619D01*
X203314285Y-113252238D01*
X203314285Y-112947476D01*
X203352380Y-112871285D01*
X203390476Y-112833190D01*
X203466666Y-112795095D01*
X203619047Y-112795095D01*
X203695238Y-112833190D01*
X203733333Y-112871285D01*
X203771428Y-112947476D01*
X203771428Y-113137952D01*
X203733333Y-113214142D01*
X203695238Y-113252238D01*
X203619047Y-113290333D01*
X203466666Y-113290333D01*
X203390476Y-113252238D01*
X203352380Y-113214142D01*
X203314285Y-113137952D01*
X198691428Y-106559333D02*
X198310476Y-106559333D01*
X198767619Y-106787904D02*
X198500952Y-105987904D01*
X198234285Y-106787904D01*
X198043809Y-105987904D02*
X197548571Y-105987904D01*
X197815238Y-106292666D01*
X197700952Y-106292666D01*
X197624761Y-106330761D01*
X197586666Y-106368857D01*
X197548571Y-106445047D01*
X197548571Y-106635523D01*
X197586666Y-106711714D01*
X197624761Y-106749809D01*
X197700952Y-106787904D01*
X197929523Y-106787904D01*
X198005714Y-106749809D01*
X198043809Y-106711714D01*
X211772380Y-106559333D02*
X211391428Y-106559333D01*
X211848571Y-106787904D02*
X211581904Y-105987904D01*
X211315238Y-106787904D01*
X210629523Y-106787904D02*
X211086666Y-106787904D01*
X210858095Y-106787904D02*
X210858095Y-105987904D01*
X210934285Y-106102190D01*
X211010476Y-106178380D01*
X211086666Y-106216476D01*
X209867619Y-106787904D02*
X210324761Y-106787904D01*
X210096190Y-106787904D02*
X210096190Y-105987904D01*
X210172380Y-106102190D01*
X210248571Y-106178380D01*
X210324761Y-106216476D01*
X208851428Y-106559333D02*
X208470476Y-106559333D01*
X208927619Y-106787904D02*
X208660952Y-105987904D01*
X208394285Y-106787904D01*
X208089523Y-106787904D02*
X207937142Y-106787904D01*
X207860952Y-106749809D01*
X207822857Y-106711714D01*
X207746666Y-106597428D01*
X207708571Y-106445047D01*
X207708571Y-106140285D01*
X207746666Y-106064095D01*
X207784761Y-106026000D01*
X207860952Y-105987904D01*
X208013333Y-105987904D01*
X208089523Y-106026000D01*
X208127619Y-106064095D01*
X208165714Y-106140285D01*
X208165714Y-106330761D01*
X208127619Y-106406952D01*
X208089523Y-106445047D01*
X208013333Y-106483142D01*
X207860952Y-106483142D01*
X207784761Y-106445047D01*
X207746666Y-106406952D01*
X207708571Y-106330761D01*
X203771428Y-106559333D02*
X203390476Y-106559333D01*
X203847619Y-106787904D02*
X203580952Y-105987904D01*
X203314285Y-106787904D01*
X203123809Y-105987904D02*
X202590476Y-105987904D01*
X202933333Y-106787904D01*
X201104428Y-106559333D02*
X200723476Y-106559333D01*
X201180619Y-106787904D02*
X200913952Y-105987904D01*
X200647285Y-106787904D01*
X199999666Y-105987904D02*
X200380619Y-105987904D01*
X200418714Y-106368857D01*
X200380619Y-106330761D01*
X200304428Y-106292666D01*
X200113952Y-106292666D01*
X200037761Y-106330761D01*
X199999666Y-106368857D01*
X199961571Y-106445047D01*
X199961571Y-106635523D01*
X199999666Y-106711714D01*
X200037761Y-106749809D01*
X200113952Y-106787904D01*
X200304428Y-106787904D01*
X200380619Y-106749809D01*
X200418714Y-106711714D01*
X193611428Y-106559333D02*
X193230476Y-106559333D01*
X193687619Y-106787904D02*
X193420952Y-105987904D01*
X193154285Y-106787904D01*
X192468571Y-106787904D02*
X192925714Y-106787904D01*
X192697142Y-106787904D02*
X192697142Y-105987904D01*
X192773333Y-106102190D01*
X192849523Y-106178380D01*
X192925714Y-106216476D01*
X216979380Y-106559333D02*
X216598428Y-106559333D01*
X217055571Y-106787904D02*
X216788904Y-105987904D01*
X216522238Y-106787904D01*
X215836523Y-106787904D02*
X216293666Y-106787904D01*
X216065095Y-106787904D02*
X216065095Y-105987904D01*
X216141285Y-106102190D01*
X216217476Y-106178380D01*
X216293666Y-106216476D01*
X215112714Y-105987904D02*
X215493666Y-105987904D01*
X215531761Y-106368857D01*
X215493666Y-106330761D01*
X215417476Y-106292666D01*
X215227000Y-106292666D01*
X215150809Y-106330761D01*
X215112714Y-106368857D01*
X215074619Y-106445047D01*
X215074619Y-106635523D01*
X215112714Y-106711714D01*
X215150809Y-106749809D01*
X215227000Y-106787904D01*
X215417476Y-106787904D01*
X215493666Y-106749809D01*
X215531761Y-106711714D01*
D12*
X213947285Y-106526000D02*
X213661571Y-106526000D01*
X214004428Y-106697428D02*
X213804428Y-106097428D01*
X213604428Y-106697428D01*
X213090142Y-106697428D02*
X213433000Y-106697428D01*
X213261571Y-106697428D02*
X213261571Y-106097428D01*
X213318714Y-106183142D01*
X213375857Y-106240285D01*
X213433000Y-106268857D01*
X212890142Y-106097428D02*
X212518714Y-106097428D01*
X212718714Y-106326000D01*
X212633000Y-106326000D01*
X212575857Y-106354571D01*
X212547285Y-106383142D01*
X212518714Y-106440285D01*
X212518714Y-106583142D01*
X212547285Y-106640285D01*
X212575857Y-106668857D01*
X212633000Y-106697428D01*
X212804428Y-106697428D01*
X212861571Y-106668857D01*
X212890142Y-106640285D01*
D10*
X203644380Y-104908333D02*
X203263428Y-104908333D01*
X203720571Y-105136904D02*
X203453904Y-104336904D01*
X203187238Y-105136904D01*
X202501523Y-105136904D02*
X202958666Y-105136904D01*
X202730095Y-105136904D02*
X202730095Y-104336904D01*
X202806285Y-104451190D01*
X202882476Y-104527380D01*
X202958666Y-104565476D01*
X201815809Y-104603571D02*
X201815809Y-105136904D01*
X202006285Y-104298809D02*
X202196761Y-104870238D01*
X201701523Y-104870238D01*
X206438380Y-104908333D02*
X206057428Y-104908333D01*
X206514571Y-105136904D02*
X206247904Y-104336904D01*
X205981238Y-105136904D01*
X205295523Y-105136904D02*
X205752666Y-105136904D01*
X205524095Y-105136904D02*
X205524095Y-104336904D01*
X205600285Y-104451190D01*
X205676476Y-104527380D01*
X205752666Y-104565476D01*
X204571714Y-104336904D02*
X204952666Y-104336904D01*
X204990761Y-104717857D01*
X204952666Y-104679761D01*
X204876476Y-104641666D01*
X204686000Y-104641666D01*
X204609809Y-104679761D01*
X204571714Y-104717857D01*
X204533619Y-104794047D01*
X204533619Y-104984523D01*
X204571714Y-105060714D01*
X204609809Y-105098809D01*
X204686000Y-105136904D01*
X204876476Y-105136904D01*
X204952666Y-105098809D01*
X204990761Y-105060714D01*
X201104380Y-104908333D02*
X200723428Y-104908333D01*
X201180571Y-105136904D02*
X200913904Y-104336904D01*
X200647238Y-105136904D01*
X199961523Y-105136904D02*
X200418666Y-105136904D01*
X200190095Y-105136904D02*
X200190095Y-104336904D01*
X200266285Y-104451190D01*
X200342476Y-104527380D01*
X200418666Y-104565476D01*
X199694857Y-104336904D02*
X199199619Y-104336904D01*
X199466285Y-104641666D01*
X199352000Y-104641666D01*
X199275809Y-104679761D01*
X199237714Y-104717857D01*
X199199619Y-104794047D01*
X199199619Y-104984523D01*
X199237714Y-105060714D01*
X199275809Y-105098809D01*
X199352000Y-105136904D01*
X199580571Y-105136904D01*
X199656761Y-105098809D01*
X199694857Y-105060714D01*
X190563380Y-104908333D02*
X190182428Y-104908333D01*
X190639571Y-105136904D02*
X190372904Y-104336904D01*
X190106238Y-105136904D01*
X189420523Y-105136904D02*
X189877666Y-105136904D01*
X189649095Y-105136904D02*
X189649095Y-104336904D01*
X189725285Y-104451190D01*
X189801476Y-104527380D01*
X189877666Y-104565476D01*
X188925285Y-104336904D02*
X188849095Y-104336904D01*
X188772904Y-104375000D01*
X188734809Y-104413095D01*
X188696714Y-104489285D01*
X188658619Y-104641666D01*
X188658619Y-104832142D01*
X188696714Y-104984523D01*
X188734809Y-105060714D01*
X188772904Y-105098809D01*
X188849095Y-105136904D01*
X188925285Y-105136904D01*
X189001476Y-105098809D01*
X189039571Y-105060714D01*
X189077666Y-104984523D01*
X189115761Y-104832142D01*
X189115761Y-104641666D01*
X189077666Y-104489285D01*
X189039571Y-104413095D01*
X189001476Y-104375000D01*
X188925285Y-104336904D01*
X185356428Y-104908333D02*
X184975476Y-104908333D01*
X185432619Y-105136904D02*
X185165952Y-104336904D01*
X184899285Y-105136904D01*
X184594523Y-105136904D02*
X184442142Y-105136904D01*
X184365952Y-105098809D01*
X184327857Y-105060714D01*
X184251666Y-104946428D01*
X184213571Y-104794047D01*
X184213571Y-104489285D01*
X184251666Y-104413095D01*
X184289761Y-104375000D01*
X184365952Y-104336904D01*
X184518333Y-104336904D01*
X184594523Y-104375000D01*
X184632619Y-104413095D01*
X184670714Y-104489285D01*
X184670714Y-104679761D01*
X184632619Y-104755952D01*
X184594523Y-104794047D01*
X184518333Y-104832142D01*
X184365952Y-104832142D01*
X184289761Y-104794047D01*
X184251666Y-104755952D01*
X184213571Y-104679761D01*
X180276428Y-104908333D02*
X179895476Y-104908333D01*
X180352619Y-105136904D02*
X180085952Y-104336904D01*
X179819285Y-105136904D01*
X179628809Y-104336904D02*
X179095476Y-104336904D01*
X179438333Y-105136904D01*
X193357380Y-104908333D02*
X192976428Y-104908333D01*
X193433571Y-105136904D02*
X193166904Y-104336904D01*
X192900238Y-105136904D01*
X192214523Y-105136904D02*
X192671666Y-105136904D01*
X192443095Y-105136904D02*
X192443095Y-104336904D01*
X192519285Y-104451190D01*
X192595476Y-104527380D01*
X192671666Y-104565476D01*
X191452619Y-105136904D02*
X191909761Y-105136904D01*
X191681190Y-105136904D02*
X191681190Y-104336904D01*
X191757380Y-104451190D01*
X191833571Y-104527380D01*
X191909761Y-104565476D01*
X196151380Y-104908333D02*
X195770428Y-104908333D01*
X196227571Y-105136904D02*
X195960904Y-104336904D01*
X195694238Y-105136904D01*
X195008523Y-105136904D02*
X195465666Y-105136904D01*
X195237095Y-105136904D02*
X195237095Y-104336904D01*
X195313285Y-104451190D01*
X195389476Y-104527380D01*
X195465666Y-104565476D01*
X194703761Y-104413095D02*
X194665666Y-104375000D01*
X194589476Y-104336904D01*
X194399000Y-104336904D01*
X194322809Y-104375000D01*
X194284714Y-104413095D01*
X194246619Y-104489285D01*
X194246619Y-104565476D01*
X194284714Y-104679761D01*
X194741857Y-105136904D01*
X194246619Y-105136904D01*
X182943428Y-104908333D02*
X182562476Y-104908333D01*
X183019619Y-105136904D02*
X182752952Y-104336904D01*
X182486285Y-105136904D01*
X182105333Y-104679761D02*
X182181523Y-104641666D01*
X182219619Y-104603571D01*
X182257714Y-104527380D01*
X182257714Y-104489285D01*
X182219619Y-104413095D01*
X182181523Y-104375000D01*
X182105333Y-104336904D01*
X181952952Y-104336904D01*
X181876761Y-104375000D01*
X181838666Y-104413095D01*
X181800571Y-104489285D01*
X181800571Y-104527380D01*
X181838666Y-104603571D01*
X181876761Y-104641666D01*
X181952952Y-104679761D01*
X182105333Y-104679761D01*
X182181523Y-104717857D01*
X182219619Y-104755952D01*
X182257714Y-104832142D01*
X182257714Y-104984523D01*
X182219619Y-105060714D01*
X182181523Y-105098809D01*
X182105333Y-105136904D01*
X181952952Y-105136904D01*
X181876761Y-105098809D01*
X181838666Y-105060714D01*
X181800571Y-104984523D01*
X181800571Y-104832142D01*
X181838666Y-104755952D01*
X181876761Y-104717857D01*
X181952952Y-104679761D01*
X203898380Y-100463333D02*
X203517428Y-100463333D01*
X203974571Y-100691904D02*
X203707904Y-99891904D01*
X203441238Y-100691904D01*
X202755523Y-100691904D02*
X203212666Y-100691904D01*
X202984095Y-100691904D02*
X202984095Y-99891904D01*
X203060285Y-100006190D01*
X203136476Y-100082380D01*
X203212666Y-100120476D01*
X202069809Y-100158571D02*
X202069809Y-100691904D01*
X202260285Y-99853809D02*
X202450761Y-100425238D01*
X201955523Y-100425238D01*
X206692380Y-100463333D02*
X206311428Y-100463333D01*
X206768571Y-100691904D02*
X206501904Y-99891904D01*
X206235238Y-100691904D01*
X205549523Y-100691904D02*
X206006666Y-100691904D01*
X205778095Y-100691904D02*
X205778095Y-99891904D01*
X205854285Y-100006190D01*
X205930476Y-100082380D01*
X206006666Y-100120476D01*
X204825714Y-99891904D02*
X205206666Y-99891904D01*
X205244761Y-100272857D01*
X205206666Y-100234761D01*
X205130476Y-100196666D01*
X204940000Y-100196666D01*
X204863809Y-100234761D01*
X204825714Y-100272857D01*
X204787619Y-100349047D01*
X204787619Y-100539523D01*
X204825714Y-100615714D01*
X204863809Y-100653809D01*
X204940000Y-100691904D01*
X205130476Y-100691904D01*
X205206666Y-100653809D01*
X205244761Y-100615714D01*
X201358380Y-100463333D02*
X200977428Y-100463333D01*
X201434571Y-100691904D02*
X201167904Y-99891904D01*
X200901238Y-100691904D01*
X200215523Y-100691904D02*
X200672666Y-100691904D01*
X200444095Y-100691904D02*
X200444095Y-99891904D01*
X200520285Y-100006190D01*
X200596476Y-100082380D01*
X200672666Y-100120476D01*
X199948857Y-99891904D02*
X199453619Y-99891904D01*
X199720285Y-100196666D01*
X199606000Y-100196666D01*
X199529809Y-100234761D01*
X199491714Y-100272857D01*
X199453619Y-100349047D01*
X199453619Y-100539523D01*
X199491714Y-100615714D01*
X199529809Y-100653809D01*
X199606000Y-100691904D01*
X199834571Y-100691904D01*
X199910761Y-100653809D01*
X199948857Y-100615714D01*
X190817380Y-100463333D02*
X190436428Y-100463333D01*
X190893571Y-100691904D02*
X190626904Y-99891904D01*
X190360238Y-100691904D01*
X189674523Y-100691904D02*
X190131666Y-100691904D01*
X189903095Y-100691904D02*
X189903095Y-99891904D01*
X189979285Y-100006190D01*
X190055476Y-100082380D01*
X190131666Y-100120476D01*
X189179285Y-99891904D02*
X189103095Y-99891904D01*
X189026904Y-99930000D01*
X188988809Y-99968095D01*
X188950714Y-100044285D01*
X188912619Y-100196666D01*
X188912619Y-100387142D01*
X188950714Y-100539523D01*
X188988809Y-100615714D01*
X189026904Y-100653809D01*
X189103095Y-100691904D01*
X189179285Y-100691904D01*
X189255476Y-100653809D01*
X189293571Y-100615714D01*
X189331666Y-100539523D01*
X189369761Y-100387142D01*
X189369761Y-100196666D01*
X189331666Y-100044285D01*
X189293571Y-99968095D01*
X189255476Y-99930000D01*
X189179285Y-99891904D01*
X185610428Y-100463333D02*
X185229476Y-100463333D01*
X185686619Y-100691904D02*
X185419952Y-99891904D01*
X185153285Y-100691904D01*
X184848523Y-100691904D02*
X184696142Y-100691904D01*
X184619952Y-100653809D01*
X184581857Y-100615714D01*
X184505666Y-100501428D01*
X184467571Y-100349047D01*
X184467571Y-100044285D01*
X184505666Y-99968095D01*
X184543761Y-99930000D01*
X184619952Y-99891904D01*
X184772333Y-99891904D01*
X184848523Y-99930000D01*
X184886619Y-99968095D01*
X184924714Y-100044285D01*
X184924714Y-100234761D01*
X184886619Y-100310952D01*
X184848523Y-100349047D01*
X184772333Y-100387142D01*
X184619952Y-100387142D01*
X184543761Y-100349047D01*
X184505666Y-100310952D01*
X184467571Y-100234761D01*
X180530428Y-100463333D02*
X180149476Y-100463333D01*
X180606619Y-100691904D02*
X180339952Y-99891904D01*
X180073285Y-100691904D01*
X179882809Y-99891904D02*
X179349476Y-99891904D01*
X179692333Y-100691904D01*
X193611380Y-100463333D02*
X193230428Y-100463333D01*
X193687571Y-100691904D02*
X193420904Y-99891904D01*
X193154238Y-100691904D01*
X192468523Y-100691904D02*
X192925666Y-100691904D01*
X192697095Y-100691904D02*
X192697095Y-99891904D01*
X192773285Y-100006190D01*
X192849476Y-100082380D01*
X192925666Y-100120476D01*
X191706619Y-100691904D02*
X192163761Y-100691904D01*
X191935190Y-100691904D02*
X191935190Y-99891904D01*
X192011380Y-100006190D01*
X192087571Y-100082380D01*
X192163761Y-100120476D01*
X196405380Y-100463333D02*
X196024428Y-100463333D01*
X196481571Y-100691904D02*
X196214904Y-99891904D01*
X195948238Y-100691904D01*
X195262523Y-100691904D02*
X195719666Y-100691904D01*
X195491095Y-100691904D02*
X195491095Y-99891904D01*
X195567285Y-100006190D01*
X195643476Y-100082380D01*
X195719666Y-100120476D01*
X194957761Y-99968095D02*
X194919666Y-99930000D01*
X194843476Y-99891904D01*
X194653000Y-99891904D01*
X194576809Y-99930000D01*
X194538714Y-99968095D01*
X194500619Y-100044285D01*
X194500619Y-100120476D01*
X194538714Y-100234761D01*
X194995857Y-100691904D01*
X194500619Y-100691904D01*
X183197428Y-100463333D02*
X182816476Y-100463333D01*
X183273619Y-100691904D02*
X183006952Y-99891904D01*
X182740285Y-100691904D01*
X182359333Y-100234761D02*
X182435523Y-100196666D01*
X182473619Y-100158571D01*
X182511714Y-100082380D01*
X182511714Y-100044285D01*
X182473619Y-99968095D01*
X182435523Y-99930000D01*
X182359333Y-99891904D01*
X182206952Y-99891904D01*
X182130761Y-99930000D01*
X182092666Y-99968095D01*
X182054571Y-100044285D01*
X182054571Y-100082380D01*
X182092666Y-100158571D01*
X182130761Y-100196666D01*
X182206952Y-100234761D01*
X182359333Y-100234761D01*
X182435523Y-100272857D01*
X182473619Y-100310952D01*
X182511714Y-100387142D01*
X182511714Y-100539523D01*
X182473619Y-100615714D01*
X182435523Y-100653809D01*
X182359333Y-100691904D01*
X182206952Y-100691904D01*
X182130761Y-100653809D01*
X182092666Y-100615714D01*
X182054571Y-100539523D01*
X182054571Y-100387142D01*
X182092666Y-100310952D01*
X182130761Y-100272857D01*
X182206952Y-100234761D01*
X206933666Y-78911404D02*
X206933666Y-78111404D01*
X206743190Y-78111404D01*
X206628904Y-78149500D01*
X206552713Y-78225690D01*
X206514618Y-78301880D01*
X206476523Y-78454261D01*
X206476523Y-78568547D01*
X206514618Y-78720928D01*
X206552713Y-78797119D01*
X206628904Y-78873309D01*
X206743190Y-78911404D01*
X206933666Y-78911404D01*
X205714618Y-78911404D02*
X206171761Y-78911404D01*
X205943190Y-78911404D02*
X205943190Y-78111404D01*
X206019380Y-78225690D01*
X206095570Y-78301880D01*
X206171761Y-78339976D01*
X206476523Y-73958404D02*
X206743190Y-73577452D01*
X206933666Y-73958404D02*
X206933666Y-73158404D01*
X206628904Y-73158404D01*
X206552714Y-73196500D01*
X206514619Y-73234595D01*
X206476523Y-73310785D01*
X206476523Y-73425071D01*
X206514619Y-73501261D01*
X206552714Y-73539357D01*
X206628904Y-73577452D01*
X206933666Y-73577452D01*
X206209857Y-73158404D02*
X206019380Y-73958404D01*
X205867000Y-73386976D01*
X205714619Y-73958404D01*
X205524142Y-73158404D01*
X204952714Y-73539357D02*
X204838428Y-73577452D01*
X204800333Y-73615547D01*
X204762238Y-73691738D01*
X204762238Y-73806023D01*
X204800333Y-73882214D01*
X204838428Y-73920309D01*
X204914619Y-73958404D01*
X205219380Y-73958404D01*
X205219380Y-73158404D01*
X204952714Y-73158404D01*
X204876523Y-73196500D01*
X204838428Y-73234595D01*
X204800333Y-73310785D01*
X204800333Y-73386976D01*
X204838428Y-73463166D01*
X204876523Y-73501261D01*
X204952714Y-73539357D01*
X205219380Y-73539357D01*
X206933666Y-83927904D02*
X206933666Y-83127904D01*
X206743190Y-83127904D01*
X206628904Y-83166000D01*
X206552713Y-83242190D01*
X206514618Y-83318380D01*
X206476523Y-83470761D01*
X206476523Y-83585047D01*
X206514618Y-83737428D01*
X206552713Y-83813619D01*
X206628904Y-83889809D01*
X206743190Y-83927904D01*
X206933666Y-83927904D01*
X206171761Y-83204095D02*
X206133666Y-83166000D01*
X206057475Y-83127904D01*
X205866999Y-83127904D01*
X205790809Y-83166000D01*
X205752713Y-83204095D01*
X205714618Y-83280285D01*
X205714618Y-83356476D01*
X205752713Y-83470761D01*
X206209856Y-83927904D01*
X205714618Y-83927904D01*
X206933666Y-76371404D02*
X206933666Y-75571404D01*
X206743190Y-75571404D01*
X206628904Y-75609500D01*
X206552713Y-75685690D01*
X206514618Y-75761880D01*
X206476523Y-75914261D01*
X206476523Y-76028547D01*
X206514618Y-76180928D01*
X206552713Y-76257119D01*
X206628904Y-76333309D01*
X206743190Y-76371404D01*
X206933666Y-76371404D01*
X205981285Y-75571404D02*
X205905094Y-75571404D01*
X205828904Y-75609500D01*
X205790809Y-75647595D01*
X205752713Y-75723785D01*
X205714618Y-75876166D01*
X205714618Y-76066642D01*
X205752713Y-76219023D01*
X205790809Y-76295214D01*
X205828904Y-76333309D01*
X205905094Y-76371404D01*
X205981285Y-76371404D01*
X206057475Y-76333309D01*
X206095570Y-76295214D01*
X206133666Y-76219023D01*
X206171761Y-76066642D01*
X206171761Y-75876166D01*
X206133666Y-75723785D01*
X206095570Y-75647595D01*
X206057475Y-75609500D01*
X205981285Y-75571404D01*
X206933666Y-86531404D02*
X206933666Y-85731404D01*
X206743190Y-85731404D01*
X206628904Y-85769500D01*
X206552713Y-85845690D01*
X206514618Y-85921880D01*
X206476523Y-86074261D01*
X206476523Y-86188547D01*
X206514618Y-86340928D01*
X206552713Y-86417119D01*
X206628904Y-86493309D01*
X206743190Y-86531404D01*
X206933666Y-86531404D01*
X206209856Y-85731404D02*
X205714618Y-85731404D01*
X205981285Y-86036166D01*
X205866999Y-86036166D01*
X205790809Y-86074261D01*
X205752713Y-86112357D01*
X205714618Y-86188547D01*
X205714618Y-86379023D01*
X205752713Y-86455214D01*
X205790809Y-86493309D01*
X205866999Y-86531404D01*
X206095570Y-86531404D01*
X206171761Y-86493309D01*
X206209856Y-86455214D01*
X206933666Y-94151404D02*
X206933666Y-93351404D01*
X206743190Y-93351404D01*
X206628904Y-93389500D01*
X206552713Y-93465690D01*
X206514618Y-93541880D01*
X206476523Y-93694261D01*
X206476523Y-93808547D01*
X206514618Y-93960928D01*
X206552713Y-94037119D01*
X206628904Y-94113309D01*
X206743190Y-94151404D01*
X206933666Y-94151404D01*
X205752713Y-93351404D02*
X206133666Y-93351404D01*
X206171761Y-93732357D01*
X206133666Y-93694261D01*
X206057475Y-93656166D01*
X205866999Y-93656166D01*
X205790809Y-93694261D01*
X205752713Y-93732357D01*
X205714618Y-93808547D01*
X205714618Y-93999023D01*
X205752713Y-94075214D01*
X205790809Y-94113309D01*
X205866999Y-94151404D01*
X206057475Y-94151404D01*
X206133666Y-94113309D01*
X206171761Y-94075214D01*
X206933666Y-96627904D02*
X206933666Y-95827904D01*
X206743190Y-95827904D01*
X206628904Y-95866000D01*
X206552713Y-95942190D01*
X206514618Y-96018380D01*
X206476523Y-96170761D01*
X206476523Y-96285047D01*
X206514618Y-96437428D01*
X206552713Y-96513619D01*
X206628904Y-96589809D01*
X206743190Y-96627904D01*
X206933666Y-96627904D01*
X205790809Y-95827904D02*
X205943190Y-95827904D01*
X206019380Y-95866000D01*
X206057475Y-95904095D01*
X206133666Y-96018380D01*
X206171761Y-96170761D01*
X206171761Y-96475523D01*
X206133666Y-96551714D01*
X206095570Y-96589809D01*
X206019380Y-96627904D01*
X205866999Y-96627904D01*
X205790809Y-96589809D01*
X205752713Y-96551714D01*
X205714618Y-96475523D01*
X205714618Y-96285047D01*
X205752713Y-96208857D01*
X205790809Y-96170761D01*
X205866999Y-96132666D01*
X206019380Y-96132666D01*
X206095570Y-96170761D01*
X206133666Y-96208857D01*
X206171761Y-96285047D01*
X206933666Y-99167904D02*
X206933666Y-98367904D01*
X206743190Y-98367904D01*
X206628904Y-98406000D01*
X206552713Y-98482190D01*
X206514618Y-98558380D01*
X206476523Y-98710761D01*
X206476523Y-98825047D01*
X206514618Y-98977428D01*
X206552713Y-99053619D01*
X206628904Y-99129809D01*
X206743190Y-99167904D01*
X206933666Y-99167904D01*
X206209856Y-98367904D02*
X205676523Y-98367904D01*
X206019380Y-99167904D01*
X206933666Y-88944404D02*
X206933666Y-88144404D01*
X206743190Y-88144404D01*
X206628904Y-88182500D01*
X206552713Y-88258690D01*
X206514618Y-88334880D01*
X206476523Y-88487261D01*
X206476523Y-88601547D01*
X206514618Y-88753928D01*
X206552713Y-88830119D01*
X206628904Y-88906309D01*
X206743190Y-88944404D01*
X206933666Y-88944404D01*
X205790809Y-88411071D02*
X205790809Y-88944404D01*
X205981285Y-88106309D02*
X206171761Y-88677738D01*
X205676523Y-88677738D01*
X202685690Y-73551999D02*
X202647595Y-73437713D01*
X202647595Y-73247237D01*
X202685690Y-73171046D01*
X202723785Y-73132951D01*
X202799976Y-73094856D01*
X202876166Y-73094856D01*
X202952357Y-73132951D01*
X202990452Y-73171046D01*
X203028547Y-73247237D01*
X203066642Y-73399618D01*
X203104738Y-73475808D01*
X203142833Y-73513903D01*
X203219023Y-73551999D01*
X203295214Y-73551999D01*
X203371404Y-73513903D01*
X203409500Y-73475808D01*
X203447595Y-73399618D01*
X203447595Y-73209141D01*
X203409500Y-73094856D01*
X203447595Y-72599618D02*
X203447595Y-72447237D01*
X203409500Y-72371046D01*
X203333309Y-72294856D01*
X203180928Y-72256760D01*
X202914261Y-72256760D01*
X202761880Y-72294856D01*
X202685690Y-72371046D01*
X202647595Y-72447237D01*
X202647595Y-72599618D01*
X202685690Y-72675808D01*
X202761880Y-72751999D01*
X202914261Y-72790094D01*
X203180928Y-72790094D01*
X203333309Y-72751999D01*
X203409500Y-72675808D01*
X203447595Y-72599618D01*
X203066642Y-71647237D02*
X203028547Y-71532951D01*
X202990452Y-71494856D01*
X202914261Y-71456760D01*
X202799976Y-71456760D01*
X202723785Y-71494856D01*
X202685690Y-71532951D01*
X202647595Y-71609141D01*
X202647595Y-71913903D01*
X203447595Y-71913903D01*
X203447595Y-71647237D01*
X203409500Y-71571046D01*
X203371404Y-71532951D01*
X203295214Y-71494856D01*
X203219023Y-71494856D01*
X203142833Y-71532951D01*
X203104738Y-71571046D01*
X203066642Y-71647237D01*
X203066642Y-71913903D01*
X184804095Y-74656760D02*
X185604095Y-74656760D01*
X185604095Y-74351998D01*
X185566000Y-74275808D01*
X185527904Y-74237712D01*
X185451714Y-74199617D01*
X185337428Y-74199617D01*
X185261238Y-74237712D01*
X185223142Y-74275808D01*
X185185047Y-74351998D01*
X185185047Y-74656760D01*
X184804095Y-73856760D02*
X185604095Y-73856760D01*
X185223142Y-73856760D02*
X185223142Y-73399617D01*
X184804095Y-73399617D02*
X185604095Y-73399617D01*
X184804095Y-73018665D02*
X185604095Y-73018665D01*
X184804095Y-72218665D02*
X184804095Y-72675808D01*
X184804095Y-72447236D02*
X185604095Y-72447236D01*
X185489809Y-72523427D01*
X185413619Y-72599617D01*
X185375523Y-72675808D01*
X185604095Y-71723427D02*
X185604095Y-71647236D01*
X185566000Y-71571046D01*
X185527904Y-71532950D01*
X185451714Y-71494855D01*
X185299333Y-71456760D01*
X185108857Y-71456760D01*
X184956476Y-71494855D01*
X184880285Y-71532950D01*
X184842190Y-71571046D01*
X184804095Y-71647236D01*
X184804095Y-71723427D01*
X184842190Y-71799617D01*
X184880285Y-71837712D01*
X184956476Y-71875808D01*
X185108857Y-71913903D01*
X185299333Y-71913903D01*
X185451714Y-71875808D01*
X185527904Y-71837712D01*
X185566000Y-71799617D01*
X185604095Y-71723427D01*
X189884095Y-72942475D02*
X190265047Y-73209141D01*
X189884095Y-73399617D02*
X190684095Y-73399617D01*
X190684095Y-73094856D01*
X190646000Y-73018665D01*
X190607904Y-72980570D01*
X190531714Y-72942475D01*
X190417428Y-72942475D01*
X190341238Y-72980570D01*
X190303142Y-73018665D01*
X190265047Y-73094856D01*
X190265047Y-73399617D01*
X189884095Y-72599617D02*
X190684095Y-72599617D01*
X190684095Y-72409141D01*
X190646000Y-72294856D01*
X190569809Y-72218665D01*
X190493619Y-72180570D01*
X190341238Y-72142475D01*
X190226952Y-72142475D01*
X190074571Y-72180570D01*
X189998380Y-72218665D01*
X189922190Y-72294856D01*
X189884095Y-72409141D01*
X189884095Y-72599617D01*
X190265047Y-71647237D02*
X189884095Y-71647237D01*
X190684095Y-71913903D02*
X190265047Y-71647237D01*
X190684095Y-71380570D01*
X196160500Y-73590094D02*
X196160500Y-72790094D01*
X195027595Y-72942475D02*
X195408547Y-73209141D01*
X195027595Y-73399617D02*
X195827595Y-73399617D01*
X195827595Y-73094856D01*
X195789500Y-73018665D01*
X195751404Y-72980570D01*
X195675214Y-72942475D01*
X195560928Y-72942475D01*
X195484738Y-72980570D01*
X195446642Y-73018665D01*
X195408547Y-73094856D01*
X195408547Y-73399617D01*
X196160500Y-72790094D02*
X196160500Y-72066284D01*
X195446642Y-72599617D02*
X195446642Y-72332951D01*
X195027595Y-72218665D02*
X195027595Y-72599617D01*
X195827595Y-72599617D01*
X195827595Y-72218665D01*
X196160500Y-72066284D02*
X196160500Y-71304379D01*
X195065690Y-71913903D02*
X195027595Y-71799617D01*
X195027595Y-71609141D01*
X195065690Y-71532951D01*
X195103785Y-71494856D01*
X195179976Y-71456760D01*
X195256166Y-71456760D01*
X195332357Y-71494856D01*
X195370452Y-71532951D01*
X195408547Y-71609141D01*
X195446642Y-71761522D01*
X195484738Y-71837713D01*
X195522833Y-71875808D01*
X195599023Y-71913903D01*
X195675214Y-71913903D01*
X195751404Y-71875808D01*
X195789500Y-71837713D01*
X195827595Y-71761522D01*
X195827595Y-71571046D01*
X195789500Y-71456760D01*
X183397000Y-73323427D02*
X183397000Y-72942475D01*
X182264095Y-73132951D02*
X183064095Y-73132951D01*
X183397000Y-72942475D02*
X183397000Y-72142475D01*
X182264095Y-72294856D02*
X182645047Y-72561523D01*
X182264095Y-72751999D02*
X183064095Y-72751999D01*
X183064095Y-72447237D01*
X183026000Y-72371046D01*
X182987904Y-72332951D01*
X182911714Y-72294856D01*
X182797428Y-72294856D01*
X182721238Y-72332951D01*
X182683142Y-72371046D01*
X182645047Y-72447237D01*
X182645047Y-72751999D01*
X183397000Y-72142475D02*
X183397000Y-71304380D01*
X182187904Y-71418665D02*
X182226000Y-71494856D01*
X182302190Y-71571046D01*
X182416476Y-71685332D01*
X182454571Y-71761523D01*
X182454571Y-71837713D01*
X182264095Y-71799618D02*
X182302190Y-71875808D01*
X182378380Y-71951999D01*
X182530761Y-71990094D01*
X182797428Y-71990094D01*
X182949809Y-71951999D01*
X183026000Y-71875808D01*
X183064095Y-71799618D01*
X183064095Y-71647237D01*
X183026000Y-71571046D01*
X182949809Y-71494856D01*
X182797428Y-71456761D01*
X182530761Y-71456761D01*
X182378380Y-71494856D01*
X182302190Y-71571046D01*
X182264095Y-71647237D01*
X182264095Y-71799618D01*
X193224095Y-73513903D02*
X192424095Y-73247237D01*
X193224095Y-72980570D01*
X192424095Y-72713903D02*
X193224095Y-72713903D01*
X193224095Y-72409141D01*
X193186000Y-72332951D01*
X193147904Y-72294856D01*
X193071714Y-72256760D01*
X192957428Y-72256760D01*
X192881238Y-72294856D01*
X192843142Y-72332951D01*
X192805047Y-72409141D01*
X192805047Y-72713903D01*
X192843142Y-71647237D02*
X192805047Y-71532951D01*
X192766952Y-71494856D01*
X192690761Y-71456760D01*
X192576476Y-71456760D01*
X192500285Y-71494856D01*
X192462190Y-71532951D01*
X192424095Y-71609141D01*
X192424095Y-71913903D01*
X193224095Y-71913903D01*
X193224095Y-71647237D01*
X193186000Y-71571046D01*
X193147904Y-71532951D01*
X193071714Y-71494856D01*
X192995523Y-71494856D01*
X192919333Y-71532951D01*
X192881238Y-71571046D01*
X192843142Y-71647237D01*
X192843142Y-71913903D01*
X199980595Y-74732951D02*
X200780595Y-74732951D01*
X200780595Y-74428189D01*
X200742500Y-74351999D01*
X200704404Y-74313904D01*
X200628214Y-74275808D01*
X200513928Y-74275808D01*
X200437738Y-74313904D01*
X200399642Y-74351999D01*
X200361547Y-74428189D01*
X200361547Y-74732951D01*
X199980595Y-73932951D02*
X200780595Y-73932951D01*
X200399642Y-73932951D02*
X200399642Y-73475808D01*
X199980595Y-73475808D02*
X200780595Y-73475808D01*
X199980595Y-73094856D02*
X200780595Y-73094856D01*
X200704404Y-72751999D02*
X200742500Y-72713904D01*
X200780595Y-72637713D01*
X200780595Y-72447237D01*
X200742500Y-72371046D01*
X200704404Y-72332951D01*
X200628214Y-72294856D01*
X200552023Y-72294856D01*
X200437738Y-72332951D01*
X199980595Y-72790094D01*
X199980595Y-72294856D01*
X200780595Y-71799618D02*
X200780595Y-71647237D01*
X200742500Y-71571046D01*
X200666309Y-71494856D01*
X200513928Y-71456761D01*
X200247261Y-71456761D01*
X200094880Y-71494856D01*
X200018690Y-71571046D01*
X199980595Y-71647237D01*
X199980595Y-71799618D01*
X200018690Y-71875808D01*
X200094880Y-71951999D01*
X200247261Y-71990094D01*
X200513928Y-71990094D01*
X200666309Y-71951999D01*
X200742500Y-71875808D01*
X200780595Y-71799618D01*
X189630095Y-66960761D02*
X190011047Y-67227427D01*
X189630095Y-67417903D02*
X190430095Y-67417903D01*
X190430095Y-67113142D01*
X190392000Y-67036951D01*
X190353904Y-66998856D01*
X190277714Y-66960761D01*
X190163428Y-66960761D01*
X190087238Y-66998856D01*
X190049142Y-67036951D01*
X190011047Y-67113142D01*
X190011047Y-67417903D01*
X189630095Y-66617903D02*
X190430095Y-66617903D01*
X190430095Y-66427427D01*
X190392000Y-66313142D01*
X190315809Y-66236951D01*
X190239619Y-66198856D01*
X190087238Y-66160761D01*
X189972952Y-66160761D01*
X189820571Y-66198856D01*
X189744380Y-66236951D01*
X189668190Y-66313142D01*
X189630095Y-66427427D01*
X189630095Y-66617903D01*
X190011047Y-65665523D02*
X189630095Y-65665523D01*
X190430095Y-65932189D02*
X190011047Y-65665523D01*
X190430095Y-65398856D01*
X192970095Y-67532189D02*
X192170095Y-67265523D01*
X192970095Y-66998856D01*
X192170095Y-66732189D02*
X192970095Y-66732189D01*
X192970095Y-66427427D01*
X192932000Y-66351237D01*
X192893904Y-66313142D01*
X192817714Y-66275046D01*
X192703428Y-66275046D01*
X192627238Y-66313142D01*
X192589142Y-66351237D01*
X192551047Y-66427427D01*
X192551047Y-66732189D01*
X192589142Y-65665523D02*
X192551047Y-65551237D01*
X192512952Y-65513142D01*
X192436761Y-65475046D01*
X192322476Y-65475046D01*
X192246285Y-65513142D01*
X192208190Y-65551237D01*
X192170095Y-65627427D01*
X192170095Y-65932189D01*
X192970095Y-65932189D01*
X192970095Y-65665523D01*
X192932000Y-65589332D01*
X192893904Y-65551237D01*
X192817714Y-65513142D01*
X192741523Y-65513142D01*
X192665333Y-65551237D01*
X192627238Y-65589332D01*
X192589142Y-65665523D01*
X192589142Y-65932189D01*
X199726595Y-67417903D02*
X200526595Y-67417903D01*
X200526595Y-67113141D01*
X200488500Y-67036951D01*
X200450404Y-66998856D01*
X200374214Y-66960760D01*
X200259928Y-66960760D01*
X200183738Y-66998856D01*
X200145642Y-67036951D01*
X200107547Y-67113141D01*
X200107547Y-67417903D01*
X199726595Y-66617903D02*
X200526595Y-66617903D01*
X200145642Y-66617903D02*
X200145642Y-66160760D01*
X199726595Y-66160760D02*
X200526595Y-66160760D01*
X199726595Y-65779808D02*
X200526595Y-65779808D01*
X200450404Y-65436951D02*
X200488500Y-65398856D01*
X200526595Y-65322665D01*
X200526595Y-65132189D01*
X200488500Y-65055998D01*
X200450404Y-65017903D01*
X200374214Y-64979808D01*
X200298023Y-64979808D01*
X200183738Y-65017903D01*
X199726595Y-65475046D01*
X199726595Y-64979808D01*
X200526595Y-64484570D02*
X200526595Y-64332189D01*
X200488500Y-64255998D01*
X200412309Y-64179808D01*
X200259928Y-64141713D01*
X199993261Y-64141713D01*
X199840880Y-64179808D01*
X199764690Y-64255998D01*
X199726595Y-64332189D01*
X199726595Y-64484570D01*
X199764690Y-64560760D01*
X199840880Y-64636951D01*
X199993261Y-64675046D01*
X200259928Y-64675046D01*
X200412309Y-64636951D01*
X200488500Y-64560760D01*
X200526595Y-64484570D01*
X204870095Y-67417903D02*
X205670095Y-67417903D01*
X205670095Y-67113141D01*
X205632000Y-67036951D01*
X205593904Y-66998856D01*
X205517714Y-66960760D01*
X205403428Y-66960760D01*
X205327238Y-66998856D01*
X205289142Y-67036951D01*
X205251047Y-67113141D01*
X205251047Y-67417903D01*
X204870095Y-66617903D02*
X205670095Y-66617903D01*
X205289142Y-66617903D02*
X205289142Y-66160760D01*
X204870095Y-66160760D02*
X205670095Y-66160760D01*
X205670095Y-65627427D02*
X205670095Y-65551237D01*
X205632000Y-65475046D01*
X205593904Y-65436951D01*
X205517714Y-65398856D01*
X205365333Y-65360760D01*
X205174857Y-65360760D01*
X205022476Y-65398856D01*
X204946285Y-65436951D01*
X204908190Y-65475046D01*
X204870095Y-65551237D01*
X204870095Y-65627427D01*
X204908190Y-65703618D01*
X204946285Y-65741713D01*
X205022476Y-65779808D01*
X205174857Y-65817903D01*
X205365333Y-65817903D01*
X205517714Y-65779808D01*
X205593904Y-65741713D01*
X205632000Y-65703618D01*
X205670095Y-65627427D01*
X195906500Y-67608380D02*
X195906500Y-66808380D01*
X194773595Y-66960761D02*
X195154547Y-67227427D01*
X194773595Y-67417903D02*
X195573595Y-67417903D01*
X195573595Y-67113142D01*
X195535500Y-67036951D01*
X195497404Y-66998856D01*
X195421214Y-66960761D01*
X195306928Y-66960761D01*
X195230738Y-66998856D01*
X195192642Y-67036951D01*
X195154547Y-67113142D01*
X195154547Y-67417903D01*
X195906500Y-66808380D02*
X195906500Y-66084570D01*
X195192642Y-66617903D02*
X195192642Y-66351237D01*
X194773595Y-66236951D02*
X194773595Y-66617903D01*
X195573595Y-66617903D01*
X195573595Y-66236951D01*
X195906500Y-66084570D02*
X195906500Y-65322665D01*
X194811690Y-65932189D02*
X194773595Y-65817903D01*
X194773595Y-65627427D01*
X194811690Y-65551237D01*
X194849785Y-65513142D01*
X194925976Y-65475046D01*
X195002166Y-65475046D01*
X195078357Y-65513142D01*
X195116452Y-65551237D01*
X195154547Y-65627427D01*
X195192642Y-65779808D01*
X195230738Y-65855999D01*
X195268833Y-65894094D01*
X195345023Y-65932189D01*
X195421214Y-65932189D01*
X195497404Y-65894094D01*
X195535500Y-65855999D01*
X195573595Y-65779808D01*
X195573595Y-65589332D01*
X195535500Y-65475046D01*
X212172595Y-67417903D02*
X212972595Y-67417903D01*
X212972595Y-67227427D01*
X212934500Y-67113141D01*
X212858309Y-67036951D01*
X212782119Y-66998856D01*
X212629738Y-66960760D01*
X212515452Y-66960760D01*
X212363071Y-66998856D01*
X212286880Y-67036951D01*
X212210690Y-67113141D01*
X212172595Y-67227427D01*
X212172595Y-67417903D01*
X212172595Y-66617903D02*
X212972595Y-66617903D01*
X212401166Y-66351237D01*
X212972595Y-66084570D01*
X212172595Y-66084570D01*
X212401166Y-65741713D02*
X212401166Y-65360760D01*
X212172595Y-65817903D02*
X212972595Y-65551237D01*
X212172595Y-65284570D01*
X202431690Y-67455999D02*
X202393595Y-67341713D01*
X202393595Y-67151237D01*
X202431690Y-67075046D01*
X202469785Y-67036951D01*
X202545976Y-66998856D01*
X202622166Y-66998856D01*
X202698357Y-67036951D01*
X202736452Y-67075046D01*
X202774547Y-67151237D01*
X202812642Y-67303618D01*
X202850738Y-67379808D01*
X202888833Y-67417903D01*
X202965023Y-67455999D01*
X203041214Y-67455999D01*
X203117404Y-67417903D01*
X203155500Y-67379808D01*
X203193595Y-67303618D01*
X203193595Y-67113141D01*
X203155500Y-66998856D01*
X203193595Y-66503618D02*
X203193595Y-66351237D01*
X203155500Y-66275046D01*
X203079309Y-66198856D01*
X202926928Y-66160760D01*
X202660261Y-66160760D01*
X202507880Y-66198856D01*
X202431690Y-66275046D01*
X202393595Y-66351237D01*
X202393595Y-66503618D01*
X202431690Y-66579808D01*
X202507880Y-66655999D01*
X202660261Y-66694094D01*
X202926928Y-66694094D01*
X203079309Y-66655999D01*
X203155500Y-66579808D01*
X203193595Y-66503618D01*
X202812642Y-65551237D02*
X202774547Y-65436951D01*
X202736452Y-65398856D01*
X202660261Y-65360760D01*
X202545976Y-65360760D01*
X202469785Y-65398856D01*
X202431690Y-65436951D01*
X202393595Y-65513141D01*
X202393595Y-65817903D01*
X203193595Y-65817903D01*
X203193595Y-65551237D01*
X203155500Y-65475046D01*
X203117404Y-65436951D01*
X203041214Y-65398856D01*
X202965023Y-65398856D01*
X202888833Y-65436951D01*
X202850738Y-65475046D01*
X202812642Y-65551237D01*
X202812642Y-65817903D01*
X183143000Y-67608379D02*
X183143000Y-67227427D01*
X182010095Y-67417903D02*
X182810095Y-67417903D01*
X183143000Y-67227427D02*
X183143000Y-66427427D01*
X182010095Y-66579808D02*
X182391047Y-66846475D01*
X182010095Y-67036951D02*
X182810095Y-67036951D01*
X182810095Y-66732189D01*
X182772000Y-66655998D01*
X182733904Y-66617903D01*
X182657714Y-66579808D01*
X182543428Y-66579808D01*
X182467238Y-66617903D01*
X182429142Y-66655998D01*
X182391047Y-66732189D01*
X182391047Y-67036951D01*
X183143000Y-66427427D02*
X183143000Y-65589332D01*
X181933904Y-65703617D02*
X181972000Y-65779808D01*
X182048190Y-65855998D01*
X182162476Y-65970284D01*
X182200571Y-66046475D01*
X182200571Y-66122665D01*
X182010095Y-66084570D02*
X182048190Y-66160760D01*
X182124380Y-66236951D01*
X182276761Y-66275046D01*
X182543428Y-66275046D01*
X182695809Y-66236951D01*
X182772000Y-66160760D01*
X182810095Y-66084570D01*
X182810095Y-65932189D01*
X182772000Y-65855998D01*
X182695809Y-65779808D01*
X182543428Y-65741713D01*
X182276761Y-65741713D01*
X182124380Y-65779808D01*
X182048190Y-65855998D01*
X182010095Y-65932189D01*
X182010095Y-66084570D01*
X179343095Y-67417903D02*
X180143095Y-67417903D01*
X179571666Y-67151236D01*
X180143095Y-66884569D01*
X179343095Y-66884569D01*
X179343095Y-66122665D02*
X179343095Y-66503617D01*
X180143095Y-66503617D01*
X179762142Y-65589331D02*
X179724047Y-65475046D01*
X179685952Y-65436950D01*
X179609761Y-65398855D01*
X179495476Y-65398855D01*
X179419285Y-65436950D01*
X179381190Y-65475046D01*
X179343095Y-65551236D01*
X179343095Y-65855998D01*
X180143095Y-65855998D01*
X180143095Y-65589331D01*
X180105000Y-65513141D01*
X180066904Y-65475046D01*
X179990714Y-65436950D01*
X179914523Y-65436950D01*
X179838333Y-65475046D01*
X179800238Y-65513141D01*
X179762142Y-65589331D01*
X179762142Y-65855998D01*
X209378595Y-67417903D02*
X210178595Y-67417903D01*
X210178595Y-67113141D01*
X210140500Y-67036950D01*
X210102404Y-66998855D01*
X210026214Y-66960760D01*
X209911928Y-66960760D01*
X209835738Y-66998855D01*
X209797642Y-67036950D01*
X209759547Y-67113141D01*
X209759547Y-67417903D01*
X209378595Y-66617903D02*
X210178595Y-66617903D01*
X209797642Y-66617903D02*
X209797642Y-66160760D01*
X209378595Y-66160760D02*
X210178595Y-66160760D01*
X210178595Y-65627427D02*
X210178595Y-65551236D01*
X210140500Y-65475046D01*
X210102404Y-65436950D01*
X210026214Y-65398855D01*
X209873833Y-65360760D01*
X209683357Y-65360760D01*
X209530976Y-65398855D01*
X209454785Y-65436950D01*
X209416690Y-65475046D01*
X209378595Y-65551236D01*
X209378595Y-65627427D01*
X209416690Y-65703617D01*
X209454785Y-65741712D01*
X209530976Y-65779808D01*
X209683357Y-65817903D01*
X209873833Y-65817903D01*
X210026214Y-65779808D01*
X210102404Y-65741712D01*
X210140500Y-65703617D01*
X210178595Y-65627427D01*
X209302404Y-65208379D02*
X209302404Y-64598855D01*
X209607166Y-64446474D02*
X209607166Y-64065522D01*
X209378595Y-64522665D02*
X210178595Y-64255998D01*
X209378595Y-63989331D01*
X209378595Y-63341712D02*
X209378595Y-63722665D01*
X210178595Y-63722665D01*
X210178595Y-63189331D02*
X210178595Y-62732189D01*
X209378595Y-62960760D02*
X210178595Y-62960760D01*
X184550095Y-67417903D02*
X185350095Y-67417903D01*
X185350095Y-67113141D01*
X185312000Y-67036951D01*
X185273904Y-66998855D01*
X185197714Y-66960760D01*
X185083428Y-66960760D01*
X185007238Y-66998855D01*
X184969142Y-67036951D01*
X184931047Y-67113141D01*
X184931047Y-67417903D01*
X184550095Y-66617903D02*
X185350095Y-66617903D01*
X184969142Y-66617903D02*
X184969142Y-66160760D01*
X184550095Y-66160760D02*
X185350095Y-66160760D01*
X184550095Y-65779808D02*
X185350095Y-65779808D01*
X184550095Y-64979808D02*
X184550095Y-65436951D01*
X184550095Y-65208379D02*
X185350095Y-65208379D01*
X185235809Y-65284570D01*
X185159619Y-65360760D01*
X185121523Y-65436951D01*
X185350095Y-64484570D02*
X185350095Y-64408379D01*
X185312000Y-64332189D01*
X185273904Y-64294093D01*
X185197714Y-64255998D01*
X185045333Y-64217903D01*
X184854857Y-64217903D01*
X184702476Y-64255998D01*
X184626285Y-64294093D01*
X184588190Y-64332189D01*
X184550095Y-64408379D01*
X184550095Y-64484570D01*
X184588190Y-64560760D01*
X184626285Y-64598855D01*
X184702476Y-64636951D01*
X184854857Y-64675046D01*
X185045333Y-64675046D01*
X185197714Y-64636951D01*
X185273904Y-64598855D01*
X185312000Y-64560760D01*
X185350095Y-64484570D01*
D13*
%TO.C,REF\u002A\u002A*%
G36*
X195478400Y-87659054D02*
G01*
X195467535Y-87772993D01*
X195435918Y-87880616D01*
X195385015Y-87979615D01*
X195316293Y-88067684D01*
X195231219Y-88142516D01*
X195134232Y-88200384D01*
X195027964Y-88240005D01*
X194920950Y-88258573D01*
X194815300Y-88257434D01*
X194713125Y-88237930D01*
X194616534Y-88201406D01*
X194527638Y-88149205D01*
X194448546Y-88082673D01*
X194381369Y-88003152D01*
X194328217Y-87911987D01*
X194291199Y-87810523D01*
X194272427Y-87700102D01*
X194270489Y-87650206D01*
X194270489Y-87562267D01*
X194218560Y-87562267D01*
X194182253Y-87565111D01*
X194155355Y-87576911D01*
X194128249Y-87600649D01*
X194089867Y-87639031D01*
X194089867Y-89830602D01*
X194089876Y-90092739D01*
X194089908Y-90333241D01*
X194089972Y-90553048D01*
X194090076Y-90753101D01*
X194090227Y-90934344D01*
X194090434Y-91097716D01*
X194090706Y-91244160D01*
X194091050Y-91374617D01*
X194091474Y-91490029D01*
X194091987Y-91591338D01*
X194092597Y-91679484D01*
X194093312Y-91755410D01*
X194094140Y-91820057D01*
X194095089Y-91874367D01*
X194096167Y-91919280D01*
X194097383Y-91955740D01*
X194098745Y-91984687D01*
X194100261Y-92007063D01*
X194101938Y-92023809D01*
X194103786Y-92035868D01*
X194105813Y-92044180D01*
X194108025Y-92049687D01*
X194109108Y-92051537D01*
X194113271Y-92058549D01*
X194116805Y-92064996D01*
X194120635Y-92070900D01*
X194125682Y-92076286D01*
X194132871Y-92081178D01*
X194143123Y-92085598D01*
X194157364Y-92089572D01*
X194176514Y-92093121D01*
X194201499Y-92096270D01*
X194233240Y-92099042D01*
X194272662Y-92101461D01*
X194320686Y-92103551D01*
X194378237Y-92105335D01*
X194446237Y-92106837D01*
X194525610Y-92108080D01*
X194617279Y-92109089D01*
X194722166Y-92109885D01*
X194841196Y-92110494D01*
X194975290Y-92110939D01*
X195125373Y-92111243D01*
X195292367Y-92111430D01*
X195477196Y-92111524D01*
X195680783Y-92111548D01*
X195904050Y-92111525D01*
X196147922Y-92111480D01*
X196413321Y-92111437D01*
X196451704Y-92111432D01*
X196718682Y-92111389D01*
X196964002Y-92111318D01*
X197188583Y-92111213D01*
X197393345Y-92111066D01*
X197579206Y-92110869D01*
X197747088Y-92110616D01*
X197897908Y-92110300D01*
X198032587Y-92109913D01*
X198152044Y-92109447D01*
X198257199Y-92108897D01*
X198348971Y-92108253D01*
X198428279Y-92107511D01*
X198496043Y-92106661D01*
X198553182Y-92105697D01*
X198600617Y-92104611D01*
X198639266Y-92103397D01*
X198670049Y-92102047D01*
X198693885Y-92100555D01*
X198711694Y-92098911D01*
X198724395Y-92097111D01*
X198732908Y-92095145D01*
X198737266Y-92093477D01*
X198745728Y-92089906D01*
X198753497Y-92087270D01*
X198760602Y-92084634D01*
X198767073Y-92081062D01*
X198772939Y-92075621D01*
X198778229Y-92067375D01*
X198782974Y-92055390D01*
X198787202Y-92038731D01*
X198790943Y-92016463D01*
X198794227Y-91987652D01*
X198797083Y-91951363D01*
X198799540Y-91906661D01*
X198801629Y-91852611D01*
X198803378Y-91788279D01*
X198804817Y-91712730D01*
X198805976Y-91625030D01*
X198806883Y-91524243D01*
X198807569Y-91409434D01*
X198808063Y-91279670D01*
X198808395Y-91134015D01*
X198808593Y-90971535D01*
X198808687Y-90791295D01*
X198808708Y-90592360D01*
X198808685Y-90373796D01*
X198808646Y-90134668D01*
X198808622Y-89874040D01*
X198808622Y-89831889D01*
X198808636Y-89568992D01*
X198808661Y-89327732D01*
X198808671Y-89107165D01*
X198808642Y-88906352D01*
X198808548Y-88724349D01*
X198808362Y-88560216D01*
X198808059Y-88413011D01*
X198807614Y-88281792D01*
X198807034Y-88171867D01*
X198504197Y-88171867D01*
X198464407Y-88229711D01*
X198453236Y-88245479D01*
X198443166Y-88259441D01*
X198434138Y-88272784D01*
X198426097Y-88286693D01*
X198418986Y-88302356D01*
X198412747Y-88320958D01*
X198407325Y-88343686D01*
X198402662Y-88371727D01*
X198398701Y-88406267D01*
X198395385Y-88448492D01*
X198392659Y-88499589D01*
X198390464Y-88560744D01*
X198388745Y-88633144D01*
X198387444Y-88717975D01*
X198386505Y-88816422D01*
X198385870Y-88929674D01*
X198385484Y-89058916D01*
X198385288Y-89205334D01*
X198385227Y-89370116D01*
X198385243Y-89554447D01*
X198385280Y-89759513D01*
X198385289Y-89882133D01*
X198385265Y-90099082D01*
X198385231Y-90294642D01*
X198385243Y-90469999D01*
X198385358Y-90626341D01*
X198385630Y-90764857D01*
X198386118Y-90886734D01*
X198386876Y-90993160D01*
X198387962Y-91085322D01*
X198389431Y-91164409D01*
X198391340Y-91231608D01*
X198393744Y-91288107D01*
X198396701Y-91335093D01*
X198400266Y-91373755D01*
X198404495Y-91405280D01*
X198409446Y-91430855D01*
X198415173Y-91451670D01*
X198421733Y-91468911D01*
X198429183Y-91483765D01*
X198437579Y-91497422D01*
X198446976Y-91511069D01*
X198457432Y-91525893D01*
X198463523Y-91534783D01*
X198502296Y-91592400D01*
X197970732Y-91592400D01*
X197847483Y-91592365D01*
X197744987Y-91592215D01*
X197661420Y-91591878D01*
X197594956Y-91591286D01*
X197543771Y-91590367D01*
X197506041Y-91589051D01*
X197479940Y-91587269D01*
X197463644Y-91584951D01*
X197455328Y-91582026D01*
X197453168Y-91578424D01*
X197455339Y-91574075D01*
X197456535Y-91572645D01*
X197481685Y-91535573D01*
X197507583Y-91482772D01*
X197531192Y-91420770D01*
X197539461Y-91394357D01*
X197544078Y-91376416D01*
X197547979Y-91355355D01*
X197551248Y-91329089D01*
X197553966Y-91295532D01*
X197556215Y-91252599D01*
X197558077Y-91198204D01*
X197559636Y-91130262D01*
X197560972Y-91046688D01*
X197562169Y-90945395D01*
X197563308Y-90824300D01*
X197563685Y-90779600D01*
X197564702Y-90654449D01*
X197565460Y-90550082D01*
X197565903Y-90464707D01*
X197565970Y-90396533D01*
X197565605Y-90343765D01*
X197564748Y-90304614D01*
X197563341Y-90277285D01*
X197561325Y-90259986D01*
X197558643Y-90250926D01*
X197555236Y-90248312D01*
X197551044Y-90250351D01*
X197546571Y-90254667D01*
X197536216Y-90267602D01*
X197514158Y-90296676D01*
X197481957Y-90339759D01*
X197441174Y-90394718D01*
X197393370Y-90459423D01*
X197340105Y-90531742D01*
X197282940Y-90609544D01*
X197223437Y-90690698D01*
X197163155Y-90773072D01*
X197103655Y-90854536D01*
X197046498Y-90932957D01*
X196993245Y-91006204D01*
X196945457Y-91072147D01*
X196904693Y-91128654D01*
X196872516Y-91173593D01*
X196850485Y-91204834D01*
X196845917Y-91211466D01*
X196822996Y-91248369D01*
X196796188Y-91296359D01*
X196770789Y-91345897D01*
X196767568Y-91352577D01*
X196745890Y-91400772D01*
X196733304Y-91438334D01*
X196727574Y-91474160D01*
X196726456Y-91516200D01*
X196727090Y-91592400D01*
X195572651Y-91592400D01*
X195663815Y-91498669D01*
X195710612Y-91448775D01*
X195760899Y-91392295D01*
X195806944Y-91338026D01*
X195827369Y-91312673D01*
X195857807Y-91273128D01*
X195897862Y-91219916D01*
X195946361Y-91154667D01*
X196002135Y-91079011D01*
X196064011Y-90994577D01*
X196130819Y-90902994D01*
X196201387Y-90805892D01*
X196274545Y-90704901D01*
X196349121Y-90601650D01*
X196423944Y-90497768D01*
X196497843Y-90394885D01*
X196569646Y-90294631D01*
X196638184Y-90198636D01*
X196702284Y-90108527D01*
X196760775Y-90025936D01*
X196812486Y-89952492D01*
X196856247Y-89889824D01*
X196890885Y-89839561D01*
X196915230Y-89803334D01*
X196928111Y-89782771D01*
X196929869Y-89778668D01*
X196921910Y-89767342D01*
X196901115Y-89740162D01*
X196868847Y-89698829D01*
X196826470Y-89645044D01*
X196775347Y-89580506D01*
X196716841Y-89506918D01*
X196652314Y-89425978D01*
X196583131Y-89339388D01*
X196510653Y-89248848D01*
X196436246Y-89156060D01*
X196376517Y-89081702D01*
X195365511Y-89081702D01*
X195359602Y-89094659D01*
X195345272Y-89116908D01*
X195344225Y-89118391D01*
X195325438Y-89148544D01*
X195305791Y-89185375D01*
X195301892Y-89193511D01*
X195298356Y-89201940D01*
X195295230Y-89212059D01*
X195292486Y-89225260D01*
X195290092Y-89242938D01*
X195288019Y-89266484D01*
X195286235Y-89297293D01*
X195284712Y-89336757D01*
X195283419Y-89386269D01*
X195282326Y-89447223D01*
X195281403Y-89521011D01*
X195280619Y-89609028D01*
X195279945Y-89712665D01*
X195279350Y-89833316D01*
X195278805Y-89972374D01*
X195278279Y-90131232D01*
X195277745Y-90310089D01*
X195277206Y-90495207D01*
X195276772Y-90659145D01*
X195276509Y-90803303D01*
X195276484Y-90929079D01*
X195276765Y-91037871D01*
X195277419Y-91131077D01*
X195278514Y-91210097D01*
X195280118Y-91276328D01*
X195282297Y-91331170D01*
X195285119Y-91376021D01*
X195288651Y-91412278D01*
X195292961Y-91441341D01*
X195298117Y-91464609D01*
X195304185Y-91483479D01*
X195311233Y-91499351D01*
X195319329Y-91513622D01*
X195328540Y-91527691D01*
X195337040Y-91540158D01*
X195354176Y-91566452D01*
X195364322Y-91584037D01*
X195365511Y-91587257D01*
X195354604Y-91588334D01*
X195323411Y-91589335D01*
X195274223Y-91590235D01*
X195209333Y-91591010D01*
X195131030Y-91591637D01*
X195041607Y-91592091D01*
X194943356Y-91592349D01*
X194874445Y-91592400D01*
X194769452Y-91592180D01*
X194672610Y-91591548D01*
X194586107Y-91590549D01*
X194512132Y-91589227D01*
X194452874Y-91587626D01*
X194410520Y-91585791D01*
X194387260Y-91583765D01*
X194383378Y-91582493D01*
X194391076Y-91567591D01*
X194399074Y-91559560D01*
X194412246Y-91542434D01*
X194429485Y-91512183D01*
X194441407Y-91487622D01*
X194468045Y-91428711D01*
X194471120Y-90251845D01*
X194474195Y-89074978D01*
X194919853Y-89074978D01*
X195017670Y-89075142D01*
X195108064Y-89075611D01*
X195188630Y-89076347D01*
X195256962Y-89077316D01*
X195310656Y-89078480D01*
X195347305Y-89079803D01*
X195364504Y-89081249D01*
X195365511Y-89081702D01*
X196376517Y-89081702D01*
X196361270Y-89062722D01*
X196287090Y-88970537D01*
X196215069Y-88881204D01*
X196146569Y-88796424D01*
X196082955Y-88717898D01*
X196025588Y-88647326D01*
X195975833Y-88586409D01*
X195935052Y-88536847D01*
X195917888Y-88516178D01*
X195831596Y-88415516D01*
X195754997Y-88332259D01*
X195686183Y-88264438D01*
X195623248Y-88210089D01*
X195613867Y-88202722D01*
X195574356Y-88172117D01*
X196706116Y-88171867D01*
X196700827Y-88219844D01*
X196704130Y-88277188D01*
X196725661Y-88345463D01*
X196765635Y-88425212D01*
X196810943Y-88497495D01*
X196827161Y-88520140D01*
X196855214Y-88557696D01*
X196893430Y-88608021D01*
X196940137Y-88668973D01*
X196993661Y-88738411D01*
X197052331Y-88814194D01*
X197114475Y-88894180D01*
X197178421Y-88976228D01*
X197242495Y-89058196D01*
X197305027Y-89137943D01*
X197364343Y-89213327D01*
X197418771Y-89282207D01*
X197466639Y-89342442D01*
X197506275Y-89391889D01*
X197536006Y-89428408D01*
X197554161Y-89449858D01*
X197557220Y-89453156D01*
X197560079Y-89445149D01*
X197562293Y-89414855D01*
X197563857Y-89362556D01*
X197564767Y-89288531D01*
X197565020Y-89193063D01*
X197564613Y-89076434D01*
X197563704Y-88956445D01*
X197562382Y-88824333D01*
X197560857Y-88712594D01*
X197558881Y-88619025D01*
X197556206Y-88541419D01*
X197552582Y-88477574D01*
X197547761Y-88425283D01*
X197541494Y-88382344D01*
X197533532Y-88346551D01*
X197523627Y-88315700D01*
X197511531Y-88287586D01*
X197496993Y-88260005D01*
X197482311Y-88234966D01*
X197444314Y-88171867D01*
X198504197Y-88171867D01*
X198807034Y-88171867D01*
X198807001Y-88165617D01*
X198806195Y-88063544D01*
X198805170Y-87974633D01*
X198803900Y-87897941D01*
X198802360Y-87832527D01*
X198800524Y-87777449D01*
X198798367Y-87731765D01*
X198795863Y-87694534D01*
X198792987Y-87664813D01*
X198789713Y-87641662D01*
X198786015Y-87624139D01*
X198781869Y-87611301D01*
X198777247Y-87602208D01*
X198772126Y-87595918D01*
X198766478Y-87591488D01*
X198760279Y-87587978D01*
X198753504Y-87584445D01*
X198747508Y-87580876D01*
X198742275Y-87578300D01*
X198734099Y-87575972D01*
X198721886Y-87573878D01*
X198704541Y-87572007D01*
X198680969Y-87570347D01*
X198650077Y-87568884D01*
X198610768Y-87567608D01*
X198561950Y-87566504D01*
X198502527Y-87565561D01*
X198431404Y-87564767D01*
X198347488Y-87564109D01*
X198249683Y-87563575D01*
X198136894Y-87563153D01*
X198008029Y-87562829D01*
X197861991Y-87562592D01*
X197697686Y-87562430D01*
X197514020Y-87562330D01*
X197309897Y-87562280D01*
X197098753Y-87562267D01*
X195478400Y-87562267D01*
X195478400Y-87659054D01*
G37*
X195478400Y-87659054D02*
X195467535Y-87772993D01*
X195435918Y-87880616D01*
X195385015Y-87979615D01*
X195316293Y-88067684D01*
X195231219Y-88142516D01*
X195134232Y-88200384D01*
X195027964Y-88240005D01*
X194920950Y-88258573D01*
X194815300Y-88257434D01*
X194713125Y-88237930D01*
X194616534Y-88201406D01*
X194527638Y-88149205D01*
X194448546Y-88082673D01*
X194381369Y-88003152D01*
X194328217Y-87911987D01*
X194291199Y-87810523D01*
X194272427Y-87700102D01*
X194270489Y-87650206D01*
X194270489Y-87562267D01*
X194218560Y-87562267D01*
X194182253Y-87565111D01*
X194155355Y-87576911D01*
X194128249Y-87600649D01*
X194089867Y-87639031D01*
X194089867Y-89830602D01*
X194089876Y-90092739D01*
X194089908Y-90333241D01*
X194089972Y-90553048D01*
X194090076Y-90753101D01*
X194090227Y-90934344D01*
X194090434Y-91097716D01*
X194090706Y-91244160D01*
X194091050Y-91374617D01*
X194091474Y-91490029D01*
X194091987Y-91591338D01*
X194092597Y-91679484D01*
X194093312Y-91755410D01*
X194094140Y-91820057D01*
X194095089Y-91874367D01*
X194096167Y-91919280D01*
X194097383Y-91955740D01*
X194098745Y-91984687D01*
X194100261Y-92007063D01*
X194101938Y-92023809D01*
X194103786Y-92035868D01*
X194105813Y-92044180D01*
X194108025Y-92049687D01*
X194109108Y-92051537D01*
X194113271Y-92058549D01*
X194116805Y-92064996D01*
X194120635Y-92070900D01*
X194125682Y-92076286D01*
X194132871Y-92081178D01*
X194143123Y-92085598D01*
X194157364Y-92089572D01*
X194176514Y-92093121D01*
X194201499Y-92096270D01*
X194233240Y-92099042D01*
X194272662Y-92101461D01*
X194320686Y-92103551D01*
X194378237Y-92105335D01*
X194446237Y-92106837D01*
X194525610Y-92108080D01*
X194617279Y-92109089D01*
X194722166Y-92109885D01*
X194841196Y-92110494D01*
X194975290Y-92110939D01*
X195125373Y-92111243D01*
X195292367Y-92111430D01*
X195477196Y-92111524D01*
X195680783Y-92111548D01*
X195904050Y-92111525D01*
X196147922Y-92111480D01*
X196413321Y-92111437D01*
X196451704Y-92111432D01*
X196718682Y-92111389D01*
X196964002Y-92111318D01*
X197188583Y-92111213D01*
X197393345Y-92111066D01*
X197579206Y-92110869D01*
X197747088Y-92110616D01*
X197897908Y-92110300D01*
X198032587Y-92109913D01*
X198152044Y-92109447D01*
X198257199Y-92108897D01*
X198348971Y-92108253D01*
X198428279Y-92107511D01*
X198496043Y-92106661D01*
X198553182Y-92105697D01*
X198600617Y-92104611D01*
X198639266Y-92103397D01*
X198670049Y-92102047D01*
X198693885Y-92100555D01*
X198711694Y-92098911D01*
X198724395Y-92097111D01*
X198732908Y-92095145D01*
X198737266Y-92093477D01*
X198745728Y-92089906D01*
X198753497Y-92087270D01*
X198760602Y-92084634D01*
X198767073Y-92081062D01*
X198772939Y-92075621D01*
X198778229Y-92067375D01*
X198782974Y-92055390D01*
X198787202Y-92038731D01*
X198790943Y-92016463D01*
X198794227Y-91987652D01*
X198797083Y-91951363D01*
X198799540Y-91906661D01*
X198801629Y-91852611D01*
X198803378Y-91788279D01*
X198804817Y-91712730D01*
X198805976Y-91625030D01*
X198806883Y-91524243D01*
X198807569Y-91409434D01*
X198808063Y-91279670D01*
X198808395Y-91134015D01*
X198808593Y-90971535D01*
X198808687Y-90791295D01*
X198808708Y-90592360D01*
X198808685Y-90373796D01*
X198808646Y-90134668D01*
X198808622Y-89874040D01*
X198808622Y-89831889D01*
X198808636Y-89568992D01*
X198808661Y-89327732D01*
X198808671Y-89107165D01*
X198808642Y-88906352D01*
X198808548Y-88724349D01*
X198808362Y-88560216D01*
X198808059Y-88413011D01*
X198807614Y-88281792D01*
X198807034Y-88171867D01*
X198504197Y-88171867D01*
X198464407Y-88229711D01*
X198453236Y-88245479D01*
X198443166Y-88259441D01*
X198434138Y-88272784D01*
X198426097Y-88286693D01*
X198418986Y-88302356D01*
X198412747Y-88320958D01*
X198407325Y-88343686D01*
X198402662Y-88371727D01*
X198398701Y-88406267D01*
X198395385Y-88448492D01*
X198392659Y-88499589D01*
X198390464Y-88560744D01*
X198388745Y-88633144D01*
X198387444Y-88717975D01*
X198386505Y-88816422D01*
X198385870Y-88929674D01*
X198385484Y-89058916D01*
X198385288Y-89205334D01*
X198385227Y-89370116D01*
X198385243Y-89554447D01*
X198385280Y-89759513D01*
X198385289Y-89882133D01*
X198385265Y-90099082D01*
X198385231Y-90294642D01*
X198385243Y-90469999D01*
X198385358Y-90626341D01*
X198385630Y-90764857D01*
X198386118Y-90886734D01*
X198386876Y-90993160D01*
X198387962Y-91085322D01*
X198389431Y-91164409D01*
X198391340Y-91231608D01*
X198393744Y-91288107D01*
X198396701Y-91335093D01*
X198400266Y-91373755D01*
X198404495Y-91405280D01*
X198409446Y-91430855D01*
X198415173Y-91451670D01*
X198421733Y-91468911D01*
X198429183Y-91483765D01*
X198437579Y-91497422D01*
X198446976Y-91511069D01*
X198457432Y-91525893D01*
X198463523Y-91534783D01*
X198502296Y-91592400D01*
X197970732Y-91592400D01*
X197847483Y-91592365D01*
X197744987Y-91592215D01*
X197661420Y-91591878D01*
X197594956Y-91591286D01*
X197543771Y-91590367D01*
X197506041Y-91589051D01*
X197479940Y-91587269D01*
X197463644Y-91584951D01*
X197455328Y-91582026D01*
X197453168Y-91578424D01*
X197455339Y-91574075D01*
X197456535Y-91572645D01*
X197481685Y-91535573D01*
X197507583Y-91482772D01*
X197531192Y-91420770D01*
X197539461Y-91394357D01*
X197544078Y-91376416D01*
X197547979Y-91355355D01*
X197551248Y-91329089D01*
X197553966Y-91295532D01*
X197556215Y-91252599D01*
X197558077Y-91198204D01*
X197559636Y-91130262D01*
X197560972Y-91046688D01*
X197562169Y-90945395D01*
X197563308Y-90824300D01*
X197563685Y-90779600D01*
X197564702Y-90654449D01*
X197565460Y-90550082D01*
X197565903Y-90464707D01*
X197565970Y-90396533D01*
X197565605Y-90343765D01*
X197564748Y-90304614D01*
X197563341Y-90277285D01*
X197561325Y-90259986D01*
X197558643Y-90250926D01*
X197555236Y-90248312D01*
X197551044Y-90250351D01*
X197546571Y-90254667D01*
X197536216Y-90267602D01*
X197514158Y-90296676D01*
X197481957Y-90339759D01*
X197441174Y-90394718D01*
X197393370Y-90459423D01*
X197340105Y-90531742D01*
X197282940Y-90609544D01*
X197223437Y-90690698D01*
X197163155Y-90773072D01*
X197103655Y-90854536D01*
X197046498Y-90932957D01*
X196993245Y-91006204D01*
X196945457Y-91072147D01*
X196904693Y-91128654D01*
X196872516Y-91173593D01*
X196850485Y-91204834D01*
X196845917Y-91211466D01*
X196822996Y-91248369D01*
X196796188Y-91296359D01*
X196770789Y-91345897D01*
X196767568Y-91352577D01*
X196745890Y-91400772D01*
X196733304Y-91438334D01*
X196727574Y-91474160D01*
X196726456Y-91516200D01*
X196727090Y-91592400D01*
X195572651Y-91592400D01*
X195663815Y-91498669D01*
X195710612Y-91448775D01*
X195760899Y-91392295D01*
X195806944Y-91338026D01*
X195827369Y-91312673D01*
X195857807Y-91273128D01*
X195897862Y-91219916D01*
X195946361Y-91154667D01*
X196002135Y-91079011D01*
X196064011Y-90994577D01*
X196130819Y-90902994D01*
X196201387Y-90805892D01*
X196274545Y-90704901D01*
X196349121Y-90601650D01*
X196423944Y-90497768D01*
X196497843Y-90394885D01*
X196569646Y-90294631D01*
X196638184Y-90198636D01*
X196702284Y-90108527D01*
X196760775Y-90025936D01*
X196812486Y-89952492D01*
X196856247Y-89889824D01*
X196890885Y-89839561D01*
X196915230Y-89803334D01*
X196928111Y-89782771D01*
X196929869Y-89778668D01*
X196921910Y-89767342D01*
X196901115Y-89740162D01*
X196868847Y-89698829D01*
X196826470Y-89645044D01*
X196775347Y-89580506D01*
X196716841Y-89506918D01*
X196652314Y-89425978D01*
X196583131Y-89339388D01*
X196510653Y-89248848D01*
X196436246Y-89156060D01*
X196376517Y-89081702D01*
X195365511Y-89081702D01*
X195359602Y-89094659D01*
X195345272Y-89116908D01*
X195344225Y-89118391D01*
X195325438Y-89148544D01*
X195305791Y-89185375D01*
X195301892Y-89193511D01*
X195298356Y-89201940D01*
X195295230Y-89212059D01*
X195292486Y-89225260D01*
X195290092Y-89242938D01*
X195288019Y-89266484D01*
X195286235Y-89297293D01*
X195284712Y-89336757D01*
X195283419Y-89386269D01*
X195282326Y-89447223D01*
X195281403Y-89521011D01*
X195280619Y-89609028D01*
X195279945Y-89712665D01*
X195279350Y-89833316D01*
X195278805Y-89972374D01*
X195278279Y-90131232D01*
X195277745Y-90310089D01*
X195277206Y-90495207D01*
X195276772Y-90659145D01*
X195276509Y-90803303D01*
X195276484Y-90929079D01*
X195276765Y-91037871D01*
X195277419Y-91131077D01*
X195278514Y-91210097D01*
X195280118Y-91276328D01*
X195282297Y-91331170D01*
X195285119Y-91376021D01*
X195288651Y-91412278D01*
X195292961Y-91441341D01*
X195298117Y-91464609D01*
X195304185Y-91483479D01*
X195311233Y-91499351D01*
X195319329Y-91513622D01*
X195328540Y-91527691D01*
X195337040Y-91540158D01*
X195354176Y-91566452D01*
X195364322Y-91584037D01*
X195365511Y-91587257D01*
X195354604Y-91588334D01*
X195323411Y-91589335D01*
X195274223Y-91590235D01*
X195209333Y-91591010D01*
X195131030Y-91591637D01*
X195041607Y-91592091D01*
X194943356Y-91592349D01*
X194874445Y-91592400D01*
X194769452Y-91592180D01*
X194672610Y-91591548D01*
X194586107Y-91590549D01*
X194512132Y-91589227D01*
X194452874Y-91587626D01*
X194410520Y-91585791D01*
X194387260Y-91583765D01*
X194383378Y-91582493D01*
X194391076Y-91567591D01*
X194399074Y-91559560D01*
X194412246Y-91542434D01*
X194429485Y-91512183D01*
X194441407Y-91487622D01*
X194468045Y-91428711D01*
X194471120Y-90251845D01*
X194474195Y-89074978D01*
X194919853Y-89074978D01*
X195017670Y-89075142D01*
X195108064Y-89075611D01*
X195188630Y-89076347D01*
X195256962Y-89077316D01*
X195310656Y-89078480D01*
X195347305Y-89079803D01*
X195364504Y-89081249D01*
X195365511Y-89081702D01*
X196376517Y-89081702D01*
X196361270Y-89062722D01*
X196287090Y-88970537D01*
X196215069Y-88881204D01*
X196146569Y-88796424D01*
X196082955Y-88717898D01*
X196025588Y-88647326D01*
X195975833Y-88586409D01*
X195935052Y-88536847D01*
X195917888Y-88516178D01*
X195831596Y-88415516D01*
X195754997Y-88332259D01*
X195686183Y-88264438D01*
X195623248Y-88210089D01*
X195613867Y-88202722D01*
X195574356Y-88172117D01*
X196706116Y-88171867D01*
X196700827Y-88219844D01*
X196704130Y-88277188D01*
X196725661Y-88345463D01*
X196765635Y-88425212D01*
X196810943Y-88497495D01*
X196827161Y-88520140D01*
X196855214Y-88557696D01*
X196893430Y-88608021D01*
X196940137Y-88668973D01*
X196993661Y-88738411D01*
X197052331Y-88814194D01*
X197114475Y-88894180D01*
X197178421Y-88976228D01*
X197242495Y-89058196D01*
X197305027Y-89137943D01*
X197364343Y-89213327D01*
X197418771Y-89282207D01*
X197466639Y-89342442D01*
X197506275Y-89391889D01*
X197536006Y-89428408D01*
X197554161Y-89449858D01*
X197557220Y-89453156D01*
X197560079Y-89445149D01*
X197562293Y-89414855D01*
X197563857Y-89362556D01*
X197564767Y-89288531D01*
X197565020Y-89193063D01*
X197564613Y-89076434D01*
X197563704Y-88956445D01*
X197562382Y-88824333D01*
X197560857Y-88712594D01*
X197558881Y-88619025D01*
X197556206Y-88541419D01*
X197552582Y-88477574D01*
X197547761Y-88425283D01*
X197541494Y-88382344D01*
X197533532Y-88346551D01*
X197523627Y-88315700D01*
X197511531Y-88287586D01*
X197496993Y-88260005D01*
X197482311Y-88234966D01*
X197444314Y-88171867D01*
X198504197Y-88171867D01*
X198807034Y-88171867D01*
X198807001Y-88165617D01*
X198806195Y-88063544D01*
X198805170Y-87974633D01*
X198803900Y-87897941D01*
X198802360Y-87832527D01*
X198800524Y-87777449D01*
X198798367Y-87731765D01*
X198795863Y-87694534D01*
X198792987Y-87664813D01*
X198789713Y-87641662D01*
X198786015Y-87624139D01*
X198781869Y-87611301D01*
X198777247Y-87602208D01*
X198772126Y-87595918D01*
X198766478Y-87591488D01*
X198760279Y-87587978D01*
X198753504Y-87584445D01*
X198747508Y-87580876D01*
X198742275Y-87578300D01*
X198734099Y-87575972D01*
X198721886Y-87573878D01*
X198704541Y-87572007D01*
X198680969Y-87570347D01*
X198650077Y-87568884D01*
X198610768Y-87567608D01*
X198561950Y-87566504D01*
X198502527Y-87565561D01*
X198431404Y-87564767D01*
X198347488Y-87564109D01*
X198249683Y-87563575D01*
X198136894Y-87563153D01*
X198008029Y-87562829D01*
X197861991Y-87562592D01*
X197697686Y-87562430D01*
X197514020Y-87562330D01*
X197309897Y-87562280D01*
X197098753Y-87562267D01*
X195478400Y-87562267D01*
X195478400Y-87659054D01*
G36*
X192203571Y-88119071D02*
G01*
X192043430Y-88140245D01*
X191879490Y-88180385D01*
X191709687Y-88239889D01*
X191531957Y-88319154D01*
X191520690Y-88324699D01*
X191462995Y-88352725D01*
X191411448Y-88376802D01*
X191369809Y-88395249D01*
X191341838Y-88406386D01*
X191332267Y-88408933D01*
X191313050Y-88413941D01*
X191308439Y-88418147D01*
X191313542Y-88428580D01*
X191329582Y-88454868D01*
X191354712Y-88494257D01*
X191387086Y-88543991D01*
X191424857Y-88601315D01*
X191466178Y-88663476D01*
X191509202Y-88727718D01*
X191552083Y-88791285D01*
X191592974Y-88851425D01*
X191630029Y-88905380D01*
X191661400Y-88950397D01*
X191685241Y-88983721D01*
X191699706Y-89002597D01*
X191701691Y-89004787D01*
X191711809Y-89000138D01*
X191734150Y-88982962D01*
X191764720Y-88956440D01*
X191780464Y-88941964D01*
X191876953Y-88866682D01*
X191983664Y-88811241D01*
X192099168Y-88776141D01*
X192222038Y-88761880D01*
X192291439Y-88763051D01*
X192412577Y-88780212D01*
X192521795Y-88816094D01*
X192619418Y-88870959D01*
X192705772Y-88945070D01*
X192781185Y-89038688D01*
X192845982Y-89152076D01*
X192883399Y-89238667D01*
X192927252Y-89374366D01*
X192959572Y-89521850D01*
X192980443Y-89677314D01*
X192989949Y-89836956D01*
X192988173Y-89996973D01*
X192975197Y-90153561D01*
X192951106Y-90302918D01*
X192915982Y-90441240D01*
X192869908Y-90564724D01*
X192853627Y-90598978D01*
X192785380Y-90713064D01*
X192704921Y-90809557D01*
X192613430Y-90887670D01*
X192512089Y-90946617D01*
X192402080Y-90985612D01*
X192284585Y-91003868D01*
X192243117Y-91005211D01*
X192121559Y-90994290D01*
X192001122Y-90961474D01*
X191883334Y-90907439D01*
X191769723Y-90832865D01*
X191678315Y-90754539D01*
X191631785Y-90710008D01*
X191450517Y-91007271D01*
X191405420Y-91081433D01*
X191364181Y-91149646D01*
X191328265Y-91209459D01*
X191299134Y-91258420D01*
X191278250Y-91294079D01*
X191267076Y-91313984D01*
X191265625Y-91317079D01*
X191273854Y-91326718D01*
X191299433Y-91343999D01*
X191339127Y-91367283D01*
X191389703Y-91394934D01*
X191447926Y-91425315D01*
X191510563Y-91456790D01*
X191574379Y-91487722D01*
X191636140Y-91516473D01*
X191692612Y-91541408D01*
X191740562Y-91560889D01*
X191764014Y-91569318D01*
X191897779Y-91607133D01*
X192035673Y-91632136D01*
X192183378Y-91645140D01*
X192310167Y-91647468D01*
X192378122Y-91646373D01*
X192443723Y-91644275D01*
X192501153Y-91641434D01*
X192544597Y-91638106D01*
X192558702Y-91636422D01*
X192697716Y-91607587D01*
X192839243Y-91562468D01*
X192976725Y-91503750D01*
X193103606Y-91434120D01*
X193181111Y-91381441D01*
X193308519Y-91273239D01*
X193426822Y-91146671D01*
X193533828Y-91004866D01*
X193627348Y-90850951D01*
X193705190Y-90688053D01*
X193749044Y-90570756D01*
X193799292Y-90387128D01*
X193832791Y-90192581D01*
X193849551Y-89991325D01*
X193849584Y-89787568D01*
X193832899Y-89585521D01*
X193799507Y-89389392D01*
X193749420Y-89203391D01*
X193745603Y-89191803D01*
X193682719Y-89029750D01*
X193605972Y-88881832D01*
X193512758Y-88743865D01*
X193400473Y-88611661D01*
X193356608Y-88566399D01*
X193220466Y-88442457D01*
X193080509Y-88339915D01*
X192934589Y-88257656D01*
X192780558Y-88194564D01*
X192616268Y-88149523D01*
X192520711Y-88132033D01*
X192361977Y-88116466D01*
X192203571Y-88119071D01*
G37*
X192203571Y-88119071D02*
X192043430Y-88140245D01*
X191879490Y-88180385D01*
X191709687Y-88239889D01*
X191531957Y-88319154D01*
X191520690Y-88324699D01*
X191462995Y-88352725D01*
X191411448Y-88376802D01*
X191369809Y-88395249D01*
X191341838Y-88406386D01*
X191332267Y-88408933D01*
X191313050Y-88413941D01*
X191308439Y-88418147D01*
X191313542Y-88428580D01*
X191329582Y-88454868D01*
X191354712Y-88494257D01*
X191387086Y-88543991D01*
X191424857Y-88601315D01*
X191466178Y-88663476D01*
X191509202Y-88727718D01*
X191552083Y-88791285D01*
X191592974Y-88851425D01*
X191630029Y-88905380D01*
X191661400Y-88950397D01*
X191685241Y-88983721D01*
X191699706Y-89002597D01*
X191701691Y-89004787D01*
X191711809Y-89000138D01*
X191734150Y-88982962D01*
X191764720Y-88956440D01*
X191780464Y-88941964D01*
X191876953Y-88866682D01*
X191983664Y-88811241D01*
X192099168Y-88776141D01*
X192222038Y-88761880D01*
X192291439Y-88763051D01*
X192412577Y-88780212D01*
X192521795Y-88816094D01*
X192619418Y-88870959D01*
X192705772Y-88945070D01*
X192781185Y-89038688D01*
X192845982Y-89152076D01*
X192883399Y-89238667D01*
X192927252Y-89374366D01*
X192959572Y-89521850D01*
X192980443Y-89677314D01*
X192989949Y-89836956D01*
X192988173Y-89996973D01*
X192975197Y-90153561D01*
X192951106Y-90302918D01*
X192915982Y-90441240D01*
X192869908Y-90564724D01*
X192853627Y-90598978D01*
X192785380Y-90713064D01*
X192704921Y-90809557D01*
X192613430Y-90887670D01*
X192512089Y-90946617D01*
X192402080Y-90985612D01*
X192284585Y-91003868D01*
X192243117Y-91005211D01*
X192121559Y-90994290D01*
X192001122Y-90961474D01*
X191883334Y-90907439D01*
X191769723Y-90832865D01*
X191678315Y-90754539D01*
X191631785Y-90710008D01*
X191450517Y-91007271D01*
X191405420Y-91081433D01*
X191364181Y-91149646D01*
X191328265Y-91209459D01*
X191299134Y-91258420D01*
X191278250Y-91294079D01*
X191267076Y-91313984D01*
X191265625Y-91317079D01*
X191273854Y-91326718D01*
X191299433Y-91343999D01*
X191339127Y-91367283D01*
X191389703Y-91394934D01*
X191447926Y-91425315D01*
X191510563Y-91456790D01*
X191574379Y-91487722D01*
X191636140Y-91516473D01*
X191692612Y-91541408D01*
X191740562Y-91560889D01*
X191764014Y-91569318D01*
X191897779Y-91607133D01*
X192035673Y-91632136D01*
X192183378Y-91645140D01*
X192310167Y-91647468D01*
X192378122Y-91646373D01*
X192443723Y-91644275D01*
X192501153Y-91641434D01*
X192544597Y-91638106D01*
X192558702Y-91636422D01*
X192697716Y-91607587D01*
X192839243Y-91562468D01*
X192976725Y-91503750D01*
X193103606Y-91434120D01*
X193181111Y-91381441D01*
X193308519Y-91273239D01*
X193426822Y-91146671D01*
X193533828Y-91004866D01*
X193627348Y-90850951D01*
X193705190Y-90688053D01*
X193749044Y-90570756D01*
X193799292Y-90387128D01*
X193832791Y-90192581D01*
X193849551Y-89991325D01*
X193849584Y-89787568D01*
X193832899Y-89585521D01*
X193799507Y-89389392D01*
X193749420Y-89203391D01*
X193745603Y-89191803D01*
X193682719Y-89029750D01*
X193605972Y-88881832D01*
X193512758Y-88743865D01*
X193400473Y-88611661D01*
X193356608Y-88566399D01*
X193220466Y-88442457D01*
X193080509Y-88339915D01*
X192934589Y-88257656D01*
X192780558Y-88194564D01*
X192616268Y-88149523D01*
X192520711Y-88132033D01*
X192361977Y-88116466D01*
X192203571Y-88119071D01*
G36*
X189858426Y-89036552D02*
G01*
X189706508Y-89056567D01*
X189571244Y-89090202D01*
X189451761Y-89137725D01*
X189347185Y-89199405D01*
X189269576Y-89262965D01*
X189200735Y-89337099D01*
X189146994Y-89416871D01*
X189104090Y-89509091D01*
X189088616Y-89552161D01*
X189075756Y-89591142D01*
X189064554Y-89627289D01*
X189054880Y-89662434D01*
X189046604Y-89698410D01*
X189039597Y-89737050D01*
X189033728Y-89780185D01*
X189028869Y-89829649D01*
X189024890Y-89887273D01*
X189021660Y-89954891D01*
X189019051Y-90034334D01*
X189016933Y-90127436D01*
X189015176Y-90236027D01*
X189013651Y-90361942D01*
X189012228Y-90507012D01*
X189010975Y-90649778D01*
X189009649Y-90805968D01*
X189008444Y-90941239D01*
X189007234Y-91057246D01*
X189005894Y-91155645D01*
X189004300Y-91238093D01*
X189002325Y-91306246D01*
X188999844Y-91361760D01*
X188996731Y-91406292D01*
X188992862Y-91441498D01*
X188988111Y-91469034D01*
X188982352Y-91490556D01*
X188975461Y-91507722D01*
X188967311Y-91522186D01*
X188957777Y-91535606D01*
X188946734Y-91549638D01*
X188942434Y-91555071D01*
X188926614Y-91577910D01*
X188919578Y-91593463D01*
X188919556Y-91593922D01*
X188930433Y-91596121D01*
X188961418Y-91598147D01*
X189010043Y-91599942D01*
X189073837Y-91601451D01*
X189150331Y-91602616D01*
X189237056Y-91603380D01*
X189331543Y-91603686D01*
X189342450Y-91603689D01*
X189765343Y-91603689D01*
X189768605Y-91507622D01*
X189771867Y-91411556D01*
X189833956Y-91462543D01*
X189931286Y-91530057D01*
X190041187Y-91584749D01*
X190127651Y-91614978D01*
X190196722Y-91629666D01*
X190280075Y-91639659D01*
X190369841Y-91644646D01*
X190458155Y-91644313D01*
X190537149Y-91638351D01*
X190573378Y-91632638D01*
X190713397Y-91594776D01*
X190839822Y-91539932D01*
X190951740Y-91468924D01*
X191048238Y-91382568D01*
X191128400Y-91281679D01*
X191191313Y-91167076D01*
X191235688Y-91040984D01*
X191248022Y-90984401D01*
X191255632Y-90922202D01*
X191259261Y-90847363D01*
X191259755Y-90813467D01*
X191259690Y-90810282D01*
X190499752Y-90810282D01*
X190490459Y-90885333D01*
X190462272Y-90949160D01*
X190413803Y-91004798D01*
X190408746Y-91009211D01*
X190360452Y-91044037D01*
X190308743Y-91066620D01*
X190248011Y-91078540D01*
X190172648Y-91081383D01*
X190154541Y-91080978D01*
X190100722Y-91078325D01*
X190060692Y-91072909D01*
X190025676Y-91062745D01*
X189986897Y-91045850D01*
X189976255Y-91040672D01*
X189915604Y-91004844D01*
X189868785Y-90962212D01*
X189856048Y-90946973D01*
X189811378Y-90890462D01*
X189811378Y-90694586D01*
X189811914Y-90615939D01*
X189813604Y-90557988D01*
X189816572Y-90518875D01*
X189820943Y-90496741D01*
X189825028Y-90490274D01*
X189840953Y-90487111D01*
X189874736Y-90484488D01*
X189921660Y-90482655D01*
X189977007Y-90481857D01*
X189985894Y-90481842D01*
X190106670Y-90487096D01*
X190209340Y-90503263D01*
X190295894Y-90530961D01*
X190368319Y-90570808D01*
X190423249Y-90617758D01*
X190467796Y-90675645D01*
X190492520Y-90738693D01*
X190499752Y-90810282D01*
X191259690Y-90810282D01*
X191257822Y-90719712D01*
X191249478Y-90640812D01*
X191233232Y-90569590D01*
X191207595Y-90498864D01*
X191183599Y-90446493D01*
X191124980Y-90351196D01*
X191046883Y-90263170D01*
X190951685Y-90184017D01*
X190841762Y-90115340D01*
X190719490Y-90058741D01*
X190587245Y-90015821D01*
X190522578Y-90000882D01*
X190386396Y-89978777D01*
X190237951Y-89964194D01*
X190086495Y-89957813D01*
X189959936Y-89959445D01*
X189798050Y-89966224D01*
X189805470Y-89907245D01*
X189824762Y-89808092D01*
X189855896Y-89727372D01*
X189899731Y-89664466D01*
X189957129Y-89618756D01*
X190028952Y-89589622D01*
X190116059Y-89576447D01*
X190219314Y-89578611D01*
X190257289Y-89582612D01*
X190398480Y-89607780D01*
X190535293Y-89648814D01*
X190629822Y-89686815D01*
X190674982Y-89706190D01*
X190713415Y-89721760D01*
X190739766Y-89731405D01*
X190747454Y-89733452D01*
X190757198Y-89724374D01*
X190773917Y-89695405D01*
X190797768Y-89646217D01*
X190828907Y-89576484D01*
X190867493Y-89485879D01*
X190874090Y-89470089D01*
X190904147Y-89397772D01*
X190931126Y-89332425D01*
X190953864Y-89276906D01*
X190971194Y-89234072D01*
X190981952Y-89206781D01*
X190985059Y-89197942D01*
X190975060Y-89193187D01*
X190948783Y-89187910D01*
X190920511Y-89184231D01*
X190890354Y-89179474D01*
X190842567Y-89170028D01*
X190781388Y-89156820D01*
X190711054Y-89140776D01*
X190635806Y-89122820D01*
X190607245Y-89115797D01*
X190502184Y-89090209D01*
X190414520Y-89070147D01*
X190339932Y-89054969D01*
X190274097Y-89044035D01*
X190212693Y-89036704D01*
X190151398Y-89032335D01*
X190085890Y-89030287D01*
X190027872Y-89029889D01*
X189858426Y-89036552D01*
G37*
X189858426Y-89036552D02*
X189706508Y-89056567D01*
X189571244Y-89090202D01*
X189451761Y-89137725D01*
X189347185Y-89199405D01*
X189269576Y-89262965D01*
X189200735Y-89337099D01*
X189146994Y-89416871D01*
X189104090Y-89509091D01*
X189088616Y-89552161D01*
X189075756Y-89591142D01*
X189064554Y-89627289D01*
X189054880Y-89662434D01*
X189046604Y-89698410D01*
X189039597Y-89737050D01*
X189033728Y-89780185D01*
X189028869Y-89829649D01*
X189024890Y-89887273D01*
X189021660Y-89954891D01*
X189019051Y-90034334D01*
X189016933Y-90127436D01*
X189015176Y-90236027D01*
X189013651Y-90361942D01*
X189012228Y-90507012D01*
X189010975Y-90649778D01*
X189009649Y-90805968D01*
X189008444Y-90941239D01*
X189007234Y-91057246D01*
X189005894Y-91155645D01*
X189004300Y-91238093D01*
X189002325Y-91306246D01*
X188999844Y-91361760D01*
X188996731Y-91406292D01*
X188992862Y-91441498D01*
X188988111Y-91469034D01*
X188982352Y-91490556D01*
X188975461Y-91507722D01*
X188967311Y-91522186D01*
X188957777Y-91535606D01*
X188946734Y-91549638D01*
X188942434Y-91555071D01*
X188926614Y-91577910D01*
X188919578Y-91593463D01*
X188919556Y-91593922D01*
X188930433Y-91596121D01*
X188961418Y-91598147D01*
X189010043Y-91599942D01*
X189073837Y-91601451D01*
X189150331Y-91602616D01*
X189237056Y-91603380D01*
X189331543Y-91603686D01*
X189342450Y-91603689D01*
X189765343Y-91603689D01*
X189768605Y-91507622D01*
X189771867Y-91411556D01*
X189833956Y-91462543D01*
X189931286Y-91530057D01*
X190041187Y-91584749D01*
X190127651Y-91614978D01*
X190196722Y-91629666D01*
X190280075Y-91639659D01*
X190369841Y-91644646D01*
X190458155Y-91644313D01*
X190537149Y-91638351D01*
X190573378Y-91632638D01*
X190713397Y-91594776D01*
X190839822Y-91539932D01*
X190951740Y-91468924D01*
X191048238Y-91382568D01*
X191128400Y-91281679D01*
X191191313Y-91167076D01*
X191235688Y-91040984D01*
X191248022Y-90984401D01*
X191255632Y-90922202D01*
X191259261Y-90847363D01*
X191259755Y-90813467D01*
X191259690Y-90810282D01*
X190499752Y-90810282D01*
X190490459Y-90885333D01*
X190462272Y-90949160D01*
X190413803Y-91004798D01*
X190408746Y-91009211D01*
X190360452Y-91044037D01*
X190308743Y-91066620D01*
X190248011Y-91078540D01*
X190172648Y-91081383D01*
X190154541Y-91080978D01*
X190100722Y-91078325D01*
X190060692Y-91072909D01*
X190025676Y-91062745D01*
X189986897Y-91045850D01*
X189976255Y-91040672D01*
X189915604Y-91004844D01*
X189868785Y-90962212D01*
X189856048Y-90946973D01*
X189811378Y-90890462D01*
X189811378Y-90694586D01*
X189811914Y-90615939D01*
X189813604Y-90557988D01*
X189816572Y-90518875D01*
X189820943Y-90496741D01*
X189825028Y-90490274D01*
X189840953Y-90487111D01*
X189874736Y-90484488D01*
X189921660Y-90482655D01*
X189977007Y-90481857D01*
X189985894Y-90481842D01*
X190106670Y-90487096D01*
X190209340Y-90503263D01*
X190295894Y-90530961D01*
X190368319Y-90570808D01*
X190423249Y-90617758D01*
X190467796Y-90675645D01*
X190492520Y-90738693D01*
X190499752Y-90810282D01*
X191259690Y-90810282D01*
X191257822Y-90719712D01*
X191249478Y-90640812D01*
X191233232Y-90569590D01*
X191207595Y-90498864D01*
X191183599Y-90446493D01*
X191124980Y-90351196D01*
X191046883Y-90263170D01*
X190951685Y-90184017D01*
X190841762Y-90115340D01*
X190719490Y-90058741D01*
X190587245Y-90015821D01*
X190522578Y-90000882D01*
X190386396Y-89978777D01*
X190237951Y-89964194D01*
X190086495Y-89957813D01*
X189959936Y-89959445D01*
X189798050Y-89966224D01*
X189805470Y-89907245D01*
X189824762Y-89808092D01*
X189855896Y-89727372D01*
X189899731Y-89664466D01*
X189957129Y-89618756D01*
X190028952Y-89589622D01*
X190116059Y-89576447D01*
X190219314Y-89578611D01*
X190257289Y-89582612D01*
X190398480Y-89607780D01*
X190535293Y-89648814D01*
X190629822Y-89686815D01*
X190674982Y-89706190D01*
X190713415Y-89721760D01*
X190739766Y-89731405D01*
X190747454Y-89733452D01*
X190757198Y-89724374D01*
X190773917Y-89695405D01*
X190797768Y-89646217D01*
X190828907Y-89576484D01*
X190867493Y-89485879D01*
X190874090Y-89470089D01*
X190904147Y-89397772D01*
X190931126Y-89332425D01*
X190953864Y-89276906D01*
X190971194Y-89234072D01*
X190981952Y-89206781D01*
X190985059Y-89197942D01*
X190975060Y-89193187D01*
X190948783Y-89187910D01*
X190920511Y-89184231D01*
X190890354Y-89179474D01*
X190842567Y-89170028D01*
X190781388Y-89156820D01*
X190711054Y-89140776D01*
X190635806Y-89122820D01*
X190607245Y-89115797D01*
X190502184Y-89090209D01*
X190414520Y-89070147D01*
X190339932Y-89054969D01*
X190274097Y-89044035D01*
X190212693Y-89036704D01*
X190151398Y-89032335D01*
X190085890Y-89030287D01*
X190027872Y-89029889D01*
X189858426Y-89036552D01*
G36*
X186345493Y-89642245D02*
G01*
X186345474Y-89876662D01*
X186345448Y-90089603D01*
X186345375Y-90282168D01*
X186345218Y-90455459D01*
X186344936Y-90610576D01*
X186344491Y-90748620D01*
X186343844Y-90870692D01*
X186342955Y-90977894D01*
X186341787Y-91071326D01*
X186340299Y-91152090D01*
X186338454Y-91221286D01*
X186336211Y-91280015D01*
X186333531Y-91329379D01*
X186330377Y-91370478D01*
X186326708Y-91404413D01*
X186322487Y-91432286D01*
X186317673Y-91455198D01*
X186312227Y-91474249D01*
X186306112Y-91490540D01*
X186299288Y-91505173D01*
X186291715Y-91519249D01*
X186283355Y-91533868D01*
X186278161Y-91542974D01*
X186243896Y-91603689D01*
X187102045Y-91603689D01*
X187102045Y-91507733D01*
X187102776Y-91464370D01*
X187104728Y-91431205D01*
X187107537Y-91413424D01*
X187108779Y-91411778D01*
X187120201Y-91418662D01*
X187142916Y-91436505D01*
X187165615Y-91455879D01*
X187220200Y-91496614D01*
X187289679Y-91537617D01*
X187366730Y-91575123D01*
X187444035Y-91605364D01*
X187474887Y-91615012D01*
X187543384Y-91629578D01*
X187626236Y-91639539D01*
X187715629Y-91644583D01*
X187803752Y-91644396D01*
X187882793Y-91638666D01*
X187920489Y-91632858D01*
X188058586Y-91594797D01*
X188185887Y-91537073D01*
X188301708Y-91460211D01*
X188405363Y-91364739D01*
X188496167Y-91251179D01*
X188562969Y-91140381D01*
X188617836Y-91023625D01*
X188659837Y-90904276D01*
X188689833Y-90778283D01*
X188708689Y-90641594D01*
X188717268Y-90490158D01*
X188717994Y-90412711D01*
X188715900Y-90355934D01*
X187886783Y-90355934D01*
X187886576Y-90449002D01*
X187883663Y-90536692D01*
X187878000Y-90613772D01*
X187869545Y-90675009D01*
X187866962Y-90687350D01*
X187835160Y-90794633D01*
X187793502Y-90881658D01*
X187741637Y-90948642D01*
X187679219Y-90995805D01*
X187605900Y-91023365D01*
X187521331Y-91031541D01*
X187425165Y-91020551D01*
X187361689Y-91004829D01*
X187312546Y-90986639D01*
X187258417Y-90960791D01*
X187217756Y-90937089D01*
X187147200Y-90890721D01*
X187147200Y-89740530D01*
X187214608Y-89696962D01*
X187293133Y-89656040D01*
X187377319Y-89629389D01*
X187462443Y-89617465D01*
X187543784Y-89620722D01*
X187616620Y-89639615D01*
X187648574Y-89655184D01*
X187706499Y-89698181D01*
X187755456Y-89754953D01*
X187796610Y-89827575D01*
X187831126Y-89918121D01*
X187860167Y-90028666D01*
X187861448Y-90034533D01*
X187871619Y-90096788D01*
X187879261Y-90174594D01*
X187884330Y-90262720D01*
X187886783Y-90355934D01*
X188715900Y-90355934D01*
X188710143Y-90199895D01*
X188688198Y-90004059D01*
X188652214Y-89825332D01*
X188602241Y-89663845D01*
X188538332Y-89519726D01*
X188460538Y-89393106D01*
X188368911Y-89284115D01*
X188263503Y-89192883D01*
X188218338Y-89161932D01*
X188117389Y-89105785D01*
X188014099Y-89066174D01*
X187904011Y-89042014D01*
X187782670Y-89032219D01*
X187690164Y-89033265D01*
X187560510Y-89044231D01*
X187447916Y-89066046D01*
X187349125Y-89099714D01*
X187260879Y-89146236D01*
X187212014Y-89180448D01*
X187182647Y-89202362D01*
X187160957Y-89217333D01*
X187152747Y-89221733D01*
X187151132Y-89210904D01*
X187149841Y-89180251D01*
X187148862Y-89132526D01*
X187148183Y-89070479D01*
X187147790Y-88996862D01*
X187147670Y-88914427D01*
X187147812Y-88825925D01*
X187148203Y-88734107D01*
X187148829Y-88641724D01*
X187149680Y-88551528D01*
X187150740Y-88466271D01*
X187151999Y-88388703D01*
X187153444Y-88321576D01*
X187155062Y-88267641D01*
X187156839Y-88229650D01*
X187157331Y-88222667D01*
X187164908Y-88152251D01*
X187176469Y-88097102D01*
X187194208Y-88049981D01*
X187220318Y-88003647D01*
X187226585Y-87994067D01*
X187251017Y-87957378D01*
X186345689Y-87957378D01*
X186345493Y-89642245D01*
G37*
X186345493Y-89642245D02*
X186345474Y-89876662D01*
X186345448Y-90089603D01*
X186345375Y-90282168D01*
X186345218Y-90455459D01*
X186344936Y-90610576D01*
X186344491Y-90748620D01*
X186343844Y-90870692D01*
X186342955Y-90977894D01*
X186341787Y-91071326D01*
X186340299Y-91152090D01*
X186338454Y-91221286D01*
X186336211Y-91280015D01*
X186333531Y-91329379D01*
X186330377Y-91370478D01*
X186326708Y-91404413D01*
X186322487Y-91432286D01*
X186317673Y-91455198D01*
X186312227Y-91474249D01*
X186306112Y-91490540D01*
X186299288Y-91505173D01*
X186291715Y-91519249D01*
X186283355Y-91533868D01*
X186278161Y-91542974D01*
X186243896Y-91603689D01*
X187102045Y-91603689D01*
X187102045Y-91507733D01*
X187102776Y-91464370D01*
X187104728Y-91431205D01*
X187107537Y-91413424D01*
X187108779Y-91411778D01*
X187120201Y-91418662D01*
X187142916Y-91436505D01*
X187165615Y-91455879D01*
X187220200Y-91496614D01*
X187289679Y-91537617D01*
X187366730Y-91575123D01*
X187444035Y-91605364D01*
X187474887Y-91615012D01*
X187543384Y-91629578D01*
X187626236Y-91639539D01*
X187715629Y-91644583D01*
X187803752Y-91644396D01*
X187882793Y-91638666D01*
X187920489Y-91632858D01*
X188058586Y-91594797D01*
X188185887Y-91537073D01*
X188301708Y-91460211D01*
X188405363Y-91364739D01*
X188496167Y-91251179D01*
X188562969Y-91140381D01*
X188617836Y-91023625D01*
X188659837Y-90904276D01*
X188689833Y-90778283D01*
X188708689Y-90641594D01*
X188717268Y-90490158D01*
X188717994Y-90412711D01*
X188715900Y-90355934D01*
X187886783Y-90355934D01*
X187886576Y-90449002D01*
X187883663Y-90536692D01*
X187878000Y-90613772D01*
X187869545Y-90675009D01*
X187866962Y-90687350D01*
X187835160Y-90794633D01*
X187793502Y-90881658D01*
X187741637Y-90948642D01*
X187679219Y-90995805D01*
X187605900Y-91023365D01*
X187521331Y-91031541D01*
X187425165Y-91020551D01*
X187361689Y-91004829D01*
X187312546Y-90986639D01*
X187258417Y-90960791D01*
X187217756Y-90937089D01*
X187147200Y-90890721D01*
X187147200Y-89740530D01*
X187214608Y-89696962D01*
X187293133Y-89656040D01*
X187377319Y-89629389D01*
X187462443Y-89617465D01*
X187543784Y-89620722D01*
X187616620Y-89639615D01*
X187648574Y-89655184D01*
X187706499Y-89698181D01*
X187755456Y-89754953D01*
X187796610Y-89827575D01*
X187831126Y-89918121D01*
X187860167Y-90028666D01*
X187861448Y-90034533D01*
X187871619Y-90096788D01*
X187879261Y-90174594D01*
X187884330Y-90262720D01*
X187886783Y-90355934D01*
X188715900Y-90355934D01*
X188710143Y-90199895D01*
X188688198Y-90004059D01*
X188652214Y-89825332D01*
X188602241Y-89663845D01*
X188538332Y-89519726D01*
X188460538Y-89393106D01*
X188368911Y-89284115D01*
X188263503Y-89192883D01*
X188218338Y-89161932D01*
X188117389Y-89105785D01*
X188014099Y-89066174D01*
X187904011Y-89042014D01*
X187782670Y-89032219D01*
X187690164Y-89033265D01*
X187560510Y-89044231D01*
X187447916Y-89066046D01*
X187349125Y-89099714D01*
X187260879Y-89146236D01*
X187212014Y-89180448D01*
X187182647Y-89202362D01*
X187160957Y-89217333D01*
X187152747Y-89221733D01*
X187151132Y-89210904D01*
X187149841Y-89180251D01*
X187148862Y-89132526D01*
X187148183Y-89070479D01*
X187147790Y-88996862D01*
X187147670Y-88914427D01*
X187147812Y-88825925D01*
X187148203Y-88734107D01*
X187148829Y-88641724D01*
X187149680Y-88551528D01*
X187150740Y-88466271D01*
X187151999Y-88388703D01*
X187153444Y-88321576D01*
X187155062Y-88267641D01*
X187156839Y-88229650D01*
X187157331Y-88222667D01*
X187164908Y-88152251D01*
X187176469Y-88097102D01*
X187194208Y-88049981D01*
X187220318Y-88003647D01*
X187226585Y-87994067D01*
X187251017Y-87957378D01*
X186345689Y-87957378D01*
X186345493Y-89642245D01*
G36*
X194805043Y-87196571D02*
G01*
X194708768Y-87220809D01*
X194622184Y-87263641D01*
X194547373Y-87323419D01*
X194486418Y-87398494D01*
X194441399Y-87487220D01*
X194415136Y-87583530D01*
X194409286Y-87680795D01*
X194424140Y-87774654D01*
X194457840Y-87862511D01*
X194508528Y-87941770D01*
X194574345Y-88009836D01*
X194653434Y-88064112D01*
X194743934Y-88102002D01*
X194795200Y-88114426D01*
X194839698Y-88121947D01*
X194873999Y-88124919D01*
X194906960Y-88123094D01*
X194947434Y-88116225D01*
X194980531Y-88109250D01*
X195073947Y-88077741D01*
X195157619Y-88026617D01*
X195229665Y-87957429D01*
X195288200Y-87871728D01*
X195302148Y-87844489D01*
X195318586Y-87808122D01*
X195328894Y-87777582D01*
X195334460Y-87745450D01*
X195336669Y-87704307D01*
X195336948Y-87658222D01*
X195332861Y-87573865D01*
X195319446Y-87504586D01*
X195294256Y-87443961D01*
X195254846Y-87385567D01*
X195216298Y-87341302D01*
X195144406Y-87275484D01*
X195069313Y-87230053D01*
X194986562Y-87202850D01*
X194908928Y-87192576D01*
X194805043Y-87196571D01*
G37*
X194805043Y-87196571D02*
X194708768Y-87220809D01*
X194622184Y-87263641D01*
X194547373Y-87323419D01*
X194486418Y-87398494D01*
X194441399Y-87487220D01*
X194415136Y-87583530D01*
X194409286Y-87680795D01*
X194424140Y-87774654D01*
X194457840Y-87862511D01*
X194508528Y-87941770D01*
X194574345Y-88009836D01*
X194653434Y-88064112D01*
X194743934Y-88102002D01*
X194795200Y-88114426D01*
X194839698Y-88121947D01*
X194873999Y-88124919D01*
X194906960Y-88123094D01*
X194947434Y-88116225D01*
X194980531Y-88109250D01*
X195073947Y-88077741D01*
X195157619Y-88026617D01*
X195229665Y-87957429D01*
X195288200Y-87871728D01*
X195302148Y-87844489D01*
X195318586Y-87808122D01*
X195328894Y-87777582D01*
X195334460Y-87745450D01*
X195336669Y-87704307D01*
X195336948Y-87658222D01*
X195332861Y-87573865D01*
X195319446Y-87504586D01*
X195294256Y-87443961D01*
X195254846Y-87385567D01*
X195216298Y-87341302D01*
X195144406Y-87275484D01*
X195069313Y-87230053D01*
X194986562Y-87202850D01*
X194908928Y-87192576D01*
X194805043Y-87196571D01*
D14*
%TO.C,R3*%
X187605936Y-77116000D02*
X188060064Y-77116000D01*
X187605936Y-78586000D02*
X188060064Y-78586000D01*
%TO.C,R2*%
X185012000Y-80417936D02*
X185012000Y-80872064D01*
X183542000Y-80417936D02*
X183542000Y-80872064D01*
%TO.C,R1*%
X192632064Y-78586000D02*
X192177936Y-78586000D01*
X192632064Y-77116000D02*
X192177936Y-77116000D01*
%TO.C,JP1*%
X199647000Y-76851000D02*
X196847000Y-76851000D01*
X196847000Y-76851000D02*
X196847000Y-78851000D01*
X196847000Y-78851000D02*
X199647000Y-78851000D01*
X199647000Y-78851000D02*
X199647000Y-76851000D01*
%TO.C,C6*%
X185012000Y-84955748D02*
X185012000Y-85478252D01*
X183542000Y-84955748D02*
X183542000Y-85478252D01*
%TO.C,C5*%
X153027748Y-105183000D02*
X153550252Y-105183000D01*
X153027748Y-106653000D02*
X153550252Y-106653000D01*
%TO.C,C4*%
X163822748Y-84355000D02*
X164345252Y-84355000D01*
X163822748Y-85825000D02*
X164345252Y-85825000D01*
%TO.C,C3*%
X201522000Y-84955748D02*
X201522000Y-85478252D01*
X200052000Y-84955748D02*
X200052000Y-85478252D01*
%TO.C,C1*%
X163187748Y-100484000D02*
X163710252Y-100484000D01*
X163187748Y-101954000D02*
X163710252Y-101954000D01*
%TO.C,R3*%
D10*
X187966333Y-79862904D02*
X188233000Y-79481952D01*
X188423476Y-79862904D02*
X188423476Y-79062904D01*
X188118714Y-79062904D01*
X188042523Y-79101000D01*
X188004428Y-79139095D01*
X187966333Y-79215285D01*
X187966333Y-79329571D01*
X188004428Y-79405761D01*
X188042523Y-79443857D01*
X188118714Y-79481952D01*
X188423476Y-79481952D01*
X187699666Y-79062904D02*
X187204428Y-79062904D01*
X187471095Y-79367666D01*
X187356809Y-79367666D01*
X187280619Y-79405761D01*
X187242523Y-79443857D01*
X187204428Y-79520047D01*
X187204428Y-79710523D01*
X187242523Y-79786714D01*
X187280619Y-79824809D01*
X187356809Y-79862904D01*
X187585380Y-79862904D01*
X187661571Y-79824809D01*
X187699666Y-79786714D01*
%TO.C,R2*%
X182988904Y-80511666D02*
X182607952Y-80245000D01*
X182988904Y-80054523D02*
X182188904Y-80054523D01*
X182188904Y-80359285D01*
X182227000Y-80435476D01*
X182265095Y-80473571D01*
X182341285Y-80511666D01*
X182455571Y-80511666D01*
X182531761Y-80473571D01*
X182569857Y-80435476D01*
X182607952Y-80359285D01*
X182607952Y-80054523D01*
X182265095Y-80816428D02*
X182227000Y-80854523D01*
X182188904Y-80930714D01*
X182188904Y-81121190D01*
X182227000Y-81197380D01*
X182265095Y-81235476D01*
X182341285Y-81273571D01*
X182417476Y-81273571D01*
X182531761Y-81235476D01*
X182988904Y-80778333D01*
X182988904Y-81273571D01*
%TO.C,R1*%
X192538333Y-76562904D02*
X192805000Y-76181952D01*
X192995476Y-76562904D02*
X192995476Y-75762904D01*
X192690714Y-75762904D01*
X192614523Y-75801000D01*
X192576428Y-75839095D01*
X192538333Y-75915285D01*
X192538333Y-76029571D01*
X192576428Y-76105761D01*
X192614523Y-76143857D01*
X192690714Y-76181952D01*
X192995476Y-76181952D01*
X191776428Y-76562904D02*
X192233571Y-76562904D01*
X192005000Y-76562904D02*
X192005000Y-75762904D01*
X192081190Y-75877190D01*
X192157380Y-75953380D01*
X192233571Y-75991476D01*
%TO.C,JP1*%
X199745380Y-76015857D02*
X199631095Y-76053952D01*
X199593000Y-76092047D01*
X199554904Y-76168238D01*
X199554904Y-76282523D01*
X199593000Y-76358714D01*
X199631095Y-76396809D01*
X199707285Y-76434904D01*
X200012047Y-76434904D01*
X200012047Y-75634904D01*
X199745380Y-75634904D01*
X199669190Y-75673000D01*
X199631095Y-75711095D01*
X199593000Y-75787285D01*
X199593000Y-75863476D01*
X199631095Y-75939666D01*
X199669190Y-75977761D01*
X199745380Y-76015857D01*
X200012047Y-76015857D01*
X199212047Y-76015857D02*
X198945380Y-76015857D01*
X198831095Y-76434904D02*
X199212047Y-76434904D01*
X199212047Y-75634904D01*
X198831095Y-75634904D01*
X198678714Y-76511095D02*
X198069190Y-76511095D01*
X197993000Y-75634904D02*
X197726333Y-76434904D01*
X197459666Y-75634904D01*
X197193000Y-76434904D02*
X197193000Y-75634904D01*
X197002523Y-75634904D01*
X196888238Y-75673000D01*
X196812047Y-75749190D01*
X196773952Y-75825380D01*
X196735857Y-75977761D01*
X196735857Y-76092047D01*
X196773952Y-76244428D01*
X196812047Y-76320619D01*
X196888238Y-76396809D01*
X197002523Y-76434904D01*
X197193000Y-76434904D01*
X196393000Y-76434904D02*
X196393000Y-75634904D01*
X196202523Y-75634904D01*
X196088238Y-75673000D01*
X196012047Y-75749190D01*
X195973952Y-75825380D01*
X195935857Y-75977761D01*
X195935857Y-76092047D01*
X195973952Y-76244428D01*
X196012047Y-76320619D01*
X196088238Y-76396809D01*
X196202523Y-76434904D01*
X196393000Y-76434904D01*
%TO.C,C6*%
X182882714Y-85083666D02*
X182920809Y-85045571D01*
X182958904Y-84931285D01*
X182958904Y-84855095D01*
X182920809Y-84740809D01*
X182844619Y-84664619D01*
X182768428Y-84626523D01*
X182616047Y-84588428D01*
X182501761Y-84588428D01*
X182349380Y-84626523D01*
X182273190Y-84664619D01*
X182197000Y-84740809D01*
X182158904Y-84855095D01*
X182158904Y-84931285D01*
X182197000Y-85045571D01*
X182235095Y-85083666D01*
X182158904Y-85769380D02*
X182158904Y-85617000D01*
X182197000Y-85540809D01*
X182235095Y-85502714D01*
X182349380Y-85426523D01*
X182501761Y-85388428D01*
X182806523Y-85388428D01*
X182882714Y-85426523D01*
X182920809Y-85464619D01*
X182958904Y-85540809D01*
X182958904Y-85693190D01*
X182920809Y-85769380D01*
X182882714Y-85807476D01*
X182806523Y-85845571D01*
X182616047Y-85845571D01*
X182539857Y-85807476D01*
X182501761Y-85769380D01*
X182463666Y-85693190D01*
X182463666Y-85540809D01*
X182501761Y-85464619D01*
X182539857Y-85426523D01*
X182616047Y-85388428D01*
%TO.C,C5*%
X153422333Y-107883714D02*
X153460428Y-107921809D01*
X153574714Y-107959904D01*
X153650904Y-107959904D01*
X153765190Y-107921809D01*
X153841380Y-107845619D01*
X153879476Y-107769428D01*
X153917571Y-107617047D01*
X153917571Y-107502761D01*
X153879476Y-107350380D01*
X153841380Y-107274190D01*
X153765190Y-107198000D01*
X153650904Y-107159904D01*
X153574714Y-107159904D01*
X153460428Y-107198000D01*
X153422333Y-107236095D01*
X152698523Y-107159904D02*
X153079476Y-107159904D01*
X153117571Y-107540857D01*
X153079476Y-107502761D01*
X153003285Y-107464666D01*
X152812809Y-107464666D01*
X152736619Y-107502761D01*
X152698523Y-107540857D01*
X152660428Y-107617047D01*
X152660428Y-107807523D01*
X152698523Y-107883714D01*
X152736619Y-107921809D01*
X152812809Y-107959904D01*
X153003285Y-107959904D01*
X153079476Y-107921809D01*
X153117571Y-107883714D01*
%TO.C,C4*%
X164217333Y-87055714D02*
X164255428Y-87093809D01*
X164369714Y-87131904D01*
X164445904Y-87131904D01*
X164560190Y-87093809D01*
X164636380Y-87017619D01*
X164674476Y-86941428D01*
X164712571Y-86789047D01*
X164712571Y-86674761D01*
X164674476Y-86522380D01*
X164636380Y-86446190D01*
X164560190Y-86370000D01*
X164445904Y-86331904D01*
X164369714Y-86331904D01*
X164255428Y-86370000D01*
X164217333Y-86408095D01*
X163531619Y-86598571D02*
X163531619Y-87131904D01*
X163722095Y-86293809D02*
X163912571Y-86865238D01*
X163417333Y-86865238D01*
%TO.C,C3*%
X199392714Y-85083666D02*
X199430809Y-85045571D01*
X199468904Y-84931285D01*
X199468904Y-84855095D01*
X199430809Y-84740809D01*
X199354619Y-84664619D01*
X199278428Y-84626523D01*
X199126047Y-84588428D01*
X199011761Y-84588428D01*
X198859380Y-84626523D01*
X198783190Y-84664619D01*
X198707000Y-84740809D01*
X198668904Y-84855095D01*
X198668904Y-84931285D01*
X198707000Y-85045571D01*
X198745095Y-85083666D01*
X198668904Y-85350333D02*
X198668904Y-85845571D01*
X198973666Y-85578904D01*
X198973666Y-85693190D01*
X199011761Y-85769380D01*
X199049857Y-85807476D01*
X199126047Y-85845571D01*
X199316523Y-85845571D01*
X199392714Y-85807476D01*
X199430809Y-85769380D01*
X199468904Y-85693190D01*
X199468904Y-85464619D01*
X199430809Y-85388428D01*
X199392714Y-85350333D01*
%TO.C,C1*%
X163582333Y-103184714D02*
X163620428Y-103222809D01*
X163734714Y-103260904D01*
X163810904Y-103260904D01*
X163925190Y-103222809D01*
X164001380Y-103146619D01*
X164039476Y-103070428D01*
X164077571Y-102918047D01*
X164077571Y-102803761D01*
X164039476Y-102651380D01*
X164001380Y-102575190D01*
X163925190Y-102499000D01*
X163810904Y-102460904D01*
X163734714Y-102460904D01*
X163620428Y-102499000D01*
X163582333Y-102537095D01*
X162820428Y-103260904D02*
X163277571Y-103260904D01*
X163049000Y-103260904D02*
X163049000Y-102460904D01*
X163125190Y-102575190D01*
X163201380Y-102651380D01*
X163277571Y-102689476D01*
%TD*%
M02*
