%TF.GenerationSoftware,KiCad,Pcbnew,(5.1.10)-1*%
%TF.CreationDate,2021-06-15T10:48:06-05:00*%
%TF.ProjectId,gd MegaII proto pcb,6764204d-6567-4614-9949-2070726f746f,rev?*%
%TF.SameCoordinates,Original*%
%TF.FileFunction,Soldermask,Top*%
%TF.FilePolarity,Negative*%
%FSLAX46Y46*%
G04 Gerber Fmt 4.6, Leading zero omitted, Abs format (unit mm)*
G04 Created by KiCad (PCBNEW (5.1.10)-1) date 2021-06-15 10:48:06*
%MOMM*%
%LPD*%
G01*
G04 APERTURE LIST*
%ADD10C,0.100000*%
%ADD11C,0.134262*%
%ADD12C,0.095901*%
%ADD13O,1.700000X1.700000*%
%ADD14R,1.700000X1.700000*%
%ADD15O,2.400000X1.600000*%
%ADD16R,2.400000X1.600000*%
%ADD17C,1.600000*%
%ADD18R,1.600000X1.600000*%
%ADD19R,0.700000X0.640000*%
%ADD20R,0.700000X0.500000*%
%ADD21C,1.422400*%
%ADD22R,1.422400X1.422400*%
%ADD23R,1.850000X3.450000*%
%ADD24C,2.500000*%
G04 APERTURE END LIST*
D10*
G36*
X189230000Y-107950000D02*
G01*
X184150000Y-107950000D01*
X184150000Y-93980000D01*
X189230000Y-93980000D01*
X189230000Y-107950000D01*
G37*
X189230000Y-107950000D02*
X184150000Y-107950000D01*
X184150000Y-93980000D01*
X189230000Y-93980000D01*
X189230000Y-107950000D01*
G36*
X182245000Y-149225000D02*
G01*
X156210000Y-149225000D01*
X156210000Y-144145000D01*
X182245000Y-144145000D01*
X182245000Y-149225000D01*
G37*
X182245000Y-149225000D02*
X156210000Y-149225000D01*
X156210000Y-144145000D01*
X182245000Y-144145000D01*
X182245000Y-149225000D01*
G36*
X146050000Y-149225000D02*
G01*
X116205000Y-149225000D01*
X116205000Y-144145000D01*
X146050000Y-144145000D01*
X146050000Y-149225000D01*
G37*
X146050000Y-149225000D02*
X116205000Y-149225000D01*
X116205000Y-144145000D01*
X146050000Y-144145000D01*
X146050000Y-149225000D01*
G36*
X93980000Y-122555000D02*
G01*
X88900000Y-122555000D01*
X88900000Y-107950000D01*
X93980000Y-107950000D01*
X93980000Y-122555000D01*
G37*
X93980000Y-122555000D02*
X88900000Y-122555000D01*
X88900000Y-107950000D01*
X93980000Y-107950000D01*
X93980000Y-122555000D01*
G36*
X93980000Y-102870000D02*
G01*
X88900000Y-102870000D01*
X88900000Y-88265000D01*
X93980000Y-88265000D01*
X93980000Y-102870000D01*
G37*
X93980000Y-102870000D02*
X88900000Y-102870000D01*
X88900000Y-88265000D01*
X93980000Y-88265000D01*
X93980000Y-102870000D01*
G36*
X106045000Y-36830000D02*
G01*
X94615000Y-36830000D01*
X94615000Y-31750000D01*
X106045000Y-31750000D01*
X106045000Y-36830000D01*
G37*
X106045000Y-36830000D02*
X94615000Y-36830000D01*
X94615000Y-31750000D01*
X106045000Y-31750000D01*
X106045000Y-36830000D01*
G36*
X181610000Y-34925000D02*
G01*
X158115000Y-34925000D01*
X158115000Y-31750000D01*
X181610000Y-31750000D01*
X181610000Y-34925000D01*
G37*
X181610000Y-34925000D02*
X158115000Y-34925000D01*
X158115000Y-31750000D01*
X181610000Y-31750000D01*
X181610000Y-34925000D01*
G36*
X189230000Y-80010000D02*
G01*
X182880000Y-80010000D01*
X182880000Y-38100000D01*
X189230000Y-38100000D01*
X189230000Y-80010000D01*
G37*
X189230000Y-80010000D02*
X182880000Y-80010000D01*
X182880000Y-38100000D01*
X189230000Y-38100000D01*
X189230000Y-80010000D01*
D11*
%TO.C,svg2mod*%
G36*
X93634000Y-43091646D02*
G01*
X93111226Y-43957923D01*
X93233062Y-43772177D01*
X93413492Y-43647274D01*
X93634000Y-43601561D01*
X93855562Y-43647636D01*
X94035875Y-43773143D01*
X94157125Y-43959009D01*
X94201500Y-44186161D01*
X94157125Y-44414802D01*
X94035875Y-44601433D01*
X93855562Y-44727221D01*
X93634000Y-44773336D01*
X93412437Y-44727221D01*
X93232125Y-44601433D01*
X93110875Y-44414802D01*
X93066500Y-44186161D01*
X93111226Y-43957923D01*
X93634000Y-43091646D01*
X93357796Y-43129323D01*
X93109370Y-43235102D01*
X92896500Y-43398111D01*
X90961500Y-43398111D01*
X90961500Y-44974211D01*
X92896500Y-44974211D01*
X93108259Y-45138365D01*
X93357241Y-45243572D01*
X93634000Y-45280675D01*
X93916697Y-45241628D01*
X94170574Y-45131402D01*
X94385562Y-44960369D01*
X94551592Y-44738903D01*
X94658595Y-44477376D01*
X94696500Y-44186161D01*
X94658595Y-43894946D01*
X94551592Y-43633419D01*
X94385562Y-43411953D01*
X94170574Y-43240920D01*
X93916697Y-43130694D01*
X93634000Y-43091646D01*
G37*
X93634000Y-43091646D02*
X93111226Y-43957923D01*
X93233062Y-43772177D01*
X93413492Y-43647274D01*
X93634000Y-43601561D01*
X93855562Y-43647636D01*
X94035875Y-43773143D01*
X94157125Y-43959009D01*
X94201500Y-44186161D01*
X94157125Y-44414802D01*
X94035875Y-44601433D01*
X93855562Y-44727221D01*
X93634000Y-44773336D01*
X93412437Y-44727221D01*
X93232125Y-44601433D01*
X93110875Y-44414802D01*
X93066500Y-44186161D01*
X93111226Y-43957923D01*
X93634000Y-43091646D01*
X93357796Y-43129323D01*
X93109370Y-43235102D01*
X92896500Y-43398111D01*
X90961500Y-43398111D01*
X90961500Y-44974211D01*
X92896500Y-44974211D01*
X93108259Y-45138365D01*
X93357241Y-45243572D01*
X93634000Y-45280675D01*
X93916697Y-45241628D01*
X94170574Y-45131402D01*
X94385562Y-44960369D01*
X94551592Y-44738903D01*
X94658595Y-44477376D01*
X94696500Y-44186161D01*
X94658595Y-43894946D01*
X94551592Y-43633419D01*
X94385562Y-43411953D01*
X94170574Y-43240920D01*
X93916697Y-43130694D01*
X93634000Y-43091646D01*
G36*
X97254000Y-39396051D02*
G01*
X99889000Y-39396051D01*
X99889000Y-40619331D01*
X97254000Y-40619331D01*
X97254000Y-39396051D01*
G37*
X97254000Y-39396051D02*
X99889000Y-39396051D01*
X99889000Y-40619331D01*
X97254000Y-40619331D01*
X97254000Y-39396051D01*
G36*
X97254000Y-42195432D02*
G01*
X99889000Y-42195432D01*
X99889000Y-43418713D01*
X97254000Y-43418713D01*
X97254000Y-42195432D01*
G37*
X97254000Y-42195432D02*
X99889000Y-42195432D01*
X99889000Y-43418713D01*
X97254000Y-43418713D01*
X97254000Y-42195432D01*
G36*
X97254000Y-45002540D02*
G01*
X99889000Y-45002540D01*
X99889000Y-46225821D01*
X97254000Y-46225821D01*
X97254000Y-45002540D01*
G37*
X97254000Y-45002540D02*
X99889000Y-45002540D01*
X99889000Y-46225821D01*
X97254000Y-46225821D01*
X97254000Y-45002540D01*
G36*
X93634000Y-40297415D02*
G01*
X93111226Y-41163289D01*
X93233062Y-40976658D01*
X93413492Y-40850869D01*
X93634000Y-40804755D01*
X93855562Y-40850869D01*
X94035875Y-40976658D01*
X94157125Y-41163289D01*
X94201500Y-41391930D01*
X94157125Y-41619082D01*
X94035875Y-41804948D01*
X93855562Y-41930455D01*
X93634000Y-41976529D01*
X93412437Y-41930455D01*
X93232125Y-41804948D01*
X93110875Y-41619082D01*
X93066500Y-41391930D01*
X93111226Y-41163289D01*
X93634000Y-40297415D01*
X93357796Y-40335091D01*
X93109370Y-40440871D01*
X92896500Y-40603879D01*
X90961500Y-40603879D01*
X90961500Y-42179980D01*
X92896500Y-42179980D01*
X93108259Y-42344134D01*
X93357241Y-42449341D01*
X93634000Y-42486444D01*
X93916697Y-42447397D01*
X94170574Y-42337171D01*
X94385562Y-42166138D01*
X94551592Y-41944672D01*
X94658595Y-41683145D01*
X94696500Y-41391930D01*
X94658595Y-41100715D01*
X94551592Y-40839188D01*
X94385562Y-40617722D01*
X94170574Y-40446689D01*
X93916697Y-40336463D01*
X93634000Y-40297415D01*
G37*
X93634000Y-40297415D02*
X93111226Y-41163289D01*
X93233062Y-40976658D01*
X93413492Y-40850869D01*
X93634000Y-40804755D01*
X93855562Y-40850869D01*
X94035875Y-40976658D01*
X94157125Y-41163289D01*
X94201500Y-41391930D01*
X94157125Y-41619082D01*
X94035875Y-41804948D01*
X93855562Y-41930455D01*
X93634000Y-41976529D01*
X93412437Y-41930455D01*
X93232125Y-41804948D01*
X93110875Y-41619082D01*
X93066500Y-41391930D01*
X93111226Y-41163289D01*
X93634000Y-40297415D01*
X93357796Y-40335091D01*
X93109370Y-40440871D01*
X92896500Y-40603879D01*
X90961500Y-40603879D01*
X90961500Y-42179980D01*
X92896500Y-42179980D01*
X93108259Y-42344134D01*
X93357241Y-42449341D01*
X93634000Y-42486444D01*
X93916697Y-42447397D01*
X94170574Y-42337171D01*
X94385562Y-42166138D01*
X94551592Y-41944672D01*
X94658595Y-41683145D01*
X94696500Y-41391930D01*
X94658595Y-41100715D01*
X94551592Y-40839188D01*
X94385562Y-40617722D01*
X94170574Y-40446689D01*
X93916697Y-40336463D01*
X93634000Y-40297415D01*
D12*
G36*
X94614000Y-47786469D02*
G01*
X94154000Y-47786469D01*
X94154000Y-47989920D01*
X94516500Y-47989920D01*
X94516500Y-48177919D01*
X94154000Y-48177919D01*
X94154000Y-48394247D01*
X94614000Y-48394247D01*
X94614000Y-48592547D01*
X93924000Y-48592547D01*
X93924000Y-47595895D01*
X94614000Y-47595895D01*
X94614000Y-47786469D01*
G37*
X94614000Y-47786469D02*
X94154000Y-47786469D01*
X94154000Y-47989920D01*
X94516500Y-47989920D01*
X94516500Y-48177919D01*
X94154000Y-48177919D01*
X94154000Y-48394247D01*
X94614000Y-48394247D01*
X94614000Y-48592547D01*
X93924000Y-48592547D01*
X93924000Y-47595895D01*
X94614000Y-47595895D01*
X94614000Y-47786469D01*
G36*
X95494000Y-47598470D02*
G01*
X95494000Y-48595123D01*
X95301500Y-48595123D01*
X94924000Y-47920387D01*
X94926487Y-47953866D01*
X94928974Y-47997646D01*
X94928974Y-48595123D01*
X94751474Y-48595123D01*
X94751474Y-47598470D01*
X94996474Y-47598470D01*
X95326474Y-48185645D01*
X95321473Y-48118687D01*
X95321473Y-47598470D01*
X95494000Y-47598470D01*
G37*
X95494000Y-47598470D02*
X95494000Y-48595123D01*
X95301500Y-48595123D01*
X94924000Y-47920387D01*
X94926487Y-47953866D01*
X94928974Y-47997646D01*
X94928974Y-48595123D01*
X94751474Y-48595123D01*
X94751474Y-47598470D01*
X94996474Y-47598470D01*
X95326474Y-48185645D01*
X95321473Y-48118687D01*
X95321473Y-47598470D01*
X95494000Y-47598470D01*
G36*
X96444000Y-48062029D02*
G01*
X96444000Y-48595123D01*
X96341500Y-48595123D01*
X96309000Y-48479233D01*
X96044000Y-48607999D01*
X95875875Y-48573232D01*
X95749000Y-48468931D01*
X95670250Y-48308939D01*
X95644000Y-48108386D01*
X95672125Y-47893346D01*
X95756500Y-47724662D01*
X95889312Y-47616820D01*
X96061500Y-47580443D01*
X96321500Y-47673155D01*
X96441500Y-47922962D01*
X96226500Y-47951290D01*
X96059000Y-47771017D01*
X95919000Y-47856003D01*
X95871500Y-48100659D01*
X95921500Y-48335014D01*
X96066500Y-48414849D01*
X96174000Y-48373644D01*
X96221500Y-48242303D01*
X96039000Y-48242303D01*
X96039000Y-48056879D01*
X96444000Y-48056879D01*
X96444000Y-48062029D01*
G37*
X96444000Y-48062029D02*
X96444000Y-48595123D01*
X96341500Y-48595123D01*
X96309000Y-48479233D01*
X96044000Y-48607999D01*
X95875875Y-48573232D01*
X95749000Y-48468931D01*
X95670250Y-48308939D01*
X95644000Y-48108386D01*
X95672125Y-47893346D01*
X95756500Y-47724662D01*
X95889312Y-47616820D01*
X96061500Y-47580443D01*
X96321500Y-47673155D01*
X96441500Y-47922962D01*
X96226500Y-47951290D01*
X96059000Y-47771017D01*
X95919000Y-47856003D01*
X95871500Y-48100659D01*
X95921500Y-48335014D01*
X96066500Y-48414849D01*
X96174000Y-48373644D01*
X96221500Y-48242303D01*
X96039000Y-48242303D01*
X96039000Y-48056879D01*
X96444000Y-48056879D01*
X96444000Y-48062029D01*
G36*
X96846500Y-47598470D02*
G01*
X96846500Y-48595123D01*
X96621500Y-48595123D01*
X96621500Y-47598470D01*
X96846500Y-47598470D01*
G37*
X96846500Y-47598470D02*
X96846500Y-48595123D01*
X96621500Y-48595123D01*
X96621500Y-47598470D01*
X96846500Y-47598470D01*
G36*
X97786500Y-47598470D02*
G01*
X97786500Y-48595123D01*
X97594000Y-48595123D01*
X97216500Y-47922962D01*
X97218987Y-47956441D01*
X97221474Y-48000222D01*
X97221474Y-48597698D01*
X97043974Y-48597698D01*
X97043974Y-47601046D01*
X97288974Y-47601046D01*
X97618974Y-48188221D01*
X97613973Y-48121262D01*
X97613973Y-47601046D01*
X97786473Y-47601046D01*
X97786500Y-47598470D01*
G37*
X97786500Y-47598470D02*
X97786500Y-48595123D01*
X97594000Y-48595123D01*
X97216500Y-47922962D01*
X97218987Y-47956441D01*
X97221474Y-48000222D01*
X97221474Y-48597698D01*
X97043974Y-48597698D01*
X97043974Y-47601046D01*
X97288974Y-47601046D01*
X97618974Y-48188221D01*
X97613973Y-48121262D01*
X97613973Y-47601046D01*
X97786473Y-47601046D01*
X97786500Y-47598470D01*
G36*
X98671500Y-47786469D02*
G01*
X98211500Y-47786469D01*
X98211500Y-47989920D01*
X98574000Y-47989920D01*
X98574000Y-48177919D01*
X98211500Y-48177919D01*
X98211500Y-48394247D01*
X98671500Y-48394247D01*
X98671500Y-48592547D01*
X97981500Y-48592547D01*
X97981500Y-47595895D01*
X98671500Y-47595895D01*
X98671500Y-47786469D01*
G37*
X98671500Y-47786469D02*
X98211500Y-47786469D01*
X98211500Y-47989920D01*
X98574000Y-47989920D01*
X98574000Y-48177919D01*
X98211500Y-48177919D01*
X98211500Y-48394247D01*
X98671500Y-48394247D01*
X98671500Y-48592547D01*
X97981500Y-48592547D01*
X97981500Y-47595895D01*
X98671500Y-47595895D01*
X98671500Y-47786469D01*
G36*
X99499000Y-47786469D02*
G01*
X99039000Y-47786469D01*
X99039000Y-47989920D01*
X99399000Y-47989920D01*
X99399000Y-48177919D01*
X99036500Y-48177919D01*
X99036500Y-48394247D01*
X99499000Y-48394247D01*
X99499000Y-48592547D01*
X98809000Y-48592547D01*
X98809000Y-47595895D01*
X99499000Y-47595895D01*
X99499000Y-47786469D01*
G37*
X99499000Y-47786469D02*
X99039000Y-47786469D01*
X99039000Y-47989920D01*
X99399000Y-47989920D01*
X99399000Y-48177919D01*
X99036500Y-48177919D01*
X99036500Y-48394247D01*
X99499000Y-48394247D01*
X99499000Y-48592547D01*
X98809000Y-48592547D01*
X98809000Y-47595895D01*
X99499000Y-47595895D01*
X99499000Y-47786469D01*
G36*
X99861500Y-48198522D02*
G01*
X99861500Y-48031126D01*
X100001500Y-48031126D01*
X100101500Y-48020825D01*
X100156500Y-47977045D01*
X100181500Y-47899785D01*
X100156500Y-47825100D01*
X100104000Y-47783895D01*
X99996500Y-47776169D01*
X99861500Y-47776168D01*
X99861500Y-48031126D01*
X99861500Y-48198522D01*
X99861500Y-48592547D01*
X99634000Y-48592547D01*
X99634000Y-47595895D01*
X100059000Y-47595895D01*
X100249000Y-47624224D01*
X100366500Y-47727237D01*
X100414000Y-47894633D01*
X100372437Y-48048509D01*
X100246500Y-48152166D01*
X100424000Y-48592547D01*
X100174000Y-48592547D01*
X100026500Y-48198522D01*
X99861500Y-48198522D01*
G37*
X99861500Y-48198522D02*
X99861500Y-48031126D01*
X100001500Y-48031126D01*
X100101500Y-48020825D01*
X100156500Y-47977045D01*
X100181500Y-47899785D01*
X100156500Y-47825100D01*
X100104000Y-47783895D01*
X99996500Y-47776169D01*
X99861500Y-47776168D01*
X99861500Y-48031126D01*
X99861500Y-48198522D01*
X99861500Y-48592547D01*
X99634000Y-48592547D01*
X99634000Y-47595895D01*
X100059000Y-47595895D01*
X100249000Y-47624224D01*
X100366500Y-47727237D01*
X100414000Y-47894633D01*
X100372437Y-48048509D01*
X100246500Y-48152166D01*
X100424000Y-48592547D01*
X100174000Y-48592547D01*
X100026500Y-48198522D01*
X99861500Y-48198522D01*
%TD*%
D13*
%TO.C,J8*%
X148336000Y-139700000D03*
X150876000Y-139700000D03*
D14*
X153416000Y-139700000D03*
%TD*%
%TO.C,C11*%
G36*
G01*
X153104000Y-74389000D02*
X153104000Y-73439000D01*
G75*
G02*
X153354000Y-73189000I250000J0D01*
G01*
X153854000Y-73189000D01*
G75*
G02*
X154104000Y-73439000I0J-250000D01*
G01*
X154104000Y-74389000D01*
G75*
G02*
X153854000Y-74639000I-250000J0D01*
G01*
X153354000Y-74639000D01*
G75*
G02*
X153104000Y-74389000I0J250000D01*
G01*
G37*
G36*
G01*
X151204000Y-74389000D02*
X151204000Y-73439000D01*
G75*
G02*
X151454000Y-73189000I250000J0D01*
G01*
X151954000Y-73189000D01*
G75*
G02*
X152204000Y-73439000I0J-250000D01*
G01*
X152204000Y-74389000D01*
G75*
G02*
X151954000Y-74639000I-250000J0D01*
G01*
X151454000Y-74639000D01*
G75*
G02*
X151204000Y-74389000I0J250000D01*
G01*
G37*
%TD*%
D13*
%TO.C,J6*%
X105410000Y-139700000D03*
X102870000Y-139700000D03*
D14*
X100330000Y-139700000D03*
%TD*%
D13*
%TO.C,J7*%
X156210000Y-38227000D03*
X156210000Y-40767000D03*
X153670000Y-38227000D03*
X153670000Y-40767000D03*
X151130000Y-38227000D03*
X151130000Y-40767000D03*
X148590000Y-38227000D03*
X148590000Y-40767000D03*
X146050000Y-38227000D03*
X146050000Y-40767000D03*
X143510000Y-38227000D03*
X143510000Y-40767000D03*
X140970000Y-38227000D03*
X140970000Y-40767000D03*
X138430000Y-38227000D03*
X138430000Y-40767000D03*
X135890000Y-38227000D03*
X135890000Y-40767000D03*
X133350000Y-38227000D03*
X133350000Y-40767000D03*
X130810000Y-38227000D03*
X130810000Y-40767000D03*
X128270000Y-38227000D03*
X128270000Y-40767000D03*
X125730000Y-38227000D03*
X125730000Y-40767000D03*
X123190000Y-38227000D03*
X123190000Y-40767000D03*
X120650000Y-38227000D03*
X120650000Y-40767000D03*
X118110000Y-38227000D03*
X118110000Y-40767000D03*
X115570000Y-38227000D03*
X115570000Y-40767000D03*
X113030000Y-38227000D03*
X113030000Y-40767000D03*
X110490000Y-38227000D03*
X110490000Y-40767000D03*
X107950000Y-38227000D03*
D14*
X107950000Y-40767000D03*
%TD*%
D15*
%TO.C,U7*%
X142621000Y-48006000D03*
X135001000Y-68326000D03*
X142621000Y-50546000D03*
X135001000Y-65786000D03*
X142621000Y-53086000D03*
X135001000Y-63246000D03*
X142621000Y-55626000D03*
X135001000Y-60706000D03*
X142621000Y-58166000D03*
X135001000Y-58166000D03*
X142621000Y-60706000D03*
X135001000Y-55626000D03*
X142621000Y-63246000D03*
X135001000Y-53086000D03*
X142621000Y-65786000D03*
X135001000Y-50546000D03*
X142621000Y-68326000D03*
D16*
X135001000Y-48006000D03*
%TD*%
D13*
%TO.C,JP8*%
X104140000Y-77216000D03*
X106680000Y-77216000D03*
X109220000Y-77216000D03*
X111760000Y-77216000D03*
X114300000Y-77216000D03*
X116840000Y-77216000D03*
X119380000Y-77216000D03*
X121920000Y-77216000D03*
X124460000Y-77216000D03*
X127000000Y-77216000D03*
D14*
X129540000Y-77216000D03*
%TD*%
D13*
%TO.C,J12*%
X147320000Y-73533000D03*
X144780000Y-73533000D03*
X142240000Y-73533000D03*
D14*
X139700000Y-73533000D03*
%TD*%
D13*
%TO.C,JP1*%
X96520000Y-134620000D03*
X96520000Y-132080000D03*
X96520000Y-129540000D03*
D14*
X96520000Y-127000000D03*
%TD*%
D13*
%TO.C,JP15*%
X158750000Y-81280000D03*
X158750000Y-83820000D03*
X158750000Y-86360000D03*
X158750000Y-88900000D03*
X158750000Y-91440000D03*
X158750000Y-93980000D03*
X158750000Y-96520000D03*
X158750000Y-99060000D03*
X158750000Y-101600000D03*
X158750000Y-104140000D03*
D14*
X158750000Y-106680000D03*
%TD*%
D13*
%TO.C,J11*%
X172720000Y-44450000D03*
X172720000Y-41910000D03*
X172720000Y-39370000D03*
D14*
X172720000Y-36830000D03*
%TD*%
D17*
%TO.C,C2*%
X161370000Y-39751000D03*
D18*
X166370000Y-39751000D03*
%TD*%
D19*
%TO.C,RN8*%
X162752000Y-65659000D03*
D20*
X162752000Y-63989000D03*
X162752000Y-64789000D03*
D19*
X162752000Y-63119000D03*
D20*
X161352000Y-64789000D03*
D19*
X161352000Y-65659000D03*
D20*
X161352000Y-63989000D03*
D19*
X161352000Y-63119000D03*
%TD*%
%TO.C,RN7*%
X162752000Y-60706000D03*
D20*
X162752000Y-59036000D03*
X162752000Y-59836000D03*
D19*
X162752000Y-58166000D03*
D20*
X161352000Y-59836000D03*
D19*
X161352000Y-60706000D03*
D20*
X161352000Y-59036000D03*
D19*
X161352000Y-58166000D03*
%TD*%
D13*
%TO.C,JP16*%
X158750000Y-109220000D03*
X158750000Y-111760000D03*
X158750000Y-114300000D03*
X158750000Y-116840000D03*
X158750000Y-119380000D03*
X158750000Y-121920000D03*
X158750000Y-124460000D03*
X158750000Y-127000000D03*
X158750000Y-129540000D03*
D14*
X158750000Y-132080000D03*
%TD*%
D13*
%TO.C,JP12*%
X132080000Y-77216000D03*
X134620000Y-77216000D03*
X137160000Y-77216000D03*
X139700000Y-77216000D03*
X142240000Y-77216000D03*
X144780000Y-77216000D03*
X147320000Y-77216000D03*
X149860000Y-77216000D03*
X152400000Y-77216000D03*
D14*
X154940000Y-77216000D03*
%TD*%
D13*
%TO.C,JP11*%
X154940000Y-135890000D03*
X152400000Y-135890000D03*
X149860000Y-135890000D03*
X147320000Y-135890000D03*
X144780000Y-135890000D03*
X142240000Y-135890000D03*
X139700000Y-135890000D03*
X137160000Y-135890000D03*
X134620000Y-135890000D03*
X132080000Y-135890000D03*
D14*
X129540000Y-135890000D03*
%TD*%
D13*
%TO.C,JP7*%
X127000000Y-135890000D03*
X124460000Y-135890000D03*
X121920000Y-135890000D03*
X119380000Y-135890000D03*
X116840000Y-135890000D03*
X114300000Y-135890000D03*
X111760000Y-135890000D03*
X109220000Y-135890000D03*
X106680000Y-135890000D03*
D14*
X104140000Y-135890000D03*
%TD*%
D13*
%TO.C,JP4*%
X100330000Y-132080000D03*
X100330000Y-129540000D03*
X100330000Y-127000000D03*
X100330000Y-124460000D03*
X100330000Y-121920000D03*
X100330000Y-119380000D03*
X100330000Y-116840000D03*
X100330000Y-114300000D03*
X100330000Y-111760000D03*
X100330000Y-109220000D03*
D14*
X100330000Y-106680000D03*
%TD*%
D13*
%TO.C,JP3*%
X100330000Y-104140000D03*
X100330000Y-101600000D03*
X100330000Y-99060000D03*
X100330000Y-96520000D03*
X100330000Y-93980000D03*
X100330000Y-91440000D03*
X100330000Y-88900000D03*
X100330000Y-86360000D03*
X100330000Y-83820000D03*
D14*
X100330000Y-81280000D03*
%TD*%
D13*
%TO.C,J10*%
X181737000Y-92710000D03*
X179197000Y-92710000D03*
X181737000Y-90170000D03*
X179197000Y-90170000D03*
X181737000Y-87630000D03*
X179197000Y-87630000D03*
X181737000Y-85090000D03*
X179197000Y-85090000D03*
X181737000Y-82550000D03*
D14*
X179197000Y-82550000D03*
%TD*%
D19*
%TO.C,RN6*%
X168278000Y-90678000D03*
D20*
X168278000Y-89008000D03*
X168278000Y-89808000D03*
D19*
X168278000Y-88138000D03*
D20*
X166878000Y-89808000D03*
D19*
X166878000Y-90678000D03*
D20*
X166878000Y-89008000D03*
D19*
X166878000Y-88138000D03*
%TD*%
%TO.C,RN3*%
X168340000Y-85344000D03*
D20*
X168340000Y-83674000D03*
X168340000Y-84474000D03*
D19*
X168340000Y-82804000D03*
D20*
X166940000Y-84474000D03*
D19*
X166940000Y-85344000D03*
D20*
X166940000Y-83674000D03*
D19*
X166940000Y-82804000D03*
%TD*%
D13*
%TO.C,J9*%
X182880000Y-132842000D03*
X180340000Y-132842000D03*
X182880000Y-130302000D03*
X180340000Y-130302000D03*
X182880000Y-127762000D03*
X180340000Y-127762000D03*
X182880000Y-125222000D03*
X180340000Y-125222000D03*
X182880000Y-122682000D03*
X180340000Y-122682000D03*
X182880000Y-120142000D03*
X180340000Y-120142000D03*
X182880000Y-117602000D03*
X180340000Y-117602000D03*
X182880000Y-115062000D03*
X180340000Y-115062000D03*
X182880000Y-112522000D03*
X180340000Y-112522000D03*
X182880000Y-109982000D03*
D14*
X180340000Y-109982000D03*
%TD*%
D13*
%TO.C,J5*%
X178308000Y-74041000D03*
X175768000Y-74041000D03*
D14*
X173228000Y-74041000D03*
%TD*%
D13*
%TO.C,J4*%
X178308000Y-77724000D03*
X175768000Y-77724000D03*
D14*
X173228000Y-77724000D03*
%TD*%
D13*
%TO.C,J3*%
X173228000Y-68453000D03*
X175768000Y-68453000D03*
D14*
X178308000Y-68453000D03*
%TD*%
D13*
%TO.C,J2*%
X172847000Y-101727000D03*
X170307000Y-101727000D03*
D14*
X167767000Y-101727000D03*
%TD*%
D13*
%TO.C,J1*%
X172847000Y-98044000D03*
X170307000Y-98044000D03*
D14*
X167767000Y-98044000D03*
%TD*%
D15*
%TO.C,U9*%
X156464000Y-48006000D03*
X148844000Y-68326000D03*
X156464000Y-50546000D03*
X148844000Y-65786000D03*
X156464000Y-53086000D03*
X148844000Y-63246000D03*
X156464000Y-55626000D03*
X148844000Y-60706000D03*
X156464000Y-58166000D03*
X148844000Y-58166000D03*
X156464000Y-60706000D03*
X148844000Y-55626000D03*
X156464000Y-63246000D03*
X148844000Y-53086000D03*
X156464000Y-65786000D03*
X148844000Y-50546000D03*
X156464000Y-68326000D03*
D16*
X148844000Y-48006000D03*
%TD*%
%TO.C,U6*%
G36*
G01*
X177522000Y-57681000D02*
X177522000Y-57381000D01*
G75*
G02*
X177672000Y-57231000I150000J0D01*
G01*
X179322000Y-57231000D01*
G75*
G02*
X179472000Y-57381000I0J-150000D01*
G01*
X179472000Y-57681000D01*
G75*
G02*
X179322000Y-57831000I-150000J0D01*
G01*
X177672000Y-57831000D01*
G75*
G02*
X177522000Y-57681000I0J150000D01*
G01*
G37*
G36*
G01*
X177522000Y-58951000D02*
X177522000Y-58651000D01*
G75*
G02*
X177672000Y-58501000I150000J0D01*
G01*
X179322000Y-58501000D01*
G75*
G02*
X179472000Y-58651000I0J-150000D01*
G01*
X179472000Y-58951000D01*
G75*
G02*
X179322000Y-59101000I-150000J0D01*
G01*
X177672000Y-59101000D01*
G75*
G02*
X177522000Y-58951000I0J150000D01*
G01*
G37*
G36*
G01*
X177522000Y-60221000D02*
X177522000Y-59921000D01*
G75*
G02*
X177672000Y-59771000I150000J0D01*
G01*
X179322000Y-59771000D01*
G75*
G02*
X179472000Y-59921000I0J-150000D01*
G01*
X179472000Y-60221000D01*
G75*
G02*
X179322000Y-60371000I-150000J0D01*
G01*
X177672000Y-60371000D01*
G75*
G02*
X177522000Y-60221000I0J150000D01*
G01*
G37*
G36*
G01*
X177522000Y-61491000D02*
X177522000Y-61191000D01*
G75*
G02*
X177672000Y-61041000I150000J0D01*
G01*
X179322000Y-61041000D01*
G75*
G02*
X179472000Y-61191000I0J-150000D01*
G01*
X179472000Y-61491000D01*
G75*
G02*
X179322000Y-61641000I-150000J0D01*
G01*
X177672000Y-61641000D01*
G75*
G02*
X177522000Y-61491000I0J150000D01*
G01*
G37*
G36*
G01*
X177522000Y-62761000D02*
X177522000Y-62461000D01*
G75*
G02*
X177672000Y-62311000I150000J0D01*
G01*
X179322000Y-62311000D01*
G75*
G02*
X179472000Y-62461000I0J-150000D01*
G01*
X179472000Y-62761000D01*
G75*
G02*
X179322000Y-62911000I-150000J0D01*
G01*
X177672000Y-62911000D01*
G75*
G02*
X177522000Y-62761000I0J150000D01*
G01*
G37*
G36*
G01*
X177522000Y-64031000D02*
X177522000Y-63731000D01*
G75*
G02*
X177672000Y-63581000I150000J0D01*
G01*
X179322000Y-63581000D01*
G75*
G02*
X179472000Y-63731000I0J-150000D01*
G01*
X179472000Y-64031000D01*
G75*
G02*
X179322000Y-64181000I-150000J0D01*
G01*
X177672000Y-64181000D01*
G75*
G02*
X177522000Y-64031000I0J150000D01*
G01*
G37*
G36*
G01*
X177522000Y-65301000D02*
X177522000Y-65001000D01*
G75*
G02*
X177672000Y-64851000I150000J0D01*
G01*
X179322000Y-64851000D01*
G75*
G02*
X179472000Y-65001000I0J-150000D01*
G01*
X179472000Y-65301000D01*
G75*
G02*
X179322000Y-65451000I-150000J0D01*
G01*
X177672000Y-65451000D01*
G75*
G02*
X177522000Y-65301000I0J150000D01*
G01*
G37*
G36*
G01*
X172572000Y-65301000D02*
X172572000Y-65001000D01*
G75*
G02*
X172722000Y-64851000I150000J0D01*
G01*
X174372000Y-64851000D01*
G75*
G02*
X174522000Y-65001000I0J-150000D01*
G01*
X174522000Y-65301000D01*
G75*
G02*
X174372000Y-65451000I-150000J0D01*
G01*
X172722000Y-65451000D01*
G75*
G02*
X172572000Y-65301000I0J150000D01*
G01*
G37*
G36*
G01*
X172572000Y-64031000D02*
X172572000Y-63731000D01*
G75*
G02*
X172722000Y-63581000I150000J0D01*
G01*
X174372000Y-63581000D01*
G75*
G02*
X174522000Y-63731000I0J-150000D01*
G01*
X174522000Y-64031000D01*
G75*
G02*
X174372000Y-64181000I-150000J0D01*
G01*
X172722000Y-64181000D01*
G75*
G02*
X172572000Y-64031000I0J150000D01*
G01*
G37*
G36*
G01*
X172572000Y-62761000D02*
X172572000Y-62461000D01*
G75*
G02*
X172722000Y-62311000I150000J0D01*
G01*
X174372000Y-62311000D01*
G75*
G02*
X174522000Y-62461000I0J-150000D01*
G01*
X174522000Y-62761000D01*
G75*
G02*
X174372000Y-62911000I-150000J0D01*
G01*
X172722000Y-62911000D01*
G75*
G02*
X172572000Y-62761000I0J150000D01*
G01*
G37*
G36*
G01*
X172572000Y-61491000D02*
X172572000Y-61191000D01*
G75*
G02*
X172722000Y-61041000I150000J0D01*
G01*
X174372000Y-61041000D01*
G75*
G02*
X174522000Y-61191000I0J-150000D01*
G01*
X174522000Y-61491000D01*
G75*
G02*
X174372000Y-61641000I-150000J0D01*
G01*
X172722000Y-61641000D01*
G75*
G02*
X172572000Y-61491000I0J150000D01*
G01*
G37*
G36*
G01*
X172572000Y-60221000D02*
X172572000Y-59921000D01*
G75*
G02*
X172722000Y-59771000I150000J0D01*
G01*
X174372000Y-59771000D01*
G75*
G02*
X174522000Y-59921000I0J-150000D01*
G01*
X174522000Y-60221000D01*
G75*
G02*
X174372000Y-60371000I-150000J0D01*
G01*
X172722000Y-60371000D01*
G75*
G02*
X172572000Y-60221000I0J150000D01*
G01*
G37*
G36*
G01*
X172572000Y-58951000D02*
X172572000Y-58651000D01*
G75*
G02*
X172722000Y-58501000I150000J0D01*
G01*
X174372000Y-58501000D01*
G75*
G02*
X174522000Y-58651000I0J-150000D01*
G01*
X174522000Y-58951000D01*
G75*
G02*
X174372000Y-59101000I-150000J0D01*
G01*
X172722000Y-59101000D01*
G75*
G02*
X172572000Y-58951000I0J150000D01*
G01*
G37*
G36*
G01*
X172572000Y-57681000D02*
X172572000Y-57381000D01*
G75*
G02*
X172722000Y-57231000I150000J0D01*
G01*
X174372000Y-57231000D01*
G75*
G02*
X174522000Y-57381000I0J-150000D01*
G01*
X174522000Y-57681000D01*
G75*
G02*
X174372000Y-57831000I-150000J0D01*
G01*
X172722000Y-57831000D01*
G75*
G02*
X172572000Y-57681000I0J150000D01*
G01*
G37*
%TD*%
%TO.C,U5*%
G36*
G01*
X165539000Y-117833000D02*
X165539000Y-118133000D01*
G75*
G02*
X165389000Y-118283000I-150000J0D01*
G01*
X163639000Y-118283000D01*
G75*
G02*
X163489000Y-118133000I0J150000D01*
G01*
X163489000Y-117833000D01*
G75*
G02*
X163639000Y-117683000I150000J0D01*
G01*
X165389000Y-117683000D01*
G75*
G02*
X165539000Y-117833000I0J-150000D01*
G01*
G37*
G36*
G01*
X165539000Y-116563000D02*
X165539000Y-116863000D01*
G75*
G02*
X165389000Y-117013000I-150000J0D01*
G01*
X163639000Y-117013000D01*
G75*
G02*
X163489000Y-116863000I0J150000D01*
G01*
X163489000Y-116563000D01*
G75*
G02*
X163639000Y-116413000I150000J0D01*
G01*
X165389000Y-116413000D01*
G75*
G02*
X165539000Y-116563000I0J-150000D01*
G01*
G37*
G36*
G01*
X165539000Y-115293000D02*
X165539000Y-115593000D01*
G75*
G02*
X165389000Y-115743000I-150000J0D01*
G01*
X163639000Y-115743000D01*
G75*
G02*
X163489000Y-115593000I0J150000D01*
G01*
X163489000Y-115293000D01*
G75*
G02*
X163639000Y-115143000I150000J0D01*
G01*
X165389000Y-115143000D01*
G75*
G02*
X165539000Y-115293000I0J-150000D01*
G01*
G37*
G36*
G01*
X165539000Y-114023000D02*
X165539000Y-114323000D01*
G75*
G02*
X165389000Y-114473000I-150000J0D01*
G01*
X163639000Y-114473000D01*
G75*
G02*
X163489000Y-114323000I0J150000D01*
G01*
X163489000Y-114023000D01*
G75*
G02*
X163639000Y-113873000I150000J0D01*
G01*
X165389000Y-113873000D01*
G75*
G02*
X165539000Y-114023000I0J-150000D01*
G01*
G37*
G36*
G01*
X165539000Y-112753000D02*
X165539000Y-113053000D01*
G75*
G02*
X165389000Y-113203000I-150000J0D01*
G01*
X163639000Y-113203000D01*
G75*
G02*
X163489000Y-113053000I0J150000D01*
G01*
X163489000Y-112753000D01*
G75*
G02*
X163639000Y-112603000I150000J0D01*
G01*
X165389000Y-112603000D01*
G75*
G02*
X165539000Y-112753000I0J-150000D01*
G01*
G37*
G36*
G01*
X165539000Y-111483000D02*
X165539000Y-111783000D01*
G75*
G02*
X165389000Y-111933000I-150000J0D01*
G01*
X163639000Y-111933000D01*
G75*
G02*
X163489000Y-111783000I0J150000D01*
G01*
X163489000Y-111483000D01*
G75*
G02*
X163639000Y-111333000I150000J0D01*
G01*
X165389000Y-111333000D01*
G75*
G02*
X165539000Y-111483000I0J-150000D01*
G01*
G37*
G36*
G01*
X165539000Y-110213000D02*
X165539000Y-110513000D01*
G75*
G02*
X165389000Y-110663000I-150000J0D01*
G01*
X163639000Y-110663000D01*
G75*
G02*
X163489000Y-110513000I0J150000D01*
G01*
X163489000Y-110213000D01*
G75*
G02*
X163639000Y-110063000I150000J0D01*
G01*
X165389000Y-110063000D01*
G75*
G02*
X165539000Y-110213000I0J-150000D01*
G01*
G37*
G36*
G01*
X165539000Y-108943000D02*
X165539000Y-109243000D01*
G75*
G02*
X165389000Y-109393000I-150000J0D01*
G01*
X163639000Y-109393000D01*
G75*
G02*
X163489000Y-109243000I0J150000D01*
G01*
X163489000Y-108943000D01*
G75*
G02*
X163639000Y-108793000I150000J0D01*
G01*
X165389000Y-108793000D01*
G75*
G02*
X165539000Y-108943000I0J-150000D01*
G01*
G37*
G36*
G01*
X165539000Y-107673000D02*
X165539000Y-107973000D01*
G75*
G02*
X165389000Y-108123000I-150000J0D01*
G01*
X163639000Y-108123000D01*
G75*
G02*
X163489000Y-107973000I0J150000D01*
G01*
X163489000Y-107673000D01*
G75*
G02*
X163639000Y-107523000I150000J0D01*
G01*
X165389000Y-107523000D01*
G75*
G02*
X165539000Y-107673000I0J-150000D01*
G01*
G37*
G36*
G01*
X165539000Y-106403000D02*
X165539000Y-106703000D01*
G75*
G02*
X165389000Y-106853000I-150000J0D01*
G01*
X163639000Y-106853000D01*
G75*
G02*
X163489000Y-106703000I0J150000D01*
G01*
X163489000Y-106403000D01*
G75*
G02*
X163639000Y-106253000I150000J0D01*
G01*
X165389000Y-106253000D01*
G75*
G02*
X165539000Y-106403000I0J-150000D01*
G01*
G37*
G36*
G01*
X174839000Y-106403000D02*
X174839000Y-106703000D01*
G75*
G02*
X174689000Y-106853000I-150000J0D01*
G01*
X172939000Y-106853000D01*
G75*
G02*
X172789000Y-106703000I0J150000D01*
G01*
X172789000Y-106403000D01*
G75*
G02*
X172939000Y-106253000I150000J0D01*
G01*
X174689000Y-106253000D01*
G75*
G02*
X174839000Y-106403000I0J-150000D01*
G01*
G37*
G36*
G01*
X174839000Y-107673000D02*
X174839000Y-107973000D01*
G75*
G02*
X174689000Y-108123000I-150000J0D01*
G01*
X172939000Y-108123000D01*
G75*
G02*
X172789000Y-107973000I0J150000D01*
G01*
X172789000Y-107673000D01*
G75*
G02*
X172939000Y-107523000I150000J0D01*
G01*
X174689000Y-107523000D01*
G75*
G02*
X174839000Y-107673000I0J-150000D01*
G01*
G37*
G36*
G01*
X174839000Y-108943000D02*
X174839000Y-109243000D01*
G75*
G02*
X174689000Y-109393000I-150000J0D01*
G01*
X172939000Y-109393000D01*
G75*
G02*
X172789000Y-109243000I0J150000D01*
G01*
X172789000Y-108943000D01*
G75*
G02*
X172939000Y-108793000I150000J0D01*
G01*
X174689000Y-108793000D01*
G75*
G02*
X174839000Y-108943000I0J-150000D01*
G01*
G37*
G36*
G01*
X174839000Y-110213000D02*
X174839000Y-110513000D01*
G75*
G02*
X174689000Y-110663000I-150000J0D01*
G01*
X172939000Y-110663000D01*
G75*
G02*
X172789000Y-110513000I0J150000D01*
G01*
X172789000Y-110213000D01*
G75*
G02*
X172939000Y-110063000I150000J0D01*
G01*
X174689000Y-110063000D01*
G75*
G02*
X174839000Y-110213000I0J-150000D01*
G01*
G37*
G36*
G01*
X174839000Y-111483000D02*
X174839000Y-111783000D01*
G75*
G02*
X174689000Y-111933000I-150000J0D01*
G01*
X172939000Y-111933000D01*
G75*
G02*
X172789000Y-111783000I0J150000D01*
G01*
X172789000Y-111483000D01*
G75*
G02*
X172939000Y-111333000I150000J0D01*
G01*
X174689000Y-111333000D01*
G75*
G02*
X174839000Y-111483000I0J-150000D01*
G01*
G37*
G36*
G01*
X174839000Y-112753000D02*
X174839000Y-113053000D01*
G75*
G02*
X174689000Y-113203000I-150000J0D01*
G01*
X172939000Y-113203000D01*
G75*
G02*
X172789000Y-113053000I0J150000D01*
G01*
X172789000Y-112753000D01*
G75*
G02*
X172939000Y-112603000I150000J0D01*
G01*
X174689000Y-112603000D01*
G75*
G02*
X174839000Y-112753000I0J-150000D01*
G01*
G37*
G36*
G01*
X174839000Y-114023000D02*
X174839000Y-114323000D01*
G75*
G02*
X174689000Y-114473000I-150000J0D01*
G01*
X172939000Y-114473000D01*
G75*
G02*
X172789000Y-114323000I0J150000D01*
G01*
X172789000Y-114023000D01*
G75*
G02*
X172939000Y-113873000I150000J0D01*
G01*
X174689000Y-113873000D01*
G75*
G02*
X174839000Y-114023000I0J-150000D01*
G01*
G37*
G36*
G01*
X174839000Y-115293000D02*
X174839000Y-115593000D01*
G75*
G02*
X174689000Y-115743000I-150000J0D01*
G01*
X172939000Y-115743000D01*
G75*
G02*
X172789000Y-115593000I0J150000D01*
G01*
X172789000Y-115293000D01*
G75*
G02*
X172939000Y-115143000I150000J0D01*
G01*
X174689000Y-115143000D01*
G75*
G02*
X174839000Y-115293000I0J-150000D01*
G01*
G37*
G36*
G01*
X174839000Y-116563000D02*
X174839000Y-116863000D01*
G75*
G02*
X174689000Y-117013000I-150000J0D01*
G01*
X172939000Y-117013000D01*
G75*
G02*
X172789000Y-116863000I0J150000D01*
G01*
X172789000Y-116563000D01*
G75*
G02*
X172939000Y-116413000I150000J0D01*
G01*
X174689000Y-116413000D01*
G75*
G02*
X174839000Y-116563000I0J-150000D01*
G01*
G37*
G36*
G01*
X174839000Y-117833000D02*
X174839000Y-118133000D01*
G75*
G02*
X174689000Y-118283000I-150000J0D01*
G01*
X172939000Y-118283000D01*
G75*
G02*
X172789000Y-118133000I0J150000D01*
G01*
X172789000Y-117833000D01*
G75*
G02*
X172939000Y-117683000I150000J0D01*
G01*
X174689000Y-117683000D01*
G75*
G02*
X174839000Y-117833000I0J-150000D01*
G01*
G37*
%TD*%
D15*
%TO.C,U4*%
X114935000Y-48006000D03*
X107315000Y-68326000D03*
X114935000Y-50546000D03*
X107315000Y-65786000D03*
X114935000Y-53086000D03*
X107315000Y-63246000D03*
X114935000Y-55626000D03*
X107315000Y-60706000D03*
X114935000Y-58166000D03*
X107315000Y-58166000D03*
X114935000Y-60706000D03*
X107315000Y-55626000D03*
X114935000Y-63246000D03*
X107315000Y-53086000D03*
X114935000Y-65786000D03*
X107315000Y-50546000D03*
X114935000Y-68326000D03*
D16*
X107315000Y-48006000D03*
%TD*%
%TO.C,U3*%
G36*
G01*
X165539000Y-135867000D02*
X165539000Y-136167000D01*
G75*
G02*
X165389000Y-136317000I-150000J0D01*
G01*
X163639000Y-136317000D01*
G75*
G02*
X163489000Y-136167000I0J150000D01*
G01*
X163489000Y-135867000D01*
G75*
G02*
X163639000Y-135717000I150000J0D01*
G01*
X165389000Y-135717000D01*
G75*
G02*
X165539000Y-135867000I0J-150000D01*
G01*
G37*
G36*
G01*
X165539000Y-134597000D02*
X165539000Y-134897000D01*
G75*
G02*
X165389000Y-135047000I-150000J0D01*
G01*
X163639000Y-135047000D01*
G75*
G02*
X163489000Y-134897000I0J150000D01*
G01*
X163489000Y-134597000D01*
G75*
G02*
X163639000Y-134447000I150000J0D01*
G01*
X165389000Y-134447000D01*
G75*
G02*
X165539000Y-134597000I0J-150000D01*
G01*
G37*
G36*
G01*
X165539000Y-133327000D02*
X165539000Y-133627000D01*
G75*
G02*
X165389000Y-133777000I-150000J0D01*
G01*
X163639000Y-133777000D01*
G75*
G02*
X163489000Y-133627000I0J150000D01*
G01*
X163489000Y-133327000D01*
G75*
G02*
X163639000Y-133177000I150000J0D01*
G01*
X165389000Y-133177000D01*
G75*
G02*
X165539000Y-133327000I0J-150000D01*
G01*
G37*
G36*
G01*
X165539000Y-132057000D02*
X165539000Y-132357000D01*
G75*
G02*
X165389000Y-132507000I-150000J0D01*
G01*
X163639000Y-132507000D01*
G75*
G02*
X163489000Y-132357000I0J150000D01*
G01*
X163489000Y-132057000D01*
G75*
G02*
X163639000Y-131907000I150000J0D01*
G01*
X165389000Y-131907000D01*
G75*
G02*
X165539000Y-132057000I0J-150000D01*
G01*
G37*
G36*
G01*
X165539000Y-130787000D02*
X165539000Y-131087000D01*
G75*
G02*
X165389000Y-131237000I-150000J0D01*
G01*
X163639000Y-131237000D01*
G75*
G02*
X163489000Y-131087000I0J150000D01*
G01*
X163489000Y-130787000D01*
G75*
G02*
X163639000Y-130637000I150000J0D01*
G01*
X165389000Y-130637000D01*
G75*
G02*
X165539000Y-130787000I0J-150000D01*
G01*
G37*
G36*
G01*
X165539000Y-129517000D02*
X165539000Y-129817000D01*
G75*
G02*
X165389000Y-129967000I-150000J0D01*
G01*
X163639000Y-129967000D01*
G75*
G02*
X163489000Y-129817000I0J150000D01*
G01*
X163489000Y-129517000D01*
G75*
G02*
X163639000Y-129367000I150000J0D01*
G01*
X165389000Y-129367000D01*
G75*
G02*
X165539000Y-129517000I0J-150000D01*
G01*
G37*
G36*
G01*
X165539000Y-128247000D02*
X165539000Y-128547000D01*
G75*
G02*
X165389000Y-128697000I-150000J0D01*
G01*
X163639000Y-128697000D01*
G75*
G02*
X163489000Y-128547000I0J150000D01*
G01*
X163489000Y-128247000D01*
G75*
G02*
X163639000Y-128097000I150000J0D01*
G01*
X165389000Y-128097000D01*
G75*
G02*
X165539000Y-128247000I0J-150000D01*
G01*
G37*
G36*
G01*
X165539000Y-126977000D02*
X165539000Y-127277000D01*
G75*
G02*
X165389000Y-127427000I-150000J0D01*
G01*
X163639000Y-127427000D01*
G75*
G02*
X163489000Y-127277000I0J150000D01*
G01*
X163489000Y-126977000D01*
G75*
G02*
X163639000Y-126827000I150000J0D01*
G01*
X165389000Y-126827000D01*
G75*
G02*
X165539000Y-126977000I0J-150000D01*
G01*
G37*
G36*
G01*
X165539000Y-125707000D02*
X165539000Y-126007000D01*
G75*
G02*
X165389000Y-126157000I-150000J0D01*
G01*
X163639000Y-126157000D01*
G75*
G02*
X163489000Y-126007000I0J150000D01*
G01*
X163489000Y-125707000D01*
G75*
G02*
X163639000Y-125557000I150000J0D01*
G01*
X165389000Y-125557000D01*
G75*
G02*
X165539000Y-125707000I0J-150000D01*
G01*
G37*
G36*
G01*
X165539000Y-124437000D02*
X165539000Y-124737000D01*
G75*
G02*
X165389000Y-124887000I-150000J0D01*
G01*
X163639000Y-124887000D01*
G75*
G02*
X163489000Y-124737000I0J150000D01*
G01*
X163489000Y-124437000D01*
G75*
G02*
X163639000Y-124287000I150000J0D01*
G01*
X165389000Y-124287000D01*
G75*
G02*
X165539000Y-124437000I0J-150000D01*
G01*
G37*
G36*
G01*
X174839000Y-124437000D02*
X174839000Y-124737000D01*
G75*
G02*
X174689000Y-124887000I-150000J0D01*
G01*
X172939000Y-124887000D01*
G75*
G02*
X172789000Y-124737000I0J150000D01*
G01*
X172789000Y-124437000D01*
G75*
G02*
X172939000Y-124287000I150000J0D01*
G01*
X174689000Y-124287000D01*
G75*
G02*
X174839000Y-124437000I0J-150000D01*
G01*
G37*
G36*
G01*
X174839000Y-125707000D02*
X174839000Y-126007000D01*
G75*
G02*
X174689000Y-126157000I-150000J0D01*
G01*
X172939000Y-126157000D01*
G75*
G02*
X172789000Y-126007000I0J150000D01*
G01*
X172789000Y-125707000D01*
G75*
G02*
X172939000Y-125557000I150000J0D01*
G01*
X174689000Y-125557000D01*
G75*
G02*
X174839000Y-125707000I0J-150000D01*
G01*
G37*
G36*
G01*
X174839000Y-126977000D02*
X174839000Y-127277000D01*
G75*
G02*
X174689000Y-127427000I-150000J0D01*
G01*
X172939000Y-127427000D01*
G75*
G02*
X172789000Y-127277000I0J150000D01*
G01*
X172789000Y-126977000D01*
G75*
G02*
X172939000Y-126827000I150000J0D01*
G01*
X174689000Y-126827000D01*
G75*
G02*
X174839000Y-126977000I0J-150000D01*
G01*
G37*
G36*
G01*
X174839000Y-128247000D02*
X174839000Y-128547000D01*
G75*
G02*
X174689000Y-128697000I-150000J0D01*
G01*
X172939000Y-128697000D01*
G75*
G02*
X172789000Y-128547000I0J150000D01*
G01*
X172789000Y-128247000D01*
G75*
G02*
X172939000Y-128097000I150000J0D01*
G01*
X174689000Y-128097000D01*
G75*
G02*
X174839000Y-128247000I0J-150000D01*
G01*
G37*
G36*
G01*
X174839000Y-129517000D02*
X174839000Y-129817000D01*
G75*
G02*
X174689000Y-129967000I-150000J0D01*
G01*
X172939000Y-129967000D01*
G75*
G02*
X172789000Y-129817000I0J150000D01*
G01*
X172789000Y-129517000D01*
G75*
G02*
X172939000Y-129367000I150000J0D01*
G01*
X174689000Y-129367000D01*
G75*
G02*
X174839000Y-129517000I0J-150000D01*
G01*
G37*
G36*
G01*
X174839000Y-130787000D02*
X174839000Y-131087000D01*
G75*
G02*
X174689000Y-131237000I-150000J0D01*
G01*
X172939000Y-131237000D01*
G75*
G02*
X172789000Y-131087000I0J150000D01*
G01*
X172789000Y-130787000D01*
G75*
G02*
X172939000Y-130637000I150000J0D01*
G01*
X174689000Y-130637000D01*
G75*
G02*
X174839000Y-130787000I0J-150000D01*
G01*
G37*
G36*
G01*
X174839000Y-132057000D02*
X174839000Y-132357000D01*
G75*
G02*
X174689000Y-132507000I-150000J0D01*
G01*
X172939000Y-132507000D01*
G75*
G02*
X172789000Y-132357000I0J150000D01*
G01*
X172789000Y-132057000D01*
G75*
G02*
X172939000Y-131907000I150000J0D01*
G01*
X174689000Y-131907000D01*
G75*
G02*
X174839000Y-132057000I0J-150000D01*
G01*
G37*
G36*
G01*
X174839000Y-133327000D02*
X174839000Y-133627000D01*
G75*
G02*
X174689000Y-133777000I-150000J0D01*
G01*
X172939000Y-133777000D01*
G75*
G02*
X172789000Y-133627000I0J150000D01*
G01*
X172789000Y-133327000D01*
G75*
G02*
X172939000Y-133177000I150000J0D01*
G01*
X174689000Y-133177000D01*
G75*
G02*
X174839000Y-133327000I0J-150000D01*
G01*
G37*
G36*
G01*
X174839000Y-134597000D02*
X174839000Y-134897000D01*
G75*
G02*
X174689000Y-135047000I-150000J0D01*
G01*
X172939000Y-135047000D01*
G75*
G02*
X172789000Y-134897000I0J150000D01*
G01*
X172789000Y-134597000D01*
G75*
G02*
X172939000Y-134447000I150000J0D01*
G01*
X174689000Y-134447000D01*
G75*
G02*
X174839000Y-134597000I0J-150000D01*
G01*
G37*
G36*
G01*
X174839000Y-135867000D02*
X174839000Y-136167000D01*
G75*
G02*
X174689000Y-136317000I-150000J0D01*
G01*
X172939000Y-136317000D01*
G75*
G02*
X172789000Y-136167000I0J150000D01*
G01*
X172789000Y-135867000D01*
G75*
G02*
X172939000Y-135717000I150000J0D01*
G01*
X174689000Y-135717000D01*
G75*
G02*
X174839000Y-135867000I0J-150000D01*
G01*
G37*
%TD*%
D15*
%TO.C,U2*%
X128778000Y-48006000D03*
X121158000Y-68326000D03*
X128778000Y-50546000D03*
X121158000Y-65786000D03*
X128778000Y-53086000D03*
X121158000Y-63246000D03*
X128778000Y-55626000D03*
X121158000Y-60706000D03*
X128778000Y-58166000D03*
X121158000Y-58166000D03*
X128778000Y-60706000D03*
X121158000Y-55626000D03*
X128778000Y-63246000D03*
X121158000Y-53086000D03*
X128778000Y-65786000D03*
X121158000Y-50546000D03*
X128778000Y-68326000D03*
D16*
X121158000Y-48006000D03*
%TD*%
D21*
%TO.C,U1*%
X144780000Y-96393000D03*
X144780000Y-98933000D03*
X144780000Y-101473000D03*
X144780000Y-104013000D03*
X144780000Y-106553000D03*
X144780000Y-109093000D03*
X144780000Y-111633000D03*
X144780000Y-114173000D03*
X144780000Y-116713000D03*
X144780000Y-119253000D03*
X142240000Y-96393000D03*
X142240000Y-98933000D03*
X142240000Y-101473000D03*
X142240000Y-104013000D03*
X142240000Y-106553000D03*
X142240000Y-109093000D03*
X142240000Y-111633000D03*
X142240000Y-114173000D03*
X142240000Y-116713000D03*
X142240000Y-119253000D03*
X142240000Y-121793000D03*
X139700000Y-121793000D03*
X137160000Y-121793000D03*
X134620000Y-121793000D03*
X132080000Y-121793000D03*
X129540000Y-121793000D03*
X127000000Y-121793000D03*
X124460000Y-121793000D03*
X121920000Y-121793000D03*
X119380000Y-121793000D03*
X116840000Y-121793000D03*
X139700000Y-119253000D03*
X137160000Y-119253000D03*
X134620000Y-119253000D03*
X132080000Y-119253000D03*
X129540000Y-119253000D03*
X127000000Y-119253000D03*
X124460000Y-119253000D03*
X121920000Y-119253000D03*
X119380000Y-119253000D03*
X116840000Y-119253000D03*
X114300000Y-119253000D03*
X114300000Y-116713000D03*
X114300000Y-114173000D03*
X114300000Y-111633000D03*
X114300000Y-109093000D03*
X114300000Y-106553000D03*
X114300000Y-104013000D03*
X114300000Y-101473000D03*
X114300000Y-98933000D03*
X114300000Y-96393000D03*
X114300000Y-93853000D03*
X116840000Y-116713000D03*
X116840000Y-114173000D03*
X116840000Y-111633000D03*
X116840000Y-109093000D03*
X116840000Y-106553000D03*
X116840000Y-104013000D03*
X116840000Y-101473000D03*
X116840000Y-98933000D03*
X116840000Y-96393000D03*
X116840000Y-93853000D03*
X142240000Y-91313000D03*
X139700000Y-91313000D03*
X137160000Y-91313000D03*
X134620000Y-91313000D03*
X132080000Y-91313000D03*
X116840000Y-91313000D03*
X119380000Y-91313000D03*
X121920000Y-91313000D03*
X124460000Y-91313000D03*
X127000000Y-91313000D03*
D22*
X129540000Y-91313000D03*
D21*
X144780000Y-93853000D03*
X142240000Y-93853000D03*
X139700000Y-93853000D03*
X137160000Y-93853000D03*
X134620000Y-93853000D03*
X132080000Y-93853000D03*
X119380000Y-93853000D03*
X121920000Y-93853000D03*
X124460000Y-93853000D03*
X127000000Y-93853000D03*
X129540000Y-93853000D03*
%TD*%
D23*
%TO.C,TP98*%
X159385000Y-72136000D03*
%TD*%
%TO.C,TP97*%
X161798000Y-49911000D03*
%TD*%
%TO.C,R15*%
G36*
G01*
X161347999Y-69996000D02*
X162248001Y-69996000D01*
G75*
G02*
X162498000Y-70245999I0J-249999D01*
G01*
X162498000Y-70771001D01*
G75*
G02*
X162248001Y-71021000I-249999J0D01*
G01*
X161347999Y-71021000D01*
G75*
G02*
X161098000Y-70771001I0J249999D01*
G01*
X161098000Y-70245999D01*
G75*
G02*
X161347999Y-69996000I249999J0D01*
G01*
G37*
G36*
G01*
X161347999Y-68171000D02*
X162248001Y-68171000D01*
G75*
G02*
X162498000Y-68420999I0J-249999D01*
G01*
X162498000Y-68946001D01*
G75*
G02*
X162248001Y-69196000I-249999J0D01*
G01*
X161347999Y-69196000D01*
G75*
G02*
X161098000Y-68946001I0J249999D01*
G01*
X161098000Y-68420999D01*
G75*
G02*
X161347999Y-68171000I249999J0D01*
G01*
G37*
%TD*%
%TO.C,R14*%
G36*
G01*
X162248001Y-53448000D02*
X161347999Y-53448000D01*
G75*
G02*
X161098000Y-53198001I0J249999D01*
G01*
X161098000Y-52672999D01*
G75*
G02*
X161347999Y-52423000I249999J0D01*
G01*
X162248001Y-52423000D01*
G75*
G02*
X162498000Y-52672999I0J-249999D01*
G01*
X162498000Y-53198001D01*
G75*
G02*
X162248001Y-53448000I-249999J0D01*
G01*
G37*
G36*
G01*
X162248001Y-55273000D02*
X161347999Y-55273000D01*
G75*
G02*
X161098000Y-55023001I0J249999D01*
G01*
X161098000Y-54497999D01*
G75*
G02*
X161347999Y-54248000I249999J0D01*
G01*
X162248001Y-54248000D01*
G75*
G02*
X162498000Y-54497999I0J-249999D01*
G01*
X162498000Y-55023001D01*
G75*
G02*
X162248001Y-55273000I-249999J0D01*
G01*
G37*
%TD*%
%TO.C,R1*%
G36*
G01*
X174874500Y-51504001D02*
X174874500Y-50603999D01*
G75*
G02*
X175124499Y-50354000I249999J0D01*
G01*
X175649501Y-50354000D01*
G75*
G02*
X175899500Y-50603999I0J-249999D01*
G01*
X175899500Y-51504001D01*
G75*
G02*
X175649501Y-51754000I-249999J0D01*
G01*
X175124499Y-51754000D01*
G75*
G02*
X174874500Y-51504001I0J249999D01*
G01*
G37*
G36*
G01*
X173049500Y-51504001D02*
X173049500Y-50603999D01*
G75*
G02*
X173299499Y-50354000I249999J0D01*
G01*
X173824501Y-50354000D01*
G75*
G02*
X174074500Y-50603999I0J-249999D01*
G01*
X174074500Y-51504001D01*
G75*
G02*
X173824501Y-51754000I-249999J0D01*
G01*
X173299499Y-51754000D01*
G75*
G02*
X173049500Y-51504001I0J249999D01*
G01*
G37*
%TD*%
D24*
%TO.C,H4*%
X92456000Y-144780000D03*
%TD*%
%TO.C,H3*%
X92646500Y-35052000D03*
%TD*%
%TO.C,H2*%
X185674000Y-35052000D03*
%TD*%
%TO.C,H1*%
X185674000Y-144780000D03*
%TD*%
%TO.C,D1*%
G36*
G01*
X178549000Y-50429000D02*
X178549000Y-51679000D01*
G75*
G02*
X178299000Y-51929000I-250000J0D01*
G01*
X177549000Y-51929000D01*
G75*
G02*
X177299000Y-51679000I0J250000D01*
G01*
X177299000Y-50429000D01*
G75*
G02*
X177549000Y-50179000I250000J0D01*
G01*
X178299000Y-50179000D01*
G75*
G02*
X178549000Y-50429000I0J-250000D01*
G01*
G37*
G36*
G01*
X181349000Y-50429000D02*
X181349000Y-51679000D01*
G75*
G02*
X181099000Y-51929000I-250000J0D01*
G01*
X180349000Y-51929000D01*
G75*
G02*
X180099000Y-51679000I0J250000D01*
G01*
X180099000Y-50429000D01*
G75*
G02*
X180349000Y-50179000I250000J0D01*
G01*
X181099000Y-50179000D01*
G75*
G02*
X181349000Y-50429000I0J-250000D01*
G01*
G37*
%TD*%
%TO.C,C4*%
G36*
G01*
X165804000Y-120617000D02*
X165804000Y-119667000D01*
G75*
G02*
X166054000Y-119417000I250000J0D01*
G01*
X166554000Y-119417000D01*
G75*
G02*
X166804000Y-119667000I0J-250000D01*
G01*
X166804000Y-120617000D01*
G75*
G02*
X166554000Y-120867000I-250000J0D01*
G01*
X166054000Y-120867000D01*
G75*
G02*
X165804000Y-120617000I0J250000D01*
G01*
G37*
G36*
G01*
X163904000Y-120617000D02*
X163904000Y-119667000D01*
G75*
G02*
X164154000Y-119417000I250000J0D01*
G01*
X164654000Y-119417000D01*
G75*
G02*
X164904000Y-119667000I0J-250000D01*
G01*
X164904000Y-120617000D01*
G75*
G02*
X164654000Y-120867000I-250000J0D01*
G01*
X164154000Y-120867000D01*
G75*
G02*
X163904000Y-120617000I0J250000D01*
G01*
G37*
%TD*%
%TO.C,C3*%
G36*
G01*
X166058000Y-138651000D02*
X166058000Y-137701000D01*
G75*
G02*
X166308000Y-137451000I250000J0D01*
G01*
X166808000Y-137451000D01*
G75*
G02*
X167058000Y-137701000I0J-250000D01*
G01*
X167058000Y-138651000D01*
G75*
G02*
X166808000Y-138901000I-250000J0D01*
G01*
X166308000Y-138901000D01*
G75*
G02*
X166058000Y-138651000I0J250000D01*
G01*
G37*
G36*
G01*
X164158000Y-138651000D02*
X164158000Y-137701000D01*
G75*
G02*
X164408000Y-137451000I250000J0D01*
G01*
X164908000Y-137451000D01*
G75*
G02*
X165158000Y-137701000I0J-250000D01*
G01*
X165158000Y-138651000D01*
G75*
G02*
X164908000Y-138901000I-250000J0D01*
G01*
X164408000Y-138901000D01*
G75*
G02*
X164158000Y-138651000I0J250000D01*
G01*
G37*
%TD*%
%TO.C,C1*%
G36*
G01*
X177477000Y-54897000D02*
X177477000Y-55847000D01*
G75*
G02*
X177227000Y-56097000I-250000J0D01*
G01*
X176727000Y-56097000D01*
G75*
G02*
X176477000Y-55847000I0J250000D01*
G01*
X176477000Y-54897000D01*
G75*
G02*
X176727000Y-54647000I250000J0D01*
G01*
X177227000Y-54647000D01*
G75*
G02*
X177477000Y-54897000I0J-250000D01*
G01*
G37*
G36*
G01*
X179377000Y-54897000D02*
X179377000Y-55847000D01*
G75*
G02*
X179127000Y-56097000I-250000J0D01*
G01*
X178627000Y-56097000D01*
G75*
G02*
X178377000Y-55847000I0J250000D01*
G01*
X178377000Y-54897000D01*
G75*
G02*
X178627000Y-54647000I250000J0D01*
G01*
X179127000Y-54647000D01*
G75*
G02*
X179377000Y-54897000I0J-250000D01*
G01*
G37*
%TD*%
M02*
