%TF.GenerationSoftware,KiCad,Pcbnew,(5.1.10)-1*%
%TF.CreationDate,2021-06-15T10:48:06-05:00*%
%TF.ProjectId,gd MegaII proto pcb,6764204d-6567-4614-9949-2070726f746f,rev?*%
%TF.SameCoordinates,Original*%
%TF.FileFunction,Paste,Bot*%
%TF.FilePolarity,Positive*%
%FSLAX46Y46*%
G04 Gerber Fmt 4.6, Leading zero omitted, Abs format (unit mm)*
G04 Created by KiCad (PCBNEW (5.1.10)-1) date 2021-06-15 10:48:06*
%MOMM*%
%LPD*%
G01*
G04 APERTURE LIST*
%ADD10R,0.640000X0.700000*%
%ADD11R,0.500000X0.700000*%
%ADD12R,0.700000X0.640000*%
%ADD13R,0.700000X0.500000*%
G04 APERTURE END LIST*
%TO.C,C10*%
G36*
G01*
X143198000Y-87343000D02*
X143198000Y-86393000D01*
G75*
G02*
X143448000Y-86143000I250000J0D01*
G01*
X143948000Y-86143000D01*
G75*
G02*
X144198000Y-86393000I0J-250000D01*
G01*
X144198000Y-87343000D01*
G75*
G02*
X143948000Y-87593000I-250000J0D01*
G01*
X143448000Y-87593000D01*
G75*
G02*
X143198000Y-87343000I0J250000D01*
G01*
G37*
G36*
G01*
X141298000Y-87343000D02*
X141298000Y-86393000D01*
G75*
G02*
X141548000Y-86143000I250000J0D01*
G01*
X142048000Y-86143000D01*
G75*
G02*
X142298000Y-86393000I0J-250000D01*
G01*
X142298000Y-87343000D01*
G75*
G02*
X142048000Y-87593000I-250000J0D01*
G01*
X141548000Y-87593000D01*
G75*
G02*
X141298000Y-87343000I0J250000D01*
G01*
G37*
%TD*%
D10*
%TO.C,RN9*%
X130810000Y-72452000D03*
D11*
X131680000Y-72452000D03*
D10*
X133350000Y-72452000D03*
D11*
X132480000Y-72452000D03*
D10*
X130810000Y-73852000D03*
D11*
X132480000Y-73852000D03*
X131680000Y-73852000D03*
D10*
X133350000Y-73852000D03*
%TD*%
D12*
%TO.C,RN5*%
X169610000Y-132334000D03*
D13*
X169610000Y-134004000D03*
X169610000Y-133204000D03*
D12*
X169610000Y-134874000D03*
D13*
X168210000Y-133204000D03*
D12*
X168210000Y-132334000D03*
D13*
X168210000Y-134004000D03*
D12*
X168210000Y-134874000D03*
%TD*%
%TO.C,RN4*%
X170118000Y-114300000D03*
D13*
X170118000Y-115970000D03*
X170118000Y-115170000D03*
D12*
X170118000Y-116840000D03*
D13*
X168718000Y-115170000D03*
D12*
X168718000Y-114300000D03*
D13*
X168718000Y-115970000D03*
D12*
X168718000Y-116840000D03*
%TD*%
%TO.C,RN2*%
X169610000Y-127000000D03*
D13*
X169610000Y-128670000D03*
X169610000Y-127870000D03*
D12*
X169610000Y-129540000D03*
D13*
X168210000Y-127870000D03*
D12*
X168210000Y-127000000D03*
D13*
X168210000Y-128670000D03*
D12*
X168210000Y-129540000D03*
%TD*%
%TO.C,RN1*%
X170118000Y-108204000D03*
D13*
X170118000Y-109874000D03*
X170118000Y-109074000D03*
D12*
X170118000Y-110744000D03*
D13*
X168718000Y-109074000D03*
D12*
X168718000Y-108204000D03*
D13*
X168718000Y-109874000D03*
D12*
X168718000Y-110744000D03*
%TD*%
%TO.C,U8*%
G36*
G01*
X164015000Y-81765000D02*
X164015000Y-82065000D01*
G75*
G02*
X163865000Y-82215000I-150000J0D01*
G01*
X162115000Y-82215000D01*
G75*
G02*
X161965000Y-82065000I0J150000D01*
G01*
X161965000Y-81765000D01*
G75*
G02*
X162115000Y-81615000I150000J0D01*
G01*
X163865000Y-81615000D01*
G75*
G02*
X164015000Y-81765000I0J-150000D01*
G01*
G37*
G36*
G01*
X164015000Y-83035000D02*
X164015000Y-83335000D01*
G75*
G02*
X163865000Y-83485000I-150000J0D01*
G01*
X162115000Y-83485000D01*
G75*
G02*
X161965000Y-83335000I0J150000D01*
G01*
X161965000Y-83035000D01*
G75*
G02*
X162115000Y-82885000I150000J0D01*
G01*
X163865000Y-82885000D01*
G75*
G02*
X164015000Y-83035000I0J-150000D01*
G01*
G37*
G36*
G01*
X164015000Y-84305000D02*
X164015000Y-84605000D01*
G75*
G02*
X163865000Y-84755000I-150000J0D01*
G01*
X162115000Y-84755000D01*
G75*
G02*
X161965000Y-84605000I0J150000D01*
G01*
X161965000Y-84305000D01*
G75*
G02*
X162115000Y-84155000I150000J0D01*
G01*
X163865000Y-84155000D01*
G75*
G02*
X164015000Y-84305000I0J-150000D01*
G01*
G37*
G36*
G01*
X164015000Y-85575000D02*
X164015000Y-85875000D01*
G75*
G02*
X163865000Y-86025000I-150000J0D01*
G01*
X162115000Y-86025000D01*
G75*
G02*
X161965000Y-85875000I0J150000D01*
G01*
X161965000Y-85575000D01*
G75*
G02*
X162115000Y-85425000I150000J0D01*
G01*
X163865000Y-85425000D01*
G75*
G02*
X164015000Y-85575000I0J-150000D01*
G01*
G37*
G36*
G01*
X164015000Y-86845000D02*
X164015000Y-87145000D01*
G75*
G02*
X163865000Y-87295000I-150000J0D01*
G01*
X162115000Y-87295000D01*
G75*
G02*
X161965000Y-87145000I0J150000D01*
G01*
X161965000Y-86845000D01*
G75*
G02*
X162115000Y-86695000I150000J0D01*
G01*
X163865000Y-86695000D01*
G75*
G02*
X164015000Y-86845000I0J-150000D01*
G01*
G37*
G36*
G01*
X164015000Y-88115000D02*
X164015000Y-88415000D01*
G75*
G02*
X163865000Y-88565000I-150000J0D01*
G01*
X162115000Y-88565000D01*
G75*
G02*
X161965000Y-88415000I0J150000D01*
G01*
X161965000Y-88115000D01*
G75*
G02*
X162115000Y-87965000I150000J0D01*
G01*
X163865000Y-87965000D01*
G75*
G02*
X164015000Y-88115000I0J-150000D01*
G01*
G37*
G36*
G01*
X164015000Y-89385000D02*
X164015000Y-89685000D01*
G75*
G02*
X163865000Y-89835000I-150000J0D01*
G01*
X162115000Y-89835000D01*
G75*
G02*
X161965000Y-89685000I0J150000D01*
G01*
X161965000Y-89385000D01*
G75*
G02*
X162115000Y-89235000I150000J0D01*
G01*
X163865000Y-89235000D01*
G75*
G02*
X164015000Y-89385000I0J-150000D01*
G01*
G37*
G36*
G01*
X164015000Y-90655000D02*
X164015000Y-90955000D01*
G75*
G02*
X163865000Y-91105000I-150000J0D01*
G01*
X162115000Y-91105000D01*
G75*
G02*
X161965000Y-90955000I0J150000D01*
G01*
X161965000Y-90655000D01*
G75*
G02*
X162115000Y-90505000I150000J0D01*
G01*
X163865000Y-90505000D01*
G75*
G02*
X164015000Y-90655000I0J-150000D01*
G01*
G37*
G36*
G01*
X164015000Y-91925000D02*
X164015000Y-92225000D01*
G75*
G02*
X163865000Y-92375000I-150000J0D01*
G01*
X162115000Y-92375000D01*
G75*
G02*
X161965000Y-92225000I0J150000D01*
G01*
X161965000Y-91925000D01*
G75*
G02*
X162115000Y-91775000I150000J0D01*
G01*
X163865000Y-91775000D01*
G75*
G02*
X164015000Y-91925000I0J-150000D01*
G01*
G37*
G36*
G01*
X164015000Y-93195000D02*
X164015000Y-93495000D01*
G75*
G02*
X163865000Y-93645000I-150000J0D01*
G01*
X162115000Y-93645000D01*
G75*
G02*
X161965000Y-93495000I0J150000D01*
G01*
X161965000Y-93195000D01*
G75*
G02*
X162115000Y-93045000I150000J0D01*
G01*
X163865000Y-93045000D01*
G75*
G02*
X164015000Y-93195000I0J-150000D01*
G01*
G37*
G36*
G01*
X173315000Y-93195000D02*
X173315000Y-93495000D01*
G75*
G02*
X173165000Y-93645000I-150000J0D01*
G01*
X171415000Y-93645000D01*
G75*
G02*
X171265000Y-93495000I0J150000D01*
G01*
X171265000Y-93195000D01*
G75*
G02*
X171415000Y-93045000I150000J0D01*
G01*
X173165000Y-93045000D01*
G75*
G02*
X173315000Y-93195000I0J-150000D01*
G01*
G37*
G36*
G01*
X173315000Y-91925000D02*
X173315000Y-92225000D01*
G75*
G02*
X173165000Y-92375000I-150000J0D01*
G01*
X171415000Y-92375000D01*
G75*
G02*
X171265000Y-92225000I0J150000D01*
G01*
X171265000Y-91925000D01*
G75*
G02*
X171415000Y-91775000I150000J0D01*
G01*
X173165000Y-91775000D01*
G75*
G02*
X173315000Y-91925000I0J-150000D01*
G01*
G37*
G36*
G01*
X173315000Y-90655000D02*
X173315000Y-90955000D01*
G75*
G02*
X173165000Y-91105000I-150000J0D01*
G01*
X171415000Y-91105000D01*
G75*
G02*
X171265000Y-90955000I0J150000D01*
G01*
X171265000Y-90655000D01*
G75*
G02*
X171415000Y-90505000I150000J0D01*
G01*
X173165000Y-90505000D01*
G75*
G02*
X173315000Y-90655000I0J-150000D01*
G01*
G37*
G36*
G01*
X173315000Y-89385000D02*
X173315000Y-89685000D01*
G75*
G02*
X173165000Y-89835000I-150000J0D01*
G01*
X171415000Y-89835000D01*
G75*
G02*
X171265000Y-89685000I0J150000D01*
G01*
X171265000Y-89385000D01*
G75*
G02*
X171415000Y-89235000I150000J0D01*
G01*
X173165000Y-89235000D01*
G75*
G02*
X173315000Y-89385000I0J-150000D01*
G01*
G37*
G36*
G01*
X173315000Y-88115000D02*
X173315000Y-88415000D01*
G75*
G02*
X173165000Y-88565000I-150000J0D01*
G01*
X171415000Y-88565000D01*
G75*
G02*
X171265000Y-88415000I0J150000D01*
G01*
X171265000Y-88115000D01*
G75*
G02*
X171415000Y-87965000I150000J0D01*
G01*
X173165000Y-87965000D01*
G75*
G02*
X173315000Y-88115000I0J-150000D01*
G01*
G37*
G36*
G01*
X173315000Y-86845000D02*
X173315000Y-87145000D01*
G75*
G02*
X173165000Y-87295000I-150000J0D01*
G01*
X171415000Y-87295000D01*
G75*
G02*
X171265000Y-87145000I0J150000D01*
G01*
X171265000Y-86845000D01*
G75*
G02*
X171415000Y-86695000I150000J0D01*
G01*
X173165000Y-86695000D01*
G75*
G02*
X173315000Y-86845000I0J-150000D01*
G01*
G37*
G36*
G01*
X173315000Y-85575000D02*
X173315000Y-85875000D01*
G75*
G02*
X173165000Y-86025000I-150000J0D01*
G01*
X171415000Y-86025000D01*
G75*
G02*
X171265000Y-85875000I0J150000D01*
G01*
X171265000Y-85575000D01*
G75*
G02*
X171415000Y-85425000I150000J0D01*
G01*
X173165000Y-85425000D01*
G75*
G02*
X173315000Y-85575000I0J-150000D01*
G01*
G37*
G36*
G01*
X173315000Y-84305000D02*
X173315000Y-84605000D01*
G75*
G02*
X173165000Y-84755000I-150000J0D01*
G01*
X171415000Y-84755000D01*
G75*
G02*
X171265000Y-84605000I0J150000D01*
G01*
X171265000Y-84305000D01*
G75*
G02*
X171415000Y-84155000I150000J0D01*
G01*
X173165000Y-84155000D01*
G75*
G02*
X173315000Y-84305000I0J-150000D01*
G01*
G37*
G36*
G01*
X173315000Y-83035000D02*
X173315000Y-83335000D01*
G75*
G02*
X173165000Y-83485000I-150000J0D01*
G01*
X171415000Y-83485000D01*
G75*
G02*
X171265000Y-83335000I0J150000D01*
G01*
X171265000Y-83035000D01*
G75*
G02*
X171415000Y-82885000I150000J0D01*
G01*
X173165000Y-82885000D01*
G75*
G02*
X173315000Y-83035000I0J-150000D01*
G01*
G37*
G36*
G01*
X173315000Y-81765000D02*
X173315000Y-82065000D01*
G75*
G02*
X173165000Y-82215000I-150000J0D01*
G01*
X171415000Y-82215000D01*
G75*
G02*
X171265000Y-82065000I0J150000D01*
G01*
X171265000Y-81765000D01*
G75*
G02*
X171415000Y-81615000I150000J0D01*
G01*
X173165000Y-81615000D01*
G75*
G02*
X173315000Y-81765000I0J-150000D01*
G01*
G37*
%TD*%
%TO.C,C9*%
G36*
G01*
X153104000Y-68928000D02*
X153104000Y-67978000D01*
G75*
G02*
X153354000Y-67728000I250000J0D01*
G01*
X153854000Y-67728000D01*
G75*
G02*
X154104000Y-67978000I0J-250000D01*
G01*
X154104000Y-68928000D01*
G75*
G02*
X153854000Y-69178000I-250000J0D01*
G01*
X153354000Y-69178000D01*
G75*
G02*
X153104000Y-68928000I0J250000D01*
G01*
G37*
G36*
G01*
X151204000Y-68928000D02*
X151204000Y-67978000D01*
G75*
G02*
X151454000Y-67728000I250000J0D01*
G01*
X151954000Y-67728000D01*
G75*
G02*
X152204000Y-67978000I0J-250000D01*
G01*
X152204000Y-68928000D01*
G75*
G02*
X151954000Y-69178000I-250000J0D01*
G01*
X151454000Y-69178000D01*
G75*
G02*
X151204000Y-68928000I0J250000D01*
G01*
G37*
%TD*%
%TO.C,C8*%
G36*
G01*
X165042000Y-80231000D02*
X165042000Y-79281000D01*
G75*
G02*
X165292000Y-79031000I250000J0D01*
G01*
X165792000Y-79031000D01*
G75*
G02*
X166042000Y-79281000I0J-250000D01*
G01*
X166042000Y-80231000D01*
G75*
G02*
X165792000Y-80481000I-250000J0D01*
G01*
X165292000Y-80481000D01*
G75*
G02*
X165042000Y-80231000I0J250000D01*
G01*
G37*
G36*
G01*
X163142000Y-80231000D02*
X163142000Y-79281000D01*
G75*
G02*
X163392000Y-79031000I250000J0D01*
G01*
X163892000Y-79031000D01*
G75*
G02*
X164142000Y-79281000I0J-250000D01*
G01*
X164142000Y-80231000D01*
G75*
G02*
X163892000Y-80481000I-250000J0D01*
G01*
X163392000Y-80481000D01*
G75*
G02*
X163142000Y-80231000I0J250000D01*
G01*
G37*
%TD*%
%TO.C,C7*%
G36*
G01*
X111702000Y-68801000D02*
X111702000Y-67851000D01*
G75*
G02*
X111952000Y-67601000I250000J0D01*
G01*
X112452000Y-67601000D01*
G75*
G02*
X112702000Y-67851000I0J-250000D01*
G01*
X112702000Y-68801000D01*
G75*
G02*
X112452000Y-69051000I-250000J0D01*
G01*
X111952000Y-69051000D01*
G75*
G02*
X111702000Y-68801000I0J250000D01*
G01*
G37*
G36*
G01*
X109802000Y-68801000D02*
X109802000Y-67851000D01*
G75*
G02*
X110052000Y-67601000I250000J0D01*
G01*
X110552000Y-67601000D01*
G75*
G02*
X110802000Y-67851000I0J-250000D01*
G01*
X110802000Y-68801000D01*
G75*
G02*
X110552000Y-69051000I-250000J0D01*
G01*
X110052000Y-69051000D01*
G75*
G02*
X109802000Y-68801000I0J250000D01*
G01*
G37*
%TD*%
%TO.C,C6*%
G36*
G01*
X139261000Y-68928000D02*
X139261000Y-67978000D01*
G75*
G02*
X139511000Y-67728000I250000J0D01*
G01*
X140011000Y-67728000D01*
G75*
G02*
X140261000Y-67978000I0J-250000D01*
G01*
X140261000Y-68928000D01*
G75*
G02*
X140011000Y-69178000I-250000J0D01*
G01*
X139511000Y-69178000D01*
G75*
G02*
X139261000Y-68928000I0J250000D01*
G01*
G37*
G36*
G01*
X137361000Y-68928000D02*
X137361000Y-67978000D01*
G75*
G02*
X137611000Y-67728000I250000J0D01*
G01*
X138111000Y-67728000D01*
G75*
G02*
X138361000Y-67978000I0J-250000D01*
G01*
X138361000Y-68928000D01*
G75*
G02*
X138111000Y-69178000I-250000J0D01*
G01*
X137611000Y-69178000D01*
G75*
G02*
X137361000Y-68928000I0J250000D01*
G01*
G37*
%TD*%
%TO.C,C5*%
G36*
G01*
X122624000Y-71595000D02*
X122624000Y-70645000D01*
G75*
G02*
X122874000Y-70395000I250000J0D01*
G01*
X123374000Y-70395000D01*
G75*
G02*
X123624000Y-70645000I0J-250000D01*
G01*
X123624000Y-71595000D01*
G75*
G02*
X123374000Y-71845000I-250000J0D01*
G01*
X122874000Y-71845000D01*
G75*
G02*
X122624000Y-71595000I0J250000D01*
G01*
G37*
G36*
G01*
X120724000Y-71595000D02*
X120724000Y-70645000D01*
G75*
G02*
X120974000Y-70395000I250000J0D01*
G01*
X121474000Y-70395000D01*
G75*
G02*
X121724000Y-70645000I0J-250000D01*
G01*
X121724000Y-71595000D01*
G75*
G02*
X121474000Y-71845000I-250000J0D01*
G01*
X120974000Y-71845000D01*
G75*
G02*
X120724000Y-71595000I0J250000D01*
G01*
G37*
%TD*%
M02*
