M48
; DRILL file {KiCad (5.1.10)-1} date 06/15/21 10:48:11
; FORMAT={-:-/ absolute / inch / decimal}
; #@! TF.CreationDate,2021-06-15T10:48:11-05:00
; #@! TF.GenerationSoftware,Kicad,Pcbnew,(5.1.10)-1
; #@! TF.FileFunction,Plated,1,4,PTH
FMAT,2
INCH
T1C0.0157
T2C0.0315
T3C0.0394
%
G90
G05
T1
X3.8325Y-4.73
X3.85Y-4.5875
X3.8625Y-4.4625
X3.87Y-4.3675
X3.91Y-2.09
X3.93Y-2.0
X4.0Y-5.0425
X4.005Y-5.13
X4.0225Y-4.345
X4.0225Y-4.4425
X4.025Y-4.545
X4.0326Y-2.9874
X4.0725Y-3.4625
X4.0775Y-4.095
X4.0775Y-4.2375
X4.09Y-2.0
X4.09Y-2.09
X4.1025Y-4.0
X4.125Y-4.765
X4.1875Y-3.9475
X4.255Y-3.1175
X4.3075Y-4.5725
X4.31Y-4.69
X4.3475Y-4.2375
X4.35Y-3.1175
X4.3575Y-3.2025
X4.445Y-3.1175
X4.45Y-1.72
X4.45Y-3.0
X4.5475Y-2.9825
X4.5475Y-5.4425
X4.55Y-1.72
X4.55Y-3.1175
X4.6025Y-1.6825
X4.61Y-1.98
X4.635Y-5.1625
X4.64Y-2.18
X4.6475Y-2.9825
X4.6475Y-3.1175
X4.66Y-1.98
X4.6777Y-2.13
X4.69Y-1.94
X4.75Y-2.9825
X4.75Y-3.1175
X4.77Y-5.2275
X4.8475Y-5.255
X4.85Y-2.985
X4.85Y-3.1175
X4.85Y-5.4025
X4.9Y-2.19
X4.905Y-1.815
X4.92Y-2.77
X4.935Y-5.265
X4.9475Y-3.1175
X4.95Y-2.9825
X4.96Y-2.34
X4.98Y-2.77
X5.015Y-5.28
X5.0475Y-2.9825
X5.05Y-3.1175
X5.1375Y-5.0175
X5.19Y-3.105
X5.2Y-2.71
X5.24Y-5.24
X5.25Y-2.95
X5.345Y-5.2375
X5.35Y-2.9875
X5.365Y-1.6725
X5.445Y-5.275
X5.4973Y-2.19
X5.5Y-3.44
X5.53Y-2.01
X5.5375Y-5.2875
X5.6625Y-5.0175
X5.6675Y-3.1175
X5.71Y-2.76
X5.71Y-3.42
X5.745Y-2.035
X5.7725Y-5.0175
X5.815Y-3.58
X5.815Y-3.69
X5.8625Y-1.67
X5.92Y-4.62
X5.9225Y-4.7225
X5.9225Y-4.8225
X5.925Y-4.5275
X5.95Y-2.0
X5.99Y-3.8175
X5.99Y-3.995
X6.045Y-2.05
X6.05Y-2.185
X6.0725Y-4.47
X6.08Y-2.76
X6.11Y-2.44
X6.17Y-5.0675
X6.1725Y-4.7725
X6.1725Y-4.8675
X6.1725Y-4.97
X6.175Y-4.6725
X6.1775Y-4.1575
X6.1775Y-4.2775
X6.1775Y-4.475
X6.18Y-3.755
X6.18Y-3.85
X6.18Y-3.955
X6.2Y-2.54
X6.2Y-2.64
X6.255Y-3.04
X6.28Y-2.285
X6.28Y-2.34
X6.3125Y-4.3075
X6.3175Y-4.48
X6.32Y-4.5775
X6.3225Y-5.095
X6.325Y-4.8725
X6.3352Y-2.875
X6.345Y-4.2425
X6.3525Y-4.15
X6.3573Y-5.3
X6.4Y-2.435
X6.4Y-3.16
X6.4Y-5.35
X6.405Y-2.635
X6.405Y-4.61
X6.4225Y-2.905
X6.43Y-2.2025
X6.43Y-5.44
X6.4317Y-4.7229
X6.435Y-2.085
X6.435Y-2.82
X6.46Y-2.285
X6.46Y-2.355
X6.4625Y-1.995
X6.465Y-2.515
X6.475Y-2.825
X6.49Y-2.325
X6.4925Y-2.425
X6.5Y-2.66
X6.5Y-3.51
X6.5Y-3.56
X6.51Y-2.485
X6.51Y-2.555
X6.51Y-3.61
X6.52Y-3.09
X6.5277Y-3.3175
X6.53Y-3.26
X6.53Y-3.38
X6.53Y-3.43
X6.53Y-3.66
X6.535Y-2.815
X6.545Y-2.68
X6.5773Y-2.5134
X6.58Y-4.98
X6.58Y-5.02
X6.58Y-5.06
X6.58Y-5.1
X6.58Y-5.19
X6.58Y-5.23
X6.58Y-5.27
X6.58Y-5.31
X6.5986Y-4.5294
X6.6Y-4.57
X6.6Y-4.61
X6.6Y-4.73
X6.6008Y-4.4893
X6.605Y-2.355
X6.61Y-4.25
X6.61Y-4.29
X6.61Y-4.33
X6.61Y-4.37
X6.61Y-5.44
X6.615Y-2.77
X6.635Y-2.48
X6.665Y-2.555
X6.665Y-2.675
X6.67Y-3.26
X6.67Y-3.3
X6.67Y-3.34
X6.67Y-3.38
X6.67Y-3.47
X6.67Y-3.51
X6.67Y-3.55
X6.67Y-3.59
X6.695Y-2.32
X6.7Y-2.635
X6.71Y-4.98
X6.71Y-5.07
X6.71Y-5.11
X6.7134Y-5.0214
X6.72Y-5.21
X6.72Y-5.25
X6.72Y-5.29
X6.72Y-5.33
X6.725Y-2.285
X6.73Y-2.595
X6.73Y-4.24
X6.73Y-4.29
X6.73Y-4.33
X6.73Y-4.37
X6.73Y-4.48
X6.73Y-4.6
X6.7334Y-4.5214
X6.74Y-2.42
X6.75Y-4.56
X6.765Y-2.37
X6.77Y-2.565
X6.835Y-1.95
X6.86Y-3.68
X6.905Y-2.3975
X6.905Y-2.47
X6.92Y-4.2
X6.92Y-4.675
X6.92Y-4.91
X6.925Y-5.36
X6.965Y-2.125
X7.085Y-2.18
X7.115Y-1.94
T2
X4.225Y-1.89
X4.225Y-1.99
X4.225Y-2.09
X4.225Y-2.19
X4.225Y-2.29
X4.225Y-2.39
X4.225Y-2.49
X4.225Y-2.59
X4.225Y-2.69
X4.5Y-3.695
X4.5Y-3.795
X4.5Y-3.895
X4.5Y-3.995
X4.5Y-4.095
X4.5Y-4.195
X4.5Y-4.295
X4.5Y-4.395
X4.5Y-4.495
X4.5Y-4.595
X4.5Y-4.695
X4.525Y-1.89
X4.525Y-1.99
X4.525Y-2.09
X4.525Y-2.19
X4.525Y-2.29
X4.525Y-2.39
X4.525Y-2.49
X4.525Y-2.59
X4.525Y-2.69
X4.6Y-3.595
X4.6Y-3.695
X4.6Y-3.795
X4.6Y-3.895
X4.6Y-3.995
X4.6Y-4.095
X4.6Y-4.195
X4.6Y-4.295
X4.6Y-4.395
X4.6Y-4.495
X4.6Y-4.595
X4.6Y-4.695
X4.6Y-4.795
X4.7Y-3.595
X4.7Y-3.695
X4.7Y-4.695
X4.7Y-4.795
X4.77Y-1.89
X4.77Y-1.99
X4.77Y-2.09
X4.77Y-2.19
X4.77Y-2.29
X4.77Y-2.39
X4.77Y-2.49
X4.77Y-2.59
X4.77Y-2.69
X4.8Y-3.595
X4.8Y-3.695
X4.8Y-4.695
X4.8Y-4.795
X4.9Y-3.595
X4.9Y-3.695
X4.9Y-4.695
X4.9Y-4.795
X5.0Y-3.595
X5.0Y-3.695
X5.0Y-4.695
X5.0Y-4.795
X5.07Y-1.89
X5.07Y-1.99
X5.07Y-2.09
X5.07Y-2.19
X5.07Y-2.29
X5.07Y-2.39
X5.07Y-2.49
X5.07Y-2.59
X5.07Y-2.69
X5.1Y-3.595
X5.1Y-3.695
X5.1Y-4.695
X5.1Y-4.795
X5.2Y-3.595
X5.2Y-3.695
X5.2Y-4.695
X5.2Y-4.795
X5.3Y-3.595
X5.3Y-3.695
X5.3Y-4.695
X5.3Y-4.795
X5.315Y-1.89
X5.315Y-1.99
X5.315Y-2.09
X5.315Y-2.19
X5.315Y-2.29
X5.315Y-2.39
X5.315Y-2.49
X5.315Y-2.59
X5.315Y-2.69
X5.4Y-3.595
X5.4Y-3.695
X5.4Y-4.695
X5.4Y-4.795
X5.5Y-3.595
X5.5Y-3.695
X5.5Y-4.695
X5.5Y-4.795
X5.6Y-3.595
X5.6Y-3.695
X5.6Y-3.795
X5.6Y-3.895
X5.6Y-3.995
X5.6Y-4.095
X5.6Y-4.195
X5.6Y-4.295
X5.6Y-4.395
X5.6Y-4.495
X5.6Y-4.595
X5.6Y-4.695
X5.6Y-4.795
X5.615Y-1.89
X5.615Y-1.99
X5.615Y-2.09
X5.615Y-2.19
X5.615Y-2.29
X5.615Y-2.39
X5.615Y-2.49
X5.615Y-2.59
X5.615Y-2.69
X5.7Y-3.695
X5.7Y-3.795
X5.7Y-3.895
X5.7Y-3.995
X5.7Y-4.095
X5.7Y-4.195
X5.7Y-4.295
X5.7Y-4.395
X5.7Y-4.495
X5.7Y-4.595
X5.7Y-4.695
X5.86Y-1.89
X5.86Y-1.99
X5.86Y-2.09
X5.86Y-2.19
X5.86Y-2.29
X5.86Y-2.39
X5.86Y-2.49
X5.86Y-2.59
X5.86Y-2.69
X6.16Y-1.89
X6.16Y-1.99
X6.16Y-2.09
X6.16Y-2.19
X6.16Y-2.29
X6.16Y-2.39
X6.16Y-2.49
X6.16Y-2.59
X6.16Y-2.69
X6.3531Y-1.565
X6.55Y-1.565
T3
X3.8Y-5.0
X3.8Y-5.1
X3.8Y-5.2
X3.8Y-5.3
X3.95Y-3.2
X3.95Y-3.3
X3.95Y-3.4
X3.95Y-3.5
X3.95Y-3.6
X3.95Y-3.7
X3.95Y-3.8
X3.95Y-3.9
X3.95Y-4.0
X3.95Y-4.1
X3.95Y-4.2
X3.95Y-4.3
X3.95Y-4.4
X3.95Y-4.5
X3.95Y-4.6
X3.95Y-4.7
X3.95Y-4.8
X3.95Y-4.9
X3.95Y-5.0
X3.95Y-5.1
X3.95Y-5.2
X3.95Y-5.5
X4.05Y-5.5
X4.1Y-3.04
X4.1Y-5.35
X4.15Y-5.5
X4.2Y-3.04
X4.2Y-5.35
X4.25Y-1.505
X4.25Y-1.605
X4.3Y-3.04
X4.3Y-5.35
X4.35Y-1.505
X4.35Y-1.605
X4.4Y-3.04
X4.4Y-5.35
X4.45Y-1.505
X4.45Y-1.605
X4.5Y-3.04
X4.5Y-5.35
X4.55Y-1.505
X4.55Y-1.605
X4.6Y-3.04
X4.6Y-5.35
X4.65Y-1.505
X4.65Y-1.605
X4.7Y-3.04
X4.7Y-5.35
X4.75Y-1.505
X4.75Y-1.605
X4.8Y-3.04
X4.8Y-5.35
X4.85Y-1.505
X4.85Y-1.605
X4.9Y-3.04
X4.9Y-5.35
X4.95Y-1.505
X4.95Y-1.605
X5.0Y-3.04
X5.0Y-5.35
X5.05Y-1.505
X5.05Y-1.605
X5.1Y-3.04
X5.1Y-5.35
X5.15Y-1.505
X5.15Y-1.605
X5.2Y-3.04
X5.2Y-5.35
X5.25Y-1.505
X5.25Y-1.605
X5.3Y-3.04
X5.3Y-5.35
X5.35Y-1.505
X5.35Y-1.605
X5.4Y-3.04
X5.4Y-5.35
X5.45Y-1.505
X5.45Y-1.605
X5.5Y-2.895
X5.5Y-3.04
X5.5Y-5.35
X5.55Y-1.505
X5.55Y-1.605
X5.6Y-2.895
X5.6Y-3.04
X5.6Y-5.35
X5.65Y-1.505
X5.65Y-1.605
X5.7Y-2.895
X5.7Y-3.04
X5.7Y-5.35
X5.75Y-1.505
X5.75Y-1.605
X5.8Y-2.895
X5.8Y-3.04
X5.8Y-5.35
X5.84Y-5.5
X5.85Y-1.505
X5.85Y-1.605
X5.9Y-3.04
X5.9Y-5.35
X5.94Y-5.5
X5.95Y-1.505
X5.95Y-1.605
X6.0Y-3.04
X6.0Y-5.35
X6.04Y-5.5
X6.05Y-1.505
X6.05Y-1.605
X6.1Y-3.04
X6.1Y-5.35
X6.15Y-1.505
X6.15Y-1.605
X6.25Y-3.2
X6.25Y-3.3
X6.25Y-3.4
X6.25Y-3.5
X6.25Y-3.6
X6.25Y-3.7
X6.25Y-3.8
X6.25Y-3.9
X6.25Y-4.0
X6.25Y-4.1
X6.25Y-4.2
X6.25Y-4.3
X6.25Y-4.4
X6.25Y-4.5
X6.25Y-4.6
X6.25Y-4.7
X6.25Y-4.8
X6.25Y-4.9
X6.25Y-5.0
X6.25Y-5.1
X6.25Y-5.2
X6.605Y-3.86
X6.605Y-4.005
X6.705Y-3.86
X6.705Y-4.005
X6.8Y-1.45
X6.8Y-1.55
X6.8Y-1.65
X6.8Y-1.75
X6.805Y-3.86
X6.805Y-4.005
X6.82Y-2.695
X6.82Y-2.915
X6.82Y-3.06
X6.92Y-2.695
X6.92Y-2.915
X6.92Y-3.06
X7.02Y-2.695
X7.02Y-2.915
X7.02Y-3.06
X7.055Y-3.25
X7.055Y-3.35
X7.055Y-3.45
X7.055Y-3.55
X7.055Y-3.65
X7.1Y-4.33
X7.1Y-4.43
X7.1Y-4.53
X7.1Y-4.63
X7.1Y-4.73
X7.1Y-4.83
X7.1Y-4.93
X7.1Y-5.03
X7.1Y-5.13
X7.1Y-5.23
X7.155Y-3.25
X7.155Y-3.35
X7.155Y-3.45
X7.155Y-3.55
X7.155Y-3.65
X7.2Y-4.33
X7.2Y-4.43
X7.2Y-4.53
X7.2Y-4.63
X7.2Y-4.73
X7.2Y-4.83
X7.2Y-4.93
X7.2Y-5.03
X7.2Y-5.13
X7.2Y-5.23
T0
M30
