M48
; DRILL file {KiCad (5.1.10)-1} date 06/15/21 10:49:40
; FORMAT={-:-/ absolute / inch / decimal}
; #@! TF.CreationDate,2021-06-15T10:49:40-05:00
; #@! TF.GenerationSoftware,Kicad,Pcbnew,(5.1.10)-1
; #@! TF.FileFunction,Plated,1,4,PTH
FMAT,2
INCH
T1C0.0120
T2C0.0157
T3C0.0295
T4C0.0315
T5C0.0394
T6C0.0512
%
G90
G05
T1
X3.6725Y-4.37
X3.6825Y-4.0075
X3.6875Y-4.29
X4.0675Y-4.7325
X4.1475Y-4.925
X4.1475Y-5.0225
T2
X3.6675Y-3.8975
X3.675Y-3.49
X3.675Y-3.69
X3.6775Y-3.5975
X3.875Y-4.4475
X3.875Y-4.5475
X3.875Y-4.6475
X3.875Y-4.7475
X3.875Y-4.85
X3.875Y-4.9475
X3.875Y-5.0475
X3.8825Y-3.435
X3.89Y-2.88
X4.0525Y-3.75
X4.055Y-2.855
X4.08Y-3.6775
X4.085Y-4.66
X4.1075Y-4.385
X4.1125Y-3.5825
X4.15Y-3.095
X4.1525Y-3.4875
X4.2Y-3.5375
X4.22Y-3.4325
X4.2375Y-3.575
X4.245Y-2.95
X4.25Y-3.07
X4.2625Y-3.475
X4.295Y-2.87
X4.3Y-3.5175
X4.495Y-5.05
X4.5Y-4.95
X4.6Y-4.1
X4.6Y-4.3
X4.61Y-4.8475
X4.81Y-4.99
X4.9Y-4.1
X4.9Y-4.3
X4.93Y-4.87
X4.9621Y-2.6687
X5.09Y-4.85
X5.1Y-4.75
X5.185Y-2.64
X5.22Y-5.0
X5.33Y-4.29
X5.76Y-3.57
X5.98Y-5.08
X6.12Y-2.74
X6.135Y-4.035
X6.14Y-2.955
X6.145Y-4.785
X6.17Y-4.47
X6.225Y-4.125
X6.245Y-5.135
X6.2843Y-4.595
X6.2994Y-3.0706
X6.3Y-2.74
X6.44Y-4.03
X6.445Y-4.115
X6.45Y-3.91
X6.455Y-4.215
X6.47Y-2.74
X6.535Y-4.515
X6.7324Y-3.0476
X7.1Y-4.01
X7.1Y-4.19
X7.125Y-3.775
X7.195Y-3.305
X7.21Y-3.88
X7.335Y-3.565
X7.46Y-4.32
X7.53Y-4.32
T3
X7.295Y-4.535
X7.345Y-4.585
X7.395Y-4.535
T4
X3.64Y-2.83
X3.64Y-2.9284
X4.15Y-2.9
X4.15Y-2.9984
X4.25Y-3.8
X4.25Y-3.9
X4.25Y-4.0
X4.25Y-4.1
X4.25Y-4.2
X4.25Y-4.3
X4.25Y-4.4
X4.25Y-4.5
X4.25Y-4.6
X4.35Y-3.7
X4.35Y-3.8
X4.35Y-3.9
X4.35Y-4.0
X4.35Y-4.1
X4.35Y-4.2
X4.35Y-4.3
X4.35Y-4.4
X4.35Y-4.5
X4.35Y-4.6
X4.35Y-4.7
X4.45Y-3.7
X4.45Y-3.8
X4.45Y-4.6
X4.45Y-4.7
X4.55Y-2.75
X4.55Y-2.85
X4.55Y-2.95
X4.55Y-3.05
X4.55Y-3.15
X4.55Y-3.25
X4.55Y-3.35
X4.55Y-3.7
X4.55Y-3.8
X4.55Y-4.6
X4.55Y-4.7
X4.65Y-3.7
X4.65Y-3.8
X4.65Y-4.6
X4.65Y-4.7
X4.735Y-2.57
X4.74Y-3.3016
X4.74Y-3.4
X4.75Y-3.7
X4.75Y-3.8
X4.75Y-4.6
X4.75Y-4.7
X4.835Y-2.57
X4.85Y-3.7
X4.85Y-3.8
X4.85Y-4.6
X4.85Y-4.7
X4.935Y-2.57
X4.95Y-2.75
X4.95Y-2.85
X4.95Y-2.95
X4.95Y-3.05
X4.95Y-3.15
X4.95Y-3.25
X4.95Y-3.35
X4.95Y-3.7
X4.95Y-3.8
X4.95Y-4.6
X4.95Y-4.7
X5.035Y-2.57
X5.05Y-3.7
X5.05Y-3.8
X5.05Y-4.6
X5.05Y-4.7
X5.135Y-2.57
X5.15Y-3.7
X5.15Y-3.8
X5.15Y-3.9
X5.15Y-4.0
X5.15Y-4.1
X5.15Y-4.2
X5.15Y-4.3
X5.15Y-4.4
X5.15Y-4.5
X5.15Y-4.6
X5.15Y-4.7
X5.235Y-2.57
X5.25Y-3.8
X5.25Y-3.9
X5.25Y-4.0
X5.25Y-4.1
X5.25Y-4.2
X5.25Y-4.3
X5.25Y-4.4
X5.25Y-4.5
X5.25Y-4.6
X5.335Y-2.57
X5.35Y-2.75
X5.35Y-2.85
X5.35Y-2.95
X5.35Y-3.05
X5.35Y-3.15
X5.35Y-3.25
X5.35Y-3.35
X5.435Y-2.57
X5.535Y-2.57
X5.635Y-2.57
X5.925Y-3.0116
X5.925Y-3.11
X6.0057Y-3.915
X6.0057Y-4.315
X6.155Y-4.315
X6.285Y-3.315
X6.285Y-3.551
X6.285Y-3.785
X6.3637Y-3.315
X6.3637Y-3.551
X6.3637Y-3.785
X6.475Y-4.705
X6.475Y-4.8034
X6.555Y-4.315
X6.675Y-3.255
X6.675Y-3.355
X6.675Y-3.455
X6.675Y-3.555
X6.675Y-3.655
X6.675Y-3.755
X6.675Y-3.855
X6.675Y-3.955
X6.675Y-4.055
X6.675Y-4.155
X6.765Y-4.495
X6.845Y-3.06
X6.8634Y-4.495
X6.975Y-3.255
X6.975Y-3.355
X6.975Y-3.455
X6.975Y-3.555
X6.975Y-3.655
X6.975Y-3.755
X6.975Y-3.855
X6.975Y-3.955
X6.975Y-4.055
X6.975Y-4.155
X7.22Y-2.81
X7.245Y-3.06
X7.3184Y-2.81
T5
X3.4Y-3.15
X3.4Y-3.25
X3.4Y-3.35
X3.4Y-3.45
X3.4Y-3.55
X3.4Y-3.65
X3.4Y-3.75
X3.4Y-3.85
X3.4Y-3.95
X3.4Y-4.05
X3.4Y-4.15
X3.4Y-4.25
X3.4Y-4.35
X3.4Y-4.45
X3.4Y-4.55
X3.4Y-4.65
X3.4Y-4.75
X3.4Y-4.85
X3.4Y-4.95
X3.4Y-5.05
X3.5Y-3.15
X3.5Y-3.25
X3.5Y-3.35
X3.5Y-3.45
X3.5Y-3.55
X3.5Y-3.65
X3.5Y-3.75
X3.5Y-3.85
X3.5Y-3.95
X3.5Y-4.05
X3.5Y-4.15
X3.5Y-4.25
X3.5Y-4.35
X3.5Y-4.45
X3.5Y-4.55
X3.5Y-4.65
X3.5Y-4.75
X3.5Y-4.85
X3.5Y-4.95
X3.5Y-5.05
X3.8Y-3.5
X3.8Y-3.6
X3.8Y-3.7
X3.8Y-3.8
X3.8Y-3.9
X3.8Y-4.0
X3.8Y-4.1
X3.8Y-4.2
X3.8Y-4.35
X3.8Y-4.45
X3.8Y-4.55
X3.8Y-4.65
X3.8Y-4.75
X3.8Y-4.85
X3.8Y-4.95
X3.8Y-5.05
X3.95Y-3.2
X3.95Y-3.3
X3.95Y-3.5
X3.95Y-3.6
X3.95Y-3.7
X3.95Y-3.8
X3.95Y-3.9
X3.95Y-4.0
X3.95Y-4.1
X3.95Y-4.2
X3.95Y-4.35
X3.95Y-4.45
X3.95Y-4.55
X3.95Y-4.65
X3.95Y-4.75
X3.95Y-4.85
X3.95Y-4.95
X3.95Y-5.05
X3.98Y-2.75
X4.08Y-2.75
X4.18Y-2.75
X4.33Y-2.58
X4.43Y-2.58
X4.53Y-2.58
X4.75Y-2.85
X4.75Y-2.95
X4.75Y-3.05
X4.75Y-3.15
X4.8Y-5.15
X4.9Y-5.15
X5.1Y-5.15
X5.15Y-2.85
X5.15Y-2.95
X5.15Y-3.05
X5.15Y-3.15
X5.2Y-5.15
X5.55Y-2.85
X5.55Y-2.95
X5.55Y-3.05
X5.55Y-3.15
X5.55Y-4.2
X5.55Y-4.3
X5.55Y-4.4
X5.55Y-4.5
X5.55Y-4.6
X5.55Y-4.7
X5.55Y-4.85
X5.55Y-4.95
X5.55Y-5.05
X5.65Y-3.45
X5.65Y-3.55
X5.65Y-3.65
X5.65Y-3.75
X5.65Y-3.85
X5.65Y-4.05
X5.65Y-4.2
X5.65Y-4.3
X5.65Y-4.4
X5.65Y-4.5
X5.65Y-4.6
X5.65Y-4.7
X5.65Y-4.85
X5.65Y-4.95
X5.65Y-5.05
X5.805Y-2.575
X5.805Y-2.675
X5.86Y-5.01
X6.025Y-2.5759
X6.125Y-2.5759
X6.225Y-2.5759
X6.325Y-2.5759
X6.425Y-2.5759
X6.54Y-3.07
X6.64Y-2.575
X6.74Y-2.575
X6.84Y-2.575
X6.94Y-2.575
X6.955Y-2.8
X7.04Y-2.575
X7.055Y-2.8
X7.14Y-2.575
X7.24Y-2.575
X7.245Y-4.285
X7.305Y-3.675
X7.305Y-3.775
X7.34Y-2.575
X7.345Y-4.285
X7.395Y-3.065
X7.405Y-3.675
X7.405Y-3.775
X7.44Y-2.575
X7.5Y-4.75
X7.5Y-4.85
T5
G00X7.0524Y-4.7448
M15
G01X7.0524Y-4.8039
M16
G05
G00X7.3476Y-4.7448
M15
G01X7.3476Y-4.8039
M16
G05
T6
G00X7.1764Y-4.92
M15
G01X7.2236Y-4.92
M16
G05
T0
M30
