%TF.GenerationSoftware,KiCad,Pcbnew,(5.1.12)-1*%
%TF.CreationDate,2022-02-09T20:28:49-06:00*%
%TF.ProjectId,gd blackplane proto pcb,67642062-6c61-4636-9b70-6c616e652070,rev?*%
%TF.SameCoordinates,Original*%
%TF.FileFunction,Paste,Bot*%
%TF.FilePolarity,Positive*%
%FSLAX46Y46*%
G04 Gerber Fmt 4.6, Leading zero omitted, Abs format (unit mm)*
G04 Created by KiCad (PCBNEW (5.1.12)-1) date 2022-02-09 20:28:49*
%MOMM*%
%LPD*%
G01*
G04 APERTURE LIST*
G04 APERTURE END LIST*
%TO.C,R3*%
G36*
G01*
X214848000Y-26305999D02*
X214848000Y-27206001D01*
G75*
G02*
X214598001Y-27456000I-249999J0D01*
G01*
X214072999Y-27456000D01*
G75*
G02*
X213823000Y-27206001I0J249999D01*
G01*
X213823000Y-26305999D01*
G75*
G02*
X214072999Y-26056000I249999J0D01*
G01*
X214598001Y-26056000D01*
G75*
G02*
X214848000Y-26305999I0J-249999D01*
G01*
G37*
G36*
G01*
X216673000Y-26305999D02*
X216673000Y-27206001D01*
G75*
G02*
X216423001Y-27456000I-249999J0D01*
G01*
X215897999Y-27456000D01*
G75*
G02*
X215648000Y-27206001I0J249999D01*
G01*
X215648000Y-26305999D01*
G75*
G02*
X215897999Y-26056000I249999J0D01*
G01*
X216423001Y-26056000D01*
G75*
G02*
X216673000Y-26305999I0J-249999D01*
G01*
G37*
%TD*%
%TO.C,R2*%
G36*
G01*
X245323000Y-27120001D02*
X245323000Y-26219999D01*
G75*
G02*
X245572999Y-25970000I249999J0D01*
G01*
X246098001Y-25970000D01*
G75*
G02*
X246348000Y-26219999I0J-249999D01*
G01*
X246348000Y-27120001D01*
G75*
G02*
X246098001Y-27370000I-249999J0D01*
G01*
X245572999Y-27370000D01*
G75*
G02*
X245323000Y-27120001I0J249999D01*
G01*
G37*
G36*
G01*
X243498000Y-27120001D02*
X243498000Y-26219999D01*
G75*
G02*
X243747999Y-25970000I249999J0D01*
G01*
X244273001Y-25970000D01*
G75*
G02*
X244523000Y-26219999I0J-249999D01*
G01*
X244523000Y-27120001D01*
G75*
G02*
X244273001Y-27370000I-249999J0D01*
G01*
X243747999Y-27370000D01*
G75*
G02*
X243498000Y-27120001I0J249999D01*
G01*
G37*
%TD*%
%TO.C,R1*%
G36*
G01*
X155057000Y-27206001D02*
X155057000Y-26305999D01*
G75*
G02*
X155306999Y-26056000I249999J0D01*
G01*
X155832001Y-26056000D01*
G75*
G02*
X156082000Y-26305999I0J-249999D01*
G01*
X156082000Y-27206001D01*
G75*
G02*
X155832001Y-27456000I-249999J0D01*
G01*
X155306999Y-27456000D01*
G75*
G02*
X155057000Y-27206001I0J249999D01*
G01*
G37*
G36*
G01*
X153232000Y-27206001D02*
X153232000Y-26305999D01*
G75*
G02*
X153481999Y-26056000I249999J0D01*
G01*
X154007001Y-26056000D01*
G75*
G02*
X154257000Y-26305999I0J-249999D01*
G01*
X154257000Y-27206001D01*
G75*
G02*
X154007001Y-27456000I-249999J0D01*
G01*
X153481999Y-27456000D01*
G75*
G02*
X153232000Y-27206001I0J249999D01*
G01*
G37*
%TD*%
M02*
