%TF.GenerationSoftware,KiCad,Pcbnew,(5.1.12)-1*%
%TF.CreationDate,2022-02-09T20:28:49-06:00*%
%TF.ProjectId,gd blackplane proto pcb,67642062-6c61-4636-9b70-6c616e652070,rev?*%
%TF.SameCoordinates,Original*%
%TF.FileFunction,Soldermask,Top*%
%TF.FilePolarity,Negative*%
%FSLAX46Y46*%
G04 Gerber Fmt 4.6, Leading zero omitted, Abs format (unit mm)*
G04 Created by KiCad (PCBNEW (5.1.12)-1) date 2022-02-09 20:28:49*
%MOMM*%
%LPD*%
G01*
G04 APERTURE LIST*
%ADD10O,1.700000X1.700000*%
%ADD11R,1.700000X1.700000*%
G04 APERTURE END LIST*
D10*
%TO.C,J16*%
X139190000Y-98425000D03*
X141730000Y-98425000D03*
X139190000Y-95885000D03*
X141730000Y-95885000D03*
X139190000Y-93345000D03*
X141730000Y-93345000D03*
X139190000Y-90805000D03*
X141730000Y-90805000D03*
X139190000Y-88265000D03*
X141730000Y-88265000D03*
X139190000Y-85725000D03*
X141730000Y-85725000D03*
X139190000Y-83185000D03*
X141730000Y-83185000D03*
X139190000Y-80645000D03*
X141730000Y-80645000D03*
X139190000Y-78105000D03*
X141730000Y-78105000D03*
X139190000Y-75565000D03*
X141730000Y-75565000D03*
X139190000Y-73025000D03*
X141730000Y-73025000D03*
X139190000Y-70485000D03*
X141730000Y-70485000D03*
X139190000Y-67945000D03*
X141730000Y-67945000D03*
X139190000Y-65405000D03*
X141730000Y-65405000D03*
X139190000Y-62865000D03*
X141730000Y-62865000D03*
X139190000Y-60325000D03*
D11*
X141730000Y-60325000D03*
%TD*%
D10*
%TO.C,J11*%
X139190000Y-52788000D03*
X141730000Y-52788000D03*
X139190000Y-50248000D03*
X141730000Y-50248000D03*
X139190000Y-47708000D03*
X141730000Y-47708000D03*
X139190000Y-45168000D03*
X141730000Y-45168000D03*
X139190000Y-42628000D03*
D11*
X141730000Y-42628000D03*
%TD*%
D10*
%TO.C,J9*%
X139190000Y-116251000D03*
X141730000Y-116251000D03*
X139190000Y-113711000D03*
X141730000Y-113711000D03*
X139190000Y-111171000D03*
X141730000Y-111171000D03*
X139190000Y-108631000D03*
X141730000Y-108631000D03*
X139190000Y-106091000D03*
D11*
X141730000Y-106091000D03*
%TD*%
D10*
%TO.C,J5*%
X139190000Y-35006000D03*
X141730000Y-35006000D03*
X139190000Y-32466000D03*
X141730000Y-32466000D03*
X139190000Y-29926000D03*
X141730000Y-29926000D03*
X139190000Y-27386000D03*
D11*
X141730000Y-27386000D03*
%TD*%
D10*
%TO.C,J25*%
X198540000Y-52788000D03*
X201080000Y-52788000D03*
X198540000Y-50248000D03*
X201080000Y-50248000D03*
X198540000Y-47708000D03*
X201080000Y-47708000D03*
X198540000Y-45168000D03*
X201080000Y-45168000D03*
X198540000Y-42628000D03*
D11*
X201080000Y-42628000D03*
%TD*%
D10*
%TO.C,J24*%
X258826000Y-98425000D03*
X261366000Y-98425000D03*
X258826000Y-95885000D03*
X261366000Y-95885000D03*
X258826000Y-93345000D03*
X261366000Y-93345000D03*
X258826000Y-90805000D03*
X261366000Y-90805000D03*
X258826000Y-88265000D03*
X261366000Y-88265000D03*
X258826000Y-85725000D03*
X261366000Y-85725000D03*
X258826000Y-83185000D03*
X261366000Y-83185000D03*
X258826000Y-80645000D03*
X261366000Y-80645000D03*
X258826000Y-78105000D03*
X261366000Y-78105000D03*
X258826000Y-75565000D03*
X261366000Y-75565000D03*
X258826000Y-73025000D03*
X261366000Y-73025000D03*
X258826000Y-70485000D03*
X261366000Y-70485000D03*
X258826000Y-67945000D03*
X261366000Y-67945000D03*
X258826000Y-65405000D03*
X261366000Y-65405000D03*
X258826000Y-62865000D03*
X261366000Y-62865000D03*
X258826000Y-60325000D03*
D11*
X261366000Y-60325000D03*
%TD*%
D10*
%TO.C,J23*%
X228215000Y-116251000D03*
X230755000Y-116251000D03*
X228215000Y-113711000D03*
X230755000Y-113711000D03*
X228215000Y-111171000D03*
X230755000Y-111171000D03*
X228215000Y-108631000D03*
X230755000Y-108631000D03*
X228215000Y-106091000D03*
D11*
X230755000Y-106091000D03*
%TD*%
D10*
%TO.C,J22*%
X258830000Y-34980600D03*
X261370000Y-34980600D03*
X258830000Y-32440600D03*
X261370000Y-32440600D03*
X258830000Y-29900600D03*
X261370000Y-29900600D03*
X258830000Y-27360600D03*
D11*
X261370000Y-27360600D03*
%TD*%
D10*
%TO.C,J20*%
X168865000Y-52788000D03*
X171405000Y-52788000D03*
X168865000Y-50248000D03*
X171405000Y-50248000D03*
X168865000Y-47708000D03*
X171405000Y-47708000D03*
X168865000Y-45168000D03*
X171405000Y-45168000D03*
X168865000Y-42628000D03*
D11*
X171405000Y-42628000D03*
%TD*%
D10*
%TO.C,J19*%
X168865000Y-98425000D03*
X171405000Y-98425000D03*
X168865000Y-95885000D03*
X171405000Y-95885000D03*
X168865000Y-93345000D03*
X171405000Y-93345000D03*
X168865000Y-90805000D03*
X171405000Y-90805000D03*
X168865000Y-88265000D03*
X171405000Y-88265000D03*
X168865000Y-85725000D03*
X171405000Y-85725000D03*
X168865000Y-83185000D03*
X171405000Y-83185000D03*
X168865000Y-80645000D03*
X171405000Y-80645000D03*
X168865000Y-78105000D03*
X171405000Y-78105000D03*
X168865000Y-75565000D03*
X171405000Y-75565000D03*
X168865000Y-73025000D03*
X171405000Y-73025000D03*
X168865000Y-70485000D03*
X171405000Y-70485000D03*
X168865000Y-67945000D03*
X171405000Y-67945000D03*
X168865000Y-65405000D03*
X171405000Y-65405000D03*
X168865000Y-62865000D03*
X171405000Y-62865000D03*
X168865000Y-60325000D03*
D11*
X171405000Y-60325000D03*
%TD*%
D10*
%TO.C,J18*%
X258830000Y-116251000D03*
X261370000Y-116251000D03*
X258830000Y-113711000D03*
X261370000Y-113711000D03*
X258830000Y-111171000D03*
X261370000Y-111171000D03*
X258830000Y-108631000D03*
X261370000Y-108631000D03*
X258830000Y-106091000D03*
D11*
X261370000Y-106091000D03*
%TD*%
D10*
%TO.C,J17*%
X168865000Y-35006000D03*
X171405000Y-35006000D03*
X168865000Y-32466000D03*
X171405000Y-32466000D03*
X168865000Y-29926000D03*
X171405000Y-29926000D03*
X168865000Y-27386000D03*
D11*
X171405000Y-27386000D03*
%TD*%
D10*
%TO.C,J15*%
X258830000Y-52788000D03*
X261370000Y-52788000D03*
X258830000Y-50248000D03*
X261370000Y-50248000D03*
X258830000Y-47708000D03*
X261370000Y-47708000D03*
X258830000Y-45168000D03*
X261370000Y-45168000D03*
X258830000Y-42628000D03*
D11*
X261370000Y-42628000D03*
%TD*%
D10*
%TO.C,J14*%
X198540000Y-98425000D03*
X201080000Y-98425000D03*
X198540000Y-95885000D03*
X201080000Y-95885000D03*
X198540000Y-93345000D03*
X201080000Y-93345000D03*
X198540000Y-90805000D03*
X201080000Y-90805000D03*
X198540000Y-88265000D03*
X201080000Y-88265000D03*
X198540000Y-85725000D03*
X201080000Y-85725000D03*
X198540000Y-83185000D03*
X201080000Y-83185000D03*
X198540000Y-80645000D03*
X201080000Y-80645000D03*
X198540000Y-78105000D03*
X201080000Y-78105000D03*
X198540000Y-75565000D03*
X201080000Y-75565000D03*
X198540000Y-73025000D03*
X201080000Y-73025000D03*
X198540000Y-70485000D03*
X201080000Y-70485000D03*
X198540000Y-67945000D03*
X201080000Y-67945000D03*
X198540000Y-65405000D03*
X201080000Y-65405000D03*
X198540000Y-62865000D03*
X201080000Y-62865000D03*
X198540000Y-60325000D03*
D11*
X201080000Y-60325000D03*
%TD*%
D10*
%TO.C,J13*%
X168865000Y-116251000D03*
X171405000Y-116251000D03*
X168865000Y-113711000D03*
X171405000Y-113711000D03*
X168865000Y-111171000D03*
X171405000Y-111171000D03*
X168865000Y-108631000D03*
X171405000Y-108631000D03*
X168865000Y-106091000D03*
D11*
X171405000Y-106091000D03*
%TD*%
D10*
%TO.C,J12*%
X198540000Y-35006000D03*
X201080000Y-35006000D03*
X198540000Y-32466000D03*
X201080000Y-32466000D03*
X198540000Y-29926000D03*
X201080000Y-29926000D03*
X198540000Y-27386000D03*
D11*
X201080000Y-27386000D03*
%TD*%
D10*
%TO.C,J10*%
X228215000Y-52788000D03*
X230755000Y-52788000D03*
X228215000Y-50248000D03*
X230755000Y-50248000D03*
X228215000Y-47708000D03*
X230755000Y-47708000D03*
X228215000Y-45168000D03*
X230755000Y-45168000D03*
X228215000Y-42628000D03*
D11*
X230755000Y-42628000D03*
%TD*%
D10*
%TO.C,J8*%
X228215000Y-98425000D03*
X230755000Y-98425000D03*
X228215000Y-95885000D03*
X230755000Y-95885000D03*
X228215000Y-93345000D03*
X230755000Y-93345000D03*
X228215000Y-90805000D03*
X230755000Y-90805000D03*
X228215000Y-88265000D03*
X230755000Y-88265000D03*
X228215000Y-85725000D03*
X230755000Y-85725000D03*
X228215000Y-83185000D03*
X230755000Y-83185000D03*
X228215000Y-80645000D03*
X230755000Y-80645000D03*
X228215000Y-78105000D03*
X230755000Y-78105000D03*
X228215000Y-75565000D03*
X230755000Y-75565000D03*
X228215000Y-73025000D03*
X230755000Y-73025000D03*
X228215000Y-70485000D03*
X230755000Y-70485000D03*
X228215000Y-67945000D03*
X230755000Y-67945000D03*
X228215000Y-65405000D03*
X230755000Y-65405000D03*
X228215000Y-62865000D03*
X230755000Y-62865000D03*
X228215000Y-60325000D03*
D11*
X230755000Y-60325000D03*
%TD*%
D10*
%TO.C,J7*%
X198540000Y-116251000D03*
X201080000Y-116251000D03*
X198540000Y-113711000D03*
X201080000Y-113711000D03*
X198540000Y-111171000D03*
X201080000Y-111171000D03*
X198540000Y-108631000D03*
X201080000Y-108631000D03*
X198540000Y-106091000D03*
D11*
X201080000Y-106091000D03*
%TD*%
D10*
%TO.C,J6*%
X228215000Y-35006000D03*
X230755000Y-35006000D03*
X228215000Y-32466000D03*
X230755000Y-32466000D03*
X228215000Y-29926000D03*
X230755000Y-29926000D03*
X228215000Y-27386000D03*
D11*
X230755000Y-27386000D03*
%TD*%
D10*
%TO.C,J4*%
X109515000Y-52788000D03*
X112055000Y-52788000D03*
X109515000Y-50248000D03*
X112055000Y-50248000D03*
X109515000Y-47708000D03*
X112055000Y-47708000D03*
X109515000Y-45168000D03*
X112055000Y-45168000D03*
X109515000Y-42628000D03*
D11*
X112055000Y-42628000D03*
%TD*%
D10*
%TO.C,J3*%
X109515000Y-98425000D03*
X112055000Y-98425000D03*
X109515000Y-95885000D03*
X112055000Y-95885000D03*
X109515000Y-93345000D03*
X112055000Y-93345000D03*
X109515000Y-90805000D03*
X112055000Y-90805000D03*
X109515000Y-88265000D03*
X112055000Y-88265000D03*
X109515000Y-85725000D03*
X112055000Y-85725000D03*
X109515000Y-83185000D03*
X112055000Y-83185000D03*
X109515000Y-80645000D03*
X112055000Y-80645000D03*
X109515000Y-78105000D03*
X112055000Y-78105000D03*
X109515000Y-75565000D03*
X112055000Y-75565000D03*
X109515000Y-73025000D03*
X112055000Y-73025000D03*
X109515000Y-70485000D03*
X112055000Y-70485000D03*
X109515000Y-67945000D03*
X112055000Y-67945000D03*
X109515000Y-65405000D03*
X112055000Y-65405000D03*
X109515000Y-62865000D03*
X112055000Y-62865000D03*
X109515000Y-60325000D03*
D11*
X112055000Y-60325000D03*
%TD*%
D10*
%TO.C,J2*%
X109515000Y-116251000D03*
X112055000Y-116251000D03*
X109515000Y-113711000D03*
X112055000Y-113711000D03*
X109515000Y-111171000D03*
X112055000Y-111171000D03*
X109515000Y-108631000D03*
X112055000Y-108631000D03*
X109515000Y-106091000D03*
D11*
X112055000Y-106091000D03*
%TD*%
D10*
%TO.C,J1*%
X109515000Y-35006000D03*
X112055000Y-35006000D03*
X109515000Y-32466000D03*
X112055000Y-32466000D03*
X109515000Y-29926000D03*
X112055000Y-29926000D03*
X109515000Y-27386000D03*
D11*
X112055000Y-27386000D03*
%TD*%
%TO.C,D2*%
G36*
G01*
X245098000Y-27381000D02*
X245098000Y-26131000D01*
G75*
G02*
X245348000Y-25881000I250000J0D01*
G01*
X246098000Y-25881000D01*
G75*
G02*
X246348000Y-26131000I0J-250000D01*
G01*
X246348000Y-27381000D01*
G75*
G02*
X246098000Y-27631000I-250000J0D01*
G01*
X245348000Y-27631000D01*
G75*
G02*
X245098000Y-27381000I0J250000D01*
G01*
G37*
G36*
G01*
X242298000Y-27381000D02*
X242298000Y-26131000D01*
G75*
G02*
X242548000Y-25881000I250000J0D01*
G01*
X243298000Y-25881000D01*
G75*
G02*
X243548000Y-26131000I0J-250000D01*
G01*
X243548000Y-27381000D01*
G75*
G02*
X243298000Y-27631000I-250000J0D01*
G01*
X242548000Y-27631000D01*
G75*
G02*
X242298000Y-27381000I0J250000D01*
G01*
G37*
%TD*%
%TO.C,D1*%
G36*
G01*
X156072000Y-27381000D02*
X156072000Y-26131000D01*
G75*
G02*
X156322000Y-25881000I250000J0D01*
G01*
X157072000Y-25881000D01*
G75*
G02*
X157322000Y-26131000I0J-250000D01*
G01*
X157322000Y-27381000D01*
G75*
G02*
X157072000Y-27631000I-250000J0D01*
G01*
X156322000Y-27631000D01*
G75*
G02*
X156072000Y-27381000I0J250000D01*
G01*
G37*
G36*
G01*
X153272000Y-27381000D02*
X153272000Y-26131000D01*
G75*
G02*
X153522000Y-25881000I250000J0D01*
G01*
X154272000Y-25881000D01*
G75*
G02*
X154522000Y-26131000I0J-250000D01*
G01*
X154522000Y-27381000D01*
G75*
G02*
X154272000Y-27631000I-250000J0D01*
G01*
X153522000Y-27631000D01*
G75*
G02*
X153272000Y-27381000I0J250000D01*
G01*
G37*
%TD*%
%TO.C,D3*%
G36*
G01*
X215423000Y-27381000D02*
X215423000Y-26131000D01*
G75*
G02*
X215673000Y-25881000I250000J0D01*
G01*
X216423000Y-25881000D01*
G75*
G02*
X216673000Y-26131000I0J-250000D01*
G01*
X216673000Y-27381000D01*
G75*
G02*
X216423000Y-27631000I-250000J0D01*
G01*
X215673000Y-27631000D01*
G75*
G02*
X215423000Y-27381000I0J250000D01*
G01*
G37*
G36*
G01*
X212623000Y-27381000D02*
X212623000Y-26131000D01*
G75*
G02*
X212873000Y-25881000I250000J0D01*
G01*
X213623000Y-25881000D01*
G75*
G02*
X213873000Y-26131000I0J-250000D01*
G01*
X213873000Y-27381000D01*
G75*
G02*
X213623000Y-27631000I-250000J0D01*
G01*
X212873000Y-27631000D01*
G75*
G02*
X212623000Y-27381000I0J250000D01*
G01*
G37*
%TD*%
%TO.C,C7*%
G36*
G01*
X251771001Y-27899600D02*
X250920999Y-27899600D01*
G75*
G02*
X250671000Y-27649601I0J249999D01*
G01*
X250671000Y-26574599D01*
G75*
G02*
X250920999Y-26324600I249999J0D01*
G01*
X251771001Y-26324600D01*
G75*
G02*
X252021000Y-26574599I0J-249999D01*
G01*
X252021000Y-27649601D01*
G75*
G02*
X251771001Y-27899600I-249999J0D01*
G01*
G37*
G36*
G01*
X251771001Y-30774600D02*
X250920999Y-30774600D01*
G75*
G02*
X250671000Y-30524601I0J249999D01*
G01*
X250671000Y-29449599D01*
G75*
G02*
X250920999Y-29199600I249999J0D01*
G01*
X251771001Y-29199600D01*
G75*
G02*
X252021000Y-29449599I0J-249999D01*
G01*
X252021000Y-30524601D01*
G75*
G02*
X251771001Y-30774600I-249999J0D01*
G01*
G37*
%TD*%
%TO.C,C6*%
G36*
G01*
X214384000Y-36492600D02*
X215334000Y-36492600D01*
G75*
G02*
X215584000Y-36742600I0J-250000D01*
G01*
X215584000Y-37242600D01*
G75*
G02*
X215334000Y-37492600I-250000J0D01*
G01*
X214384000Y-37492600D01*
G75*
G02*
X214134000Y-37242600I0J250000D01*
G01*
X214134000Y-36742600D01*
G75*
G02*
X214384000Y-36492600I250000J0D01*
G01*
G37*
G36*
G01*
X214384000Y-34592600D02*
X215334000Y-34592600D01*
G75*
G02*
X215584000Y-34842600I0J-250000D01*
G01*
X215584000Y-35342600D01*
G75*
G02*
X215334000Y-35592600I-250000J0D01*
G01*
X214384000Y-35592600D01*
G75*
G02*
X214134000Y-35342600I0J250000D01*
G01*
X214134000Y-34842600D01*
G75*
G02*
X214384000Y-34592600I250000J0D01*
G01*
G37*
%TD*%
%TO.C,C5*%
G36*
G01*
X154769800Y-35349600D02*
X155719800Y-35349600D01*
G75*
G02*
X155969800Y-35599600I0J-250000D01*
G01*
X155969800Y-36099600D01*
G75*
G02*
X155719800Y-36349600I-250000J0D01*
G01*
X154769800Y-36349600D01*
G75*
G02*
X154519800Y-36099600I0J250000D01*
G01*
X154519800Y-35599600D01*
G75*
G02*
X154769800Y-35349600I250000J0D01*
G01*
G37*
G36*
G01*
X154769800Y-33449600D02*
X155719800Y-33449600D01*
G75*
G02*
X155969800Y-33699600I0J-250000D01*
G01*
X155969800Y-34199600D01*
G75*
G02*
X155719800Y-34449600I-250000J0D01*
G01*
X154769800Y-34449600D01*
G75*
G02*
X154519800Y-34199600I0J250000D01*
G01*
X154519800Y-33699600D01*
G75*
G02*
X154769800Y-33449600I250000J0D01*
G01*
G37*
%TD*%
M02*
