%TF.GenerationSoftware,KiCad,Pcbnew,(5.1.12)-1*%
%TF.CreationDate,2022-02-09T20:28:49-06:00*%
%TF.ProjectId,gd blackplane proto pcb,67642062-6c61-4636-9b70-6c616e652070,rev?*%
%TF.SameCoordinates,Original*%
%TF.FileFunction,Paste,Top*%
%TF.FilePolarity,Positive*%
%FSLAX46Y46*%
G04 Gerber Fmt 4.6, Leading zero omitted, Abs format (unit mm)*
G04 Created by KiCad (PCBNEW (5.1.12)-1) date 2022-02-09 20:28:49*
%MOMM*%
%LPD*%
G01*
G04 APERTURE LIST*
G04 APERTURE END LIST*
%TO.C,D2*%
G36*
G01*
X245098000Y-27381000D02*
X245098000Y-26131000D01*
G75*
G02*
X245348000Y-25881000I250000J0D01*
G01*
X246098000Y-25881000D01*
G75*
G02*
X246348000Y-26131000I0J-250000D01*
G01*
X246348000Y-27381000D01*
G75*
G02*
X246098000Y-27631000I-250000J0D01*
G01*
X245348000Y-27631000D01*
G75*
G02*
X245098000Y-27381000I0J250000D01*
G01*
G37*
G36*
G01*
X242298000Y-27381000D02*
X242298000Y-26131000D01*
G75*
G02*
X242548000Y-25881000I250000J0D01*
G01*
X243298000Y-25881000D01*
G75*
G02*
X243548000Y-26131000I0J-250000D01*
G01*
X243548000Y-27381000D01*
G75*
G02*
X243298000Y-27631000I-250000J0D01*
G01*
X242548000Y-27631000D01*
G75*
G02*
X242298000Y-27381000I0J250000D01*
G01*
G37*
%TD*%
%TO.C,D1*%
G36*
G01*
X156072000Y-27381000D02*
X156072000Y-26131000D01*
G75*
G02*
X156322000Y-25881000I250000J0D01*
G01*
X157072000Y-25881000D01*
G75*
G02*
X157322000Y-26131000I0J-250000D01*
G01*
X157322000Y-27381000D01*
G75*
G02*
X157072000Y-27631000I-250000J0D01*
G01*
X156322000Y-27631000D01*
G75*
G02*
X156072000Y-27381000I0J250000D01*
G01*
G37*
G36*
G01*
X153272000Y-27381000D02*
X153272000Y-26131000D01*
G75*
G02*
X153522000Y-25881000I250000J0D01*
G01*
X154272000Y-25881000D01*
G75*
G02*
X154522000Y-26131000I0J-250000D01*
G01*
X154522000Y-27381000D01*
G75*
G02*
X154272000Y-27631000I-250000J0D01*
G01*
X153522000Y-27631000D01*
G75*
G02*
X153272000Y-27381000I0J250000D01*
G01*
G37*
%TD*%
%TO.C,D3*%
G36*
G01*
X215423000Y-27381000D02*
X215423000Y-26131000D01*
G75*
G02*
X215673000Y-25881000I250000J0D01*
G01*
X216423000Y-25881000D01*
G75*
G02*
X216673000Y-26131000I0J-250000D01*
G01*
X216673000Y-27381000D01*
G75*
G02*
X216423000Y-27631000I-250000J0D01*
G01*
X215673000Y-27631000D01*
G75*
G02*
X215423000Y-27381000I0J250000D01*
G01*
G37*
G36*
G01*
X212623000Y-27381000D02*
X212623000Y-26131000D01*
G75*
G02*
X212873000Y-25881000I250000J0D01*
G01*
X213623000Y-25881000D01*
G75*
G02*
X213873000Y-26131000I0J-250000D01*
G01*
X213873000Y-27381000D01*
G75*
G02*
X213623000Y-27631000I-250000J0D01*
G01*
X212873000Y-27631000D01*
G75*
G02*
X212623000Y-27381000I0J250000D01*
G01*
G37*
%TD*%
%TO.C,C7*%
G36*
G01*
X251771001Y-27899600D02*
X250920999Y-27899600D01*
G75*
G02*
X250671000Y-27649601I0J249999D01*
G01*
X250671000Y-26574599D01*
G75*
G02*
X250920999Y-26324600I249999J0D01*
G01*
X251771001Y-26324600D01*
G75*
G02*
X252021000Y-26574599I0J-249999D01*
G01*
X252021000Y-27649601D01*
G75*
G02*
X251771001Y-27899600I-249999J0D01*
G01*
G37*
G36*
G01*
X251771001Y-30774600D02*
X250920999Y-30774600D01*
G75*
G02*
X250671000Y-30524601I0J249999D01*
G01*
X250671000Y-29449599D01*
G75*
G02*
X250920999Y-29199600I249999J0D01*
G01*
X251771001Y-29199600D01*
G75*
G02*
X252021000Y-29449599I0J-249999D01*
G01*
X252021000Y-30524601D01*
G75*
G02*
X251771001Y-30774600I-249999J0D01*
G01*
G37*
%TD*%
%TO.C,C6*%
G36*
G01*
X214384000Y-36492600D02*
X215334000Y-36492600D01*
G75*
G02*
X215584000Y-36742600I0J-250000D01*
G01*
X215584000Y-37242600D01*
G75*
G02*
X215334000Y-37492600I-250000J0D01*
G01*
X214384000Y-37492600D01*
G75*
G02*
X214134000Y-37242600I0J250000D01*
G01*
X214134000Y-36742600D01*
G75*
G02*
X214384000Y-36492600I250000J0D01*
G01*
G37*
G36*
G01*
X214384000Y-34592600D02*
X215334000Y-34592600D01*
G75*
G02*
X215584000Y-34842600I0J-250000D01*
G01*
X215584000Y-35342600D01*
G75*
G02*
X215334000Y-35592600I-250000J0D01*
G01*
X214384000Y-35592600D01*
G75*
G02*
X214134000Y-35342600I0J250000D01*
G01*
X214134000Y-34842600D01*
G75*
G02*
X214384000Y-34592600I250000J0D01*
G01*
G37*
%TD*%
%TO.C,C5*%
G36*
G01*
X154769800Y-35349600D02*
X155719800Y-35349600D01*
G75*
G02*
X155969800Y-35599600I0J-250000D01*
G01*
X155969800Y-36099600D01*
G75*
G02*
X155719800Y-36349600I-250000J0D01*
G01*
X154769800Y-36349600D01*
G75*
G02*
X154519800Y-36099600I0J250000D01*
G01*
X154519800Y-35599600D01*
G75*
G02*
X154769800Y-35349600I250000J0D01*
G01*
G37*
G36*
G01*
X154769800Y-33449600D02*
X155719800Y-33449600D01*
G75*
G02*
X155969800Y-33699600I0J-250000D01*
G01*
X155969800Y-34199600D01*
G75*
G02*
X155719800Y-34449600I-250000J0D01*
G01*
X154769800Y-34449600D01*
G75*
G02*
X154519800Y-34199600I0J250000D01*
G01*
X154519800Y-33699600D01*
G75*
G02*
X154769800Y-33449600I250000J0D01*
G01*
G37*
%TD*%
M02*
