M48
; DRILL file {KiCad (5.1.12)-1} date 02/09/22 20:28:53
; FORMAT={-:-/ absolute / inch / decimal}
; #@! TF.CreationDate,2022-02-09T20:28:53-06:00
; #@! TF.GenerationSoftware,Kicad,Pcbnew,(5.1.12)-1
; #@! TF.FileFunction,Plated,1,2,PTH
FMAT,2
INCH
T1C0.0157
T2C0.0394
%
G90
G05
T1
X5.9905Y-1.0811
X6.0605Y-1.287
X6.112Y-1.446
X6.1642Y-1.1184
X8.333Y-1.047
X8.402Y-1.3765
X8.4499Y-2.5005
X8.4499Y-2.6005
X8.4499Y-2.6485
X8.4499Y-2.748
X8.4499Y-2.8025
X8.4499Y-2.9985
X8.4499Y-3.0985
X8.4499Y-3.1955
X8.4499Y-3.295
X8.4499Y-3.4995
X8.4499Y-3.5995
X8.4499Y-3.748
X8.4499Y-4.4535
X8.511Y-1.1184
X9.1891Y-3.3581
X9.192Y-3.261
X9.1955Y-3.9595
X9.229Y-3.0839
X9.323Y-2.714
X9.3488Y-3.0269
X9.3585Y-2.49
X9.439Y-2.5735
X9.4947Y-3.0023
X9.525Y-3.6755
X9.544Y-2.582
X9.6195Y-2.7255
X9.6255Y-3.284
X9.6286Y-1.1099
X9.7236Y-1.0529
X9.7415Y-3.2745
X9.7705Y-2.516
X9.8238Y-2.7627
X9.835Y-3.5315
X9.8626Y-3.2187
X9.9997Y-2.8897
X10.0512Y-2.7027
T2
X4.3116Y-1.0782
X4.3116Y-1.1782
X4.3116Y-1.2782
X4.3116Y-1.3782
X4.3116Y-1.6783
X4.3116Y-1.7783
X4.3116Y-1.8783
X4.3116Y-1.9783
X4.3116Y-2.0783
X4.3116Y-2.375
X4.3116Y-2.475
X4.3116Y-2.575
X4.3116Y-2.675
X4.3116Y-2.775
X4.3116Y-2.875
X4.3116Y-2.975
X4.3116Y-3.075
X4.3116Y-3.175
X4.3116Y-3.275
X4.3116Y-3.375
X4.3116Y-3.475
X4.3116Y-3.575
X4.3116Y-3.675
X4.3116Y-3.775
X4.3116Y-3.875
X4.3116Y-4.1768
X4.3116Y-4.2768
X4.3116Y-4.3768
X4.3116Y-4.4768
X4.3116Y-4.5768
X4.4116Y-1.0782
X4.4116Y-1.1782
X4.4116Y-1.2782
X4.4116Y-1.3782
X4.4116Y-1.6783
X4.4116Y-1.7783
X4.4116Y-1.8783
X4.4116Y-1.9783
X4.4116Y-2.0783
X4.4116Y-2.375
X4.4116Y-2.475
X4.4116Y-2.575
X4.4116Y-2.675
X4.4116Y-2.775
X4.4116Y-2.875
X4.4116Y-2.975
X4.4116Y-3.075
X4.4116Y-3.175
X4.4116Y-3.275
X4.4116Y-3.375
X4.4116Y-3.475
X4.4116Y-3.575
X4.4116Y-3.675
X4.4116Y-3.775
X4.4116Y-3.875
X4.4116Y-4.1768
X4.4116Y-4.2768
X4.4116Y-4.3768
X4.4116Y-4.4768
X4.4116Y-4.5768
X5.4799Y-1.0782
X5.4799Y-1.1782
X5.4799Y-1.2782
X5.4799Y-1.3782
X5.4799Y-1.6783
X5.4799Y-1.7783
X5.4799Y-1.8783
X5.4799Y-1.9783
X5.4799Y-2.0783
X5.4799Y-2.375
X5.4799Y-2.475
X5.4799Y-2.575
X5.4799Y-2.675
X5.4799Y-2.775
X5.4799Y-2.875
X5.4799Y-2.975
X5.4799Y-3.075
X5.4799Y-3.175
X5.4799Y-3.275
X5.4799Y-3.375
X5.4799Y-3.475
X5.4799Y-3.575
X5.4799Y-3.675
X5.4799Y-3.775
X5.4799Y-3.875
X5.4799Y-4.1768
X5.4799Y-4.2768
X5.4799Y-4.3768
X5.4799Y-4.4768
X5.4799Y-4.5768
X5.5799Y-1.0782
X5.5799Y-1.1782
X5.5799Y-1.2782
X5.5799Y-1.3782
X5.5799Y-1.6783
X5.5799Y-1.7783
X5.5799Y-1.8783
X5.5799Y-1.9783
X5.5799Y-2.0783
X5.5799Y-2.375
X5.5799Y-2.475
X5.5799Y-2.575
X5.5799Y-2.675
X5.5799Y-2.775
X5.5799Y-2.875
X5.5799Y-2.975
X5.5799Y-3.075
X5.5799Y-3.175
X5.5799Y-3.275
X5.5799Y-3.375
X5.5799Y-3.475
X5.5799Y-3.575
X5.5799Y-3.675
X5.5799Y-3.775
X5.5799Y-3.875
X5.5799Y-4.1768
X5.5799Y-4.2768
X5.5799Y-4.3768
X5.5799Y-4.4768
X5.5799Y-4.5768
X6.6482Y-1.0782
X6.6482Y-1.1782
X6.6482Y-1.2782
X6.6482Y-1.3782
X6.6482Y-1.6783
X6.6482Y-1.7783
X6.6482Y-1.8783
X6.6482Y-1.9783
X6.6482Y-2.0783
X6.6482Y-2.375
X6.6482Y-2.475
X6.6482Y-2.575
X6.6482Y-2.675
X6.6482Y-2.775
X6.6482Y-2.875
X6.6482Y-2.975
X6.6482Y-3.075
X6.6482Y-3.175
X6.6482Y-3.275
X6.6482Y-3.375
X6.6482Y-3.475
X6.6482Y-3.575
X6.6482Y-3.675
X6.6482Y-3.775
X6.6482Y-3.875
X6.6482Y-4.1768
X6.6482Y-4.2768
X6.6482Y-4.3768
X6.6482Y-4.4768
X6.6482Y-4.5768
X6.7482Y-1.0782
X6.7482Y-1.1782
X6.7482Y-1.2782
X6.7482Y-1.3782
X6.7482Y-1.6783
X6.7482Y-1.7783
X6.7482Y-1.8783
X6.7482Y-1.9783
X6.7482Y-2.0783
X6.7482Y-2.375
X6.7482Y-2.475
X6.7482Y-2.575
X6.7482Y-2.675
X6.7482Y-2.775
X6.7482Y-2.875
X6.7482Y-2.975
X6.7482Y-3.075
X6.7482Y-3.175
X6.7482Y-3.275
X6.7482Y-3.375
X6.7482Y-3.475
X6.7482Y-3.575
X6.7482Y-3.675
X6.7482Y-3.775
X6.7482Y-3.875
X6.7482Y-4.1768
X6.7482Y-4.2768
X6.7482Y-4.3768
X6.7482Y-4.4768
X6.7482Y-4.5768
X7.8165Y-1.0782
X7.8165Y-1.1782
X7.8165Y-1.2782
X7.8165Y-1.3782
X7.8165Y-1.6783
X7.8165Y-1.7783
X7.8165Y-1.8783
X7.8165Y-1.9783
X7.8165Y-2.0783
X7.8165Y-2.375
X7.8165Y-2.475
X7.8165Y-2.575
X7.8165Y-2.675
X7.8165Y-2.775
X7.8165Y-2.875
X7.8165Y-2.975
X7.8165Y-3.075
X7.8165Y-3.175
X7.8165Y-3.275
X7.8165Y-3.375
X7.8165Y-3.475
X7.8165Y-3.575
X7.8165Y-3.675
X7.8165Y-3.775
X7.8165Y-3.875
X7.8165Y-4.1768
X7.8165Y-4.2768
X7.8165Y-4.3768
X7.8165Y-4.4768
X7.8165Y-4.5768
X7.9165Y-1.0782
X7.9165Y-1.1782
X7.9165Y-1.2782
X7.9165Y-1.3782
X7.9165Y-1.6783
X7.9165Y-1.7783
X7.9165Y-1.8783
X7.9165Y-1.9783
X7.9165Y-2.0783
X7.9165Y-2.375
X7.9165Y-2.475
X7.9165Y-2.575
X7.9165Y-2.675
X7.9165Y-2.775
X7.9165Y-2.875
X7.9165Y-2.975
X7.9165Y-3.075
X7.9165Y-3.175
X7.9165Y-3.275
X7.9165Y-3.375
X7.9165Y-3.475
X7.9165Y-3.575
X7.9165Y-3.675
X7.9165Y-3.775
X7.9165Y-3.875
X7.9165Y-4.1768
X7.9165Y-4.2768
X7.9165Y-4.3768
X7.9165Y-4.4768
X7.9165Y-4.5768
X8.9848Y-1.0782
X8.9848Y-1.1782
X8.9848Y-1.2782
X8.9848Y-1.3782
X8.9848Y-1.6783
X8.9848Y-1.7783
X8.9848Y-1.8783
X8.9848Y-1.9783
X8.9848Y-2.0783
X8.9848Y-2.375
X8.9848Y-2.475
X8.9848Y-2.575
X8.9848Y-2.675
X8.9848Y-2.775
X8.9848Y-2.875
X8.9848Y-2.975
X8.9848Y-3.075
X8.9848Y-3.175
X8.9848Y-3.275
X8.9848Y-3.375
X8.9848Y-3.475
X8.9848Y-3.575
X8.9848Y-3.675
X8.9848Y-3.775
X8.9848Y-3.875
X8.9848Y-4.1768
X8.9848Y-4.2768
X8.9848Y-4.3768
X8.9848Y-4.4768
X8.9848Y-4.5768
X9.0848Y-1.0782
X9.0848Y-1.1782
X9.0848Y-1.2782
X9.0848Y-1.3782
X9.0848Y-1.6783
X9.0848Y-1.7783
X9.0848Y-1.8783
X9.0848Y-1.9783
X9.0848Y-2.0783
X9.0848Y-2.375
X9.0848Y-2.475
X9.0848Y-2.575
X9.0848Y-2.675
X9.0848Y-2.775
X9.0848Y-2.875
X9.0848Y-2.975
X9.0848Y-3.075
X9.0848Y-3.175
X9.0848Y-3.275
X9.0848Y-3.375
X9.0848Y-3.475
X9.0848Y-3.575
X9.0848Y-3.675
X9.0848Y-3.775
X9.0848Y-3.875
X9.0848Y-4.1768
X9.0848Y-4.2768
X9.0848Y-4.3768
X9.0848Y-4.4768
X9.0848Y-4.5768
X10.19Y-2.375
X10.19Y-2.475
X10.19Y-2.575
X10.19Y-2.675
X10.19Y-2.775
X10.19Y-2.875
X10.19Y-2.975
X10.19Y-3.075
X10.19Y-3.175
X10.19Y-3.275
X10.19Y-3.375
X10.19Y-3.475
X10.19Y-3.575
X10.19Y-3.675
X10.19Y-3.775
X10.19Y-3.875
X10.1902Y-1.0772
X10.1902Y-1.1772
X10.1902Y-1.2772
X10.1902Y-1.3772
X10.1902Y-1.6783
X10.1902Y-1.7783
X10.1902Y-1.8783
X10.1902Y-1.9783
X10.1902Y-2.0783
X10.1902Y-4.1768
X10.1902Y-4.2768
X10.1902Y-4.3768
X10.1902Y-4.4768
X10.1902Y-4.5768
X10.29Y-2.375
X10.29Y-2.475
X10.29Y-2.575
X10.29Y-2.675
X10.29Y-2.775
X10.29Y-2.875
X10.29Y-2.975
X10.29Y-3.075
X10.29Y-3.175
X10.29Y-3.275
X10.29Y-3.375
X10.29Y-3.475
X10.29Y-3.575
X10.29Y-3.675
X10.29Y-3.775
X10.29Y-3.875
X10.2902Y-1.0772
X10.2902Y-1.1772
X10.2902Y-1.2772
X10.2902Y-1.3772
X10.2902Y-1.6783
X10.2902Y-1.7783
X10.2902Y-1.8783
X10.2902Y-1.9783
X10.2902Y-2.0783
X10.2902Y-4.1768
X10.2902Y-4.2768
X10.2902Y-4.3768
X10.2902Y-4.4768
X10.2902Y-4.5768
T0
M30
