%TF.GenerationSoftware,KiCad,Pcbnew,(5.1.12)-1*%
%TF.CreationDate,2022-02-09T20:28:49-06:00*%
%TF.ProjectId,gd blackplane proto pcb,67642062-6c61-4636-9b70-6c616e652070,rev?*%
%TF.SameCoordinates,Original*%
%TF.FileFunction,Soldermask,Bot*%
%TF.FilePolarity,Negative*%
%FSLAX46Y46*%
G04 Gerber Fmt 4.6, Leading zero omitted, Abs format (unit mm)*
G04 Created by KiCad (PCBNEW (5.1.12)-1) date 2022-02-09 20:28:49*
%MOMM*%
%LPD*%
G01*
G04 APERTURE LIST*
%ADD10O,1.700000X1.700000*%
%ADD11R,1.700000X1.700000*%
G04 APERTURE END LIST*
D10*
%TO.C,J16*%
X139190000Y-98425000D03*
X141730000Y-98425000D03*
X139190000Y-95885000D03*
X141730000Y-95885000D03*
X139190000Y-93345000D03*
X141730000Y-93345000D03*
X139190000Y-90805000D03*
X141730000Y-90805000D03*
X139190000Y-88265000D03*
X141730000Y-88265000D03*
X139190000Y-85725000D03*
X141730000Y-85725000D03*
X139190000Y-83185000D03*
X141730000Y-83185000D03*
X139190000Y-80645000D03*
X141730000Y-80645000D03*
X139190000Y-78105000D03*
X141730000Y-78105000D03*
X139190000Y-75565000D03*
X141730000Y-75565000D03*
X139190000Y-73025000D03*
X141730000Y-73025000D03*
X139190000Y-70485000D03*
X141730000Y-70485000D03*
X139190000Y-67945000D03*
X141730000Y-67945000D03*
X139190000Y-65405000D03*
X141730000Y-65405000D03*
X139190000Y-62865000D03*
X141730000Y-62865000D03*
X139190000Y-60325000D03*
D11*
X141730000Y-60325000D03*
%TD*%
D10*
%TO.C,J11*%
X139190000Y-52788000D03*
X141730000Y-52788000D03*
X139190000Y-50248000D03*
X141730000Y-50248000D03*
X139190000Y-47708000D03*
X141730000Y-47708000D03*
X139190000Y-45168000D03*
X141730000Y-45168000D03*
X139190000Y-42628000D03*
D11*
X141730000Y-42628000D03*
%TD*%
D10*
%TO.C,J9*%
X139190000Y-116251000D03*
X141730000Y-116251000D03*
X139190000Y-113711000D03*
X141730000Y-113711000D03*
X139190000Y-111171000D03*
X141730000Y-111171000D03*
X139190000Y-108631000D03*
X141730000Y-108631000D03*
X139190000Y-106091000D03*
D11*
X141730000Y-106091000D03*
%TD*%
D10*
%TO.C,J5*%
X139190000Y-35006000D03*
X141730000Y-35006000D03*
X139190000Y-32466000D03*
X141730000Y-32466000D03*
X139190000Y-29926000D03*
X141730000Y-29926000D03*
X139190000Y-27386000D03*
D11*
X141730000Y-27386000D03*
%TD*%
D10*
%TO.C,J25*%
X198540000Y-52788000D03*
X201080000Y-52788000D03*
X198540000Y-50248000D03*
X201080000Y-50248000D03*
X198540000Y-47708000D03*
X201080000Y-47708000D03*
X198540000Y-45168000D03*
X201080000Y-45168000D03*
X198540000Y-42628000D03*
D11*
X201080000Y-42628000D03*
%TD*%
D10*
%TO.C,J24*%
X258826000Y-98425000D03*
X261366000Y-98425000D03*
X258826000Y-95885000D03*
X261366000Y-95885000D03*
X258826000Y-93345000D03*
X261366000Y-93345000D03*
X258826000Y-90805000D03*
X261366000Y-90805000D03*
X258826000Y-88265000D03*
X261366000Y-88265000D03*
X258826000Y-85725000D03*
X261366000Y-85725000D03*
X258826000Y-83185000D03*
X261366000Y-83185000D03*
X258826000Y-80645000D03*
X261366000Y-80645000D03*
X258826000Y-78105000D03*
X261366000Y-78105000D03*
X258826000Y-75565000D03*
X261366000Y-75565000D03*
X258826000Y-73025000D03*
X261366000Y-73025000D03*
X258826000Y-70485000D03*
X261366000Y-70485000D03*
X258826000Y-67945000D03*
X261366000Y-67945000D03*
X258826000Y-65405000D03*
X261366000Y-65405000D03*
X258826000Y-62865000D03*
X261366000Y-62865000D03*
X258826000Y-60325000D03*
D11*
X261366000Y-60325000D03*
%TD*%
D10*
%TO.C,J23*%
X228215000Y-116251000D03*
X230755000Y-116251000D03*
X228215000Y-113711000D03*
X230755000Y-113711000D03*
X228215000Y-111171000D03*
X230755000Y-111171000D03*
X228215000Y-108631000D03*
X230755000Y-108631000D03*
X228215000Y-106091000D03*
D11*
X230755000Y-106091000D03*
%TD*%
D10*
%TO.C,J22*%
X258830000Y-34980600D03*
X261370000Y-34980600D03*
X258830000Y-32440600D03*
X261370000Y-32440600D03*
X258830000Y-29900600D03*
X261370000Y-29900600D03*
X258830000Y-27360600D03*
D11*
X261370000Y-27360600D03*
%TD*%
D10*
%TO.C,J20*%
X168865000Y-52788000D03*
X171405000Y-52788000D03*
X168865000Y-50248000D03*
X171405000Y-50248000D03*
X168865000Y-47708000D03*
X171405000Y-47708000D03*
X168865000Y-45168000D03*
X171405000Y-45168000D03*
X168865000Y-42628000D03*
D11*
X171405000Y-42628000D03*
%TD*%
D10*
%TO.C,J19*%
X168865000Y-98425000D03*
X171405000Y-98425000D03*
X168865000Y-95885000D03*
X171405000Y-95885000D03*
X168865000Y-93345000D03*
X171405000Y-93345000D03*
X168865000Y-90805000D03*
X171405000Y-90805000D03*
X168865000Y-88265000D03*
X171405000Y-88265000D03*
X168865000Y-85725000D03*
X171405000Y-85725000D03*
X168865000Y-83185000D03*
X171405000Y-83185000D03*
X168865000Y-80645000D03*
X171405000Y-80645000D03*
X168865000Y-78105000D03*
X171405000Y-78105000D03*
X168865000Y-75565000D03*
X171405000Y-75565000D03*
X168865000Y-73025000D03*
X171405000Y-73025000D03*
X168865000Y-70485000D03*
X171405000Y-70485000D03*
X168865000Y-67945000D03*
X171405000Y-67945000D03*
X168865000Y-65405000D03*
X171405000Y-65405000D03*
X168865000Y-62865000D03*
X171405000Y-62865000D03*
X168865000Y-60325000D03*
D11*
X171405000Y-60325000D03*
%TD*%
D10*
%TO.C,J18*%
X258830000Y-116251000D03*
X261370000Y-116251000D03*
X258830000Y-113711000D03*
X261370000Y-113711000D03*
X258830000Y-111171000D03*
X261370000Y-111171000D03*
X258830000Y-108631000D03*
X261370000Y-108631000D03*
X258830000Y-106091000D03*
D11*
X261370000Y-106091000D03*
%TD*%
D10*
%TO.C,J17*%
X168865000Y-35006000D03*
X171405000Y-35006000D03*
X168865000Y-32466000D03*
X171405000Y-32466000D03*
X168865000Y-29926000D03*
X171405000Y-29926000D03*
X168865000Y-27386000D03*
D11*
X171405000Y-27386000D03*
%TD*%
D10*
%TO.C,J15*%
X258830000Y-52788000D03*
X261370000Y-52788000D03*
X258830000Y-50248000D03*
X261370000Y-50248000D03*
X258830000Y-47708000D03*
X261370000Y-47708000D03*
X258830000Y-45168000D03*
X261370000Y-45168000D03*
X258830000Y-42628000D03*
D11*
X261370000Y-42628000D03*
%TD*%
D10*
%TO.C,J14*%
X198540000Y-98425000D03*
X201080000Y-98425000D03*
X198540000Y-95885000D03*
X201080000Y-95885000D03*
X198540000Y-93345000D03*
X201080000Y-93345000D03*
X198540000Y-90805000D03*
X201080000Y-90805000D03*
X198540000Y-88265000D03*
X201080000Y-88265000D03*
X198540000Y-85725000D03*
X201080000Y-85725000D03*
X198540000Y-83185000D03*
X201080000Y-83185000D03*
X198540000Y-80645000D03*
X201080000Y-80645000D03*
X198540000Y-78105000D03*
X201080000Y-78105000D03*
X198540000Y-75565000D03*
X201080000Y-75565000D03*
X198540000Y-73025000D03*
X201080000Y-73025000D03*
X198540000Y-70485000D03*
X201080000Y-70485000D03*
X198540000Y-67945000D03*
X201080000Y-67945000D03*
X198540000Y-65405000D03*
X201080000Y-65405000D03*
X198540000Y-62865000D03*
X201080000Y-62865000D03*
X198540000Y-60325000D03*
D11*
X201080000Y-60325000D03*
%TD*%
D10*
%TO.C,J13*%
X168865000Y-116251000D03*
X171405000Y-116251000D03*
X168865000Y-113711000D03*
X171405000Y-113711000D03*
X168865000Y-111171000D03*
X171405000Y-111171000D03*
X168865000Y-108631000D03*
X171405000Y-108631000D03*
X168865000Y-106091000D03*
D11*
X171405000Y-106091000D03*
%TD*%
D10*
%TO.C,J12*%
X198540000Y-35006000D03*
X201080000Y-35006000D03*
X198540000Y-32466000D03*
X201080000Y-32466000D03*
X198540000Y-29926000D03*
X201080000Y-29926000D03*
X198540000Y-27386000D03*
D11*
X201080000Y-27386000D03*
%TD*%
D10*
%TO.C,J10*%
X228215000Y-52788000D03*
X230755000Y-52788000D03*
X228215000Y-50248000D03*
X230755000Y-50248000D03*
X228215000Y-47708000D03*
X230755000Y-47708000D03*
X228215000Y-45168000D03*
X230755000Y-45168000D03*
X228215000Y-42628000D03*
D11*
X230755000Y-42628000D03*
%TD*%
D10*
%TO.C,J8*%
X228215000Y-98425000D03*
X230755000Y-98425000D03*
X228215000Y-95885000D03*
X230755000Y-95885000D03*
X228215000Y-93345000D03*
X230755000Y-93345000D03*
X228215000Y-90805000D03*
X230755000Y-90805000D03*
X228215000Y-88265000D03*
X230755000Y-88265000D03*
X228215000Y-85725000D03*
X230755000Y-85725000D03*
X228215000Y-83185000D03*
X230755000Y-83185000D03*
X228215000Y-80645000D03*
X230755000Y-80645000D03*
X228215000Y-78105000D03*
X230755000Y-78105000D03*
X228215000Y-75565000D03*
X230755000Y-75565000D03*
X228215000Y-73025000D03*
X230755000Y-73025000D03*
X228215000Y-70485000D03*
X230755000Y-70485000D03*
X228215000Y-67945000D03*
X230755000Y-67945000D03*
X228215000Y-65405000D03*
X230755000Y-65405000D03*
X228215000Y-62865000D03*
X230755000Y-62865000D03*
X228215000Y-60325000D03*
D11*
X230755000Y-60325000D03*
%TD*%
D10*
%TO.C,J7*%
X198540000Y-116251000D03*
X201080000Y-116251000D03*
X198540000Y-113711000D03*
X201080000Y-113711000D03*
X198540000Y-111171000D03*
X201080000Y-111171000D03*
X198540000Y-108631000D03*
X201080000Y-108631000D03*
X198540000Y-106091000D03*
D11*
X201080000Y-106091000D03*
%TD*%
D10*
%TO.C,J6*%
X228215000Y-35006000D03*
X230755000Y-35006000D03*
X228215000Y-32466000D03*
X230755000Y-32466000D03*
X228215000Y-29926000D03*
X230755000Y-29926000D03*
X228215000Y-27386000D03*
D11*
X230755000Y-27386000D03*
%TD*%
D10*
%TO.C,J4*%
X109515000Y-52788000D03*
X112055000Y-52788000D03*
X109515000Y-50248000D03*
X112055000Y-50248000D03*
X109515000Y-47708000D03*
X112055000Y-47708000D03*
X109515000Y-45168000D03*
X112055000Y-45168000D03*
X109515000Y-42628000D03*
D11*
X112055000Y-42628000D03*
%TD*%
D10*
%TO.C,J3*%
X109515000Y-98425000D03*
X112055000Y-98425000D03*
X109515000Y-95885000D03*
X112055000Y-95885000D03*
X109515000Y-93345000D03*
X112055000Y-93345000D03*
X109515000Y-90805000D03*
X112055000Y-90805000D03*
X109515000Y-88265000D03*
X112055000Y-88265000D03*
X109515000Y-85725000D03*
X112055000Y-85725000D03*
X109515000Y-83185000D03*
X112055000Y-83185000D03*
X109515000Y-80645000D03*
X112055000Y-80645000D03*
X109515000Y-78105000D03*
X112055000Y-78105000D03*
X109515000Y-75565000D03*
X112055000Y-75565000D03*
X109515000Y-73025000D03*
X112055000Y-73025000D03*
X109515000Y-70485000D03*
X112055000Y-70485000D03*
X109515000Y-67945000D03*
X112055000Y-67945000D03*
X109515000Y-65405000D03*
X112055000Y-65405000D03*
X109515000Y-62865000D03*
X112055000Y-62865000D03*
X109515000Y-60325000D03*
D11*
X112055000Y-60325000D03*
%TD*%
D10*
%TO.C,J2*%
X109515000Y-116251000D03*
X112055000Y-116251000D03*
X109515000Y-113711000D03*
X112055000Y-113711000D03*
X109515000Y-111171000D03*
X112055000Y-111171000D03*
X109515000Y-108631000D03*
X112055000Y-108631000D03*
X109515000Y-106091000D03*
D11*
X112055000Y-106091000D03*
%TD*%
D10*
%TO.C,J1*%
X109515000Y-35006000D03*
X112055000Y-35006000D03*
X109515000Y-32466000D03*
X112055000Y-32466000D03*
X109515000Y-29926000D03*
X112055000Y-29926000D03*
X109515000Y-27386000D03*
D11*
X112055000Y-27386000D03*
%TD*%
%TO.C,R3*%
G36*
G01*
X214848000Y-26305999D02*
X214848000Y-27206001D01*
G75*
G02*
X214598001Y-27456000I-249999J0D01*
G01*
X214072999Y-27456000D01*
G75*
G02*
X213823000Y-27206001I0J249999D01*
G01*
X213823000Y-26305999D01*
G75*
G02*
X214072999Y-26056000I249999J0D01*
G01*
X214598001Y-26056000D01*
G75*
G02*
X214848000Y-26305999I0J-249999D01*
G01*
G37*
G36*
G01*
X216673000Y-26305999D02*
X216673000Y-27206001D01*
G75*
G02*
X216423001Y-27456000I-249999J0D01*
G01*
X215897999Y-27456000D01*
G75*
G02*
X215648000Y-27206001I0J249999D01*
G01*
X215648000Y-26305999D01*
G75*
G02*
X215897999Y-26056000I249999J0D01*
G01*
X216423001Y-26056000D01*
G75*
G02*
X216673000Y-26305999I0J-249999D01*
G01*
G37*
%TD*%
%TO.C,R2*%
G36*
G01*
X245323000Y-27120001D02*
X245323000Y-26219999D01*
G75*
G02*
X245572999Y-25970000I249999J0D01*
G01*
X246098001Y-25970000D01*
G75*
G02*
X246348000Y-26219999I0J-249999D01*
G01*
X246348000Y-27120001D01*
G75*
G02*
X246098001Y-27370000I-249999J0D01*
G01*
X245572999Y-27370000D01*
G75*
G02*
X245323000Y-27120001I0J249999D01*
G01*
G37*
G36*
G01*
X243498000Y-27120001D02*
X243498000Y-26219999D01*
G75*
G02*
X243747999Y-25970000I249999J0D01*
G01*
X244273001Y-25970000D01*
G75*
G02*
X244523000Y-26219999I0J-249999D01*
G01*
X244523000Y-27120001D01*
G75*
G02*
X244273001Y-27370000I-249999J0D01*
G01*
X243747999Y-27370000D01*
G75*
G02*
X243498000Y-27120001I0J249999D01*
G01*
G37*
%TD*%
%TO.C,R1*%
G36*
G01*
X155057000Y-27206001D02*
X155057000Y-26305999D01*
G75*
G02*
X155306999Y-26056000I249999J0D01*
G01*
X155832001Y-26056000D01*
G75*
G02*
X156082000Y-26305999I0J-249999D01*
G01*
X156082000Y-27206001D01*
G75*
G02*
X155832001Y-27456000I-249999J0D01*
G01*
X155306999Y-27456000D01*
G75*
G02*
X155057000Y-27206001I0J249999D01*
G01*
G37*
G36*
G01*
X153232000Y-27206001D02*
X153232000Y-26305999D01*
G75*
G02*
X153481999Y-26056000I249999J0D01*
G01*
X154007001Y-26056000D01*
G75*
G02*
X154257000Y-26305999I0J-249999D01*
G01*
X154257000Y-27206001D01*
G75*
G02*
X154007001Y-27456000I-249999J0D01*
G01*
X153481999Y-27456000D01*
G75*
G02*
X153232000Y-27206001I0J249999D01*
G01*
G37*
%TD*%
M02*
