%TF.GenerationSoftware,KiCad,Pcbnew,(5.1.10)-1*%
%TF.CreationDate,2021-09-08T13:29:56-05:00*%
%TF.ProjectId,gd protoboard pcb,67642070-726f-4746-9f62-6f6172642070,rev?*%
%TF.SameCoordinates,Original*%
%TF.FileFunction,Copper,L2,Bot*%
%TF.FilePolarity,Positive*%
%FSLAX46Y46*%
G04 Gerber Fmt 4.6, Leading zero omitted, Abs format (unit mm)*
G04 Created by KiCad (PCBNEW (5.1.10)-1) date 2021-09-08 13:29:56*
%MOMM*%
%LPD*%
G01*
G04 APERTURE LIST*
%TA.AperFunction,ComponentPad*%
%ADD10O,1.700000X1.700000*%
%TD*%
%TA.AperFunction,ComponentPad*%
%ADD11R,1.700000X1.700000*%
%TD*%
%TA.AperFunction,ComponentPad*%
%ADD12O,2.000000X1.905000*%
%TD*%
%TA.AperFunction,ComponentPad*%
%ADD13R,2.000000X1.905000*%
%TD*%
%TA.AperFunction,ComponentPad*%
%ADD14C,1.700000*%
%TD*%
%TA.AperFunction,ViaPad*%
%ADD15C,0.800000*%
%TD*%
%TA.AperFunction,Conductor*%
%ADD16C,0.304800*%
%TD*%
%TA.AperFunction,Conductor*%
%ADD17C,0.254000*%
%TD*%
%TA.AperFunction,Conductor*%
%ADD18C,0.100000*%
%TD*%
G04 APERTURE END LIST*
D10*
%TO.P,J8,32*%
%TO.N,GND*%
X127254000Y-121437400D03*
%TO.P,J8,31*%
X127254000Y-118897400D03*
%TO.P,J8,30*%
%TO.N,/MD6*%
X129794000Y-121437400D03*
%TO.P,J8,29*%
%TO.N,/MD7*%
X129794000Y-118897400D03*
%TO.P,J8,28*%
%TO.N,/MD4*%
X132334000Y-121437400D03*
%TO.P,J8,27*%
%TO.N,/MD5*%
X132334000Y-118897400D03*
%TO.P,J8,26*%
%TO.N,/MD2*%
X134874000Y-121437400D03*
%TO.P,J8,25*%
%TO.N,/MD3*%
X134874000Y-118897400D03*
%TO.P,J8,24*%
%TO.N,/MD0*%
X137414000Y-121437400D03*
%TO.P,J8,23*%
%TO.N,/MD1*%
X137414000Y-118897400D03*
%TO.P,J8,22*%
%TO.N,GND*%
X139954000Y-121437400D03*
%TO.P,J8,21*%
X139954000Y-118897400D03*
%TO.P,J8,20*%
%TO.N,/BA14*%
X142494000Y-121437400D03*
%TO.P,J8,19*%
%TO.N,/BA15*%
X142494000Y-118897400D03*
%TO.P,J8,18*%
%TO.N,/BA12*%
X145034000Y-121437400D03*
%TO.P,J8,17*%
%TO.N,/BA13*%
X145034000Y-118897400D03*
%TO.P,J8,16*%
%TO.N,/BA10*%
X147574000Y-121437400D03*
%TO.P,J8,15*%
%TO.N,/BA11*%
X147574000Y-118897400D03*
%TO.P,J8,14*%
%TO.N,/BA8*%
X150114000Y-121437400D03*
%TO.P,J8,13*%
%TO.N,/BA9*%
X150114000Y-118897400D03*
%TO.P,J8,12*%
%TO.N,GND*%
X152654000Y-121437400D03*
%TO.P,J8,11*%
X152654000Y-118897400D03*
%TO.P,J8,10*%
%TO.N,/BA6*%
X155194000Y-121437400D03*
%TO.P,J8,9*%
%TO.N,/BA7*%
X155194000Y-118897400D03*
%TO.P,J8,8*%
%TO.N,/BA4*%
X157734000Y-121437400D03*
%TO.P,J8,7*%
%TO.N,/BA5*%
X157734000Y-118897400D03*
%TO.P,J8,6*%
%TO.N,/BA2*%
X160274000Y-121437400D03*
%TO.P,J8,5*%
%TO.N,/BA3*%
X160274000Y-118897400D03*
%TO.P,J8,4*%
%TO.N,/BA0*%
X162814000Y-121437400D03*
%TO.P,J8,3*%
%TO.N,/BA1*%
X162814000Y-118897400D03*
%TO.P,J8,2*%
%TO.N,GND*%
X165354000Y-121437400D03*
D11*
%TO.P,J8,1*%
X165354000Y-118897400D03*
%TD*%
D12*
%TO.P,U1,3*%
%TO.N,-5V*%
X198475600Y-103708200D03*
%TO.P,U1,2*%
%TO.N,-12V*%
X198475600Y-106248200D03*
D13*
%TO.P,U1,1*%
%TO.N,GND*%
X198475600Y-108788200D03*
%TD*%
%TO.P,C6,2*%
%TO.N,GND*%
%TA.AperFunction,SMDPad,CuDef*%
G36*
G01*
X196273000Y-100871000D02*
X196273000Y-101821000D01*
G75*
G02*
X196023000Y-102071000I-250000J0D01*
G01*
X195523000Y-102071000D01*
G75*
G02*
X195273000Y-101821000I0J250000D01*
G01*
X195273000Y-100871000D01*
G75*
G02*
X195523000Y-100621000I250000J0D01*
G01*
X196023000Y-100621000D01*
G75*
G02*
X196273000Y-100871000I0J-250000D01*
G01*
G37*
%TD.AperFunction*%
%TO.P,C6,1*%
%TO.N,-5V*%
%TA.AperFunction,SMDPad,CuDef*%
G36*
G01*
X198173000Y-100871000D02*
X198173000Y-101821000D01*
G75*
G02*
X197923000Y-102071000I-250000J0D01*
G01*
X197423000Y-102071000D01*
G75*
G02*
X197173000Y-101821000I0J250000D01*
G01*
X197173000Y-100871000D01*
G75*
G02*
X197423000Y-100621000I250000J0D01*
G01*
X197923000Y-100621000D01*
G75*
G02*
X198173000Y-100871000I0J-250000D01*
G01*
G37*
%TD.AperFunction*%
%TD*%
%TO.P,C5,2*%
%TO.N,GND*%
%TA.AperFunction,SMDPad,CuDef*%
G36*
G01*
X195613000Y-108019000D02*
X196563000Y-108019000D01*
G75*
G02*
X196813000Y-108269000I0J-250000D01*
G01*
X196813000Y-108769000D01*
G75*
G02*
X196563000Y-109019000I-250000J0D01*
G01*
X195613000Y-109019000D01*
G75*
G02*
X195363000Y-108769000I0J250000D01*
G01*
X195363000Y-108269000D01*
G75*
G02*
X195613000Y-108019000I250000J0D01*
G01*
G37*
%TD.AperFunction*%
%TO.P,C5,1*%
%TO.N,-12V*%
%TA.AperFunction,SMDPad,CuDef*%
G36*
G01*
X195613000Y-106119000D02*
X196563000Y-106119000D01*
G75*
G02*
X196813000Y-106369000I0J-250000D01*
G01*
X196813000Y-106869000D01*
G75*
G02*
X196563000Y-107119000I-250000J0D01*
G01*
X195613000Y-107119000D01*
G75*
G02*
X195363000Y-106869000I0J250000D01*
G01*
X195363000Y-106369000D01*
G75*
G02*
X195613000Y-106119000I250000J0D01*
G01*
G37*
%TD.AperFunction*%
%TD*%
D10*
%TO.P,J13,5*%
%TO.N,N/C*%
X188722000Y-89154000D03*
%TO.P,J13,4*%
X188722000Y-86614000D03*
%TO.P,J13,3*%
X188722000Y-84074000D03*
%TO.P,J13,2*%
X188722000Y-81534000D03*
D14*
%TO.P,J13,1*%
X188722000Y-78994000D03*
%TD*%
%TO.P,J13,1*%
%TO.N,N/C*%
X173482000Y-78994000D03*
D10*
%TO.P,J13,2*%
X173482000Y-81534000D03*
%TO.P,J13,3*%
X173482000Y-84074000D03*
%TO.P,J13,4*%
X173482000Y-86614000D03*
%TO.P,J13,5*%
X173482000Y-89154000D03*
%TD*%
D14*
%TO.P,J8,1*%
%TO.N,N/C*%
X109982000Y-113284000D03*
D10*
%TO.P,J8,2*%
X112522000Y-113284000D03*
%TO.P,J8,3*%
X115062000Y-113284000D03*
%TO.P,J8,4*%
X117602000Y-113284000D03*
%TD*%
%TO.P,J8,4*%
%TO.N,N/C*%
X188722000Y-113284000D03*
%TO.P,J8,3*%
X186182000Y-113284000D03*
%TO.P,J8,2*%
X183642000Y-113284000D03*
D14*
%TO.P,J8,1*%
X181102000Y-113284000D03*
%TD*%
D10*
%TO.P,J8,4*%
%TO.N,N/C*%
X117602000Y-110744000D03*
%TO.P,J8,3*%
X115062000Y-110744000D03*
%TO.P,J8,2*%
X112522000Y-110744000D03*
D14*
%TO.P,J8,1*%
X109982000Y-110744000D03*
%TD*%
D10*
%TO.P,J8,4*%
%TO.N,N/C*%
X158242000Y-113284000D03*
%TO.P,J8,3*%
X155702000Y-113284000D03*
%TO.P,J8,2*%
X153162000Y-113284000D03*
D14*
%TO.P,J8,1*%
X150622000Y-113284000D03*
%TD*%
D10*
%TO.P,J8,4*%
%TO.N,N/C*%
X178562000Y-113284000D03*
%TO.P,J8,3*%
X176022000Y-113284000D03*
%TO.P,J8,2*%
X173482000Y-113284000D03*
D14*
%TO.P,J8,1*%
X170942000Y-113284000D03*
%TD*%
D10*
%TO.P,J8,4*%
%TO.N,N/C*%
X137922000Y-113284000D03*
%TO.P,J8,3*%
X135382000Y-113284000D03*
%TO.P,J8,2*%
X132842000Y-113284000D03*
D14*
%TO.P,J8,1*%
X130302000Y-113284000D03*
%TD*%
D10*
%TO.P,J8,4*%
%TO.N,N/C*%
X168402000Y-113284000D03*
%TO.P,J8,3*%
X165862000Y-113284000D03*
%TO.P,J8,2*%
X163322000Y-113284000D03*
D14*
%TO.P,J8,1*%
X160782000Y-113284000D03*
%TD*%
D10*
%TO.P,J8,4*%
%TO.N,N/C*%
X148082000Y-113284000D03*
%TO.P,J8,3*%
X145542000Y-113284000D03*
%TO.P,J8,2*%
X143002000Y-113284000D03*
D14*
%TO.P,J8,1*%
X140462000Y-113284000D03*
%TD*%
D10*
%TO.P,J8,4*%
%TO.N,N/C*%
X127762000Y-113284000D03*
%TO.P,J8,3*%
X125222000Y-113284000D03*
%TO.P,J8,2*%
X122682000Y-113284000D03*
D14*
%TO.P,J8,1*%
X120142000Y-113284000D03*
%TD*%
%TO.P,J8,1*%
%TO.N,N/C*%
X181102000Y-110744000D03*
D10*
%TO.P,J8,2*%
X183642000Y-110744000D03*
%TO.P,J8,3*%
X186182000Y-110744000D03*
%TO.P,J8,4*%
X188722000Y-110744000D03*
%TD*%
D14*
%TO.P,J8,1*%
%TO.N,N/C*%
X170942000Y-110744000D03*
D10*
%TO.P,J8,2*%
X173482000Y-110744000D03*
%TO.P,J8,3*%
X176022000Y-110744000D03*
%TO.P,J8,4*%
X178562000Y-110744000D03*
%TD*%
D14*
%TO.P,J8,1*%
%TO.N,N/C*%
X130302000Y-110744000D03*
D10*
%TO.P,J8,2*%
X132842000Y-110744000D03*
%TO.P,J8,3*%
X135382000Y-110744000D03*
%TO.P,J8,4*%
X137922000Y-110744000D03*
%TD*%
D14*
%TO.P,J8,1*%
%TO.N,N/C*%
X150622000Y-110744000D03*
D10*
%TO.P,J8,2*%
X153162000Y-110744000D03*
%TO.P,J8,3*%
X155702000Y-110744000D03*
%TO.P,J8,4*%
X158242000Y-110744000D03*
%TD*%
D14*
%TO.P,J8,1*%
%TO.N,N/C*%
X160782000Y-110744000D03*
D10*
%TO.P,J8,2*%
X163322000Y-110744000D03*
%TO.P,J8,3*%
X165862000Y-110744000D03*
%TO.P,J8,4*%
X168402000Y-110744000D03*
%TD*%
D14*
%TO.P,J8,1*%
%TO.N,N/C*%
X140462000Y-110744000D03*
D10*
%TO.P,J8,2*%
X143002000Y-110744000D03*
%TO.P,J8,3*%
X145542000Y-110744000D03*
%TO.P,J8,4*%
X148082000Y-110744000D03*
%TD*%
D14*
%TO.P,J8,1*%
%TO.N,N/C*%
X120142000Y-110744000D03*
D10*
%TO.P,J8,2*%
X122682000Y-110744000D03*
%TO.P,J8,3*%
X125222000Y-110744000D03*
%TO.P,J8,4*%
X127762000Y-110744000D03*
%TD*%
%TO.P,J8,4*%
%TO.N,N/C*%
X117602000Y-75184000D03*
%TO.P,J8,3*%
X115062000Y-75184000D03*
%TO.P,J8,2*%
X112522000Y-75184000D03*
D14*
%TO.P,J8,1*%
X109982000Y-75184000D03*
%TD*%
%TO.P,J8,1*%
%TO.N,N/C*%
X181102000Y-75184000D03*
D10*
%TO.P,J8,2*%
X183642000Y-75184000D03*
%TO.P,J8,3*%
X186182000Y-75184000D03*
%TO.P,J8,4*%
X188722000Y-75184000D03*
%TD*%
D14*
%TO.P,J8,1*%
%TO.N,N/C*%
X170942000Y-75184000D03*
D10*
%TO.P,J8,2*%
X173482000Y-75184000D03*
%TO.P,J8,3*%
X176022000Y-75184000D03*
%TO.P,J8,4*%
X178562000Y-75184000D03*
%TD*%
D14*
%TO.P,J8,1*%
%TO.N,N/C*%
X130302000Y-75184000D03*
D10*
%TO.P,J8,2*%
X132842000Y-75184000D03*
%TO.P,J8,3*%
X135382000Y-75184000D03*
%TO.P,J8,4*%
X137922000Y-75184000D03*
%TD*%
D14*
%TO.P,J8,1*%
%TO.N,N/C*%
X150622000Y-75184000D03*
D10*
%TO.P,J8,2*%
X153162000Y-75184000D03*
%TO.P,J8,3*%
X155702000Y-75184000D03*
%TO.P,J8,4*%
X158242000Y-75184000D03*
%TD*%
D14*
%TO.P,J8,1*%
%TO.N,N/C*%
X160782000Y-75184000D03*
D10*
%TO.P,J8,2*%
X163322000Y-75184000D03*
%TO.P,J8,3*%
X165862000Y-75184000D03*
%TO.P,J8,4*%
X168402000Y-75184000D03*
%TD*%
D14*
%TO.P,J8,1*%
%TO.N,N/C*%
X140462000Y-75184000D03*
D10*
%TO.P,J8,2*%
X143002000Y-75184000D03*
%TO.P,J8,3*%
X145542000Y-75184000D03*
%TO.P,J8,4*%
X148082000Y-75184000D03*
%TD*%
D14*
%TO.P,J8,1*%
%TO.N,N/C*%
X120142000Y-75184000D03*
D10*
%TO.P,J8,2*%
X122682000Y-75184000D03*
%TO.P,J8,3*%
X125222000Y-75184000D03*
%TO.P,J8,4*%
X127762000Y-75184000D03*
%TD*%
%TO.P,J13,5*%
%TO.N,N/C*%
X188722000Y-106934000D03*
%TO.P,J13,4*%
X188722000Y-104394000D03*
%TO.P,J13,3*%
X188722000Y-101854000D03*
%TO.P,J13,2*%
X188722000Y-99314000D03*
D14*
%TO.P,J13,1*%
X188722000Y-96774000D03*
%TD*%
D10*
%TO.P,J13,5*%
%TO.N,N/C*%
X186182000Y-106934000D03*
%TO.P,J13,4*%
X186182000Y-104394000D03*
%TO.P,J13,3*%
X186182000Y-101854000D03*
%TO.P,J13,2*%
X186182000Y-99314000D03*
D14*
%TO.P,J13,1*%
X186182000Y-96774000D03*
%TD*%
D10*
%TO.P,J13,5*%
%TO.N,N/C*%
X186182000Y-89154000D03*
%TO.P,J13,4*%
X186182000Y-86614000D03*
%TO.P,J13,3*%
X186182000Y-84074000D03*
%TO.P,J13,2*%
X186182000Y-81534000D03*
D14*
%TO.P,J13,1*%
X186182000Y-78994000D03*
%TD*%
D10*
%TO.P,J8,4*%
%TO.N,N/C*%
X188722000Y-72644000D03*
%TO.P,J8,3*%
X186182000Y-72644000D03*
%TO.P,J8,2*%
X183642000Y-72644000D03*
D14*
%TO.P,J8,1*%
X181102000Y-72644000D03*
%TD*%
D10*
%TO.P,J8,4*%
%TO.N,N/C*%
X178562000Y-72644000D03*
%TO.P,J8,3*%
X176022000Y-72644000D03*
%TO.P,J8,2*%
X173482000Y-72644000D03*
D14*
%TO.P,J8,1*%
X170942000Y-72644000D03*
%TD*%
D10*
%TO.P,J8,4*%
%TO.N,N/C*%
X168402000Y-72644000D03*
%TO.P,J8,3*%
X165862000Y-72644000D03*
%TO.P,J8,2*%
X163322000Y-72644000D03*
D14*
%TO.P,J8,1*%
X160782000Y-72644000D03*
%TD*%
D10*
%TO.P,J8,4*%
%TO.N,N/C*%
X158242000Y-72644000D03*
%TO.P,J8,3*%
X155702000Y-72644000D03*
%TO.P,J8,2*%
X153162000Y-72644000D03*
D14*
%TO.P,J8,1*%
X150622000Y-72644000D03*
%TD*%
D10*
%TO.P,J8,4*%
%TO.N,N/C*%
X148082000Y-72644000D03*
%TO.P,J8,3*%
X145542000Y-72644000D03*
%TO.P,J8,2*%
X143002000Y-72644000D03*
D14*
%TO.P,J8,1*%
X140462000Y-72644000D03*
%TD*%
D10*
%TO.P,J8,4*%
%TO.N,N/C*%
X137922000Y-72644000D03*
%TO.P,J8,3*%
X135382000Y-72644000D03*
%TO.P,J8,2*%
X132842000Y-72644000D03*
D14*
%TO.P,J8,1*%
X130302000Y-72644000D03*
%TD*%
D10*
%TO.P,J8,4*%
%TO.N,N/C*%
X127762000Y-72644000D03*
%TO.P,J8,3*%
X125222000Y-72644000D03*
%TO.P,J8,2*%
X122682000Y-72644000D03*
D14*
%TO.P,J8,1*%
X120142000Y-72644000D03*
%TD*%
%TO.P,J8,1*%
%TO.N,N/C*%
X109982000Y-72644000D03*
D10*
%TO.P,J8,2*%
X112522000Y-72644000D03*
%TO.P,J8,3*%
X115062000Y-72644000D03*
%TO.P,J8,4*%
X117602000Y-72644000D03*
%TD*%
%TO.P,J13,5*%
%TO.N,N/C*%
X135382000Y-106934000D03*
%TO.P,J13,4*%
X135382000Y-104394000D03*
%TO.P,J13,3*%
X135382000Y-101854000D03*
%TO.P,J13,2*%
X135382000Y-99314000D03*
D14*
%TO.P,J13,1*%
X135382000Y-96774000D03*
%TD*%
D10*
%TO.P,J13,5*%
%TO.N,N/C*%
X178562000Y-106934000D03*
%TO.P,J13,4*%
X178562000Y-104394000D03*
%TO.P,J13,3*%
X178562000Y-101854000D03*
%TO.P,J13,2*%
X178562000Y-99314000D03*
D14*
%TO.P,J13,1*%
X178562000Y-96774000D03*
%TD*%
D10*
%TO.P,J13,5*%
%TO.N,N/C*%
X173482000Y-106934000D03*
%TO.P,J13,4*%
X173482000Y-104394000D03*
%TO.P,J13,3*%
X173482000Y-101854000D03*
%TO.P,J13,2*%
X173482000Y-99314000D03*
D14*
%TO.P,J13,1*%
X173482000Y-96774000D03*
%TD*%
D10*
%TO.P,J13,5*%
%TO.N,N/C*%
X163322000Y-106934000D03*
%TO.P,J13,4*%
X163322000Y-104394000D03*
%TO.P,J13,3*%
X163322000Y-101854000D03*
%TO.P,J13,2*%
X163322000Y-99314000D03*
D14*
%TO.P,J13,1*%
X163322000Y-96774000D03*
%TD*%
D10*
%TO.P,J13,5*%
%TO.N,N/C*%
X176022000Y-106934000D03*
%TO.P,J13,4*%
X176022000Y-104394000D03*
%TO.P,J13,3*%
X176022000Y-101854000D03*
%TO.P,J13,2*%
X176022000Y-99314000D03*
D14*
%TO.P,J13,1*%
X176022000Y-96774000D03*
%TD*%
D10*
%TO.P,J13,5*%
%TO.N,N/C*%
X168402000Y-106934000D03*
%TO.P,J13,4*%
X168402000Y-104394000D03*
%TO.P,J13,3*%
X168402000Y-101854000D03*
%TO.P,J13,2*%
X168402000Y-99314000D03*
D14*
%TO.P,J13,1*%
X168402000Y-96774000D03*
%TD*%
D10*
%TO.P,J13,5*%
%TO.N,N/C*%
X170942000Y-106934000D03*
%TO.P,J13,4*%
X170942000Y-104394000D03*
%TO.P,J13,3*%
X170942000Y-101854000D03*
%TO.P,J13,2*%
X170942000Y-99314000D03*
D14*
%TO.P,J13,1*%
X170942000Y-96774000D03*
%TD*%
D10*
%TO.P,J13,5*%
%TO.N,N/C*%
X183642000Y-106934000D03*
%TO.P,J13,4*%
X183642000Y-104394000D03*
%TO.P,J13,3*%
X183642000Y-101854000D03*
%TO.P,J13,2*%
X183642000Y-99314000D03*
D14*
%TO.P,J13,1*%
X183642000Y-96774000D03*
%TD*%
D10*
%TO.P,J13,5*%
%TO.N,N/C*%
X181102000Y-106934000D03*
%TO.P,J13,4*%
X181102000Y-104394000D03*
%TO.P,J13,3*%
X181102000Y-101854000D03*
%TO.P,J13,2*%
X181102000Y-99314000D03*
D14*
%TO.P,J13,1*%
X181102000Y-96774000D03*
%TD*%
D10*
%TO.P,J13,5*%
%TO.N,N/C*%
X165862000Y-106934000D03*
%TO.P,J13,4*%
X165862000Y-104394000D03*
%TO.P,J13,3*%
X165862000Y-101854000D03*
%TO.P,J13,2*%
X165862000Y-99314000D03*
D14*
%TO.P,J13,1*%
X165862000Y-96774000D03*
%TD*%
D10*
%TO.P,J13,5*%
%TO.N,N/C*%
X158242000Y-106934000D03*
%TO.P,J13,4*%
X158242000Y-104394000D03*
%TO.P,J13,3*%
X158242000Y-101854000D03*
%TO.P,J13,2*%
X158242000Y-99314000D03*
D14*
%TO.P,J13,1*%
X158242000Y-96774000D03*
%TD*%
D10*
%TO.P,J13,5*%
%TO.N,N/C*%
X153162000Y-106934000D03*
%TO.P,J13,4*%
X153162000Y-104394000D03*
%TO.P,J13,3*%
X153162000Y-101854000D03*
%TO.P,J13,2*%
X153162000Y-99314000D03*
D14*
%TO.P,J13,1*%
X153162000Y-96774000D03*
%TD*%
D10*
%TO.P,J13,5*%
%TO.N,N/C*%
X127762000Y-106934000D03*
%TO.P,J13,4*%
X127762000Y-104394000D03*
%TO.P,J13,3*%
X127762000Y-101854000D03*
%TO.P,J13,2*%
X127762000Y-99314000D03*
D14*
%TO.P,J13,1*%
X127762000Y-96774000D03*
%TD*%
D10*
%TO.P,J13,5*%
%TO.N,N/C*%
X148082000Y-106934000D03*
%TO.P,J13,4*%
X148082000Y-104394000D03*
%TO.P,J13,3*%
X148082000Y-101854000D03*
%TO.P,J13,2*%
X148082000Y-99314000D03*
D14*
%TO.P,J13,1*%
X148082000Y-96774000D03*
%TD*%
D10*
%TO.P,J13,5*%
%TO.N,N/C*%
X143002000Y-106934000D03*
%TO.P,J13,4*%
X143002000Y-104394000D03*
%TO.P,J13,3*%
X143002000Y-101854000D03*
%TO.P,J13,2*%
X143002000Y-99314000D03*
D14*
%TO.P,J13,1*%
X143002000Y-96774000D03*
%TD*%
D10*
%TO.P,J13,5*%
%TO.N,N/C*%
X140462000Y-106934000D03*
%TO.P,J13,4*%
X140462000Y-104394000D03*
%TO.P,J13,3*%
X140462000Y-101854000D03*
%TO.P,J13,2*%
X140462000Y-99314000D03*
D14*
%TO.P,J13,1*%
X140462000Y-96774000D03*
%TD*%
D10*
%TO.P,J13,5*%
%TO.N,N/C*%
X132842000Y-106934000D03*
%TO.P,J13,4*%
X132842000Y-104394000D03*
%TO.P,J13,3*%
X132842000Y-101854000D03*
%TO.P,J13,2*%
X132842000Y-99314000D03*
D14*
%TO.P,J13,1*%
X132842000Y-96774000D03*
%TD*%
D10*
%TO.P,J13,5*%
%TO.N,N/C*%
X117602000Y-106934000D03*
%TO.P,J13,4*%
X117602000Y-104394000D03*
%TO.P,J13,3*%
X117602000Y-101854000D03*
%TO.P,J13,2*%
X117602000Y-99314000D03*
D14*
%TO.P,J13,1*%
X117602000Y-96774000D03*
%TD*%
D10*
%TO.P,J13,5*%
%TO.N,N/C*%
X115062000Y-106934000D03*
%TO.P,J13,4*%
X115062000Y-104394000D03*
%TO.P,J13,3*%
X115062000Y-101854000D03*
%TO.P,J13,2*%
X115062000Y-99314000D03*
D14*
%TO.P,J13,1*%
X115062000Y-96774000D03*
%TD*%
D10*
%TO.P,J13,5*%
%TO.N,N/C*%
X150622000Y-106934000D03*
%TO.P,J13,4*%
X150622000Y-104394000D03*
%TO.P,J13,3*%
X150622000Y-101854000D03*
%TO.P,J13,2*%
X150622000Y-99314000D03*
D14*
%TO.P,J13,1*%
X150622000Y-96774000D03*
%TD*%
D10*
%TO.P,J13,5*%
%TO.N,N/C*%
X155702000Y-106934000D03*
%TO.P,J13,4*%
X155702000Y-104394000D03*
%TO.P,J13,3*%
X155702000Y-101854000D03*
%TO.P,J13,2*%
X155702000Y-99314000D03*
D14*
%TO.P,J13,1*%
X155702000Y-96774000D03*
%TD*%
D10*
%TO.P,J13,5*%
%TO.N,N/C*%
X130302000Y-106934000D03*
%TO.P,J13,4*%
X130302000Y-104394000D03*
%TO.P,J13,3*%
X130302000Y-101854000D03*
%TO.P,J13,2*%
X130302000Y-99314000D03*
D14*
%TO.P,J13,1*%
X130302000Y-96774000D03*
%TD*%
D10*
%TO.P,J13,5*%
%TO.N,N/C*%
X145542000Y-106934000D03*
%TO.P,J13,4*%
X145542000Y-104394000D03*
%TO.P,J13,3*%
X145542000Y-101854000D03*
%TO.P,J13,2*%
X145542000Y-99314000D03*
D14*
%TO.P,J13,1*%
X145542000Y-96774000D03*
%TD*%
D10*
%TO.P,J13,5*%
%TO.N,N/C*%
X122682000Y-106934000D03*
%TO.P,J13,4*%
X122682000Y-104394000D03*
%TO.P,J13,3*%
X122682000Y-101854000D03*
%TO.P,J13,2*%
X122682000Y-99314000D03*
D14*
%TO.P,J13,1*%
X122682000Y-96774000D03*
%TD*%
D10*
%TO.P,J13,5*%
%TO.N,N/C*%
X160782000Y-106934000D03*
%TO.P,J13,4*%
X160782000Y-104394000D03*
%TO.P,J13,3*%
X160782000Y-101854000D03*
%TO.P,J13,2*%
X160782000Y-99314000D03*
D14*
%TO.P,J13,1*%
X160782000Y-96774000D03*
%TD*%
D10*
%TO.P,J13,5*%
%TO.N,N/C*%
X125222000Y-106934000D03*
%TO.P,J13,4*%
X125222000Y-104394000D03*
%TO.P,J13,3*%
X125222000Y-101854000D03*
%TO.P,J13,2*%
X125222000Y-99314000D03*
D14*
%TO.P,J13,1*%
X125222000Y-96774000D03*
%TD*%
D10*
%TO.P,J13,5*%
%TO.N,N/C*%
X120142000Y-106934000D03*
%TO.P,J13,4*%
X120142000Y-104394000D03*
%TO.P,J13,3*%
X120142000Y-101854000D03*
%TO.P,J13,2*%
X120142000Y-99314000D03*
D14*
%TO.P,J13,1*%
X120142000Y-96774000D03*
%TD*%
%TO.P,J13,1*%
%TO.N,N/C*%
X109982000Y-96774000D03*
D10*
%TO.P,J13,2*%
X109982000Y-99314000D03*
%TO.P,J13,3*%
X109982000Y-101854000D03*
%TO.P,J13,4*%
X109982000Y-104394000D03*
%TO.P,J13,5*%
X109982000Y-106934000D03*
%TD*%
%TO.P,J13,5*%
%TO.N,N/C*%
X137922000Y-106934000D03*
%TO.P,J13,4*%
X137922000Y-104394000D03*
%TO.P,J13,3*%
X137922000Y-101854000D03*
%TO.P,J13,2*%
X137922000Y-99314000D03*
D14*
%TO.P,J13,1*%
X137922000Y-96774000D03*
%TD*%
D10*
%TO.P,J13,5*%
%TO.N,N/C*%
X112522000Y-106934000D03*
%TO.P,J13,4*%
X112522000Y-104394000D03*
%TO.P,J13,3*%
X112522000Y-101854000D03*
%TO.P,J13,2*%
X112522000Y-99314000D03*
D14*
%TO.P,J13,1*%
X112522000Y-96774000D03*
%TD*%
%TO.P,J13,1*%
%TO.N,N/C*%
X183642000Y-78994000D03*
D10*
%TO.P,J13,2*%
X183642000Y-81534000D03*
%TO.P,J13,3*%
X183642000Y-84074000D03*
%TO.P,J13,4*%
X183642000Y-86614000D03*
%TO.P,J13,5*%
X183642000Y-89154000D03*
%TD*%
D14*
%TO.P,J13,1*%
%TO.N,N/C*%
X181102000Y-78994000D03*
D10*
%TO.P,J13,2*%
X181102000Y-81534000D03*
%TO.P,J13,3*%
X181102000Y-84074000D03*
%TO.P,J13,4*%
X181102000Y-86614000D03*
%TO.P,J13,5*%
X181102000Y-89154000D03*
%TD*%
D14*
%TO.P,J13,1*%
%TO.N,N/C*%
X178562000Y-78994000D03*
D10*
%TO.P,J13,2*%
X178562000Y-81534000D03*
%TO.P,J13,3*%
X178562000Y-84074000D03*
%TO.P,J13,4*%
X178562000Y-86614000D03*
%TO.P,J13,5*%
X178562000Y-89154000D03*
%TD*%
D14*
%TO.P,J13,1*%
%TO.N,N/C*%
X176022000Y-78994000D03*
D10*
%TO.P,J13,2*%
X176022000Y-81534000D03*
%TO.P,J13,3*%
X176022000Y-84074000D03*
%TO.P,J13,4*%
X176022000Y-86614000D03*
%TO.P,J13,5*%
X176022000Y-89154000D03*
%TD*%
D14*
%TO.P,J13,1*%
%TO.N,N/C*%
X170942000Y-78994000D03*
D10*
%TO.P,J13,2*%
X170942000Y-81534000D03*
%TO.P,J13,3*%
X170942000Y-84074000D03*
%TO.P,J13,4*%
X170942000Y-86614000D03*
%TO.P,J13,5*%
X170942000Y-89154000D03*
%TD*%
D14*
%TO.P,J13,1*%
%TO.N,N/C*%
X168402000Y-78994000D03*
D10*
%TO.P,J13,2*%
X168402000Y-81534000D03*
%TO.P,J13,3*%
X168402000Y-84074000D03*
%TO.P,J13,4*%
X168402000Y-86614000D03*
%TO.P,J13,5*%
X168402000Y-89154000D03*
%TD*%
D14*
%TO.P,J13,1*%
%TO.N,N/C*%
X165862000Y-78994000D03*
D10*
%TO.P,J13,2*%
X165862000Y-81534000D03*
%TO.P,J13,3*%
X165862000Y-84074000D03*
%TO.P,J13,4*%
X165862000Y-86614000D03*
%TO.P,J13,5*%
X165862000Y-89154000D03*
%TD*%
D14*
%TO.P,J13,1*%
%TO.N,N/C*%
X163322000Y-78994000D03*
D10*
%TO.P,J13,2*%
X163322000Y-81534000D03*
%TO.P,J13,3*%
X163322000Y-84074000D03*
%TO.P,J13,4*%
X163322000Y-86614000D03*
%TO.P,J13,5*%
X163322000Y-89154000D03*
%TD*%
D14*
%TO.P,J13,1*%
%TO.N,N/C*%
X158242000Y-78994000D03*
D10*
%TO.P,J13,2*%
X158242000Y-81534000D03*
%TO.P,J13,3*%
X158242000Y-84074000D03*
%TO.P,J13,4*%
X158242000Y-86614000D03*
%TO.P,J13,5*%
X158242000Y-89154000D03*
%TD*%
D14*
%TO.P,J13,1*%
%TO.N,N/C*%
X155702000Y-78994000D03*
D10*
%TO.P,J13,2*%
X155702000Y-81534000D03*
%TO.P,J13,3*%
X155702000Y-84074000D03*
%TO.P,J13,4*%
X155702000Y-86614000D03*
%TO.P,J13,5*%
X155702000Y-89154000D03*
%TD*%
D14*
%TO.P,J13,1*%
%TO.N,N/C*%
X153162000Y-78994000D03*
D10*
%TO.P,J13,2*%
X153162000Y-81534000D03*
%TO.P,J13,3*%
X153162000Y-84074000D03*
%TO.P,J13,4*%
X153162000Y-86614000D03*
%TO.P,J13,5*%
X153162000Y-89154000D03*
%TD*%
D14*
%TO.P,J13,1*%
%TO.N,N/C*%
X150622000Y-78994000D03*
D10*
%TO.P,J13,2*%
X150622000Y-81534000D03*
%TO.P,J13,3*%
X150622000Y-84074000D03*
%TO.P,J13,4*%
X150622000Y-86614000D03*
%TO.P,J13,5*%
X150622000Y-89154000D03*
%TD*%
D14*
%TO.P,J13,1*%
%TO.N,N/C*%
X148082000Y-78994000D03*
D10*
%TO.P,J13,2*%
X148082000Y-81534000D03*
%TO.P,J13,3*%
X148082000Y-84074000D03*
%TO.P,J13,4*%
X148082000Y-86614000D03*
%TO.P,J13,5*%
X148082000Y-89154000D03*
%TD*%
D14*
%TO.P,J13,1*%
%TO.N,N/C*%
X145542000Y-78994000D03*
D10*
%TO.P,J13,2*%
X145542000Y-81534000D03*
%TO.P,J13,3*%
X145542000Y-84074000D03*
%TO.P,J13,4*%
X145542000Y-86614000D03*
%TO.P,J13,5*%
X145542000Y-89154000D03*
%TD*%
D14*
%TO.P,J13,1*%
%TO.N,N/C*%
X143002000Y-78994000D03*
D10*
%TO.P,J13,2*%
X143002000Y-81534000D03*
%TO.P,J13,3*%
X143002000Y-84074000D03*
%TO.P,J13,4*%
X143002000Y-86614000D03*
%TO.P,J13,5*%
X143002000Y-89154000D03*
%TD*%
D14*
%TO.P,J13,1*%
%TO.N,N/C*%
X140462000Y-78994000D03*
D10*
%TO.P,J13,2*%
X140462000Y-81534000D03*
%TO.P,J13,3*%
X140462000Y-84074000D03*
%TO.P,J13,4*%
X140462000Y-86614000D03*
%TO.P,J13,5*%
X140462000Y-89154000D03*
%TD*%
D14*
%TO.P,J13,1*%
%TO.N,N/C*%
X137922000Y-78994000D03*
D10*
%TO.P,J13,2*%
X137922000Y-81534000D03*
%TO.P,J13,3*%
X137922000Y-84074000D03*
%TO.P,J13,4*%
X137922000Y-86614000D03*
%TO.P,J13,5*%
X137922000Y-89154000D03*
%TD*%
D14*
%TO.P,J13,1*%
%TO.N,N/C*%
X160782000Y-78994000D03*
D10*
%TO.P,J13,2*%
X160782000Y-81534000D03*
%TO.P,J13,3*%
X160782000Y-84074000D03*
%TO.P,J13,4*%
X160782000Y-86614000D03*
%TO.P,J13,5*%
X160782000Y-89154000D03*
%TD*%
D14*
%TO.P,J13,1*%
%TO.N,N/C*%
X132842000Y-78994000D03*
D10*
%TO.P,J13,2*%
X132842000Y-81534000D03*
%TO.P,J13,3*%
X132842000Y-84074000D03*
%TO.P,J13,4*%
X132842000Y-86614000D03*
%TO.P,J13,5*%
X132842000Y-89154000D03*
%TD*%
D14*
%TO.P,J13,1*%
%TO.N,N/C*%
X130302000Y-78994000D03*
D10*
%TO.P,J13,2*%
X130302000Y-81534000D03*
%TO.P,J13,3*%
X130302000Y-84074000D03*
%TO.P,J13,4*%
X130302000Y-86614000D03*
%TO.P,J13,5*%
X130302000Y-89154000D03*
%TD*%
D14*
%TO.P,J13,1*%
%TO.N,N/C*%
X127762000Y-78994000D03*
D10*
%TO.P,J13,2*%
X127762000Y-81534000D03*
%TO.P,J13,3*%
X127762000Y-84074000D03*
%TO.P,J13,4*%
X127762000Y-86614000D03*
%TO.P,J13,5*%
X127762000Y-89154000D03*
%TD*%
D14*
%TO.P,J13,1*%
%TO.N,N/C*%
X125222000Y-78994000D03*
D10*
%TO.P,J13,2*%
X125222000Y-81534000D03*
%TO.P,J13,3*%
X125222000Y-84074000D03*
%TO.P,J13,4*%
X125222000Y-86614000D03*
%TO.P,J13,5*%
X125222000Y-89154000D03*
%TD*%
D14*
%TO.P,J13,1*%
%TO.N,N/C*%
X122682000Y-78994000D03*
D10*
%TO.P,J13,2*%
X122682000Y-81534000D03*
%TO.P,J13,3*%
X122682000Y-84074000D03*
%TO.P,J13,4*%
X122682000Y-86614000D03*
%TO.P,J13,5*%
X122682000Y-89154000D03*
%TD*%
D14*
%TO.P,J13,1*%
%TO.N,N/C*%
X120142000Y-78994000D03*
D10*
%TO.P,J13,2*%
X120142000Y-81534000D03*
%TO.P,J13,3*%
X120142000Y-84074000D03*
%TO.P,J13,4*%
X120142000Y-86614000D03*
%TO.P,J13,5*%
X120142000Y-89154000D03*
%TD*%
D14*
%TO.P,J13,1*%
%TO.N,N/C*%
X117602000Y-78994000D03*
D10*
%TO.P,J13,2*%
X117602000Y-81534000D03*
%TO.P,J13,3*%
X117602000Y-84074000D03*
%TO.P,J13,4*%
X117602000Y-86614000D03*
%TO.P,J13,5*%
X117602000Y-89154000D03*
%TD*%
D14*
%TO.P,J13,1*%
%TO.N,N/C*%
X115062000Y-78994000D03*
D10*
%TO.P,J13,2*%
X115062000Y-81534000D03*
%TO.P,J13,3*%
X115062000Y-84074000D03*
%TO.P,J13,4*%
X115062000Y-86614000D03*
%TO.P,J13,5*%
X115062000Y-89154000D03*
%TD*%
D14*
%TO.P,J13,1*%
%TO.N,N/C*%
X112522000Y-78994000D03*
D10*
%TO.P,J13,2*%
X112522000Y-81534000D03*
%TO.P,J13,3*%
X112522000Y-84074000D03*
%TO.P,J13,4*%
X112522000Y-86614000D03*
%TO.P,J13,5*%
X112522000Y-89154000D03*
%TD*%
%TO.P,J13,5*%
%TO.N,N/C*%
X109982000Y-89154000D03*
%TO.P,J13,4*%
X109982000Y-86614000D03*
%TO.P,J13,3*%
X109982000Y-84074000D03*
%TO.P,J13,2*%
X109982000Y-81534000D03*
D14*
%TO.P,J13,1*%
X109982000Y-78994000D03*
%TD*%
%TO.P,J13,1*%
%TO.N,N/C*%
X135382000Y-78994000D03*
D10*
%TO.P,J13,2*%
X135382000Y-81534000D03*
%TO.P,J13,3*%
X135382000Y-84074000D03*
%TO.P,J13,4*%
X135382000Y-86614000D03*
%TO.P,J13,5*%
X135382000Y-89154000D03*
%TD*%
%TO.P,J9,10*%
%TO.N,GND*%
X172913500Y-121437400D03*
%TO.P,J9,9*%
X172913500Y-118897400D03*
%TO.P,J9,8*%
%TO.N,/PH0*%
X175453500Y-121437400D03*
%TO.P,J9,7*%
%TO.N,/~INH*%
X175453500Y-118897400D03*
%TO.P,J9,6*%
%TO.N,/Q3*%
X177993500Y-121437400D03*
%TO.P,J9,5*%
%TO.N,/RW*%
X177993500Y-118897400D03*
%TO.P,J9,4*%
%TO.N,/CREF*%
X180533500Y-121437400D03*
%TO.P,J9,3*%
%TO.N,/~RESET*%
X180533500Y-118897400D03*
%TO.P,J9,2*%
%TO.N,/7M*%
X183073500Y-121437400D03*
D11*
%TO.P,J9,1*%
%TO.N,/~IRQ*%
X183073500Y-118897400D03*
%TD*%
D10*
%TO.P,J7,10*%
%TO.N,GND*%
X109394500Y-121437400D03*
%TO.P,J7,9*%
X109394500Y-118897400D03*
%TO.P,J7,8*%
%TO.N,/KSEL2*%
X111934500Y-121437400D03*
%TO.P,J7,7*%
%TO.N,/PDLTRIG*%
X111934500Y-118897400D03*
%TO.P,J7,6*%
%TO.N,/KSEL1*%
X114474500Y-121437400D03*
%TO.P,J7,5*%
%TO.N,/~DMA*%
X114474500Y-118897400D03*
%TO.P,J7,4*%
%TO.N,/KSEL0*%
X117014500Y-121437400D03*
%TO.P,J7,3*%
%TO.N,/~NMI*%
X117014500Y-118897400D03*
%TO.P,J7,2*%
%TO.N,/C060-67*%
X119554500Y-121437400D03*
D11*
%TO.P,J7,1*%
%TO.N,/~RDY*%
X119554500Y-118897400D03*
%TD*%
D10*
%TO.P,J6,8*%
%TO.N,-12V*%
X190666500Y-121437400D03*
%TO.P,J6,7*%
X190666500Y-118897400D03*
%TO.P,J6,6*%
%TO.N,+12V*%
X193206500Y-121437400D03*
%TO.P,J6,5*%
X193206500Y-118897400D03*
%TO.P,J6,4*%
%TO.N,+5V*%
X195746500Y-121437400D03*
%TO.P,J6,3*%
X195746500Y-118897400D03*
%TO.P,J6,2*%
%TO.N,GND*%
X198286500Y-121437400D03*
D11*
%TO.P,J6,1*%
X198286500Y-118897400D03*
%TD*%
D10*
%TO.P,J5,4*%
%TO.N,GND*%
X195645600Y-94792800D03*
%TO.P,J5,3*%
X195645600Y-92252800D03*
%TO.P,J5,2*%
%TO.N,-5V*%
X198185600Y-94792800D03*
D11*
%TO.P,J5,1*%
X198185600Y-92252800D03*
%TD*%
%TO.P,R4,2*%
%TO.N,Net-(D4-Pad2)*%
%TA.AperFunction,SMDPad,CuDef*%
G36*
G01*
X196272100Y-74262401D02*
X196272100Y-73362399D01*
G75*
G02*
X196522099Y-73112400I249999J0D01*
G01*
X197047101Y-73112400D01*
G75*
G02*
X197297100Y-73362399I0J-249999D01*
G01*
X197297100Y-74262401D01*
G75*
G02*
X197047101Y-74512400I-249999J0D01*
G01*
X196522099Y-74512400D01*
G75*
G02*
X196272100Y-74262401I0J249999D01*
G01*
G37*
%TD.AperFunction*%
%TO.P,R4,1*%
%TO.N,GND*%
%TA.AperFunction,SMDPad,CuDef*%
G36*
G01*
X194447100Y-74262401D02*
X194447100Y-73362399D01*
G75*
G02*
X194697099Y-73112400I249999J0D01*
G01*
X195222101Y-73112400D01*
G75*
G02*
X195472100Y-73362399I0J-249999D01*
G01*
X195472100Y-74262401D01*
G75*
G02*
X195222101Y-74512400I-249999J0D01*
G01*
X194697099Y-74512400D01*
G75*
G02*
X194447100Y-74262401I0J249999D01*
G01*
G37*
%TD.AperFunction*%
%TD*%
%TO.P,C4,2*%
%TO.N,GND*%
%TA.AperFunction,SMDPad,CuDef*%
G36*
G01*
X193616600Y-114650100D02*
X192666600Y-114650100D01*
G75*
G02*
X192416600Y-114400100I0J250000D01*
G01*
X192416600Y-113900100D01*
G75*
G02*
X192666600Y-113650100I250000J0D01*
G01*
X193616600Y-113650100D01*
G75*
G02*
X193866600Y-113900100I0J-250000D01*
G01*
X193866600Y-114400100D01*
G75*
G02*
X193616600Y-114650100I-250000J0D01*
G01*
G37*
%TD.AperFunction*%
%TO.P,C4,1*%
%TO.N,+12V*%
%TA.AperFunction,SMDPad,CuDef*%
G36*
G01*
X193616600Y-116550100D02*
X192666600Y-116550100D01*
G75*
G02*
X192416600Y-116300100I0J250000D01*
G01*
X192416600Y-115800100D01*
G75*
G02*
X192666600Y-115550100I250000J0D01*
G01*
X193616600Y-115550100D01*
G75*
G02*
X193866600Y-115800100I0J-250000D01*
G01*
X193866600Y-116300100D01*
G75*
G02*
X193616600Y-116550100I-250000J0D01*
G01*
G37*
%TD.AperFunction*%
%TD*%
D10*
%TO.P,J1,8*%
%TO.N,-12V*%
X190666500Y-128905000D03*
%TO.P,J1,7*%
X190666500Y-126365000D03*
%TO.P,J1,6*%
%TO.N,+12V*%
X193206500Y-128905000D03*
%TO.P,J1,5*%
X193206500Y-126365000D03*
%TO.P,J1,4*%
%TO.N,+5V*%
X195746500Y-128905000D03*
%TO.P,J1,3*%
X195746500Y-126365000D03*
%TO.P,J1,2*%
%TO.N,GND*%
X198286500Y-128905000D03*
D11*
%TO.P,J1,1*%
X198286500Y-126365000D03*
%TD*%
D10*
%TO.P,J4,10*%
%TO.N,GND*%
X172913500Y-128905000D03*
%TO.P,J4,9*%
X172913500Y-126365000D03*
%TO.P,J4,8*%
%TO.N,/PH0*%
X175453500Y-128905000D03*
%TO.P,J4,7*%
%TO.N,/~INH*%
X175453500Y-126365000D03*
%TO.P,J4,6*%
%TO.N,/Q3*%
X177993500Y-128905000D03*
%TO.P,J4,5*%
%TO.N,/RW*%
X177993500Y-126365000D03*
%TO.P,J4,4*%
%TO.N,/CREF*%
X180533500Y-128905000D03*
%TO.P,J4,3*%
%TO.N,/~RESET*%
X180533500Y-126365000D03*
%TO.P,J4,2*%
%TO.N,/7M*%
X183073500Y-128905000D03*
D11*
%TO.P,J4,1*%
%TO.N,/~IRQ*%
X183073500Y-126365000D03*
%TD*%
D10*
%TO.P,J2,10*%
%TO.N,GND*%
X109394500Y-128905000D03*
%TO.P,J2,9*%
X109394500Y-126365000D03*
%TO.P,J2,8*%
%TO.N,/KSEL2*%
X111934500Y-128905000D03*
%TO.P,J2,7*%
%TO.N,/PDLTRIG*%
X111934500Y-126365000D03*
%TO.P,J2,6*%
%TO.N,/KSEL1*%
X114474500Y-128905000D03*
%TO.P,J2,5*%
%TO.N,/~DMA*%
X114474500Y-126365000D03*
%TO.P,J2,4*%
%TO.N,/KSEL0*%
X117014500Y-128905000D03*
%TO.P,J2,3*%
%TO.N,/~NMI*%
X117014500Y-126365000D03*
%TO.P,J2,2*%
%TO.N,/C060-67*%
X119554500Y-128905000D03*
D11*
%TO.P,J2,1*%
%TO.N,/~RDY*%
X119554500Y-126365000D03*
%TD*%
D10*
%TO.P,J3,32*%
%TO.N,GND*%
X127254000Y-128905000D03*
%TO.P,J3,31*%
X127254000Y-126365000D03*
%TO.P,J3,30*%
%TO.N,/MD6*%
X129794000Y-128905000D03*
%TO.P,J3,29*%
%TO.N,/MD7*%
X129794000Y-126365000D03*
%TO.P,J3,28*%
%TO.N,/MD4*%
X132334000Y-128905000D03*
%TO.P,J3,27*%
%TO.N,/MD5*%
X132334000Y-126365000D03*
%TO.P,J3,26*%
%TO.N,/MD2*%
X134874000Y-128905000D03*
%TO.P,J3,25*%
%TO.N,/MD3*%
X134874000Y-126365000D03*
%TO.P,J3,24*%
%TO.N,/MD0*%
X137414000Y-128905000D03*
%TO.P,J3,23*%
%TO.N,/MD1*%
X137414000Y-126365000D03*
%TO.P,J3,22*%
%TO.N,GND*%
X139954000Y-128905000D03*
%TO.P,J3,21*%
X139954000Y-126365000D03*
%TO.P,J3,20*%
%TO.N,/BA14*%
X142494000Y-128905000D03*
%TO.P,J3,19*%
%TO.N,/BA15*%
X142494000Y-126365000D03*
%TO.P,J3,18*%
%TO.N,/BA12*%
X145034000Y-128905000D03*
%TO.P,J3,17*%
%TO.N,/BA13*%
X145034000Y-126365000D03*
%TO.P,J3,16*%
%TO.N,/BA10*%
X147574000Y-128905000D03*
%TO.P,J3,15*%
%TO.N,/BA11*%
X147574000Y-126365000D03*
%TO.P,J3,14*%
%TO.N,/BA8*%
X150114000Y-128905000D03*
%TO.P,J3,13*%
%TO.N,/BA9*%
X150114000Y-126365000D03*
%TO.P,J3,12*%
%TO.N,GND*%
X152654000Y-128905000D03*
%TO.P,J3,11*%
X152654000Y-126365000D03*
%TO.P,J3,10*%
%TO.N,/BA6*%
X155194000Y-128905000D03*
%TO.P,J3,9*%
%TO.N,/BA7*%
X155194000Y-126365000D03*
%TO.P,J3,8*%
%TO.N,/BA4*%
X157734000Y-128905000D03*
%TO.P,J3,7*%
%TO.N,/BA5*%
X157734000Y-126365000D03*
%TO.P,J3,6*%
%TO.N,/BA2*%
X160274000Y-128905000D03*
%TO.P,J3,5*%
%TO.N,/BA3*%
X160274000Y-126365000D03*
%TO.P,J3,4*%
%TO.N,/BA0*%
X162814000Y-128905000D03*
%TO.P,J3,3*%
%TO.N,/BA1*%
X162814000Y-126365000D03*
%TO.P,J3,2*%
%TO.N,GND*%
X165354000Y-128905000D03*
D11*
%TO.P,J3,1*%
X165354000Y-126365000D03*
%TD*%
%TO.P,R1,2*%
%TO.N,Net-(D1-Pad2)*%
%TA.AperFunction,SMDPad,CuDef*%
G36*
G01*
X196272100Y-79630268D02*
X196272100Y-78730266D01*
G75*
G02*
X196522099Y-78480267I249999J0D01*
G01*
X197047101Y-78480267D01*
G75*
G02*
X197297100Y-78730266I0J-249999D01*
G01*
X197297100Y-79630268D01*
G75*
G02*
X197047101Y-79880267I-249999J0D01*
G01*
X196522099Y-79880267D01*
G75*
G02*
X196272100Y-79630268I0J249999D01*
G01*
G37*
%TD.AperFunction*%
%TO.P,R1,1*%
%TO.N,GND*%
%TA.AperFunction,SMDPad,CuDef*%
G36*
G01*
X194447100Y-79630268D02*
X194447100Y-78730266D01*
G75*
G02*
X194697099Y-78480267I249999J0D01*
G01*
X195222101Y-78480267D01*
G75*
G02*
X195472100Y-78730266I0J-249999D01*
G01*
X195472100Y-79630268D01*
G75*
G02*
X195222101Y-79880267I-249999J0D01*
G01*
X194697099Y-79880267D01*
G75*
G02*
X194447100Y-79630268I0J249999D01*
G01*
G37*
%TD.AperFunction*%
%TD*%
%TO.P,R3,2*%
%TO.N,Net-(D3-Pad2)*%
%TA.AperFunction,SMDPad,CuDef*%
G36*
G01*
X196272100Y-82314201D02*
X196272100Y-81414199D01*
G75*
G02*
X196522099Y-81164200I249999J0D01*
G01*
X197047101Y-81164200D01*
G75*
G02*
X197297100Y-81414199I0J-249999D01*
G01*
X197297100Y-82314201D01*
G75*
G02*
X197047101Y-82564200I-249999J0D01*
G01*
X196522099Y-82564200D01*
G75*
G02*
X196272100Y-82314201I0J249999D01*
G01*
G37*
%TD.AperFunction*%
%TO.P,R3,1*%
%TO.N,+12V*%
%TA.AperFunction,SMDPad,CuDef*%
G36*
G01*
X194447100Y-82314201D02*
X194447100Y-81414199D01*
G75*
G02*
X194697099Y-81164200I249999J0D01*
G01*
X195222101Y-81164200D01*
G75*
G02*
X195472100Y-81414199I0J-249999D01*
G01*
X195472100Y-82314201D01*
G75*
G02*
X195222101Y-82564200I-249999J0D01*
G01*
X194697099Y-82564200D01*
G75*
G02*
X194447100Y-82314201I0J249999D01*
G01*
G37*
%TD.AperFunction*%
%TD*%
%TO.P,R2,2*%
%TO.N,Net-(D2-Pad2)*%
%TA.AperFunction,SMDPad,CuDef*%
G36*
G01*
X196272100Y-76946335D02*
X196272100Y-76046333D01*
G75*
G02*
X196522099Y-75796334I249999J0D01*
G01*
X197047101Y-75796334D01*
G75*
G02*
X197297100Y-76046333I0J-249999D01*
G01*
X197297100Y-76946335D01*
G75*
G02*
X197047101Y-77196334I-249999J0D01*
G01*
X196522099Y-77196334D01*
G75*
G02*
X196272100Y-76946335I0J249999D01*
G01*
G37*
%TD.AperFunction*%
%TO.P,R2,1*%
%TO.N,+5V*%
%TA.AperFunction,SMDPad,CuDef*%
G36*
G01*
X194447100Y-76946335D02*
X194447100Y-76046333D01*
G75*
G02*
X194697099Y-75796334I249999J0D01*
G01*
X195222101Y-75796334D01*
G75*
G02*
X195472100Y-76046333I0J-249999D01*
G01*
X195472100Y-76946335D01*
G75*
G02*
X195222101Y-77196334I-249999J0D01*
G01*
X194697099Y-77196334D01*
G75*
G02*
X194447100Y-76946335I0J249999D01*
G01*
G37*
%TD.AperFunction*%
%TD*%
%TO.P,C3,2*%
%TO.N,GND*%
%TA.AperFunction,SMDPad,CuDef*%
G36*
G01*
X196258200Y-114650100D02*
X195308200Y-114650100D01*
G75*
G02*
X195058200Y-114400100I0J250000D01*
G01*
X195058200Y-113900100D01*
G75*
G02*
X195308200Y-113650100I250000J0D01*
G01*
X196258200Y-113650100D01*
G75*
G02*
X196508200Y-113900100I0J-250000D01*
G01*
X196508200Y-114400100D01*
G75*
G02*
X196258200Y-114650100I-250000J0D01*
G01*
G37*
%TD.AperFunction*%
%TO.P,C3,1*%
%TO.N,+5V*%
%TA.AperFunction,SMDPad,CuDef*%
G36*
G01*
X196258200Y-116550100D02*
X195308200Y-116550100D01*
G75*
G02*
X195058200Y-116300100I0J250000D01*
G01*
X195058200Y-115800100D01*
G75*
G02*
X195308200Y-115550100I250000J0D01*
G01*
X196258200Y-115550100D01*
G75*
G02*
X196508200Y-115800100I0J-250000D01*
G01*
X196508200Y-116300100D01*
G75*
G02*
X196258200Y-116550100I-250000J0D01*
G01*
G37*
%TD.AperFunction*%
%TD*%
%TO.P,C2,2*%
%TO.N,GND*%
%TA.AperFunction,SMDPad,CuDef*%
G36*
G01*
X196590500Y-89377500D02*
X196590500Y-90327500D01*
G75*
G02*
X196340500Y-90577500I-250000J0D01*
G01*
X195840500Y-90577500D01*
G75*
G02*
X195590500Y-90327500I0J250000D01*
G01*
X195590500Y-89377500D01*
G75*
G02*
X195840500Y-89127500I250000J0D01*
G01*
X196340500Y-89127500D01*
G75*
G02*
X196590500Y-89377500I0J-250000D01*
G01*
G37*
%TD.AperFunction*%
%TO.P,C2,1*%
%TO.N,-5V*%
%TA.AperFunction,SMDPad,CuDef*%
G36*
G01*
X198490500Y-89377500D02*
X198490500Y-90327500D01*
G75*
G02*
X198240500Y-90577500I-250000J0D01*
G01*
X197740500Y-90577500D01*
G75*
G02*
X197490500Y-90327500I0J250000D01*
G01*
X197490500Y-89377500D01*
G75*
G02*
X197740500Y-89127500I250000J0D01*
G01*
X198240500Y-89127500D01*
G75*
G02*
X198490500Y-89377500I0J-250000D01*
G01*
G37*
%TD.AperFunction*%
%TD*%
%TO.P,C1,2*%
%TO.N,GND*%
%TA.AperFunction,SMDPad,CuDef*%
G36*
G01*
X187713600Y-120312600D02*
X188663600Y-120312600D01*
G75*
G02*
X188913600Y-120562600I0J-250000D01*
G01*
X188913600Y-121062600D01*
G75*
G02*
X188663600Y-121312600I-250000J0D01*
G01*
X187713600Y-121312600D01*
G75*
G02*
X187463600Y-121062600I0J250000D01*
G01*
X187463600Y-120562600D01*
G75*
G02*
X187713600Y-120312600I250000J0D01*
G01*
G37*
%TD.AperFunction*%
%TO.P,C1,1*%
%TO.N,-12V*%
%TA.AperFunction,SMDPad,CuDef*%
G36*
G01*
X187713600Y-118412600D02*
X188663600Y-118412600D01*
G75*
G02*
X188913600Y-118662600I0J-250000D01*
G01*
X188913600Y-119162600D01*
G75*
G02*
X188663600Y-119412600I-250000J0D01*
G01*
X187713600Y-119412600D01*
G75*
G02*
X187463600Y-119162600I0J250000D01*
G01*
X187463600Y-118662600D01*
G75*
G02*
X187713600Y-118412600I250000J0D01*
G01*
G37*
%TD.AperFunction*%
%TD*%
D15*
%TO.N,GND*%
X194513200Y-117144800D03*
X186944000Y-120142000D03*
X195834000Y-72390000D03*
X195072000Y-101346000D03*
%TO.N,+12V*%
X193206500Y-112609500D03*
X194183000Y-83439002D03*
%TO.N,+5V*%
X194310000Y-84836000D03*
X193802000Y-111252000D03*
%TO.N,Net-(D2-Pad2)*%
X196784600Y-76496334D03*
%TO.N,Net-(D3-Pad2)*%
X196784600Y-81864200D03*
%TO.N,Net-(D4-Pad2)*%
X196784600Y-73812400D03*
%TO.N,Net-(D1-Pad2)*%
X196784600Y-79180267D03*
%TD*%
D16*
%TO.N,*%
X109982000Y-72644000D02*
X148082000Y-72644000D01*
X150622000Y-72644000D02*
X188722000Y-72644000D01*
X109982000Y-75184000D02*
X148082000Y-75184000D01*
X150622000Y-75184000D02*
X188722000Y-75184000D01*
X110007400Y-113334800D02*
X148107400Y-113334800D01*
X110007400Y-110794800D02*
X148107400Y-110794800D01*
X150622000Y-113334800D02*
X188722000Y-113334800D01*
X150622000Y-110794800D02*
X188722000Y-110794800D01*
X109982000Y-96774000D02*
X109982000Y-106934000D01*
X112522000Y-96774000D02*
X112522000Y-106934000D01*
X115062000Y-96774000D02*
X115062000Y-106934000D01*
X117602000Y-96774000D02*
X117602000Y-106934000D01*
X120142000Y-96774000D02*
X120142000Y-106934000D01*
X122682000Y-96774000D02*
X122682000Y-106934000D01*
X125222000Y-96774000D02*
X125222000Y-106934000D01*
X127762000Y-96774000D02*
X127762000Y-106934000D01*
X130302000Y-96774000D02*
X130302000Y-106934000D01*
X132842000Y-96774000D02*
X132842000Y-106934000D01*
X135382000Y-96774000D02*
X135382000Y-106934000D01*
X137922000Y-96774000D02*
X137922000Y-106934000D01*
X140462000Y-96774000D02*
X140462000Y-106934000D01*
X143002000Y-96774000D02*
X143002000Y-106934000D01*
X145542000Y-96774000D02*
X145542000Y-106934000D01*
X148082000Y-96774000D02*
X148082000Y-106934000D01*
X150622000Y-96774000D02*
X150622000Y-106934000D01*
X153162000Y-96774000D02*
X153162000Y-106934000D01*
X155702000Y-96774000D02*
X155702000Y-106934000D01*
X158242000Y-96774000D02*
X158242000Y-106934000D01*
X160782000Y-96774000D02*
X160782000Y-106934000D01*
X163322000Y-96774000D02*
X163322000Y-106934000D01*
X165862000Y-96774000D02*
X165862000Y-106934000D01*
X168402000Y-96774000D02*
X168402000Y-106934000D01*
X170942000Y-96774000D02*
X170942000Y-106934000D01*
X173482000Y-96774000D02*
X173482000Y-106934000D01*
X176022000Y-96774000D02*
X176022000Y-106934000D01*
X178562000Y-96774000D02*
X178562000Y-106934000D01*
X181102000Y-96774000D02*
X181102000Y-106934000D01*
X183642000Y-96774000D02*
X183642000Y-106934000D01*
X186182000Y-96774000D02*
X186182000Y-106934000D01*
X188722000Y-96774000D02*
X188722000Y-106934000D01*
X109982000Y-78994000D02*
X109982000Y-89154000D01*
X112522000Y-78994000D02*
X112522000Y-89154000D01*
X115062000Y-78994000D02*
X115062000Y-89154000D01*
X117602000Y-78994000D02*
X117602000Y-89154000D01*
X120142000Y-78994000D02*
X120142000Y-89154000D01*
X122682000Y-78994000D02*
X122682000Y-89154000D01*
X125222000Y-78994000D02*
X125222000Y-89154000D01*
X127762000Y-78994000D02*
X127762000Y-89154000D01*
X130302000Y-78994000D02*
X130302000Y-89154000D01*
X132842000Y-78994000D02*
X132842000Y-89154000D01*
X135382000Y-78994000D02*
X135382000Y-89154000D01*
X137922000Y-78994000D02*
X137922000Y-89154000D01*
X140462000Y-78994000D02*
X140462000Y-89154000D01*
X143002000Y-78994000D02*
X143002000Y-89154000D01*
X145542000Y-78994000D02*
X145542000Y-89154000D01*
X148082000Y-78994000D02*
X148082000Y-89154000D01*
X150622000Y-78994000D02*
X150622000Y-89154000D01*
X153162000Y-78994000D02*
X153162000Y-89154000D01*
X155702000Y-78994000D02*
X155702000Y-89154000D01*
X158242000Y-78994000D02*
X158242000Y-89154000D01*
X160782000Y-78994000D02*
X160782000Y-89154000D01*
X163322000Y-78994000D02*
X163322000Y-89154000D01*
X165862000Y-78994000D02*
X165862000Y-89154000D01*
X168402000Y-78994000D02*
X168402000Y-89154000D01*
X170942000Y-78994000D02*
X170942000Y-89154000D01*
X173482000Y-78994000D02*
X173482000Y-89154000D01*
X176022000Y-78994000D02*
X176022000Y-89154000D01*
X178562000Y-78994000D02*
X178562000Y-89154000D01*
X181102000Y-78994000D02*
X181102000Y-89154000D01*
X183642000Y-78994000D02*
X183642000Y-89154000D01*
X186182000Y-78994000D02*
X186182000Y-89154000D01*
X188722000Y-78994000D02*
X188722000Y-89154000D01*
%TO.N,GND*%
X194515700Y-117142300D02*
X194513200Y-117144800D01*
X194515700Y-114150100D02*
X194515700Y-117142300D01*
X193141600Y-114150100D02*
X194515700Y-114150100D01*
X194515700Y-114150100D02*
X195783200Y-114150100D01*
X187614600Y-120812600D02*
X186944000Y-120142000D01*
X188188600Y-120812600D02*
X187614600Y-120812600D01*
X195834000Y-72938000D02*
X194959600Y-73812400D01*
X195834000Y-72390000D02*
X195834000Y-72938000D01*
X194959600Y-73812400D02*
X194959600Y-74309600D01*
X195776910Y-78362957D02*
X194959600Y-79180267D01*
X195776910Y-75126910D02*
X195776910Y-78362957D01*
X194959600Y-74309600D02*
X195776910Y-75126910D01*
X196090500Y-91807900D02*
X195645600Y-92252800D01*
X196090500Y-89852500D02*
X196090500Y-91807900D01*
X195773000Y-101346000D02*
X195072000Y-101346000D01*
%TO.N,-12V*%
X188203800Y-118897400D02*
X188188600Y-118912600D01*
X190666500Y-118897400D02*
X188203800Y-118897400D01*
X190666500Y-118897400D02*
X190666500Y-107961300D01*
X192354200Y-106273600D02*
X198755000Y-106273600D01*
X190666500Y-107961300D02*
X192354200Y-106273600D01*
%TO.N,+12V*%
X193141600Y-118832500D02*
X193206500Y-118897400D01*
X193141600Y-116050100D02*
X193141600Y-118832500D01*
X192444500Y-112609500D02*
X193206500Y-112609500D01*
X192024000Y-113030000D02*
X192444500Y-112609500D01*
X192504100Y-116050100D02*
X192024000Y-115570000D01*
X192024000Y-115570000D02*
X192024000Y-113030000D01*
X193141600Y-116050100D02*
X192504100Y-116050100D01*
X194959600Y-81864200D02*
X194959600Y-82662402D01*
X194959600Y-82662402D02*
X194183000Y-83439002D01*
%TO.N,+5V*%
X195783200Y-118860700D02*
X195746500Y-118897400D01*
X195783200Y-116050100D02*
X195783200Y-118860700D01*
X193802000Y-111760000D02*
X193802000Y-111252000D01*
X194310000Y-112268000D02*
X193802000Y-111760000D01*
X196596000Y-112268000D02*
X194310000Y-112268000D01*
X197104000Y-115570000D02*
X197104000Y-112776000D01*
X197104000Y-112776000D02*
X196596000Y-112268000D01*
X196623900Y-116050100D02*
X197104000Y-115570000D01*
X195783200Y-116050100D02*
X196623900Y-116050100D01*
X192235666Y-79220268D02*
X194959600Y-76496334D01*
X192235666Y-83327351D02*
X192235666Y-79220268D01*
X193744315Y-84836000D02*
X192235666Y-83327351D01*
X194310000Y-84836000D02*
X193744315Y-84836000D01*
D17*
%TO.N,/Q3*%
X179173701Y-127724799D02*
X177993500Y-128905000D01*
X179173701Y-122617601D02*
X179173701Y-127724799D01*
X177993500Y-121437400D02*
X179173701Y-122617601D01*
%TO.N,/7M*%
X184253701Y-127724799D02*
X183073500Y-128905000D01*
X184253701Y-122617601D02*
X184253701Y-127724799D01*
X183073500Y-121437400D02*
X184253701Y-122617601D01*
%TO.N,/C060-67*%
X120734701Y-127724799D02*
X119554500Y-128905000D01*
X120734701Y-122617601D02*
X120734701Y-127724799D01*
X119554500Y-121437400D02*
X120734701Y-122617601D01*
%TO.N,/MD2*%
X136054201Y-127724799D02*
X134874000Y-128905000D01*
X136054201Y-122617601D02*
X136054201Y-127724799D01*
X134874000Y-121437400D02*
X136054201Y-122617601D01*
%TO.N,/MD6*%
X130974201Y-127724799D02*
X129794000Y-128905000D01*
X130974201Y-122617601D02*
X130974201Y-127724799D01*
X129794000Y-121437400D02*
X130974201Y-122617601D01*
%TO.N,/MD4*%
X133514201Y-127724799D02*
X132334000Y-128905000D01*
X133514201Y-122617601D02*
X133514201Y-127724799D01*
X132334000Y-121437400D02*
X133514201Y-122617601D01*
%TO.N,/BA2*%
X161454201Y-127724799D02*
X160274000Y-128905000D01*
X161454201Y-122617601D02*
X161454201Y-127724799D01*
X160274000Y-121437400D02*
X161454201Y-122617601D01*
%TO.N,/MD0*%
X138773799Y-127545201D02*
X137414000Y-128905000D01*
X138773799Y-122797199D02*
X138773799Y-127545201D01*
X137414000Y-121437400D02*
X138773799Y-122797199D01*
%TO.N,/BA0*%
X163994201Y-127724799D02*
X162814000Y-128905000D01*
X163994201Y-122617601D02*
X163994201Y-127724799D01*
X162814000Y-121437400D02*
X163994201Y-122617601D01*
%TO.N,/BA14*%
X143674201Y-127724799D02*
X142494000Y-128905000D01*
X143674201Y-122617601D02*
X143674201Y-127724799D01*
X142494000Y-121437400D02*
X143674201Y-122617601D01*
%TO.N,/BA12*%
X146214201Y-127724799D02*
X145034000Y-128905000D01*
X146214201Y-122617601D02*
X146214201Y-127724799D01*
X145034000Y-121437400D02*
X146214201Y-122617601D01*
%TO.N,/BA10*%
X148754201Y-127724799D02*
X147574000Y-128905000D01*
X148754201Y-122617601D02*
X148754201Y-127724799D01*
X147574000Y-121437400D02*
X148754201Y-122617601D01*
%TO.N,/BA8*%
X151294201Y-122617601D02*
X151294201Y-127724799D01*
X151294201Y-127724799D02*
X150114000Y-128905000D01*
X150114000Y-121437400D02*
X151294201Y-122617601D01*
%TO.N,/BA6*%
X156374201Y-127724799D02*
X155194000Y-128905000D01*
X156374201Y-122617601D02*
X156374201Y-127724799D01*
X155194000Y-121437400D02*
X156374201Y-122617601D01*
%TO.N,/BA4*%
X158914201Y-127724799D02*
X157734000Y-128905000D01*
X158914201Y-122617601D02*
X158914201Y-127724799D01*
X157734000Y-121437400D02*
X158914201Y-122617601D01*
%TO.N,/KSEL2*%
X113114701Y-127724799D02*
X111934500Y-128905000D01*
X113114701Y-122617601D02*
X113114701Y-127724799D01*
X111934500Y-121437400D02*
X113114701Y-122617601D01*
%TO.N,/KSEL1*%
X115654701Y-127724799D02*
X114474500Y-128905000D01*
X115654701Y-122617601D02*
X115654701Y-127724799D01*
X114474500Y-121437400D02*
X115654701Y-122617601D01*
%TO.N,/KSEL0*%
X118194701Y-127724799D02*
X117014500Y-128905000D01*
X118194701Y-122617601D02*
X118194701Y-127724799D01*
X117014500Y-121437400D02*
X118194701Y-122617601D01*
%TO.N,/PH0*%
X176633701Y-127724799D02*
X175453500Y-128905000D01*
X176633701Y-122617601D02*
X176633701Y-127724799D01*
X175453500Y-121437400D02*
X176633701Y-122617601D01*
%TO.N,/CREF*%
X181713701Y-127724799D02*
X180533500Y-128905000D01*
X181713701Y-122617601D02*
X181713701Y-127724799D01*
X180533500Y-121437400D02*
X181713701Y-122617601D01*
%TD*%
%TO.N,-12V*%
X190793500Y-118770400D02*
X190813500Y-118770400D01*
X190813500Y-119024400D01*
X190793500Y-119024400D01*
X190793500Y-120026027D01*
X190983480Y-120086889D01*
X191063788Y-120062534D01*
X191283461Y-119962639D01*
X191479424Y-119821808D01*
X191644147Y-119645452D01*
X191770000Y-119442444D01*
X191770000Y-120892356D01*
X191644147Y-120689348D01*
X191479424Y-120512992D01*
X191283461Y-120372161D01*
X191063788Y-120272266D01*
X190983480Y-120247911D01*
X190793500Y-120308773D01*
X190793500Y-121310400D01*
X190813500Y-121310400D01*
X190813500Y-121564400D01*
X190793500Y-121564400D01*
X190793500Y-122566027D01*
X190983480Y-122626889D01*
X191063788Y-122602534D01*
X191283461Y-122502639D01*
X191479424Y-122361808D01*
X191644147Y-122185452D01*
X191770000Y-121982444D01*
X191770000Y-125819956D01*
X191644147Y-125616948D01*
X191479424Y-125440592D01*
X191283461Y-125299761D01*
X191063788Y-125199866D01*
X190983480Y-125175511D01*
X190793500Y-125236373D01*
X190793500Y-126238000D01*
X190813500Y-126238000D01*
X190813500Y-126492000D01*
X190793500Y-126492000D01*
X190793500Y-127493627D01*
X190983480Y-127554489D01*
X191063788Y-127530134D01*
X191283461Y-127430239D01*
X191479424Y-127289408D01*
X191644147Y-127113052D01*
X191770000Y-126910044D01*
X191770000Y-128359956D01*
X191644147Y-128156948D01*
X191479424Y-127980592D01*
X191283461Y-127839761D01*
X191063788Y-127739866D01*
X190983480Y-127715511D01*
X190793500Y-127776373D01*
X190793500Y-128778000D01*
X190813500Y-128778000D01*
X190813500Y-129032000D01*
X190793500Y-129032000D01*
X190793500Y-129052000D01*
X190539500Y-129052000D01*
X190539500Y-129032000D01*
X190519500Y-129032000D01*
X190519500Y-128778000D01*
X190539500Y-128778000D01*
X190539500Y-127776373D01*
X190349520Y-127715511D01*
X190269212Y-127739866D01*
X190049539Y-127839761D01*
X189853576Y-127980592D01*
X189688853Y-128156948D01*
X189611000Y-128282529D01*
X189611000Y-126987471D01*
X189688853Y-127113052D01*
X189853576Y-127289408D01*
X190049539Y-127430239D01*
X190269212Y-127530134D01*
X190349520Y-127554489D01*
X190539500Y-127493627D01*
X190539500Y-126492000D01*
X190519500Y-126492000D01*
X190519500Y-126238000D01*
X190539500Y-126238000D01*
X190539500Y-125236373D01*
X190349520Y-125175511D01*
X190269212Y-125199866D01*
X190049539Y-125299761D01*
X189853576Y-125440592D01*
X189688853Y-125616948D01*
X189611000Y-125742529D01*
X189611000Y-122059871D01*
X189688853Y-122185452D01*
X189853576Y-122361808D01*
X190049539Y-122502639D01*
X190269212Y-122602534D01*
X190349520Y-122626889D01*
X190539500Y-122566027D01*
X190539500Y-121564400D01*
X190519500Y-121564400D01*
X190519500Y-121310400D01*
X190539500Y-121310400D01*
X190539500Y-120308773D01*
X190349520Y-120247911D01*
X190269212Y-120272266D01*
X190049539Y-120372161D01*
X189853576Y-120512992D01*
X189688853Y-120689348D01*
X189611000Y-120814929D01*
X189611000Y-119519871D01*
X189688853Y-119645452D01*
X189853576Y-119821808D01*
X190049539Y-119962639D01*
X190269212Y-120062534D01*
X190349520Y-120086889D01*
X190539500Y-120026027D01*
X190539500Y-119024400D01*
X190519500Y-119024400D01*
X190519500Y-118770400D01*
X190539500Y-118770400D01*
X190539500Y-118750400D01*
X190793500Y-118750400D01*
X190793500Y-118770400D01*
%TA.AperFunction,Conductor*%
D18*
G36*
X190793500Y-118770400D02*
G01*
X190813500Y-118770400D01*
X190813500Y-119024400D01*
X190793500Y-119024400D01*
X190793500Y-120026027D01*
X190983480Y-120086889D01*
X191063788Y-120062534D01*
X191283461Y-119962639D01*
X191479424Y-119821808D01*
X191644147Y-119645452D01*
X191770000Y-119442444D01*
X191770000Y-120892356D01*
X191644147Y-120689348D01*
X191479424Y-120512992D01*
X191283461Y-120372161D01*
X191063788Y-120272266D01*
X190983480Y-120247911D01*
X190793500Y-120308773D01*
X190793500Y-121310400D01*
X190813500Y-121310400D01*
X190813500Y-121564400D01*
X190793500Y-121564400D01*
X190793500Y-122566027D01*
X190983480Y-122626889D01*
X191063788Y-122602534D01*
X191283461Y-122502639D01*
X191479424Y-122361808D01*
X191644147Y-122185452D01*
X191770000Y-121982444D01*
X191770000Y-125819956D01*
X191644147Y-125616948D01*
X191479424Y-125440592D01*
X191283461Y-125299761D01*
X191063788Y-125199866D01*
X190983480Y-125175511D01*
X190793500Y-125236373D01*
X190793500Y-126238000D01*
X190813500Y-126238000D01*
X190813500Y-126492000D01*
X190793500Y-126492000D01*
X190793500Y-127493627D01*
X190983480Y-127554489D01*
X191063788Y-127530134D01*
X191283461Y-127430239D01*
X191479424Y-127289408D01*
X191644147Y-127113052D01*
X191770000Y-126910044D01*
X191770000Y-128359956D01*
X191644147Y-128156948D01*
X191479424Y-127980592D01*
X191283461Y-127839761D01*
X191063788Y-127739866D01*
X190983480Y-127715511D01*
X190793500Y-127776373D01*
X190793500Y-128778000D01*
X190813500Y-128778000D01*
X190813500Y-129032000D01*
X190793500Y-129032000D01*
X190793500Y-129052000D01*
X190539500Y-129052000D01*
X190539500Y-129032000D01*
X190519500Y-129032000D01*
X190519500Y-128778000D01*
X190539500Y-128778000D01*
X190539500Y-127776373D01*
X190349520Y-127715511D01*
X190269212Y-127739866D01*
X190049539Y-127839761D01*
X189853576Y-127980592D01*
X189688853Y-128156948D01*
X189611000Y-128282529D01*
X189611000Y-126987471D01*
X189688853Y-127113052D01*
X189853576Y-127289408D01*
X190049539Y-127430239D01*
X190269212Y-127530134D01*
X190349520Y-127554489D01*
X190539500Y-127493627D01*
X190539500Y-126492000D01*
X190519500Y-126492000D01*
X190519500Y-126238000D01*
X190539500Y-126238000D01*
X190539500Y-125236373D01*
X190349520Y-125175511D01*
X190269212Y-125199866D01*
X190049539Y-125299761D01*
X189853576Y-125440592D01*
X189688853Y-125616948D01*
X189611000Y-125742529D01*
X189611000Y-122059871D01*
X189688853Y-122185452D01*
X189853576Y-122361808D01*
X190049539Y-122502639D01*
X190269212Y-122602534D01*
X190349520Y-122626889D01*
X190539500Y-122566027D01*
X190539500Y-121564400D01*
X190519500Y-121564400D01*
X190519500Y-121310400D01*
X190539500Y-121310400D01*
X190539500Y-120308773D01*
X190349520Y-120247911D01*
X190269212Y-120272266D01*
X190049539Y-120372161D01*
X189853576Y-120512992D01*
X189688853Y-120689348D01*
X189611000Y-120814929D01*
X189611000Y-119519871D01*
X189688853Y-119645452D01*
X189853576Y-119821808D01*
X190049539Y-119962639D01*
X190269212Y-120062534D01*
X190349520Y-120086889D01*
X190539500Y-120026027D01*
X190539500Y-119024400D01*
X190519500Y-119024400D01*
X190519500Y-118770400D01*
X190539500Y-118770400D01*
X190539500Y-118750400D01*
X190793500Y-118750400D01*
X190793500Y-118770400D01*
G37*
%TD.AperFunction*%
D17*
X191770000Y-118352356D02*
X191644147Y-118149348D01*
X191479424Y-117972992D01*
X191316632Y-117856000D01*
X191770000Y-117856000D01*
X191770000Y-118352356D01*
%TA.AperFunction,Conductor*%
D18*
G36*
X191770000Y-118352356D02*
G01*
X191644147Y-118149348D01*
X191479424Y-117972992D01*
X191316632Y-117856000D01*
X191770000Y-117856000D01*
X191770000Y-118352356D01*
G37*
%TD.AperFunction*%
%TD*%
D17*
%TO.N,+12V*%
X193333500Y-118770400D02*
X193353500Y-118770400D01*
X193353500Y-119024400D01*
X193333500Y-119024400D01*
X193333500Y-120026027D01*
X193523480Y-120086889D01*
X193603788Y-120062534D01*
X193823461Y-119962639D01*
X194019424Y-119821808D01*
X194184147Y-119645452D01*
X194310000Y-119442444D01*
X194310000Y-120892356D01*
X194184147Y-120689348D01*
X194019424Y-120512992D01*
X193823461Y-120372161D01*
X193603788Y-120272266D01*
X193523480Y-120247911D01*
X193333500Y-120308773D01*
X193333500Y-121310400D01*
X193353500Y-121310400D01*
X193353500Y-121564400D01*
X193333500Y-121564400D01*
X193333500Y-122566027D01*
X193523480Y-122626889D01*
X193603788Y-122602534D01*
X193823461Y-122502639D01*
X194019424Y-122361808D01*
X194184147Y-122185452D01*
X194310000Y-121982444D01*
X194310000Y-125819956D01*
X194184147Y-125616948D01*
X194019424Y-125440592D01*
X193823461Y-125299761D01*
X193603788Y-125199866D01*
X193523480Y-125175511D01*
X193333500Y-125236373D01*
X193333500Y-126238000D01*
X193353500Y-126238000D01*
X193353500Y-126492000D01*
X193333500Y-126492000D01*
X193333500Y-127493627D01*
X193523480Y-127554489D01*
X193603788Y-127530134D01*
X193823461Y-127430239D01*
X194019424Y-127289408D01*
X194184147Y-127113052D01*
X194310000Y-126910044D01*
X194310000Y-128359956D01*
X194184147Y-128156948D01*
X194019424Y-127980592D01*
X193823461Y-127839761D01*
X193603788Y-127739866D01*
X193523480Y-127715511D01*
X193333500Y-127776373D01*
X193333500Y-128778000D01*
X193353500Y-128778000D01*
X193353500Y-129032000D01*
X193333500Y-129032000D01*
X193333500Y-129052000D01*
X193079500Y-129052000D01*
X193079500Y-129032000D01*
X193059500Y-129032000D01*
X193059500Y-128778000D01*
X193079500Y-128778000D01*
X193079500Y-127776373D01*
X192889520Y-127715511D01*
X192809212Y-127739866D01*
X192589539Y-127839761D01*
X192393576Y-127980592D01*
X192228853Y-128156948D01*
X192151000Y-128282529D01*
X192151000Y-126987471D01*
X192228853Y-127113052D01*
X192393576Y-127289408D01*
X192589539Y-127430239D01*
X192809212Y-127530134D01*
X192889520Y-127554489D01*
X193079500Y-127493627D01*
X193079500Y-126492000D01*
X193059500Y-126492000D01*
X193059500Y-126238000D01*
X193079500Y-126238000D01*
X193079500Y-125236373D01*
X192889520Y-125175511D01*
X192809212Y-125199866D01*
X192589539Y-125299761D01*
X192393576Y-125440592D01*
X192228853Y-125616948D01*
X192151000Y-125742529D01*
X192151000Y-122059871D01*
X192228853Y-122185452D01*
X192393576Y-122361808D01*
X192589539Y-122502639D01*
X192809212Y-122602534D01*
X192889520Y-122626889D01*
X193079500Y-122566027D01*
X193079500Y-121564400D01*
X193059500Y-121564400D01*
X193059500Y-121310400D01*
X193079500Y-121310400D01*
X193079500Y-120308773D01*
X192889520Y-120247911D01*
X192809212Y-120272266D01*
X192589539Y-120372161D01*
X192393576Y-120512992D01*
X192228853Y-120689348D01*
X192151000Y-120814929D01*
X192151000Y-119519871D01*
X192228853Y-119645452D01*
X192393576Y-119821808D01*
X192589539Y-119962639D01*
X192809212Y-120062534D01*
X192889520Y-120086889D01*
X193079500Y-120026027D01*
X193079500Y-119024400D01*
X193059500Y-119024400D01*
X193059500Y-118770400D01*
X193079500Y-118770400D01*
X193079500Y-118750400D01*
X193333500Y-118750400D01*
X193333500Y-118770400D01*
%TA.AperFunction,Conductor*%
D18*
G36*
X193333500Y-118770400D02*
G01*
X193353500Y-118770400D01*
X193353500Y-119024400D01*
X193333500Y-119024400D01*
X193333500Y-120026027D01*
X193523480Y-120086889D01*
X193603788Y-120062534D01*
X193823461Y-119962639D01*
X194019424Y-119821808D01*
X194184147Y-119645452D01*
X194310000Y-119442444D01*
X194310000Y-120892356D01*
X194184147Y-120689348D01*
X194019424Y-120512992D01*
X193823461Y-120372161D01*
X193603788Y-120272266D01*
X193523480Y-120247911D01*
X193333500Y-120308773D01*
X193333500Y-121310400D01*
X193353500Y-121310400D01*
X193353500Y-121564400D01*
X193333500Y-121564400D01*
X193333500Y-122566027D01*
X193523480Y-122626889D01*
X193603788Y-122602534D01*
X193823461Y-122502639D01*
X194019424Y-122361808D01*
X194184147Y-122185452D01*
X194310000Y-121982444D01*
X194310000Y-125819956D01*
X194184147Y-125616948D01*
X194019424Y-125440592D01*
X193823461Y-125299761D01*
X193603788Y-125199866D01*
X193523480Y-125175511D01*
X193333500Y-125236373D01*
X193333500Y-126238000D01*
X193353500Y-126238000D01*
X193353500Y-126492000D01*
X193333500Y-126492000D01*
X193333500Y-127493627D01*
X193523480Y-127554489D01*
X193603788Y-127530134D01*
X193823461Y-127430239D01*
X194019424Y-127289408D01*
X194184147Y-127113052D01*
X194310000Y-126910044D01*
X194310000Y-128359956D01*
X194184147Y-128156948D01*
X194019424Y-127980592D01*
X193823461Y-127839761D01*
X193603788Y-127739866D01*
X193523480Y-127715511D01*
X193333500Y-127776373D01*
X193333500Y-128778000D01*
X193353500Y-128778000D01*
X193353500Y-129032000D01*
X193333500Y-129032000D01*
X193333500Y-129052000D01*
X193079500Y-129052000D01*
X193079500Y-129032000D01*
X193059500Y-129032000D01*
X193059500Y-128778000D01*
X193079500Y-128778000D01*
X193079500Y-127776373D01*
X192889520Y-127715511D01*
X192809212Y-127739866D01*
X192589539Y-127839761D01*
X192393576Y-127980592D01*
X192228853Y-128156948D01*
X192151000Y-128282529D01*
X192151000Y-126987471D01*
X192228853Y-127113052D01*
X192393576Y-127289408D01*
X192589539Y-127430239D01*
X192809212Y-127530134D01*
X192889520Y-127554489D01*
X193079500Y-127493627D01*
X193079500Y-126492000D01*
X193059500Y-126492000D01*
X193059500Y-126238000D01*
X193079500Y-126238000D01*
X193079500Y-125236373D01*
X192889520Y-125175511D01*
X192809212Y-125199866D01*
X192589539Y-125299761D01*
X192393576Y-125440592D01*
X192228853Y-125616948D01*
X192151000Y-125742529D01*
X192151000Y-122059871D01*
X192228853Y-122185452D01*
X192393576Y-122361808D01*
X192589539Y-122502639D01*
X192809212Y-122602534D01*
X192889520Y-122626889D01*
X193079500Y-122566027D01*
X193079500Y-121564400D01*
X193059500Y-121564400D01*
X193059500Y-121310400D01*
X193079500Y-121310400D01*
X193079500Y-120308773D01*
X192889520Y-120247911D01*
X192809212Y-120272266D01*
X192589539Y-120372161D01*
X192393576Y-120512992D01*
X192228853Y-120689348D01*
X192151000Y-120814929D01*
X192151000Y-119519871D01*
X192228853Y-119645452D01*
X192393576Y-119821808D01*
X192589539Y-119962639D01*
X192809212Y-120062534D01*
X192889520Y-120086889D01*
X193079500Y-120026027D01*
X193079500Y-119024400D01*
X193059500Y-119024400D01*
X193059500Y-118770400D01*
X193079500Y-118770400D01*
X193079500Y-118750400D01*
X193333500Y-118750400D01*
X193333500Y-118770400D01*
G37*
%TD.AperFunction*%
%TD*%
D17*
%TO.N,+5V*%
X195873500Y-118770400D02*
X195893500Y-118770400D01*
X195893500Y-119024400D01*
X195873500Y-119024400D01*
X195873500Y-120026027D01*
X196063480Y-120086889D01*
X196143788Y-120062534D01*
X196363461Y-119962639D01*
X196559424Y-119821808D01*
X196724147Y-119645452D01*
X196850000Y-119442444D01*
X196850000Y-120892356D01*
X196724147Y-120689348D01*
X196559424Y-120512992D01*
X196363461Y-120372161D01*
X196143788Y-120272266D01*
X196063480Y-120247911D01*
X195873500Y-120308773D01*
X195873500Y-121310400D01*
X195893500Y-121310400D01*
X195893500Y-121564400D01*
X195873500Y-121564400D01*
X195873500Y-122566027D01*
X196063480Y-122626889D01*
X196143788Y-122602534D01*
X196363461Y-122502639D01*
X196559424Y-122361808D01*
X196724147Y-122185452D01*
X196850000Y-121982444D01*
X196850000Y-125819956D01*
X196724147Y-125616948D01*
X196559424Y-125440592D01*
X196363461Y-125299761D01*
X196143788Y-125199866D01*
X196063480Y-125175511D01*
X195873500Y-125236373D01*
X195873500Y-126238000D01*
X195893500Y-126238000D01*
X195893500Y-126492000D01*
X195873500Y-126492000D01*
X195873500Y-127493627D01*
X196063480Y-127554489D01*
X196143788Y-127530134D01*
X196363461Y-127430239D01*
X196559424Y-127289408D01*
X196724147Y-127113052D01*
X196850000Y-126910044D01*
X196850000Y-128359956D01*
X196724147Y-128156948D01*
X196559424Y-127980592D01*
X196363461Y-127839761D01*
X196143788Y-127739866D01*
X196063480Y-127715511D01*
X195873500Y-127776373D01*
X195873500Y-128778000D01*
X195893500Y-128778000D01*
X195893500Y-129032000D01*
X195873500Y-129032000D01*
X195873500Y-129052000D01*
X195619500Y-129052000D01*
X195619500Y-129032000D01*
X195599500Y-129032000D01*
X195599500Y-128778000D01*
X195619500Y-128778000D01*
X195619500Y-127776373D01*
X195429520Y-127715511D01*
X195349212Y-127739866D01*
X195129539Y-127839761D01*
X194933576Y-127980592D01*
X194768853Y-128156948D01*
X194691000Y-128282529D01*
X194691000Y-126987471D01*
X194768853Y-127113052D01*
X194933576Y-127289408D01*
X195129539Y-127430239D01*
X195349212Y-127530134D01*
X195429520Y-127554489D01*
X195619500Y-127493627D01*
X195619500Y-126492000D01*
X195599500Y-126492000D01*
X195599500Y-126238000D01*
X195619500Y-126238000D01*
X195619500Y-125236373D01*
X195429520Y-125175511D01*
X195349212Y-125199866D01*
X195129539Y-125299761D01*
X194933576Y-125440592D01*
X194768853Y-125616948D01*
X194691000Y-125742529D01*
X194691000Y-122059871D01*
X194768853Y-122185452D01*
X194933576Y-122361808D01*
X195129539Y-122502639D01*
X195349212Y-122602534D01*
X195429520Y-122626889D01*
X195619500Y-122566027D01*
X195619500Y-121564400D01*
X195599500Y-121564400D01*
X195599500Y-121310400D01*
X195619500Y-121310400D01*
X195619500Y-120308773D01*
X195429520Y-120247911D01*
X195349212Y-120272266D01*
X195129539Y-120372161D01*
X194933576Y-120512992D01*
X194768853Y-120689348D01*
X194691000Y-120814929D01*
X194691000Y-119519871D01*
X194768853Y-119645452D01*
X194933576Y-119821808D01*
X195129539Y-119962639D01*
X195349212Y-120062534D01*
X195429520Y-120086889D01*
X195619500Y-120026027D01*
X195619500Y-119024400D01*
X195599500Y-119024400D01*
X195599500Y-118770400D01*
X195619500Y-118770400D01*
X195619500Y-118750400D01*
X195873500Y-118750400D01*
X195873500Y-118770400D01*
%TA.AperFunction,Conductor*%
D18*
G36*
X195873500Y-118770400D02*
G01*
X195893500Y-118770400D01*
X195893500Y-119024400D01*
X195873500Y-119024400D01*
X195873500Y-120026027D01*
X196063480Y-120086889D01*
X196143788Y-120062534D01*
X196363461Y-119962639D01*
X196559424Y-119821808D01*
X196724147Y-119645452D01*
X196850000Y-119442444D01*
X196850000Y-120892356D01*
X196724147Y-120689348D01*
X196559424Y-120512992D01*
X196363461Y-120372161D01*
X196143788Y-120272266D01*
X196063480Y-120247911D01*
X195873500Y-120308773D01*
X195873500Y-121310400D01*
X195893500Y-121310400D01*
X195893500Y-121564400D01*
X195873500Y-121564400D01*
X195873500Y-122566027D01*
X196063480Y-122626889D01*
X196143788Y-122602534D01*
X196363461Y-122502639D01*
X196559424Y-122361808D01*
X196724147Y-122185452D01*
X196850000Y-121982444D01*
X196850000Y-125819956D01*
X196724147Y-125616948D01*
X196559424Y-125440592D01*
X196363461Y-125299761D01*
X196143788Y-125199866D01*
X196063480Y-125175511D01*
X195873500Y-125236373D01*
X195873500Y-126238000D01*
X195893500Y-126238000D01*
X195893500Y-126492000D01*
X195873500Y-126492000D01*
X195873500Y-127493627D01*
X196063480Y-127554489D01*
X196143788Y-127530134D01*
X196363461Y-127430239D01*
X196559424Y-127289408D01*
X196724147Y-127113052D01*
X196850000Y-126910044D01*
X196850000Y-128359956D01*
X196724147Y-128156948D01*
X196559424Y-127980592D01*
X196363461Y-127839761D01*
X196143788Y-127739866D01*
X196063480Y-127715511D01*
X195873500Y-127776373D01*
X195873500Y-128778000D01*
X195893500Y-128778000D01*
X195893500Y-129032000D01*
X195873500Y-129032000D01*
X195873500Y-129052000D01*
X195619500Y-129052000D01*
X195619500Y-129032000D01*
X195599500Y-129032000D01*
X195599500Y-128778000D01*
X195619500Y-128778000D01*
X195619500Y-127776373D01*
X195429520Y-127715511D01*
X195349212Y-127739866D01*
X195129539Y-127839761D01*
X194933576Y-127980592D01*
X194768853Y-128156948D01*
X194691000Y-128282529D01*
X194691000Y-126987471D01*
X194768853Y-127113052D01*
X194933576Y-127289408D01*
X195129539Y-127430239D01*
X195349212Y-127530134D01*
X195429520Y-127554489D01*
X195619500Y-127493627D01*
X195619500Y-126492000D01*
X195599500Y-126492000D01*
X195599500Y-126238000D01*
X195619500Y-126238000D01*
X195619500Y-125236373D01*
X195429520Y-125175511D01*
X195349212Y-125199866D01*
X195129539Y-125299761D01*
X194933576Y-125440592D01*
X194768853Y-125616948D01*
X194691000Y-125742529D01*
X194691000Y-122059871D01*
X194768853Y-122185452D01*
X194933576Y-122361808D01*
X195129539Y-122502639D01*
X195349212Y-122602534D01*
X195429520Y-122626889D01*
X195619500Y-122566027D01*
X195619500Y-121564400D01*
X195599500Y-121564400D01*
X195599500Y-121310400D01*
X195619500Y-121310400D01*
X195619500Y-120308773D01*
X195429520Y-120247911D01*
X195349212Y-120272266D01*
X195129539Y-120372161D01*
X194933576Y-120512992D01*
X194768853Y-120689348D01*
X194691000Y-120814929D01*
X194691000Y-119519871D01*
X194768853Y-119645452D01*
X194933576Y-119821808D01*
X195129539Y-119962639D01*
X195349212Y-120062534D01*
X195429520Y-120086889D01*
X195619500Y-120026027D01*
X195619500Y-119024400D01*
X195599500Y-119024400D01*
X195599500Y-118770400D01*
X195619500Y-118770400D01*
X195619500Y-118750400D01*
X195873500Y-118750400D01*
X195873500Y-118770400D01*
G37*
%TD.AperFunction*%
%TD*%
D17*
%TO.N,GND*%
X198602600Y-108661200D02*
X198622600Y-108661200D01*
X198622600Y-108915200D01*
X198602600Y-108915200D01*
X198602600Y-110026450D01*
X198697850Y-110121700D01*
X199475600Y-110123543D01*
X199513845Y-110119776D01*
X199465772Y-117855189D01*
X199454822Y-117834704D01*
X199407211Y-117776689D01*
X199349196Y-117729078D01*
X199283008Y-117693699D01*
X199211189Y-117671913D01*
X199136500Y-117664557D01*
X198508750Y-117666400D01*
X198413500Y-117761650D01*
X198413500Y-118770400D01*
X198433500Y-118770400D01*
X198433500Y-119024400D01*
X198413500Y-119024400D01*
X198413500Y-120033150D01*
X198508750Y-120128400D01*
X199136500Y-120130243D01*
X199211189Y-120122887D01*
X199283008Y-120101101D01*
X199349196Y-120065722D01*
X199407211Y-120018111D01*
X199452674Y-119962714D01*
X199445977Y-121040331D01*
X199391299Y-120894451D01*
X199264147Y-120689348D01*
X199099424Y-120512992D01*
X198903461Y-120372161D01*
X198683788Y-120272266D01*
X198603480Y-120247911D01*
X198413500Y-120308773D01*
X198413500Y-121310400D01*
X198433500Y-121310400D01*
X198433500Y-121564400D01*
X198413500Y-121564400D01*
X198413500Y-122566027D01*
X198603480Y-122626889D01*
X198683788Y-122602534D01*
X198903461Y-122502639D01*
X199099424Y-122361808D01*
X199264147Y-122185452D01*
X199391299Y-121980349D01*
X199440958Y-121847859D01*
X199419755Y-125259575D01*
X199407211Y-125244289D01*
X199349196Y-125196678D01*
X199283008Y-125161299D01*
X199211189Y-125139513D01*
X199136500Y-125132157D01*
X198508750Y-125134000D01*
X198413500Y-125229250D01*
X198413500Y-126238000D01*
X198433500Y-126238000D01*
X198433500Y-126492000D01*
X198413500Y-126492000D01*
X198413500Y-127500750D01*
X198508750Y-127596000D01*
X199136500Y-127597843D01*
X199211189Y-127590487D01*
X199283008Y-127568701D01*
X199349196Y-127533322D01*
X199405914Y-127486775D01*
X199400325Y-128386132D01*
X199391299Y-128362051D01*
X199264147Y-128156948D01*
X199099424Y-127980592D01*
X198903461Y-127839761D01*
X198683788Y-127739866D01*
X198603480Y-127715511D01*
X198413500Y-127776373D01*
X198413500Y-128778000D01*
X198433500Y-128778000D01*
X198433500Y-129032000D01*
X198413500Y-129032000D01*
X198413500Y-129052000D01*
X198159500Y-129052000D01*
X198159500Y-129032000D01*
X198139500Y-129032000D01*
X198139500Y-128778000D01*
X198159500Y-128778000D01*
X198159500Y-127776373D01*
X197969520Y-127715511D01*
X197889212Y-127739866D01*
X197669539Y-127839761D01*
X197473576Y-127980592D01*
X197308853Y-128156948D01*
X197242086Y-128264647D01*
X197246555Y-127545483D01*
X197289992Y-127568701D01*
X197361811Y-127590487D01*
X197436500Y-127597843D01*
X198064250Y-127596000D01*
X198159500Y-127500750D01*
X198159500Y-126492000D01*
X198139500Y-126492000D01*
X198139500Y-126238000D01*
X198159500Y-126238000D01*
X198159500Y-125229250D01*
X198064250Y-125134000D01*
X197436500Y-125132157D01*
X197361811Y-125139513D01*
X197289992Y-125161299D01*
X197261277Y-125176648D01*
X197280154Y-122139159D01*
X197308853Y-122185452D01*
X197473576Y-122361808D01*
X197669539Y-122502639D01*
X197889212Y-122602534D01*
X197969520Y-122626889D01*
X198159500Y-122566027D01*
X198159500Y-121564400D01*
X198139500Y-121564400D01*
X198139500Y-121310400D01*
X198159500Y-121310400D01*
X198159500Y-120308773D01*
X197969520Y-120247911D01*
X197889212Y-120272266D01*
X197669539Y-120372161D01*
X197473576Y-120512992D01*
X197308853Y-120689348D01*
X197288965Y-120721429D01*
X197292815Y-120101957D01*
X197361811Y-120122887D01*
X197436500Y-120130243D01*
X198064250Y-120128400D01*
X198159500Y-120033150D01*
X198159500Y-119024400D01*
X198139500Y-119024400D01*
X198139500Y-118770400D01*
X198159500Y-118770400D01*
X198159500Y-117761650D01*
X198064250Y-117666400D01*
X197436500Y-117664557D01*
X197361811Y-117671913D01*
X197307815Y-117688293D01*
X197317619Y-116110723D01*
X197462651Y-115965691D01*
X197482995Y-115948995D01*
X197549651Y-115867775D01*
X197599181Y-115775111D01*
X197629681Y-115674565D01*
X197637400Y-115596195D01*
X197637400Y-115596187D01*
X197639979Y-115570000D01*
X197637400Y-115543813D01*
X197637400Y-112802186D01*
X197639979Y-112775999D01*
X197637400Y-112749812D01*
X197637400Y-112749805D01*
X197629681Y-112671435D01*
X197599181Y-112570889D01*
X197549651Y-112478225D01*
X197482995Y-112397005D01*
X197462651Y-112380309D01*
X197341555Y-112259213D01*
X197354960Y-110102248D01*
X197400911Y-110116187D01*
X197475600Y-110123543D01*
X198253350Y-110121700D01*
X198348600Y-110026450D01*
X198348600Y-108915200D01*
X198328600Y-108915200D01*
X198328600Y-108661200D01*
X198348600Y-108661200D01*
X198348600Y-108641200D01*
X198602600Y-108641200D01*
X198602600Y-108661200D01*
%TA.AperFunction,Conductor*%
D18*
G36*
X198602600Y-108661200D02*
G01*
X198622600Y-108661200D01*
X198622600Y-108915200D01*
X198602600Y-108915200D01*
X198602600Y-110026450D01*
X198697850Y-110121700D01*
X199475600Y-110123543D01*
X199513845Y-110119776D01*
X199465772Y-117855189D01*
X199454822Y-117834704D01*
X199407211Y-117776689D01*
X199349196Y-117729078D01*
X199283008Y-117693699D01*
X199211189Y-117671913D01*
X199136500Y-117664557D01*
X198508750Y-117666400D01*
X198413500Y-117761650D01*
X198413500Y-118770400D01*
X198433500Y-118770400D01*
X198433500Y-119024400D01*
X198413500Y-119024400D01*
X198413500Y-120033150D01*
X198508750Y-120128400D01*
X199136500Y-120130243D01*
X199211189Y-120122887D01*
X199283008Y-120101101D01*
X199349196Y-120065722D01*
X199407211Y-120018111D01*
X199452674Y-119962714D01*
X199445977Y-121040331D01*
X199391299Y-120894451D01*
X199264147Y-120689348D01*
X199099424Y-120512992D01*
X198903461Y-120372161D01*
X198683788Y-120272266D01*
X198603480Y-120247911D01*
X198413500Y-120308773D01*
X198413500Y-121310400D01*
X198433500Y-121310400D01*
X198433500Y-121564400D01*
X198413500Y-121564400D01*
X198413500Y-122566027D01*
X198603480Y-122626889D01*
X198683788Y-122602534D01*
X198903461Y-122502639D01*
X199099424Y-122361808D01*
X199264147Y-122185452D01*
X199391299Y-121980349D01*
X199440958Y-121847859D01*
X199419755Y-125259575D01*
X199407211Y-125244289D01*
X199349196Y-125196678D01*
X199283008Y-125161299D01*
X199211189Y-125139513D01*
X199136500Y-125132157D01*
X198508750Y-125134000D01*
X198413500Y-125229250D01*
X198413500Y-126238000D01*
X198433500Y-126238000D01*
X198433500Y-126492000D01*
X198413500Y-126492000D01*
X198413500Y-127500750D01*
X198508750Y-127596000D01*
X199136500Y-127597843D01*
X199211189Y-127590487D01*
X199283008Y-127568701D01*
X199349196Y-127533322D01*
X199405914Y-127486775D01*
X199400325Y-128386132D01*
X199391299Y-128362051D01*
X199264147Y-128156948D01*
X199099424Y-127980592D01*
X198903461Y-127839761D01*
X198683788Y-127739866D01*
X198603480Y-127715511D01*
X198413500Y-127776373D01*
X198413500Y-128778000D01*
X198433500Y-128778000D01*
X198433500Y-129032000D01*
X198413500Y-129032000D01*
X198413500Y-129052000D01*
X198159500Y-129052000D01*
X198159500Y-129032000D01*
X198139500Y-129032000D01*
X198139500Y-128778000D01*
X198159500Y-128778000D01*
X198159500Y-127776373D01*
X197969520Y-127715511D01*
X197889212Y-127739866D01*
X197669539Y-127839761D01*
X197473576Y-127980592D01*
X197308853Y-128156948D01*
X197242086Y-128264647D01*
X197246555Y-127545483D01*
X197289992Y-127568701D01*
X197361811Y-127590487D01*
X197436500Y-127597843D01*
X198064250Y-127596000D01*
X198159500Y-127500750D01*
X198159500Y-126492000D01*
X198139500Y-126492000D01*
X198139500Y-126238000D01*
X198159500Y-126238000D01*
X198159500Y-125229250D01*
X198064250Y-125134000D01*
X197436500Y-125132157D01*
X197361811Y-125139513D01*
X197289992Y-125161299D01*
X197261277Y-125176648D01*
X197280154Y-122139159D01*
X197308853Y-122185452D01*
X197473576Y-122361808D01*
X197669539Y-122502639D01*
X197889212Y-122602534D01*
X197969520Y-122626889D01*
X198159500Y-122566027D01*
X198159500Y-121564400D01*
X198139500Y-121564400D01*
X198139500Y-121310400D01*
X198159500Y-121310400D01*
X198159500Y-120308773D01*
X197969520Y-120247911D01*
X197889212Y-120272266D01*
X197669539Y-120372161D01*
X197473576Y-120512992D01*
X197308853Y-120689348D01*
X197288965Y-120721429D01*
X197292815Y-120101957D01*
X197361811Y-120122887D01*
X197436500Y-120130243D01*
X198064250Y-120128400D01*
X198159500Y-120033150D01*
X198159500Y-119024400D01*
X198139500Y-119024400D01*
X198139500Y-118770400D01*
X198159500Y-118770400D01*
X198159500Y-117761650D01*
X198064250Y-117666400D01*
X197436500Y-117664557D01*
X197361811Y-117671913D01*
X197307815Y-117688293D01*
X197317619Y-116110723D01*
X197462651Y-115965691D01*
X197482995Y-115948995D01*
X197549651Y-115867775D01*
X197599181Y-115775111D01*
X197629681Y-115674565D01*
X197637400Y-115596195D01*
X197637400Y-115596187D01*
X197639979Y-115570000D01*
X197637400Y-115543813D01*
X197637400Y-112802186D01*
X197639979Y-112775999D01*
X197637400Y-112749812D01*
X197637400Y-112749805D01*
X197629681Y-112671435D01*
X197599181Y-112570889D01*
X197549651Y-112478225D01*
X197482995Y-112397005D01*
X197462651Y-112380309D01*
X197341555Y-112259213D01*
X197354960Y-110102248D01*
X197400911Y-110116187D01*
X197475600Y-110123543D01*
X198253350Y-110121700D01*
X198348600Y-110026450D01*
X198348600Y-108915200D01*
X198328600Y-108915200D01*
X198328600Y-108661200D01*
X198348600Y-108661200D01*
X198348600Y-108641200D01*
X198602600Y-108641200D01*
X198602600Y-108661200D01*
G37*
%TD.AperFunction*%
%TD*%
D17*
%TO.N,GND*%
X173040500Y-118770400D02*
X173060500Y-118770400D01*
X173060500Y-119024400D01*
X173040500Y-119024400D01*
X173040500Y-120026027D01*
X173230480Y-120086889D01*
X173310788Y-120062534D01*
X173530461Y-119962639D01*
X173726424Y-119821808D01*
X173891147Y-119645452D01*
X173990000Y-119485997D01*
X173990000Y-120848803D01*
X173891147Y-120689348D01*
X173726424Y-120512992D01*
X173530461Y-120372161D01*
X173310788Y-120272266D01*
X173230480Y-120247911D01*
X173040500Y-120308773D01*
X173040500Y-121310400D01*
X173060500Y-121310400D01*
X173060500Y-121564400D01*
X173040500Y-121564400D01*
X173040500Y-122566027D01*
X173230480Y-122626889D01*
X173310788Y-122602534D01*
X173530461Y-122502639D01*
X173726424Y-122361808D01*
X173891147Y-122185452D01*
X173990000Y-122025997D01*
X173990000Y-125776403D01*
X173891147Y-125616948D01*
X173726424Y-125440592D01*
X173530461Y-125299761D01*
X173310788Y-125199866D01*
X173230480Y-125175511D01*
X173040500Y-125236373D01*
X173040500Y-126238000D01*
X173060500Y-126238000D01*
X173060500Y-126492000D01*
X173040500Y-126492000D01*
X173040500Y-127493627D01*
X173230480Y-127554489D01*
X173310788Y-127530134D01*
X173530461Y-127430239D01*
X173726424Y-127289408D01*
X173891147Y-127113052D01*
X173990000Y-126953597D01*
X173990000Y-128316403D01*
X173891147Y-128156948D01*
X173726424Y-127980592D01*
X173530461Y-127839761D01*
X173310788Y-127739866D01*
X173230480Y-127715511D01*
X173040500Y-127776373D01*
X173040500Y-128778000D01*
X173060500Y-128778000D01*
X173060500Y-129032000D01*
X173040500Y-129032000D01*
X173040500Y-129052000D01*
X172786500Y-129052000D01*
X172786500Y-129032000D01*
X172766500Y-129032000D01*
X172766500Y-128778000D01*
X172786500Y-128778000D01*
X172786500Y-127776373D01*
X172596520Y-127715511D01*
X172516212Y-127739866D01*
X172296539Y-127839761D01*
X172100576Y-127980592D01*
X171935853Y-128156948D01*
X171831000Y-128326082D01*
X171831000Y-126943918D01*
X171935853Y-127113052D01*
X172100576Y-127289408D01*
X172296539Y-127430239D01*
X172516212Y-127530134D01*
X172596520Y-127554489D01*
X172786500Y-127493627D01*
X172786500Y-126492000D01*
X172766500Y-126492000D01*
X172766500Y-126238000D01*
X172786500Y-126238000D01*
X172786500Y-125236373D01*
X172596520Y-125175511D01*
X172516212Y-125199866D01*
X172296539Y-125299761D01*
X172100576Y-125440592D01*
X171935853Y-125616948D01*
X171831000Y-125786082D01*
X171831000Y-122016318D01*
X171935853Y-122185452D01*
X172100576Y-122361808D01*
X172296539Y-122502639D01*
X172516212Y-122602534D01*
X172596520Y-122626889D01*
X172786500Y-122566027D01*
X172786500Y-121564400D01*
X172766500Y-121564400D01*
X172766500Y-121310400D01*
X172786500Y-121310400D01*
X172786500Y-120308773D01*
X172596520Y-120247911D01*
X172516212Y-120272266D01*
X172296539Y-120372161D01*
X172100576Y-120512992D01*
X171935853Y-120689348D01*
X171831000Y-120858482D01*
X171831000Y-119476318D01*
X171935853Y-119645452D01*
X172100576Y-119821808D01*
X172296539Y-119962639D01*
X172516212Y-120062534D01*
X172596520Y-120086889D01*
X172786500Y-120026027D01*
X172786500Y-119024400D01*
X172766500Y-119024400D01*
X172766500Y-118770400D01*
X172786500Y-118770400D01*
X172786500Y-118750400D01*
X173040500Y-118750400D01*
X173040500Y-118770400D01*
%TA.AperFunction,Conductor*%
D18*
G36*
X173040500Y-118770400D02*
G01*
X173060500Y-118770400D01*
X173060500Y-119024400D01*
X173040500Y-119024400D01*
X173040500Y-120026027D01*
X173230480Y-120086889D01*
X173310788Y-120062534D01*
X173530461Y-119962639D01*
X173726424Y-119821808D01*
X173891147Y-119645452D01*
X173990000Y-119485997D01*
X173990000Y-120848803D01*
X173891147Y-120689348D01*
X173726424Y-120512992D01*
X173530461Y-120372161D01*
X173310788Y-120272266D01*
X173230480Y-120247911D01*
X173040500Y-120308773D01*
X173040500Y-121310400D01*
X173060500Y-121310400D01*
X173060500Y-121564400D01*
X173040500Y-121564400D01*
X173040500Y-122566027D01*
X173230480Y-122626889D01*
X173310788Y-122602534D01*
X173530461Y-122502639D01*
X173726424Y-122361808D01*
X173891147Y-122185452D01*
X173990000Y-122025997D01*
X173990000Y-125776403D01*
X173891147Y-125616948D01*
X173726424Y-125440592D01*
X173530461Y-125299761D01*
X173310788Y-125199866D01*
X173230480Y-125175511D01*
X173040500Y-125236373D01*
X173040500Y-126238000D01*
X173060500Y-126238000D01*
X173060500Y-126492000D01*
X173040500Y-126492000D01*
X173040500Y-127493627D01*
X173230480Y-127554489D01*
X173310788Y-127530134D01*
X173530461Y-127430239D01*
X173726424Y-127289408D01*
X173891147Y-127113052D01*
X173990000Y-126953597D01*
X173990000Y-128316403D01*
X173891147Y-128156948D01*
X173726424Y-127980592D01*
X173530461Y-127839761D01*
X173310788Y-127739866D01*
X173230480Y-127715511D01*
X173040500Y-127776373D01*
X173040500Y-128778000D01*
X173060500Y-128778000D01*
X173060500Y-129032000D01*
X173040500Y-129032000D01*
X173040500Y-129052000D01*
X172786500Y-129052000D01*
X172786500Y-129032000D01*
X172766500Y-129032000D01*
X172766500Y-128778000D01*
X172786500Y-128778000D01*
X172786500Y-127776373D01*
X172596520Y-127715511D01*
X172516212Y-127739866D01*
X172296539Y-127839761D01*
X172100576Y-127980592D01*
X171935853Y-128156948D01*
X171831000Y-128326082D01*
X171831000Y-126943918D01*
X171935853Y-127113052D01*
X172100576Y-127289408D01*
X172296539Y-127430239D01*
X172516212Y-127530134D01*
X172596520Y-127554489D01*
X172786500Y-127493627D01*
X172786500Y-126492000D01*
X172766500Y-126492000D01*
X172766500Y-126238000D01*
X172786500Y-126238000D01*
X172786500Y-125236373D01*
X172596520Y-125175511D01*
X172516212Y-125199866D01*
X172296539Y-125299761D01*
X172100576Y-125440592D01*
X171935853Y-125616948D01*
X171831000Y-125786082D01*
X171831000Y-122016318D01*
X171935853Y-122185452D01*
X172100576Y-122361808D01*
X172296539Y-122502639D01*
X172516212Y-122602534D01*
X172596520Y-122626889D01*
X172786500Y-122566027D01*
X172786500Y-121564400D01*
X172766500Y-121564400D01*
X172766500Y-121310400D01*
X172786500Y-121310400D01*
X172786500Y-120308773D01*
X172596520Y-120247911D01*
X172516212Y-120272266D01*
X172296539Y-120372161D01*
X172100576Y-120512992D01*
X171935853Y-120689348D01*
X171831000Y-120858482D01*
X171831000Y-119476318D01*
X171935853Y-119645452D01*
X172100576Y-119821808D01*
X172296539Y-119962639D01*
X172516212Y-120062534D01*
X172596520Y-120086889D01*
X172786500Y-120026027D01*
X172786500Y-119024400D01*
X172766500Y-119024400D01*
X172766500Y-118770400D01*
X172786500Y-118770400D01*
X172786500Y-118750400D01*
X173040500Y-118750400D01*
X173040500Y-118770400D01*
G37*
%TD.AperFunction*%
%TD*%
D17*
%TO.N,GND*%
X165481000Y-118770400D02*
X165501000Y-118770400D01*
X165501000Y-119024400D01*
X165481000Y-119024400D01*
X165481000Y-120033150D01*
X165576250Y-120128400D01*
X166204000Y-120130243D01*
X166278689Y-120122887D01*
X166350508Y-120101101D01*
X166370000Y-120090682D01*
X166370000Y-120751213D01*
X166331647Y-120689348D01*
X166166924Y-120512992D01*
X165970961Y-120372161D01*
X165751288Y-120272266D01*
X165670980Y-120247911D01*
X165481000Y-120308773D01*
X165481000Y-121310400D01*
X165501000Y-121310400D01*
X165501000Y-121564400D01*
X165481000Y-121564400D01*
X165481000Y-122566027D01*
X165670980Y-122626889D01*
X165751288Y-122602534D01*
X165970961Y-122502639D01*
X166166924Y-122361808D01*
X166331647Y-122185452D01*
X166370000Y-122123587D01*
X166370000Y-125171718D01*
X166350508Y-125161299D01*
X166278689Y-125139513D01*
X166204000Y-125132157D01*
X165576250Y-125134000D01*
X165481000Y-125229250D01*
X165481000Y-126238000D01*
X165501000Y-126238000D01*
X165501000Y-126492000D01*
X165481000Y-126492000D01*
X165481000Y-127500750D01*
X165576250Y-127596000D01*
X166204000Y-127597843D01*
X166278689Y-127590487D01*
X166350508Y-127568701D01*
X166370000Y-127558282D01*
X166370000Y-128218813D01*
X166331647Y-128156948D01*
X166166924Y-127980592D01*
X165970961Y-127839761D01*
X165751288Y-127739866D01*
X165670980Y-127715511D01*
X165481000Y-127776373D01*
X165481000Y-128778000D01*
X165501000Y-128778000D01*
X165501000Y-129032000D01*
X165481000Y-129032000D01*
X165481000Y-129052000D01*
X165227000Y-129052000D01*
X165227000Y-129032000D01*
X165207000Y-129032000D01*
X165207000Y-128778000D01*
X165227000Y-128778000D01*
X165227000Y-127776373D01*
X165037020Y-127715511D01*
X164956712Y-127739866D01*
X164737039Y-127839761D01*
X164541076Y-127980592D01*
X164376353Y-128156948D01*
X164249201Y-128362051D01*
X164211000Y-128463971D01*
X164211000Y-128226421D01*
X164335772Y-128101649D01*
X164355149Y-128085747D01*
X164373825Y-128062989D01*
X164418630Y-128008395D01*
X164465801Y-127920144D01*
X164490185Y-127839761D01*
X164494850Y-127824384D01*
X164502201Y-127749746D01*
X164502201Y-127749744D01*
X164504658Y-127724800D01*
X164502201Y-127699856D01*
X164502201Y-127597666D01*
X164504000Y-127597843D01*
X165131750Y-127596000D01*
X165227000Y-127500750D01*
X165227000Y-126492000D01*
X165207000Y-126492000D01*
X165207000Y-126238000D01*
X165227000Y-126238000D01*
X165227000Y-125229250D01*
X165131750Y-125134000D01*
X164504000Y-125132157D01*
X164502201Y-125132334D01*
X164502201Y-122642544D01*
X164504658Y-122617600D01*
X164502201Y-122592654D01*
X164494850Y-122518016D01*
X164465802Y-122422258D01*
X164433491Y-122361808D01*
X164418630Y-122334005D01*
X164371051Y-122276030D01*
X164355149Y-122256653D01*
X164335772Y-122240751D01*
X164211000Y-122115979D01*
X164211000Y-121878429D01*
X164249201Y-121980349D01*
X164376353Y-122185452D01*
X164541076Y-122361808D01*
X164737039Y-122502639D01*
X164956712Y-122602534D01*
X165037020Y-122626889D01*
X165227000Y-122566027D01*
X165227000Y-121564400D01*
X165207000Y-121564400D01*
X165207000Y-121310400D01*
X165227000Y-121310400D01*
X165227000Y-120308773D01*
X165037020Y-120247911D01*
X164956712Y-120272266D01*
X164737039Y-120372161D01*
X164541076Y-120512992D01*
X164376353Y-120689348D01*
X164249201Y-120894451D01*
X164211000Y-120996371D01*
X164211000Y-119990951D01*
X164233289Y-120018111D01*
X164291304Y-120065722D01*
X164357492Y-120101101D01*
X164429311Y-120122887D01*
X164504000Y-120130243D01*
X165131750Y-120128400D01*
X165227000Y-120033150D01*
X165227000Y-119024400D01*
X165207000Y-119024400D01*
X165207000Y-118770400D01*
X165227000Y-118770400D01*
X165227000Y-118750400D01*
X165481000Y-118750400D01*
X165481000Y-118770400D01*
%TA.AperFunction,Conductor*%
D18*
G36*
X165481000Y-118770400D02*
G01*
X165501000Y-118770400D01*
X165501000Y-119024400D01*
X165481000Y-119024400D01*
X165481000Y-120033150D01*
X165576250Y-120128400D01*
X166204000Y-120130243D01*
X166278689Y-120122887D01*
X166350508Y-120101101D01*
X166370000Y-120090682D01*
X166370000Y-120751213D01*
X166331647Y-120689348D01*
X166166924Y-120512992D01*
X165970961Y-120372161D01*
X165751288Y-120272266D01*
X165670980Y-120247911D01*
X165481000Y-120308773D01*
X165481000Y-121310400D01*
X165501000Y-121310400D01*
X165501000Y-121564400D01*
X165481000Y-121564400D01*
X165481000Y-122566027D01*
X165670980Y-122626889D01*
X165751288Y-122602534D01*
X165970961Y-122502639D01*
X166166924Y-122361808D01*
X166331647Y-122185452D01*
X166370000Y-122123587D01*
X166370000Y-125171718D01*
X166350508Y-125161299D01*
X166278689Y-125139513D01*
X166204000Y-125132157D01*
X165576250Y-125134000D01*
X165481000Y-125229250D01*
X165481000Y-126238000D01*
X165501000Y-126238000D01*
X165501000Y-126492000D01*
X165481000Y-126492000D01*
X165481000Y-127500750D01*
X165576250Y-127596000D01*
X166204000Y-127597843D01*
X166278689Y-127590487D01*
X166350508Y-127568701D01*
X166370000Y-127558282D01*
X166370000Y-128218813D01*
X166331647Y-128156948D01*
X166166924Y-127980592D01*
X165970961Y-127839761D01*
X165751288Y-127739866D01*
X165670980Y-127715511D01*
X165481000Y-127776373D01*
X165481000Y-128778000D01*
X165501000Y-128778000D01*
X165501000Y-129032000D01*
X165481000Y-129032000D01*
X165481000Y-129052000D01*
X165227000Y-129052000D01*
X165227000Y-129032000D01*
X165207000Y-129032000D01*
X165207000Y-128778000D01*
X165227000Y-128778000D01*
X165227000Y-127776373D01*
X165037020Y-127715511D01*
X164956712Y-127739866D01*
X164737039Y-127839761D01*
X164541076Y-127980592D01*
X164376353Y-128156948D01*
X164249201Y-128362051D01*
X164211000Y-128463971D01*
X164211000Y-128226421D01*
X164335772Y-128101649D01*
X164355149Y-128085747D01*
X164373825Y-128062989D01*
X164418630Y-128008395D01*
X164465801Y-127920144D01*
X164490185Y-127839761D01*
X164494850Y-127824384D01*
X164502201Y-127749746D01*
X164502201Y-127749744D01*
X164504658Y-127724800D01*
X164502201Y-127699856D01*
X164502201Y-127597666D01*
X164504000Y-127597843D01*
X165131750Y-127596000D01*
X165227000Y-127500750D01*
X165227000Y-126492000D01*
X165207000Y-126492000D01*
X165207000Y-126238000D01*
X165227000Y-126238000D01*
X165227000Y-125229250D01*
X165131750Y-125134000D01*
X164504000Y-125132157D01*
X164502201Y-125132334D01*
X164502201Y-122642544D01*
X164504658Y-122617600D01*
X164502201Y-122592654D01*
X164494850Y-122518016D01*
X164465802Y-122422258D01*
X164433491Y-122361808D01*
X164418630Y-122334005D01*
X164371051Y-122276030D01*
X164355149Y-122256653D01*
X164335772Y-122240751D01*
X164211000Y-122115979D01*
X164211000Y-121878429D01*
X164249201Y-121980349D01*
X164376353Y-122185452D01*
X164541076Y-122361808D01*
X164737039Y-122502639D01*
X164956712Y-122602534D01*
X165037020Y-122626889D01*
X165227000Y-122566027D01*
X165227000Y-121564400D01*
X165207000Y-121564400D01*
X165207000Y-121310400D01*
X165227000Y-121310400D01*
X165227000Y-120308773D01*
X165037020Y-120247911D01*
X164956712Y-120272266D01*
X164737039Y-120372161D01*
X164541076Y-120512992D01*
X164376353Y-120689348D01*
X164249201Y-120894451D01*
X164211000Y-120996371D01*
X164211000Y-119990951D01*
X164233289Y-120018111D01*
X164291304Y-120065722D01*
X164357492Y-120101101D01*
X164429311Y-120122887D01*
X164504000Y-120130243D01*
X165131750Y-120128400D01*
X165227000Y-120033150D01*
X165227000Y-119024400D01*
X165207000Y-119024400D01*
X165207000Y-118770400D01*
X165227000Y-118770400D01*
X165227000Y-118750400D01*
X165481000Y-118750400D01*
X165481000Y-118770400D01*
G37*
%TD.AperFunction*%
%TD*%
D17*
%TO.N,GND*%
X152781000Y-118770400D02*
X152801000Y-118770400D01*
X152801000Y-119024400D01*
X152781000Y-119024400D01*
X152781000Y-120026027D01*
X152970980Y-120086889D01*
X153051288Y-120062534D01*
X153270961Y-119962639D01*
X153466924Y-119821808D01*
X153631647Y-119645452D01*
X153670000Y-119583587D01*
X153670000Y-120751213D01*
X153631647Y-120689348D01*
X153466924Y-120512992D01*
X153270961Y-120372161D01*
X153051288Y-120272266D01*
X152970980Y-120247911D01*
X152781000Y-120308773D01*
X152781000Y-121310400D01*
X152801000Y-121310400D01*
X152801000Y-121564400D01*
X152781000Y-121564400D01*
X152781000Y-122566027D01*
X152970980Y-122626889D01*
X153051288Y-122602534D01*
X153270961Y-122502639D01*
X153466924Y-122361808D01*
X153631647Y-122185452D01*
X153670000Y-122123587D01*
X153670000Y-125678813D01*
X153631647Y-125616948D01*
X153466924Y-125440592D01*
X153270961Y-125299761D01*
X153051288Y-125199866D01*
X152970980Y-125175511D01*
X152781000Y-125236373D01*
X152781000Y-126238000D01*
X152801000Y-126238000D01*
X152801000Y-126492000D01*
X152781000Y-126492000D01*
X152781000Y-127493627D01*
X152970980Y-127554489D01*
X153051288Y-127530134D01*
X153270961Y-127430239D01*
X153466924Y-127289408D01*
X153631647Y-127113052D01*
X153670000Y-127051187D01*
X153670000Y-128218813D01*
X153631647Y-128156948D01*
X153466924Y-127980592D01*
X153270961Y-127839761D01*
X153051288Y-127739866D01*
X152970980Y-127715511D01*
X152781000Y-127776373D01*
X152781000Y-128778000D01*
X152801000Y-128778000D01*
X152801000Y-129032000D01*
X152781000Y-129032000D01*
X152781000Y-130033627D01*
X152970980Y-130094489D01*
X153051288Y-130070134D01*
X153270961Y-129970239D01*
X153466924Y-129829408D01*
X153631647Y-129653052D01*
X153670000Y-129591187D01*
X153670000Y-130175000D01*
X151511000Y-130175000D01*
X151511000Y-129346029D01*
X151549201Y-129447949D01*
X151676353Y-129653052D01*
X151841076Y-129829408D01*
X152037039Y-129970239D01*
X152256712Y-130070134D01*
X152337020Y-130094489D01*
X152527000Y-130033627D01*
X152527000Y-129032000D01*
X152507000Y-129032000D01*
X152507000Y-128778000D01*
X152527000Y-128778000D01*
X152527000Y-127776373D01*
X152337020Y-127715511D01*
X152256712Y-127739866D01*
X152037039Y-127839761D01*
X151841076Y-127980592D01*
X151676353Y-128156948D01*
X151549201Y-128362051D01*
X151511000Y-128463971D01*
X151511000Y-128226421D01*
X151635772Y-128101649D01*
X151655149Y-128085747D01*
X151673825Y-128062989D01*
X151718630Y-128008395D01*
X151765801Y-127920144D01*
X151790185Y-127839761D01*
X151794850Y-127824384D01*
X151802201Y-127749746D01*
X151802201Y-127749744D01*
X151804658Y-127724800D01*
X151802201Y-127699856D01*
X151802201Y-127247788D01*
X151841076Y-127289408D01*
X152037039Y-127430239D01*
X152256712Y-127530134D01*
X152337020Y-127554489D01*
X152527000Y-127493627D01*
X152527000Y-126492000D01*
X152507000Y-126492000D01*
X152507000Y-126238000D01*
X152527000Y-126238000D01*
X152527000Y-125236373D01*
X152337020Y-125175511D01*
X152256712Y-125199866D01*
X152037039Y-125299761D01*
X151841076Y-125440592D01*
X151802201Y-125482212D01*
X151802201Y-122642544D01*
X151804658Y-122617600D01*
X151802201Y-122592654D01*
X151794850Y-122518016D01*
X151765802Y-122422258D01*
X151733491Y-122361808D01*
X151718630Y-122334005D01*
X151671051Y-122276030D01*
X151655149Y-122256653D01*
X151635772Y-122240751D01*
X151511000Y-122115979D01*
X151511000Y-121878429D01*
X151549201Y-121980349D01*
X151676353Y-122185452D01*
X151841076Y-122361808D01*
X152037039Y-122502639D01*
X152256712Y-122602534D01*
X152337020Y-122626889D01*
X152527000Y-122566027D01*
X152527000Y-121564400D01*
X152507000Y-121564400D01*
X152507000Y-121310400D01*
X152527000Y-121310400D01*
X152527000Y-120308773D01*
X152337020Y-120247911D01*
X152256712Y-120272266D01*
X152037039Y-120372161D01*
X151841076Y-120512992D01*
X151676353Y-120689348D01*
X151549201Y-120894451D01*
X151511000Y-120996371D01*
X151511000Y-119338429D01*
X151549201Y-119440349D01*
X151676353Y-119645452D01*
X151841076Y-119821808D01*
X152037039Y-119962639D01*
X152256712Y-120062534D01*
X152337020Y-120086889D01*
X152527000Y-120026027D01*
X152527000Y-119024400D01*
X152507000Y-119024400D01*
X152507000Y-118770400D01*
X152527000Y-118770400D01*
X152527000Y-118750400D01*
X152781000Y-118750400D01*
X152781000Y-118770400D01*
%TA.AperFunction,Conductor*%
D18*
G36*
X152781000Y-118770400D02*
G01*
X152801000Y-118770400D01*
X152801000Y-119024400D01*
X152781000Y-119024400D01*
X152781000Y-120026027D01*
X152970980Y-120086889D01*
X153051288Y-120062534D01*
X153270961Y-119962639D01*
X153466924Y-119821808D01*
X153631647Y-119645452D01*
X153670000Y-119583587D01*
X153670000Y-120751213D01*
X153631647Y-120689348D01*
X153466924Y-120512992D01*
X153270961Y-120372161D01*
X153051288Y-120272266D01*
X152970980Y-120247911D01*
X152781000Y-120308773D01*
X152781000Y-121310400D01*
X152801000Y-121310400D01*
X152801000Y-121564400D01*
X152781000Y-121564400D01*
X152781000Y-122566027D01*
X152970980Y-122626889D01*
X153051288Y-122602534D01*
X153270961Y-122502639D01*
X153466924Y-122361808D01*
X153631647Y-122185452D01*
X153670000Y-122123587D01*
X153670000Y-125678813D01*
X153631647Y-125616948D01*
X153466924Y-125440592D01*
X153270961Y-125299761D01*
X153051288Y-125199866D01*
X152970980Y-125175511D01*
X152781000Y-125236373D01*
X152781000Y-126238000D01*
X152801000Y-126238000D01*
X152801000Y-126492000D01*
X152781000Y-126492000D01*
X152781000Y-127493627D01*
X152970980Y-127554489D01*
X153051288Y-127530134D01*
X153270961Y-127430239D01*
X153466924Y-127289408D01*
X153631647Y-127113052D01*
X153670000Y-127051187D01*
X153670000Y-128218813D01*
X153631647Y-128156948D01*
X153466924Y-127980592D01*
X153270961Y-127839761D01*
X153051288Y-127739866D01*
X152970980Y-127715511D01*
X152781000Y-127776373D01*
X152781000Y-128778000D01*
X152801000Y-128778000D01*
X152801000Y-129032000D01*
X152781000Y-129032000D01*
X152781000Y-130033627D01*
X152970980Y-130094489D01*
X153051288Y-130070134D01*
X153270961Y-129970239D01*
X153466924Y-129829408D01*
X153631647Y-129653052D01*
X153670000Y-129591187D01*
X153670000Y-130175000D01*
X151511000Y-130175000D01*
X151511000Y-129346029D01*
X151549201Y-129447949D01*
X151676353Y-129653052D01*
X151841076Y-129829408D01*
X152037039Y-129970239D01*
X152256712Y-130070134D01*
X152337020Y-130094489D01*
X152527000Y-130033627D01*
X152527000Y-129032000D01*
X152507000Y-129032000D01*
X152507000Y-128778000D01*
X152527000Y-128778000D01*
X152527000Y-127776373D01*
X152337020Y-127715511D01*
X152256712Y-127739866D01*
X152037039Y-127839761D01*
X151841076Y-127980592D01*
X151676353Y-128156948D01*
X151549201Y-128362051D01*
X151511000Y-128463971D01*
X151511000Y-128226421D01*
X151635772Y-128101649D01*
X151655149Y-128085747D01*
X151673825Y-128062989D01*
X151718630Y-128008395D01*
X151765801Y-127920144D01*
X151790185Y-127839761D01*
X151794850Y-127824384D01*
X151802201Y-127749746D01*
X151802201Y-127749744D01*
X151804658Y-127724800D01*
X151802201Y-127699856D01*
X151802201Y-127247788D01*
X151841076Y-127289408D01*
X152037039Y-127430239D01*
X152256712Y-127530134D01*
X152337020Y-127554489D01*
X152527000Y-127493627D01*
X152527000Y-126492000D01*
X152507000Y-126492000D01*
X152507000Y-126238000D01*
X152527000Y-126238000D01*
X152527000Y-125236373D01*
X152337020Y-125175511D01*
X152256712Y-125199866D01*
X152037039Y-125299761D01*
X151841076Y-125440592D01*
X151802201Y-125482212D01*
X151802201Y-122642544D01*
X151804658Y-122617600D01*
X151802201Y-122592654D01*
X151794850Y-122518016D01*
X151765802Y-122422258D01*
X151733491Y-122361808D01*
X151718630Y-122334005D01*
X151671051Y-122276030D01*
X151655149Y-122256653D01*
X151635772Y-122240751D01*
X151511000Y-122115979D01*
X151511000Y-121878429D01*
X151549201Y-121980349D01*
X151676353Y-122185452D01*
X151841076Y-122361808D01*
X152037039Y-122502639D01*
X152256712Y-122602534D01*
X152337020Y-122626889D01*
X152527000Y-122566027D01*
X152527000Y-121564400D01*
X152507000Y-121564400D01*
X152507000Y-121310400D01*
X152527000Y-121310400D01*
X152527000Y-120308773D01*
X152337020Y-120247911D01*
X152256712Y-120272266D01*
X152037039Y-120372161D01*
X151841076Y-120512992D01*
X151676353Y-120689348D01*
X151549201Y-120894451D01*
X151511000Y-120996371D01*
X151511000Y-119338429D01*
X151549201Y-119440349D01*
X151676353Y-119645452D01*
X151841076Y-119821808D01*
X152037039Y-119962639D01*
X152256712Y-120062534D01*
X152337020Y-120086889D01*
X152527000Y-120026027D01*
X152527000Y-119024400D01*
X152507000Y-119024400D01*
X152507000Y-118770400D01*
X152527000Y-118770400D01*
X152527000Y-118750400D01*
X152781000Y-118750400D01*
X152781000Y-118770400D01*
G37*
%TD.AperFunction*%
%TD*%
D17*
%TO.N,GND*%
X140081000Y-118770400D02*
X140101000Y-118770400D01*
X140101000Y-119024400D01*
X140081000Y-119024400D01*
X140081000Y-120026027D01*
X140270980Y-120086889D01*
X140351288Y-120062534D01*
X140570961Y-119962639D01*
X140766924Y-119821808D01*
X140931647Y-119645452D01*
X140970000Y-119583587D01*
X140970000Y-120751213D01*
X140931647Y-120689348D01*
X140766924Y-120512992D01*
X140570961Y-120372161D01*
X140351288Y-120272266D01*
X140270980Y-120247911D01*
X140081000Y-120308773D01*
X140081000Y-121310400D01*
X140101000Y-121310400D01*
X140101000Y-121564400D01*
X140081000Y-121564400D01*
X140081000Y-122566027D01*
X140270980Y-122626889D01*
X140351288Y-122602534D01*
X140570961Y-122502639D01*
X140766924Y-122361808D01*
X140931647Y-122185452D01*
X140970000Y-122123587D01*
X140970000Y-125678813D01*
X140931647Y-125616948D01*
X140766924Y-125440592D01*
X140570961Y-125299761D01*
X140351288Y-125199866D01*
X140270980Y-125175511D01*
X140081000Y-125236373D01*
X140081000Y-126238000D01*
X140101000Y-126238000D01*
X140101000Y-126492000D01*
X140081000Y-126492000D01*
X140081000Y-127493627D01*
X140270980Y-127554489D01*
X140351288Y-127530134D01*
X140570961Y-127430239D01*
X140766924Y-127289408D01*
X140931647Y-127113052D01*
X140970000Y-127051187D01*
X140970000Y-128218813D01*
X140931647Y-128156948D01*
X140766924Y-127980592D01*
X140570961Y-127839761D01*
X140351288Y-127739866D01*
X140270980Y-127715511D01*
X140081000Y-127776373D01*
X140081000Y-128778000D01*
X140101000Y-128778000D01*
X140101000Y-129032000D01*
X140081000Y-129032000D01*
X140081000Y-130033627D01*
X140270980Y-130094489D01*
X140351288Y-130070134D01*
X140570961Y-129970239D01*
X140766924Y-129829408D01*
X140931647Y-129653052D01*
X140970000Y-129591187D01*
X140970000Y-130302000D01*
X138811000Y-130302000D01*
X138811000Y-129346029D01*
X138849201Y-129447949D01*
X138976353Y-129653052D01*
X139141076Y-129829408D01*
X139337039Y-129970239D01*
X139556712Y-130070134D01*
X139637020Y-130094489D01*
X139827000Y-130033627D01*
X139827000Y-129032000D01*
X139807000Y-129032000D01*
X139807000Y-128778000D01*
X139827000Y-128778000D01*
X139827000Y-127776373D01*
X139637020Y-127715511D01*
X139556712Y-127739866D01*
X139337039Y-127839761D01*
X139141076Y-127980592D01*
X138976353Y-128156948D01*
X138849201Y-128362051D01*
X138811000Y-128463971D01*
X138811000Y-128226421D01*
X139115370Y-127922051D01*
X139134747Y-127906149D01*
X139153423Y-127883391D01*
X139198228Y-127828797D01*
X139245399Y-127740546D01*
X139245400Y-127740544D01*
X139274448Y-127644786D01*
X139281799Y-127570148D01*
X139281799Y-127570146D01*
X139284256Y-127545202D01*
X139281799Y-127520258D01*
X139281799Y-127390540D01*
X139337039Y-127430239D01*
X139556712Y-127530134D01*
X139637020Y-127554489D01*
X139827000Y-127493627D01*
X139827000Y-126492000D01*
X139807000Y-126492000D01*
X139807000Y-126238000D01*
X139827000Y-126238000D01*
X139827000Y-125236373D01*
X139637020Y-125175511D01*
X139556712Y-125199866D01*
X139337039Y-125299761D01*
X139281799Y-125339460D01*
X139281799Y-122822142D01*
X139284256Y-122797198D01*
X139281799Y-122772252D01*
X139274448Y-122697614D01*
X139245400Y-122601856D01*
X139226249Y-122566027D01*
X139198228Y-122513603D01*
X139150649Y-122455628D01*
X139134747Y-122436251D01*
X139115370Y-122420349D01*
X138811000Y-122115979D01*
X138811000Y-121878429D01*
X138849201Y-121980349D01*
X138976353Y-122185452D01*
X139141076Y-122361808D01*
X139337039Y-122502639D01*
X139556712Y-122602534D01*
X139637020Y-122626889D01*
X139827000Y-122566027D01*
X139827000Y-121564400D01*
X139807000Y-121564400D01*
X139807000Y-121310400D01*
X139827000Y-121310400D01*
X139827000Y-120308773D01*
X139637020Y-120247911D01*
X139556712Y-120272266D01*
X139337039Y-120372161D01*
X139141076Y-120512992D01*
X138976353Y-120689348D01*
X138849201Y-120894451D01*
X138811000Y-120996371D01*
X138811000Y-119338429D01*
X138849201Y-119440349D01*
X138976353Y-119645452D01*
X139141076Y-119821808D01*
X139337039Y-119962639D01*
X139556712Y-120062534D01*
X139637020Y-120086889D01*
X139827000Y-120026027D01*
X139827000Y-119024400D01*
X139807000Y-119024400D01*
X139807000Y-118770400D01*
X139827000Y-118770400D01*
X139827000Y-118750400D01*
X140081000Y-118750400D01*
X140081000Y-118770400D01*
%TA.AperFunction,Conductor*%
D18*
G36*
X140081000Y-118770400D02*
G01*
X140101000Y-118770400D01*
X140101000Y-119024400D01*
X140081000Y-119024400D01*
X140081000Y-120026027D01*
X140270980Y-120086889D01*
X140351288Y-120062534D01*
X140570961Y-119962639D01*
X140766924Y-119821808D01*
X140931647Y-119645452D01*
X140970000Y-119583587D01*
X140970000Y-120751213D01*
X140931647Y-120689348D01*
X140766924Y-120512992D01*
X140570961Y-120372161D01*
X140351288Y-120272266D01*
X140270980Y-120247911D01*
X140081000Y-120308773D01*
X140081000Y-121310400D01*
X140101000Y-121310400D01*
X140101000Y-121564400D01*
X140081000Y-121564400D01*
X140081000Y-122566027D01*
X140270980Y-122626889D01*
X140351288Y-122602534D01*
X140570961Y-122502639D01*
X140766924Y-122361808D01*
X140931647Y-122185452D01*
X140970000Y-122123587D01*
X140970000Y-125678813D01*
X140931647Y-125616948D01*
X140766924Y-125440592D01*
X140570961Y-125299761D01*
X140351288Y-125199866D01*
X140270980Y-125175511D01*
X140081000Y-125236373D01*
X140081000Y-126238000D01*
X140101000Y-126238000D01*
X140101000Y-126492000D01*
X140081000Y-126492000D01*
X140081000Y-127493627D01*
X140270980Y-127554489D01*
X140351288Y-127530134D01*
X140570961Y-127430239D01*
X140766924Y-127289408D01*
X140931647Y-127113052D01*
X140970000Y-127051187D01*
X140970000Y-128218813D01*
X140931647Y-128156948D01*
X140766924Y-127980592D01*
X140570961Y-127839761D01*
X140351288Y-127739866D01*
X140270980Y-127715511D01*
X140081000Y-127776373D01*
X140081000Y-128778000D01*
X140101000Y-128778000D01*
X140101000Y-129032000D01*
X140081000Y-129032000D01*
X140081000Y-130033627D01*
X140270980Y-130094489D01*
X140351288Y-130070134D01*
X140570961Y-129970239D01*
X140766924Y-129829408D01*
X140931647Y-129653052D01*
X140970000Y-129591187D01*
X140970000Y-130302000D01*
X138811000Y-130302000D01*
X138811000Y-129346029D01*
X138849201Y-129447949D01*
X138976353Y-129653052D01*
X139141076Y-129829408D01*
X139337039Y-129970239D01*
X139556712Y-130070134D01*
X139637020Y-130094489D01*
X139827000Y-130033627D01*
X139827000Y-129032000D01*
X139807000Y-129032000D01*
X139807000Y-128778000D01*
X139827000Y-128778000D01*
X139827000Y-127776373D01*
X139637020Y-127715511D01*
X139556712Y-127739866D01*
X139337039Y-127839761D01*
X139141076Y-127980592D01*
X138976353Y-128156948D01*
X138849201Y-128362051D01*
X138811000Y-128463971D01*
X138811000Y-128226421D01*
X139115370Y-127922051D01*
X139134747Y-127906149D01*
X139153423Y-127883391D01*
X139198228Y-127828797D01*
X139245399Y-127740546D01*
X139245400Y-127740544D01*
X139274448Y-127644786D01*
X139281799Y-127570148D01*
X139281799Y-127570146D01*
X139284256Y-127545202D01*
X139281799Y-127520258D01*
X139281799Y-127390540D01*
X139337039Y-127430239D01*
X139556712Y-127530134D01*
X139637020Y-127554489D01*
X139827000Y-127493627D01*
X139827000Y-126492000D01*
X139807000Y-126492000D01*
X139807000Y-126238000D01*
X139827000Y-126238000D01*
X139827000Y-125236373D01*
X139637020Y-125175511D01*
X139556712Y-125199866D01*
X139337039Y-125299761D01*
X139281799Y-125339460D01*
X139281799Y-122822142D01*
X139284256Y-122797198D01*
X139281799Y-122772252D01*
X139274448Y-122697614D01*
X139245400Y-122601856D01*
X139226249Y-122566027D01*
X139198228Y-122513603D01*
X139150649Y-122455628D01*
X139134747Y-122436251D01*
X139115370Y-122420349D01*
X138811000Y-122115979D01*
X138811000Y-121878429D01*
X138849201Y-121980349D01*
X138976353Y-122185452D01*
X139141076Y-122361808D01*
X139337039Y-122502639D01*
X139556712Y-122602534D01*
X139637020Y-122626889D01*
X139827000Y-122566027D01*
X139827000Y-121564400D01*
X139807000Y-121564400D01*
X139807000Y-121310400D01*
X139827000Y-121310400D01*
X139827000Y-120308773D01*
X139637020Y-120247911D01*
X139556712Y-120272266D01*
X139337039Y-120372161D01*
X139141076Y-120512992D01*
X138976353Y-120689348D01*
X138849201Y-120894451D01*
X138811000Y-120996371D01*
X138811000Y-119338429D01*
X138849201Y-119440349D01*
X138976353Y-119645452D01*
X139141076Y-119821808D01*
X139337039Y-119962639D01*
X139556712Y-120062534D01*
X139637020Y-120086889D01*
X139827000Y-120026027D01*
X139827000Y-119024400D01*
X139807000Y-119024400D01*
X139807000Y-118770400D01*
X139827000Y-118770400D01*
X139827000Y-118750400D01*
X140081000Y-118750400D01*
X140081000Y-118770400D01*
G37*
%TD.AperFunction*%
%TD*%
D17*
%TO.N,GND*%
X127381000Y-118770400D02*
X127401000Y-118770400D01*
X127401000Y-119024400D01*
X127381000Y-119024400D01*
X127381000Y-120026027D01*
X127570980Y-120086889D01*
X127651288Y-120062534D01*
X127870961Y-119962639D01*
X128066924Y-119821808D01*
X128231647Y-119645452D01*
X128270000Y-119583587D01*
X128270000Y-120751213D01*
X128231647Y-120689348D01*
X128066924Y-120512992D01*
X127870961Y-120372161D01*
X127651288Y-120272266D01*
X127570980Y-120247911D01*
X127381000Y-120308773D01*
X127381000Y-121310400D01*
X127401000Y-121310400D01*
X127401000Y-121564400D01*
X127381000Y-121564400D01*
X127381000Y-122566027D01*
X127570980Y-122626889D01*
X127651288Y-122602534D01*
X127870961Y-122502639D01*
X128066924Y-122361808D01*
X128231647Y-122185452D01*
X128270000Y-122123587D01*
X128270000Y-125678813D01*
X128231647Y-125616948D01*
X128066924Y-125440592D01*
X127870961Y-125299761D01*
X127651288Y-125199866D01*
X127570980Y-125175511D01*
X127381000Y-125236373D01*
X127381000Y-126238000D01*
X127401000Y-126238000D01*
X127401000Y-126492000D01*
X127381000Y-126492000D01*
X127381000Y-127493627D01*
X127570980Y-127554489D01*
X127651288Y-127530134D01*
X127870961Y-127430239D01*
X128066924Y-127289408D01*
X128231647Y-127113052D01*
X128270000Y-127051187D01*
X128270000Y-128218813D01*
X128231647Y-128156948D01*
X128066924Y-127980592D01*
X127870961Y-127839761D01*
X127651288Y-127739866D01*
X127570980Y-127715511D01*
X127381000Y-127776373D01*
X127381000Y-128778000D01*
X127401000Y-128778000D01*
X127401000Y-129032000D01*
X127381000Y-129032000D01*
X127381000Y-130033627D01*
X127570980Y-130094489D01*
X127651288Y-130070134D01*
X127870961Y-129970239D01*
X128066924Y-129829408D01*
X128231647Y-129653052D01*
X128270000Y-129591187D01*
X128270000Y-130175000D01*
X126111000Y-130175000D01*
X126111000Y-129346029D01*
X126149201Y-129447949D01*
X126276353Y-129653052D01*
X126441076Y-129829408D01*
X126637039Y-129970239D01*
X126856712Y-130070134D01*
X126937020Y-130094489D01*
X127127000Y-130033627D01*
X127127000Y-129032000D01*
X127107000Y-129032000D01*
X127107000Y-128778000D01*
X127127000Y-128778000D01*
X127127000Y-127776373D01*
X126937020Y-127715511D01*
X126856712Y-127739866D01*
X126637039Y-127839761D01*
X126441076Y-127980592D01*
X126276353Y-128156948D01*
X126149201Y-128362051D01*
X126111000Y-128463971D01*
X126111000Y-126806029D01*
X126149201Y-126907949D01*
X126276353Y-127113052D01*
X126441076Y-127289408D01*
X126637039Y-127430239D01*
X126856712Y-127530134D01*
X126937020Y-127554489D01*
X127127000Y-127493627D01*
X127127000Y-126492000D01*
X127107000Y-126492000D01*
X127107000Y-126238000D01*
X127127000Y-126238000D01*
X127127000Y-125236373D01*
X126937020Y-125175511D01*
X126856712Y-125199866D01*
X126637039Y-125299761D01*
X126441076Y-125440592D01*
X126276353Y-125616948D01*
X126149201Y-125822051D01*
X126111000Y-125923971D01*
X126111000Y-121878429D01*
X126149201Y-121980349D01*
X126276353Y-122185452D01*
X126441076Y-122361808D01*
X126637039Y-122502639D01*
X126856712Y-122602534D01*
X126937020Y-122626889D01*
X127127000Y-122566027D01*
X127127000Y-121564400D01*
X127107000Y-121564400D01*
X127107000Y-121310400D01*
X127127000Y-121310400D01*
X127127000Y-120308773D01*
X126937020Y-120247911D01*
X126856712Y-120272266D01*
X126637039Y-120372161D01*
X126441076Y-120512992D01*
X126276353Y-120689348D01*
X126149201Y-120894451D01*
X126111000Y-120996371D01*
X126111000Y-119338429D01*
X126149201Y-119440349D01*
X126276353Y-119645452D01*
X126441076Y-119821808D01*
X126637039Y-119962639D01*
X126856712Y-120062534D01*
X126937020Y-120086889D01*
X127127000Y-120026027D01*
X127127000Y-119024400D01*
X127107000Y-119024400D01*
X127107000Y-118770400D01*
X127127000Y-118770400D01*
X127127000Y-118750400D01*
X127381000Y-118750400D01*
X127381000Y-118770400D01*
%TA.AperFunction,Conductor*%
D18*
G36*
X127381000Y-118770400D02*
G01*
X127401000Y-118770400D01*
X127401000Y-119024400D01*
X127381000Y-119024400D01*
X127381000Y-120026027D01*
X127570980Y-120086889D01*
X127651288Y-120062534D01*
X127870961Y-119962639D01*
X128066924Y-119821808D01*
X128231647Y-119645452D01*
X128270000Y-119583587D01*
X128270000Y-120751213D01*
X128231647Y-120689348D01*
X128066924Y-120512992D01*
X127870961Y-120372161D01*
X127651288Y-120272266D01*
X127570980Y-120247911D01*
X127381000Y-120308773D01*
X127381000Y-121310400D01*
X127401000Y-121310400D01*
X127401000Y-121564400D01*
X127381000Y-121564400D01*
X127381000Y-122566027D01*
X127570980Y-122626889D01*
X127651288Y-122602534D01*
X127870961Y-122502639D01*
X128066924Y-122361808D01*
X128231647Y-122185452D01*
X128270000Y-122123587D01*
X128270000Y-125678813D01*
X128231647Y-125616948D01*
X128066924Y-125440592D01*
X127870961Y-125299761D01*
X127651288Y-125199866D01*
X127570980Y-125175511D01*
X127381000Y-125236373D01*
X127381000Y-126238000D01*
X127401000Y-126238000D01*
X127401000Y-126492000D01*
X127381000Y-126492000D01*
X127381000Y-127493627D01*
X127570980Y-127554489D01*
X127651288Y-127530134D01*
X127870961Y-127430239D01*
X128066924Y-127289408D01*
X128231647Y-127113052D01*
X128270000Y-127051187D01*
X128270000Y-128218813D01*
X128231647Y-128156948D01*
X128066924Y-127980592D01*
X127870961Y-127839761D01*
X127651288Y-127739866D01*
X127570980Y-127715511D01*
X127381000Y-127776373D01*
X127381000Y-128778000D01*
X127401000Y-128778000D01*
X127401000Y-129032000D01*
X127381000Y-129032000D01*
X127381000Y-130033627D01*
X127570980Y-130094489D01*
X127651288Y-130070134D01*
X127870961Y-129970239D01*
X128066924Y-129829408D01*
X128231647Y-129653052D01*
X128270000Y-129591187D01*
X128270000Y-130175000D01*
X126111000Y-130175000D01*
X126111000Y-129346029D01*
X126149201Y-129447949D01*
X126276353Y-129653052D01*
X126441076Y-129829408D01*
X126637039Y-129970239D01*
X126856712Y-130070134D01*
X126937020Y-130094489D01*
X127127000Y-130033627D01*
X127127000Y-129032000D01*
X127107000Y-129032000D01*
X127107000Y-128778000D01*
X127127000Y-128778000D01*
X127127000Y-127776373D01*
X126937020Y-127715511D01*
X126856712Y-127739866D01*
X126637039Y-127839761D01*
X126441076Y-127980592D01*
X126276353Y-128156948D01*
X126149201Y-128362051D01*
X126111000Y-128463971D01*
X126111000Y-126806029D01*
X126149201Y-126907949D01*
X126276353Y-127113052D01*
X126441076Y-127289408D01*
X126637039Y-127430239D01*
X126856712Y-127530134D01*
X126937020Y-127554489D01*
X127127000Y-127493627D01*
X127127000Y-126492000D01*
X127107000Y-126492000D01*
X127107000Y-126238000D01*
X127127000Y-126238000D01*
X127127000Y-125236373D01*
X126937020Y-125175511D01*
X126856712Y-125199866D01*
X126637039Y-125299761D01*
X126441076Y-125440592D01*
X126276353Y-125616948D01*
X126149201Y-125822051D01*
X126111000Y-125923971D01*
X126111000Y-121878429D01*
X126149201Y-121980349D01*
X126276353Y-122185452D01*
X126441076Y-122361808D01*
X126637039Y-122502639D01*
X126856712Y-122602534D01*
X126937020Y-122626889D01*
X127127000Y-122566027D01*
X127127000Y-121564400D01*
X127107000Y-121564400D01*
X127107000Y-121310400D01*
X127127000Y-121310400D01*
X127127000Y-120308773D01*
X126937020Y-120247911D01*
X126856712Y-120272266D01*
X126637039Y-120372161D01*
X126441076Y-120512992D01*
X126276353Y-120689348D01*
X126149201Y-120894451D01*
X126111000Y-120996371D01*
X126111000Y-119338429D01*
X126149201Y-119440349D01*
X126276353Y-119645452D01*
X126441076Y-119821808D01*
X126637039Y-119962639D01*
X126856712Y-120062534D01*
X126937020Y-120086889D01*
X127127000Y-120026027D01*
X127127000Y-119024400D01*
X127107000Y-119024400D01*
X127107000Y-118770400D01*
X127127000Y-118770400D01*
X127127000Y-118750400D01*
X127381000Y-118750400D01*
X127381000Y-118770400D01*
G37*
%TD.AperFunction*%
%TD*%
D17*
%TO.N,GND*%
X109521500Y-118770400D02*
X109541500Y-118770400D01*
X109541500Y-119024400D01*
X109521500Y-119024400D01*
X109521500Y-120026027D01*
X109711480Y-120086889D01*
X109791788Y-120062534D01*
X110011461Y-119962639D01*
X110207424Y-119821808D01*
X110372147Y-119645452D01*
X110490000Y-119455349D01*
X110490000Y-120879451D01*
X110372147Y-120689348D01*
X110207424Y-120512992D01*
X110011461Y-120372161D01*
X109791788Y-120272266D01*
X109711480Y-120247911D01*
X109521500Y-120308773D01*
X109521500Y-121310400D01*
X109541500Y-121310400D01*
X109541500Y-121564400D01*
X109521500Y-121564400D01*
X109521500Y-122566027D01*
X109711480Y-122626889D01*
X109791788Y-122602534D01*
X110011461Y-122502639D01*
X110207424Y-122361808D01*
X110372147Y-122185452D01*
X110490000Y-121995349D01*
X110490000Y-125807051D01*
X110372147Y-125616948D01*
X110207424Y-125440592D01*
X110011461Y-125299761D01*
X109791788Y-125199866D01*
X109711480Y-125175511D01*
X109521500Y-125236373D01*
X109521500Y-126238000D01*
X109541500Y-126238000D01*
X109541500Y-126492000D01*
X109521500Y-126492000D01*
X109521500Y-127493627D01*
X109711480Y-127554489D01*
X109791788Y-127530134D01*
X110011461Y-127430239D01*
X110207424Y-127289408D01*
X110372147Y-127113052D01*
X110490000Y-126922949D01*
X110490000Y-128347051D01*
X110372147Y-128156948D01*
X110207424Y-127980592D01*
X110011461Y-127839761D01*
X109791788Y-127739866D01*
X109711480Y-127715511D01*
X109521500Y-127776373D01*
X109521500Y-128778000D01*
X109541500Y-128778000D01*
X109541500Y-129032000D01*
X109521500Y-129032000D01*
X109521500Y-129052000D01*
X109267500Y-129052000D01*
X109267500Y-129032000D01*
X109247500Y-129032000D01*
X109247500Y-128778000D01*
X109267500Y-128778000D01*
X109267500Y-127776373D01*
X109077520Y-127715511D01*
X108997212Y-127739866D01*
X108777539Y-127839761D01*
X108581576Y-127980592D01*
X108416853Y-128156948D01*
X108331000Y-128295433D01*
X108331000Y-126974567D01*
X108416853Y-127113052D01*
X108581576Y-127289408D01*
X108777539Y-127430239D01*
X108997212Y-127530134D01*
X109077520Y-127554489D01*
X109267500Y-127493627D01*
X109267500Y-126492000D01*
X109247500Y-126492000D01*
X109247500Y-126238000D01*
X109267500Y-126238000D01*
X109267500Y-125236373D01*
X109077520Y-125175511D01*
X108997212Y-125199866D01*
X108777539Y-125299761D01*
X108581576Y-125440592D01*
X108416853Y-125616948D01*
X108331000Y-125755433D01*
X108331000Y-122046967D01*
X108416853Y-122185452D01*
X108581576Y-122361808D01*
X108777539Y-122502639D01*
X108997212Y-122602534D01*
X109077520Y-122626889D01*
X109267500Y-122566027D01*
X109267500Y-121564400D01*
X109247500Y-121564400D01*
X109247500Y-121310400D01*
X109267500Y-121310400D01*
X109267500Y-120308773D01*
X109077520Y-120247911D01*
X108997212Y-120272266D01*
X108777539Y-120372161D01*
X108581576Y-120512992D01*
X108416853Y-120689348D01*
X108331000Y-120827833D01*
X108331000Y-119506967D01*
X108416853Y-119645452D01*
X108581576Y-119821808D01*
X108777539Y-119962639D01*
X108997212Y-120062534D01*
X109077520Y-120086889D01*
X109267500Y-120026027D01*
X109267500Y-119024400D01*
X109247500Y-119024400D01*
X109247500Y-118770400D01*
X109267500Y-118770400D01*
X109267500Y-118750400D01*
X109521500Y-118750400D01*
X109521500Y-118770400D01*
%TA.AperFunction,Conductor*%
D18*
G36*
X109521500Y-118770400D02*
G01*
X109541500Y-118770400D01*
X109541500Y-119024400D01*
X109521500Y-119024400D01*
X109521500Y-120026027D01*
X109711480Y-120086889D01*
X109791788Y-120062534D01*
X110011461Y-119962639D01*
X110207424Y-119821808D01*
X110372147Y-119645452D01*
X110490000Y-119455349D01*
X110490000Y-120879451D01*
X110372147Y-120689348D01*
X110207424Y-120512992D01*
X110011461Y-120372161D01*
X109791788Y-120272266D01*
X109711480Y-120247911D01*
X109521500Y-120308773D01*
X109521500Y-121310400D01*
X109541500Y-121310400D01*
X109541500Y-121564400D01*
X109521500Y-121564400D01*
X109521500Y-122566027D01*
X109711480Y-122626889D01*
X109791788Y-122602534D01*
X110011461Y-122502639D01*
X110207424Y-122361808D01*
X110372147Y-122185452D01*
X110490000Y-121995349D01*
X110490000Y-125807051D01*
X110372147Y-125616948D01*
X110207424Y-125440592D01*
X110011461Y-125299761D01*
X109791788Y-125199866D01*
X109711480Y-125175511D01*
X109521500Y-125236373D01*
X109521500Y-126238000D01*
X109541500Y-126238000D01*
X109541500Y-126492000D01*
X109521500Y-126492000D01*
X109521500Y-127493627D01*
X109711480Y-127554489D01*
X109791788Y-127530134D01*
X110011461Y-127430239D01*
X110207424Y-127289408D01*
X110372147Y-127113052D01*
X110490000Y-126922949D01*
X110490000Y-128347051D01*
X110372147Y-128156948D01*
X110207424Y-127980592D01*
X110011461Y-127839761D01*
X109791788Y-127739866D01*
X109711480Y-127715511D01*
X109521500Y-127776373D01*
X109521500Y-128778000D01*
X109541500Y-128778000D01*
X109541500Y-129032000D01*
X109521500Y-129032000D01*
X109521500Y-129052000D01*
X109267500Y-129052000D01*
X109267500Y-129032000D01*
X109247500Y-129032000D01*
X109247500Y-128778000D01*
X109267500Y-128778000D01*
X109267500Y-127776373D01*
X109077520Y-127715511D01*
X108997212Y-127739866D01*
X108777539Y-127839761D01*
X108581576Y-127980592D01*
X108416853Y-128156948D01*
X108331000Y-128295433D01*
X108331000Y-126974567D01*
X108416853Y-127113052D01*
X108581576Y-127289408D01*
X108777539Y-127430239D01*
X108997212Y-127530134D01*
X109077520Y-127554489D01*
X109267500Y-127493627D01*
X109267500Y-126492000D01*
X109247500Y-126492000D01*
X109247500Y-126238000D01*
X109267500Y-126238000D01*
X109267500Y-125236373D01*
X109077520Y-125175511D01*
X108997212Y-125199866D01*
X108777539Y-125299761D01*
X108581576Y-125440592D01*
X108416853Y-125616948D01*
X108331000Y-125755433D01*
X108331000Y-122046967D01*
X108416853Y-122185452D01*
X108581576Y-122361808D01*
X108777539Y-122502639D01*
X108997212Y-122602534D01*
X109077520Y-122626889D01*
X109267500Y-122566027D01*
X109267500Y-121564400D01*
X109247500Y-121564400D01*
X109247500Y-121310400D01*
X109267500Y-121310400D01*
X109267500Y-120308773D01*
X109077520Y-120247911D01*
X108997212Y-120272266D01*
X108777539Y-120372161D01*
X108581576Y-120512992D01*
X108416853Y-120689348D01*
X108331000Y-120827833D01*
X108331000Y-119506967D01*
X108416853Y-119645452D01*
X108581576Y-119821808D01*
X108777539Y-119962639D01*
X108997212Y-120062534D01*
X109077520Y-120086889D01*
X109267500Y-120026027D01*
X109267500Y-119024400D01*
X109247500Y-119024400D01*
X109247500Y-118770400D01*
X109267500Y-118770400D01*
X109267500Y-118750400D01*
X109521500Y-118750400D01*
X109521500Y-118770400D01*
G37*
%TD.AperFunction*%
%TD*%
D17*
%TO.N,-12V*%
X197467113Y-105325728D02*
X197305613Y-105530932D01*
X197187249Y-105763700D01*
X197136871Y-105915106D01*
X197137863Y-105918541D01*
X197131322Y-105906304D01*
X197083711Y-105848289D01*
X197025696Y-105800678D01*
X196959508Y-105765299D01*
X196887689Y-105743513D01*
X196813000Y-105736157D01*
X196310250Y-105738000D01*
X196215000Y-105833250D01*
X196215000Y-106492000D01*
X196235000Y-106492000D01*
X196235000Y-106746000D01*
X196215000Y-106746000D01*
X196215000Y-106766000D01*
X195961000Y-106766000D01*
X195961000Y-106746000D01*
X195077250Y-106746000D01*
X194982000Y-106841250D01*
X194980157Y-107119000D01*
X194987513Y-107193689D01*
X195009299Y-107265508D01*
X195035754Y-107315000D01*
X191897000Y-107315000D01*
X191872224Y-107317440D01*
X191848399Y-107324667D01*
X191826443Y-107336403D01*
X191807197Y-107352197D01*
X191791403Y-107371443D01*
X191779667Y-107393399D01*
X191772440Y-107417224D01*
X191770000Y-107442000D01*
X191770000Y-112529659D01*
X191665350Y-112634309D01*
X191645006Y-112651005D01*
X191628310Y-112671349D01*
X191628307Y-112671352D01*
X191628239Y-112671435D01*
X191578350Y-112732225D01*
X191578349Y-112732227D01*
X191528819Y-112824890D01*
X191498319Y-112925436D01*
X191488021Y-113030000D01*
X191490601Y-113056197D01*
X191490600Y-115543813D01*
X191488021Y-115570000D01*
X191490600Y-115596187D01*
X191490600Y-115596194D01*
X191498319Y-115674564D01*
X191528819Y-115775110D01*
X191578349Y-115867775D01*
X191645005Y-115948995D01*
X191665354Y-115965695D01*
X191770000Y-116070341D01*
X191770000Y-118352356D01*
X191644147Y-118149348D01*
X191479424Y-117972992D01*
X191283461Y-117832161D01*
X191063788Y-117732266D01*
X190983480Y-117707911D01*
X190793500Y-117768773D01*
X190793500Y-118745000D01*
X190539500Y-118745000D01*
X190539500Y-117768773D01*
X190373000Y-117715433D01*
X190373000Y-106119000D01*
X194980157Y-106119000D01*
X194982000Y-106396750D01*
X195077250Y-106492000D01*
X195961000Y-106492000D01*
X195961000Y-105833250D01*
X195865750Y-105738000D01*
X195363000Y-105736157D01*
X195288311Y-105743513D01*
X195216492Y-105765299D01*
X195150304Y-105800678D01*
X195092289Y-105848289D01*
X195044678Y-105906304D01*
X195009299Y-105972492D01*
X194987513Y-106044311D01*
X194980157Y-106119000D01*
X190373000Y-106119000D01*
X190373000Y-105156000D01*
X197665513Y-105156000D01*
X197467113Y-105325728D01*
%TA.AperFunction,Conductor*%
D18*
G36*
X197467113Y-105325728D02*
G01*
X197305613Y-105530932D01*
X197187249Y-105763700D01*
X197136871Y-105915106D01*
X197137863Y-105918541D01*
X197131322Y-105906304D01*
X197083711Y-105848289D01*
X197025696Y-105800678D01*
X196959508Y-105765299D01*
X196887689Y-105743513D01*
X196813000Y-105736157D01*
X196310250Y-105738000D01*
X196215000Y-105833250D01*
X196215000Y-106492000D01*
X196235000Y-106492000D01*
X196235000Y-106746000D01*
X196215000Y-106746000D01*
X196215000Y-106766000D01*
X195961000Y-106766000D01*
X195961000Y-106746000D01*
X195077250Y-106746000D01*
X194982000Y-106841250D01*
X194980157Y-107119000D01*
X194987513Y-107193689D01*
X195009299Y-107265508D01*
X195035754Y-107315000D01*
X191897000Y-107315000D01*
X191872224Y-107317440D01*
X191848399Y-107324667D01*
X191826443Y-107336403D01*
X191807197Y-107352197D01*
X191791403Y-107371443D01*
X191779667Y-107393399D01*
X191772440Y-107417224D01*
X191770000Y-107442000D01*
X191770000Y-112529659D01*
X191665350Y-112634309D01*
X191645006Y-112651005D01*
X191628310Y-112671349D01*
X191628307Y-112671352D01*
X191628239Y-112671435D01*
X191578350Y-112732225D01*
X191578349Y-112732227D01*
X191528819Y-112824890D01*
X191498319Y-112925436D01*
X191488021Y-113030000D01*
X191490601Y-113056197D01*
X191490600Y-115543813D01*
X191488021Y-115570000D01*
X191490600Y-115596187D01*
X191490600Y-115596194D01*
X191498319Y-115674564D01*
X191528819Y-115775110D01*
X191578349Y-115867775D01*
X191645005Y-115948995D01*
X191665354Y-115965695D01*
X191770000Y-116070341D01*
X191770000Y-118352356D01*
X191644147Y-118149348D01*
X191479424Y-117972992D01*
X191283461Y-117832161D01*
X191063788Y-117732266D01*
X190983480Y-117707911D01*
X190793500Y-117768773D01*
X190793500Y-118745000D01*
X190539500Y-118745000D01*
X190539500Y-117768773D01*
X190373000Y-117715433D01*
X190373000Y-106119000D01*
X194980157Y-106119000D01*
X194982000Y-106396750D01*
X195077250Y-106492000D01*
X195961000Y-106492000D01*
X195961000Y-105833250D01*
X195865750Y-105738000D01*
X195363000Y-105736157D01*
X195288311Y-105743513D01*
X195216492Y-105765299D01*
X195150304Y-105800678D01*
X195092289Y-105848289D01*
X195044678Y-105906304D01*
X195009299Y-105972492D01*
X194987513Y-106044311D01*
X194980157Y-106119000D01*
X190373000Y-106119000D01*
X190373000Y-105156000D01*
X197665513Y-105156000D01*
X197467113Y-105325728D01*
G37*
%TD.AperFunction*%
D17*
X198602600Y-106121200D02*
X198622600Y-106121200D01*
X198622600Y-106375200D01*
X198602600Y-106375200D01*
X198602600Y-106395200D01*
X198348600Y-106395200D01*
X198348600Y-106375200D01*
X198328600Y-106375200D01*
X198328600Y-106121200D01*
X198348600Y-106121200D01*
X198348600Y-106101200D01*
X198602600Y-106101200D01*
X198602600Y-106121200D01*
%TA.AperFunction,Conductor*%
D18*
G36*
X198602600Y-106121200D02*
G01*
X198622600Y-106121200D01*
X198622600Y-106375200D01*
X198602600Y-106375200D01*
X198602600Y-106395200D01*
X198348600Y-106395200D01*
X198348600Y-106375200D01*
X198328600Y-106375200D01*
X198328600Y-106121200D01*
X198348600Y-106121200D01*
X198348600Y-106101200D01*
X198602600Y-106101200D01*
X198602600Y-106121200D01*
G37*
%TD.AperFunction*%
%TD*%
D17*
%TO.N,GND*%
X195150304Y-107700678D02*
X195092289Y-107748289D01*
X195044678Y-107806304D01*
X195009299Y-107872492D01*
X194987513Y-107944311D01*
X194980157Y-108019000D01*
X194982000Y-108296750D01*
X195077250Y-108392000D01*
X195961000Y-108392000D01*
X195961000Y-108372000D01*
X196215000Y-108372000D01*
X196215000Y-108392000D01*
X196235000Y-108392000D01*
X196235000Y-108646000D01*
X196215000Y-108646000D01*
X196215000Y-109304750D01*
X196310250Y-109400000D01*
X196813000Y-109401843D01*
X196887689Y-109394487D01*
X196959508Y-109372701D01*
X197025696Y-109337322D01*
X197083711Y-109289711D01*
X197093927Y-109277263D01*
X197092757Y-109740700D01*
X197100113Y-109815389D01*
X197121899Y-109887208D01*
X197157278Y-109953396D01*
X197204889Y-110011411D01*
X197262904Y-110059022D01*
X197329092Y-110094401D01*
X197400911Y-110116187D01*
X197475600Y-110123543D01*
X198253350Y-110121700D01*
X198348600Y-110026450D01*
X198348600Y-108915200D01*
X198328600Y-108915200D01*
X198328600Y-108661200D01*
X198348600Y-108661200D01*
X198348600Y-108641200D01*
X198602600Y-108641200D01*
X198602600Y-108661200D01*
X198622600Y-108661200D01*
X198622600Y-108915200D01*
X198602600Y-108915200D01*
X198602600Y-110026450D01*
X198697850Y-110121700D01*
X199475600Y-110123543D01*
X199517000Y-110119466D01*
X199517000Y-111633000D01*
X194945000Y-111633000D01*
X194945000Y-109019000D01*
X194980157Y-109019000D01*
X194987513Y-109093689D01*
X195009299Y-109165508D01*
X195044678Y-109231696D01*
X195092289Y-109289711D01*
X195150304Y-109337322D01*
X195216492Y-109372701D01*
X195288311Y-109394487D01*
X195363000Y-109401843D01*
X195865750Y-109400000D01*
X195961000Y-109304750D01*
X195961000Y-108646000D01*
X195077250Y-108646000D01*
X194982000Y-108741250D01*
X194980157Y-109019000D01*
X194945000Y-109019000D01*
X194945000Y-107696000D01*
X195159056Y-107696000D01*
X195150304Y-107700678D01*
%TA.AperFunction,Conductor*%
D18*
G36*
X195150304Y-107700678D02*
G01*
X195092289Y-107748289D01*
X195044678Y-107806304D01*
X195009299Y-107872492D01*
X194987513Y-107944311D01*
X194980157Y-108019000D01*
X194982000Y-108296750D01*
X195077250Y-108392000D01*
X195961000Y-108392000D01*
X195961000Y-108372000D01*
X196215000Y-108372000D01*
X196215000Y-108392000D01*
X196235000Y-108392000D01*
X196235000Y-108646000D01*
X196215000Y-108646000D01*
X196215000Y-109304750D01*
X196310250Y-109400000D01*
X196813000Y-109401843D01*
X196887689Y-109394487D01*
X196959508Y-109372701D01*
X197025696Y-109337322D01*
X197083711Y-109289711D01*
X197093927Y-109277263D01*
X197092757Y-109740700D01*
X197100113Y-109815389D01*
X197121899Y-109887208D01*
X197157278Y-109953396D01*
X197204889Y-110011411D01*
X197262904Y-110059022D01*
X197329092Y-110094401D01*
X197400911Y-110116187D01*
X197475600Y-110123543D01*
X198253350Y-110121700D01*
X198348600Y-110026450D01*
X198348600Y-108915200D01*
X198328600Y-108915200D01*
X198328600Y-108661200D01*
X198348600Y-108661200D01*
X198348600Y-108641200D01*
X198602600Y-108641200D01*
X198602600Y-108661200D01*
X198622600Y-108661200D01*
X198622600Y-108915200D01*
X198602600Y-108915200D01*
X198602600Y-110026450D01*
X198697850Y-110121700D01*
X199475600Y-110123543D01*
X199517000Y-110119466D01*
X199517000Y-111633000D01*
X194945000Y-111633000D01*
X194945000Y-109019000D01*
X194980157Y-109019000D01*
X194987513Y-109093689D01*
X195009299Y-109165508D01*
X195044678Y-109231696D01*
X195092289Y-109289711D01*
X195150304Y-109337322D01*
X195216492Y-109372701D01*
X195288311Y-109394487D01*
X195363000Y-109401843D01*
X195865750Y-109400000D01*
X195961000Y-109304750D01*
X195961000Y-108646000D01*
X195077250Y-108646000D01*
X194982000Y-108741250D01*
X194980157Y-109019000D01*
X194945000Y-109019000D01*
X194945000Y-107696000D01*
X195159056Y-107696000D01*
X195150304Y-107700678D01*
G37*
%TD.AperFunction*%
%TD*%
D17*
%TO.N,-5V*%
X197343992Y-88773799D02*
X197277804Y-88809178D01*
X197219789Y-88856789D01*
X197172178Y-88914804D01*
X197136799Y-88980992D01*
X197115013Y-89052811D01*
X197107657Y-89127500D01*
X197109500Y-89630250D01*
X197204750Y-89725500D01*
X197863500Y-89725500D01*
X197863500Y-89705500D01*
X198117500Y-89705500D01*
X198117500Y-89725500D01*
X198776250Y-89725500D01*
X198871500Y-89630250D01*
X198873343Y-89127500D01*
X198865987Y-89052811D01*
X198844201Y-88980992D01*
X198808822Y-88914804D01*
X198761211Y-88856789D01*
X198703196Y-88809178D01*
X198637008Y-88773799D01*
X198634374Y-88773000D01*
X199644000Y-88773000D01*
X199644000Y-102988916D01*
X199484087Y-102785728D01*
X199285657Y-102615974D01*
X199057922Y-102488193D01*
X198809634Y-102407296D01*
X198602600Y-102473738D01*
X198602600Y-103581200D01*
X198622600Y-103581200D01*
X198622600Y-103835200D01*
X198602600Y-103835200D01*
X198602600Y-103855200D01*
X198348600Y-103855200D01*
X198348600Y-103835200D01*
X198328600Y-103835200D01*
X198328600Y-103581200D01*
X198348600Y-103581200D01*
X198348600Y-102473738D01*
X198255912Y-102443992D01*
X198319508Y-102424701D01*
X198385696Y-102389322D01*
X198443711Y-102341711D01*
X198491322Y-102283696D01*
X198526701Y-102217508D01*
X198548487Y-102145689D01*
X198555843Y-102071000D01*
X198554000Y-101568250D01*
X198458750Y-101473000D01*
X197800000Y-101473000D01*
X197800000Y-102356750D01*
X197895250Y-102452000D01*
X198002183Y-102452710D01*
X197893278Y-102488193D01*
X197665543Y-102615974D01*
X197467113Y-102785728D01*
X197305613Y-102990932D01*
X197187249Y-103223700D01*
X197149181Y-103338108D01*
X197138780Y-102450473D01*
X197173000Y-102453843D01*
X197450750Y-102452000D01*
X197546000Y-102356750D01*
X197546000Y-101473000D01*
X197526000Y-101473000D01*
X197526000Y-101219000D01*
X197546000Y-101219000D01*
X197546000Y-100335250D01*
X197800000Y-100335250D01*
X197800000Y-101219000D01*
X198458750Y-101219000D01*
X198554000Y-101123750D01*
X198555843Y-100621000D01*
X198548487Y-100546311D01*
X198526701Y-100474492D01*
X198491322Y-100408304D01*
X198443711Y-100350289D01*
X198385696Y-100302678D01*
X198319508Y-100267299D01*
X198247689Y-100245513D01*
X198173000Y-100238157D01*
X197895250Y-100240000D01*
X197800000Y-100335250D01*
X197546000Y-100335250D01*
X197450750Y-100240000D01*
X197173000Y-100238157D01*
X197112923Y-100244074D01*
X197054584Y-95265803D01*
X197080801Y-95335749D01*
X197207953Y-95540852D01*
X197372676Y-95717208D01*
X197568639Y-95858039D01*
X197788312Y-95957934D01*
X197868620Y-95982289D01*
X198058600Y-95921427D01*
X198058600Y-94919800D01*
X198312600Y-94919800D01*
X198312600Y-95921427D01*
X198502580Y-95982289D01*
X198582888Y-95957934D01*
X198802561Y-95858039D01*
X198998524Y-95717208D01*
X199163247Y-95540852D01*
X199290399Y-95335749D01*
X199375095Y-95109781D01*
X199314787Y-94919800D01*
X198312600Y-94919800D01*
X198058600Y-94919800D01*
X198038600Y-94919800D01*
X198038600Y-94665800D01*
X198058600Y-94665800D01*
X198058600Y-93664173D01*
X198312600Y-93664173D01*
X198312600Y-94665800D01*
X199314787Y-94665800D01*
X199375095Y-94475819D01*
X199290399Y-94249851D01*
X199163247Y-94044748D01*
X198998524Y-93868392D01*
X198802561Y-93727561D01*
X198582888Y-93627666D01*
X198502580Y-93603311D01*
X198312600Y-93664173D01*
X198058600Y-93664173D01*
X197868620Y-93603311D01*
X197788312Y-93627666D01*
X197568639Y-93727561D01*
X197372676Y-93868392D01*
X197207953Y-94044748D01*
X197080801Y-94249851D01*
X197043834Y-94348477D01*
X197031939Y-93333360D01*
X197064889Y-93373511D01*
X197122904Y-93421122D01*
X197189092Y-93456501D01*
X197260911Y-93478287D01*
X197335600Y-93485643D01*
X197963350Y-93483800D01*
X198058600Y-93388550D01*
X198058600Y-92379800D01*
X198312600Y-92379800D01*
X198312600Y-93388550D01*
X198407850Y-93483800D01*
X199035600Y-93485643D01*
X199110289Y-93478287D01*
X199182108Y-93456501D01*
X199248296Y-93421122D01*
X199306311Y-93373511D01*
X199353922Y-93315496D01*
X199389301Y-93249308D01*
X199411087Y-93177489D01*
X199418443Y-93102800D01*
X199416600Y-92475050D01*
X199321350Y-92379800D01*
X198312600Y-92379800D01*
X198058600Y-92379800D01*
X198038600Y-92379800D01*
X198038600Y-92125800D01*
X198058600Y-92125800D01*
X198058600Y-91117050D01*
X198312600Y-91117050D01*
X198312600Y-92125800D01*
X199321350Y-92125800D01*
X199416600Y-92030550D01*
X199418443Y-91402800D01*
X199411087Y-91328111D01*
X199389301Y-91256292D01*
X199353922Y-91190104D01*
X199306311Y-91132089D01*
X199248296Y-91084478D01*
X199182108Y-91049099D01*
X199110289Y-91027313D01*
X199035600Y-91019957D01*
X198407850Y-91021800D01*
X198312600Y-91117050D01*
X198058600Y-91117050D01*
X197963350Y-91021800D01*
X197335600Y-91019957D01*
X197260911Y-91027313D01*
X197189092Y-91049099D01*
X197122904Y-91084478D01*
X197064889Y-91132089D01*
X197017278Y-91190104D01*
X197007047Y-91209245D01*
X196999644Y-90577500D01*
X197107657Y-90577500D01*
X197115013Y-90652189D01*
X197136799Y-90724008D01*
X197172178Y-90790196D01*
X197219789Y-90848211D01*
X197277804Y-90895822D01*
X197343992Y-90931201D01*
X197415811Y-90952987D01*
X197490500Y-90960343D01*
X197768250Y-90958500D01*
X197863500Y-90863250D01*
X197863500Y-89979500D01*
X198117500Y-89979500D01*
X198117500Y-90863250D01*
X198212750Y-90958500D01*
X198490500Y-90960343D01*
X198565189Y-90952987D01*
X198637008Y-90931201D01*
X198703196Y-90895822D01*
X198761211Y-90848211D01*
X198808822Y-90790196D01*
X198844201Y-90724008D01*
X198865987Y-90652189D01*
X198873343Y-90577500D01*
X198871500Y-90074750D01*
X198776250Y-89979500D01*
X198117500Y-89979500D01*
X197863500Y-89979500D01*
X197204750Y-89979500D01*
X197109500Y-90074750D01*
X197107657Y-90577500D01*
X196999644Y-90577500D01*
X196978497Y-88773000D01*
X197346626Y-88773000D01*
X197343992Y-88773799D01*
%TA.AperFunction,Conductor*%
D18*
G36*
X197343992Y-88773799D02*
G01*
X197277804Y-88809178D01*
X197219789Y-88856789D01*
X197172178Y-88914804D01*
X197136799Y-88980992D01*
X197115013Y-89052811D01*
X197107657Y-89127500D01*
X197109500Y-89630250D01*
X197204750Y-89725500D01*
X197863500Y-89725500D01*
X197863500Y-89705500D01*
X198117500Y-89705500D01*
X198117500Y-89725500D01*
X198776250Y-89725500D01*
X198871500Y-89630250D01*
X198873343Y-89127500D01*
X198865987Y-89052811D01*
X198844201Y-88980992D01*
X198808822Y-88914804D01*
X198761211Y-88856789D01*
X198703196Y-88809178D01*
X198637008Y-88773799D01*
X198634374Y-88773000D01*
X199644000Y-88773000D01*
X199644000Y-102988916D01*
X199484087Y-102785728D01*
X199285657Y-102615974D01*
X199057922Y-102488193D01*
X198809634Y-102407296D01*
X198602600Y-102473738D01*
X198602600Y-103581200D01*
X198622600Y-103581200D01*
X198622600Y-103835200D01*
X198602600Y-103835200D01*
X198602600Y-103855200D01*
X198348600Y-103855200D01*
X198348600Y-103835200D01*
X198328600Y-103835200D01*
X198328600Y-103581200D01*
X198348600Y-103581200D01*
X198348600Y-102473738D01*
X198255912Y-102443992D01*
X198319508Y-102424701D01*
X198385696Y-102389322D01*
X198443711Y-102341711D01*
X198491322Y-102283696D01*
X198526701Y-102217508D01*
X198548487Y-102145689D01*
X198555843Y-102071000D01*
X198554000Y-101568250D01*
X198458750Y-101473000D01*
X197800000Y-101473000D01*
X197800000Y-102356750D01*
X197895250Y-102452000D01*
X198002183Y-102452710D01*
X197893278Y-102488193D01*
X197665543Y-102615974D01*
X197467113Y-102785728D01*
X197305613Y-102990932D01*
X197187249Y-103223700D01*
X197149181Y-103338108D01*
X197138780Y-102450473D01*
X197173000Y-102453843D01*
X197450750Y-102452000D01*
X197546000Y-102356750D01*
X197546000Y-101473000D01*
X197526000Y-101473000D01*
X197526000Y-101219000D01*
X197546000Y-101219000D01*
X197546000Y-100335250D01*
X197800000Y-100335250D01*
X197800000Y-101219000D01*
X198458750Y-101219000D01*
X198554000Y-101123750D01*
X198555843Y-100621000D01*
X198548487Y-100546311D01*
X198526701Y-100474492D01*
X198491322Y-100408304D01*
X198443711Y-100350289D01*
X198385696Y-100302678D01*
X198319508Y-100267299D01*
X198247689Y-100245513D01*
X198173000Y-100238157D01*
X197895250Y-100240000D01*
X197800000Y-100335250D01*
X197546000Y-100335250D01*
X197450750Y-100240000D01*
X197173000Y-100238157D01*
X197112923Y-100244074D01*
X197054584Y-95265803D01*
X197080801Y-95335749D01*
X197207953Y-95540852D01*
X197372676Y-95717208D01*
X197568639Y-95858039D01*
X197788312Y-95957934D01*
X197868620Y-95982289D01*
X198058600Y-95921427D01*
X198058600Y-94919800D01*
X198312600Y-94919800D01*
X198312600Y-95921427D01*
X198502580Y-95982289D01*
X198582888Y-95957934D01*
X198802561Y-95858039D01*
X198998524Y-95717208D01*
X199163247Y-95540852D01*
X199290399Y-95335749D01*
X199375095Y-95109781D01*
X199314787Y-94919800D01*
X198312600Y-94919800D01*
X198058600Y-94919800D01*
X198038600Y-94919800D01*
X198038600Y-94665800D01*
X198058600Y-94665800D01*
X198058600Y-93664173D01*
X198312600Y-93664173D01*
X198312600Y-94665800D01*
X199314787Y-94665800D01*
X199375095Y-94475819D01*
X199290399Y-94249851D01*
X199163247Y-94044748D01*
X198998524Y-93868392D01*
X198802561Y-93727561D01*
X198582888Y-93627666D01*
X198502580Y-93603311D01*
X198312600Y-93664173D01*
X198058600Y-93664173D01*
X197868620Y-93603311D01*
X197788312Y-93627666D01*
X197568639Y-93727561D01*
X197372676Y-93868392D01*
X197207953Y-94044748D01*
X197080801Y-94249851D01*
X197043834Y-94348477D01*
X197031939Y-93333360D01*
X197064889Y-93373511D01*
X197122904Y-93421122D01*
X197189092Y-93456501D01*
X197260911Y-93478287D01*
X197335600Y-93485643D01*
X197963350Y-93483800D01*
X198058600Y-93388550D01*
X198058600Y-92379800D01*
X198312600Y-92379800D01*
X198312600Y-93388550D01*
X198407850Y-93483800D01*
X199035600Y-93485643D01*
X199110289Y-93478287D01*
X199182108Y-93456501D01*
X199248296Y-93421122D01*
X199306311Y-93373511D01*
X199353922Y-93315496D01*
X199389301Y-93249308D01*
X199411087Y-93177489D01*
X199418443Y-93102800D01*
X199416600Y-92475050D01*
X199321350Y-92379800D01*
X198312600Y-92379800D01*
X198058600Y-92379800D01*
X198038600Y-92379800D01*
X198038600Y-92125800D01*
X198058600Y-92125800D01*
X198058600Y-91117050D01*
X198312600Y-91117050D01*
X198312600Y-92125800D01*
X199321350Y-92125800D01*
X199416600Y-92030550D01*
X199418443Y-91402800D01*
X199411087Y-91328111D01*
X199389301Y-91256292D01*
X199353922Y-91190104D01*
X199306311Y-91132089D01*
X199248296Y-91084478D01*
X199182108Y-91049099D01*
X199110289Y-91027313D01*
X199035600Y-91019957D01*
X198407850Y-91021800D01*
X198312600Y-91117050D01*
X198058600Y-91117050D01*
X197963350Y-91021800D01*
X197335600Y-91019957D01*
X197260911Y-91027313D01*
X197189092Y-91049099D01*
X197122904Y-91084478D01*
X197064889Y-91132089D01*
X197017278Y-91190104D01*
X197007047Y-91209245D01*
X196999644Y-90577500D01*
X197107657Y-90577500D01*
X197115013Y-90652189D01*
X197136799Y-90724008D01*
X197172178Y-90790196D01*
X197219789Y-90848211D01*
X197277804Y-90895822D01*
X197343992Y-90931201D01*
X197415811Y-90952987D01*
X197490500Y-90960343D01*
X197768250Y-90958500D01*
X197863500Y-90863250D01*
X197863500Y-89979500D01*
X198117500Y-89979500D01*
X198117500Y-90863250D01*
X198212750Y-90958500D01*
X198490500Y-90960343D01*
X198565189Y-90952987D01*
X198637008Y-90931201D01*
X198703196Y-90895822D01*
X198761211Y-90848211D01*
X198808822Y-90790196D01*
X198844201Y-90724008D01*
X198865987Y-90652189D01*
X198873343Y-90577500D01*
X198871500Y-90074750D01*
X198776250Y-89979500D01*
X198117500Y-89979500D01*
X197863500Y-89979500D01*
X197204750Y-89979500D01*
X197109500Y-90074750D01*
X197107657Y-90577500D01*
X196999644Y-90577500D01*
X196978497Y-88773000D01*
X197346626Y-88773000D01*
X197343992Y-88773799D01*
G37*
%TD.AperFunction*%
%TD*%
M02*
