%TF.GenerationSoftware,KiCad,Pcbnew,(5.1.10)-1*%
%TF.CreationDate,2021-09-08T13:29:56-05:00*%
%TF.ProjectId,gd protoboard pcb,67642070-726f-4746-9f62-6f6172642070,rev?*%
%TF.SameCoordinates,Original*%
%TF.FileFunction,Copper,L1,Top*%
%TF.FilePolarity,Positive*%
%FSLAX46Y46*%
G04 Gerber Fmt 4.6, Leading zero omitted, Abs format (unit mm)*
G04 Created by KiCad (PCBNEW (5.1.10)-1) date 2021-09-08 13:29:56*
%MOMM*%
%LPD*%
G01*
G04 APERTURE LIST*
%TA.AperFunction,EtchedComponent*%
%ADD10C,0.134262*%
%TD*%
%TA.AperFunction,EtchedComponent*%
%ADD11C,0.095901*%
%TD*%
%TA.AperFunction,ComponentPad*%
%ADD12O,1.700000X1.700000*%
%TD*%
%TA.AperFunction,ComponentPad*%
%ADD13R,1.700000X1.700000*%
%TD*%
%TA.AperFunction,ComponentPad*%
%ADD14O,2.000000X1.905000*%
%TD*%
%TA.AperFunction,ComponentPad*%
%ADD15R,2.000000X1.905000*%
%TD*%
%TA.AperFunction,ComponentPad*%
%ADD16C,1.700000*%
%TD*%
%TA.AperFunction,ViaPad*%
%ADD17C,0.800000*%
%TD*%
%TA.AperFunction,Conductor*%
%ADD18C,0.304800*%
%TD*%
%TA.AperFunction,Conductor*%
%ADD19C,0.254000*%
%TD*%
%TA.AperFunction,Conductor*%
%ADD20C,0.100000*%
%TD*%
G04 APERTURE END LIST*
D10*
%TO.C,svg2mod*%
G36*
X168279800Y-124124647D02*
G01*
X168018413Y-124557785D01*
X168079331Y-124464912D01*
X168169546Y-124402461D01*
X168279800Y-124379605D01*
X168390581Y-124402642D01*
X168480737Y-124465395D01*
X168541362Y-124558329D01*
X168563550Y-124671904D01*
X168541362Y-124786225D01*
X168480737Y-124879540D01*
X168390581Y-124942435D01*
X168279800Y-124965492D01*
X168169019Y-124942435D01*
X168078862Y-124879540D01*
X168018237Y-124786225D01*
X167996050Y-124671904D01*
X168018413Y-124557785D01*
X168279800Y-124124647D01*
X168141698Y-124143485D01*
X168017485Y-124196375D01*
X167911050Y-124277879D01*
X166943550Y-124277879D01*
X166943550Y-125065930D01*
X167911050Y-125065930D01*
X168016930Y-125148006D01*
X168141420Y-125200610D01*
X168279800Y-125219162D01*
X168421148Y-125199638D01*
X168548087Y-125144525D01*
X168655581Y-125059009D01*
X168738596Y-124948275D01*
X168792097Y-124817512D01*
X168811050Y-124671904D01*
X168792097Y-124526297D01*
X168738596Y-124395534D01*
X168655581Y-124284800D01*
X168548087Y-124199284D01*
X168421148Y-124144171D01*
X168279800Y-124124647D01*
G37*
X168279800Y-124124647D02*
X168018413Y-124557785D01*
X168079331Y-124464912D01*
X168169546Y-124402461D01*
X168279800Y-124379605D01*
X168390581Y-124402642D01*
X168480737Y-124465395D01*
X168541362Y-124558329D01*
X168563550Y-124671904D01*
X168541362Y-124786225D01*
X168480737Y-124879540D01*
X168390581Y-124942435D01*
X168279800Y-124965492D01*
X168169019Y-124942435D01*
X168078862Y-124879540D01*
X168018237Y-124786225D01*
X167996050Y-124671904D01*
X168018413Y-124557785D01*
X168279800Y-124124647D01*
X168141698Y-124143485D01*
X168017485Y-124196375D01*
X167911050Y-124277879D01*
X166943550Y-124277879D01*
X166943550Y-125065930D01*
X167911050Y-125065930D01*
X168016930Y-125148006D01*
X168141420Y-125200610D01*
X168279800Y-125219162D01*
X168421148Y-125199638D01*
X168548087Y-125144525D01*
X168655581Y-125059009D01*
X168738596Y-124948275D01*
X168792097Y-124817512D01*
X168811050Y-124671904D01*
X168792097Y-124526297D01*
X168738596Y-124395534D01*
X168655581Y-124284800D01*
X168548087Y-124199284D01*
X168421148Y-124144171D01*
X168279800Y-124124647D01*
G36*
X170089800Y-122276849D02*
G01*
X171407300Y-122276849D01*
X171407300Y-122888490D01*
X170089800Y-122888490D01*
X170089800Y-122276849D01*
G37*
X170089800Y-122276849D02*
X171407300Y-122276849D01*
X171407300Y-122888490D01*
X170089800Y-122888490D01*
X170089800Y-122276849D01*
G36*
X170089800Y-123676540D02*
G01*
X171407300Y-123676540D01*
X171407300Y-124288181D01*
X170089800Y-124288181D01*
X170089800Y-123676540D01*
G37*
X170089800Y-123676540D02*
X171407300Y-123676540D01*
X171407300Y-124288181D01*
X170089800Y-124288181D01*
X170089800Y-123676540D01*
G36*
X170089800Y-125080094D02*
G01*
X171407300Y-125080094D01*
X171407300Y-125691734D01*
X170089800Y-125691734D01*
X170089800Y-125080094D01*
G37*
X170089800Y-125080094D02*
X171407300Y-125080094D01*
X171407300Y-125691734D01*
X170089800Y-125691734D01*
X170089800Y-125080094D01*
G36*
X168279800Y-122727532D02*
G01*
X168018413Y-123160468D01*
X168079331Y-123067153D01*
X168169546Y-123004259D01*
X168279800Y-122981201D01*
X168390581Y-123004259D01*
X168480737Y-123067153D01*
X168541362Y-123160468D01*
X168563550Y-123274789D01*
X168541362Y-123388365D01*
X168480737Y-123481298D01*
X168390581Y-123544052D01*
X168279800Y-123567089D01*
X168169019Y-123544052D01*
X168078862Y-123481298D01*
X168018237Y-123388365D01*
X167996050Y-123274789D01*
X168018413Y-123160468D01*
X168279800Y-122727532D01*
X168141698Y-122746370D01*
X168017485Y-122799259D01*
X167911050Y-122880764D01*
X166943550Y-122880764D01*
X166943550Y-123668814D01*
X167911050Y-123668814D01*
X168016930Y-123750891D01*
X168141420Y-123803494D01*
X168279800Y-123822046D01*
X168421148Y-123802523D01*
X168548087Y-123747409D01*
X168655581Y-123661893D01*
X168738596Y-123551160D01*
X168792097Y-123420396D01*
X168811050Y-123274789D01*
X168792097Y-123129182D01*
X168738596Y-122998418D01*
X168655581Y-122887685D01*
X168548087Y-122802168D01*
X168421148Y-122747055D01*
X168279800Y-122727532D01*
G37*
X168279800Y-122727532D02*
X168018413Y-123160468D01*
X168079331Y-123067153D01*
X168169546Y-123004259D01*
X168279800Y-122981201D01*
X168390581Y-123004259D01*
X168480737Y-123067153D01*
X168541362Y-123160468D01*
X168563550Y-123274789D01*
X168541362Y-123388365D01*
X168480737Y-123481298D01*
X168390581Y-123544052D01*
X168279800Y-123567089D01*
X168169019Y-123544052D01*
X168078862Y-123481298D01*
X168018237Y-123388365D01*
X167996050Y-123274789D01*
X168018413Y-123160468D01*
X168279800Y-122727532D01*
X168141698Y-122746370D01*
X168017485Y-122799259D01*
X167911050Y-122880764D01*
X166943550Y-122880764D01*
X166943550Y-123668814D01*
X167911050Y-123668814D01*
X168016930Y-123750891D01*
X168141420Y-123803494D01*
X168279800Y-123822046D01*
X168421148Y-123802523D01*
X168548087Y-123747409D01*
X168655581Y-123661893D01*
X168738596Y-123551160D01*
X168792097Y-123420396D01*
X168811050Y-123274789D01*
X168792097Y-123129182D01*
X168738596Y-122998418D01*
X168655581Y-122887685D01*
X168548087Y-122802168D01*
X168421148Y-122747055D01*
X168279800Y-122727532D01*
D11*
G36*
X168769800Y-126472059D02*
G01*
X168539800Y-126472059D01*
X168539800Y-126573784D01*
X168721050Y-126573784D01*
X168721050Y-126667784D01*
X168539800Y-126667784D01*
X168539800Y-126775947D01*
X168769800Y-126775947D01*
X168769800Y-126875098D01*
X168424800Y-126875098D01*
X168424800Y-126376772D01*
X168769800Y-126376772D01*
X168769800Y-126472059D01*
G37*
X168769800Y-126472059D02*
X168539800Y-126472059D01*
X168539800Y-126573784D01*
X168721050Y-126573784D01*
X168721050Y-126667784D01*
X168539800Y-126667784D01*
X168539800Y-126775947D01*
X168769800Y-126775947D01*
X168769800Y-126875098D01*
X168424800Y-126875098D01*
X168424800Y-126376772D01*
X168769800Y-126376772D01*
X168769800Y-126472059D01*
G36*
X169209800Y-126378059D02*
G01*
X169209800Y-126876385D01*
X169113550Y-126876385D01*
X168924800Y-126539017D01*
X168926043Y-126555757D01*
X168927287Y-126577647D01*
X168927287Y-126876385D01*
X168838537Y-126876385D01*
X168838537Y-126378059D01*
X168961037Y-126378059D01*
X169126037Y-126671647D01*
X169123537Y-126638167D01*
X169123537Y-126378059D01*
X169209800Y-126378059D01*
G37*
X169209800Y-126378059D02*
X169209800Y-126876385D01*
X169113550Y-126876385D01*
X168924800Y-126539017D01*
X168926043Y-126555757D01*
X168927287Y-126577647D01*
X168927287Y-126876385D01*
X168838537Y-126876385D01*
X168838537Y-126378059D01*
X168961037Y-126378059D01*
X169126037Y-126671647D01*
X169123537Y-126638167D01*
X169123537Y-126378059D01*
X169209800Y-126378059D01*
G36*
X169684800Y-126609839D02*
G01*
X169684800Y-126876385D01*
X169633550Y-126876385D01*
X169617300Y-126818440D01*
X169484800Y-126882824D01*
X169400737Y-126865440D01*
X169337300Y-126813290D01*
X169297925Y-126733294D01*
X169284800Y-126633017D01*
X169298862Y-126525497D01*
X169341050Y-126441155D01*
X169407456Y-126387234D01*
X169493550Y-126369046D01*
X169623550Y-126415401D01*
X169683550Y-126540305D01*
X169576050Y-126554469D01*
X169492300Y-126464333D01*
X169422300Y-126506826D01*
X169398550Y-126629154D01*
X169423550Y-126746331D01*
X169496050Y-126786249D01*
X169549800Y-126765646D01*
X169573550Y-126699975D01*
X169482300Y-126699975D01*
X169482300Y-126607263D01*
X169684800Y-126607263D01*
X169684800Y-126609839D01*
G37*
X169684800Y-126609839D02*
X169684800Y-126876385D01*
X169633550Y-126876385D01*
X169617300Y-126818440D01*
X169484800Y-126882824D01*
X169400737Y-126865440D01*
X169337300Y-126813290D01*
X169297925Y-126733294D01*
X169284800Y-126633017D01*
X169298862Y-126525497D01*
X169341050Y-126441155D01*
X169407456Y-126387234D01*
X169493550Y-126369046D01*
X169623550Y-126415401D01*
X169683550Y-126540305D01*
X169576050Y-126554469D01*
X169492300Y-126464333D01*
X169422300Y-126506826D01*
X169398550Y-126629154D01*
X169423550Y-126746331D01*
X169496050Y-126786249D01*
X169549800Y-126765646D01*
X169573550Y-126699975D01*
X169482300Y-126699975D01*
X169482300Y-126607263D01*
X169684800Y-126607263D01*
X169684800Y-126609839D01*
G36*
X169886050Y-126378059D02*
G01*
X169886050Y-126876385D01*
X169773550Y-126876385D01*
X169773550Y-126378059D01*
X169886050Y-126378059D01*
G37*
X169886050Y-126378059D02*
X169886050Y-126876385D01*
X169773550Y-126876385D01*
X169773550Y-126378059D01*
X169886050Y-126378059D01*
G36*
X170356050Y-126378059D02*
G01*
X170356050Y-126876385D01*
X170259800Y-126876385D01*
X170071050Y-126540305D01*
X170072293Y-126557045D01*
X170073537Y-126578935D01*
X170073537Y-126877673D01*
X169984787Y-126877673D01*
X169984787Y-126379347D01*
X170107287Y-126379347D01*
X170272287Y-126672934D01*
X170269787Y-126639455D01*
X170269787Y-126379347D01*
X170356037Y-126379347D01*
X170356050Y-126378059D01*
G37*
X170356050Y-126378059D02*
X170356050Y-126876385D01*
X170259800Y-126876385D01*
X170071050Y-126540305D01*
X170072293Y-126557045D01*
X170073537Y-126578935D01*
X170073537Y-126877673D01*
X169984787Y-126877673D01*
X169984787Y-126379347D01*
X170107287Y-126379347D01*
X170272287Y-126672934D01*
X170269787Y-126639455D01*
X170269787Y-126379347D01*
X170356037Y-126379347D01*
X170356050Y-126378059D01*
G36*
X170798550Y-126472059D02*
G01*
X170568550Y-126472059D01*
X170568550Y-126573784D01*
X170749800Y-126573784D01*
X170749800Y-126667784D01*
X170568550Y-126667784D01*
X170568550Y-126775947D01*
X170798550Y-126775947D01*
X170798550Y-126875098D01*
X170453550Y-126875098D01*
X170453550Y-126376772D01*
X170798550Y-126376772D01*
X170798550Y-126472059D01*
G37*
X170798550Y-126472059D02*
X170568550Y-126472059D01*
X170568550Y-126573784D01*
X170749800Y-126573784D01*
X170749800Y-126667784D01*
X170568550Y-126667784D01*
X170568550Y-126775947D01*
X170798550Y-126775947D01*
X170798550Y-126875098D01*
X170453550Y-126875098D01*
X170453550Y-126376772D01*
X170798550Y-126376772D01*
X170798550Y-126472059D01*
G36*
X171212300Y-126472059D02*
G01*
X170982300Y-126472059D01*
X170982300Y-126573784D01*
X171162300Y-126573784D01*
X171162300Y-126667784D01*
X170981050Y-126667784D01*
X170981050Y-126775947D01*
X171212300Y-126775947D01*
X171212300Y-126875098D01*
X170867300Y-126875098D01*
X170867300Y-126376772D01*
X171212300Y-126376772D01*
X171212300Y-126472059D01*
G37*
X171212300Y-126472059D02*
X170982300Y-126472059D01*
X170982300Y-126573784D01*
X171162300Y-126573784D01*
X171162300Y-126667784D01*
X170981050Y-126667784D01*
X170981050Y-126775947D01*
X171212300Y-126775947D01*
X171212300Y-126875098D01*
X170867300Y-126875098D01*
X170867300Y-126376772D01*
X171212300Y-126376772D01*
X171212300Y-126472059D01*
G36*
X171393550Y-126678085D02*
G01*
X171393550Y-126594387D01*
X171463550Y-126594387D01*
X171513550Y-126589237D01*
X171541050Y-126567346D01*
X171553550Y-126528716D01*
X171541050Y-126491374D01*
X171514800Y-126470772D01*
X171461050Y-126466909D01*
X171393550Y-126466908D01*
X171393550Y-126594387D01*
X171393550Y-126678085D01*
X171393550Y-126875098D01*
X171279800Y-126875098D01*
X171279800Y-126376772D01*
X171492300Y-126376772D01*
X171587300Y-126390936D01*
X171646050Y-126442442D01*
X171669800Y-126526141D01*
X171649019Y-126603079D01*
X171586050Y-126654907D01*
X171674800Y-126875098D01*
X171549800Y-126875098D01*
X171476050Y-126678085D01*
X171393550Y-126678085D01*
G37*
X171393550Y-126678085D02*
X171393550Y-126594387D01*
X171463550Y-126594387D01*
X171513550Y-126589237D01*
X171541050Y-126567346D01*
X171553550Y-126528716D01*
X171541050Y-126491374D01*
X171514800Y-126470772D01*
X171461050Y-126466909D01*
X171393550Y-126466908D01*
X171393550Y-126594387D01*
X171393550Y-126678085D01*
X171393550Y-126875098D01*
X171279800Y-126875098D01*
X171279800Y-126376772D01*
X171492300Y-126376772D01*
X171587300Y-126390936D01*
X171646050Y-126442442D01*
X171669800Y-126526141D01*
X171649019Y-126603079D01*
X171586050Y-126654907D01*
X171674800Y-126875098D01*
X171549800Y-126875098D01*
X171476050Y-126678085D01*
X171393550Y-126678085D01*
%TD*%
D12*
%TO.P,J8,32*%
%TO.N,GND*%
X127254000Y-121437400D03*
%TO.P,J8,31*%
X127254000Y-118897400D03*
%TO.P,J8,30*%
%TO.N,/MD6*%
X129794000Y-121437400D03*
%TO.P,J8,29*%
%TO.N,/MD7*%
X129794000Y-118897400D03*
%TO.P,J8,28*%
%TO.N,/MD4*%
X132334000Y-121437400D03*
%TO.P,J8,27*%
%TO.N,/MD5*%
X132334000Y-118897400D03*
%TO.P,J8,26*%
%TO.N,/MD2*%
X134874000Y-121437400D03*
%TO.P,J8,25*%
%TO.N,/MD3*%
X134874000Y-118897400D03*
%TO.P,J8,24*%
%TO.N,/MD0*%
X137414000Y-121437400D03*
%TO.P,J8,23*%
%TO.N,/MD1*%
X137414000Y-118897400D03*
%TO.P,J8,22*%
%TO.N,GND*%
X139954000Y-121437400D03*
%TO.P,J8,21*%
X139954000Y-118897400D03*
%TO.P,J8,20*%
%TO.N,/BA14*%
X142494000Y-121437400D03*
%TO.P,J8,19*%
%TO.N,/BA15*%
X142494000Y-118897400D03*
%TO.P,J8,18*%
%TO.N,/BA12*%
X145034000Y-121437400D03*
%TO.P,J8,17*%
%TO.N,/BA13*%
X145034000Y-118897400D03*
%TO.P,J8,16*%
%TO.N,/BA10*%
X147574000Y-121437400D03*
%TO.P,J8,15*%
%TO.N,/BA11*%
X147574000Y-118897400D03*
%TO.P,J8,14*%
%TO.N,/BA8*%
X150114000Y-121437400D03*
%TO.P,J8,13*%
%TO.N,/BA9*%
X150114000Y-118897400D03*
%TO.P,J8,12*%
%TO.N,GND*%
X152654000Y-121437400D03*
%TO.P,J8,11*%
X152654000Y-118897400D03*
%TO.P,J8,10*%
%TO.N,/BA6*%
X155194000Y-121437400D03*
%TO.P,J8,9*%
%TO.N,/BA7*%
X155194000Y-118897400D03*
%TO.P,J8,8*%
%TO.N,/BA4*%
X157734000Y-121437400D03*
%TO.P,J8,7*%
%TO.N,/BA5*%
X157734000Y-118897400D03*
%TO.P,J8,6*%
%TO.N,/BA2*%
X160274000Y-121437400D03*
%TO.P,J8,5*%
%TO.N,/BA3*%
X160274000Y-118897400D03*
%TO.P,J8,4*%
%TO.N,/BA0*%
X162814000Y-121437400D03*
%TO.P,J8,3*%
%TO.N,/BA1*%
X162814000Y-118897400D03*
%TO.P,J8,2*%
%TO.N,GND*%
X165354000Y-121437400D03*
D13*
%TO.P,J8,1*%
X165354000Y-118897400D03*
%TD*%
D14*
%TO.P,U1,3*%
%TO.N,-5V*%
X198475600Y-103708200D03*
%TO.P,U1,2*%
%TO.N,-12V*%
X198475600Y-106248200D03*
D15*
%TO.P,U1,1*%
%TO.N,GND*%
X198475600Y-108788200D03*
%TD*%
D12*
%TO.P,J13,5*%
%TO.N,N/C*%
X188722000Y-89154000D03*
%TO.P,J13,4*%
X188722000Y-86614000D03*
%TO.P,J13,3*%
X188722000Y-84074000D03*
%TO.P,J13,2*%
X188722000Y-81534000D03*
D16*
%TO.P,J13,1*%
X188722000Y-78994000D03*
%TD*%
%TO.P,J13,1*%
%TO.N,N/C*%
X173482000Y-78994000D03*
D12*
%TO.P,J13,2*%
X173482000Y-81534000D03*
%TO.P,J13,3*%
X173482000Y-84074000D03*
%TO.P,J13,4*%
X173482000Y-86614000D03*
%TO.P,J13,5*%
X173482000Y-89154000D03*
%TD*%
D16*
%TO.P,J8,1*%
%TO.N,N/C*%
X109982000Y-113284000D03*
D12*
%TO.P,J8,2*%
X112522000Y-113284000D03*
%TO.P,J8,3*%
X115062000Y-113284000D03*
%TO.P,J8,4*%
X117602000Y-113284000D03*
%TD*%
%TO.P,J8,4*%
%TO.N,N/C*%
X188722000Y-113284000D03*
%TO.P,J8,3*%
X186182000Y-113284000D03*
%TO.P,J8,2*%
X183642000Y-113284000D03*
D16*
%TO.P,J8,1*%
X181102000Y-113284000D03*
%TD*%
D12*
%TO.P,J8,4*%
%TO.N,N/C*%
X117602000Y-110744000D03*
%TO.P,J8,3*%
X115062000Y-110744000D03*
%TO.P,J8,2*%
X112522000Y-110744000D03*
D16*
%TO.P,J8,1*%
X109982000Y-110744000D03*
%TD*%
D12*
%TO.P,J8,4*%
%TO.N,N/C*%
X158242000Y-113284000D03*
%TO.P,J8,3*%
X155702000Y-113284000D03*
%TO.P,J8,2*%
X153162000Y-113284000D03*
D16*
%TO.P,J8,1*%
X150622000Y-113284000D03*
%TD*%
D12*
%TO.P,J8,4*%
%TO.N,N/C*%
X178562000Y-113284000D03*
%TO.P,J8,3*%
X176022000Y-113284000D03*
%TO.P,J8,2*%
X173482000Y-113284000D03*
D16*
%TO.P,J8,1*%
X170942000Y-113284000D03*
%TD*%
D12*
%TO.P,J8,4*%
%TO.N,N/C*%
X137922000Y-113284000D03*
%TO.P,J8,3*%
X135382000Y-113284000D03*
%TO.P,J8,2*%
X132842000Y-113284000D03*
D16*
%TO.P,J8,1*%
X130302000Y-113284000D03*
%TD*%
D12*
%TO.P,J8,4*%
%TO.N,N/C*%
X168402000Y-113284000D03*
%TO.P,J8,3*%
X165862000Y-113284000D03*
%TO.P,J8,2*%
X163322000Y-113284000D03*
D16*
%TO.P,J8,1*%
X160782000Y-113284000D03*
%TD*%
D12*
%TO.P,J8,4*%
%TO.N,N/C*%
X148082000Y-113284000D03*
%TO.P,J8,3*%
X145542000Y-113284000D03*
%TO.P,J8,2*%
X143002000Y-113284000D03*
D16*
%TO.P,J8,1*%
X140462000Y-113284000D03*
%TD*%
D12*
%TO.P,J8,4*%
%TO.N,N/C*%
X127762000Y-113284000D03*
%TO.P,J8,3*%
X125222000Y-113284000D03*
%TO.P,J8,2*%
X122682000Y-113284000D03*
D16*
%TO.P,J8,1*%
X120142000Y-113284000D03*
%TD*%
%TO.P,J8,1*%
%TO.N,N/C*%
X181102000Y-110744000D03*
D12*
%TO.P,J8,2*%
X183642000Y-110744000D03*
%TO.P,J8,3*%
X186182000Y-110744000D03*
%TO.P,J8,4*%
X188722000Y-110744000D03*
%TD*%
D16*
%TO.P,J8,1*%
%TO.N,N/C*%
X170942000Y-110744000D03*
D12*
%TO.P,J8,2*%
X173482000Y-110744000D03*
%TO.P,J8,3*%
X176022000Y-110744000D03*
%TO.P,J8,4*%
X178562000Y-110744000D03*
%TD*%
D16*
%TO.P,J8,1*%
%TO.N,N/C*%
X130302000Y-110744000D03*
D12*
%TO.P,J8,2*%
X132842000Y-110744000D03*
%TO.P,J8,3*%
X135382000Y-110744000D03*
%TO.P,J8,4*%
X137922000Y-110744000D03*
%TD*%
D16*
%TO.P,J8,1*%
%TO.N,N/C*%
X150622000Y-110744000D03*
D12*
%TO.P,J8,2*%
X153162000Y-110744000D03*
%TO.P,J8,3*%
X155702000Y-110744000D03*
%TO.P,J8,4*%
X158242000Y-110744000D03*
%TD*%
D16*
%TO.P,J8,1*%
%TO.N,N/C*%
X160782000Y-110744000D03*
D12*
%TO.P,J8,2*%
X163322000Y-110744000D03*
%TO.P,J8,3*%
X165862000Y-110744000D03*
%TO.P,J8,4*%
X168402000Y-110744000D03*
%TD*%
D16*
%TO.P,J8,1*%
%TO.N,N/C*%
X140462000Y-110744000D03*
D12*
%TO.P,J8,2*%
X143002000Y-110744000D03*
%TO.P,J8,3*%
X145542000Y-110744000D03*
%TO.P,J8,4*%
X148082000Y-110744000D03*
%TD*%
D16*
%TO.P,J8,1*%
%TO.N,N/C*%
X120142000Y-110744000D03*
D12*
%TO.P,J8,2*%
X122682000Y-110744000D03*
%TO.P,J8,3*%
X125222000Y-110744000D03*
%TO.P,J8,4*%
X127762000Y-110744000D03*
%TD*%
%TO.P,J8,4*%
%TO.N,N/C*%
X117602000Y-75184000D03*
%TO.P,J8,3*%
X115062000Y-75184000D03*
%TO.P,J8,2*%
X112522000Y-75184000D03*
D16*
%TO.P,J8,1*%
X109982000Y-75184000D03*
%TD*%
%TO.P,J8,1*%
%TO.N,N/C*%
X181102000Y-75184000D03*
D12*
%TO.P,J8,2*%
X183642000Y-75184000D03*
%TO.P,J8,3*%
X186182000Y-75184000D03*
%TO.P,J8,4*%
X188722000Y-75184000D03*
%TD*%
D16*
%TO.P,J8,1*%
%TO.N,N/C*%
X170942000Y-75184000D03*
D12*
%TO.P,J8,2*%
X173482000Y-75184000D03*
%TO.P,J8,3*%
X176022000Y-75184000D03*
%TO.P,J8,4*%
X178562000Y-75184000D03*
%TD*%
D16*
%TO.P,J8,1*%
%TO.N,N/C*%
X130302000Y-75184000D03*
D12*
%TO.P,J8,2*%
X132842000Y-75184000D03*
%TO.P,J8,3*%
X135382000Y-75184000D03*
%TO.P,J8,4*%
X137922000Y-75184000D03*
%TD*%
D16*
%TO.P,J8,1*%
%TO.N,N/C*%
X150622000Y-75184000D03*
D12*
%TO.P,J8,2*%
X153162000Y-75184000D03*
%TO.P,J8,3*%
X155702000Y-75184000D03*
%TO.P,J8,4*%
X158242000Y-75184000D03*
%TD*%
D16*
%TO.P,J8,1*%
%TO.N,N/C*%
X160782000Y-75184000D03*
D12*
%TO.P,J8,2*%
X163322000Y-75184000D03*
%TO.P,J8,3*%
X165862000Y-75184000D03*
%TO.P,J8,4*%
X168402000Y-75184000D03*
%TD*%
D16*
%TO.P,J8,1*%
%TO.N,N/C*%
X140462000Y-75184000D03*
D12*
%TO.P,J8,2*%
X143002000Y-75184000D03*
%TO.P,J8,3*%
X145542000Y-75184000D03*
%TO.P,J8,4*%
X148082000Y-75184000D03*
%TD*%
D16*
%TO.P,J8,1*%
%TO.N,N/C*%
X120142000Y-75184000D03*
D12*
%TO.P,J8,2*%
X122682000Y-75184000D03*
%TO.P,J8,3*%
X125222000Y-75184000D03*
%TO.P,J8,4*%
X127762000Y-75184000D03*
%TD*%
%TO.P,J13,5*%
%TO.N,N/C*%
X188722000Y-106934000D03*
%TO.P,J13,4*%
X188722000Y-104394000D03*
%TO.P,J13,3*%
X188722000Y-101854000D03*
%TO.P,J13,2*%
X188722000Y-99314000D03*
D16*
%TO.P,J13,1*%
X188722000Y-96774000D03*
%TD*%
D12*
%TO.P,J13,5*%
%TO.N,N/C*%
X186182000Y-106934000D03*
%TO.P,J13,4*%
X186182000Y-104394000D03*
%TO.P,J13,3*%
X186182000Y-101854000D03*
%TO.P,J13,2*%
X186182000Y-99314000D03*
D16*
%TO.P,J13,1*%
X186182000Y-96774000D03*
%TD*%
D12*
%TO.P,J13,5*%
%TO.N,N/C*%
X186182000Y-89154000D03*
%TO.P,J13,4*%
X186182000Y-86614000D03*
%TO.P,J13,3*%
X186182000Y-84074000D03*
%TO.P,J13,2*%
X186182000Y-81534000D03*
D16*
%TO.P,J13,1*%
X186182000Y-78994000D03*
%TD*%
D12*
%TO.P,J8,4*%
%TO.N,N/C*%
X188722000Y-72644000D03*
%TO.P,J8,3*%
X186182000Y-72644000D03*
%TO.P,J8,2*%
X183642000Y-72644000D03*
D16*
%TO.P,J8,1*%
X181102000Y-72644000D03*
%TD*%
D12*
%TO.P,J8,4*%
%TO.N,N/C*%
X178562000Y-72644000D03*
%TO.P,J8,3*%
X176022000Y-72644000D03*
%TO.P,J8,2*%
X173482000Y-72644000D03*
D16*
%TO.P,J8,1*%
X170942000Y-72644000D03*
%TD*%
D12*
%TO.P,J8,4*%
%TO.N,N/C*%
X168402000Y-72644000D03*
%TO.P,J8,3*%
X165862000Y-72644000D03*
%TO.P,J8,2*%
X163322000Y-72644000D03*
D16*
%TO.P,J8,1*%
X160782000Y-72644000D03*
%TD*%
D12*
%TO.P,J8,4*%
%TO.N,N/C*%
X158242000Y-72644000D03*
%TO.P,J8,3*%
X155702000Y-72644000D03*
%TO.P,J8,2*%
X153162000Y-72644000D03*
D16*
%TO.P,J8,1*%
X150622000Y-72644000D03*
%TD*%
D12*
%TO.P,J8,4*%
%TO.N,N/C*%
X148082000Y-72644000D03*
%TO.P,J8,3*%
X145542000Y-72644000D03*
%TO.P,J8,2*%
X143002000Y-72644000D03*
D16*
%TO.P,J8,1*%
X140462000Y-72644000D03*
%TD*%
D12*
%TO.P,J8,4*%
%TO.N,N/C*%
X137922000Y-72644000D03*
%TO.P,J8,3*%
X135382000Y-72644000D03*
%TO.P,J8,2*%
X132842000Y-72644000D03*
D16*
%TO.P,J8,1*%
X130302000Y-72644000D03*
%TD*%
D12*
%TO.P,J8,4*%
%TO.N,N/C*%
X127762000Y-72644000D03*
%TO.P,J8,3*%
X125222000Y-72644000D03*
%TO.P,J8,2*%
X122682000Y-72644000D03*
D16*
%TO.P,J8,1*%
X120142000Y-72644000D03*
%TD*%
%TO.P,J8,1*%
%TO.N,N/C*%
X109982000Y-72644000D03*
D12*
%TO.P,J8,2*%
X112522000Y-72644000D03*
%TO.P,J8,3*%
X115062000Y-72644000D03*
%TO.P,J8,4*%
X117602000Y-72644000D03*
%TD*%
%TO.P,J13,5*%
%TO.N,N/C*%
X135382000Y-106934000D03*
%TO.P,J13,4*%
X135382000Y-104394000D03*
%TO.P,J13,3*%
X135382000Y-101854000D03*
%TO.P,J13,2*%
X135382000Y-99314000D03*
D16*
%TO.P,J13,1*%
X135382000Y-96774000D03*
%TD*%
D12*
%TO.P,J13,5*%
%TO.N,N/C*%
X178562000Y-106934000D03*
%TO.P,J13,4*%
X178562000Y-104394000D03*
%TO.P,J13,3*%
X178562000Y-101854000D03*
%TO.P,J13,2*%
X178562000Y-99314000D03*
D16*
%TO.P,J13,1*%
X178562000Y-96774000D03*
%TD*%
D12*
%TO.P,J13,5*%
%TO.N,N/C*%
X173482000Y-106934000D03*
%TO.P,J13,4*%
X173482000Y-104394000D03*
%TO.P,J13,3*%
X173482000Y-101854000D03*
%TO.P,J13,2*%
X173482000Y-99314000D03*
D16*
%TO.P,J13,1*%
X173482000Y-96774000D03*
%TD*%
D12*
%TO.P,J13,5*%
%TO.N,N/C*%
X163322000Y-106934000D03*
%TO.P,J13,4*%
X163322000Y-104394000D03*
%TO.P,J13,3*%
X163322000Y-101854000D03*
%TO.P,J13,2*%
X163322000Y-99314000D03*
D16*
%TO.P,J13,1*%
X163322000Y-96774000D03*
%TD*%
D12*
%TO.P,J13,5*%
%TO.N,N/C*%
X176022000Y-106934000D03*
%TO.P,J13,4*%
X176022000Y-104394000D03*
%TO.P,J13,3*%
X176022000Y-101854000D03*
%TO.P,J13,2*%
X176022000Y-99314000D03*
D16*
%TO.P,J13,1*%
X176022000Y-96774000D03*
%TD*%
D12*
%TO.P,J13,5*%
%TO.N,N/C*%
X168402000Y-106934000D03*
%TO.P,J13,4*%
X168402000Y-104394000D03*
%TO.P,J13,3*%
X168402000Y-101854000D03*
%TO.P,J13,2*%
X168402000Y-99314000D03*
D16*
%TO.P,J13,1*%
X168402000Y-96774000D03*
%TD*%
D12*
%TO.P,J13,5*%
%TO.N,N/C*%
X170942000Y-106934000D03*
%TO.P,J13,4*%
X170942000Y-104394000D03*
%TO.P,J13,3*%
X170942000Y-101854000D03*
%TO.P,J13,2*%
X170942000Y-99314000D03*
D16*
%TO.P,J13,1*%
X170942000Y-96774000D03*
%TD*%
D12*
%TO.P,J13,5*%
%TO.N,N/C*%
X183642000Y-106934000D03*
%TO.P,J13,4*%
X183642000Y-104394000D03*
%TO.P,J13,3*%
X183642000Y-101854000D03*
%TO.P,J13,2*%
X183642000Y-99314000D03*
D16*
%TO.P,J13,1*%
X183642000Y-96774000D03*
%TD*%
D12*
%TO.P,J13,5*%
%TO.N,N/C*%
X181102000Y-106934000D03*
%TO.P,J13,4*%
X181102000Y-104394000D03*
%TO.P,J13,3*%
X181102000Y-101854000D03*
%TO.P,J13,2*%
X181102000Y-99314000D03*
D16*
%TO.P,J13,1*%
X181102000Y-96774000D03*
%TD*%
D12*
%TO.P,J13,5*%
%TO.N,N/C*%
X165862000Y-106934000D03*
%TO.P,J13,4*%
X165862000Y-104394000D03*
%TO.P,J13,3*%
X165862000Y-101854000D03*
%TO.P,J13,2*%
X165862000Y-99314000D03*
D16*
%TO.P,J13,1*%
X165862000Y-96774000D03*
%TD*%
D12*
%TO.P,J13,5*%
%TO.N,N/C*%
X158242000Y-106934000D03*
%TO.P,J13,4*%
X158242000Y-104394000D03*
%TO.P,J13,3*%
X158242000Y-101854000D03*
%TO.P,J13,2*%
X158242000Y-99314000D03*
D16*
%TO.P,J13,1*%
X158242000Y-96774000D03*
%TD*%
D12*
%TO.P,J13,5*%
%TO.N,N/C*%
X153162000Y-106934000D03*
%TO.P,J13,4*%
X153162000Y-104394000D03*
%TO.P,J13,3*%
X153162000Y-101854000D03*
%TO.P,J13,2*%
X153162000Y-99314000D03*
D16*
%TO.P,J13,1*%
X153162000Y-96774000D03*
%TD*%
D12*
%TO.P,J13,5*%
%TO.N,N/C*%
X127762000Y-106934000D03*
%TO.P,J13,4*%
X127762000Y-104394000D03*
%TO.P,J13,3*%
X127762000Y-101854000D03*
%TO.P,J13,2*%
X127762000Y-99314000D03*
D16*
%TO.P,J13,1*%
X127762000Y-96774000D03*
%TD*%
D12*
%TO.P,J13,5*%
%TO.N,N/C*%
X148082000Y-106934000D03*
%TO.P,J13,4*%
X148082000Y-104394000D03*
%TO.P,J13,3*%
X148082000Y-101854000D03*
%TO.P,J13,2*%
X148082000Y-99314000D03*
D16*
%TO.P,J13,1*%
X148082000Y-96774000D03*
%TD*%
D12*
%TO.P,J13,5*%
%TO.N,N/C*%
X143002000Y-106934000D03*
%TO.P,J13,4*%
X143002000Y-104394000D03*
%TO.P,J13,3*%
X143002000Y-101854000D03*
%TO.P,J13,2*%
X143002000Y-99314000D03*
D16*
%TO.P,J13,1*%
X143002000Y-96774000D03*
%TD*%
D12*
%TO.P,J13,5*%
%TO.N,N/C*%
X140462000Y-106934000D03*
%TO.P,J13,4*%
X140462000Y-104394000D03*
%TO.P,J13,3*%
X140462000Y-101854000D03*
%TO.P,J13,2*%
X140462000Y-99314000D03*
D16*
%TO.P,J13,1*%
X140462000Y-96774000D03*
%TD*%
D12*
%TO.P,J13,5*%
%TO.N,N/C*%
X132842000Y-106934000D03*
%TO.P,J13,4*%
X132842000Y-104394000D03*
%TO.P,J13,3*%
X132842000Y-101854000D03*
%TO.P,J13,2*%
X132842000Y-99314000D03*
D16*
%TO.P,J13,1*%
X132842000Y-96774000D03*
%TD*%
D12*
%TO.P,J13,5*%
%TO.N,N/C*%
X117602000Y-106934000D03*
%TO.P,J13,4*%
X117602000Y-104394000D03*
%TO.P,J13,3*%
X117602000Y-101854000D03*
%TO.P,J13,2*%
X117602000Y-99314000D03*
D16*
%TO.P,J13,1*%
X117602000Y-96774000D03*
%TD*%
D12*
%TO.P,J13,5*%
%TO.N,N/C*%
X115062000Y-106934000D03*
%TO.P,J13,4*%
X115062000Y-104394000D03*
%TO.P,J13,3*%
X115062000Y-101854000D03*
%TO.P,J13,2*%
X115062000Y-99314000D03*
D16*
%TO.P,J13,1*%
X115062000Y-96774000D03*
%TD*%
D12*
%TO.P,J13,5*%
%TO.N,N/C*%
X150622000Y-106934000D03*
%TO.P,J13,4*%
X150622000Y-104394000D03*
%TO.P,J13,3*%
X150622000Y-101854000D03*
%TO.P,J13,2*%
X150622000Y-99314000D03*
D16*
%TO.P,J13,1*%
X150622000Y-96774000D03*
%TD*%
D12*
%TO.P,J13,5*%
%TO.N,N/C*%
X155702000Y-106934000D03*
%TO.P,J13,4*%
X155702000Y-104394000D03*
%TO.P,J13,3*%
X155702000Y-101854000D03*
%TO.P,J13,2*%
X155702000Y-99314000D03*
D16*
%TO.P,J13,1*%
X155702000Y-96774000D03*
%TD*%
D12*
%TO.P,J13,5*%
%TO.N,N/C*%
X130302000Y-106934000D03*
%TO.P,J13,4*%
X130302000Y-104394000D03*
%TO.P,J13,3*%
X130302000Y-101854000D03*
%TO.P,J13,2*%
X130302000Y-99314000D03*
D16*
%TO.P,J13,1*%
X130302000Y-96774000D03*
%TD*%
D12*
%TO.P,J13,5*%
%TO.N,N/C*%
X145542000Y-106934000D03*
%TO.P,J13,4*%
X145542000Y-104394000D03*
%TO.P,J13,3*%
X145542000Y-101854000D03*
%TO.P,J13,2*%
X145542000Y-99314000D03*
D16*
%TO.P,J13,1*%
X145542000Y-96774000D03*
%TD*%
D12*
%TO.P,J13,5*%
%TO.N,N/C*%
X122682000Y-106934000D03*
%TO.P,J13,4*%
X122682000Y-104394000D03*
%TO.P,J13,3*%
X122682000Y-101854000D03*
%TO.P,J13,2*%
X122682000Y-99314000D03*
D16*
%TO.P,J13,1*%
X122682000Y-96774000D03*
%TD*%
D12*
%TO.P,J13,5*%
%TO.N,N/C*%
X160782000Y-106934000D03*
%TO.P,J13,4*%
X160782000Y-104394000D03*
%TO.P,J13,3*%
X160782000Y-101854000D03*
%TO.P,J13,2*%
X160782000Y-99314000D03*
D16*
%TO.P,J13,1*%
X160782000Y-96774000D03*
%TD*%
D12*
%TO.P,J13,5*%
%TO.N,N/C*%
X125222000Y-106934000D03*
%TO.P,J13,4*%
X125222000Y-104394000D03*
%TO.P,J13,3*%
X125222000Y-101854000D03*
%TO.P,J13,2*%
X125222000Y-99314000D03*
D16*
%TO.P,J13,1*%
X125222000Y-96774000D03*
%TD*%
D12*
%TO.P,J13,5*%
%TO.N,N/C*%
X120142000Y-106934000D03*
%TO.P,J13,4*%
X120142000Y-104394000D03*
%TO.P,J13,3*%
X120142000Y-101854000D03*
%TO.P,J13,2*%
X120142000Y-99314000D03*
D16*
%TO.P,J13,1*%
X120142000Y-96774000D03*
%TD*%
%TO.P,J13,1*%
%TO.N,N/C*%
X109982000Y-96774000D03*
D12*
%TO.P,J13,2*%
X109982000Y-99314000D03*
%TO.P,J13,3*%
X109982000Y-101854000D03*
%TO.P,J13,4*%
X109982000Y-104394000D03*
%TO.P,J13,5*%
X109982000Y-106934000D03*
%TD*%
%TO.P,J13,5*%
%TO.N,N/C*%
X137922000Y-106934000D03*
%TO.P,J13,4*%
X137922000Y-104394000D03*
%TO.P,J13,3*%
X137922000Y-101854000D03*
%TO.P,J13,2*%
X137922000Y-99314000D03*
D16*
%TO.P,J13,1*%
X137922000Y-96774000D03*
%TD*%
D12*
%TO.P,J13,5*%
%TO.N,N/C*%
X112522000Y-106934000D03*
%TO.P,J13,4*%
X112522000Y-104394000D03*
%TO.P,J13,3*%
X112522000Y-101854000D03*
%TO.P,J13,2*%
X112522000Y-99314000D03*
D16*
%TO.P,J13,1*%
X112522000Y-96774000D03*
%TD*%
%TO.P,J13,1*%
%TO.N,N/C*%
X183642000Y-78994000D03*
D12*
%TO.P,J13,2*%
X183642000Y-81534000D03*
%TO.P,J13,3*%
X183642000Y-84074000D03*
%TO.P,J13,4*%
X183642000Y-86614000D03*
%TO.P,J13,5*%
X183642000Y-89154000D03*
%TD*%
D16*
%TO.P,J13,1*%
%TO.N,N/C*%
X181102000Y-78994000D03*
D12*
%TO.P,J13,2*%
X181102000Y-81534000D03*
%TO.P,J13,3*%
X181102000Y-84074000D03*
%TO.P,J13,4*%
X181102000Y-86614000D03*
%TO.P,J13,5*%
X181102000Y-89154000D03*
%TD*%
D16*
%TO.P,J13,1*%
%TO.N,N/C*%
X178562000Y-78994000D03*
D12*
%TO.P,J13,2*%
X178562000Y-81534000D03*
%TO.P,J13,3*%
X178562000Y-84074000D03*
%TO.P,J13,4*%
X178562000Y-86614000D03*
%TO.P,J13,5*%
X178562000Y-89154000D03*
%TD*%
D16*
%TO.P,J13,1*%
%TO.N,N/C*%
X176022000Y-78994000D03*
D12*
%TO.P,J13,2*%
X176022000Y-81534000D03*
%TO.P,J13,3*%
X176022000Y-84074000D03*
%TO.P,J13,4*%
X176022000Y-86614000D03*
%TO.P,J13,5*%
X176022000Y-89154000D03*
%TD*%
D16*
%TO.P,J13,1*%
%TO.N,N/C*%
X170942000Y-78994000D03*
D12*
%TO.P,J13,2*%
X170942000Y-81534000D03*
%TO.P,J13,3*%
X170942000Y-84074000D03*
%TO.P,J13,4*%
X170942000Y-86614000D03*
%TO.P,J13,5*%
X170942000Y-89154000D03*
%TD*%
D16*
%TO.P,J13,1*%
%TO.N,N/C*%
X168402000Y-78994000D03*
D12*
%TO.P,J13,2*%
X168402000Y-81534000D03*
%TO.P,J13,3*%
X168402000Y-84074000D03*
%TO.P,J13,4*%
X168402000Y-86614000D03*
%TO.P,J13,5*%
X168402000Y-89154000D03*
%TD*%
D16*
%TO.P,J13,1*%
%TO.N,N/C*%
X165862000Y-78994000D03*
D12*
%TO.P,J13,2*%
X165862000Y-81534000D03*
%TO.P,J13,3*%
X165862000Y-84074000D03*
%TO.P,J13,4*%
X165862000Y-86614000D03*
%TO.P,J13,5*%
X165862000Y-89154000D03*
%TD*%
D16*
%TO.P,J13,1*%
%TO.N,N/C*%
X163322000Y-78994000D03*
D12*
%TO.P,J13,2*%
X163322000Y-81534000D03*
%TO.P,J13,3*%
X163322000Y-84074000D03*
%TO.P,J13,4*%
X163322000Y-86614000D03*
%TO.P,J13,5*%
X163322000Y-89154000D03*
%TD*%
D16*
%TO.P,J13,1*%
%TO.N,N/C*%
X158242000Y-78994000D03*
D12*
%TO.P,J13,2*%
X158242000Y-81534000D03*
%TO.P,J13,3*%
X158242000Y-84074000D03*
%TO.P,J13,4*%
X158242000Y-86614000D03*
%TO.P,J13,5*%
X158242000Y-89154000D03*
%TD*%
D16*
%TO.P,J13,1*%
%TO.N,N/C*%
X155702000Y-78994000D03*
D12*
%TO.P,J13,2*%
X155702000Y-81534000D03*
%TO.P,J13,3*%
X155702000Y-84074000D03*
%TO.P,J13,4*%
X155702000Y-86614000D03*
%TO.P,J13,5*%
X155702000Y-89154000D03*
%TD*%
D16*
%TO.P,J13,1*%
%TO.N,N/C*%
X153162000Y-78994000D03*
D12*
%TO.P,J13,2*%
X153162000Y-81534000D03*
%TO.P,J13,3*%
X153162000Y-84074000D03*
%TO.P,J13,4*%
X153162000Y-86614000D03*
%TO.P,J13,5*%
X153162000Y-89154000D03*
%TD*%
D16*
%TO.P,J13,1*%
%TO.N,N/C*%
X150622000Y-78994000D03*
D12*
%TO.P,J13,2*%
X150622000Y-81534000D03*
%TO.P,J13,3*%
X150622000Y-84074000D03*
%TO.P,J13,4*%
X150622000Y-86614000D03*
%TO.P,J13,5*%
X150622000Y-89154000D03*
%TD*%
D16*
%TO.P,J13,1*%
%TO.N,N/C*%
X148082000Y-78994000D03*
D12*
%TO.P,J13,2*%
X148082000Y-81534000D03*
%TO.P,J13,3*%
X148082000Y-84074000D03*
%TO.P,J13,4*%
X148082000Y-86614000D03*
%TO.P,J13,5*%
X148082000Y-89154000D03*
%TD*%
D16*
%TO.P,J13,1*%
%TO.N,N/C*%
X145542000Y-78994000D03*
D12*
%TO.P,J13,2*%
X145542000Y-81534000D03*
%TO.P,J13,3*%
X145542000Y-84074000D03*
%TO.P,J13,4*%
X145542000Y-86614000D03*
%TO.P,J13,5*%
X145542000Y-89154000D03*
%TD*%
D16*
%TO.P,J13,1*%
%TO.N,N/C*%
X143002000Y-78994000D03*
D12*
%TO.P,J13,2*%
X143002000Y-81534000D03*
%TO.P,J13,3*%
X143002000Y-84074000D03*
%TO.P,J13,4*%
X143002000Y-86614000D03*
%TO.P,J13,5*%
X143002000Y-89154000D03*
%TD*%
D16*
%TO.P,J13,1*%
%TO.N,N/C*%
X140462000Y-78994000D03*
D12*
%TO.P,J13,2*%
X140462000Y-81534000D03*
%TO.P,J13,3*%
X140462000Y-84074000D03*
%TO.P,J13,4*%
X140462000Y-86614000D03*
%TO.P,J13,5*%
X140462000Y-89154000D03*
%TD*%
D16*
%TO.P,J13,1*%
%TO.N,N/C*%
X137922000Y-78994000D03*
D12*
%TO.P,J13,2*%
X137922000Y-81534000D03*
%TO.P,J13,3*%
X137922000Y-84074000D03*
%TO.P,J13,4*%
X137922000Y-86614000D03*
%TO.P,J13,5*%
X137922000Y-89154000D03*
%TD*%
D16*
%TO.P,J13,1*%
%TO.N,N/C*%
X160782000Y-78994000D03*
D12*
%TO.P,J13,2*%
X160782000Y-81534000D03*
%TO.P,J13,3*%
X160782000Y-84074000D03*
%TO.P,J13,4*%
X160782000Y-86614000D03*
%TO.P,J13,5*%
X160782000Y-89154000D03*
%TD*%
D16*
%TO.P,J13,1*%
%TO.N,N/C*%
X132842000Y-78994000D03*
D12*
%TO.P,J13,2*%
X132842000Y-81534000D03*
%TO.P,J13,3*%
X132842000Y-84074000D03*
%TO.P,J13,4*%
X132842000Y-86614000D03*
%TO.P,J13,5*%
X132842000Y-89154000D03*
%TD*%
D16*
%TO.P,J13,1*%
%TO.N,N/C*%
X130302000Y-78994000D03*
D12*
%TO.P,J13,2*%
X130302000Y-81534000D03*
%TO.P,J13,3*%
X130302000Y-84074000D03*
%TO.P,J13,4*%
X130302000Y-86614000D03*
%TO.P,J13,5*%
X130302000Y-89154000D03*
%TD*%
D16*
%TO.P,J13,1*%
%TO.N,N/C*%
X127762000Y-78994000D03*
D12*
%TO.P,J13,2*%
X127762000Y-81534000D03*
%TO.P,J13,3*%
X127762000Y-84074000D03*
%TO.P,J13,4*%
X127762000Y-86614000D03*
%TO.P,J13,5*%
X127762000Y-89154000D03*
%TD*%
D16*
%TO.P,J13,1*%
%TO.N,N/C*%
X125222000Y-78994000D03*
D12*
%TO.P,J13,2*%
X125222000Y-81534000D03*
%TO.P,J13,3*%
X125222000Y-84074000D03*
%TO.P,J13,4*%
X125222000Y-86614000D03*
%TO.P,J13,5*%
X125222000Y-89154000D03*
%TD*%
D16*
%TO.P,J13,1*%
%TO.N,N/C*%
X122682000Y-78994000D03*
D12*
%TO.P,J13,2*%
X122682000Y-81534000D03*
%TO.P,J13,3*%
X122682000Y-84074000D03*
%TO.P,J13,4*%
X122682000Y-86614000D03*
%TO.P,J13,5*%
X122682000Y-89154000D03*
%TD*%
D16*
%TO.P,J13,1*%
%TO.N,N/C*%
X120142000Y-78994000D03*
D12*
%TO.P,J13,2*%
X120142000Y-81534000D03*
%TO.P,J13,3*%
X120142000Y-84074000D03*
%TO.P,J13,4*%
X120142000Y-86614000D03*
%TO.P,J13,5*%
X120142000Y-89154000D03*
%TD*%
D16*
%TO.P,J13,1*%
%TO.N,N/C*%
X117602000Y-78994000D03*
D12*
%TO.P,J13,2*%
X117602000Y-81534000D03*
%TO.P,J13,3*%
X117602000Y-84074000D03*
%TO.P,J13,4*%
X117602000Y-86614000D03*
%TO.P,J13,5*%
X117602000Y-89154000D03*
%TD*%
D16*
%TO.P,J13,1*%
%TO.N,N/C*%
X115062000Y-78994000D03*
D12*
%TO.P,J13,2*%
X115062000Y-81534000D03*
%TO.P,J13,3*%
X115062000Y-84074000D03*
%TO.P,J13,4*%
X115062000Y-86614000D03*
%TO.P,J13,5*%
X115062000Y-89154000D03*
%TD*%
D16*
%TO.P,J13,1*%
%TO.N,N/C*%
X112522000Y-78994000D03*
D12*
%TO.P,J13,2*%
X112522000Y-81534000D03*
%TO.P,J13,3*%
X112522000Y-84074000D03*
%TO.P,J13,4*%
X112522000Y-86614000D03*
%TO.P,J13,5*%
X112522000Y-89154000D03*
%TD*%
%TO.P,J13,5*%
%TO.N,N/C*%
X109982000Y-89154000D03*
%TO.P,J13,4*%
X109982000Y-86614000D03*
%TO.P,J13,3*%
X109982000Y-84074000D03*
%TO.P,J13,2*%
X109982000Y-81534000D03*
D16*
%TO.P,J13,1*%
X109982000Y-78994000D03*
%TD*%
%TO.P,J13,1*%
%TO.N,N/C*%
X135382000Y-78994000D03*
D12*
%TO.P,J13,2*%
X135382000Y-81534000D03*
%TO.P,J13,3*%
X135382000Y-84074000D03*
%TO.P,J13,4*%
X135382000Y-86614000D03*
%TO.P,J13,5*%
X135382000Y-89154000D03*
%TD*%
%TO.P,J9,10*%
%TO.N,GND*%
X172913500Y-121437400D03*
%TO.P,J9,9*%
X172913500Y-118897400D03*
%TO.P,J9,8*%
%TO.N,/PH0*%
X175453500Y-121437400D03*
%TO.P,J9,7*%
%TO.N,/~INH*%
X175453500Y-118897400D03*
%TO.P,J9,6*%
%TO.N,/Q3*%
X177993500Y-121437400D03*
%TO.P,J9,5*%
%TO.N,/RW*%
X177993500Y-118897400D03*
%TO.P,J9,4*%
%TO.N,/CREF*%
X180533500Y-121437400D03*
%TO.P,J9,3*%
%TO.N,/~RESET*%
X180533500Y-118897400D03*
%TO.P,J9,2*%
%TO.N,/7M*%
X183073500Y-121437400D03*
D13*
%TO.P,J9,1*%
%TO.N,/~IRQ*%
X183073500Y-118897400D03*
%TD*%
D12*
%TO.P,J7,10*%
%TO.N,GND*%
X109394500Y-121437400D03*
%TO.P,J7,9*%
X109394500Y-118897400D03*
%TO.P,J7,8*%
%TO.N,/KSEL2*%
X111934500Y-121437400D03*
%TO.P,J7,7*%
%TO.N,/PDLTRIG*%
X111934500Y-118897400D03*
%TO.P,J7,6*%
%TO.N,/KSEL1*%
X114474500Y-121437400D03*
%TO.P,J7,5*%
%TO.N,/~DMA*%
X114474500Y-118897400D03*
%TO.P,J7,4*%
%TO.N,/KSEL0*%
X117014500Y-121437400D03*
%TO.P,J7,3*%
%TO.N,/~NMI*%
X117014500Y-118897400D03*
%TO.P,J7,2*%
%TO.N,/C060-67*%
X119554500Y-121437400D03*
D13*
%TO.P,J7,1*%
%TO.N,/~RDY*%
X119554500Y-118897400D03*
%TD*%
D12*
%TO.P,J6,8*%
%TO.N,-12V*%
X190666500Y-121437400D03*
%TO.P,J6,7*%
X190666500Y-118897400D03*
%TO.P,J6,6*%
%TO.N,+12V*%
X193206500Y-121437400D03*
%TO.P,J6,5*%
X193206500Y-118897400D03*
%TO.P,J6,4*%
%TO.N,+5V*%
X195746500Y-121437400D03*
%TO.P,J6,3*%
X195746500Y-118897400D03*
%TO.P,J6,2*%
%TO.N,GND*%
X198286500Y-121437400D03*
D13*
%TO.P,J6,1*%
X198286500Y-118897400D03*
%TD*%
D12*
%TO.P,J5,4*%
%TO.N,GND*%
X195645600Y-94792800D03*
%TO.P,J5,3*%
X195645600Y-92252800D03*
%TO.P,J5,2*%
%TO.N,-5V*%
X198185600Y-94792800D03*
D13*
%TO.P,J5,1*%
X198185600Y-92252800D03*
%TD*%
%TO.P,D4,2*%
%TO.N,Net-(D4-Pad2)*%
%TA.AperFunction,SMDPad,CuDef*%
G36*
G01*
X196774100Y-74437400D02*
X196774100Y-73187400D01*
G75*
G02*
X197024100Y-72937400I250000J0D01*
G01*
X197774100Y-72937400D01*
G75*
G02*
X198024100Y-73187400I0J-250000D01*
G01*
X198024100Y-74437400D01*
G75*
G02*
X197774100Y-74687400I-250000J0D01*
G01*
X197024100Y-74687400D01*
G75*
G02*
X196774100Y-74437400I0J250000D01*
G01*
G37*
%TD.AperFunction*%
%TO.P,D4,1*%
%TO.N,-5V*%
%TA.AperFunction,SMDPad,CuDef*%
G36*
G01*
X193974100Y-74437400D02*
X193974100Y-73187400D01*
G75*
G02*
X194224100Y-72937400I250000J0D01*
G01*
X194974100Y-72937400D01*
G75*
G02*
X195224100Y-73187400I0J-250000D01*
G01*
X195224100Y-74437400D01*
G75*
G02*
X194974100Y-74687400I-250000J0D01*
G01*
X194224100Y-74687400D01*
G75*
G02*
X193974100Y-74437400I0J250000D01*
G01*
G37*
%TD.AperFunction*%
%TD*%
D12*
%TO.P,J1,8*%
%TO.N,-12V*%
X190666500Y-128905000D03*
%TO.P,J1,7*%
X190666500Y-126365000D03*
%TO.P,J1,6*%
%TO.N,+12V*%
X193206500Y-128905000D03*
%TO.P,J1,5*%
X193206500Y-126365000D03*
%TO.P,J1,4*%
%TO.N,+5V*%
X195746500Y-128905000D03*
%TO.P,J1,3*%
X195746500Y-126365000D03*
%TO.P,J1,2*%
%TO.N,GND*%
X198286500Y-128905000D03*
D13*
%TO.P,J1,1*%
X198286500Y-126365000D03*
%TD*%
D12*
%TO.P,J4,10*%
%TO.N,GND*%
X172913500Y-128905000D03*
%TO.P,J4,9*%
X172913500Y-126365000D03*
%TO.P,J4,8*%
%TO.N,/PH0*%
X175453500Y-128905000D03*
%TO.P,J4,7*%
%TO.N,/~INH*%
X175453500Y-126365000D03*
%TO.P,J4,6*%
%TO.N,/Q3*%
X177993500Y-128905000D03*
%TO.P,J4,5*%
%TO.N,/RW*%
X177993500Y-126365000D03*
%TO.P,J4,4*%
%TO.N,/CREF*%
X180533500Y-128905000D03*
%TO.P,J4,3*%
%TO.N,/~RESET*%
X180533500Y-126365000D03*
%TO.P,J4,2*%
%TO.N,/7M*%
X183073500Y-128905000D03*
D13*
%TO.P,J4,1*%
%TO.N,/~IRQ*%
X183073500Y-126365000D03*
%TD*%
D12*
%TO.P,J2,10*%
%TO.N,GND*%
X109394500Y-128905000D03*
%TO.P,J2,9*%
X109394500Y-126365000D03*
%TO.P,J2,8*%
%TO.N,/KSEL2*%
X111934500Y-128905000D03*
%TO.P,J2,7*%
%TO.N,/PDLTRIG*%
X111934500Y-126365000D03*
%TO.P,J2,6*%
%TO.N,/KSEL1*%
X114474500Y-128905000D03*
%TO.P,J2,5*%
%TO.N,/~DMA*%
X114474500Y-126365000D03*
%TO.P,J2,4*%
%TO.N,/KSEL0*%
X117014500Y-128905000D03*
%TO.P,J2,3*%
%TO.N,/~NMI*%
X117014500Y-126365000D03*
%TO.P,J2,2*%
%TO.N,/C060-67*%
X119554500Y-128905000D03*
D13*
%TO.P,J2,1*%
%TO.N,/~RDY*%
X119554500Y-126365000D03*
%TD*%
D12*
%TO.P,J3,32*%
%TO.N,GND*%
X127254000Y-128905000D03*
%TO.P,J3,31*%
X127254000Y-126365000D03*
%TO.P,J3,30*%
%TO.N,/MD6*%
X129794000Y-128905000D03*
%TO.P,J3,29*%
%TO.N,/MD7*%
X129794000Y-126365000D03*
%TO.P,J3,28*%
%TO.N,/MD4*%
X132334000Y-128905000D03*
%TO.P,J3,27*%
%TO.N,/MD5*%
X132334000Y-126365000D03*
%TO.P,J3,26*%
%TO.N,/MD2*%
X134874000Y-128905000D03*
%TO.P,J3,25*%
%TO.N,/MD3*%
X134874000Y-126365000D03*
%TO.P,J3,24*%
%TO.N,/MD0*%
X137414000Y-128905000D03*
%TO.P,J3,23*%
%TO.N,/MD1*%
X137414000Y-126365000D03*
%TO.P,J3,22*%
%TO.N,GND*%
X139954000Y-128905000D03*
%TO.P,J3,21*%
X139954000Y-126365000D03*
%TO.P,J3,20*%
%TO.N,/BA14*%
X142494000Y-128905000D03*
%TO.P,J3,19*%
%TO.N,/BA15*%
X142494000Y-126365000D03*
%TO.P,J3,18*%
%TO.N,/BA12*%
X145034000Y-128905000D03*
%TO.P,J3,17*%
%TO.N,/BA13*%
X145034000Y-126365000D03*
%TO.P,J3,16*%
%TO.N,/BA10*%
X147574000Y-128905000D03*
%TO.P,J3,15*%
%TO.N,/BA11*%
X147574000Y-126365000D03*
%TO.P,J3,14*%
%TO.N,/BA8*%
X150114000Y-128905000D03*
%TO.P,J3,13*%
%TO.N,/BA9*%
X150114000Y-126365000D03*
%TO.P,J3,12*%
%TO.N,GND*%
X152654000Y-128905000D03*
%TO.P,J3,11*%
X152654000Y-126365000D03*
%TO.P,J3,10*%
%TO.N,/BA6*%
X155194000Y-128905000D03*
%TO.P,J3,9*%
%TO.N,/BA7*%
X155194000Y-126365000D03*
%TO.P,J3,8*%
%TO.N,/BA4*%
X157734000Y-128905000D03*
%TO.P,J3,7*%
%TO.N,/BA5*%
X157734000Y-126365000D03*
%TO.P,J3,6*%
%TO.N,/BA2*%
X160274000Y-128905000D03*
%TO.P,J3,5*%
%TO.N,/BA3*%
X160274000Y-126365000D03*
%TO.P,J3,4*%
%TO.N,/BA0*%
X162814000Y-128905000D03*
%TO.P,J3,3*%
%TO.N,/BA1*%
X162814000Y-126365000D03*
%TO.P,J3,2*%
%TO.N,GND*%
X165354000Y-128905000D03*
D13*
%TO.P,J3,1*%
X165354000Y-126365000D03*
%TD*%
%TO.P,D3,2*%
%TO.N,Net-(D3-Pad2)*%
%TA.AperFunction,SMDPad,CuDef*%
G36*
G01*
X196774100Y-82489200D02*
X196774100Y-81239200D01*
G75*
G02*
X197024100Y-80989200I250000J0D01*
G01*
X197774100Y-80989200D01*
G75*
G02*
X198024100Y-81239200I0J-250000D01*
G01*
X198024100Y-82489200D01*
G75*
G02*
X197774100Y-82739200I-250000J0D01*
G01*
X197024100Y-82739200D01*
G75*
G02*
X196774100Y-82489200I0J250000D01*
G01*
G37*
%TD.AperFunction*%
%TO.P,D3,1*%
%TO.N,GND*%
%TA.AperFunction,SMDPad,CuDef*%
G36*
G01*
X193974100Y-82489200D02*
X193974100Y-81239200D01*
G75*
G02*
X194224100Y-80989200I250000J0D01*
G01*
X194974100Y-80989200D01*
G75*
G02*
X195224100Y-81239200I0J-250000D01*
G01*
X195224100Y-82489200D01*
G75*
G02*
X194974100Y-82739200I-250000J0D01*
G01*
X194224100Y-82739200D01*
G75*
G02*
X193974100Y-82489200I0J250000D01*
G01*
G37*
%TD.AperFunction*%
%TD*%
%TO.P,D2,2*%
%TO.N,Net-(D2-Pad2)*%
%TA.AperFunction,SMDPad,CuDef*%
G36*
G01*
X196774100Y-77121334D02*
X196774100Y-75871334D01*
G75*
G02*
X197024100Y-75621334I250000J0D01*
G01*
X197774100Y-75621334D01*
G75*
G02*
X198024100Y-75871334I0J-250000D01*
G01*
X198024100Y-77121334D01*
G75*
G02*
X197774100Y-77371334I-250000J0D01*
G01*
X197024100Y-77371334D01*
G75*
G02*
X196774100Y-77121334I0J250000D01*
G01*
G37*
%TD.AperFunction*%
%TO.P,D2,1*%
%TO.N,GND*%
%TA.AperFunction,SMDPad,CuDef*%
G36*
G01*
X193974100Y-77121334D02*
X193974100Y-75871334D01*
G75*
G02*
X194224100Y-75621334I250000J0D01*
G01*
X194974100Y-75621334D01*
G75*
G02*
X195224100Y-75871334I0J-250000D01*
G01*
X195224100Y-77121334D01*
G75*
G02*
X194974100Y-77371334I-250000J0D01*
G01*
X194224100Y-77371334D01*
G75*
G02*
X193974100Y-77121334I0J250000D01*
G01*
G37*
%TD.AperFunction*%
%TD*%
%TO.P,D1,2*%
%TO.N,Net-(D1-Pad2)*%
%TA.AperFunction,SMDPad,CuDef*%
G36*
G01*
X196774100Y-79805267D02*
X196774100Y-78555267D01*
G75*
G02*
X197024100Y-78305267I250000J0D01*
G01*
X197774100Y-78305267D01*
G75*
G02*
X198024100Y-78555267I0J-250000D01*
G01*
X198024100Y-79805267D01*
G75*
G02*
X197774100Y-80055267I-250000J0D01*
G01*
X197024100Y-80055267D01*
G75*
G02*
X196774100Y-79805267I0J250000D01*
G01*
G37*
%TD.AperFunction*%
%TO.P,D1,1*%
%TO.N,-12V*%
%TA.AperFunction,SMDPad,CuDef*%
G36*
G01*
X193974100Y-79805267D02*
X193974100Y-78555267D01*
G75*
G02*
X194224100Y-78305267I250000J0D01*
G01*
X194974100Y-78305267D01*
G75*
G02*
X195224100Y-78555267I0J-250000D01*
G01*
X195224100Y-79805267D01*
G75*
G02*
X194974100Y-80055267I-250000J0D01*
G01*
X194224100Y-80055267D01*
G75*
G02*
X193974100Y-79805267I0J250000D01*
G01*
G37*
%TD.AperFunction*%
%TD*%
D17*
%TO.N,GND*%
X194513200Y-117144800D03*
X186944000Y-120142000D03*
X195834000Y-72390000D03*
X195072000Y-101346000D03*
%TO.N,+12V*%
X193206500Y-112609500D03*
X194183000Y-83439002D03*
%TO.N,+5V*%
X194310000Y-84836000D03*
X193802000Y-111252000D03*
%TO.N,Net-(D2-Pad2)*%
X196784600Y-76496334D03*
%TO.N,Net-(D3-Pad2)*%
X196784600Y-81864200D03*
%TO.N,Net-(D4-Pad2)*%
X196784600Y-73812400D03*
%TO.N,Net-(D1-Pad2)*%
X196784600Y-79180267D03*
%TD*%
D18*
%TO.N,*%
X150622000Y-75184000D02*
X150876000Y-75184000D01*
%TO.N,GND*%
X194599100Y-81864200D02*
X194599100Y-82331100D01*
X195645600Y-83377600D02*
X195645600Y-92252800D01*
X194599100Y-82331100D02*
X195645600Y-83377600D01*
X195224100Y-76496334D02*
X195834000Y-75886434D01*
X194599100Y-76496334D02*
X195224100Y-76496334D01*
X195834000Y-75886434D02*
X195834000Y-72390000D01*
X195834000Y-80629300D02*
X194599100Y-81864200D01*
X195834000Y-77470000D02*
X195834000Y-80629300D01*
X194860334Y-76496334D02*
X195834000Y-77470000D01*
X194599100Y-76496334D02*
X194860334Y-76496334D01*
%TO.N,-12V*%
X200152000Y-71120000D02*
X200152000Y-104571800D01*
X199136000Y-70104000D02*
X200152000Y-71120000D01*
X192024000Y-70104000D02*
X199136000Y-70104000D01*
X190754000Y-71374000D02*
X192024000Y-70104000D01*
X200152000Y-104571800D02*
X198475600Y-106248200D01*
X190754000Y-77724000D02*
X190754000Y-71374000D01*
X192210267Y-79180267D02*
X190754000Y-77724000D01*
X194599100Y-79180267D02*
X192210267Y-79180267D01*
%TO.N,+12V*%
X193206500Y-112609500D02*
X192806501Y-112209501D01*
X192806501Y-112209501D02*
X192806501Y-84815501D01*
X192806501Y-84815501D02*
X194183000Y-83439002D01*
%TO.N,+5V*%
X193802000Y-85344000D02*
X194310000Y-84836000D01*
X193802000Y-111252000D02*
X193802000Y-85344000D01*
%TO.N,Net-(D2-Pad2)*%
X197399100Y-76496334D02*
X196784600Y-76496334D01*
%TO.N,Net-(D3-Pad2)*%
X197399100Y-81864200D02*
X196784600Y-81864200D01*
%TO.N,Net-(D4-Pad2)*%
X197399100Y-73812400D02*
X196784600Y-73812400D01*
D19*
%TO.N,/PDLTRIG*%
X110754299Y-125184799D02*
X111934500Y-126365000D01*
X110754299Y-120077601D02*
X110754299Y-125184799D01*
X111934500Y-118897400D02*
X110754299Y-120077601D01*
%TO.N,/MD7*%
X128613799Y-125184799D02*
X129794000Y-126365000D01*
X128613799Y-120077601D02*
X128613799Y-125184799D01*
X129794000Y-118897400D02*
X128613799Y-120077601D01*
%TO.N,/MD5*%
X131153799Y-125184799D02*
X132334000Y-126365000D01*
X131153799Y-120077601D02*
X131153799Y-125184799D01*
X132334000Y-118897400D02*
X131153799Y-120077601D01*
%TO.N,/MD3*%
X133693799Y-125184799D02*
X134874000Y-126365000D01*
X133693799Y-120077601D02*
X133693799Y-125184799D01*
X134874000Y-118897400D02*
X133693799Y-120077601D01*
%TO.N,/MD1*%
X136233799Y-125184799D02*
X137414000Y-126365000D01*
X136233799Y-120077601D02*
X136233799Y-125184799D01*
X137414000Y-118897400D02*
X136233799Y-120077601D01*
%TO.N,/BA3*%
X159093799Y-125184799D02*
X160274000Y-126365000D01*
X159093799Y-120077601D02*
X159093799Y-125184799D01*
X160274000Y-118897400D02*
X159093799Y-120077601D01*
%TO.N,/BA1*%
X161633799Y-125184799D02*
X162814000Y-126365000D01*
X161633799Y-120077601D02*
X161633799Y-125184799D01*
X162814000Y-118897400D02*
X161633799Y-120077601D01*
%TO.N,/BA15*%
X141313799Y-125184799D02*
X142494000Y-126365000D01*
X141313799Y-120077601D02*
X141313799Y-125184799D01*
X142494000Y-118897400D02*
X141313799Y-120077601D01*
%TO.N,/BA13*%
X143853799Y-125184799D02*
X145034000Y-126365000D01*
X143853799Y-120077601D02*
X143853799Y-125184799D01*
X145034000Y-118897400D02*
X143853799Y-120077601D01*
%TO.N,/BA11*%
X146393799Y-125184799D02*
X147574000Y-126365000D01*
X146393799Y-120077601D02*
X146393799Y-125184799D01*
X147574000Y-118897400D02*
X146393799Y-120077601D01*
%TO.N,/BA9*%
X148933799Y-125184799D02*
X150114000Y-126365000D01*
X148933799Y-120077601D02*
X148933799Y-125184799D01*
X150114000Y-118897400D02*
X148933799Y-120077601D01*
%TO.N,/BA7*%
X154013799Y-125184799D02*
X155194000Y-126365000D01*
X154013799Y-120077601D02*
X154013799Y-125184799D01*
X155194000Y-118897400D02*
X154013799Y-120077601D01*
%TO.N,/BA5*%
X156553799Y-125184799D02*
X157734000Y-126365000D01*
X156553799Y-120077601D02*
X156553799Y-125184799D01*
X157734000Y-118897400D02*
X156553799Y-120077601D01*
D18*
%TO.N,-5V*%
X194599100Y-71338900D02*
X194599100Y-73812400D01*
X198628000Y-70866000D02*
X195072000Y-70866000D01*
X195072000Y-70866000D02*
X194599100Y-71338900D01*
X199136000Y-71374000D02*
X198628000Y-70866000D01*
X199136000Y-87630000D02*
X199136000Y-71374000D01*
X198185600Y-88580400D02*
X199136000Y-87630000D01*
X198185600Y-92252800D02*
X198185600Y-88580400D01*
%TO.N,Net-(D1-Pad2)*%
X197399100Y-79180267D02*
X196784600Y-79180267D01*
D19*
%TO.N,/~RDY*%
X118374299Y-125184799D02*
X119554500Y-126365000D01*
X118374299Y-120077601D02*
X118374299Y-125184799D01*
X119554500Y-118897400D02*
X118374299Y-120077601D01*
%TO.N,/~NMI*%
X115834299Y-120077601D02*
X115834299Y-125184799D01*
X115834299Y-125184799D02*
X117014500Y-126365000D01*
X117014500Y-118897400D02*
X115834299Y-120077601D01*
%TO.N,/~INH*%
X174273299Y-125184799D02*
X175453500Y-126365000D01*
X174273299Y-120077601D02*
X174273299Y-125184799D01*
X175453500Y-118897400D02*
X174273299Y-120077601D01*
%TO.N,/RW*%
X176813299Y-125184799D02*
X177993500Y-126365000D01*
X176813299Y-120077601D02*
X176813299Y-125184799D01*
X177993500Y-118897400D02*
X176813299Y-120077601D01*
%TO.N,/~RESET*%
X179353299Y-125184799D02*
X180533500Y-126365000D01*
X179353299Y-120077601D02*
X179353299Y-125184799D01*
X180533500Y-118897400D02*
X179353299Y-120077601D01*
%TO.N,/~IRQ*%
X181893299Y-125184799D02*
X183073500Y-126365000D01*
X181893299Y-120077601D02*
X181893299Y-125184799D01*
X183073500Y-118897400D02*
X181893299Y-120077601D01*
%TO.N,/~DMA*%
X113294299Y-125184799D02*
X114474500Y-126365000D01*
X113294299Y-120077601D02*
X113294299Y-125184799D01*
X114474500Y-118897400D02*
X113294299Y-120077601D01*
%TD*%
%TO.N,-12V*%
X190793500Y-121310400D02*
X190813500Y-121310400D01*
X190813500Y-121564400D01*
X190793500Y-121564400D01*
X190793500Y-122566027D01*
X190983480Y-122626889D01*
X191063788Y-122602534D01*
X191283461Y-122502639D01*
X191479424Y-122361808D01*
X191644147Y-122185452D01*
X191770000Y-121982444D01*
X191770000Y-125819956D01*
X191644147Y-125616948D01*
X191479424Y-125440592D01*
X191283461Y-125299761D01*
X191063788Y-125199866D01*
X190983480Y-125175511D01*
X190793500Y-125236373D01*
X190793500Y-126238000D01*
X190813500Y-126238000D01*
X190813500Y-126492000D01*
X190793500Y-126492000D01*
X190793500Y-127493627D01*
X190983480Y-127554489D01*
X191063788Y-127530134D01*
X191283461Y-127430239D01*
X191479424Y-127289408D01*
X191644147Y-127113052D01*
X191770000Y-126910044D01*
X191770000Y-128359956D01*
X191644147Y-128156948D01*
X191479424Y-127980592D01*
X191283461Y-127839761D01*
X191063788Y-127739866D01*
X190983480Y-127715511D01*
X190793500Y-127776373D01*
X190793500Y-128778000D01*
X190813500Y-128778000D01*
X190813500Y-129032000D01*
X190793500Y-129032000D01*
X190793500Y-129052000D01*
X190539500Y-129052000D01*
X190539500Y-129032000D01*
X190519500Y-129032000D01*
X190519500Y-128778000D01*
X190539500Y-128778000D01*
X190539500Y-127776373D01*
X190349520Y-127715511D01*
X190269212Y-127739866D01*
X190049539Y-127839761D01*
X189853576Y-127980592D01*
X189688853Y-128156948D01*
X189611000Y-128282529D01*
X189611000Y-126987471D01*
X189688853Y-127113052D01*
X189853576Y-127289408D01*
X190049539Y-127430239D01*
X190269212Y-127530134D01*
X190349520Y-127554489D01*
X190539500Y-127493627D01*
X190539500Y-126492000D01*
X190519500Y-126492000D01*
X190519500Y-126238000D01*
X190539500Y-126238000D01*
X190539500Y-125236373D01*
X190349520Y-125175511D01*
X190269212Y-125199866D01*
X190049539Y-125299761D01*
X189853576Y-125440592D01*
X189688853Y-125616948D01*
X189611000Y-125742529D01*
X189611000Y-122059871D01*
X189688853Y-122185452D01*
X189853576Y-122361808D01*
X190049539Y-122502639D01*
X190269212Y-122602534D01*
X190349520Y-122626889D01*
X190539500Y-122566027D01*
X190539500Y-121564400D01*
X190519500Y-121564400D01*
X190519500Y-121310400D01*
X190539500Y-121310400D01*
X190539500Y-121290400D01*
X190793500Y-121290400D01*
X190793500Y-121310400D01*
%TA.AperFunction,Conductor*%
D20*
G36*
X190793500Y-121310400D02*
G01*
X190813500Y-121310400D01*
X190813500Y-121564400D01*
X190793500Y-121564400D01*
X190793500Y-122566027D01*
X190983480Y-122626889D01*
X191063788Y-122602534D01*
X191283461Y-122502639D01*
X191479424Y-122361808D01*
X191644147Y-122185452D01*
X191770000Y-121982444D01*
X191770000Y-125819956D01*
X191644147Y-125616948D01*
X191479424Y-125440592D01*
X191283461Y-125299761D01*
X191063788Y-125199866D01*
X190983480Y-125175511D01*
X190793500Y-125236373D01*
X190793500Y-126238000D01*
X190813500Y-126238000D01*
X190813500Y-126492000D01*
X190793500Y-126492000D01*
X190793500Y-127493627D01*
X190983480Y-127554489D01*
X191063788Y-127530134D01*
X191283461Y-127430239D01*
X191479424Y-127289408D01*
X191644147Y-127113052D01*
X191770000Y-126910044D01*
X191770000Y-128359956D01*
X191644147Y-128156948D01*
X191479424Y-127980592D01*
X191283461Y-127839761D01*
X191063788Y-127739866D01*
X190983480Y-127715511D01*
X190793500Y-127776373D01*
X190793500Y-128778000D01*
X190813500Y-128778000D01*
X190813500Y-129032000D01*
X190793500Y-129032000D01*
X190793500Y-129052000D01*
X190539500Y-129052000D01*
X190539500Y-129032000D01*
X190519500Y-129032000D01*
X190519500Y-128778000D01*
X190539500Y-128778000D01*
X190539500Y-127776373D01*
X190349520Y-127715511D01*
X190269212Y-127739866D01*
X190049539Y-127839761D01*
X189853576Y-127980592D01*
X189688853Y-128156948D01*
X189611000Y-128282529D01*
X189611000Y-126987471D01*
X189688853Y-127113052D01*
X189853576Y-127289408D01*
X190049539Y-127430239D01*
X190269212Y-127530134D01*
X190349520Y-127554489D01*
X190539500Y-127493627D01*
X190539500Y-126492000D01*
X190519500Y-126492000D01*
X190519500Y-126238000D01*
X190539500Y-126238000D01*
X190539500Y-125236373D01*
X190349520Y-125175511D01*
X190269212Y-125199866D01*
X190049539Y-125299761D01*
X189853576Y-125440592D01*
X189688853Y-125616948D01*
X189611000Y-125742529D01*
X189611000Y-122059871D01*
X189688853Y-122185452D01*
X189853576Y-122361808D01*
X190049539Y-122502639D01*
X190269212Y-122602534D01*
X190349520Y-122626889D01*
X190539500Y-122566027D01*
X190539500Y-121564400D01*
X190519500Y-121564400D01*
X190519500Y-121310400D01*
X190539500Y-121310400D01*
X190539500Y-121290400D01*
X190793500Y-121290400D01*
X190793500Y-121310400D01*
G37*
%TD.AperFunction*%
%TD*%
D19*
%TO.N,+12V*%
X193333500Y-121310400D02*
X193353500Y-121310400D01*
X193353500Y-121564400D01*
X193333500Y-121564400D01*
X193333500Y-122566027D01*
X193523480Y-122626889D01*
X193603788Y-122602534D01*
X193823461Y-122502639D01*
X194019424Y-122361808D01*
X194184147Y-122185452D01*
X194310000Y-121982444D01*
X194310000Y-125819956D01*
X194184147Y-125616948D01*
X194019424Y-125440592D01*
X193823461Y-125299761D01*
X193603788Y-125199866D01*
X193523480Y-125175511D01*
X193333500Y-125236373D01*
X193333500Y-126238000D01*
X193353500Y-126238000D01*
X193353500Y-126492000D01*
X193333500Y-126492000D01*
X193333500Y-127493627D01*
X193523480Y-127554489D01*
X193603788Y-127530134D01*
X193823461Y-127430239D01*
X194019424Y-127289408D01*
X194184147Y-127113052D01*
X194310000Y-126910044D01*
X194310000Y-128359956D01*
X194184147Y-128156948D01*
X194019424Y-127980592D01*
X193823461Y-127839761D01*
X193603788Y-127739866D01*
X193523480Y-127715511D01*
X193333500Y-127776373D01*
X193333500Y-128778000D01*
X193353500Y-128778000D01*
X193353500Y-129032000D01*
X193333500Y-129032000D01*
X193333500Y-129052000D01*
X193079500Y-129052000D01*
X193079500Y-129032000D01*
X193059500Y-129032000D01*
X193059500Y-128778000D01*
X193079500Y-128778000D01*
X193079500Y-127776373D01*
X192889520Y-127715511D01*
X192809212Y-127739866D01*
X192589539Y-127839761D01*
X192393576Y-127980592D01*
X192228853Y-128156948D01*
X192151000Y-128282529D01*
X192151000Y-126987471D01*
X192228853Y-127113052D01*
X192393576Y-127289408D01*
X192589539Y-127430239D01*
X192809212Y-127530134D01*
X192889520Y-127554489D01*
X193079500Y-127493627D01*
X193079500Y-126492000D01*
X193059500Y-126492000D01*
X193059500Y-126238000D01*
X193079500Y-126238000D01*
X193079500Y-125236373D01*
X192889520Y-125175511D01*
X192809212Y-125199866D01*
X192589539Y-125299761D01*
X192393576Y-125440592D01*
X192228853Y-125616948D01*
X192151000Y-125742529D01*
X192151000Y-122059871D01*
X192228853Y-122185452D01*
X192393576Y-122361808D01*
X192589539Y-122502639D01*
X192809212Y-122602534D01*
X192889520Y-122626889D01*
X193079500Y-122566027D01*
X193079500Y-121564400D01*
X193059500Y-121564400D01*
X193059500Y-121310400D01*
X193079500Y-121310400D01*
X193079500Y-121290400D01*
X193333500Y-121290400D01*
X193333500Y-121310400D01*
%TA.AperFunction,Conductor*%
D20*
G36*
X193333500Y-121310400D02*
G01*
X193353500Y-121310400D01*
X193353500Y-121564400D01*
X193333500Y-121564400D01*
X193333500Y-122566027D01*
X193523480Y-122626889D01*
X193603788Y-122602534D01*
X193823461Y-122502639D01*
X194019424Y-122361808D01*
X194184147Y-122185452D01*
X194310000Y-121982444D01*
X194310000Y-125819956D01*
X194184147Y-125616948D01*
X194019424Y-125440592D01*
X193823461Y-125299761D01*
X193603788Y-125199866D01*
X193523480Y-125175511D01*
X193333500Y-125236373D01*
X193333500Y-126238000D01*
X193353500Y-126238000D01*
X193353500Y-126492000D01*
X193333500Y-126492000D01*
X193333500Y-127493627D01*
X193523480Y-127554489D01*
X193603788Y-127530134D01*
X193823461Y-127430239D01*
X194019424Y-127289408D01*
X194184147Y-127113052D01*
X194310000Y-126910044D01*
X194310000Y-128359956D01*
X194184147Y-128156948D01*
X194019424Y-127980592D01*
X193823461Y-127839761D01*
X193603788Y-127739866D01*
X193523480Y-127715511D01*
X193333500Y-127776373D01*
X193333500Y-128778000D01*
X193353500Y-128778000D01*
X193353500Y-129032000D01*
X193333500Y-129032000D01*
X193333500Y-129052000D01*
X193079500Y-129052000D01*
X193079500Y-129032000D01*
X193059500Y-129032000D01*
X193059500Y-128778000D01*
X193079500Y-128778000D01*
X193079500Y-127776373D01*
X192889520Y-127715511D01*
X192809212Y-127739866D01*
X192589539Y-127839761D01*
X192393576Y-127980592D01*
X192228853Y-128156948D01*
X192151000Y-128282529D01*
X192151000Y-126987471D01*
X192228853Y-127113052D01*
X192393576Y-127289408D01*
X192589539Y-127430239D01*
X192809212Y-127530134D01*
X192889520Y-127554489D01*
X193079500Y-127493627D01*
X193079500Y-126492000D01*
X193059500Y-126492000D01*
X193059500Y-126238000D01*
X193079500Y-126238000D01*
X193079500Y-125236373D01*
X192889520Y-125175511D01*
X192809212Y-125199866D01*
X192589539Y-125299761D01*
X192393576Y-125440592D01*
X192228853Y-125616948D01*
X192151000Y-125742529D01*
X192151000Y-122059871D01*
X192228853Y-122185452D01*
X192393576Y-122361808D01*
X192589539Y-122502639D01*
X192809212Y-122602534D01*
X192889520Y-122626889D01*
X193079500Y-122566027D01*
X193079500Y-121564400D01*
X193059500Y-121564400D01*
X193059500Y-121310400D01*
X193079500Y-121310400D01*
X193079500Y-121290400D01*
X193333500Y-121290400D01*
X193333500Y-121310400D01*
G37*
%TD.AperFunction*%
%TD*%
D19*
%TO.N,+5V*%
X195873500Y-121310400D02*
X195893500Y-121310400D01*
X195893500Y-121564400D01*
X195873500Y-121564400D01*
X195873500Y-122566027D01*
X196063480Y-122626889D01*
X196143788Y-122602534D01*
X196363461Y-122502639D01*
X196559424Y-122361808D01*
X196724147Y-122185452D01*
X196850000Y-121982444D01*
X196850000Y-125819956D01*
X196724147Y-125616948D01*
X196559424Y-125440592D01*
X196363461Y-125299761D01*
X196143788Y-125199866D01*
X196063480Y-125175511D01*
X195873500Y-125236373D01*
X195873500Y-126238000D01*
X195893500Y-126238000D01*
X195893500Y-126492000D01*
X195873500Y-126492000D01*
X195873500Y-127493627D01*
X196063480Y-127554489D01*
X196143788Y-127530134D01*
X196363461Y-127430239D01*
X196559424Y-127289408D01*
X196724147Y-127113052D01*
X196850000Y-126910044D01*
X196850000Y-128359956D01*
X196724147Y-128156948D01*
X196559424Y-127980592D01*
X196363461Y-127839761D01*
X196143788Y-127739866D01*
X196063480Y-127715511D01*
X195873500Y-127776373D01*
X195873500Y-128778000D01*
X195893500Y-128778000D01*
X195893500Y-129032000D01*
X195873500Y-129032000D01*
X195873500Y-129052000D01*
X195619500Y-129052000D01*
X195619500Y-129032000D01*
X195599500Y-129032000D01*
X195599500Y-128778000D01*
X195619500Y-128778000D01*
X195619500Y-127776373D01*
X195429520Y-127715511D01*
X195349212Y-127739866D01*
X195129539Y-127839761D01*
X194933576Y-127980592D01*
X194768853Y-128156948D01*
X194691000Y-128282529D01*
X194691000Y-126987471D01*
X194768853Y-127113052D01*
X194933576Y-127289408D01*
X195129539Y-127430239D01*
X195349212Y-127530134D01*
X195429520Y-127554489D01*
X195619500Y-127493627D01*
X195619500Y-126492000D01*
X195599500Y-126492000D01*
X195599500Y-126238000D01*
X195619500Y-126238000D01*
X195619500Y-125236373D01*
X195429520Y-125175511D01*
X195349212Y-125199866D01*
X195129539Y-125299761D01*
X194933576Y-125440592D01*
X194768853Y-125616948D01*
X194691000Y-125742529D01*
X194691000Y-122059871D01*
X194768853Y-122185452D01*
X194933576Y-122361808D01*
X195129539Y-122502639D01*
X195349212Y-122602534D01*
X195429520Y-122626889D01*
X195619500Y-122566027D01*
X195619500Y-121564400D01*
X195599500Y-121564400D01*
X195599500Y-121310400D01*
X195619500Y-121310400D01*
X195619500Y-121290400D01*
X195873500Y-121290400D01*
X195873500Y-121310400D01*
%TA.AperFunction,Conductor*%
D20*
G36*
X195873500Y-121310400D02*
G01*
X195893500Y-121310400D01*
X195893500Y-121564400D01*
X195873500Y-121564400D01*
X195873500Y-122566027D01*
X196063480Y-122626889D01*
X196143788Y-122602534D01*
X196363461Y-122502639D01*
X196559424Y-122361808D01*
X196724147Y-122185452D01*
X196850000Y-121982444D01*
X196850000Y-125819956D01*
X196724147Y-125616948D01*
X196559424Y-125440592D01*
X196363461Y-125299761D01*
X196143788Y-125199866D01*
X196063480Y-125175511D01*
X195873500Y-125236373D01*
X195873500Y-126238000D01*
X195893500Y-126238000D01*
X195893500Y-126492000D01*
X195873500Y-126492000D01*
X195873500Y-127493627D01*
X196063480Y-127554489D01*
X196143788Y-127530134D01*
X196363461Y-127430239D01*
X196559424Y-127289408D01*
X196724147Y-127113052D01*
X196850000Y-126910044D01*
X196850000Y-128359956D01*
X196724147Y-128156948D01*
X196559424Y-127980592D01*
X196363461Y-127839761D01*
X196143788Y-127739866D01*
X196063480Y-127715511D01*
X195873500Y-127776373D01*
X195873500Y-128778000D01*
X195893500Y-128778000D01*
X195893500Y-129032000D01*
X195873500Y-129032000D01*
X195873500Y-129052000D01*
X195619500Y-129052000D01*
X195619500Y-129032000D01*
X195599500Y-129032000D01*
X195599500Y-128778000D01*
X195619500Y-128778000D01*
X195619500Y-127776373D01*
X195429520Y-127715511D01*
X195349212Y-127739866D01*
X195129539Y-127839761D01*
X194933576Y-127980592D01*
X194768853Y-128156948D01*
X194691000Y-128282529D01*
X194691000Y-126987471D01*
X194768853Y-127113052D01*
X194933576Y-127289408D01*
X195129539Y-127430239D01*
X195349212Y-127530134D01*
X195429520Y-127554489D01*
X195619500Y-127493627D01*
X195619500Y-126492000D01*
X195599500Y-126492000D01*
X195599500Y-126238000D01*
X195619500Y-126238000D01*
X195619500Y-125236373D01*
X195429520Y-125175511D01*
X195349212Y-125199866D01*
X195129539Y-125299761D01*
X194933576Y-125440592D01*
X194768853Y-125616948D01*
X194691000Y-125742529D01*
X194691000Y-122059871D01*
X194768853Y-122185452D01*
X194933576Y-122361808D01*
X195129539Y-122502639D01*
X195349212Y-122602534D01*
X195429520Y-122626889D01*
X195619500Y-122566027D01*
X195619500Y-121564400D01*
X195599500Y-121564400D01*
X195599500Y-121310400D01*
X195619500Y-121310400D01*
X195619500Y-121290400D01*
X195873500Y-121290400D01*
X195873500Y-121310400D01*
G37*
%TD.AperFunction*%
%TD*%
D19*
%TO.N,GND*%
X198413500Y-121310400D02*
X198433500Y-121310400D01*
X198433500Y-121564400D01*
X198413500Y-121564400D01*
X198413500Y-122566027D01*
X198603480Y-122626889D01*
X198683788Y-122602534D01*
X198903461Y-122502639D01*
X199099424Y-122361808D01*
X199264147Y-122185452D01*
X199390000Y-121982444D01*
X199390000Y-125230164D01*
X199349196Y-125196678D01*
X199283008Y-125161299D01*
X199211189Y-125139513D01*
X199136500Y-125132157D01*
X198508750Y-125134000D01*
X198413500Y-125229250D01*
X198413500Y-126238000D01*
X198433500Y-126238000D01*
X198433500Y-126492000D01*
X198413500Y-126492000D01*
X198413500Y-127500750D01*
X198508750Y-127596000D01*
X199136500Y-127597843D01*
X199211189Y-127590487D01*
X199283008Y-127568701D01*
X199349196Y-127533322D01*
X199390000Y-127499836D01*
X199390000Y-128359956D01*
X199264147Y-128156948D01*
X199099424Y-127980592D01*
X198903461Y-127839761D01*
X198683788Y-127739866D01*
X198603480Y-127715511D01*
X198413500Y-127776373D01*
X198413500Y-128778000D01*
X198433500Y-128778000D01*
X198433500Y-129032000D01*
X198413500Y-129032000D01*
X198413500Y-129052000D01*
X198159500Y-129052000D01*
X198159500Y-129032000D01*
X198139500Y-129032000D01*
X198139500Y-128778000D01*
X198159500Y-128778000D01*
X198159500Y-127776373D01*
X197969520Y-127715511D01*
X197889212Y-127739866D01*
X197669539Y-127839761D01*
X197473576Y-127980592D01*
X197308853Y-128156948D01*
X197231000Y-128282529D01*
X197231000Y-127537168D01*
X197289992Y-127568701D01*
X197361811Y-127590487D01*
X197436500Y-127597843D01*
X198064250Y-127596000D01*
X198159500Y-127500750D01*
X198159500Y-126492000D01*
X198139500Y-126492000D01*
X198139500Y-126238000D01*
X198159500Y-126238000D01*
X198159500Y-125229250D01*
X198064250Y-125134000D01*
X197436500Y-125132157D01*
X197361811Y-125139513D01*
X197289992Y-125161299D01*
X197231000Y-125192832D01*
X197231000Y-122059871D01*
X197308853Y-122185452D01*
X197473576Y-122361808D01*
X197669539Y-122502639D01*
X197889212Y-122602534D01*
X197969520Y-122626889D01*
X198159500Y-122566027D01*
X198159500Y-121564400D01*
X198139500Y-121564400D01*
X198139500Y-121310400D01*
X198159500Y-121310400D01*
X198159500Y-121290400D01*
X198413500Y-121290400D01*
X198413500Y-121310400D01*
%TA.AperFunction,Conductor*%
D20*
G36*
X198413500Y-121310400D02*
G01*
X198433500Y-121310400D01*
X198433500Y-121564400D01*
X198413500Y-121564400D01*
X198413500Y-122566027D01*
X198603480Y-122626889D01*
X198683788Y-122602534D01*
X198903461Y-122502639D01*
X199099424Y-122361808D01*
X199264147Y-122185452D01*
X199390000Y-121982444D01*
X199390000Y-125230164D01*
X199349196Y-125196678D01*
X199283008Y-125161299D01*
X199211189Y-125139513D01*
X199136500Y-125132157D01*
X198508750Y-125134000D01*
X198413500Y-125229250D01*
X198413500Y-126238000D01*
X198433500Y-126238000D01*
X198433500Y-126492000D01*
X198413500Y-126492000D01*
X198413500Y-127500750D01*
X198508750Y-127596000D01*
X199136500Y-127597843D01*
X199211189Y-127590487D01*
X199283008Y-127568701D01*
X199349196Y-127533322D01*
X199390000Y-127499836D01*
X199390000Y-128359956D01*
X199264147Y-128156948D01*
X199099424Y-127980592D01*
X198903461Y-127839761D01*
X198683788Y-127739866D01*
X198603480Y-127715511D01*
X198413500Y-127776373D01*
X198413500Y-128778000D01*
X198433500Y-128778000D01*
X198433500Y-129032000D01*
X198413500Y-129032000D01*
X198413500Y-129052000D01*
X198159500Y-129052000D01*
X198159500Y-129032000D01*
X198139500Y-129032000D01*
X198139500Y-128778000D01*
X198159500Y-128778000D01*
X198159500Y-127776373D01*
X197969520Y-127715511D01*
X197889212Y-127739866D01*
X197669539Y-127839761D01*
X197473576Y-127980592D01*
X197308853Y-128156948D01*
X197231000Y-128282529D01*
X197231000Y-127537168D01*
X197289992Y-127568701D01*
X197361811Y-127590487D01*
X197436500Y-127597843D01*
X198064250Y-127596000D01*
X198159500Y-127500750D01*
X198159500Y-126492000D01*
X198139500Y-126492000D01*
X198139500Y-126238000D01*
X198159500Y-126238000D01*
X198159500Y-125229250D01*
X198064250Y-125134000D01*
X197436500Y-125132157D01*
X197361811Y-125139513D01*
X197289992Y-125161299D01*
X197231000Y-125192832D01*
X197231000Y-122059871D01*
X197308853Y-122185452D01*
X197473576Y-122361808D01*
X197669539Y-122502639D01*
X197889212Y-122602534D01*
X197969520Y-122626889D01*
X198159500Y-122566027D01*
X198159500Y-121564400D01*
X198139500Y-121564400D01*
X198139500Y-121310400D01*
X198159500Y-121310400D01*
X198159500Y-121290400D01*
X198413500Y-121290400D01*
X198413500Y-121310400D01*
G37*
%TD.AperFunction*%
%TD*%
D19*
%TO.N,GND*%
X173040500Y-121310400D02*
X173060500Y-121310400D01*
X173060500Y-121564400D01*
X173040500Y-121564400D01*
X173040500Y-122566027D01*
X173230480Y-122626889D01*
X173310788Y-122602534D01*
X173530461Y-122502639D01*
X173726424Y-122361808D01*
X173765299Y-122320187D01*
X173765300Y-125159845D01*
X173762842Y-125184799D01*
X173772651Y-125284383D01*
X173801699Y-125380142D01*
X173848870Y-125468394D01*
X173890968Y-125519690D01*
X173912352Y-125545747D01*
X173931729Y-125561649D01*
X173990000Y-125619920D01*
X173990000Y-125776403D01*
X173891147Y-125616948D01*
X173726424Y-125440592D01*
X173530461Y-125299761D01*
X173310788Y-125199866D01*
X173230480Y-125175511D01*
X173040500Y-125236373D01*
X173040500Y-126238000D01*
X173060500Y-126238000D01*
X173060500Y-126492000D01*
X173040500Y-126492000D01*
X173040500Y-127493627D01*
X173230480Y-127554489D01*
X173310788Y-127530134D01*
X173530461Y-127430239D01*
X173726424Y-127289408D01*
X173891147Y-127113052D01*
X173990000Y-126953597D01*
X173990000Y-128316403D01*
X173891147Y-128156948D01*
X173726424Y-127980592D01*
X173530461Y-127839761D01*
X173310788Y-127739866D01*
X173230480Y-127715511D01*
X173040500Y-127776373D01*
X173040500Y-128778000D01*
X173060500Y-128778000D01*
X173060500Y-129032000D01*
X173040500Y-129032000D01*
X173040500Y-129052000D01*
X172786500Y-129052000D01*
X172786500Y-129032000D01*
X172766500Y-129032000D01*
X172766500Y-128778000D01*
X172786500Y-128778000D01*
X172786500Y-127776373D01*
X172596520Y-127715511D01*
X172516212Y-127739866D01*
X172296539Y-127839761D01*
X172100576Y-127980592D01*
X171935853Y-128156948D01*
X171831000Y-128326082D01*
X171831000Y-127274450D01*
X171832375Y-127274057D01*
X171835211Y-127272603D01*
X171838260Y-127271682D01*
X171872435Y-127253511D01*
X171906866Y-127235852D01*
X171909363Y-127233876D01*
X171912177Y-127232380D01*
X171942157Y-127207929D01*
X171972517Y-127183907D01*
X171974586Y-127181480D01*
X171977053Y-127179468D01*
X171986839Y-127167639D01*
X172100576Y-127289408D01*
X172296539Y-127430239D01*
X172516212Y-127530134D01*
X172596520Y-127554489D01*
X172786500Y-127493627D01*
X172786500Y-126492000D01*
X172766500Y-126492000D01*
X172766500Y-126238000D01*
X172786500Y-126238000D01*
X172786500Y-125236373D01*
X172596520Y-125175511D01*
X172516212Y-125199866D01*
X172296539Y-125299761D01*
X172100576Y-125440592D01*
X171935853Y-125616948D01*
X171848861Y-125757271D01*
X171850690Y-125739870D01*
X171855387Y-125697991D01*
X171855408Y-125694975D01*
X171855420Y-125694863D01*
X171855410Y-125694751D01*
X171855431Y-125691734D01*
X171855431Y-125080094D01*
X171851315Y-125038115D01*
X171847493Y-124996123D01*
X171847049Y-124994615D01*
X171846896Y-124993052D01*
X171834711Y-124952692D01*
X171831000Y-124940083D01*
X171831000Y-124427646D01*
X171832878Y-124421580D01*
X171845638Y-124381353D01*
X171845813Y-124379792D01*
X171846278Y-124378290D01*
X171850690Y-124336317D01*
X171855387Y-124294438D01*
X171855408Y-124291422D01*
X171855420Y-124291310D01*
X171855410Y-124291198D01*
X171855431Y-124288181D01*
X171855431Y-123676540D01*
X171851315Y-123634561D01*
X171847493Y-123592569D01*
X171847049Y-123591061D01*
X171846896Y-123589498D01*
X171834711Y-123549138D01*
X171831000Y-123536529D01*
X171831000Y-123027955D01*
X171832878Y-123021889D01*
X171845638Y-122981662D01*
X171845813Y-122980101D01*
X171846278Y-122978599D01*
X171850690Y-122936626D01*
X171855387Y-122894747D01*
X171855408Y-122891731D01*
X171855420Y-122891619D01*
X171855410Y-122891507D01*
X171855431Y-122888490D01*
X171855431Y-122276849D01*
X171851315Y-122234870D01*
X171847493Y-122192878D01*
X171847049Y-122191370D01*
X171846896Y-122189807D01*
X171834711Y-122149447D01*
X171831000Y-122136838D01*
X171831000Y-122016318D01*
X171935853Y-122185452D01*
X172100576Y-122361808D01*
X172296539Y-122502639D01*
X172516212Y-122602534D01*
X172596520Y-122626889D01*
X172786500Y-122566027D01*
X172786500Y-121564400D01*
X172766500Y-121564400D01*
X172766500Y-121310400D01*
X172786500Y-121310400D01*
X172786500Y-121290400D01*
X173040500Y-121290400D01*
X173040500Y-121310400D01*
%TA.AperFunction,Conductor*%
D20*
G36*
X173040500Y-121310400D02*
G01*
X173060500Y-121310400D01*
X173060500Y-121564400D01*
X173040500Y-121564400D01*
X173040500Y-122566027D01*
X173230480Y-122626889D01*
X173310788Y-122602534D01*
X173530461Y-122502639D01*
X173726424Y-122361808D01*
X173765299Y-122320187D01*
X173765300Y-125159845D01*
X173762842Y-125184799D01*
X173772651Y-125284383D01*
X173801699Y-125380142D01*
X173848870Y-125468394D01*
X173890968Y-125519690D01*
X173912352Y-125545747D01*
X173931729Y-125561649D01*
X173990000Y-125619920D01*
X173990000Y-125776403D01*
X173891147Y-125616948D01*
X173726424Y-125440592D01*
X173530461Y-125299761D01*
X173310788Y-125199866D01*
X173230480Y-125175511D01*
X173040500Y-125236373D01*
X173040500Y-126238000D01*
X173060500Y-126238000D01*
X173060500Y-126492000D01*
X173040500Y-126492000D01*
X173040500Y-127493627D01*
X173230480Y-127554489D01*
X173310788Y-127530134D01*
X173530461Y-127430239D01*
X173726424Y-127289408D01*
X173891147Y-127113052D01*
X173990000Y-126953597D01*
X173990000Y-128316403D01*
X173891147Y-128156948D01*
X173726424Y-127980592D01*
X173530461Y-127839761D01*
X173310788Y-127739866D01*
X173230480Y-127715511D01*
X173040500Y-127776373D01*
X173040500Y-128778000D01*
X173060500Y-128778000D01*
X173060500Y-129032000D01*
X173040500Y-129032000D01*
X173040500Y-129052000D01*
X172786500Y-129052000D01*
X172786500Y-129032000D01*
X172766500Y-129032000D01*
X172766500Y-128778000D01*
X172786500Y-128778000D01*
X172786500Y-127776373D01*
X172596520Y-127715511D01*
X172516212Y-127739866D01*
X172296539Y-127839761D01*
X172100576Y-127980592D01*
X171935853Y-128156948D01*
X171831000Y-128326082D01*
X171831000Y-127274450D01*
X171832375Y-127274057D01*
X171835211Y-127272603D01*
X171838260Y-127271682D01*
X171872435Y-127253511D01*
X171906866Y-127235852D01*
X171909363Y-127233876D01*
X171912177Y-127232380D01*
X171942157Y-127207929D01*
X171972517Y-127183907D01*
X171974586Y-127181480D01*
X171977053Y-127179468D01*
X171986839Y-127167639D01*
X172100576Y-127289408D01*
X172296539Y-127430239D01*
X172516212Y-127530134D01*
X172596520Y-127554489D01*
X172786500Y-127493627D01*
X172786500Y-126492000D01*
X172766500Y-126492000D01*
X172766500Y-126238000D01*
X172786500Y-126238000D01*
X172786500Y-125236373D01*
X172596520Y-125175511D01*
X172516212Y-125199866D01*
X172296539Y-125299761D01*
X172100576Y-125440592D01*
X171935853Y-125616948D01*
X171848861Y-125757271D01*
X171850690Y-125739870D01*
X171855387Y-125697991D01*
X171855408Y-125694975D01*
X171855420Y-125694863D01*
X171855410Y-125694751D01*
X171855431Y-125691734D01*
X171855431Y-125080094D01*
X171851315Y-125038115D01*
X171847493Y-124996123D01*
X171847049Y-124994615D01*
X171846896Y-124993052D01*
X171834711Y-124952692D01*
X171831000Y-124940083D01*
X171831000Y-124427646D01*
X171832878Y-124421580D01*
X171845638Y-124381353D01*
X171845813Y-124379792D01*
X171846278Y-124378290D01*
X171850690Y-124336317D01*
X171855387Y-124294438D01*
X171855408Y-124291422D01*
X171855420Y-124291310D01*
X171855410Y-124291198D01*
X171855431Y-124288181D01*
X171855431Y-123676540D01*
X171851315Y-123634561D01*
X171847493Y-123592569D01*
X171847049Y-123591061D01*
X171846896Y-123589498D01*
X171834711Y-123549138D01*
X171831000Y-123536529D01*
X171831000Y-123027955D01*
X171832878Y-123021889D01*
X171845638Y-122981662D01*
X171845813Y-122980101D01*
X171846278Y-122978599D01*
X171850690Y-122936626D01*
X171855387Y-122894747D01*
X171855408Y-122891731D01*
X171855420Y-122891619D01*
X171855410Y-122891507D01*
X171855431Y-122888490D01*
X171855431Y-122276849D01*
X171851315Y-122234870D01*
X171847493Y-122192878D01*
X171847049Y-122191370D01*
X171846896Y-122189807D01*
X171834711Y-122149447D01*
X171831000Y-122136838D01*
X171831000Y-122016318D01*
X171935853Y-122185452D01*
X172100576Y-122361808D01*
X172296539Y-122502639D01*
X172516212Y-122602534D01*
X172596520Y-122626889D01*
X172786500Y-122566027D01*
X172786500Y-121564400D01*
X172766500Y-121564400D01*
X172766500Y-121310400D01*
X172786500Y-121310400D01*
X172786500Y-121290400D01*
X173040500Y-121290400D01*
X173040500Y-121310400D01*
G37*
%TD.AperFunction*%
%TD*%
D19*
%TO.N,GND*%
X165481000Y-121310400D02*
X165501000Y-121310400D01*
X165501000Y-121564400D01*
X165481000Y-121564400D01*
X165481000Y-122566027D01*
X165670980Y-122626889D01*
X165751288Y-122602534D01*
X165970961Y-122502639D01*
X166166924Y-122361808D01*
X166331647Y-122185452D01*
X166370000Y-122123587D01*
X166370000Y-125171718D01*
X166350508Y-125161299D01*
X166278689Y-125139513D01*
X166204000Y-125132157D01*
X165576250Y-125134000D01*
X165481000Y-125229250D01*
X165481000Y-126238000D01*
X165501000Y-126238000D01*
X165501000Y-126492000D01*
X165481000Y-126492000D01*
X165481000Y-127500750D01*
X165576250Y-127596000D01*
X166204000Y-127597843D01*
X166278689Y-127590487D01*
X166350508Y-127568701D01*
X166370000Y-127558282D01*
X166370000Y-128218813D01*
X166331647Y-128156948D01*
X166166924Y-127980592D01*
X165970961Y-127839761D01*
X165751288Y-127739866D01*
X165670980Y-127715511D01*
X165481000Y-127776373D01*
X165481000Y-128778000D01*
X165501000Y-128778000D01*
X165501000Y-129032000D01*
X165481000Y-129032000D01*
X165481000Y-129052000D01*
X165227000Y-129052000D01*
X165227000Y-129032000D01*
X165207000Y-129032000D01*
X165207000Y-128778000D01*
X165227000Y-128778000D01*
X165227000Y-127776373D01*
X165037020Y-127715511D01*
X164956712Y-127739866D01*
X164737039Y-127839761D01*
X164541076Y-127980592D01*
X164376353Y-128156948D01*
X164249201Y-128362051D01*
X164211000Y-128463971D01*
X164211000Y-127458551D01*
X164233289Y-127485711D01*
X164291304Y-127533322D01*
X164357492Y-127568701D01*
X164429311Y-127590487D01*
X164504000Y-127597843D01*
X165131750Y-127596000D01*
X165227000Y-127500750D01*
X165227000Y-126492000D01*
X165207000Y-126492000D01*
X165207000Y-126238000D01*
X165227000Y-126238000D01*
X165227000Y-125229250D01*
X165131750Y-125134000D01*
X164504000Y-125132157D01*
X164429311Y-125139513D01*
X164357492Y-125161299D01*
X164291304Y-125196678D01*
X164233289Y-125244289D01*
X164211000Y-125271449D01*
X164211000Y-121878429D01*
X164249201Y-121980349D01*
X164376353Y-122185452D01*
X164541076Y-122361808D01*
X164737039Y-122502639D01*
X164956712Y-122602534D01*
X165037020Y-122626889D01*
X165227000Y-122566027D01*
X165227000Y-121564400D01*
X165207000Y-121564400D01*
X165207000Y-121310400D01*
X165227000Y-121310400D01*
X165227000Y-121290400D01*
X165481000Y-121290400D01*
X165481000Y-121310400D01*
%TA.AperFunction,Conductor*%
D20*
G36*
X165481000Y-121310400D02*
G01*
X165501000Y-121310400D01*
X165501000Y-121564400D01*
X165481000Y-121564400D01*
X165481000Y-122566027D01*
X165670980Y-122626889D01*
X165751288Y-122602534D01*
X165970961Y-122502639D01*
X166166924Y-122361808D01*
X166331647Y-122185452D01*
X166370000Y-122123587D01*
X166370000Y-125171718D01*
X166350508Y-125161299D01*
X166278689Y-125139513D01*
X166204000Y-125132157D01*
X165576250Y-125134000D01*
X165481000Y-125229250D01*
X165481000Y-126238000D01*
X165501000Y-126238000D01*
X165501000Y-126492000D01*
X165481000Y-126492000D01*
X165481000Y-127500750D01*
X165576250Y-127596000D01*
X166204000Y-127597843D01*
X166278689Y-127590487D01*
X166350508Y-127568701D01*
X166370000Y-127558282D01*
X166370000Y-128218813D01*
X166331647Y-128156948D01*
X166166924Y-127980592D01*
X165970961Y-127839761D01*
X165751288Y-127739866D01*
X165670980Y-127715511D01*
X165481000Y-127776373D01*
X165481000Y-128778000D01*
X165501000Y-128778000D01*
X165501000Y-129032000D01*
X165481000Y-129032000D01*
X165481000Y-129052000D01*
X165227000Y-129052000D01*
X165227000Y-129032000D01*
X165207000Y-129032000D01*
X165207000Y-128778000D01*
X165227000Y-128778000D01*
X165227000Y-127776373D01*
X165037020Y-127715511D01*
X164956712Y-127739866D01*
X164737039Y-127839761D01*
X164541076Y-127980592D01*
X164376353Y-128156948D01*
X164249201Y-128362051D01*
X164211000Y-128463971D01*
X164211000Y-127458551D01*
X164233289Y-127485711D01*
X164291304Y-127533322D01*
X164357492Y-127568701D01*
X164429311Y-127590487D01*
X164504000Y-127597843D01*
X165131750Y-127596000D01*
X165227000Y-127500750D01*
X165227000Y-126492000D01*
X165207000Y-126492000D01*
X165207000Y-126238000D01*
X165227000Y-126238000D01*
X165227000Y-125229250D01*
X165131750Y-125134000D01*
X164504000Y-125132157D01*
X164429311Y-125139513D01*
X164357492Y-125161299D01*
X164291304Y-125196678D01*
X164233289Y-125244289D01*
X164211000Y-125271449D01*
X164211000Y-121878429D01*
X164249201Y-121980349D01*
X164376353Y-122185452D01*
X164541076Y-122361808D01*
X164737039Y-122502639D01*
X164956712Y-122602534D01*
X165037020Y-122626889D01*
X165227000Y-122566027D01*
X165227000Y-121564400D01*
X165207000Y-121564400D01*
X165207000Y-121310400D01*
X165227000Y-121310400D01*
X165227000Y-121290400D01*
X165481000Y-121290400D01*
X165481000Y-121310400D01*
G37*
%TD.AperFunction*%
%TD*%
D19*
%TO.N,GND*%
X152781000Y-121310400D02*
X152801000Y-121310400D01*
X152801000Y-121564400D01*
X152781000Y-121564400D01*
X152781000Y-122566027D01*
X152970980Y-122626889D01*
X153051288Y-122602534D01*
X153270961Y-122502639D01*
X153466924Y-122361808D01*
X153505799Y-122320187D01*
X153505800Y-125159845D01*
X153503342Y-125184799D01*
X153513151Y-125284383D01*
X153542199Y-125380142D01*
X153589370Y-125468394D01*
X153636949Y-125526369D01*
X153652852Y-125545747D01*
X153670000Y-125559820D01*
X153670000Y-125678813D01*
X153631647Y-125616948D01*
X153466924Y-125440592D01*
X153270961Y-125299761D01*
X153051288Y-125199866D01*
X152970980Y-125175511D01*
X152781000Y-125236373D01*
X152781000Y-126238000D01*
X152801000Y-126238000D01*
X152801000Y-126492000D01*
X152781000Y-126492000D01*
X152781000Y-127493627D01*
X152970980Y-127554489D01*
X153051288Y-127530134D01*
X153270961Y-127430239D01*
X153466924Y-127289408D01*
X153631647Y-127113052D01*
X153670000Y-127051187D01*
X153670000Y-128218813D01*
X153631647Y-128156948D01*
X153466924Y-127980592D01*
X153270961Y-127839761D01*
X153051288Y-127739866D01*
X152970980Y-127715511D01*
X152781000Y-127776373D01*
X152781000Y-128778000D01*
X152801000Y-128778000D01*
X152801000Y-129032000D01*
X152781000Y-129032000D01*
X152781000Y-130033627D01*
X152970980Y-130094489D01*
X153051288Y-130070134D01*
X153270961Y-129970239D01*
X153466924Y-129829408D01*
X153631647Y-129653052D01*
X153670000Y-129591187D01*
X153670000Y-130175000D01*
X151511000Y-130175000D01*
X151511000Y-129346029D01*
X151549201Y-129447949D01*
X151676353Y-129653052D01*
X151841076Y-129829408D01*
X152037039Y-129970239D01*
X152256712Y-130070134D01*
X152337020Y-130094489D01*
X152527000Y-130033627D01*
X152527000Y-129032000D01*
X152507000Y-129032000D01*
X152507000Y-128778000D01*
X152527000Y-128778000D01*
X152527000Y-127776373D01*
X152337020Y-127715511D01*
X152256712Y-127739866D01*
X152037039Y-127839761D01*
X151841076Y-127980592D01*
X151676353Y-128156948D01*
X151549201Y-128362051D01*
X151511000Y-128463971D01*
X151511000Y-126806029D01*
X151549201Y-126907949D01*
X151676353Y-127113052D01*
X151841076Y-127289408D01*
X152037039Y-127430239D01*
X152256712Y-127530134D01*
X152337020Y-127554489D01*
X152527000Y-127493627D01*
X152527000Y-126492000D01*
X152507000Y-126492000D01*
X152507000Y-126238000D01*
X152527000Y-126238000D01*
X152527000Y-125236373D01*
X152337020Y-125175511D01*
X152256712Y-125199866D01*
X152037039Y-125299761D01*
X151841076Y-125440592D01*
X151676353Y-125616948D01*
X151549201Y-125822051D01*
X151511000Y-125923971D01*
X151511000Y-121878429D01*
X151549201Y-121980349D01*
X151676353Y-122185452D01*
X151841076Y-122361808D01*
X152037039Y-122502639D01*
X152256712Y-122602534D01*
X152337020Y-122626889D01*
X152527000Y-122566027D01*
X152527000Y-121564400D01*
X152507000Y-121564400D01*
X152507000Y-121310400D01*
X152527000Y-121310400D01*
X152527000Y-121290400D01*
X152781000Y-121290400D01*
X152781000Y-121310400D01*
%TA.AperFunction,Conductor*%
D20*
G36*
X152781000Y-121310400D02*
G01*
X152801000Y-121310400D01*
X152801000Y-121564400D01*
X152781000Y-121564400D01*
X152781000Y-122566027D01*
X152970980Y-122626889D01*
X153051288Y-122602534D01*
X153270961Y-122502639D01*
X153466924Y-122361808D01*
X153505799Y-122320187D01*
X153505800Y-125159845D01*
X153503342Y-125184799D01*
X153513151Y-125284383D01*
X153542199Y-125380142D01*
X153589370Y-125468394D01*
X153636949Y-125526369D01*
X153652852Y-125545747D01*
X153670000Y-125559820D01*
X153670000Y-125678813D01*
X153631647Y-125616948D01*
X153466924Y-125440592D01*
X153270961Y-125299761D01*
X153051288Y-125199866D01*
X152970980Y-125175511D01*
X152781000Y-125236373D01*
X152781000Y-126238000D01*
X152801000Y-126238000D01*
X152801000Y-126492000D01*
X152781000Y-126492000D01*
X152781000Y-127493627D01*
X152970980Y-127554489D01*
X153051288Y-127530134D01*
X153270961Y-127430239D01*
X153466924Y-127289408D01*
X153631647Y-127113052D01*
X153670000Y-127051187D01*
X153670000Y-128218813D01*
X153631647Y-128156948D01*
X153466924Y-127980592D01*
X153270961Y-127839761D01*
X153051288Y-127739866D01*
X152970980Y-127715511D01*
X152781000Y-127776373D01*
X152781000Y-128778000D01*
X152801000Y-128778000D01*
X152801000Y-129032000D01*
X152781000Y-129032000D01*
X152781000Y-130033627D01*
X152970980Y-130094489D01*
X153051288Y-130070134D01*
X153270961Y-129970239D01*
X153466924Y-129829408D01*
X153631647Y-129653052D01*
X153670000Y-129591187D01*
X153670000Y-130175000D01*
X151511000Y-130175000D01*
X151511000Y-129346029D01*
X151549201Y-129447949D01*
X151676353Y-129653052D01*
X151841076Y-129829408D01*
X152037039Y-129970239D01*
X152256712Y-130070134D01*
X152337020Y-130094489D01*
X152527000Y-130033627D01*
X152527000Y-129032000D01*
X152507000Y-129032000D01*
X152507000Y-128778000D01*
X152527000Y-128778000D01*
X152527000Y-127776373D01*
X152337020Y-127715511D01*
X152256712Y-127739866D01*
X152037039Y-127839761D01*
X151841076Y-127980592D01*
X151676353Y-128156948D01*
X151549201Y-128362051D01*
X151511000Y-128463971D01*
X151511000Y-126806029D01*
X151549201Y-126907949D01*
X151676353Y-127113052D01*
X151841076Y-127289408D01*
X152037039Y-127430239D01*
X152256712Y-127530134D01*
X152337020Y-127554489D01*
X152527000Y-127493627D01*
X152527000Y-126492000D01*
X152507000Y-126492000D01*
X152507000Y-126238000D01*
X152527000Y-126238000D01*
X152527000Y-125236373D01*
X152337020Y-125175511D01*
X152256712Y-125199866D01*
X152037039Y-125299761D01*
X151841076Y-125440592D01*
X151676353Y-125616948D01*
X151549201Y-125822051D01*
X151511000Y-125923971D01*
X151511000Y-121878429D01*
X151549201Y-121980349D01*
X151676353Y-122185452D01*
X151841076Y-122361808D01*
X152037039Y-122502639D01*
X152256712Y-122602534D01*
X152337020Y-122626889D01*
X152527000Y-122566027D01*
X152527000Y-121564400D01*
X152507000Y-121564400D01*
X152507000Y-121310400D01*
X152527000Y-121310400D01*
X152527000Y-121290400D01*
X152781000Y-121290400D01*
X152781000Y-121310400D01*
G37*
%TD.AperFunction*%
%TD*%
D19*
%TO.N,GND*%
X140081000Y-121310400D02*
X140101000Y-121310400D01*
X140101000Y-121564400D01*
X140081000Y-121564400D01*
X140081000Y-122566027D01*
X140270980Y-122626889D01*
X140351288Y-122602534D01*
X140570961Y-122502639D01*
X140766924Y-122361808D01*
X140805799Y-122320187D01*
X140805800Y-125159845D01*
X140803342Y-125184799D01*
X140813151Y-125284383D01*
X140842199Y-125380142D01*
X140889370Y-125468394D01*
X140936949Y-125526369D01*
X140952852Y-125545747D01*
X140970000Y-125559820D01*
X140970000Y-125678813D01*
X140931647Y-125616948D01*
X140766924Y-125440592D01*
X140570961Y-125299761D01*
X140351288Y-125199866D01*
X140270980Y-125175511D01*
X140081000Y-125236373D01*
X140081000Y-126238000D01*
X140101000Y-126238000D01*
X140101000Y-126492000D01*
X140081000Y-126492000D01*
X140081000Y-127493627D01*
X140270980Y-127554489D01*
X140351288Y-127530134D01*
X140570961Y-127430239D01*
X140766924Y-127289408D01*
X140931647Y-127113052D01*
X140970000Y-127051187D01*
X140970000Y-128218813D01*
X140931647Y-128156948D01*
X140766924Y-127980592D01*
X140570961Y-127839761D01*
X140351288Y-127739866D01*
X140270980Y-127715511D01*
X140081000Y-127776373D01*
X140081000Y-128778000D01*
X140101000Y-128778000D01*
X140101000Y-129032000D01*
X140081000Y-129032000D01*
X140081000Y-130033627D01*
X140270980Y-130094489D01*
X140351288Y-130070134D01*
X140570961Y-129970239D01*
X140766924Y-129829408D01*
X140931647Y-129653052D01*
X140970000Y-129591187D01*
X140970000Y-130302000D01*
X138811000Y-130302000D01*
X138811000Y-129346029D01*
X138849201Y-129447949D01*
X138976353Y-129653052D01*
X139141076Y-129829408D01*
X139337039Y-129970239D01*
X139556712Y-130070134D01*
X139637020Y-130094489D01*
X139827000Y-130033627D01*
X139827000Y-129032000D01*
X139807000Y-129032000D01*
X139807000Y-128778000D01*
X139827000Y-128778000D01*
X139827000Y-127776373D01*
X139637020Y-127715511D01*
X139556712Y-127739866D01*
X139337039Y-127839761D01*
X139141076Y-127980592D01*
X138976353Y-128156948D01*
X138849201Y-128362051D01*
X138811000Y-128463971D01*
X138811000Y-126806029D01*
X138849201Y-126907949D01*
X138976353Y-127113052D01*
X139141076Y-127289408D01*
X139337039Y-127430239D01*
X139556712Y-127530134D01*
X139637020Y-127554489D01*
X139827000Y-127493627D01*
X139827000Y-126492000D01*
X139807000Y-126492000D01*
X139807000Y-126238000D01*
X139827000Y-126238000D01*
X139827000Y-125236373D01*
X139637020Y-125175511D01*
X139556712Y-125199866D01*
X139337039Y-125299761D01*
X139141076Y-125440592D01*
X138976353Y-125616948D01*
X138849201Y-125822051D01*
X138811000Y-125923971D01*
X138811000Y-121878429D01*
X138849201Y-121980349D01*
X138976353Y-122185452D01*
X139141076Y-122361808D01*
X139337039Y-122502639D01*
X139556712Y-122602534D01*
X139637020Y-122626889D01*
X139827000Y-122566027D01*
X139827000Y-121564400D01*
X139807000Y-121564400D01*
X139807000Y-121310400D01*
X139827000Y-121310400D01*
X139827000Y-121290400D01*
X140081000Y-121290400D01*
X140081000Y-121310400D01*
%TA.AperFunction,Conductor*%
D20*
G36*
X140081000Y-121310400D02*
G01*
X140101000Y-121310400D01*
X140101000Y-121564400D01*
X140081000Y-121564400D01*
X140081000Y-122566027D01*
X140270980Y-122626889D01*
X140351288Y-122602534D01*
X140570961Y-122502639D01*
X140766924Y-122361808D01*
X140805799Y-122320187D01*
X140805800Y-125159845D01*
X140803342Y-125184799D01*
X140813151Y-125284383D01*
X140842199Y-125380142D01*
X140889370Y-125468394D01*
X140936949Y-125526369D01*
X140952852Y-125545747D01*
X140970000Y-125559820D01*
X140970000Y-125678813D01*
X140931647Y-125616948D01*
X140766924Y-125440592D01*
X140570961Y-125299761D01*
X140351288Y-125199866D01*
X140270980Y-125175511D01*
X140081000Y-125236373D01*
X140081000Y-126238000D01*
X140101000Y-126238000D01*
X140101000Y-126492000D01*
X140081000Y-126492000D01*
X140081000Y-127493627D01*
X140270980Y-127554489D01*
X140351288Y-127530134D01*
X140570961Y-127430239D01*
X140766924Y-127289408D01*
X140931647Y-127113052D01*
X140970000Y-127051187D01*
X140970000Y-128218813D01*
X140931647Y-128156948D01*
X140766924Y-127980592D01*
X140570961Y-127839761D01*
X140351288Y-127739866D01*
X140270980Y-127715511D01*
X140081000Y-127776373D01*
X140081000Y-128778000D01*
X140101000Y-128778000D01*
X140101000Y-129032000D01*
X140081000Y-129032000D01*
X140081000Y-130033627D01*
X140270980Y-130094489D01*
X140351288Y-130070134D01*
X140570961Y-129970239D01*
X140766924Y-129829408D01*
X140931647Y-129653052D01*
X140970000Y-129591187D01*
X140970000Y-130302000D01*
X138811000Y-130302000D01*
X138811000Y-129346029D01*
X138849201Y-129447949D01*
X138976353Y-129653052D01*
X139141076Y-129829408D01*
X139337039Y-129970239D01*
X139556712Y-130070134D01*
X139637020Y-130094489D01*
X139827000Y-130033627D01*
X139827000Y-129032000D01*
X139807000Y-129032000D01*
X139807000Y-128778000D01*
X139827000Y-128778000D01*
X139827000Y-127776373D01*
X139637020Y-127715511D01*
X139556712Y-127739866D01*
X139337039Y-127839761D01*
X139141076Y-127980592D01*
X138976353Y-128156948D01*
X138849201Y-128362051D01*
X138811000Y-128463971D01*
X138811000Y-126806029D01*
X138849201Y-126907949D01*
X138976353Y-127113052D01*
X139141076Y-127289408D01*
X139337039Y-127430239D01*
X139556712Y-127530134D01*
X139637020Y-127554489D01*
X139827000Y-127493627D01*
X139827000Y-126492000D01*
X139807000Y-126492000D01*
X139807000Y-126238000D01*
X139827000Y-126238000D01*
X139827000Y-125236373D01*
X139637020Y-125175511D01*
X139556712Y-125199866D01*
X139337039Y-125299761D01*
X139141076Y-125440592D01*
X138976353Y-125616948D01*
X138849201Y-125822051D01*
X138811000Y-125923971D01*
X138811000Y-121878429D01*
X138849201Y-121980349D01*
X138976353Y-122185452D01*
X139141076Y-122361808D01*
X139337039Y-122502639D01*
X139556712Y-122602534D01*
X139637020Y-122626889D01*
X139827000Y-122566027D01*
X139827000Y-121564400D01*
X139807000Y-121564400D01*
X139807000Y-121310400D01*
X139827000Y-121310400D01*
X139827000Y-121290400D01*
X140081000Y-121290400D01*
X140081000Y-121310400D01*
G37*
%TD.AperFunction*%
%TD*%
D19*
%TO.N,GND*%
X127381000Y-121310400D02*
X127401000Y-121310400D01*
X127401000Y-121564400D01*
X127381000Y-121564400D01*
X127381000Y-122566027D01*
X127570980Y-122626889D01*
X127651288Y-122602534D01*
X127870961Y-122502639D01*
X128066924Y-122361808D01*
X128105799Y-122320187D01*
X128105800Y-125159845D01*
X128103342Y-125184799D01*
X128113151Y-125284383D01*
X128142199Y-125380142D01*
X128189370Y-125468394D01*
X128236949Y-125526369D01*
X128252852Y-125545747D01*
X128270000Y-125559820D01*
X128270000Y-125678813D01*
X128231647Y-125616948D01*
X128066924Y-125440592D01*
X127870961Y-125299761D01*
X127651288Y-125199866D01*
X127570980Y-125175511D01*
X127381000Y-125236373D01*
X127381000Y-126238000D01*
X127401000Y-126238000D01*
X127401000Y-126492000D01*
X127381000Y-126492000D01*
X127381000Y-127493627D01*
X127570980Y-127554489D01*
X127651288Y-127530134D01*
X127870961Y-127430239D01*
X128066924Y-127289408D01*
X128231647Y-127113052D01*
X128270000Y-127051187D01*
X128270000Y-128218813D01*
X128231647Y-128156948D01*
X128066924Y-127980592D01*
X127870961Y-127839761D01*
X127651288Y-127739866D01*
X127570980Y-127715511D01*
X127381000Y-127776373D01*
X127381000Y-128778000D01*
X127401000Y-128778000D01*
X127401000Y-129032000D01*
X127381000Y-129032000D01*
X127381000Y-130033627D01*
X127570980Y-130094489D01*
X127651288Y-130070134D01*
X127870961Y-129970239D01*
X128066924Y-129829408D01*
X128231647Y-129653052D01*
X128270000Y-129591187D01*
X128270000Y-130175000D01*
X126111000Y-130175000D01*
X126111000Y-129346029D01*
X126149201Y-129447949D01*
X126276353Y-129653052D01*
X126441076Y-129829408D01*
X126637039Y-129970239D01*
X126856712Y-130070134D01*
X126937020Y-130094489D01*
X127127000Y-130033627D01*
X127127000Y-129032000D01*
X127107000Y-129032000D01*
X127107000Y-128778000D01*
X127127000Y-128778000D01*
X127127000Y-127776373D01*
X126937020Y-127715511D01*
X126856712Y-127739866D01*
X126637039Y-127839761D01*
X126441076Y-127980592D01*
X126276353Y-128156948D01*
X126149201Y-128362051D01*
X126111000Y-128463971D01*
X126111000Y-126806029D01*
X126149201Y-126907949D01*
X126276353Y-127113052D01*
X126441076Y-127289408D01*
X126637039Y-127430239D01*
X126856712Y-127530134D01*
X126937020Y-127554489D01*
X127127000Y-127493627D01*
X127127000Y-126492000D01*
X127107000Y-126492000D01*
X127107000Y-126238000D01*
X127127000Y-126238000D01*
X127127000Y-125236373D01*
X126937020Y-125175511D01*
X126856712Y-125199866D01*
X126637039Y-125299761D01*
X126441076Y-125440592D01*
X126276353Y-125616948D01*
X126149201Y-125822051D01*
X126111000Y-125923971D01*
X126111000Y-121878429D01*
X126149201Y-121980349D01*
X126276353Y-122185452D01*
X126441076Y-122361808D01*
X126637039Y-122502639D01*
X126856712Y-122602534D01*
X126937020Y-122626889D01*
X127127000Y-122566027D01*
X127127000Y-121564400D01*
X127107000Y-121564400D01*
X127107000Y-121310400D01*
X127127000Y-121310400D01*
X127127000Y-121290400D01*
X127381000Y-121290400D01*
X127381000Y-121310400D01*
%TA.AperFunction,Conductor*%
D20*
G36*
X127381000Y-121310400D02*
G01*
X127401000Y-121310400D01*
X127401000Y-121564400D01*
X127381000Y-121564400D01*
X127381000Y-122566027D01*
X127570980Y-122626889D01*
X127651288Y-122602534D01*
X127870961Y-122502639D01*
X128066924Y-122361808D01*
X128105799Y-122320187D01*
X128105800Y-125159845D01*
X128103342Y-125184799D01*
X128113151Y-125284383D01*
X128142199Y-125380142D01*
X128189370Y-125468394D01*
X128236949Y-125526369D01*
X128252852Y-125545747D01*
X128270000Y-125559820D01*
X128270000Y-125678813D01*
X128231647Y-125616948D01*
X128066924Y-125440592D01*
X127870961Y-125299761D01*
X127651288Y-125199866D01*
X127570980Y-125175511D01*
X127381000Y-125236373D01*
X127381000Y-126238000D01*
X127401000Y-126238000D01*
X127401000Y-126492000D01*
X127381000Y-126492000D01*
X127381000Y-127493627D01*
X127570980Y-127554489D01*
X127651288Y-127530134D01*
X127870961Y-127430239D01*
X128066924Y-127289408D01*
X128231647Y-127113052D01*
X128270000Y-127051187D01*
X128270000Y-128218813D01*
X128231647Y-128156948D01*
X128066924Y-127980592D01*
X127870961Y-127839761D01*
X127651288Y-127739866D01*
X127570980Y-127715511D01*
X127381000Y-127776373D01*
X127381000Y-128778000D01*
X127401000Y-128778000D01*
X127401000Y-129032000D01*
X127381000Y-129032000D01*
X127381000Y-130033627D01*
X127570980Y-130094489D01*
X127651288Y-130070134D01*
X127870961Y-129970239D01*
X128066924Y-129829408D01*
X128231647Y-129653052D01*
X128270000Y-129591187D01*
X128270000Y-130175000D01*
X126111000Y-130175000D01*
X126111000Y-129346029D01*
X126149201Y-129447949D01*
X126276353Y-129653052D01*
X126441076Y-129829408D01*
X126637039Y-129970239D01*
X126856712Y-130070134D01*
X126937020Y-130094489D01*
X127127000Y-130033627D01*
X127127000Y-129032000D01*
X127107000Y-129032000D01*
X127107000Y-128778000D01*
X127127000Y-128778000D01*
X127127000Y-127776373D01*
X126937020Y-127715511D01*
X126856712Y-127739866D01*
X126637039Y-127839761D01*
X126441076Y-127980592D01*
X126276353Y-128156948D01*
X126149201Y-128362051D01*
X126111000Y-128463971D01*
X126111000Y-126806029D01*
X126149201Y-126907949D01*
X126276353Y-127113052D01*
X126441076Y-127289408D01*
X126637039Y-127430239D01*
X126856712Y-127530134D01*
X126937020Y-127554489D01*
X127127000Y-127493627D01*
X127127000Y-126492000D01*
X127107000Y-126492000D01*
X127107000Y-126238000D01*
X127127000Y-126238000D01*
X127127000Y-125236373D01*
X126937020Y-125175511D01*
X126856712Y-125199866D01*
X126637039Y-125299761D01*
X126441076Y-125440592D01*
X126276353Y-125616948D01*
X126149201Y-125822051D01*
X126111000Y-125923971D01*
X126111000Y-121878429D01*
X126149201Y-121980349D01*
X126276353Y-122185452D01*
X126441076Y-122361808D01*
X126637039Y-122502639D01*
X126856712Y-122602534D01*
X126937020Y-122626889D01*
X127127000Y-122566027D01*
X127127000Y-121564400D01*
X127107000Y-121564400D01*
X127107000Y-121310400D01*
X127127000Y-121310400D01*
X127127000Y-121290400D01*
X127381000Y-121290400D01*
X127381000Y-121310400D01*
G37*
%TD.AperFunction*%
%TD*%
D19*
%TO.N,GND*%
X109521500Y-121310400D02*
X109541500Y-121310400D01*
X109541500Y-121564400D01*
X109521500Y-121564400D01*
X109521500Y-122566027D01*
X109711480Y-122626889D01*
X109791788Y-122602534D01*
X110011461Y-122502639D01*
X110207424Y-122361808D01*
X110246299Y-122320187D01*
X110246300Y-125159845D01*
X110243842Y-125184799D01*
X110253651Y-125284383D01*
X110282699Y-125380142D01*
X110329870Y-125468394D01*
X110377449Y-125526369D01*
X110393352Y-125545747D01*
X110412729Y-125561649D01*
X110490000Y-125638920D01*
X110490000Y-125807051D01*
X110372147Y-125616948D01*
X110207424Y-125440592D01*
X110011461Y-125299761D01*
X109791788Y-125199866D01*
X109711480Y-125175511D01*
X109521500Y-125236373D01*
X109521500Y-126238000D01*
X109541500Y-126238000D01*
X109541500Y-126492000D01*
X109521500Y-126492000D01*
X109521500Y-127493627D01*
X109711480Y-127554489D01*
X109791788Y-127530134D01*
X110011461Y-127430239D01*
X110207424Y-127289408D01*
X110372147Y-127113052D01*
X110490000Y-126922949D01*
X110490000Y-128347051D01*
X110372147Y-128156948D01*
X110207424Y-127980592D01*
X110011461Y-127839761D01*
X109791788Y-127739866D01*
X109711480Y-127715511D01*
X109521500Y-127776373D01*
X109521500Y-128778000D01*
X109541500Y-128778000D01*
X109541500Y-129032000D01*
X109521500Y-129032000D01*
X109521500Y-129052000D01*
X109267500Y-129052000D01*
X109267500Y-129032000D01*
X109247500Y-129032000D01*
X109247500Y-128778000D01*
X109267500Y-128778000D01*
X109267500Y-127776373D01*
X109077520Y-127715511D01*
X108997212Y-127739866D01*
X108777539Y-127839761D01*
X108581576Y-127980592D01*
X108416853Y-128156948D01*
X108331000Y-128295433D01*
X108331000Y-126974567D01*
X108416853Y-127113052D01*
X108581576Y-127289408D01*
X108777539Y-127430239D01*
X108997212Y-127530134D01*
X109077520Y-127554489D01*
X109267500Y-127493627D01*
X109267500Y-126492000D01*
X109247500Y-126492000D01*
X109247500Y-126238000D01*
X109267500Y-126238000D01*
X109267500Y-125236373D01*
X109077520Y-125175511D01*
X108997212Y-125199866D01*
X108777539Y-125299761D01*
X108581576Y-125440592D01*
X108416853Y-125616948D01*
X108331000Y-125755433D01*
X108331000Y-122046967D01*
X108416853Y-122185452D01*
X108581576Y-122361808D01*
X108777539Y-122502639D01*
X108997212Y-122602534D01*
X109077520Y-122626889D01*
X109267500Y-122566027D01*
X109267500Y-121564400D01*
X109247500Y-121564400D01*
X109247500Y-121310400D01*
X109267500Y-121310400D01*
X109267500Y-121290400D01*
X109521500Y-121290400D01*
X109521500Y-121310400D01*
%TA.AperFunction,Conductor*%
D20*
G36*
X109521500Y-121310400D02*
G01*
X109541500Y-121310400D01*
X109541500Y-121564400D01*
X109521500Y-121564400D01*
X109521500Y-122566027D01*
X109711480Y-122626889D01*
X109791788Y-122602534D01*
X110011461Y-122502639D01*
X110207424Y-122361808D01*
X110246299Y-122320187D01*
X110246300Y-125159845D01*
X110243842Y-125184799D01*
X110253651Y-125284383D01*
X110282699Y-125380142D01*
X110329870Y-125468394D01*
X110377449Y-125526369D01*
X110393352Y-125545747D01*
X110412729Y-125561649D01*
X110490000Y-125638920D01*
X110490000Y-125807051D01*
X110372147Y-125616948D01*
X110207424Y-125440592D01*
X110011461Y-125299761D01*
X109791788Y-125199866D01*
X109711480Y-125175511D01*
X109521500Y-125236373D01*
X109521500Y-126238000D01*
X109541500Y-126238000D01*
X109541500Y-126492000D01*
X109521500Y-126492000D01*
X109521500Y-127493627D01*
X109711480Y-127554489D01*
X109791788Y-127530134D01*
X110011461Y-127430239D01*
X110207424Y-127289408D01*
X110372147Y-127113052D01*
X110490000Y-126922949D01*
X110490000Y-128347051D01*
X110372147Y-128156948D01*
X110207424Y-127980592D01*
X110011461Y-127839761D01*
X109791788Y-127739866D01*
X109711480Y-127715511D01*
X109521500Y-127776373D01*
X109521500Y-128778000D01*
X109541500Y-128778000D01*
X109541500Y-129032000D01*
X109521500Y-129032000D01*
X109521500Y-129052000D01*
X109267500Y-129052000D01*
X109267500Y-129032000D01*
X109247500Y-129032000D01*
X109247500Y-128778000D01*
X109267500Y-128778000D01*
X109267500Y-127776373D01*
X109077520Y-127715511D01*
X108997212Y-127739866D01*
X108777539Y-127839761D01*
X108581576Y-127980592D01*
X108416853Y-128156948D01*
X108331000Y-128295433D01*
X108331000Y-126974567D01*
X108416853Y-127113052D01*
X108581576Y-127289408D01*
X108777539Y-127430239D01*
X108997212Y-127530134D01*
X109077520Y-127554489D01*
X109267500Y-127493627D01*
X109267500Y-126492000D01*
X109247500Y-126492000D01*
X109247500Y-126238000D01*
X109267500Y-126238000D01*
X109267500Y-125236373D01*
X109077520Y-125175511D01*
X108997212Y-125199866D01*
X108777539Y-125299761D01*
X108581576Y-125440592D01*
X108416853Y-125616948D01*
X108331000Y-125755433D01*
X108331000Y-122046967D01*
X108416853Y-122185452D01*
X108581576Y-122361808D01*
X108777539Y-122502639D01*
X108997212Y-122602534D01*
X109077520Y-122626889D01*
X109267500Y-122566027D01*
X109267500Y-121564400D01*
X109247500Y-121564400D01*
X109247500Y-121310400D01*
X109267500Y-121310400D01*
X109267500Y-121290400D01*
X109521500Y-121290400D01*
X109521500Y-121310400D01*
G37*
%TD.AperFunction*%
%TD*%
D19*
%TO.N,GND*%
X199923400Y-120116704D02*
X199229691Y-120117275D01*
X199283008Y-120101101D01*
X199349196Y-120065722D01*
X199407211Y-120018111D01*
X199454822Y-119960096D01*
X199490201Y-119893908D01*
X199511987Y-119822089D01*
X199519343Y-119747400D01*
X199517500Y-119119650D01*
X199422250Y-119024400D01*
X198413500Y-119024400D01*
X198413500Y-119044400D01*
X198159500Y-119044400D01*
X198159500Y-119024400D01*
X197150750Y-119024400D01*
X197055500Y-119119650D01*
X197053657Y-119747400D01*
X197061013Y-119822089D01*
X197082799Y-119893908D01*
X197118178Y-119960096D01*
X197165789Y-120018111D01*
X197223804Y-120065722D01*
X197289992Y-120101101D01*
X197348411Y-120118822D01*
X195909945Y-120120005D01*
X196105569Y-120081093D01*
X196329597Y-119988298D01*
X196531217Y-119853580D01*
X196702680Y-119682117D01*
X196837398Y-119480497D01*
X196930193Y-119256469D01*
X196977500Y-119018643D01*
X196977500Y-118776157D01*
X196930193Y-118538331D01*
X196837398Y-118314303D01*
X196702680Y-118112683D01*
X196637397Y-118047400D01*
X197053657Y-118047400D01*
X197055500Y-118675150D01*
X197150750Y-118770400D01*
X198159500Y-118770400D01*
X198159500Y-117761650D01*
X198413500Y-117761650D01*
X198413500Y-118770400D01*
X199422250Y-118770400D01*
X199517500Y-118675150D01*
X199519343Y-118047400D01*
X199511987Y-117972711D01*
X199490201Y-117900892D01*
X199454822Y-117834704D01*
X199407211Y-117776689D01*
X199349196Y-117729078D01*
X199283008Y-117693699D01*
X199211189Y-117671913D01*
X199136500Y-117664557D01*
X198508750Y-117666400D01*
X198413500Y-117761650D01*
X198159500Y-117761650D01*
X198064250Y-117666400D01*
X197436500Y-117664557D01*
X197361811Y-117671913D01*
X197289992Y-117693699D01*
X197223804Y-117729078D01*
X197165789Y-117776689D01*
X197118178Y-117834704D01*
X197082799Y-117900892D01*
X197061013Y-117972711D01*
X197053657Y-118047400D01*
X196637397Y-118047400D01*
X196531217Y-117941220D01*
X196329597Y-117806502D01*
X196105569Y-117713707D01*
X195867743Y-117666400D01*
X195625257Y-117666400D01*
X195387431Y-117713707D01*
X195163403Y-117806502D01*
X194961783Y-117941220D01*
X194790320Y-118112683D01*
X194655602Y-118314303D01*
X194562807Y-118538331D01*
X194515500Y-118776157D01*
X194515500Y-119018643D01*
X194562807Y-119256469D01*
X194655602Y-119480497D01*
X194790320Y-119682117D01*
X194961783Y-119853580D01*
X195163403Y-119988298D01*
X195387431Y-120081093D01*
X195584401Y-120120273D01*
X193359397Y-120122104D01*
X193565569Y-120081093D01*
X193789597Y-119988298D01*
X193991217Y-119853580D01*
X194162680Y-119682117D01*
X194297398Y-119480497D01*
X194390193Y-119256469D01*
X194437500Y-119018643D01*
X194437500Y-118776157D01*
X194390193Y-118538331D01*
X194297398Y-118314303D01*
X194162680Y-118112683D01*
X193991217Y-117941220D01*
X193789597Y-117806502D01*
X193565569Y-117713707D01*
X193327743Y-117666400D01*
X193085257Y-117666400D01*
X192847431Y-117713707D01*
X192623403Y-117806502D01*
X192421783Y-117941220D01*
X192250320Y-118112683D01*
X192115602Y-118314303D01*
X192022807Y-118538331D01*
X191975500Y-118776157D01*
X191975500Y-119018643D01*
X192022807Y-119256469D01*
X192115602Y-119480497D01*
X192250320Y-119682117D01*
X192421783Y-119853580D01*
X192623403Y-119988298D01*
X192847431Y-120081093D01*
X193054862Y-120122354D01*
X190808850Y-120124202D01*
X191025569Y-120081093D01*
X191249597Y-119988298D01*
X191451217Y-119853580D01*
X191622680Y-119682117D01*
X191757398Y-119480497D01*
X191850193Y-119256469D01*
X191897500Y-119018643D01*
X191897500Y-118776157D01*
X191850193Y-118538331D01*
X191757398Y-118314303D01*
X191622680Y-118112683D01*
X191451217Y-117941220D01*
X191249597Y-117806502D01*
X191025569Y-117713707D01*
X190787743Y-117666400D01*
X190545257Y-117666400D01*
X190307431Y-117713707D01*
X190083403Y-117806502D01*
X189881783Y-117941220D01*
X189710320Y-118112683D01*
X189575602Y-118314303D01*
X189482807Y-118538331D01*
X189435500Y-118776157D01*
X189435500Y-119018643D01*
X189482807Y-119256469D01*
X189575602Y-119480497D01*
X189710320Y-119682117D01*
X189881783Y-119853580D01*
X190083403Y-119988298D01*
X190307431Y-120081093D01*
X190525323Y-120124435D01*
X183927366Y-120129862D01*
X183998189Y-120122887D01*
X184070008Y-120101101D01*
X184136196Y-120065722D01*
X184194211Y-120018111D01*
X184241822Y-119960096D01*
X184277201Y-119893908D01*
X184298987Y-119822089D01*
X184306343Y-119747400D01*
X184306343Y-118047400D01*
X184298987Y-117972711D01*
X184277201Y-117900892D01*
X184241822Y-117834704D01*
X184194211Y-117776689D01*
X184136196Y-117729078D01*
X184070008Y-117693699D01*
X183998189Y-117671913D01*
X183923500Y-117664557D01*
X182223500Y-117664557D01*
X182148811Y-117671913D01*
X182076992Y-117693699D01*
X182010804Y-117729078D01*
X181952789Y-117776689D01*
X181905178Y-117834704D01*
X181869799Y-117900892D01*
X181848013Y-117972711D01*
X181840657Y-118047400D01*
X181840657Y-119411823D01*
X181551734Y-119700746D01*
X181532351Y-119716653D01*
X181468870Y-119794006D01*
X181421698Y-119882259D01*
X181392650Y-119978017D01*
X181387922Y-120026027D01*
X181382842Y-120077601D01*
X181385299Y-120102545D01*
X181385299Y-120131953D01*
X180016241Y-120133079D01*
X180099334Y-120049987D01*
X180174431Y-120081093D01*
X180412257Y-120128400D01*
X180654743Y-120128400D01*
X180892569Y-120081093D01*
X181116597Y-119988298D01*
X181318217Y-119853580D01*
X181489680Y-119682117D01*
X181624398Y-119480497D01*
X181717193Y-119256469D01*
X181764500Y-119018643D01*
X181764500Y-118776157D01*
X181717193Y-118538331D01*
X181624398Y-118314303D01*
X181489680Y-118112683D01*
X181318217Y-117941220D01*
X181116597Y-117806502D01*
X180892569Y-117713707D01*
X180654743Y-117666400D01*
X180412257Y-117666400D01*
X180174431Y-117713707D01*
X179950403Y-117806502D01*
X179748783Y-117941220D01*
X179577320Y-118112683D01*
X179442602Y-118314303D01*
X179349807Y-118538331D01*
X179302500Y-118776157D01*
X179302500Y-119018643D01*
X179349807Y-119256469D01*
X179380913Y-119331566D01*
X179011734Y-119700746D01*
X178992351Y-119716653D01*
X178928870Y-119794006D01*
X178881698Y-119882259D01*
X178852650Y-119978017D01*
X178847922Y-120026027D01*
X178842842Y-120077601D01*
X178845299Y-120102545D01*
X178845299Y-120134043D01*
X177474150Y-120135171D01*
X177559334Y-120049987D01*
X177634431Y-120081093D01*
X177872257Y-120128400D01*
X178114743Y-120128400D01*
X178352569Y-120081093D01*
X178576597Y-119988298D01*
X178778217Y-119853580D01*
X178949680Y-119682117D01*
X179084398Y-119480497D01*
X179177193Y-119256469D01*
X179224500Y-119018643D01*
X179224500Y-118776157D01*
X179177193Y-118538331D01*
X179084398Y-118314303D01*
X178949680Y-118112683D01*
X178778217Y-117941220D01*
X178576597Y-117806502D01*
X178352569Y-117713707D01*
X178114743Y-117666400D01*
X177872257Y-117666400D01*
X177634431Y-117713707D01*
X177410403Y-117806502D01*
X177208783Y-117941220D01*
X177037320Y-118112683D01*
X176902602Y-118314303D01*
X176809807Y-118538331D01*
X176762500Y-118776157D01*
X176762500Y-119018643D01*
X176809807Y-119256469D01*
X176840913Y-119331566D01*
X176471734Y-119700746D01*
X176452351Y-119716653D01*
X176388870Y-119794006D01*
X176341698Y-119882259D01*
X176312650Y-119978017D01*
X176307922Y-120026027D01*
X176302842Y-120077601D01*
X176305299Y-120102545D01*
X176305299Y-120136132D01*
X174932059Y-120137262D01*
X175019334Y-120049987D01*
X175094431Y-120081093D01*
X175332257Y-120128400D01*
X175574743Y-120128400D01*
X175812569Y-120081093D01*
X176036597Y-119988298D01*
X176238217Y-119853580D01*
X176409680Y-119682117D01*
X176544398Y-119480497D01*
X176637193Y-119256469D01*
X176684500Y-119018643D01*
X176684500Y-118776157D01*
X176637193Y-118538331D01*
X176544398Y-118314303D01*
X176409680Y-118112683D01*
X176238217Y-117941220D01*
X176036597Y-117806502D01*
X175812569Y-117713707D01*
X175574743Y-117666400D01*
X175332257Y-117666400D01*
X175094431Y-117713707D01*
X174870403Y-117806502D01*
X174668783Y-117941220D01*
X174497320Y-118112683D01*
X174362602Y-118314303D01*
X174269807Y-118538331D01*
X174222500Y-118776157D01*
X174222500Y-119018643D01*
X174269807Y-119256469D01*
X174300913Y-119331566D01*
X173931734Y-119700746D01*
X173912351Y-119716653D01*
X173848870Y-119794006D01*
X173801698Y-119882259D01*
X173772650Y-119978017D01*
X173767922Y-120026027D01*
X173762842Y-120077601D01*
X173765299Y-120102545D01*
X173765299Y-120138221D01*
X162282153Y-120147667D01*
X162379834Y-120049987D01*
X162454931Y-120081093D01*
X162692757Y-120128400D01*
X162935243Y-120128400D01*
X163173069Y-120081093D01*
X163397097Y-119988298D01*
X163598717Y-119853580D01*
X163704897Y-119747400D01*
X164121157Y-119747400D01*
X164128513Y-119822089D01*
X164150299Y-119893908D01*
X164185678Y-119960096D01*
X164233289Y-120018111D01*
X164291304Y-120065722D01*
X164357492Y-120101101D01*
X164429311Y-120122887D01*
X164504000Y-120130243D01*
X165131750Y-120128400D01*
X165227000Y-120033150D01*
X165227000Y-119024400D01*
X165481000Y-119024400D01*
X165481000Y-120033150D01*
X165576250Y-120128400D01*
X166204000Y-120130243D01*
X166278689Y-120122887D01*
X166350508Y-120101101D01*
X166416696Y-120065722D01*
X166474711Y-120018111D01*
X166522322Y-119960096D01*
X166557701Y-119893908D01*
X166579487Y-119822089D01*
X166586843Y-119747400D01*
X166585279Y-119214381D01*
X171724005Y-119214381D01*
X171808701Y-119440349D01*
X171935853Y-119645452D01*
X172100576Y-119821808D01*
X172296539Y-119962639D01*
X172516212Y-120062534D01*
X172596520Y-120086889D01*
X172786500Y-120026027D01*
X172786500Y-119024400D01*
X173040500Y-119024400D01*
X173040500Y-120026027D01*
X173230480Y-120086889D01*
X173310788Y-120062534D01*
X173530461Y-119962639D01*
X173726424Y-119821808D01*
X173891147Y-119645452D01*
X174018299Y-119440349D01*
X174102995Y-119214381D01*
X174042687Y-119024400D01*
X173040500Y-119024400D01*
X172786500Y-119024400D01*
X171784313Y-119024400D01*
X171724005Y-119214381D01*
X166585279Y-119214381D01*
X166585000Y-119119650D01*
X166489750Y-119024400D01*
X165481000Y-119024400D01*
X165227000Y-119024400D01*
X164218250Y-119024400D01*
X164123000Y-119119650D01*
X164121157Y-119747400D01*
X163704897Y-119747400D01*
X163770180Y-119682117D01*
X163904898Y-119480497D01*
X163997693Y-119256469D01*
X164045000Y-119018643D01*
X164045000Y-118776157D01*
X163997693Y-118538331D01*
X163904898Y-118314303D01*
X163770180Y-118112683D01*
X163704897Y-118047400D01*
X164121157Y-118047400D01*
X164123000Y-118675150D01*
X164218250Y-118770400D01*
X165227000Y-118770400D01*
X165227000Y-117761650D01*
X165481000Y-117761650D01*
X165481000Y-118770400D01*
X166489750Y-118770400D01*
X166585000Y-118675150D01*
X166585278Y-118580419D01*
X171724005Y-118580419D01*
X171784313Y-118770400D01*
X172786500Y-118770400D01*
X172786500Y-117768773D01*
X173040500Y-117768773D01*
X173040500Y-118770400D01*
X174042687Y-118770400D01*
X174102995Y-118580419D01*
X174018299Y-118354451D01*
X173891147Y-118149348D01*
X173726424Y-117972992D01*
X173530461Y-117832161D01*
X173310788Y-117732266D01*
X173230480Y-117707911D01*
X173040500Y-117768773D01*
X172786500Y-117768773D01*
X172596520Y-117707911D01*
X172516212Y-117732266D01*
X172296539Y-117832161D01*
X172100576Y-117972992D01*
X171935853Y-118149348D01*
X171808701Y-118354451D01*
X171724005Y-118580419D01*
X166585278Y-118580419D01*
X166586843Y-118047400D01*
X166579487Y-117972711D01*
X166557701Y-117900892D01*
X166522322Y-117834704D01*
X166474711Y-117776689D01*
X166416696Y-117729078D01*
X166350508Y-117693699D01*
X166278689Y-117671913D01*
X166204000Y-117664557D01*
X165576250Y-117666400D01*
X165481000Y-117761650D01*
X165227000Y-117761650D01*
X165131750Y-117666400D01*
X164504000Y-117664557D01*
X164429311Y-117671913D01*
X164357492Y-117693699D01*
X164291304Y-117729078D01*
X164233289Y-117776689D01*
X164185678Y-117834704D01*
X164150299Y-117900892D01*
X164128513Y-117972711D01*
X164121157Y-118047400D01*
X163704897Y-118047400D01*
X163598717Y-117941220D01*
X163397097Y-117806502D01*
X163173069Y-117713707D01*
X162935243Y-117666400D01*
X162692757Y-117666400D01*
X162454931Y-117713707D01*
X162230903Y-117806502D01*
X162029283Y-117941220D01*
X161857820Y-118112683D01*
X161723102Y-118314303D01*
X161630307Y-118538331D01*
X161583000Y-118776157D01*
X161583000Y-119018643D01*
X161630307Y-119256469D01*
X161661413Y-119331566D01*
X161292234Y-119700746D01*
X161272851Y-119716653D01*
X161209370Y-119794006D01*
X161162198Y-119882259D01*
X161133150Y-119978017D01*
X161128422Y-120026027D01*
X161123342Y-120077601D01*
X161125799Y-120102545D01*
X161125799Y-120148619D01*
X159740062Y-120149759D01*
X159839834Y-120049987D01*
X159914931Y-120081093D01*
X160152757Y-120128400D01*
X160395243Y-120128400D01*
X160633069Y-120081093D01*
X160857097Y-119988298D01*
X161058717Y-119853580D01*
X161230180Y-119682117D01*
X161364898Y-119480497D01*
X161457693Y-119256469D01*
X161505000Y-119018643D01*
X161505000Y-118776157D01*
X161457693Y-118538331D01*
X161364898Y-118314303D01*
X161230180Y-118112683D01*
X161058717Y-117941220D01*
X160857097Y-117806502D01*
X160633069Y-117713707D01*
X160395243Y-117666400D01*
X160152757Y-117666400D01*
X159914931Y-117713707D01*
X159690903Y-117806502D01*
X159489283Y-117941220D01*
X159317820Y-118112683D01*
X159183102Y-118314303D01*
X159090307Y-118538331D01*
X159043000Y-118776157D01*
X159043000Y-119018643D01*
X159090307Y-119256469D01*
X159121413Y-119331566D01*
X158752234Y-119700746D01*
X158732851Y-119716653D01*
X158669370Y-119794006D01*
X158622198Y-119882259D01*
X158593150Y-119978017D01*
X158588422Y-120026027D01*
X158583342Y-120077601D01*
X158585799Y-120102545D01*
X158585799Y-120150708D01*
X157197971Y-120151850D01*
X157299834Y-120049987D01*
X157374931Y-120081093D01*
X157612757Y-120128400D01*
X157855243Y-120128400D01*
X158093069Y-120081093D01*
X158317097Y-119988298D01*
X158518717Y-119853580D01*
X158690180Y-119682117D01*
X158824898Y-119480497D01*
X158917693Y-119256469D01*
X158965000Y-119018643D01*
X158965000Y-118776157D01*
X158917693Y-118538331D01*
X158824898Y-118314303D01*
X158690180Y-118112683D01*
X158518717Y-117941220D01*
X158317097Y-117806502D01*
X158093069Y-117713707D01*
X157855243Y-117666400D01*
X157612757Y-117666400D01*
X157374931Y-117713707D01*
X157150903Y-117806502D01*
X156949283Y-117941220D01*
X156777820Y-118112683D01*
X156643102Y-118314303D01*
X156550307Y-118538331D01*
X156503000Y-118776157D01*
X156503000Y-119018643D01*
X156550307Y-119256469D01*
X156581413Y-119331566D01*
X156212234Y-119700746D01*
X156192851Y-119716653D01*
X156129370Y-119794006D01*
X156082198Y-119882259D01*
X156053150Y-119978017D01*
X156048422Y-120026027D01*
X156043342Y-120077601D01*
X156045799Y-120102545D01*
X156045799Y-120152797D01*
X154655880Y-120153941D01*
X154759834Y-120049987D01*
X154834931Y-120081093D01*
X155072757Y-120128400D01*
X155315243Y-120128400D01*
X155553069Y-120081093D01*
X155777097Y-119988298D01*
X155978717Y-119853580D01*
X156150180Y-119682117D01*
X156284898Y-119480497D01*
X156377693Y-119256469D01*
X156425000Y-119018643D01*
X156425000Y-118776157D01*
X156377693Y-118538331D01*
X156284898Y-118314303D01*
X156150180Y-118112683D01*
X155978717Y-117941220D01*
X155777097Y-117806502D01*
X155553069Y-117713707D01*
X155315243Y-117666400D01*
X155072757Y-117666400D01*
X154834931Y-117713707D01*
X154610903Y-117806502D01*
X154409283Y-117941220D01*
X154237820Y-118112683D01*
X154103102Y-118314303D01*
X154010307Y-118538331D01*
X153963000Y-118776157D01*
X153963000Y-119018643D01*
X154010307Y-119256469D01*
X154041413Y-119331566D01*
X153672234Y-119700746D01*
X153652851Y-119716653D01*
X153589370Y-119794006D01*
X153542198Y-119882259D01*
X153513150Y-119978017D01*
X153508422Y-120026027D01*
X153503342Y-120077601D01*
X153505799Y-120102545D01*
X153505799Y-120154887D01*
X149571698Y-120158123D01*
X149679834Y-120049987D01*
X149754931Y-120081093D01*
X149992757Y-120128400D01*
X150235243Y-120128400D01*
X150473069Y-120081093D01*
X150697097Y-119988298D01*
X150898717Y-119853580D01*
X151070180Y-119682117D01*
X151204898Y-119480497D01*
X151297693Y-119256469D01*
X151306064Y-119214381D01*
X151464505Y-119214381D01*
X151549201Y-119440349D01*
X151676353Y-119645452D01*
X151841076Y-119821808D01*
X152037039Y-119962639D01*
X152256712Y-120062534D01*
X152337020Y-120086889D01*
X152527000Y-120026027D01*
X152527000Y-119024400D01*
X152781000Y-119024400D01*
X152781000Y-120026027D01*
X152970980Y-120086889D01*
X153051288Y-120062534D01*
X153270961Y-119962639D01*
X153466924Y-119821808D01*
X153631647Y-119645452D01*
X153758799Y-119440349D01*
X153843495Y-119214381D01*
X153783187Y-119024400D01*
X152781000Y-119024400D01*
X152527000Y-119024400D01*
X151524813Y-119024400D01*
X151464505Y-119214381D01*
X151306064Y-119214381D01*
X151345000Y-119018643D01*
X151345000Y-118776157D01*
X151306065Y-118580419D01*
X151464505Y-118580419D01*
X151524813Y-118770400D01*
X152527000Y-118770400D01*
X152527000Y-117768773D01*
X152781000Y-117768773D01*
X152781000Y-118770400D01*
X153783187Y-118770400D01*
X153843495Y-118580419D01*
X153758799Y-118354451D01*
X153631647Y-118149348D01*
X153466924Y-117972992D01*
X153270961Y-117832161D01*
X153051288Y-117732266D01*
X152970980Y-117707911D01*
X152781000Y-117768773D01*
X152527000Y-117768773D01*
X152337020Y-117707911D01*
X152256712Y-117732266D01*
X152037039Y-117832161D01*
X151841076Y-117972992D01*
X151676353Y-118149348D01*
X151549201Y-118354451D01*
X151464505Y-118580419D01*
X151306065Y-118580419D01*
X151297693Y-118538331D01*
X151204898Y-118314303D01*
X151070180Y-118112683D01*
X150898717Y-117941220D01*
X150697097Y-117806502D01*
X150473069Y-117713707D01*
X150235243Y-117666400D01*
X149992757Y-117666400D01*
X149754931Y-117713707D01*
X149530903Y-117806502D01*
X149329283Y-117941220D01*
X149157820Y-118112683D01*
X149023102Y-118314303D01*
X148930307Y-118538331D01*
X148883000Y-118776157D01*
X148883000Y-119018643D01*
X148930307Y-119256469D01*
X148961413Y-119331566D01*
X148592234Y-119700746D01*
X148572851Y-119716653D01*
X148509370Y-119794006D01*
X148462198Y-119882259D01*
X148433150Y-119978017D01*
X148428422Y-120026027D01*
X148423342Y-120077601D01*
X148425799Y-120102545D01*
X148425799Y-120159066D01*
X147029606Y-120160214D01*
X147139834Y-120049987D01*
X147214931Y-120081093D01*
X147452757Y-120128400D01*
X147695243Y-120128400D01*
X147933069Y-120081093D01*
X148157097Y-119988298D01*
X148358717Y-119853580D01*
X148530180Y-119682117D01*
X148664898Y-119480497D01*
X148757693Y-119256469D01*
X148805000Y-119018643D01*
X148805000Y-118776157D01*
X148757693Y-118538331D01*
X148664898Y-118314303D01*
X148530180Y-118112683D01*
X148358717Y-117941220D01*
X148157097Y-117806502D01*
X147933069Y-117713707D01*
X147695243Y-117666400D01*
X147452757Y-117666400D01*
X147214931Y-117713707D01*
X146990903Y-117806502D01*
X146789283Y-117941220D01*
X146617820Y-118112683D01*
X146483102Y-118314303D01*
X146390307Y-118538331D01*
X146343000Y-118776157D01*
X146343000Y-119018643D01*
X146390307Y-119256469D01*
X146421413Y-119331566D01*
X146052234Y-119700746D01*
X146032851Y-119716653D01*
X145969370Y-119794006D01*
X145922198Y-119882259D01*
X145893150Y-119978017D01*
X145888422Y-120026027D01*
X145883342Y-120077601D01*
X145885799Y-120102545D01*
X145885799Y-120161155D01*
X144487515Y-120162305D01*
X144599834Y-120049987D01*
X144674931Y-120081093D01*
X144912757Y-120128400D01*
X145155243Y-120128400D01*
X145393069Y-120081093D01*
X145617097Y-119988298D01*
X145818717Y-119853580D01*
X145990180Y-119682117D01*
X146124898Y-119480497D01*
X146217693Y-119256469D01*
X146265000Y-119018643D01*
X146265000Y-118776157D01*
X146217693Y-118538331D01*
X146124898Y-118314303D01*
X145990180Y-118112683D01*
X145818717Y-117941220D01*
X145617097Y-117806502D01*
X145393069Y-117713707D01*
X145155243Y-117666400D01*
X144912757Y-117666400D01*
X144674931Y-117713707D01*
X144450903Y-117806502D01*
X144249283Y-117941220D01*
X144077820Y-118112683D01*
X143943102Y-118314303D01*
X143850307Y-118538331D01*
X143803000Y-118776157D01*
X143803000Y-119018643D01*
X143850307Y-119256469D01*
X143881413Y-119331566D01*
X143512234Y-119700746D01*
X143492851Y-119716653D01*
X143429370Y-119794006D01*
X143382198Y-119882259D01*
X143353150Y-119978017D01*
X143348422Y-120026027D01*
X143343342Y-120077601D01*
X143345799Y-120102545D01*
X143345799Y-120163244D01*
X141945424Y-120164396D01*
X142059834Y-120049987D01*
X142134931Y-120081093D01*
X142372757Y-120128400D01*
X142615243Y-120128400D01*
X142853069Y-120081093D01*
X143077097Y-119988298D01*
X143278717Y-119853580D01*
X143450180Y-119682117D01*
X143584898Y-119480497D01*
X143677693Y-119256469D01*
X143725000Y-119018643D01*
X143725000Y-118776157D01*
X143677693Y-118538331D01*
X143584898Y-118314303D01*
X143450180Y-118112683D01*
X143278717Y-117941220D01*
X143077097Y-117806502D01*
X142853069Y-117713707D01*
X142615243Y-117666400D01*
X142372757Y-117666400D01*
X142134931Y-117713707D01*
X141910903Y-117806502D01*
X141709283Y-117941220D01*
X141537820Y-118112683D01*
X141403102Y-118314303D01*
X141310307Y-118538331D01*
X141263000Y-118776157D01*
X141263000Y-119018643D01*
X141310307Y-119256469D01*
X141341413Y-119331566D01*
X140972234Y-119700746D01*
X140952851Y-119716653D01*
X140889370Y-119794006D01*
X140842198Y-119882259D01*
X140813150Y-119978017D01*
X140808422Y-120026027D01*
X140803342Y-120077601D01*
X140805799Y-120102545D01*
X140805799Y-120165334D01*
X136861242Y-120168579D01*
X136979834Y-120049987D01*
X137054931Y-120081093D01*
X137292757Y-120128400D01*
X137535243Y-120128400D01*
X137773069Y-120081093D01*
X137997097Y-119988298D01*
X138198717Y-119853580D01*
X138370180Y-119682117D01*
X138504898Y-119480497D01*
X138597693Y-119256469D01*
X138606064Y-119214381D01*
X138764505Y-119214381D01*
X138849201Y-119440349D01*
X138976353Y-119645452D01*
X139141076Y-119821808D01*
X139337039Y-119962639D01*
X139556712Y-120062534D01*
X139637020Y-120086889D01*
X139827000Y-120026027D01*
X139827000Y-119024400D01*
X140081000Y-119024400D01*
X140081000Y-120026027D01*
X140270980Y-120086889D01*
X140351288Y-120062534D01*
X140570961Y-119962639D01*
X140766924Y-119821808D01*
X140931647Y-119645452D01*
X141058799Y-119440349D01*
X141143495Y-119214381D01*
X141083187Y-119024400D01*
X140081000Y-119024400D01*
X139827000Y-119024400D01*
X138824813Y-119024400D01*
X138764505Y-119214381D01*
X138606064Y-119214381D01*
X138645000Y-119018643D01*
X138645000Y-118776157D01*
X138606065Y-118580419D01*
X138764505Y-118580419D01*
X138824813Y-118770400D01*
X139827000Y-118770400D01*
X139827000Y-117768773D01*
X140081000Y-117768773D01*
X140081000Y-118770400D01*
X141083187Y-118770400D01*
X141143495Y-118580419D01*
X141058799Y-118354451D01*
X140931647Y-118149348D01*
X140766924Y-117972992D01*
X140570961Y-117832161D01*
X140351288Y-117732266D01*
X140270980Y-117707911D01*
X140081000Y-117768773D01*
X139827000Y-117768773D01*
X139637020Y-117707911D01*
X139556712Y-117732266D01*
X139337039Y-117832161D01*
X139141076Y-117972992D01*
X138976353Y-118149348D01*
X138849201Y-118354451D01*
X138764505Y-118580419D01*
X138606065Y-118580419D01*
X138597693Y-118538331D01*
X138504898Y-118314303D01*
X138370180Y-118112683D01*
X138198717Y-117941220D01*
X137997097Y-117806502D01*
X137773069Y-117713707D01*
X137535243Y-117666400D01*
X137292757Y-117666400D01*
X137054931Y-117713707D01*
X136830903Y-117806502D01*
X136629283Y-117941220D01*
X136457820Y-118112683D01*
X136323102Y-118314303D01*
X136230307Y-118538331D01*
X136183000Y-118776157D01*
X136183000Y-119018643D01*
X136230307Y-119256469D01*
X136261413Y-119331566D01*
X135892234Y-119700746D01*
X135872851Y-119716653D01*
X135809370Y-119794006D01*
X135762198Y-119882259D01*
X135733150Y-119978017D01*
X135728422Y-120026027D01*
X135723342Y-120077601D01*
X135725799Y-120102545D01*
X135725799Y-120169513D01*
X134319151Y-120170670D01*
X134439834Y-120049987D01*
X134514931Y-120081093D01*
X134752757Y-120128400D01*
X134995243Y-120128400D01*
X135233069Y-120081093D01*
X135457097Y-119988298D01*
X135658717Y-119853580D01*
X135830180Y-119682117D01*
X135964898Y-119480497D01*
X136057693Y-119256469D01*
X136105000Y-119018643D01*
X136105000Y-118776157D01*
X136057693Y-118538331D01*
X135964898Y-118314303D01*
X135830180Y-118112683D01*
X135658717Y-117941220D01*
X135457097Y-117806502D01*
X135233069Y-117713707D01*
X134995243Y-117666400D01*
X134752757Y-117666400D01*
X134514931Y-117713707D01*
X134290903Y-117806502D01*
X134089283Y-117941220D01*
X133917820Y-118112683D01*
X133783102Y-118314303D01*
X133690307Y-118538331D01*
X133643000Y-118776157D01*
X133643000Y-119018643D01*
X133690307Y-119256469D01*
X133721413Y-119331566D01*
X133352234Y-119700746D01*
X133332851Y-119716653D01*
X133269370Y-119794006D01*
X133222198Y-119882259D01*
X133193150Y-119978017D01*
X133188422Y-120026027D01*
X133183342Y-120077601D01*
X133185799Y-120102545D01*
X133185799Y-120171602D01*
X131777060Y-120172761D01*
X131899834Y-120049987D01*
X131974931Y-120081093D01*
X132212757Y-120128400D01*
X132455243Y-120128400D01*
X132693069Y-120081093D01*
X132917097Y-119988298D01*
X133118717Y-119853580D01*
X133290180Y-119682117D01*
X133424898Y-119480497D01*
X133517693Y-119256469D01*
X133565000Y-119018643D01*
X133565000Y-118776157D01*
X133517693Y-118538331D01*
X133424898Y-118314303D01*
X133290180Y-118112683D01*
X133118717Y-117941220D01*
X132917097Y-117806502D01*
X132693069Y-117713707D01*
X132455243Y-117666400D01*
X132212757Y-117666400D01*
X131974931Y-117713707D01*
X131750903Y-117806502D01*
X131549283Y-117941220D01*
X131377820Y-118112683D01*
X131243102Y-118314303D01*
X131150307Y-118538331D01*
X131103000Y-118776157D01*
X131103000Y-119018643D01*
X131150307Y-119256469D01*
X131181413Y-119331566D01*
X130812234Y-119700746D01*
X130792851Y-119716653D01*
X130729370Y-119794006D01*
X130682198Y-119882259D01*
X130653150Y-119978017D01*
X130648422Y-120026027D01*
X130643342Y-120077601D01*
X130645799Y-120102545D01*
X130645799Y-120173691D01*
X129234969Y-120174852D01*
X129359834Y-120049987D01*
X129434931Y-120081093D01*
X129672757Y-120128400D01*
X129915243Y-120128400D01*
X130153069Y-120081093D01*
X130377097Y-119988298D01*
X130578717Y-119853580D01*
X130750180Y-119682117D01*
X130884898Y-119480497D01*
X130977693Y-119256469D01*
X131025000Y-119018643D01*
X131025000Y-118776157D01*
X130977693Y-118538331D01*
X130884898Y-118314303D01*
X130750180Y-118112683D01*
X130578717Y-117941220D01*
X130377097Y-117806502D01*
X130153069Y-117713707D01*
X129915243Y-117666400D01*
X129672757Y-117666400D01*
X129434931Y-117713707D01*
X129210903Y-117806502D01*
X129009283Y-117941220D01*
X128837820Y-118112683D01*
X128703102Y-118314303D01*
X128610307Y-118538331D01*
X128563000Y-118776157D01*
X128563000Y-119018643D01*
X128610307Y-119256469D01*
X128641413Y-119331566D01*
X128272234Y-119700746D01*
X128252851Y-119716653D01*
X128189370Y-119794006D01*
X128142198Y-119882259D01*
X128113150Y-119978017D01*
X128108422Y-120026027D01*
X128103342Y-120077601D01*
X128105799Y-120102545D01*
X128105799Y-120175781D01*
X118987038Y-120183282D01*
X119040077Y-120130243D01*
X120404500Y-120130243D01*
X120479189Y-120122887D01*
X120551008Y-120101101D01*
X120617196Y-120065722D01*
X120675211Y-120018111D01*
X120722822Y-119960096D01*
X120758201Y-119893908D01*
X120779987Y-119822089D01*
X120787343Y-119747400D01*
X120787343Y-119214381D01*
X126064505Y-119214381D01*
X126149201Y-119440349D01*
X126276353Y-119645452D01*
X126441076Y-119821808D01*
X126637039Y-119962639D01*
X126856712Y-120062534D01*
X126937020Y-120086889D01*
X127127000Y-120026027D01*
X127127000Y-119024400D01*
X127381000Y-119024400D01*
X127381000Y-120026027D01*
X127570980Y-120086889D01*
X127651288Y-120062534D01*
X127870961Y-119962639D01*
X128066924Y-119821808D01*
X128231647Y-119645452D01*
X128358799Y-119440349D01*
X128443495Y-119214381D01*
X128383187Y-119024400D01*
X127381000Y-119024400D01*
X127127000Y-119024400D01*
X126124813Y-119024400D01*
X126064505Y-119214381D01*
X120787343Y-119214381D01*
X120787343Y-118580419D01*
X126064505Y-118580419D01*
X126124813Y-118770400D01*
X127127000Y-118770400D01*
X127127000Y-117768773D01*
X127381000Y-117768773D01*
X127381000Y-118770400D01*
X128383187Y-118770400D01*
X128443495Y-118580419D01*
X128358799Y-118354451D01*
X128231647Y-118149348D01*
X128066924Y-117972992D01*
X127870961Y-117832161D01*
X127651288Y-117732266D01*
X127570980Y-117707911D01*
X127381000Y-117768773D01*
X127127000Y-117768773D01*
X126937020Y-117707911D01*
X126856712Y-117732266D01*
X126637039Y-117832161D01*
X126441076Y-117972992D01*
X126276353Y-118149348D01*
X126149201Y-118354451D01*
X126064505Y-118580419D01*
X120787343Y-118580419D01*
X120787343Y-118047400D01*
X120779987Y-117972711D01*
X120758201Y-117900892D01*
X120722822Y-117834704D01*
X120675211Y-117776689D01*
X120617196Y-117729078D01*
X120551008Y-117693699D01*
X120479189Y-117671913D01*
X120404500Y-117664557D01*
X118704500Y-117664557D01*
X118629811Y-117671913D01*
X118557992Y-117693699D01*
X118491804Y-117729078D01*
X118433789Y-117776689D01*
X118386178Y-117834704D01*
X118350799Y-117900892D01*
X118329013Y-117972711D01*
X118321657Y-118047400D01*
X118321657Y-119411823D01*
X118032734Y-119700746D01*
X118013351Y-119716653D01*
X117949870Y-119794006D01*
X117902698Y-119882259D01*
X117873650Y-119978017D01*
X117868922Y-120026027D01*
X117863842Y-120077601D01*
X117866299Y-120102545D01*
X117866299Y-120184204D01*
X116444948Y-120185373D01*
X116580334Y-120049987D01*
X116655431Y-120081093D01*
X116893257Y-120128400D01*
X117135743Y-120128400D01*
X117373569Y-120081093D01*
X117597597Y-119988298D01*
X117799217Y-119853580D01*
X117970680Y-119682117D01*
X118105398Y-119480497D01*
X118198193Y-119256469D01*
X118245500Y-119018643D01*
X118245500Y-118776157D01*
X118198193Y-118538331D01*
X118105398Y-118314303D01*
X117970680Y-118112683D01*
X117799217Y-117941220D01*
X117597597Y-117806502D01*
X117373569Y-117713707D01*
X117135743Y-117666400D01*
X116893257Y-117666400D01*
X116655431Y-117713707D01*
X116431403Y-117806502D01*
X116229783Y-117941220D01*
X116058320Y-118112683D01*
X115923602Y-118314303D01*
X115830807Y-118538331D01*
X115783500Y-118776157D01*
X115783500Y-119018643D01*
X115830807Y-119256469D01*
X115861913Y-119331566D01*
X115492734Y-119700746D01*
X115473351Y-119716653D01*
X115409870Y-119794006D01*
X115362698Y-119882259D01*
X115333650Y-119978017D01*
X115328922Y-120026027D01*
X115323842Y-120077601D01*
X115326299Y-120102545D01*
X115326299Y-120186293D01*
X113902857Y-120187464D01*
X114040334Y-120049987D01*
X114115431Y-120081093D01*
X114353257Y-120128400D01*
X114595743Y-120128400D01*
X114833569Y-120081093D01*
X115057597Y-119988298D01*
X115259217Y-119853580D01*
X115430680Y-119682117D01*
X115565398Y-119480497D01*
X115658193Y-119256469D01*
X115705500Y-119018643D01*
X115705500Y-118776157D01*
X115658193Y-118538331D01*
X115565398Y-118314303D01*
X115430680Y-118112683D01*
X115259217Y-117941220D01*
X115057597Y-117806502D01*
X114833569Y-117713707D01*
X114595743Y-117666400D01*
X114353257Y-117666400D01*
X114115431Y-117713707D01*
X113891403Y-117806502D01*
X113689783Y-117941220D01*
X113518320Y-118112683D01*
X113383602Y-118314303D01*
X113290807Y-118538331D01*
X113243500Y-118776157D01*
X113243500Y-119018643D01*
X113290807Y-119256469D01*
X113321913Y-119331566D01*
X112952734Y-119700746D01*
X112933351Y-119716653D01*
X112869870Y-119794006D01*
X112822698Y-119882259D01*
X112793650Y-119978017D01*
X112788922Y-120026027D01*
X112783842Y-120077601D01*
X112786299Y-120102545D01*
X112786299Y-120188382D01*
X111360765Y-120189555D01*
X111500334Y-120049987D01*
X111575431Y-120081093D01*
X111813257Y-120128400D01*
X112055743Y-120128400D01*
X112293569Y-120081093D01*
X112517597Y-119988298D01*
X112719217Y-119853580D01*
X112890680Y-119682117D01*
X113025398Y-119480497D01*
X113118193Y-119256469D01*
X113165500Y-119018643D01*
X113165500Y-118776157D01*
X113118193Y-118538331D01*
X113025398Y-118314303D01*
X112890680Y-118112683D01*
X112719217Y-117941220D01*
X112517597Y-117806502D01*
X112293569Y-117713707D01*
X112055743Y-117666400D01*
X111813257Y-117666400D01*
X111575431Y-117713707D01*
X111351403Y-117806502D01*
X111149783Y-117941220D01*
X110978320Y-118112683D01*
X110843602Y-118314303D01*
X110750807Y-118538331D01*
X110703500Y-118776157D01*
X110703500Y-119018643D01*
X110750807Y-119256469D01*
X110781913Y-119331566D01*
X110412734Y-119700746D01*
X110393351Y-119716653D01*
X110329870Y-119794006D01*
X110282698Y-119882259D01*
X110253650Y-119978017D01*
X110248922Y-120026027D01*
X110243842Y-120077601D01*
X110246299Y-120102545D01*
X110246299Y-120190472D01*
X107721000Y-120192549D01*
X107721000Y-119214381D01*
X108205005Y-119214381D01*
X108289701Y-119440349D01*
X108416853Y-119645452D01*
X108581576Y-119821808D01*
X108777539Y-119962639D01*
X108997212Y-120062534D01*
X109077520Y-120086889D01*
X109267500Y-120026027D01*
X109267500Y-119024400D01*
X109521500Y-119024400D01*
X109521500Y-120026027D01*
X109711480Y-120086889D01*
X109791788Y-120062534D01*
X110011461Y-119962639D01*
X110207424Y-119821808D01*
X110372147Y-119645452D01*
X110499299Y-119440349D01*
X110583995Y-119214381D01*
X110523687Y-119024400D01*
X109521500Y-119024400D01*
X109267500Y-119024400D01*
X108265313Y-119024400D01*
X108205005Y-119214381D01*
X107721000Y-119214381D01*
X107721000Y-118580419D01*
X108205005Y-118580419D01*
X108265313Y-118770400D01*
X109267500Y-118770400D01*
X109267500Y-117768773D01*
X109521500Y-117768773D01*
X109521500Y-118770400D01*
X110523687Y-118770400D01*
X110583995Y-118580419D01*
X110499299Y-118354451D01*
X110372147Y-118149348D01*
X110207424Y-117972992D01*
X110011461Y-117832161D01*
X109791788Y-117732266D01*
X109711480Y-117707911D01*
X109521500Y-117768773D01*
X109267500Y-117768773D01*
X109077520Y-117707911D01*
X108997212Y-117732266D01*
X108777539Y-117832161D01*
X108581576Y-117972992D01*
X108416853Y-118149348D01*
X108289701Y-118354451D01*
X108205005Y-118580419D01*
X107721000Y-118580419D01*
X107721000Y-115392200D01*
X199923400Y-115392200D01*
X199923400Y-120116704D01*
%TA.AperFunction,Conductor*%
D20*
G36*
X199923400Y-120116704D02*
G01*
X199229691Y-120117275D01*
X199283008Y-120101101D01*
X199349196Y-120065722D01*
X199407211Y-120018111D01*
X199454822Y-119960096D01*
X199490201Y-119893908D01*
X199511987Y-119822089D01*
X199519343Y-119747400D01*
X199517500Y-119119650D01*
X199422250Y-119024400D01*
X198413500Y-119024400D01*
X198413500Y-119044400D01*
X198159500Y-119044400D01*
X198159500Y-119024400D01*
X197150750Y-119024400D01*
X197055500Y-119119650D01*
X197053657Y-119747400D01*
X197061013Y-119822089D01*
X197082799Y-119893908D01*
X197118178Y-119960096D01*
X197165789Y-120018111D01*
X197223804Y-120065722D01*
X197289992Y-120101101D01*
X197348411Y-120118822D01*
X195909945Y-120120005D01*
X196105569Y-120081093D01*
X196329597Y-119988298D01*
X196531217Y-119853580D01*
X196702680Y-119682117D01*
X196837398Y-119480497D01*
X196930193Y-119256469D01*
X196977500Y-119018643D01*
X196977500Y-118776157D01*
X196930193Y-118538331D01*
X196837398Y-118314303D01*
X196702680Y-118112683D01*
X196637397Y-118047400D01*
X197053657Y-118047400D01*
X197055500Y-118675150D01*
X197150750Y-118770400D01*
X198159500Y-118770400D01*
X198159500Y-117761650D01*
X198413500Y-117761650D01*
X198413500Y-118770400D01*
X199422250Y-118770400D01*
X199517500Y-118675150D01*
X199519343Y-118047400D01*
X199511987Y-117972711D01*
X199490201Y-117900892D01*
X199454822Y-117834704D01*
X199407211Y-117776689D01*
X199349196Y-117729078D01*
X199283008Y-117693699D01*
X199211189Y-117671913D01*
X199136500Y-117664557D01*
X198508750Y-117666400D01*
X198413500Y-117761650D01*
X198159500Y-117761650D01*
X198064250Y-117666400D01*
X197436500Y-117664557D01*
X197361811Y-117671913D01*
X197289992Y-117693699D01*
X197223804Y-117729078D01*
X197165789Y-117776689D01*
X197118178Y-117834704D01*
X197082799Y-117900892D01*
X197061013Y-117972711D01*
X197053657Y-118047400D01*
X196637397Y-118047400D01*
X196531217Y-117941220D01*
X196329597Y-117806502D01*
X196105569Y-117713707D01*
X195867743Y-117666400D01*
X195625257Y-117666400D01*
X195387431Y-117713707D01*
X195163403Y-117806502D01*
X194961783Y-117941220D01*
X194790320Y-118112683D01*
X194655602Y-118314303D01*
X194562807Y-118538331D01*
X194515500Y-118776157D01*
X194515500Y-119018643D01*
X194562807Y-119256469D01*
X194655602Y-119480497D01*
X194790320Y-119682117D01*
X194961783Y-119853580D01*
X195163403Y-119988298D01*
X195387431Y-120081093D01*
X195584401Y-120120273D01*
X193359397Y-120122104D01*
X193565569Y-120081093D01*
X193789597Y-119988298D01*
X193991217Y-119853580D01*
X194162680Y-119682117D01*
X194297398Y-119480497D01*
X194390193Y-119256469D01*
X194437500Y-119018643D01*
X194437500Y-118776157D01*
X194390193Y-118538331D01*
X194297398Y-118314303D01*
X194162680Y-118112683D01*
X193991217Y-117941220D01*
X193789597Y-117806502D01*
X193565569Y-117713707D01*
X193327743Y-117666400D01*
X193085257Y-117666400D01*
X192847431Y-117713707D01*
X192623403Y-117806502D01*
X192421783Y-117941220D01*
X192250320Y-118112683D01*
X192115602Y-118314303D01*
X192022807Y-118538331D01*
X191975500Y-118776157D01*
X191975500Y-119018643D01*
X192022807Y-119256469D01*
X192115602Y-119480497D01*
X192250320Y-119682117D01*
X192421783Y-119853580D01*
X192623403Y-119988298D01*
X192847431Y-120081093D01*
X193054862Y-120122354D01*
X190808850Y-120124202D01*
X191025569Y-120081093D01*
X191249597Y-119988298D01*
X191451217Y-119853580D01*
X191622680Y-119682117D01*
X191757398Y-119480497D01*
X191850193Y-119256469D01*
X191897500Y-119018643D01*
X191897500Y-118776157D01*
X191850193Y-118538331D01*
X191757398Y-118314303D01*
X191622680Y-118112683D01*
X191451217Y-117941220D01*
X191249597Y-117806502D01*
X191025569Y-117713707D01*
X190787743Y-117666400D01*
X190545257Y-117666400D01*
X190307431Y-117713707D01*
X190083403Y-117806502D01*
X189881783Y-117941220D01*
X189710320Y-118112683D01*
X189575602Y-118314303D01*
X189482807Y-118538331D01*
X189435500Y-118776157D01*
X189435500Y-119018643D01*
X189482807Y-119256469D01*
X189575602Y-119480497D01*
X189710320Y-119682117D01*
X189881783Y-119853580D01*
X190083403Y-119988298D01*
X190307431Y-120081093D01*
X190525323Y-120124435D01*
X183927366Y-120129862D01*
X183998189Y-120122887D01*
X184070008Y-120101101D01*
X184136196Y-120065722D01*
X184194211Y-120018111D01*
X184241822Y-119960096D01*
X184277201Y-119893908D01*
X184298987Y-119822089D01*
X184306343Y-119747400D01*
X184306343Y-118047400D01*
X184298987Y-117972711D01*
X184277201Y-117900892D01*
X184241822Y-117834704D01*
X184194211Y-117776689D01*
X184136196Y-117729078D01*
X184070008Y-117693699D01*
X183998189Y-117671913D01*
X183923500Y-117664557D01*
X182223500Y-117664557D01*
X182148811Y-117671913D01*
X182076992Y-117693699D01*
X182010804Y-117729078D01*
X181952789Y-117776689D01*
X181905178Y-117834704D01*
X181869799Y-117900892D01*
X181848013Y-117972711D01*
X181840657Y-118047400D01*
X181840657Y-119411823D01*
X181551734Y-119700746D01*
X181532351Y-119716653D01*
X181468870Y-119794006D01*
X181421698Y-119882259D01*
X181392650Y-119978017D01*
X181387922Y-120026027D01*
X181382842Y-120077601D01*
X181385299Y-120102545D01*
X181385299Y-120131953D01*
X180016241Y-120133079D01*
X180099334Y-120049987D01*
X180174431Y-120081093D01*
X180412257Y-120128400D01*
X180654743Y-120128400D01*
X180892569Y-120081093D01*
X181116597Y-119988298D01*
X181318217Y-119853580D01*
X181489680Y-119682117D01*
X181624398Y-119480497D01*
X181717193Y-119256469D01*
X181764500Y-119018643D01*
X181764500Y-118776157D01*
X181717193Y-118538331D01*
X181624398Y-118314303D01*
X181489680Y-118112683D01*
X181318217Y-117941220D01*
X181116597Y-117806502D01*
X180892569Y-117713707D01*
X180654743Y-117666400D01*
X180412257Y-117666400D01*
X180174431Y-117713707D01*
X179950403Y-117806502D01*
X179748783Y-117941220D01*
X179577320Y-118112683D01*
X179442602Y-118314303D01*
X179349807Y-118538331D01*
X179302500Y-118776157D01*
X179302500Y-119018643D01*
X179349807Y-119256469D01*
X179380913Y-119331566D01*
X179011734Y-119700746D01*
X178992351Y-119716653D01*
X178928870Y-119794006D01*
X178881698Y-119882259D01*
X178852650Y-119978017D01*
X178847922Y-120026027D01*
X178842842Y-120077601D01*
X178845299Y-120102545D01*
X178845299Y-120134043D01*
X177474150Y-120135171D01*
X177559334Y-120049987D01*
X177634431Y-120081093D01*
X177872257Y-120128400D01*
X178114743Y-120128400D01*
X178352569Y-120081093D01*
X178576597Y-119988298D01*
X178778217Y-119853580D01*
X178949680Y-119682117D01*
X179084398Y-119480497D01*
X179177193Y-119256469D01*
X179224500Y-119018643D01*
X179224500Y-118776157D01*
X179177193Y-118538331D01*
X179084398Y-118314303D01*
X178949680Y-118112683D01*
X178778217Y-117941220D01*
X178576597Y-117806502D01*
X178352569Y-117713707D01*
X178114743Y-117666400D01*
X177872257Y-117666400D01*
X177634431Y-117713707D01*
X177410403Y-117806502D01*
X177208783Y-117941220D01*
X177037320Y-118112683D01*
X176902602Y-118314303D01*
X176809807Y-118538331D01*
X176762500Y-118776157D01*
X176762500Y-119018643D01*
X176809807Y-119256469D01*
X176840913Y-119331566D01*
X176471734Y-119700746D01*
X176452351Y-119716653D01*
X176388870Y-119794006D01*
X176341698Y-119882259D01*
X176312650Y-119978017D01*
X176307922Y-120026027D01*
X176302842Y-120077601D01*
X176305299Y-120102545D01*
X176305299Y-120136132D01*
X174932059Y-120137262D01*
X175019334Y-120049987D01*
X175094431Y-120081093D01*
X175332257Y-120128400D01*
X175574743Y-120128400D01*
X175812569Y-120081093D01*
X176036597Y-119988298D01*
X176238217Y-119853580D01*
X176409680Y-119682117D01*
X176544398Y-119480497D01*
X176637193Y-119256469D01*
X176684500Y-119018643D01*
X176684500Y-118776157D01*
X176637193Y-118538331D01*
X176544398Y-118314303D01*
X176409680Y-118112683D01*
X176238217Y-117941220D01*
X176036597Y-117806502D01*
X175812569Y-117713707D01*
X175574743Y-117666400D01*
X175332257Y-117666400D01*
X175094431Y-117713707D01*
X174870403Y-117806502D01*
X174668783Y-117941220D01*
X174497320Y-118112683D01*
X174362602Y-118314303D01*
X174269807Y-118538331D01*
X174222500Y-118776157D01*
X174222500Y-119018643D01*
X174269807Y-119256469D01*
X174300913Y-119331566D01*
X173931734Y-119700746D01*
X173912351Y-119716653D01*
X173848870Y-119794006D01*
X173801698Y-119882259D01*
X173772650Y-119978017D01*
X173767922Y-120026027D01*
X173762842Y-120077601D01*
X173765299Y-120102545D01*
X173765299Y-120138221D01*
X162282153Y-120147667D01*
X162379834Y-120049987D01*
X162454931Y-120081093D01*
X162692757Y-120128400D01*
X162935243Y-120128400D01*
X163173069Y-120081093D01*
X163397097Y-119988298D01*
X163598717Y-119853580D01*
X163704897Y-119747400D01*
X164121157Y-119747400D01*
X164128513Y-119822089D01*
X164150299Y-119893908D01*
X164185678Y-119960096D01*
X164233289Y-120018111D01*
X164291304Y-120065722D01*
X164357492Y-120101101D01*
X164429311Y-120122887D01*
X164504000Y-120130243D01*
X165131750Y-120128400D01*
X165227000Y-120033150D01*
X165227000Y-119024400D01*
X165481000Y-119024400D01*
X165481000Y-120033150D01*
X165576250Y-120128400D01*
X166204000Y-120130243D01*
X166278689Y-120122887D01*
X166350508Y-120101101D01*
X166416696Y-120065722D01*
X166474711Y-120018111D01*
X166522322Y-119960096D01*
X166557701Y-119893908D01*
X166579487Y-119822089D01*
X166586843Y-119747400D01*
X166585279Y-119214381D01*
X171724005Y-119214381D01*
X171808701Y-119440349D01*
X171935853Y-119645452D01*
X172100576Y-119821808D01*
X172296539Y-119962639D01*
X172516212Y-120062534D01*
X172596520Y-120086889D01*
X172786500Y-120026027D01*
X172786500Y-119024400D01*
X173040500Y-119024400D01*
X173040500Y-120026027D01*
X173230480Y-120086889D01*
X173310788Y-120062534D01*
X173530461Y-119962639D01*
X173726424Y-119821808D01*
X173891147Y-119645452D01*
X174018299Y-119440349D01*
X174102995Y-119214381D01*
X174042687Y-119024400D01*
X173040500Y-119024400D01*
X172786500Y-119024400D01*
X171784313Y-119024400D01*
X171724005Y-119214381D01*
X166585279Y-119214381D01*
X166585000Y-119119650D01*
X166489750Y-119024400D01*
X165481000Y-119024400D01*
X165227000Y-119024400D01*
X164218250Y-119024400D01*
X164123000Y-119119650D01*
X164121157Y-119747400D01*
X163704897Y-119747400D01*
X163770180Y-119682117D01*
X163904898Y-119480497D01*
X163997693Y-119256469D01*
X164045000Y-119018643D01*
X164045000Y-118776157D01*
X163997693Y-118538331D01*
X163904898Y-118314303D01*
X163770180Y-118112683D01*
X163704897Y-118047400D01*
X164121157Y-118047400D01*
X164123000Y-118675150D01*
X164218250Y-118770400D01*
X165227000Y-118770400D01*
X165227000Y-117761650D01*
X165481000Y-117761650D01*
X165481000Y-118770400D01*
X166489750Y-118770400D01*
X166585000Y-118675150D01*
X166585278Y-118580419D01*
X171724005Y-118580419D01*
X171784313Y-118770400D01*
X172786500Y-118770400D01*
X172786500Y-117768773D01*
X173040500Y-117768773D01*
X173040500Y-118770400D01*
X174042687Y-118770400D01*
X174102995Y-118580419D01*
X174018299Y-118354451D01*
X173891147Y-118149348D01*
X173726424Y-117972992D01*
X173530461Y-117832161D01*
X173310788Y-117732266D01*
X173230480Y-117707911D01*
X173040500Y-117768773D01*
X172786500Y-117768773D01*
X172596520Y-117707911D01*
X172516212Y-117732266D01*
X172296539Y-117832161D01*
X172100576Y-117972992D01*
X171935853Y-118149348D01*
X171808701Y-118354451D01*
X171724005Y-118580419D01*
X166585278Y-118580419D01*
X166586843Y-118047400D01*
X166579487Y-117972711D01*
X166557701Y-117900892D01*
X166522322Y-117834704D01*
X166474711Y-117776689D01*
X166416696Y-117729078D01*
X166350508Y-117693699D01*
X166278689Y-117671913D01*
X166204000Y-117664557D01*
X165576250Y-117666400D01*
X165481000Y-117761650D01*
X165227000Y-117761650D01*
X165131750Y-117666400D01*
X164504000Y-117664557D01*
X164429311Y-117671913D01*
X164357492Y-117693699D01*
X164291304Y-117729078D01*
X164233289Y-117776689D01*
X164185678Y-117834704D01*
X164150299Y-117900892D01*
X164128513Y-117972711D01*
X164121157Y-118047400D01*
X163704897Y-118047400D01*
X163598717Y-117941220D01*
X163397097Y-117806502D01*
X163173069Y-117713707D01*
X162935243Y-117666400D01*
X162692757Y-117666400D01*
X162454931Y-117713707D01*
X162230903Y-117806502D01*
X162029283Y-117941220D01*
X161857820Y-118112683D01*
X161723102Y-118314303D01*
X161630307Y-118538331D01*
X161583000Y-118776157D01*
X161583000Y-119018643D01*
X161630307Y-119256469D01*
X161661413Y-119331566D01*
X161292234Y-119700746D01*
X161272851Y-119716653D01*
X161209370Y-119794006D01*
X161162198Y-119882259D01*
X161133150Y-119978017D01*
X161128422Y-120026027D01*
X161123342Y-120077601D01*
X161125799Y-120102545D01*
X161125799Y-120148619D01*
X159740062Y-120149759D01*
X159839834Y-120049987D01*
X159914931Y-120081093D01*
X160152757Y-120128400D01*
X160395243Y-120128400D01*
X160633069Y-120081093D01*
X160857097Y-119988298D01*
X161058717Y-119853580D01*
X161230180Y-119682117D01*
X161364898Y-119480497D01*
X161457693Y-119256469D01*
X161505000Y-119018643D01*
X161505000Y-118776157D01*
X161457693Y-118538331D01*
X161364898Y-118314303D01*
X161230180Y-118112683D01*
X161058717Y-117941220D01*
X160857097Y-117806502D01*
X160633069Y-117713707D01*
X160395243Y-117666400D01*
X160152757Y-117666400D01*
X159914931Y-117713707D01*
X159690903Y-117806502D01*
X159489283Y-117941220D01*
X159317820Y-118112683D01*
X159183102Y-118314303D01*
X159090307Y-118538331D01*
X159043000Y-118776157D01*
X159043000Y-119018643D01*
X159090307Y-119256469D01*
X159121413Y-119331566D01*
X158752234Y-119700746D01*
X158732851Y-119716653D01*
X158669370Y-119794006D01*
X158622198Y-119882259D01*
X158593150Y-119978017D01*
X158588422Y-120026027D01*
X158583342Y-120077601D01*
X158585799Y-120102545D01*
X158585799Y-120150708D01*
X157197971Y-120151850D01*
X157299834Y-120049987D01*
X157374931Y-120081093D01*
X157612757Y-120128400D01*
X157855243Y-120128400D01*
X158093069Y-120081093D01*
X158317097Y-119988298D01*
X158518717Y-119853580D01*
X158690180Y-119682117D01*
X158824898Y-119480497D01*
X158917693Y-119256469D01*
X158965000Y-119018643D01*
X158965000Y-118776157D01*
X158917693Y-118538331D01*
X158824898Y-118314303D01*
X158690180Y-118112683D01*
X158518717Y-117941220D01*
X158317097Y-117806502D01*
X158093069Y-117713707D01*
X157855243Y-117666400D01*
X157612757Y-117666400D01*
X157374931Y-117713707D01*
X157150903Y-117806502D01*
X156949283Y-117941220D01*
X156777820Y-118112683D01*
X156643102Y-118314303D01*
X156550307Y-118538331D01*
X156503000Y-118776157D01*
X156503000Y-119018643D01*
X156550307Y-119256469D01*
X156581413Y-119331566D01*
X156212234Y-119700746D01*
X156192851Y-119716653D01*
X156129370Y-119794006D01*
X156082198Y-119882259D01*
X156053150Y-119978017D01*
X156048422Y-120026027D01*
X156043342Y-120077601D01*
X156045799Y-120102545D01*
X156045799Y-120152797D01*
X154655880Y-120153941D01*
X154759834Y-120049987D01*
X154834931Y-120081093D01*
X155072757Y-120128400D01*
X155315243Y-120128400D01*
X155553069Y-120081093D01*
X155777097Y-119988298D01*
X155978717Y-119853580D01*
X156150180Y-119682117D01*
X156284898Y-119480497D01*
X156377693Y-119256469D01*
X156425000Y-119018643D01*
X156425000Y-118776157D01*
X156377693Y-118538331D01*
X156284898Y-118314303D01*
X156150180Y-118112683D01*
X155978717Y-117941220D01*
X155777097Y-117806502D01*
X155553069Y-117713707D01*
X155315243Y-117666400D01*
X155072757Y-117666400D01*
X154834931Y-117713707D01*
X154610903Y-117806502D01*
X154409283Y-117941220D01*
X154237820Y-118112683D01*
X154103102Y-118314303D01*
X154010307Y-118538331D01*
X153963000Y-118776157D01*
X153963000Y-119018643D01*
X154010307Y-119256469D01*
X154041413Y-119331566D01*
X153672234Y-119700746D01*
X153652851Y-119716653D01*
X153589370Y-119794006D01*
X153542198Y-119882259D01*
X153513150Y-119978017D01*
X153508422Y-120026027D01*
X153503342Y-120077601D01*
X153505799Y-120102545D01*
X153505799Y-120154887D01*
X149571698Y-120158123D01*
X149679834Y-120049987D01*
X149754931Y-120081093D01*
X149992757Y-120128400D01*
X150235243Y-120128400D01*
X150473069Y-120081093D01*
X150697097Y-119988298D01*
X150898717Y-119853580D01*
X151070180Y-119682117D01*
X151204898Y-119480497D01*
X151297693Y-119256469D01*
X151306064Y-119214381D01*
X151464505Y-119214381D01*
X151549201Y-119440349D01*
X151676353Y-119645452D01*
X151841076Y-119821808D01*
X152037039Y-119962639D01*
X152256712Y-120062534D01*
X152337020Y-120086889D01*
X152527000Y-120026027D01*
X152527000Y-119024400D01*
X152781000Y-119024400D01*
X152781000Y-120026027D01*
X152970980Y-120086889D01*
X153051288Y-120062534D01*
X153270961Y-119962639D01*
X153466924Y-119821808D01*
X153631647Y-119645452D01*
X153758799Y-119440349D01*
X153843495Y-119214381D01*
X153783187Y-119024400D01*
X152781000Y-119024400D01*
X152527000Y-119024400D01*
X151524813Y-119024400D01*
X151464505Y-119214381D01*
X151306064Y-119214381D01*
X151345000Y-119018643D01*
X151345000Y-118776157D01*
X151306065Y-118580419D01*
X151464505Y-118580419D01*
X151524813Y-118770400D01*
X152527000Y-118770400D01*
X152527000Y-117768773D01*
X152781000Y-117768773D01*
X152781000Y-118770400D01*
X153783187Y-118770400D01*
X153843495Y-118580419D01*
X153758799Y-118354451D01*
X153631647Y-118149348D01*
X153466924Y-117972992D01*
X153270961Y-117832161D01*
X153051288Y-117732266D01*
X152970980Y-117707911D01*
X152781000Y-117768773D01*
X152527000Y-117768773D01*
X152337020Y-117707911D01*
X152256712Y-117732266D01*
X152037039Y-117832161D01*
X151841076Y-117972992D01*
X151676353Y-118149348D01*
X151549201Y-118354451D01*
X151464505Y-118580419D01*
X151306065Y-118580419D01*
X151297693Y-118538331D01*
X151204898Y-118314303D01*
X151070180Y-118112683D01*
X150898717Y-117941220D01*
X150697097Y-117806502D01*
X150473069Y-117713707D01*
X150235243Y-117666400D01*
X149992757Y-117666400D01*
X149754931Y-117713707D01*
X149530903Y-117806502D01*
X149329283Y-117941220D01*
X149157820Y-118112683D01*
X149023102Y-118314303D01*
X148930307Y-118538331D01*
X148883000Y-118776157D01*
X148883000Y-119018643D01*
X148930307Y-119256469D01*
X148961413Y-119331566D01*
X148592234Y-119700746D01*
X148572851Y-119716653D01*
X148509370Y-119794006D01*
X148462198Y-119882259D01*
X148433150Y-119978017D01*
X148428422Y-120026027D01*
X148423342Y-120077601D01*
X148425799Y-120102545D01*
X148425799Y-120159066D01*
X147029606Y-120160214D01*
X147139834Y-120049987D01*
X147214931Y-120081093D01*
X147452757Y-120128400D01*
X147695243Y-120128400D01*
X147933069Y-120081093D01*
X148157097Y-119988298D01*
X148358717Y-119853580D01*
X148530180Y-119682117D01*
X148664898Y-119480497D01*
X148757693Y-119256469D01*
X148805000Y-119018643D01*
X148805000Y-118776157D01*
X148757693Y-118538331D01*
X148664898Y-118314303D01*
X148530180Y-118112683D01*
X148358717Y-117941220D01*
X148157097Y-117806502D01*
X147933069Y-117713707D01*
X147695243Y-117666400D01*
X147452757Y-117666400D01*
X147214931Y-117713707D01*
X146990903Y-117806502D01*
X146789283Y-117941220D01*
X146617820Y-118112683D01*
X146483102Y-118314303D01*
X146390307Y-118538331D01*
X146343000Y-118776157D01*
X146343000Y-119018643D01*
X146390307Y-119256469D01*
X146421413Y-119331566D01*
X146052234Y-119700746D01*
X146032851Y-119716653D01*
X145969370Y-119794006D01*
X145922198Y-119882259D01*
X145893150Y-119978017D01*
X145888422Y-120026027D01*
X145883342Y-120077601D01*
X145885799Y-120102545D01*
X145885799Y-120161155D01*
X144487515Y-120162305D01*
X144599834Y-120049987D01*
X144674931Y-120081093D01*
X144912757Y-120128400D01*
X145155243Y-120128400D01*
X145393069Y-120081093D01*
X145617097Y-119988298D01*
X145818717Y-119853580D01*
X145990180Y-119682117D01*
X146124898Y-119480497D01*
X146217693Y-119256469D01*
X146265000Y-119018643D01*
X146265000Y-118776157D01*
X146217693Y-118538331D01*
X146124898Y-118314303D01*
X145990180Y-118112683D01*
X145818717Y-117941220D01*
X145617097Y-117806502D01*
X145393069Y-117713707D01*
X145155243Y-117666400D01*
X144912757Y-117666400D01*
X144674931Y-117713707D01*
X144450903Y-117806502D01*
X144249283Y-117941220D01*
X144077820Y-118112683D01*
X143943102Y-118314303D01*
X143850307Y-118538331D01*
X143803000Y-118776157D01*
X143803000Y-119018643D01*
X143850307Y-119256469D01*
X143881413Y-119331566D01*
X143512234Y-119700746D01*
X143492851Y-119716653D01*
X143429370Y-119794006D01*
X143382198Y-119882259D01*
X143353150Y-119978017D01*
X143348422Y-120026027D01*
X143343342Y-120077601D01*
X143345799Y-120102545D01*
X143345799Y-120163244D01*
X141945424Y-120164396D01*
X142059834Y-120049987D01*
X142134931Y-120081093D01*
X142372757Y-120128400D01*
X142615243Y-120128400D01*
X142853069Y-120081093D01*
X143077097Y-119988298D01*
X143278717Y-119853580D01*
X143450180Y-119682117D01*
X143584898Y-119480497D01*
X143677693Y-119256469D01*
X143725000Y-119018643D01*
X143725000Y-118776157D01*
X143677693Y-118538331D01*
X143584898Y-118314303D01*
X143450180Y-118112683D01*
X143278717Y-117941220D01*
X143077097Y-117806502D01*
X142853069Y-117713707D01*
X142615243Y-117666400D01*
X142372757Y-117666400D01*
X142134931Y-117713707D01*
X141910903Y-117806502D01*
X141709283Y-117941220D01*
X141537820Y-118112683D01*
X141403102Y-118314303D01*
X141310307Y-118538331D01*
X141263000Y-118776157D01*
X141263000Y-119018643D01*
X141310307Y-119256469D01*
X141341413Y-119331566D01*
X140972234Y-119700746D01*
X140952851Y-119716653D01*
X140889370Y-119794006D01*
X140842198Y-119882259D01*
X140813150Y-119978017D01*
X140808422Y-120026027D01*
X140803342Y-120077601D01*
X140805799Y-120102545D01*
X140805799Y-120165334D01*
X136861242Y-120168579D01*
X136979834Y-120049987D01*
X137054931Y-120081093D01*
X137292757Y-120128400D01*
X137535243Y-120128400D01*
X137773069Y-120081093D01*
X137997097Y-119988298D01*
X138198717Y-119853580D01*
X138370180Y-119682117D01*
X138504898Y-119480497D01*
X138597693Y-119256469D01*
X138606064Y-119214381D01*
X138764505Y-119214381D01*
X138849201Y-119440349D01*
X138976353Y-119645452D01*
X139141076Y-119821808D01*
X139337039Y-119962639D01*
X139556712Y-120062534D01*
X139637020Y-120086889D01*
X139827000Y-120026027D01*
X139827000Y-119024400D01*
X140081000Y-119024400D01*
X140081000Y-120026027D01*
X140270980Y-120086889D01*
X140351288Y-120062534D01*
X140570961Y-119962639D01*
X140766924Y-119821808D01*
X140931647Y-119645452D01*
X141058799Y-119440349D01*
X141143495Y-119214381D01*
X141083187Y-119024400D01*
X140081000Y-119024400D01*
X139827000Y-119024400D01*
X138824813Y-119024400D01*
X138764505Y-119214381D01*
X138606064Y-119214381D01*
X138645000Y-119018643D01*
X138645000Y-118776157D01*
X138606065Y-118580419D01*
X138764505Y-118580419D01*
X138824813Y-118770400D01*
X139827000Y-118770400D01*
X139827000Y-117768773D01*
X140081000Y-117768773D01*
X140081000Y-118770400D01*
X141083187Y-118770400D01*
X141143495Y-118580419D01*
X141058799Y-118354451D01*
X140931647Y-118149348D01*
X140766924Y-117972992D01*
X140570961Y-117832161D01*
X140351288Y-117732266D01*
X140270980Y-117707911D01*
X140081000Y-117768773D01*
X139827000Y-117768773D01*
X139637020Y-117707911D01*
X139556712Y-117732266D01*
X139337039Y-117832161D01*
X139141076Y-117972992D01*
X138976353Y-118149348D01*
X138849201Y-118354451D01*
X138764505Y-118580419D01*
X138606065Y-118580419D01*
X138597693Y-118538331D01*
X138504898Y-118314303D01*
X138370180Y-118112683D01*
X138198717Y-117941220D01*
X137997097Y-117806502D01*
X137773069Y-117713707D01*
X137535243Y-117666400D01*
X137292757Y-117666400D01*
X137054931Y-117713707D01*
X136830903Y-117806502D01*
X136629283Y-117941220D01*
X136457820Y-118112683D01*
X136323102Y-118314303D01*
X136230307Y-118538331D01*
X136183000Y-118776157D01*
X136183000Y-119018643D01*
X136230307Y-119256469D01*
X136261413Y-119331566D01*
X135892234Y-119700746D01*
X135872851Y-119716653D01*
X135809370Y-119794006D01*
X135762198Y-119882259D01*
X135733150Y-119978017D01*
X135728422Y-120026027D01*
X135723342Y-120077601D01*
X135725799Y-120102545D01*
X135725799Y-120169513D01*
X134319151Y-120170670D01*
X134439834Y-120049987D01*
X134514931Y-120081093D01*
X134752757Y-120128400D01*
X134995243Y-120128400D01*
X135233069Y-120081093D01*
X135457097Y-119988298D01*
X135658717Y-119853580D01*
X135830180Y-119682117D01*
X135964898Y-119480497D01*
X136057693Y-119256469D01*
X136105000Y-119018643D01*
X136105000Y-118776157D01*
X136057693Y-118538331D01*
X135964898Y-118314303D01*
X135830180Y-118112683D01*
X135658717Y-117941220D01*
X135457097Y-117806502D01*
X135233069Y-117713707D01*
X134995243Y-117666400D01*
X134752757Y-117666400D01*
X134514931Y-117713707D01*
X134290903Y-117806502D01*
X134089283Y-117941220D01*
X133917820Y-118112683D01*
X133783102Y-118314303D01*
X133690307Y-118538331D01*
X133643000Y-118776157D01*
X133643000Y-119018643D01*
X133690307Y-119256469D01*
X133721413Y-119331566D01*
X133352234Y-119700746D01*
X133332851Y-119716653D01*
X133269370Y-119794006D01*
X133222198Y-119882259D01*
X133193150Y-119978017D01*
X133188422Y-120026027D01*
X133183342Y-120077601D01*
X133185799Y-120102545D01*
X133185799Y-120171602D01*
X131777060Y-120172761D01*
X131899834Y-120049987D01*
X131974931Y-120081093D01*
X132212757Y-120128400D01*
X132455243Y-120128400D01*
X132693069Y-120081093D01*
X132917097Y-119988298D01*
X133118717Y-119853580D01*
X133290180Y-119682117D01*
X133424898Y-119480497D01*
X133517693Y-119256469D01*
X133565000Y-119018643D01*
X133565000Y-118776157D01*
X133517693Y-118538331D01*
X133424898Y-118314303D01*
X133290180Y-118112683D01*
X133118717Y-117941220D01*
X132917097Y-117806502D01*
X132693069Y-117713707D01*
X132455243Y-117666400D01*
X132212757Y-117666400D01*
X131974931Y-117713707D01*
X131750903Y-117806502D01*
X131549283Y-117941220D01*
X131377820Y-118112683D01*
X131243102Y-118314303D01*
X131150307Y-118538331D01*
X131103000Y-118776157D01*
X131103000Y-119018643D01*
X131150307Y-119256469D01*
X131181413Y-119331566D01*
X130812234Y-119700746D01*
X130792851Y-119716653D01*
X130729370Y-119794006D01*
X130682198Y-119882259D01*
X130653150Y-119978017D01*
X130648422Y-120026027D01*
X130643342Y-120077601D01*
X130645799Y-120102545D01*
X130645799Y-120173691D01*
X129234969Y-120174852D01*
X129359834Y-120049987D01*
X129434931Y-120081093D01*
X129672757Y-120128400D01*
X129915243Y-120128400D01*
X130153069Y-120081093D01*
X130377097Y-119988298D01*
X130578717Y-119853580D01*
X130750180Y-119682117D01*
X130884898Y-119480497D01*
X130977693Y-119256469D01*
X131025000Y-119018643D01*
X131025000Y-118776157D01*
X130977693Y-118538331D01*
X130884898Y-118314303D01*
X130750180Y-118112683D01*
X130578717Y-117941220D01*
X130377097Y-117806502D01*
X130153069Y-117713707D01*
X129915243Y-117666400D01*
X129672757Y-117666400D01*
X129434931Y-117713707D01*
X129210903Y-117806502D01*
X129009283Y-117941220D01*
X128837820Y-118112683D01*
X128703102Y-118314303D01*
X128610307Y-118538331D01*
X128563000Y-118776157D01*
X128563000Y-119018643D01*
X128610307Y-119256469D01*
X128641413Y-119331566D01*
X128272234Y-119700746D01*
X128252851Y-119716653D01*
X128189370Y-119794006D01*
X128142198Y-119882259D01*
X128113150Y-119978017D01*
X128108422Y-120026027D01*
X128103342Y-120077601D01*
X128105799Y-120102545D01*
X128105799Y-120175781D01*
X118987038Y-120183282D01*
X119040077Y-120130243D01*
X120404500Y-120130243D01*
X120479189Y-120122887D01*
X120551008Y-120101101D01*
X120617196Y-120065722D01*
X120675211Y-120018111D01*
X120722822Y-119960096D01*
X120758201Y-119893908D01*
X120779987Y-119822089D01*
X120787343Y-119747400D01*
X120787343Y-119214381D01*
X126064505Y-119214381D01*
X126149201Y-119440349D01*
X126276353Y-119645452D01*
X126441076Y-119821808D01*
X126637039Y-119962639D01*
X126856712Y-120062534D01*
X126937020Y-120086889D01*
X127127000Y-120026027D01*
X127127000Y-119024400D01*
X127381000Y-119024400D01*
X127381000Y-120026027D01*
X127570980Y-120086889D01*
X127651288Y-120062534D01*
X127870961Y-119962639D01*
X128066924Y-119821808D01*
X128231647Y-119645452D01*
X128358799Y-119440349D01*
X128443495Y-119214381D01*
X128383187Y-119024400D01*
X127381000Y-119024400D01*
X127127000Y-119024400D01*
X126124813Y-119024400D01*
X126064505Y-119214381D01*
X120787343Y-119214381D01*
X120787343Y-118580419D01*
X126064505Y-118580419D01*
X126124813Y-118770400D01*
X127127000Y-118770400D01*
X127127000Y-117768773D01*
X127381000Y-117768773D01*
X127381000Y-118770400D01*
X128383187Y-118770400D01*
X128443495Y-118580419D01*
X128358799Y-118354451D01*
X128231647Y-118149348D01*
X128066924Y-117972992D01*
X127870961Y-117832161D01*
X127651288Y-117732266D01*
X127570980Y-117707911D01*
X127381000Y-117768773D01*
X127127000Y-117768773D01*
X126937020Y-117707911D01*
X126856712Y-117732266D01*
X126637039Y-117832161D01*
X126441076Y-117972992D01*
X126276353Y-118149348D01*
X126149201Y-118354451D01*
X126064505Y-118580419D01*
X120787343Y-118580419D01*
X120787343Y-118047400D01*
X120779987Y-117972711D01*
X120758201Y-117900892D01*
X120722822Y-117834704D01*
X120675211Y-117776689D01*
X120617196Y-117729078D01*
X120551008Y-117693699D01*
X120479189Y-117671913D01*
X120404500Y-117664557D01*
X118704500Y-117664557D01*
X118629811Y-117671913D01*
X118557992Y-117693699D01*
X118491804Y-117729078D01*
X118433789Y-117776689D01*
X118386178Y-117834704D01*
X118350799Y-117900892D01*
X118329013Y-117972711D01*
X118321657Y-118047400D01*
X118321657Y-119411823D01*
X118032734Y-119700746D01*
X118013351Y-119716653D01*
X117949870Y-119794006D01*
X117902698Y-119882259D01*
X117873650Y-119978017D01*
X117868922Y-120026027D01*
X117863842Y-120077601D01*
X117866299Y-120102545D01*
X117866299Y-120184204D01*
X116444948Y-120185373D01*
X116580334Y-120049987D01*
X116655431Y-120081093D01*
X116893257Y-120128400D01*
X117135743Y-120128400D01*
X117373569Y-120081093D01*
X117597597Y-119988298D01*
X117799217Y-119853580D01*
X117970680Y-119682117D01*
X118105398Y-119480497D01*
X118198193Y-119256469D01*
X118245500Y-119018643D01*
X118245500Y-118776157D01*
X118198193Y-118538331D01*
X118105398Y-118314303D01*
X117970680Y-118112683D01*
X117799217Y-117941220D01*
X117597597Y-117806502D01*
X117373569Y-117713707D01*
X117135743Y-117666400D01*
X116893257Y-117666400D01*
X116655431Y-117713707D01*
X116431403Y-117806502D01*
X116229783Y-117941220D01*
X116058320Y-118112683D01*
X115923602Y-118314303D01*
X115830807Y-118538331D01*
X115783500Y-118776157D01*
X115783500Y-119018643D01*
X115830807Y-119256469D01*
X115861913Y-119331566D01*
X115492734Y-119700746D01*
X115473351Y-119716653D01*
X115409870Y-119794006D01*
X115362698Y-119882259D01*
X115333650Y-119978017D01*
X115328922Y-120026027D01*
X115323842Y-120077601D01*
X115326299Y-120102545D01*
X115326299Y-120186293D01*
X113902857Y-120187464D01*
X114040334Y-120049987D01*
X114115431Y-120081093D01*
X114353257Y-120128400D01*
X114595743Y-120128400D01*
X114833569Y-120081093D01*
X115057597Y-119988298D01*
X115259217Y-119853580D01*
X115430680Y-119682117D01*
X115565398Y-119480497D01*
X115658193Y-119256469D01*
X115705500Y-119018643D01*
X115705500Y-118776157D01*
X115658193Y-118538331D01*
X115565398Y-118314303D01*
X115430680Y-118112683D01*
X115259217Y-117941220D01*
X115057597Y-117806502D01*
X114833569Y-117713707D01*
X114595743Y-117666400D01*
X114353257Y-117666400D01*
X114115431Y-117713707D01*
X113891403Y-117806502D01*
X113689783Y-117941220D01*
X113518320Y-118112683D01*
X113383602Y-118314303D01*
X113290807Y-118538331D01*
X113243500Y-118776157D01*
X113243500Y-119018643D01*
X113290807Y-119256469D01*
X113321913Y-119331566D01*
X112952734Y-119700746D01*
X112933351Y-119716653D01*
X112869870Y-119794006D01*
X112822698Y-119882259D01*
X112793650Y-119978017D01*
X112788922Y-120026027D01*
X112783842Y-120077601D01*
X112786299Y-120102545D01*
X112786299Y-120188382D01*
X111360765Y-120189555D01*
X111500334Y-120049987D01*
X111575431Y-120081093D01*
X111813257Y-120128400D01*
X112055743Y-120128400D01*
X112293569Y-120081093D01*
X112517597Y-119988298D01*
X112719217Y-119853580D01*
X112890680Y-119682117D01*
X113025398Y-119480497D01*
X113118193Y-119256469D01*
X113165500Y-119018643D01*
X113165500Y-118776157D01*
X113118193Y-118538331D01*
X113025398Y-118314303D01*
X112890680Y-118112683D01*
X112719217Y-117941220D01*
X112517597Y-117806502D01*
X112293569Y-117713707D01*
X112055743Y-117666400D01*
X111813257Y-117666400D01*
X111575431Y-117713707D01*
X111351403Y-117806502D01*
X111149783Y-117941220D01*
X110978320Y-118112683D01*
X110843602Y-118314303D01*
X110750807Y-118538331D01*
X110703500Y-118776157D01*
X110703500Y-119018643D01*
X110750807Y-119256469D01*
X110781913Y-119331566D01*
X110412734Y-119700746D01*
X110393351Y-119716653D01*
X110329870Y-119794006D01*
X110282698Y-119882259D01*
X110253650Y-119978017D01*
X110248922Y-120026027D01*
X110243842Y-120077601D01*
X110246299Y-120102545D01*
X110246299Y-120190472D01*
X107721000Y-120192549D01*
X107721000Y-119214381D01*
X108205005Y-119214381D01*
X108289701Y-119440349D01*
X108416853Y-119645452D01*
X108581576Y-119821808D01*
X108777539Y-119962639D01*
X108997212Y-120062534D01*
X109077520Y-120086889D01*
X109267500Y-120026027D01*
X109267500Y-119024400D01*
X109521500Y-119024400D01*
X109521500Y-120026027D01*
X109711480Y-120086889D01*
X109791788Y-120062534D01*
X110011461Y-119962639D01*
X110207424Y-119821808D01*
X110372147Y-119645452D01*
X110499299Y-119440349D01*
X110583995Y-119214381D01*
X110523687Y-119024400D01*
X109521500Y-119024400D01*
X109267500Y-119024400D01*
X108265313Y-119024400D01*
X108205005Y-119214381D01*
X107721000Y-119214381D01*
X107721000Y-118580419D01*
X108205005Y-118580419D01*
X108265313Y-118770400D01*
X109267500Y-118770400D01*
X109267500Y-117768773D01*
X109521500Y-117768773D01*
X109521500Y-118770400D01*
X110523687Y-118770400D01*
X110583995Y-118580419D01*
X110499299Y-118354451D01*
X110372147Y-118149348D01*
X110207424Y-117972992D01*
X110011461Y-117832161D01*
X109791788Y-117732266D01*
X109711480Y-117707911D01*
X109521500Y-117768773D01*
X109267500Y-117768773D01*
X109077520Y-117707911D01*
X108997212Y-117732266D01*
X108777539Y-117832161D01*
X108581576Y-117972992D01*
X108416853Y-118149348D01*
X108289701Y-118354451D01*
X108205005Y-118580419D01*
X107721000Y-118580419D01*
X107721000Y-115392200D01*
X199923400Y-115392200D01*
X199923400Y-120116704D01*
G37*
%TD.AperFunction*%
%TD*%
D19*
%TO.N,GND*%
X196723000Y-91665655D02*
X196623247Y-91504748D01*
X196458524Y-91328392D01*
X196262561Y-91187561D01*
X196042888Y-91087666D01*
X195962580Y-91063311D01*
X195772600Y-91124173D01*
X195772600Y-92125800D01*
X195792600Y-92125800D01*
X195792600Y-92379800D01*
X195772600Y-92379800D01*
X195772600Y-93381427D01*
X195962580Y-93442289D01*
X196042888Y-93417934D01*
X196262561Y-93318039D01*
X196458524Y-93177208D01*
X196623247Y-93000852D01*
X196723000Y-92839945D01*
X196723000Y-94205655D01*
X196623247Y-94044748D01*
X196458524Y-93868392D01*
X196262561Y-93727561D01*
X196042888Y-93627666D01*
X195962580Y-93603311D01*
X195772600Y-93664173D01*
X195772600Y-94665800D01*
X195792600Y-94665800D01*
X195792600Y-94919800D01*
X195772600Y-94919800D01*
X195772600Y-95921427D01*
X195962580Y-95982289D01*
X196042888Y-95957934D01*
X196262561Y-95858039D01*
X196458524Y-95717208D01*
X196623247Y-95540852D01*
X196723000Y-95379945D01*
X196723000Y-107442000D01*
X196725440Y-107466776D01*
X196732667Y-107490601D01*
X196744403Y-107512557D01*
X196760197Y-107531803D01*
X196779443Y-107547597D01*
X196801399Y-107559333D01*
X196825224Y-107566560D01*
X196850000Y-107569000D01*
X197201597Y-107569000D01*
X197157278Y-107623004D01*
X197121899Y-107689192D01*
X197100113Y-107761011D01*
X197092757Y-107835700D01*
X197094600Y-108565950D01*
X197189850Y-108661200D01*
X198348600Y-108661200D01*
X198348600Y-108641200D01*
X198602600Y-108641200D01*
X198602600Y-108661200D01*
X198622600Y-108661200D01*
X198622600Y-108915200D01*
X198602600Y-108915200D01*
X198602600Y-110026450D01*
X198697850Y-110121700D01*
X199475600Y-110123543D01*
X199517000Y-110119466D01*
X199517000Y-115138200D01*
X197231000Y-115138200D01*
X197231000Y-111760000D01*
X197228560Y-111735224D01*
X197221333Y-111711399D01*
X197209597Y-111689443D01*
X197193803Y-111670197D01*
X197174557Y-111654403D01*
X197152601Y-111642667D01*
X197128776Y-111635440D01*
X197104000Y-111633000D01*
X194689612Y-111633000D01*
X194668818Y-109740700D01*
X197092757Y-109740700D01*
X197100113Y-109815389D01*
X197121899Y-109887208D01*
X197157278Y-109953396D01*
X197204889Y-110011411D01*
X197262904Y-110059022D01*
X197329092Y-110094401D01*
X197400911Y-110116187D01*
X197475600Y-110123543D01*
X198253350Y-110121700D01*
X198348600Y-110026450D01*
X198348600Y-108915200D01*
X197189850Y-108915200D01*
X197094600Y-109010450D01*
X197092757Y-109740700D01*
X194668818Y-109740700D01*
X194509607Y-95252523D01*
X194540801Y-95335749D01*
X194667953Y-95540852D01*
X194832676Y-95717208D01*
X195028639Y-95858039D01*
X195248312Y-95957934D01*
X195328620Y-95982289D01*
X195518600Y-95921427D01*
X195518600Y-94919800D01*
X195498600Y-94919800D01*
X195498600Y-94665800D01*
X195518600Y-94665800D01*
X195518600Y-93664173D01*
X195328620Y-93603311D01*
X195248312Y-93627666D01*
X195028639Y-93727561D01*
X194832676Y-93868392D01*
X194667953Y-94044748D01*
X194540801Y-94249851D01*
X194499791Y-94359266D01*
X194480851Y-92635804D01*
X194540801Y-92795749D01*
X194667953Y-93000852D01*
X194832676Y-93177208D01*
X195028639Y-93318039D01*
X195248312Y-93417934D01*
X195328620Y-93442289D01*
X195518600Y-93381427D01*
X195518600Y-92379800D01*
X195498600Y-92379800D01*
X195498600Y-92125800D01*
X195518600Y-92125800D01*
X195518600Y-91124173D01*
X195328620Y-91063311D01*
X195248312Y-91087666D01*
X195028639Y-91187561D01*
X194832676Y-91328392D01*
X194667953Y-91504748D01*
X194540801Y-91709851D01*
X194472674Y-91891614D01*
X194438403Y-88773000D01*
X196723000Y-88773000D01*
X196723000Y-91665655D01*
%TA.AperFunction,Conductor*%
D20*
G36*
X196723000Y-91665655D02*
G01*
X196623247Y-91504748D01*
X196458524Y-91328392D01*
X196262561Y-91187561D01*
X196042888Y-91087666D01*
X195962580Y-91063311D01*
X195772600Y-91124173D01*
X195772600Y-92125800D01*
X195792600Y-92125800D01*
X195792600Y-92379800D01*
X195772600Y-92379800D01*
X195772600Y-93381427D01*
X195962580Y-93442289D01*
X196042888Y-93417934D01*
X196262561Y-93318039D01*
X196458524Y-93177208D01*
X196623247Y-93000852D01*
X196723000Y-92839945D01*
X196723000Y-94205655D01*
X196623247Y-94044748D01*
X196458524Y-93868392D01*
X196262561Y-93727561D01*
X196042888Y-93627666D01*
X195962580Y-93603311D01*
X195772600Y-93664173D01*
X195772600Y-94665800D01*
X195792600Y-94665800D01*
X195792600Y-94919800D01*
X195772600Y-94919800D01*
X195772600Y-95921427D01*
X195962580Y-95982289D01*
X196042888Y-95957934D01*
X196262561Y-95858039D01*
X196458524Y-95717208D01*
X196623247Y-95540852D01*
X196723000Y-95379945D01*
X196723000Y-107442000D01*
X196725440Y-107466776D01*
X196732667Y-107490601D01*
X196744403Y-107512557D01*
X196760197Y-107531803D01*
X196779443Y-107547597D01*
X196801399Y-107559333D01*
X196825224Y-107566560D01*
X196850000Y-107569000D01*
X197201597Y-107569000D01*
X197157278Y-107623004D01*
X197121899Y-107689192D01*
X197100113Y-107761011D01*
X197092757Y-107835700D01*
X197094600Y-108565950D01*
X197189850Y-108661200D01*
X198348600Y-108661200D01*
X198348600Y-108641200D01*
X198602600Y-108641200D01*
X198602600Y-108661200D01*
X198622600Y-108661200D01*
X198622600Y-108915200D01*
X198602600Y-108915200D01*
X198602600Y-110026450D01*
X198697850Y-110121700D01*
X199475600Y-110123543D01*
X199517000Y-110119466D01*
X199517000Y-115138200D01*
X197231000Y-115138200D01*
X197231000Y-111760000D01*
X197228560Y-111735224D01*
X197221333Y-111711399D01*
X197209597Y-111689443D01*
X197193803Y-111670197D01*
X197174557Y-111654403D01*
X197152601Y-111642667D01*
X197128776Y-111635440D01*
X197104000Y-111633000D01*
X194689612Y-111633000D01*
X194668818Y-109740700D01*
X197092757Y-109740700D01*
X197100113Y-109815389D01*
X197121899Y-109887208D01*
X197157278Y-109953396D01*
X197204889Y-110011411D01*
X197262904Y-110059022D01*
X197329092Y-110094401D01*
X197400911Y-110116187D01*
X197475600Y-110123543D01*
X198253350Y-110121700D01*
X198348600Y-110026450D01*
X198348600Y-108915200D01*
X197189850Y-108915200D01*
X197094600Y-109010450D01*
X197092757Y-109740700D01*
X194668818Y-109740700D01*
X194509607Y-95252523D01*
X194540801Y-95335749D01*
X194667953Y-95540852D01*
X194832676Y-95717208D01*
X195028639Y-95858039D01*
X195248312Y-95957934D01*
X195328620Y-95982289D01*
X195518600Y-95921427D01*
X195518600Y-94919800D01*
X195498600Y-94919800D01*
X195498600Y-94665800D01*
X195518600Y-94665800D01*
X195518600Y-93664173D01*
X195328620Y-93603311D01*
X195248312Y-93627666D01*
X195028639Y-93727561D01*
X194832676Y-93868392D01*
X194667953Y-94044748D01*
X194540801Y-94249851D01*
X194499791Y-94359266D01*
X194480851Y-92635804D01*
X194540801Y-92795749D01*
X194667953Y-93000852D01*
X194832676Y-93177208D01*
X195028639Y-93318039D01*
X195248312Y-93417934D01*
X195328620Y-93442289D01*
X195518600Y-93381427D01*
X195518600Y-92379800D01*
X195498600Y-92379800D01*
X195498600Y-92125800D01*
X195518600Y-92125800D01*
X195518600Y-91124173D01*
X195328620Y-91063311D01*
X195248312Y-91087666D01*
X195028639Y-91187561D01*
X194832676Y-91328392D01*
X194667953Y-91504748D01*
X194540801Y-91709851D01*
X194472674Y-91891614D01*
X194438403Y-88773000D01*
X196723000Y-88773000D01*
X196723000Y-91665655D01*
G37*
%TD.AperFunction*%
%TD*%
M02*
