%TF.GenerationSoftware,KiCad,Pcbnew,(5.1.10)-1*%
%TF.CreationDate,2021-09-08T13:29:56-05:00*%
%TF.ProjectId,gd protoboard pcb,67642070-726f-4746-9f62-6f6172642070,rev?*%
%TF.SameCoordinates,Original*%
%TF.FileFunction,Paste,Bot*%
%TF.FilePolarity,Positive*%
%FSLAX46Y46*%
G04 Gerber Fmt 4.6, Leading zero omitted, Abs format (unit mm)*
G04 Created by KiCad (PCBNEW (5.1.10)-1) date 2021-09-08 13:29:56*
%MOMM*%
%LPD*%
G01*
G04 APERTURE LIST*
G04 APERTURE END LIST*
%TO.C,C6*%
G36*
G01*
X196273000Y-100871000D02*
X196273000Y-101821000D01*
G75*
G02*
X196023000Y-102071000I-250000J0D01*
G01*
X195523000Y-102071000D01*
G75*
G02*
X195273000Y-101821000I0J250000D01*
G01*
X195273000Y-100871000D01*
G75*
G02*
X195523000Y-100621000I250000J0D01*
G01*
X196023000Y-100621000D01*
G75*
G02*
X196273000Y-100871000I0J-250000D01*
G01*
G37*
G36*
G01*
X198173000Y-100871000D02*
X198173000Y-101821000D01*
G75*
G02*
X197923000Y-102071000I-250000J0D01*
G01*
X197423000Y-102071000D01*
G75*
G02*
X197173000Y-101821000I0J250000D01*
G01*
X197173000Y-100871000D01*
G75*
G02*
X197423000Y-100621000I250000J0D01*
G01*
X197923000Y-100621000D01*
G75*
G02*
X198173000Y-100871000I0J-250000D01*
G01*
G37*
%TD*%
%TO.C,C5*%
G36*
G01*
X195613000Y-108019000D02*
X196563000Y-108019000D01*
G75*
G02*
X196813000Y-108269000I0J-250000D01*
G01*
X196813000Y-108769000D01*
G75*
G02*
X196563000Y-109019000I-250000J0D01*
G01*
X195613000Y-109019000D01*
G75*
G02*
X195363000Y-108769000I0J250000D01*
G01*
X195363000Y-108269000D01*
G75*
G02*
X195613000Y-108019000I250000J0D01*
G01*
G37*
G36*
G01*
X195613000Y-106119000D02*
X196563000Y-106119000D01*
G75*
G02*
X196813000Y-106369000I0J-250000D01*
G01*
X196813000Y-106869000D01*
G75*
G02*
X196563000Y-107119000I-250000J0D01*
G01*
X195613000Y-107119000D01*
G75*
G02*
X195363000Y-106869000I0J250000D01*
G01*
X195363000Y-106369000D01*
G75*
G02*
X195613000Y-106119000I250000J0D01*
G01*
G37*
%TD*%
%TO.C,R4*%
G36*
G01*
X196272100Y-74262401D02*
X196272100Y-73362399D01*
G75*
G02*
X196522099Y-73112400I249999J0D01*
G01*
X197047101Y-73112400D01*
G75*
G02*
X197297100Y-73362399I0J-249999D01*
G01*
X197297100Y-74262401D01*
G75*
G02*
X197047101Y-74512400I-249999J0D01*
G01*
X196522099Y-74512400D01*
G75*
G02*
X196272100Y-74262401I0J249999D01*
G01*
G37*
G36*
G01*
X194447100Y-74262401D02*
X194447100Y-73362399D01*
G75*
G02*
X194697099Y-73112400I249999J0D01*
G01*
X195222101Y-73112400D01*
G75*
G02*
X195472100Y-73362399I0J-249999D01*
G01*
X195472100Y-74262401D01*
G75*
G02*
X195222101Y-74512400I-249999J0D01*
G01*
X194697099Y-74512400D01*
G75*
G02*
X194447100Y-74262401I0J249999D01*
G01*
G37*
%TD*%
%TO.C,C4*%
G36*
G01*
X193616600Y-114650100D02*
X192666600Y-114650100D01*
G75*
G02*
X192416600Y-114400100I0J250000D01*
G01*
X192416600Y-113900100D01*
G75*
G02*
X192666600Y-113650100I250000J0D01*
G01*
X193616600Y-113650100D01*
G75*
G02*
X193866600Y-113900100I0J-250000D01*
G01*
X193866600Y-114400100D01*
G75*
G02*
X193616600Y-114650100I-250000J0D01*
G01*
G37*
G36*
G01*
X193616600Y-116550100D02*
X192666600Y-116550100D01*
G75*
G02*
X192416600Y-116300100I0J250000D01*
G01*
X192416600Y-115800100D01*
G75*
G02*
X192666600Y-115550100I250000J0D01*
G01*
X193616600Y-115550100D01*
G75*
G02*
X193866600Y-115800100I0J-250000D01*
G01*
X193866600Y-116300100D01*
G75*
G02*
X193616600Y-116550100I-250000J0D01*
G01*
G37*
%TD*%
%TO.C,R1*%
G36*
G01*
X196272100Y-79630268D02*
X196272100Y-78730266D01*
G75*
G02*
X196522099Y-78480267I249999J0D01*
G01*
X197047101Y-78480267D01*
G75*
G02*
X197297100Y-78730266I0J-249999D01*
G01*
X197297100Y-79630268D01*
G75*
G02*
X197047101Y-79880267I-249999J0D01*
G01*
X196522099Y-79880267D01*
G75*
G02*
X196272100Y-79630268I0J249999D01*
G01*
G37*
G36*
G01*
X194447100Y-79630268D02*
X194447100Y-78730266D01*
G75*
G02*
X194697099Y-78480267I249999J0D01*
G01*
X195222101Y-78480267D01*
G75*
G02*
X195472100Y-78730266I0J-249999D01*
G01*
X195472100Y-79630268D01*
G75*
G02*
X195222101Y-79880267I-249999J0D01*
G01*
X194697099Y-79880267D01*
G75*
G02*
X194447100Y-79630268I0J249999D01*
G01*
G37*
%TD*%
%TO.C,R3*%
G36*
G01*
X196272100Y-82314201D02*
X196272100Y-81414199D01*
G75*
G02*
X196522099Y-81164200I249999J0D01*
G01*
X197047101Y-81164200D01*
G75*
G02*
X197297100Y-81414199I0J-249999D01*
G01*
X197297100Y-82314201D01*
G75*
G02*
X197047101Y-82564200I-249999J0D01*
G01*
X196522099Y-82564200D01*
G75*
G02*
X196272100Y-82314201I0J249999D01*
G01*
G37*
G36*
G01*
X194447100Y-82314201D02*
X194447100Y-81414199D01*
G75*
G02*
X194697099Y-81164200I249999J0D01*
G01*
X195222101Y-81164200D01*
G75*
G02*
X195472100Y-81414199I0J-249999D01*
G01*
X195472100Y-82314201D01*
G75*
G02*
X195222101Y-82564200I-249999J0D01*
G01*
X194697099Y-82564200D01*
G75*
G02*
X194447100Y-82314201I0J249999D01*
G01*
G37*
%TD*%
%TO.C,R2*%
G36*
G01*
X196272100Y-76946335D02*
X196272100Y-76046333D01*
G75*
G02*
X196522099Y-75796334I249999J0D01*
G01*
X197047101Y-75796334D01*
G75*
G02*
X197297100Y-76046333I0J-249999D01*
G01*
X197297100Y-76946335D01*
G75*
G02*
X197047101Y-77196334I-249999J0D01*
G01*
X196522099Y-77196334D01*
G75*
G02*
X196272100Y-76946335I0J249999D01*
G01*
G37*
G36*
G01*
X194447100Y-76946335D02*
X194447100Y-76046333D01*
G75*
G02*
X194697099Y-75796334I249999J0D01*
G01*
X195222101Y-75796334D01*
G75*
G02*
X195472100Y-76046333I0J-249999D01*
G01*
X195472100Y-76946335D01*
G75*
G02*
X195222101Y-77196334I-249999J0D01*
G01*
X194697099Y-77196334D01*
G75*
G02*
X194447100Y-76946335I0J249999D01*
G01*
G37*
%TD*%
%TO.C,C3*%
G36*
G01*
X196258200Y-114650100D02*
X195308200Y-114650100D01*
G75*
G02*
X195058200Y-114400100I0J250000D01*
G01*
X195058200Y-113900100D01*
G75*
G02*
X195308200Y-113650100I250000J0D01*
G01*
X196258200Y-113650100D01*
G75*
G02*
X196508200Y-113900100I0J-250000D01*
G01*
X196508200Y-114400100D01*
G75*
G02*
X196258200Y-114650100I-250000J0D01*
G01*
G37*
G36*
G01*
X196258200Y-116550100D02*
X195308200Y-116550100D01*
G75*
G02*
X195058200Y-116300100I0J250000D01*
G01*
X195058200Y-115800100D01*
G75*
G02*
X195308200Y-115550100I250000J0D01*
G01*
X196258200Y-115550100D01*
G75*
G02*
X196508200Y-115800100I0J-250000D01*
G01*
X196508200Y-116300100D01*
G75*
G02*
X196258200Y-116550100I-250000J0D01*
G01*
G37*
%TD*%
%TO.C,C2*%
G36*
G01*
X196590500Y-89377500D02*
X196590500Y-90327500D01*
G75*
G02*
X196340500Y-90577500I-250000J0D01*
G01*
X195840500Y-90577500D01*
G75*
G02*
X195590500Y-90327500I0J250000D01*
G01*
X195590500Y-89377500D01*
G75*
G02*
X195840500Y-89127500I250000J0D01*
G01*
X196340500Y-89127500D01*
G75*
G02*
X196590500Y-89377500I0J-250000D01*
G01*
G37*
G36*
G01*
X198490500Y-89377500D02*
X198490500Y-90327500D01*
G75*
G02*
X198240500Y-90577500I-250000J0D01*
G01*
X197740500Y-90577500D01*
G75*
G02*
X197490500Y-90327500I0J250000D01*
G01*
X197490500Y-89377500D01*
G75*
G02*
X197740500Y-89127500I250000J0D01*
G01*
X198240500Y-89127500D01*
G75*
G02*
X198490500Y-89377500I0J-250000D01*
G01*
G37*
%TD*%
%TO.C,C1*%
G36*
G01*
X187713600Y-120312600D02*
X188663600Y-120312600D01*
G75*
G02*
X188913600Y-120562600I0J-250000D01*
G01*
X188913600Y-121062600D01*
G75*
G02*
X188663600Y-121312600I-250000J0D01*
G01*
X187713600Y-121312600D01*
G75*
G02*
X187463600Y-121062600I0J250000D01*
G01*
X187463600Y-120562600D01*
G75*
G02*
X187713600Y-120312600I250000J0D01*
G01*
G37*
G36*
G01*
X187713600Y-118412600D02*
X188663600Y-118412600D01*
G75*
G02*
X188913600Y-118662600I0J-250000D01*
G01*
X188913600Y-119162600D01*
G75*
G02*
X188663600Y-119412600I-250000J0D01*
G01*
X187713600Y-119412600D01*
G75*
G02*
X187463600Y-119162600I0J250000D01*
G01*
X187463600Y-118662600D01*
G75*
G02*
X187713600Y-118412600I250000J0D01*
G01*
G37*
%TD*%
M02*
