%TF.GenerationSoftware,KiCad,Pcbnew,(5.1.10)-1*%
%TF.CreationDate,2021-09-08T13:29:56-05:00*%
%TF.ProjectId,gd protoboard pcb,67642070-726f-4746-9f62-6f6172642070,rev?*%
%TF.SameCoordinates,Original*%
%TF.FileFunction,Legend,Top*%
%TF.FilePolarity,Positive*%
%FSLAX46Y46*%
G04 Gerber Fmt 4.6, Leading zero omitted, Abs format (unit mm)*
G04 Created by KiCad (PCBNEW (5.1.10)-1) date 2021-09-08 13:29:56*
%MOMM*%
%LPD*%
G01*
G04 APERTURE LIST*
%ADD10C,0.200000*%
%ADD11C,0.100000*%
%ADD12C,0.120000*%
%ADD13C,0.134262*%
G04 APERTURE END LIST*
D10*
X108089714Y-96958095D02*
X108089714Y-96386666D01*
X108127809Y-96272380D01*
X108204000Y-96196190D01*
X108318285Y-96158095D01*
X108394476Y-96158095D01*
X108204000Y-98952095D02*
X108204000Y-99752095D01*
X108432571Y-101492095D02*
X108432571Y-102292095D01*
X108432571Y-101911142D02*
X107975428Y-101911142D01*
X107975428Y-101492095D02*
X107975428Y-102292095D01*
X107994476Y-104794000D02*
X108070666Y-104832095D01*
X108184952Y-104832095D01*
X108299238Y-104794000D01*
X108375428Y-104717809D01*
X108413523Y-104641619D01*
X108451619Y-104489238D01*
X108451619Y-104374952D01*
X108413523Y-104222571D01*
X108375428Y-104146380D01*
X108299238Y-104070190D01*
X108184952Y-104032095D01*
X108108761Y-104032095D01*
X107994476Y-104070190D01*
X107956380Y-104108285D01*
X107956380Y-104374952D01*
X108108761Y-104374952D01*
X108089714Y-106991142D02*
X108356380Y-106991142D01*
X108356380Y-106572095D02*
X108356380Y-107372095D01*
X107975428Y-107372095D01*
X108032571Y-89096857D02*
X108299238Y-89096857D01*
X108413523Y-89515904D02*
X108032571Y-89515904D01*
X108032571Y-88715904D01*
X108413523Y-88715904D01*
X107994476Y-86975904D02*
X107994476Y-86175904D01*
X108184952Y-86175904D01*
X108299238Y-86214000D01*
X108375428Y-86290190D01*
X108413523Y-86366380D01*
X108451619Y-86518761D01*
X108451619Y-86633047D01*
X108413523Y-86785428D01*
X108375428Y-86861619D01*
X108299238Y-86937809D01*
X108184952Y-86975904D01*
X107994476Y-86975904D01*
X108451619Y-84359714D02*
X108413523Y-84397809D01*
X108299238Y-84435904D01*
X108223047Y-84435904D01*
X108108761Y-84397809D01*
X108032571Y-84321619D01*
X107994476Y-84245428D01*
X107956380Y-84093047D01*
X107956380Y-83978761D01*
X107994476Y-83826380D01*
X108032571Y-83750190D01*
X108108761Y-83674000D01*
X108223047Y-83635904D01*
X108299238Y-83635904D01*
X108413523Y-83674000D01*
X108451619Y-83712095D01*
X108261142Y-81476857D02*
X108375428Y-81514952D01*
X108413523Y-81553047D01*
X108451619Y-81629238D01*
X108451619Y-81743523D01*
X108413523Y-81819714D01*
X108375428Y-81857809D01*
X108299238Y-81895904D01*
X107994476Y-81895904D01*
X107994476Y-81095904D01*
X108261142Y-81095904D01*
X108337333Y-81134000D01*
X108375428Y-81172095D01*
X108413523Y-81248285D01*
X108413523Y-81324476D01*
X108375428Y-81400666D01*
X108337333Y-81438761D01*
X108261142Y-81476857D01*
X107994476Y-81476857D01*
X108013523Y-79127333D02*
X108394476Y-79127333D01*
X107937333Y-79355904D02*
X108204000Y-78555904D01*
X108470666Y-79355904D01*
X184289619Y-109150095D02*
X183794380Y-109150095D01*
X184061047Y-108845333D01*
X183946761Y-108845333D01*
X183870571Y-108807238D01*
X183832476Y-108769142D01*
X183794380Y-108692952D01*
X183794380Y-108502476D01*
X183832476Y-108426285D01*
X183870571Y-108388190D01*
X183946761Y-108350095D01*
X184175333Y-108350095D01*
X184251523Y-108388190D01*
X184289619Y-108426285D01*
X183299142Y-109150095D02*
X183222952Y-109150095D01*
X183146761Y-109112000D01*
X183108666Y-109073904D01*
X183070571Y-108997714D01*
X183032476Y-108845333D01*
X183032476Y-108654857D01*
X183070571Y-108502476D01*
X183108666Y-108426285D01*
X183146761Y-108388190D01*
X183222952Y-108350095D01*
X183299142Y-108350095D01*
X183375333Y-108388190D01*
X183413428Y-108426285D01*
X183451523Y-108502476D01*
X183489619Y-108654857D01*
X183489619Y-108845333D01*
X183451523Y-108997714D01*
X183413428Y-109073904D01*
X183375333Y-109112000D01*
X183299142Y-109150095D01*
X145694380Y-108350095D02*
X146151523Y-108350095D01*
X145922952Y-108350095D02*
X145922952Y-109150095D01*
X145999142Y-109035809D01*
X146075333Y-108959619D01*
X146151523Y-108921523D01*
X144970571Y-109150095D02*
X145351523Y-109150095D01*
X145389619Y-108769142D01*
X145351523Y-108807238D01*
X145275333Y-108845333D01*
X145084857Y-108845333D01*
X145008666Y-108807238D01*
X144970571Y-108769142D01*
X144932476Y-108692952D01*
X144932476Y-108502476D01*
X144970571Y-108426285D01*
X145008666Y-108388190D01*
X145084857Y-108350095D01*
X145275333Y-108350095D01*
X145351523Y-108388190D01*
X145389619Y-108426285D01*
X171551523Y-109073904D02*
X171513428Y-109112000D01*
X171437238Y-109150095D01*
X171246761Y-109150095D01*
X171170571Y-109112000D01*
X171132476Y-109073904D01*
X171094380Y-108997714D01*
X171094380Y-108921523D01*
X171132476Y-108807238D01*
X171589619Y-108350095D01*
X171094380Y-108350095D01*
X170370571Y-109150095D02*
X170751523Y-109150095D01*
X170789619Y-108769142D01*
X170751523Y-108807238D01*
X170675333Y-108845333D01*
X170484857Y-108845333D01*
X170408666Y-108807238D01*
X170370571Y-108769142D01*
X170332476Y-108692952D01*
X170332476Y-108502476D01*
X170370571Y-108426285D01*
X170408666Y-108388190D01*
X170484857Y-108350095D01*
X170675333Y-108350095D01*
X170751523Y-108388190D01*
X170789619Y-108426285D01*
X158851523Y-109073904D02*
X158813428Y-109112000D01*
X158737238Y-109150095D01*
X158546761Y-109150095D01*
X158470571Y-109112000D01*
X158432476Y-109073904D01*
X158394380Y-108997714D01*
X158394380Y-108921523D01*
X158432476Y-108807238D01*
X158889619Y-108350095D01*
X158394380Y-108350095D01*
X157899142Y-109150095D02*
X157822952Y-109150095D01*
X157746761Y-109112000D01*
X157708666Y-109073904D01*
X157670571Y-108997714D01*
X157632476Y-108845333D01*
X157632476Y-108654857D01*
X157670571Y-108502476D01*
X157708666Y-108426285D01*
X157746761Y-108388190D01*
X157822952Y-108350095D01*
X157899142Y-108350095D01*
X157975333Y-108388190D01*
X158013428Y-108426285D01*
X158051523Y-108502476D01*
X158089619Y-108654857D01*
X158089619Y-108845333D01*
X158051523Y-108997714D01*
X158013428Y-109073904D01*
X157975333Y-109112000D01*
X157899142Y-109150095D01*
X132994380Y-108350095D02*
X133451523Y-108350095D01*
X133222952Y-108350095D02*
X133222952Y-109150095D01*
X133299142Y-109035809D01*
X133375333Y-108959619D01*
X133451523Y-108921523D01*
X132499142Y-109150095D02*
X132422952Y-109150095D01*
X132346761Y-109112000D01*
X132308666Y-109073904D01*
X132270571Y-108997714D01*
X132232476Y-108845333D01*
X132232476Y-108654857D01*
X132270571Y-108502476D01*
X132308666Y-108426285D01*
X132346761Y-108388190D01*
X132422952Y-108350095D01*
X132499142Y-108350095D01*
X132575333Y-108388190D01*
X132613428Y-108426285D01*
X132651523Y-108502476D01*
X132689619Y-108654857D01*
X132689619Y-108845333D01*
X132651523Y-108997714D01*
X132613428Y-109073904D01*
X132575333Y-109112000D01*
X132499142Y-109150095D01*
X119951523Y-109150095D02*
X120332476Y-109150095D01*
X120370571Y-108769142D01*
X120332476Y-108807238D01*
X120256285Y-108845333D01*
X120065809Y-108845333D01*
X119989619Y-108807238D01*
X119951523Y-108769142D01*
X119913428Y-108692952D01*
X119913428Y-108502476D01*
X119951523Y-108426285D01*
X119989619Y-108388190D01*
X120065809Y-108350095D01*
X120256285Y-108350095D01*
X120332476Y-108388190D01*
X120370571Y-108426285D01*
X182994380Y-76777904D02*
X183489619Y-76777904D01*
X183222952Y-77082666D01*
X183337238Y-77082666D01*
X183413428Y-77120761D01*
X183451523Y-77158857D01*
X183489619Y-77235047D01*
X183489619Y-77425523D01*
X183451523Y-77501714D01*
X183413428Y-77539809D01*
X183337238Y-77577904D01*
X183108666Y-77577904D01*
X183032476Y-77539809D01*
X182994380Y-77501714D01*
X183984857Y-76777904D02*
X184061047Y-76777904D01*
X184137238Y-76816000D01*
X184175333Y-76854095D01*
X184213428Y-76930285D01*
X184251523Y-77082666D01*
X184251523Y-77273142D01*
X184213428Y-77425523D01*
X184175333Y-77501714D01*
X184137238Y-77539809D01*
X184061047Y-77577904D01*
X183984857Y-77577904D01*
X183908666Y-77539809D01*
X183870571Y-77501714D01*
X183832476Y-77425523D01*
X183794380Y-77273142D01*
X183794380Y-77082666D01*
X183832476Y-76930285D01*
X183870571Y-76854095D01*
X183908666Y-76816000D01*
X183984857Y-76777904D01*
X170332476Y-76854095D02*
X170370571Y-76816000D01*
X170446761Y-76777904D01*
X170637238Y-76777904D01*
X170713428Y-76816000D01*
X170751523Y-76854095D01*
X170789619Y-76930285D01*
X170789619Y-77006476D01*
X170751523Y-77120761D01*
X170294380Y-77577904D01*
X170789619Y-77577904D01*
X171513428Y-76777904D02*
X171132476Y-76777904D01*
X171094380Y-77158857D01*
X171132476Y-77120761D01*
X171208666Y-77082666D01*
X171399142Y-77082666D01*
X171475333Y-77120761D01*
X171513428Y-77158857D01*
X171551523Y-77235047D01*
X171551523Y-77425523D01*
X171513428Y-77501714D01*
X171475333Y-77539809D01*
X171399142Y-77577904D01*
X171208666Y-77577904D01*
X171132476Y-77539809D01*
X171094380Y-77501714D01*
X157632476Y-76854095D02*
X157670571Y-76816000D01*
X157746761Y-76777904D01*
X157937238Y-76777904D01*
X158013428Y-76816000D01*
X158051523Y-76854095D01*
X158089619Y-76930285D01*
X158089619Y-77006476D01*
X158051523Y-77120761D01*
X157594380Y-77577904D01*
X158089619Y-77577904D01*
X158584857Y-76777904D02*
X158661047Y-76777904D01*
X158737238Y-76816000D01*
X158775333Y-76854095D01*
X158813428Y-76930285D01*
X158851523Y-77082666D01*
X158851523Y-77273142D01*
X158813428Y-77425523D01*
X158775333Y-77501714D01*
X158737238Y-77539809D01*
X158661047Y-77577904D01*
X158584857Y-77577904D01*
X158508666Y-77539809D01*
X158470571Y-77501714D01*
X158432476Y-77425523D01*
X158394380Y-77273142D01*
X158394380Y-77082666D01*
X158432476Y-76930285D01*
X158470571Y-76854095D01*
X158508666Y-76816000D01*
X158584857Y-76777904D01*
X145389619Y-77577904D02*
X144932476Y-77577904D01*
X145161047Y-77577904D02*
X145161047Y-76777904D01*
X145084857Y-76892190D01*
X145008666Y-76968380D01*
X144932476Y-77006476D01*
X146113428Y-76777904D02*
X145732476Y-76777904D01*
X145694380Y-77158857D01*
X145732476Y-77120761D01*
X145808666Y-77082666D01*
X145999142Y-77082666D01*
X146075333Y-77120761D01*
X146113428Y-77158857D01*
X146151523Y-77235047D01*
X146151523Y-77425523D01*
X146113428Y-77501714D01*
X146075333Y-77539809D01*
X145999142Y-77577904D01*
X145808666Y-77577904D01*
X145732476Y-77539809D01*
X145694380Y-77501714D01*
X132689619Y-77577904D02*
X132232476Y-77577904D01*
X132461047Y-77577904D02*
X132461047Y-76777904D01*
X132384857Y-76892190D01*
X132308666Y-76968380D01*
X132232476Y-77006476D01*
X133184857Y-76777904D02*
X133261047Y-76777904D01*
X133337238Y-76816000D01*
X133375333Y-76854095D01*
X133413428Y-76930285D01*
X133451523Y-77082666D01*
X133451523Y-77273142D01*
X133413428Y-77425523D01*
X133375333Y-77501714D01*
X133337238Y-77539809D01*
X133261047Y-77577904D01*
X133184857Y-77577904D01*
X133108666Y-77539809D01*
X133070571Y-77501714D01*
X133032476Y-77425523D01*
X132994380Y-77273142D01*
X132994380Y-77082666D01*
X133032476Y-76930285D01*
X133070571Y-76854095D01*
X133108666Y-76816000D01*
X133184857Y-76777904D01*
X120332476Y-76777904D02*
X119951523Y-76777904D01*
X119913428Y-77158857D01*
X119951523Y-77120761D01*
X120027714Y-77082666D01*
X120218190Y-77082666D01*
X120294380Y-77120761D01*
X120332476Y-77158857D01*
X120370571Y-77235047D01*
X120370571Y-77425523D01*
X120332476Y-77501714D01*
X120294380Y-77539809D01*
X120218190Y-77577904D01*
X120027714Y-77577904D01*
X119951523Y-77539809D01*
X119913428Y-77501714D01*
X127661522Y-92622714D02*
X127661522Y-93432238D01*
X127613903Y-93527476D01*
X127566284Y-93575095D01*
X127471046Y-93622714D01*
X127328189Y-93622714D01*
X127232951Y-93575095D01*
X127661522Y-93241761D02*
X127566284Y-93289380D01*
X127375808Y-93289380D01*
X127280570Y-93241761D01*
X127232951Y-93194142D01*
X127185332Y-93098904D01*
X127185332Y-92813190D01*
X127232951Y-92717952D01*
X127280570Y-92670333D01*
X127375808Y-92622714D01*
X127566284Y-92622714D01*
X127661522Y-92670333D01*
X128566284Y-93289380D02*
X128566284Y-92289380D01*
X128566284Y-93241761D02*
X128471046Y-93289380D01*
X128280570Y-93289380D01*
X128185332Y-93241761D01*
X128137713Y-93194142D01*
X128090094Y-93098904D01*
X128090094Y-92813190D01*
X128137713Y-92717952D01*
X128185332Y-92670333D01*
X128280570Y-92622714D01*
X128471046Y-92622714D01*
X128566284Y-92670333D01*
X129804379Y-93289380D02*
X129804379Y-92289380D01*
X130185332Y-92289380D01*
X130280570Y-92337000D01*
X130328189Y-92384619D01*
X130375808Y-92479857D01*
X130375808Y-92622714D01*
X130328189Y-92717952D01*
X130280570Y-92765571D01*
X130185332Y-92813190D01*
X129804379Y-92813190D01*
X130804379Y-93289380D02*
X130804379Y-92622714D01*
X130804379Y-92813190D02*
X130851999Y-92717952D01*
X130899618Y-92670333D01*
X130994856Y-92622714D01*
X131090094Y-92622714D01*
X131566284Y-93289380D02*
X131471046Y-93241761D01*
X131423427Y-93194142D01*
X131375808Y-93098904D01*
X131375808Y-92813190D01*
X131423427Y-92717952D01*
X131471046Y-92670333D01*
X131566284Y-92622714D01*
X131709141Y-92622714D01*
X131804379Y-92670333D01*
X131851999Y-92717952D01*
X131899618Y-92813190D01*
X131899618Y-93098904D01*
X131851999Y-93194142D01*
X131804379Y-93241761D01*
X131709141Y-93289380D01*
X131566284Y-93289380D01*
X132185332Y-92622714D02*
X132566284Y-92622714D01*
X132328189Y-92289380D02*
X132328189Y-93146523D01*
X132375808Y-93241761D01*
X132471046Y-93289380D01*
X132566284Y-93289380D01*
X133042475Y-93289380D02*
X132947237Y-93241761D01*
X132899618Y-93194142D01*
X132851999Y-93098904D01*
X132851999Y-92813190D01*
X132899618Y-92717952D01*
X132947237Y-92670333D01*
X133042475Y-92622714D01*
X133185332Y-92622714D01*
X133280570Y-92670333D01*
X133328189Y-92717952D01*
X133375808Y-92813190D01*
X133375808Y-93098904D01*
X133328189Y-93194142D01*
X133280570Y-93241761D01*
X133185332Y-93289380D01*
X133042475Y-93289380D01*
X133804379Y-93289380D02*
X133804379Y-92289380D01*
X133804379Y-92670333D02*
X133899618Y-92622714D01*
X134090094Y-92622714D01*
X134185332Y-92670333D01*
X134232951Y-92717952D01*
X134280570Y-92813190D01*
X134280570Y-93098904D01*
X134232951Y-93194142D01*
X134185332Y-93241761D01*
X134090094Y-93289380D01*
X133899618Y-93289380D01*
X133804379Y-93241761D01*
X134851999Y-93289380D02*
X134756760Y-93241761D01*
X134709141Y-93194142D01*
X134661522Y-93098904D01*
X134661522Y-92813190D01*
X134709141Y-92717952D01*
X134756760Y-92670333D01*
X134851999Y-92622714D01*
X134994856Y-92622714D01*
X135090094Y-92670333D01*
X135137713Y-92717952D01*
X135185332Y-92813190D01*
X135185332Y-93098904D01*
X135137713Y-93194142D01*
X135090094Y-93241761D01*
X134994856Y-93289380D01*
X134851999Y-93289380D01*
X136042475Y-93289380D02*
X136042475Y-92765571D01*
X135994856Y-92670333D01*
X135899618Y-92622714D01*
X135709141Y-92622714D01*
X135613903Y-92670333D01*
X136042475Y-93241761D02*
X135947237Y-93289380D01*
X135709141Y-93289380D01*
X135613903Y-93241761D01*
X135566284Y-93146523D01*
X135566284Y-93051285D01*
X135613903Y-92956047D01*
X135709141Y-92908428D01*
X135947237Y-92908428D01*
X136042475Y-92860809D01*
X136518665Y-93289380D02*
X136518665Y-92622714D01*
X136518665Y-92813190D02*
X136566284Y-92717952D01*
X136613903Y-92670333D01*
X136709141Y-92622714D01*
X136804379Y-92622714D01*
X137566284Y-93289380D02*
X137566284Y-92289380D01*
X137566284Y-93241761D02*
X137471046Y-93289380D01*
X137280570Y-93289380D01*
X137185332Y-93241761D01*
X137137713Y-93194142D01*
X137090094Y-93098904D01*
X137090094Y-92813190D01*
X137137713Y-92717952D01*
X137185332Y-92670333D01*
X137280570Y-92622714D01*
X137471046Y-92622714D01*
X137566284Y-92670333D01*
X139375808Y-93289380D02*
X139042475Y-92813190D01*
X138804379Y-93289380D02*
X138804379Y-92289380D01*
X139185332Y-92289380D01*
X139280570Y-92337000D01*
X139328189Y-92384619D01*
X139375808Y-92479857D01*
X139375808Y-92622714D01*
X139328189Y-92717952D01*
X139280570Y-92765571D01*
X139185332Y-92813190D01*
X138804379Y-92813190D01*
X140185332Y-93241761D02*
X140090094Y-93289380D01*
X139899618Y-93289380D01*
X139804379Y-93241761D01*
X139756760Y-93146523D01*
X139756760Y-92765571D01*
X139804379Y-92670333D01*
X139899618Y-92622714D01*
X140090094Y-92622714D01*
X140185332Y-92670333D01*
X140232951Y-92765571D01*
X140232951Y-92860809D01*
X139756760Y-92956047D01*
X140566284Y-92622714D02*
X140804379Y-93289380D01*
X141042475Y-92622714D01*
X141947237Y-93289380D02*
X141375808Y-93289380D01*
X141661522Y-93289380D02*
X141661522Y-92289380D01*
X141566284Y-92432238D01*
X141471046Y-92527476D01*
X141375808Y-92575095D01*
X143947237Y-92717952D02*
X143947237Y-93098904D01*
X143994856Y-93146523D02*
X144185332Y-93289380D01*
X143994856Y-92670333D02*
X144185332Y-92527476D01*
X143994856Y-92622714D02*
X143994856Y-93194142D01*
X144042475Y-93194142D02*
X144042475Y-92622714D01*
X144090094Y-92575095D02*
X144090094Y-93241761D01*
X144137713Y-93241761D02*
X144137713Y-92575095D01*
X144185332Y-92527476D02*
X144185332Y-93289380D01*
X144232951Y-93289380D02*
X144232951Y-92527476D01*
X144280570Y-92527476D02*
X144280570Y-93289380D01*
X144328189Y-93289380D02*
X144328189Y-92527476D01*
X144375808Y-93289380D02*
X144566284Y-93146523D01*
X144375808Y-92527476D02*
X144375808Y-93289380D01*
X144375808Y-92527476D02*
X144566284Y-92670333D01*
X144423427Y-93241761D02*
X144423427Y-92575095D01*
X144471046Y-92575095D02*
X144471046Y-93241761D01*
X144518665Y-93194142D02*
X144518665Y-92622714D01*
X144566284Y-92622714D02*
X144566284Y-93194142D01*
X144613903Y-93098904D02*
X144613903Y-92717952D01*
X144185332Y-92527476D02*
X144375808Y-92527476D01*
X144566284Y-92622714D01*
X144661522Y-92813190D01*
X144661522Y-93003666D01*
X144566284Y-93194142D01*
X144375808Y-93289380D01*
X144185332Y-93289380D01*
X143994856Y-93194142D01*
X143899618Y-93003666D01*
X143899618Y-92813190D01*
X143994856Y-92622714D01*
X144185332Y-92527476D01*
X146613903Y-92384619D02*
X146661522Y-92337000D01*
X146756760Y-92289380D01*
X146994856Y-92289380D01*
X147090094Y-92337000D01*
X147137713Y-92384619D01*
X147185332Y-92479857D01*
X147185332Y-92575095D01*
X147137713Y-92717952D01*
X146566284Y-93289380D01*
X147185332Y-93289380D01*
X147804379Y-92289380D02*
X147899618Y-92289380D01*
X147994856Y-92337000D01*
X148042475Y-92384619D01*
X148090094Y-92479857D01*
X148137713Y-92670333D01*
X148137713Y-92908428D01*
X148090094Y-93098904D01*
X148042475Y-93194142D01*
X147994856Y-93241761D01*
X147899618Y-93289380D01*
X147804379Y-93289380D01*
X147709141Y-93241761D01*
X147661522Y-93194142D01*
X147613903Y-93098904D01*
X147566284Y-92908428D01*
X147566284Y-92670333D01*
X147613903Y-92479857D01*
X147661522Y-92384619D01*
X147709141Y-92337000D01*
X147804379Y-92289380D01*
X148518665Y-92384619D02*
X148566284Y-92337000D01*
X148661522Y-92289380D01*
X148899618Y-92289380D01*
X148994856Y-92337000D01*
X149042475Y-92384619D01*
X149090094Y-92479857D01*
X149090094Y-92575095D01*
X149042475Y-92717952D01*
X148471046Y-93289380D01*
X149090094Y-93289380D01*
X150042475Y-93289380D02*
X149471046Y-93289380D01*
X149756760Y-93289380D02*
X149756760Y-92289380D01*
X149661522Y-92432238D01*
X149566284Y-92527476D01*
X149471046Y-92575095D01*
X150471046Y-92908428D02*
X151232951Y-92908428D01*
X151899618Y-92289380D02*
X151994856Y-92289380D01*
X152090094Y-92337000D01*
X152137713Y-92384619D01*
X152185332Y-92479857D01*
X152232951Y-92670333D01*
X152232951Y-92908428D01*
X152185332Y-93098904D01*
X152137713Y-93194142D01*
X152090094Y-93241761D01*
X151994856Y-93289380D01*
X151899618Y-93289380D01*
X151804379Y-93241761D01*
X151756760Y-93194142D01*
X151709141Y-93098904D01*
X151661522Y-92908428D01*
X151661522Y-92670333D01*
X151709141Y-92479857D01*
X151756760Y-92384619D01*
X151804379Y-92337000D01*
X151899618Y-92289380D01*
X152709141Y-93289380D02*
X152899618Y-93289380D01*
X152994856Y-93241761D01*
X153042475Y-93194142D01*
X153137713Y-93051285D01*
X153185332Y-92860809D01*
X153185332Y-92479857D01*
X153137713Y-92384619D01*
X153090094Y-92337000D01*
X152994856Y-92289380D01*
X152804379Y-92289380D01*
X152709141Y-92337000D01*
X152661522Y-92384619D01*
X152613903Y-92479857D01*
X152613903Y-92717952D01*
X152661522Y-92813190D01*
X152709141Y-92860809D01*
X152804379Y-92908428D01*
X152994856Y-92908428D01*
X153090094Y-92860809D01*
X153137713Y-92813190D01*
X153185332Y-92717952D01*
X153613903Y-92908428D02*
X154375808Y-92908428D01*
X155042475Y-92289380D02*
X155137713Y-92289380D01*
X155232951Y-92337000D01*
X155280570Y-92384619D01*
X155328189Y-92479857D01*
X155375808Y-92670333D01*
X155375808Y-92908428D01*
X155328189Y-93098904D01*
X155280570Y-93194142D01*
X155232951Y-93241761D01*
X155137713Y-93289380D01*
X155042475Y-93289380D01*
X154947237Y-93241761D01*
X154899618Y-93194142D01*
X154851999Y-93098904D01*
X154804379Y-92908428D01*
X154804379Y-92670333D01*
X154851999Y-92479857D01*
X154899618Y-92384619D01*
X154947237Y-92337000D01*
X155042475Y-92289380D01*
X155947237Y-92717952D02*
X155851999Y-92670333D01*
X155804379Y-92622714D01*
X155756760Y-92527476D01*
X155756760Y-92479857D01*
X155804379Y-92384619D01*
X155851999Y-92337000D01*
X155947237Y-92289380D01*
X156137713Y-92289380D01*
X156232951Y-92337000D01*
X156280570Y-92384619D01*
X156328189Y-92479857D01*
X156328189Y-92527476D01*
X156280570Y-92622714D01*
X156232951Y-92670333D01*
X156137713Y-92717952D01*
X155947237Y-92717952D01*
X155851999Y-92765571D01*
X155804379Y-92813190D01*
X155756760Y-92908428D01*
X155756760Y-93098904D01*
X155804379Y-93194142D01*
X155851999Y-93241761D01*
X155947237Y-93289380D01*
X156137713Y-93289380D01*
X156232951Y-93241761D01*
X156280570Y-93194142D01*
X156328189Y-93098904D01*
X156328189Y-92908428D01*
X156280570Y-92813190D01*
X156232951Y-92765571D01*
X156137713Y-92717952D01*
X158328189Y-92717952D02*
X158328189Y-93098904D01*
X158375808Y-93146523D02*
X158566284Y-93289380D01*
X158375808Y-92670333D02*
X158566284Y-92527476D01*
X158375808Y-92622714D02*
X158375808Y-93194142D01*
X158423427Y-93194142D02*
X158423427Y-92622714D01*
X158471046Y-92575095D02*
X158471046Y-93241761D01*
X158518665Y-93241761D02*
X158518665Y-92575095D01*
X158566284Y-92527476D02*
X158566284Y-93289380D01*
X158613903Y-93289380D02*
X158613903Y-92527476D01*
X158661522Y-92527476D02*
X158661522Y-93289380D01*
X158709141Y-93289380D02*
X158709141Y-92527476D01*
X158756760Y-93289380D02*
X158947237Y-93146523D01*
X158756760Y-92527476D02*
X158756760Y-93289380D01*
X158756760Y-92527476D02*
X158947237Y-92670333D01*
X158804379Y-93241761D02*
X158804379Y-92575095D01*
X158851999Y-92575095D02*
X158851999Y-93241761D01*
X158899618Y-93194142D02*
X158899618Y-92622714D01*
X158947237Y-92622714D02*
X158947237Y-93194142D01*
X158994856Y-93098904D02*
X158994856Y-92717952D01*
X158566284Y-92527476D02*
X158756760Y-92527476D01*
X158947237Y-92622714D01*
X159042475Y-92813190D01*
X159042475Y-93003666D01*
X158947237Y-93194142D01*
X158756760Y-93289380D01*
X158566284Y-93289380D01*
X158375808Y-93194142D01*
X158280570Y-93003666D01*
X158280570Y-92813190D01*
X158375808Y-92622714D01*
X158566284Y-92527476D01*
X161661522Y-92813190D02*
X161613903Y-92765571D01*
X161518665Y-92717952D01*
X161423427Y-92717952D01*
X161328189Y-92765571D01*
X161280570Y-92813190D01*
X161232951Y-92908428D01*
X161232951Y-93003666D01*
X161280570Y-93098904D01*
X161328189Y-93146523D01*
X161423427Y-93194142D01*
X161518665Y-93194142D01*
X161613903Y-93146523D01*
X161661522Y-93098904D01*
X161661522Y-92717952D02*
X161661522Y-93098904D01*
X161709141Y-93146523D01*
X161756760Y-93146523D01*
X161851999Y-93098904D01*
X161899618Y-93003666D01*
X161899618Y-92765571D01*
X161804379Y-92622714D01*
X161661522Y-92527476D01*
X161471046Y-92479857D01*
X161280570Y-92527476D01*
X161137713Y-92622714D01*
X161042475Y-92765571D01*
X160994856Y-92956047D01*
X161042475Y-93146523D01*
X161137713Y-93289380D01*
X161280570Y-93384619D01*
X161471046Y-93432238D01*
X161661522Y-93384619D01*
X161804379Y-93289380D01*
X162328189Y-93289380D02*
X162328189Y-92289380D01*
X162328189Y-92670333D02*
X162423427Y-92622714D01*
X162613903Y-92622714D01*
X162709141Y-92670333D01*
X162756760Y-92717952D01*
X162804379Y-92813190D01*
X162804379Y-93098904D01*
X162756760Y-93194142D01*
X162709141Y-93241761D01*
X162613903Y-93289380D01*
X162423427Y-93289380D01*
X162328189Y-93241761D01*
X163661522Y-93289380D02*
X163661522Y-92765571D01*
X163613903Y-92670333D01*
X163518665Y-92622714D01*
X163328189Y-92622714D01*
X163232951Y-92670333D01*
X163661522Y-93241761D02*
X163566284Y-93289380D01*
X163328189Y-93289380D01*
X163232951Y-93241761D01*
X163185332Y-93146523D01*
X163185332Y-93051285D01*
X163232951Y-92956047D01*
X163328189Y-92908428D01*
X163566284Y-92908428D01*
X163661522Y-92860809D01*
X164280570Y-93289380D02*
X164185332Y-93241761D01*
X164137713Y-93146523D01*
X164137713Y-92289380D01*
X165090094Y-93289380D02*
X165090094Y-92289380D01*
X165090094Y-93241761D02*
X164994856Y-93289380D01*
X164804379Y-93289380D01*
X164709141Y-93241761D01*
X164661522Y-93194142D01*
X164613903Y-93098904D01*
X164613903Y-92813190D01*
X164661522Y-92717952D01*
X164709141Y-92670333D01*
X164804379Y-92622714D01*
X164994856Y-92622714D01*
X165090094Y-92670333D01*
X165947237Y-93241761D02*
X165851999Y-93289380D01*
X165661522Y-93289380D01*
X165566284Y-93241761D01*
X165518665Y-93146523D01*
X165518665Y-92765571D01*
X165566284Y-92670333D01*
X165661522Y-92622714D01*
X165851999Y-92622714D01*
X165947237Y-92670333D01*
X165994856Y-92765571D01*
X165994856Y-92860809D01*
X165518665Y-92956047D01*
X166423427Y-92622714D02*
X166423427Y-93289380D01*
X166423427Y-92717952D02*
X166471046Y-92670333D01*
X166566284Y-92622714D01*
X166709141Y-92622714D01*
X166804379Y-92670333D01*
X166851999Y-92765571D01*
X166851999Y-93289380D01*
X167756760Y-92622714D02*
X167756760Y-93432238D01*
X167709141Y-93527476D01*
X167661522Y-93575095D01*
X167566284Y-93622714D01*
X167423427Y-93622714D01*
X167328189Y-93575095D01*
X167756760Y-93241761D02*
X167661522Y-93289380D01*
X167471046Y-93289380D01*
X167375808Y-93241761D01*
X167328189Y-93194142D01*
X167280570Y-93098904D01*
X167280570Y-92813190D01*
X167328189Y-92717952D01*
X167375808Y-92670333D01*
X167471046Y-92622714D01*
X167661522Y-92622714D01*
X167756760Y-92670333D01*
X168232951Y-93289380D02*
X168232951Y-92622714D01*
X168232951Y-92289380D02*
X168185332Y-92337000D01*
X168232951Y-92384619D01*
X168280570Y-92337000D01*
X168232951Y-92289380D01*
X168232951Y-92384619D01*
X168709141Y-92622714D02*
X168709141Y-93289380D01*
X168709141Y-92717952D02*
X168756760Y-92670333D01*
X168851999Y-92622714D01*
X168994856Y-92622714D01*
X169090094Y-92670333D01*
X169137713Y-92765571D01*
X169137713Y-93289380D01*
X169994856Y-93241761D02*
X169899618Y-93289380D01*
X169709141Y-93289380D01*
X169613903Y-93241761D01*
X169566284Y-93146523D01*
X169566284Y-92765571D01*
X169613903Y-92670333D01*
X169709141Y-92622714D01*
X169899618Y-92622714D01*
X169994856Y-92670333D01*
X170042475Y-92765571D01*
X170042475Y-92860809D01*
X169566284Y-92956047D01*
X170851999Y-93241761D02*
X170756760Y-93289380D01*
X170566284Y-93289380D01*
X170471046Y-93241761D01*
X170423427Y-93146523D01*
X170423427Y-92765571D01*
X170471046Y-92670333D01*
X170566284Y-92622714D01*
X170756760Y-92622714D01*
X170851999Y-92670333D01*
X170899618Y-92765571D01*
X170899618Y-92860809D01*
X170423427Y-92956047D01*
X171328189Y-93289380D02*
X171328189Y-92622714D01*
X171328189Y-92813190D02*
X171375808Y-92717952D01*
X171423427Y-92670333D01*
X171518665Y-92622714D01*
X171613903Y-92622714D01*
X198164442Y-90373114D02*
X198164442Y-89763590D01*
X197669204Y-89001685D02*
X197669204Y-89382638D01*
X198050157Y-89420733D01*
X198012061Y-89382638D01*
X197973966Y-89306447D01*
X197973966Y-89115971D01*
X198012061Y-89039780D01*
X198050157Y-89001685D01*
X198126347Y-88963590D01*
X198316823Y-88963590D01*
X198393014Y-89001685D01*
X198431109Y-89039780D01*
X198469204Y-89115971D01*
X198469204Y-89306447D01*
X198431109Y-89382638D01*
X198393014Y-89420733D01*
D11*
G36*
X196850000Y-97917000D02*
G01*
X194310000Y-97917000D01*
X194310000Y-90932000D01*
X196850000Y-90922800D01*
X196850000Y-97917000D01*
G37*
X196850000Y-97917000D02*
X194310000Y-97917000D01*
X194310000Y-90932000D01*
X196850000Y-90922800D01*
X196850000Y-97917000D01*
G36*
X200660000Y-111379000D02*
G01*
X197104000Y-111379000D01*
X197104000Y-107442000D01*
X200660000Y-107442000D01*
X200660000Y-111379000D01*
G37*
X200660000Y-111379000D02*
X197104000Y-111379000D01*
X197104000Y-107442000D01*
X200660000Y-107442000D01*
X200660000Y-111379000D01*
D10*
X198418442Y-97866114D02*
X198418442Y-97256590D01*
X197923204Y-96494685D02*
X197923204Y-96875638D01*
X198304157Y-96913733D01*
X198266061Y-96875638D01*
X198227966Y-96799447D01*
X198227966Y-96608971D01*
X198266061Y-96532780D01*
X198304157Y-96494685D01*
X198380347Y-96456590D01*
X198570823Y-96456590D01*
X198647014Y-96494685D01*
X198685109Y-96532780D01*
X198723204Y-96608971D01*
X198723204Y-96799447D01*
X198685109Y-96875638D01*
X198647014Y-96913733D01*
X193116285Y-103714542D02*
X193725809Y-103714542D01*
X194487714Y-103219304D02*
X194106761Y-103219304D01*
X194068666Y-103600257D01*
X194106761Y-103562161D01*
X194182952Y-103524066D01*
X194373428Y-103524066D01*
X194449619Y-103562161D01*
X194487714Y-103600257D01*
X194525809Y-103676447D01*
X194525809Y-103866923D01*
X194487714Y-103943114D01*
X194449619Y-103981209D01*
X194373428Y-104019304D01*
X194182952Y-104019304D01*
X194106761Y-103981209D01*
X194068666Y-103943114D01*
X195789542Y-116916114D02*
X195789542Y-116306590D01*
X196094304Y-116611352D02*
X195484780Y-116611352D01*
X195294304Y-115544685D02*
X195294304Y-115925638D01*
X195675257Y-115963733D01*
X195637161Y-115925638D01*
X195599066Y-115849447D01*
X195599066Y-115658971D01*
X195637161Y-115582780D01*
X195675257Y-115544685D01*
X195751447Y-115506590D01*
X195941923Y-115506590D01*
X196018114Y-115544685D01*
X196056209Y-115582780D01*
X196094304Y-115658971D01*
X196094304Y-115849447D01*
X196056209Y-115925638D01*
X196018114Y-115963733D01*
X193173342Y-117233566D02*
X193173342Y-116624042D01*
X193478104Y-116928804D02*
X192868580Y-116928804D01*
X193478104Y-115824042D02*
X193478104Y-116281185D01*
X193478104Y-116052614D02*
X192678104Y-116052614D01*
X192792390Y-116128804D01*
X192868580Y-116204995D01*
X192906676Y-116281185D01*
X192754295Y-115519280D02*
X192716200Y-115481185D01*
X192678104Y-115404995D01*
X192678104Y-115214519D01*
X192716200Y-115138328D01*
X192754295Y-115100233D01*
X192830485Y-115062138D01*
X192906676Y-115062138D01*
X193020961Y-115100233D01*
X193478104Y-115557376D01*
X193478104Y-115062138D01*
X190696842Y-117309766D02*
X190696842Y-116700242D01*
X191001604Y-115900242D02*
X191001604Y-116357385D01*
X191001604Y-116128814D02*
X190201604Y-116128814D01*
X190315890Y-116205004D01*
X190392080Y-116281195D01*
X190430176Y-116357385D01*
X190277795Y-115595480D02*
X190239700Y-115557385D01*
X190201604Y-115481195D01*
X190201604Y-115290719D01*
X190239700Y-115214528D01*
X190277795Y-115176433D01*
X190353985Y-115138338D01*
X190430176Y-115138338D01*
X190544461Y-115176433D01*
X191001604Y-115633576D01*
X191001604Y-115138338D01*
X182384790Y-123259904D02*
X182918123Y-123259904D01*
X182575266Y-124059904D01*
X183222885Y-124059904D02*
X183222885Y-123259904D01*
X183489552Y-123831333D01*
X183756219Y-123259904D01*
X183756219Y-124059904D01*
X180124161Y-123996414D02*
X180086066Y-124034509D01*
X179971780Y-124072604D01*
X179895590Y-124072604D01*
X179781304Y-124034509D01*
X179705114Y-123958319D01*
X179667019Y-123882128D01*
X179628923Y-123729747D01*
X179628923Y-123615461D01*
X179667019Y-123463080D01*
X179705114Y-123386890D01*
X179781304Y-123310700D01*
X179895590Y-123272604D01*
X179971780Y-123272604D01*
X180086066Y-123310700D01*
X180124161Y-123348795D01*
X180924161Y-124072604D02*
X180657495Y-123691652D01*
X180467019Y-124072604D02*
X180467019Y-123272604D01*
X180771780Y-123272604D01*
X180847971Y-123310700D01*
X180886066Y-123348795D01*
X180924161Y-123424985D01*
X180924161Y-123539271D01*
X180886066Y-123615461D01*
X180847971Y-123653557D01*
X180771780Y-123691652D01*
X180467019Y-123691652D01*
X181533685Y-123653557D02*
X181267019Y-123653557D01*
X181267019Y-124072604D02*
X181267019Y-123272604D01*
X181647971Y-123272604D01*
X177939709Y-124148795D02*
X177863519Y-124110700D01*
X177787328Y-124034509D01*
X177673042Y-123920223D01*
X177596852Y-123882128D01*
X177520661Y-123882128D01*
X177558757Y-124072604D02*
X177482566Y-124034509D01*
X177406376Y-123958319D01*
X177368280Y-123805938D01*
X177368280Y-123539271D01*
X177406376Y-123386890D01*
X177482566Y-123310700D01*
X177558757Y-123272604D01*
X177711138Y-123272604D01*
X177787328Y-123310700D01*
X177863519Y-123386890D01*
X177901614Y-123539271D01*
X177901614Y-123805938D01*
X177863519Y-123958319D01*
X177787328Y-124034509D01*
X177711138Y-124072604D01*
X177558757Y-124072604D01*
X178168280Y-123272604D02*
X178663519Y-123272604D01*
X178396852Y-123577366D01*
X178511138Y-123577366D01*
X178587328Y-123615461D01*
X178625423Y-123653557D01*
X178663519Y-123729747D01*
X178663519Y-123920223D01*
X178625423Y-123996414D01*
X178587328Y-124034509D01*
X178511138Y-124072604D01*
X178282566Y-124072604D01*
X178206376Y-124034509D01*
X178168280Y-123996414D01*
X174440976Y-124072604D02*
X174440976Y-123272604D01*
X174745738Y-123272604D01*
X174821928Y-123310700D01*
X174860023Y-123348795D01*
X174898119Y-123424985D01*
X174898119Y-123539271D01*
X174860023Y-123615461D01*
X174821928Y-123653557D01*
X174745738Y-123691652D01*
X174440976Y-123691652D01*
X175240976Y-124072604D02*
X175240976Y-123272604D01*
X175240976Y-123653557D02*
X175698119Y-123653557D01*
X175698119Y-124072604D02*
X175698119Y-123272604D01*
X176231452Y-123272604D02*
X176307642Y-123272604D01*
X176383833Y-123310700D01*
X176421928Y-123348795D01*
X176460023Y-123424985D01*
X176498119Y-123577366D01*
X176498119Y-123767842D01*
X176460023Y-123920223D01*
X176421928Y-123996414D01*
X176383833Y-124034509D01*
X176307642Y-124072604D01*
X176231452Y-124072604D01*
X176155261Y-124034509D01*
X176117166Y-123996414D01*
X176079071Y-123920223D01*
X176040976Y-123767842D01*
X176040976Y-123577366D01*
X176079071Y-123424985D01*
X176117166Y-123348795D01*
X176155261Y-123310700D01*
X176231452Y-123272604D01*
X182149876Y-116029400D02*
X182530828Y-116029400D01*
X182340352Y-117227304D02*
X182340352Y-116427304D01*
X182530828Y-116029400D02*
X183330828Y-116029400D01*
X183178447Y-117227304D02*
X182911780Y-116846352D01*
X182721304Y-117227304D02*
X182721304Y-116427304D01*
X183026066Y-116427304D01*
X183102257Y-116465400D01*
X183140352Y-116503495D01*
X183178447Y-116579685D01*
X183178447Y-116693971D01*
X183140352Y-116770161D01*
X183102257Y-116808257D01*
X183026066Y-116846352D01*
X182721304Y-116846352D01*
X183330828Y-116029400D02*
X184168923Y-116029400D01*
X184054638Y-117303495D02*
X183978447Y-117265400D01*
X183902257Y-117189209D01*
X183787971Y-117074923D01*
X183711780Y-117036828D01*
X183635590Y-117036828D01*
X183673685Y-117227304D02*
X183597495Y-117189209D01*
X183521304Y-117113019D01*
X183483209Y-116960638D01*
X183483209Y-116693971D01*
X183521304Y-116541590D01*
X183597495Y-116465400D01*
X183673685Y-116427304D01*
X183826066Y-116427304D01*
X183902257Y-116465400D01*
X183978447Y-116541590D01*
X184016542Y-116693971D01*
X184016542Y-116960638D01*
X183978447Y-117113019D01*
X183902257Y-117189209D01*
X183826066Y-117227304D01*
X183673685Y-117227304D01*
X179336842Y-116029400D02*
X180136842Y-116029400D01*
X179984461Y-117227304D02*
X179717795Y-116846352D01*
X179527319Y-117227304D02*
X179527319Y-116427304D01*
X179832080Y-116427304D01*
X179908271Y-116465400D01*
X179946366Y-116503495D01*
X179984461Y-116579685D01*
X179984461Y-116693971D01*
X179946366Y-116770161D01*
X179908271Y-116808257D01*
X179832080Y-116846352D01*
X179527319Y-116846352D01*
X180136842Y-116029400D02*
X180860652Y-116029400D01*
X180327319Y-116808257D02*
X180593985Y-116808257D01*
X180708271Y-117227304D02*
X180327319Y-117227304D01*
X180327319Y-116427304D01*
X180708271Y-116427304D01*
X180860652Y-116029400D02*
X181622557Y-116029400D01*
X181013033Y-117189209D02*
X181127319Y-117227304D01*
X181317795Y-117227304D01*
X181393985Y-117189209D01*
X181432080Y-117151114D01*
X181470176Y-117074923D01*
X181470176Y-116998733D01*
X181432080Y-116922542D01*
X181393985Y-116884447D01*
X181317795Y-116846352D01*
X181165414Y-116808257D01*
X181089223Y-116770161D01*
X181051128Y-116732066D01*
X181013033Y-116655876D01*
X181013033Y-116579685D01*
X181051128Y-116503495D01*
X181089223Y-116465400D01*
X181165414Y-116427304D01*
X181355890Y-116427304D01*
X181470176Y-116465400D01*
X177819076Y-117227304D02*
X177552409Y-116846352D01*
X177361933Y-117227304D02*
X177361933Y-116427304D01*
X177666695Y-116427304D01*
X177742885Y-116465400D01*
X177780980Y-116503495D01*
X177819076Y-116579685D01*
X177819076Y-116693971D01*
X177780980Y-116770161D01*
X177742885Y-116808257D01*
X177666695Y-116846352D01*
X177361933Y-116846352D01*
X178085742Y-116427304D02*
X178276219Y-117227304D01*
X178428600Y-116655876D01*
X178580980Y-117227304D01*
X178771457Y-116427304D01*
X174396528Y-116029400D02*
X174777480Y-116029400D01*
X174587004Y-117227304D02*
X174587004Y-116427304D01*
X174777480Y-116029400D02*
X175615576Y-116029400D01*
X174967957Y-117227304D02*
X174967957Y-116427304D01*
X175425100Y-117227304D01*
X175425100Y-116427304D01*
X175615576Y-116029400D02*
X176453671Y-116029400D01*
X175806052Y-117227304D02*
X175806052Y-116427304D01*
X175806052Y-116808257D02*
X176263195Y-116808257D01*
X176263195Y-117227304D02*
X176263195Y-116427304D01*
X162191771Y-123615433D02*
X162572723Y-123615433D01*
X162115580Y-123844004D02*
X162382247Y-123044004D01*
X162648914Y-123844004D01*
X163067961Y-123044004D02*
X163144152Y-123044004D01*
X163220342Y-123082100D01*
X163258438Y-123120195D01*
X163296533Y-123196385D01*
X163334628Y-123348766D01*
X163334628Y-123539242D01*
X163296533Y-123691623D01*
X163258438Y-123767814D01*
X163220342Y-123805909D01*
X163144152Y-123844004D01*
X163067961Y-123844004D01*
X162991771Y-123805909D01*
X162953676Y-123767814D01*
X162915580Y-123691623D01*
X162877485Y-123539242D01*
X162877485Y-123348766D01*
X162915580Y-123196385D01*
X162953676Y-123120195D01*
X162991771Y-123082100D01*
X163067961Y-123044004D01*
X159664471Y-123615433D02*
X160045423Y-123615433D01*
X159588280Y-123844004D02*
X159854947Y-123044004D01*
X160121614Y-123844004D01*
X160350185Y-123120195D02*
X160388280Y-123082100D01*
X160464471Y-123044004D01*
X160654947Y-123044004D01*
X160731138Y-123082100D01*
X160769233Y-123120195D01*
X160807328Y-123196385D01*
X160807328Y-123272576D01*
X160769233Y-123386861D01*
X160312090Y-123844004D01*
X160807328Y-123844004D01*
X157111771Y-123615433D02*
X157492723Y-123615433D01*
X157035580Y-123844004D02*
X157302247Y-123044004D01*
X157568914Y-123844004D01*
X158178438Y-123310671D02*
X158178438Y-123844004D01*
X157987961Y-123005909D02*
X157797485Y-123577338D01*
X158292723Y-123577338D01*
X154622571Y-123615433D02*
X155003523Y-123615433D01*
X154546380Y-123844004D02*
X154813047Y-123044004D01*
X155079714Y-123844004D01*
X155689238Y-123044004D02*
X155536857Y-123044004D01*
X155460666Y-123082100D01*
X155422571Y-123120195D01*
X155346380Y-123234480D01*
X155308285Y-123386861D01*
X155308285Y-123691623D01*
X155346380Y-123767814D01*
X155384476Y-123805909D01*
X155460666Y-123844004D01*
X155613047Y-123844004D01*
X155689238Y-123805909D01*
X155727333Y-123767814D01*
X155765428Y-123691623D01*
X155765428Y-123501147D01*
X155727333Y-123424957D01*
X155689238Y-123386861D01*
X155613047Y-123348766D01*
X155460666Y-123348766D01*
X155384476Y-123386861D01*
X155346380Y-123424957D01*
X155308285Y-123501147D01*
X162267971Y-117036833D02*
X162648923Y-117036833D01*
X162191780Y-117265404D02*
X162458447Y-116465404D01*
X162725114Y-117265404D01*
X163410828Y-117265404D02*
X162953685Y-117265404D01*
X163182257Y-117265404D02*
X163182257Y-116465404D01*
X163106066Y-116579690D01*
X163029876Y-116655880D01*
X162953685Y-116693976D01*
X159677171Y-117036833D02*
X160058123Y-117036833D01*
X159600980Y-117265404D02*
X159867647Y-116465404D01*
X160134314Y-117265404D01*
X160324790Y-116465404D02*
X160820028Y-116465404D01*
X160553361Y-116770166D01*
X160667647Y-116770166D01*
X160743838Y-116808261D01*
X160781933Y-116846357D01*
X160820028Y-116922547D01*
X160820028Y-117113023D01*
X160781933Y-117189214D01*
X160743838Y-117227309D01*
X160667647Y-117265404D01*
X160439076Y-117265404D01*
X160362885Y-117227309D01*
X160324790Y-117189214D01*
X157200671Y-117036833D02*
X157581623Y-117036833D01*
X157124480Y-117265404D02*
X157391147Y-116465404D01*
X157657814Y-117265404D01*
X158305433Y-116465404D02*
X157924480Y-116465404D01*
X157886385Y-116846357D01*
X157924480Y-116808261D01*
X158000671Y-116770166D01*
X158191147Y-116770166D01*
X158267338Y-116808261D01*
X158305433Y-116846357D01*
X158343528Y-116922547D01*
X158343528Y-117113023D01*
X158305433Y-117189214D01*
X158267338Y-117227309D01*
X158191147Y-117265404D01*
X158000671Y-117265404D01*
X157924480Y-117227309D01*
X157886385Y-117189214D01*
X154609871Y-117036833D02*
X154990823Y-117036833D01*
X154533680Y-117265404D02*
X154800347Y-116465404D01*
X155067014Y-117265404D01*
X155257490Y-116465404D02*
X155790823Y-116465404D01*
X155447966Y-117265404D01*
X150323533Y-124218676D02*
X150323533Y-123837724D01*
X150552104Y-124294867D02*
X149752104Y-124028200D01*
X150552104Y-123761533D01*
X150094961Y-123380581D02*
X150056866Y-123456771D01*
X150018771Y-123494867D01*
X149942580Y-123532962D01*
X149904485Y-123532962D01*
X149828295Y-123494867D01*
X149790200Y-123456771D01*
X149752104Y-123380581D01*
X149752104Y-123228200D01*
X149790200Y-123152009D01*
X149828295Y-123113914D01*
X149904485Y-123075819D01*
X149942580Y-123075819D01*
X150018771Y-123113914D01*
X150056866Y-123152009D01*
X150094961Y-123228200D01*
X150094961Y-123380581D01*
X150133057Y-123456771D01*
X150171152Y-123494867D01*
X150247342Y-123532962D01*
X150399723Y-123532962D01*
X150475914Y-123494867D01*
X150514009Y-123456771D01*
X150552104Y-123380581D01*
X150552104Y-123228200D01*
X150514009Y-123152009D01*
X150475914Y-123113914D01*
X150399723Y-123075819D01*
X150247342Y-123075819D01*
X150171152Y-123113914D01*
X150133057Y-123152009D01*
X150094961Y-123228200D01*
X147758133Y-124980580D02*
X147758133Y-124599628D01*
X147986704Y-125056771D02*
X147186704Y-124790104D01*
X147986704Y-124523438D01*
X147986704Y-123837723D02*
X147986704Y-124294866D01*
X147986704Y-124066295D02*
X147186704Y-124066295D01*
X147300990Y-124142485D01*
X147377180Y-124218676D01*
X147415276Y-124294866D01*
X147186704Y-123342485D02*
X147186704Y-123266295D01*
X147224800Y-123190104D01*
X147262895Y-123152009D01*
X147339085Y-123113914D01*
X147491466Y-123075819D01*
X147681942Y-123075819D01*
X147834323Y-123113914D01*
X147910514Y-123152009D01*
X147948609Y-123190104D01*
X147986704Y-123266295D01*
X147986704Y-123342485D01*
X147948609Y-123418676D01*
X147910514Y-123456771D01*
X147834323Y-123494866D01*
X147681942Y-123532961D01*
X147491466Y-123532961D01*
X147339085Y-123494866D01*
X147262895Y-123456771D01*
X147224800Y-123418676D01*
X147186704Y-123342485D01*
X145141933Y-124967880D02*
X145141933Y-124586928D01*
X145370504Y-125044071D02*
X144570504Y-124777404D01*
X145370504Y-124510738D01*
X145370504Y-123825023D02*
X145370504Y-124282166D01*
X145370504Y-124053595D02*
X144570504Y-124053595D01*
X144684790Y-124129785D01*
X144760980Y-124205976D01*
X144799076Y-124282166D01*
X144646695Y-123520261D02*
X144608600Y-123482166D01*
X144570504Y-123405976D01*
X144570504Y-123215500D01*
X144608600Y-123139309D01*
X144646695Y-123101214D01*
X144722885Y-123063119D01*
X144799076Y-123063119D01*
X144913361Y-123101214D01*
X145370504Y-123558357D01*
X145370504Y-123063119D01*
X142576533Y-124942480D02*
X142576533Y-124561528D01*
X142805104Y-125018671D02*
X142005104Y-124752004D01*
X142805104Y-124485338D01*
X142805104Y-123799623D02*
X142805104Y-124256766D01*
X142805104Y-124028195D02*
X142005104Y-124028195D01*
X142119390Y-124104385D01*
X142195580Y-124180576D01*
X142233676Y-124256766D01*
X142271771Y-123113909D02*
X142805104Y-123113909D01*
X141967009Y-123304385D02*
X142538438Y-123494861D01*
X142538438Y-122999623D01*
X150133033Y-117220881D02*
X150133033Y-116839929D01*
X150361604Y-117297072D02*
X149561604Y-117030405D01*
X150361604Y-116763738D01*
X150361604Y-116458976D02*
X150361604Y-116306595D01*
X150323509Y-116230405D01*
X150285414Y-116192310D01*
X150171128Y-116116119D01*
X150018747Y-116078024D01*
X149713985Y-116078024D01*
X149637795Y-116116119D01*
X149599700Y-116154214D01*
X149561604Y-116230405D01*
X149561604Y-116382786D01*
X149599700Y-116458976D01*
X149637795Y-116497072D01*
X149713985Y-116535167D01*
X149904461Y-116535167D01*
X149980652Y-116497072D01*
X150018747Y-116458976D01*
X150056842Y-116382786D01*
X150056842Y-116230405D01*
X150018747Y-116154214D01*
X149980652Y-116116119D01*
X149904461Y-116078024D01*
X147593033Y-117220880D02*
X147593033Y-116839928D01*
X147821604Y-117297071D02*
X147021604Y-117030404D01*
X147821604Y-116763738D01*
X147821604Y-116078023D02*
X147821604Y-116535166D01*
X147821604Y-116306595D02*
X147021604Y-116306595D01*
X147135890Y-116382785D01*
X147212080Y-116458976D01*
X147250176Y-116535166D01*
X147821604Y-115316119D02*
X147821604Y-115773261D01*
X147821604Y-115544690D02*
X147021604Y-115544690D01*
X147135890Y-115620880D01*
X147212080Y-115697071D01*
X147250176Y-115773261D01*
X145103833Y-117220880D02*
X145103833Y-116839928D01*
X145332404Y-117297071D02*
X144532404Y-117030404D01*
X145332404Y-116763738D01*
X145332404Y-116078023D02*
X145332404Y-116535166D01*
X145332404Y-116306595D02*
X144532404Y-116306595D01*
X144646690Y-116382785D01*
X144722880Y-116458976D01*
X144760976Y-116535166D01*
X144532404Y-115811357D02*
X144532404Y-115316119D01*
X144837166Y-115582785D01*
X144837166Y-115468500D01*
X144875261Y-115392309D01*
X144913357Y-115354214D01*
X144989547Y-115316119D01*
X145180023Y-115316119D01*
X145256214Y-115354214D01*
X145294309Y-115392309D01*
X145332404Y-115468500D01*
X145332404Y-115697071D01*
X145294309Y-115773261D01*
X145256214Y-115811357D01*
X142576533Y-117220880D02*
X142576533Y-116839928D01*
X142805104Y-117297071D02*
X142005104Y-117030404D01*
X142805104Y-116763738D01*
X142805104Y-116078023D02*
X142805104Y-116535166D01*
X142805104Y-116306595D02*
X142005104Y-116306595D01*
X142119390Y-116382785D01*
X142195580Y-116458976D01*
X142233676Y-116535166D01*
X142005104Y-115354214D02*
X142005104Y-115735166D01*
X142386057Y-115773261D01*
X142347961Y-115735166D01*
X142309866Y-115658976D01*
X142309866Y-115468500D01*
X142347961Y-115392309D01*
X142386057Y-115354214D01*
X142462247Y-115316119D01*
X142652723Y-115316119D01*
X142728914Y-115354214D01*
X142767009Y-115392309D01*
X142805104Y-115468500D01*
X142805104Y-115658976D01*
X142767009Y-115735166D01*
X142728914Y-115773261D01*
X136772723Y-117176504D02*
X136772723Y-116376504D01*
X136963200Y-116376504D01*
X137077485Y-116414600D01*
X137153676Y-116490790D01*
X137191771Y-116566980D01*
X137229866Y-116719361D01*
X137229866Y-116833647D01*
X137191771Y-116986028D01*
X137153676Y-117062219D01*
X137077485Y-117138409D01*
X136963200Y-117176504D01*
X136772723Y-117176504D01*
X137991771Y-117176504D02*
X137534628Y-117176504D01*
X137763200Y-117176504D02*
X137763200Y-116376504D01*
X137687009Y-116490790D01*
X137610819Y-116566980D01*
X137534628Y-116605076D01*
X136887023Y-123894804D02*
X136887023Y-123094804D01*
X137077500Y-123094804D01*
X137191785Y-123132900D01*
X137267976Y-123209090D01*
X137306071Y-123285280D01*
X137344166Y-123437661D01*
X137344166Y-123551947D01*
X137306071Y-123704328D01*
X137267976Y-123780519D01*
X137191785Y-123856709D01*
X137077500Y-123894804D01*
X136887023Y-123894804D01*
X137839404Y-123094804D02*
X137915595Y-123094804D01*
X137991785Y-123132900D01*
X138029880Y-123170995D01*
X138067976Y-123247185D01*
X138106071Y-123399566D01*
X138106071Y-123590042D01*
X138067976Y-123742423D01*
X138029880Y-123818614D01*
X137991785Y-123856709D01*
X137915595Y-123894804D01*
X137839404Y-123894804D01*
X137763214Y-123856709D01*
X137725119Y-123818614D01*
X137687023Y-123742423D01*
X137648928Y-123590042D01*
X137648928Y-123399566D01*
X137687023Y-123247185D01*
X137725119Y-123170995D01*
X137763214Y-123132900D01*
X137839404Y-123094804D01*
X134296223Y-123894804D02*
X134296223Y-123094804D01*
X134486700Y-123094804D01*
X134600985Y-123132900D01*
X134677176Y-123209090D01*
X134715271Y-123285280D01*
X134753366Y-123437661D01*
X134753366Y-123551947D01*
X134715271Y-123704328D01*
X134677176Y-123780519D01*
X134600985Y-123856709D01*
X134486700Y-123894804D01*
X134296223Y-123894804D01*
X135058128Y-123170995D02*
X135096223Y-123132900D01*
X135172414Y-123094804D01*
X135362890Y-123094804D01*
X135439080Y-123132900D01*
X135477176Y-123170995D01*
X135515271Y-123247185D01*
X135515271Y-123323376D01*
X135477176Y-123437661D01*
X135020033Y-123894804D01*
X135515271Y-123894804D01*
X131756223Y-123894804D02*
X131756223Y-123094804D01*
X131946700Y-123094804D01*
X132060985Y-123132900D01*
X132137176Y-123209090D01*
X132175271Y-123285280D01*
X132213366Y-123437661D01*
X132213366Y-123551947D01*
X132175271Y-123704328D01*
X132137176Y-123780519D01*
X132060985Y-123856709D01*
X131946700Y-123894804D01*
X131756223Y-123894804D01*
X132899080Y-123361471D02*
X132899080Y-123894804D01*
X132708604Y-123056709D02*
X132518128Y-123628138D01*
X133013366Y-123628138D01*
X129216223Y-123894804D02*
X129216223Y-123094804D01*
X129406700Y-123094804D01*
X129520985Y-123132900D01*
X129597176Y-123209090D01*
X129635271Y-123285280D01*
X129673366Y-123437661D01*
X129673366Y-123551947D01*
X129635271Y-123704328D01*
X129597176Y-123780519D01*
X129520985Y-123856709D01*
X129406700Y-123894804D01*
X129216223Y-123894804D01*
X130359080Y-123094804D02*
X130206700Y-123094804D01*
X130130509Y-123132900D01*
X130092414Y-123170995D01*
X130016223Y-123285280D01*
X129978128Y-123437661D01*
X129978128Y-123742423D01*
X130016223Y-123818614D01*
X130054319Y-123856709D01*
X130130509Y-123894804D01*
X130282890Y-123894804D01*
X130359080Y-123856709D01*
X130397176Y-123818614D01*
X130435271Y-123742423D01*
X130435271Y-123551947D01*
X130397176Y-123475757D01*
X130359080Y-123437661D01*
X130282890Y-123399566D01*
X130130509Y-123399566D01*
X130054319Y-123437661D01*
X130016223Y-123475757D01*
X129978128Y-123551947D01*
X134232723Y-117176504D02*
X134232723Y-116376504D01*
X134423200Y-116376504D01*
X134537485Y-116414600D01*
X134613676Y-116490790D01*
X134651771Y-116566980D01*
X134689866Y-116719361D01*
X134689866Y-116833647D01*
X134651771Y-116986028D01*
X134613676Y-117062219D01*
X134537485Y-117138409D01*
X134423200Y-117176504D01*
X134232723Y-117176504D01*
X134956533Y-116376504D02*
X135451771Y-116376504D01*
X135185104Y-116681266D01*
X135299390Y-116681266D01*
X135375580Y-116719361D01*
X135413676Y-116757457D01*
X135451771Y-116833647D01*
X135451771Y-117024123D01*
X135413676Y-117100314D01*
X135375580Y-117138409D01*
X135299390Y-117176504D01*
X135070819Y-117176504D01*
X134994628Y-117138409D01*
X134956533Y-117100314D01*
X131768923Y-117125704D02*
X131768923Y-116325704D01*
X131959400Y-116325704D01*
X132073685Y-116363800D01*
X132149876Y-116439990D01*
X132187971Y-116516180D01*
X132226066Y-116668561D01*
X132226066Y-116782847D01*
X132187971Y-116935228D01*
X132149876Y-117011419D01*
X132073685Y-117087609D01*
X131959400Y-117125704D01*
X131768923Y-117125704D01*
X132949876Y-116325704D02*
X132568923Y-116325704D01*
X132530828Y-116706657D01*
X132568923Y-116668561D01*
X132645114Y-116630466D01*
X132835590Y-116630466D01*
X132911780Y-116668561D01*
X132949876Y-116706657D01*
X132987971Y-116782847D01*
X132987971Y-116973323D01*
X132949876Y-117049514D01*
X132911780Y-117087609D01*
X132835590Y-117125704D01*
X132645114Y-117125704D01*
X132568923Y-117087609D01*
X132530828Y-117049514D01*
X129178123Y-117151104D02*
X129178123Y-116351104D01*
X129368600Y-116351104D01*
X129482885Y-116389200D01*
X129559076Y-116465390D01*
X129597171Y-116541580D01*
X129635266Y-116693961D01*
X129635266Y-116808247D01*
X129597171Y-116960628D01*
X129559076Y-117036819D01*
X129482885Y-117113009D01*
X129368600Y-117151104D01*
X129178123Y-117151104D01*
X129901933Y-116351104D02*
X130435266Y-116351104D01*
X130092409Y-117151104D01*
X119119714Y-123882114D02*
X119081619Y-123920209D01*
X118967333Y-123958304D01*
X118891142Y-123958304D01*
X118776857Y-123920209D01*
X118700666Y-123844019D01*
X118662571Y-123767828D01*
X118624476Y-123615447D01*
X118624476Y-123501161D01*
X118662571Y-123348780D01*
X118700666Y-123272590D01*
X118776857Y-123196400D01*
X118891142Y-123158304D01*
X118967333Y-123158304D01*
X119081619Y-123196400D01*
X119119714Y-123234495D01*
X119614952Y-123158304D02*
X119691142Y-123158304D01*
X119767333Y-123196400D01*
X119805428Y-123234495D01*
X119843523Y-123310685D01*
X119881619Y-123463066D01*
X119881619Y-123653542D01*
X119843523Y-123805923D01*
X119805428Y-123882114D01*
X119767333Y-123920209D01*
X119691142Y-123958304D01*
X119614952Y-123958304D01*
X119538761Y-123920209D01*
X119500666Y-123882114D01*
X119462571Y-123805923D01*
X119424476Y-123653542D01*
X119424476Y-123463066D01*
X119462571Y-123310685D01*
X119500666Y-123234495D01*
X119538761Y-123196400D01*
X119614952Y-123158304D01*
X120567333Y-123158304D02*
X120414952Y-123158304D01*
X120338761Y-123196400D01*
X120300666Y-123234495D01*
X120224476Y-123348780D01*
X120186380Y-123501161D01*
X120186380Y-123805923D01*
X120224476Y-123882114D01*
X120262571Y-123920209D01*
X120338761Y-123958304D01*
X120491142Y-123958304D01*
X120567333Y-123920209D01*
X120605428Y-123882114D01*
X120643523Y-123805923D01*
X120643523Y-123615447D01*
X120605428Y-123539257D01*
X120567333Y-123501161D01*
X120491142Y-123463066D01*
X120338761Y-123463066D01*
X120262571Y-123501161D01*
X120224476Y-123539257D01*
X120186380Y-123615447D01*
X116503523Y-123958304D02*
X116503523Y-123158304D01*
X116960666Y-123958304D02*
X116617809Y-123501161D01*
X116960666Y-123158304D02*
X116503523Y-123615447D01*
X117455904Y-123158304D02*
X117532095Y-123158304D01*
X117608285Y-123196400D01*
X117646380Y-123234495D01*
X117684476Y-123310685D01*
X117722571Y-123463066D01*
X117722571Y-123653542D01*
X117684476Y-123805923D01*
X117646380Y-123882114D01*
X117608285Y-123920209D01*
X117532095Y-123958304D01*
X117455904Y-123958304D01*
X117379714Y-123920209D01*
X117341619Y-123882114D01*
X117303523Y-123805923D01*
X117265428Y-123653542D01*
X117265428Y-123463066D01*
X117303523Y-123310685D01*
X117341619Y-123234495D01*
X117379714Y-123196400D01*
X117455904Y-123158304D01*
X113912723Y-123958304D02*
X113912723Y-123158304D01*
X114369866Y-123958304D02*
X114027009Y-123501161D01*
X114369866Y-123158304D02*
X113912723Y-123615447D01*
X115131771Y-123958304D02*
X114674628Y-123958304D01*
X114903200Y-123958304D02*
X114903200Y-123158304D01*
X114827009Y-123272590D01*
X114750819Y-123348780D01*
X114674628Y-123386876D01*
X111398123Y-123958304D02*
X111398123Y-123158304D01*
X111855266Y-123958304D02*
X111512409Y-123501161D01*
X111855266Y-123158304D02*
X111398123Y-123615447D01*
X112160028Y-123234495D02*
X112198123Y-123196400D01*
X112274314Y-123158304D01*
X112464790Y-123158304D01*
X112540980Y-123196400D01*
X112579076Y-123234495D01*
X112617171Y-123310685D01*
X112617171Y-123386876D01*
X112579076Y-123501161D01*
X112121933Y-123958304D01*
X112617171Y-123958304D01*
X118643542Y-116004000D02*
X119443542Y-116004000D01*
X119291161Y-117201904D02*
X119024495Y-116820952D01*
X118834019Y-117201904D02*
X118834019Y-116401904D01*
X119138780Y-116401904D01*
X119214971Y-116440000D01*
X119253066Y-116478095D01*
X119291161Y-116554285D01*
X119291161Y-116668571D01*
X119253066Y-116744761D01*
X119214971Y-116782857D01*
X119138780Y-116820952D01*
X118834019Y-116820952D01*
X119443542Y-116004000D02*
X120243542Y-116004000D01*
X119634019Y-117201904D02*
X119634019Y-116401904D01*
X119824495Y-116401904D01*
X119938780Y-116440000D01*
X120014971Y-116516190D01*
X120053066Y-116592380D01*
X120091161Y-116744761D01*
X120091161Y-116859047D01*
X120053066Y-117011428D01*
X120014971Y-117087619D01*
X119938780Y-117163809D01*
X119824495Y-117201904D01*
X119634019Y-117201904D01*
X120243542Y-116004000D02*
X120929257Y-116004000D01*
X120586400Y-116820952D02*
X120586400Y-117201904D01*
X120319733Y-116401904D02*
X120586400Y-116820952D01*
X120853066Y-116401904D01*
X116179733Y-116004000D02*
X117017828Y-116004000D01*
X116370209Y-117201904D02*
X116370209Y-116401904D01*
X116827352Y-117201904D01*
X116827352Y-116401904D01*
X117017828Y-116004000D02*
X117932114Y-116004000D01*
X117208304Y-117201904D02*
X117208304Y-116401904D01*
X117474971Y-116973333D01*
X117741638Y-116401904D01*
X117741638Y-117201904D01*
X117932114Y-116004000D02*
X118313066Y-116004000D01*
X118122590Y-117201904D02*
X118122590Y-116401904D01*
X113354000Y-116004000D02*
X114154000Y-116004000D01*
X113544476Y-117201904D02*
X113544476Y-116401904D01*
X113734952Y-116401904D01*
X113849238Y-116440000D01*
X113925428Y-116516190D01*
X113963523Y-116592380D01*
X114001619Y-116744761D01*
X114001619Y-116859047D01*
X113963523Y-117011428D01*
X113925428Y-117087619D01*
X113849238Y-117163809D01*
X113734952Y-117201904D01*
X113544476Y-117201904D01*
X114154000Y-116004000D02*
X115068285Y-116004000D01*
X114344476Y-117201904D02*
X114344476Y-116401904D01*
X114611142Y-116973333D01*
X114877809Y-116401904D01*
X114877809Y-117201904D01*
X115068285Y-116004000D02*
X115754000Y-116004000D01*
X115220666Y-116973333D02*
X115601619Y-116973333D01*
X115144476Y-117201904D02*
X115411142Y-116401904D01*
X115677809Y-117201904D01*
X191135133Y-73793342D02*
X191744657Y-73793342D01*
X192506562Y-73298104D02*
X192125609Y-73298104D01*
X192087514Y-73679057D01*
X192125609Y-73640961D01*
X192201800Y-73602866D01*
X192392276Y-73602866D01*
X192468466Y-73640961D01*
X192506562Y-73679057D01*
X192544657Y-73755247D01*
X192544657Y-73945723D01*
X192506562Y-74021914D01*
X192468466Y-74060009D01*
X192392276Y-74098104D01*
X192201800Y-74098104D01*
X192125609Y-74060009D01*
X192087514Y-74021914D01*
X192773228Y-73298104D02*
X193039895Y-74098104D01*
X193306562Y-73298104D01*
X191135133Y-76536542D02*
X191744657Y-76536542D01*
X191439895Y-76841304D02*
X191439895Y-76231780D01*
X192506562Y-76041304D02*
X192125609Y-76041304D01*
X192087514Y-76422257D01*
X192125609Y-76384161D01*
X192201800Y-76346066D01*
X192392276Y-76346066D01*
X192468466Y-76384161D01*
X192506562Y-76422257D01*
X192544657Y-76498447D01*
X192544657Y-76688923D01*
X192506562Y-76765114D01*
X192468466Y-76803209D01*
X192392276Y-76841304D01*
X192201800Y-76841304D01*
X192125609Y-76803209D01*
X192087514Y-76765114D01*
X192773228Y-76041304D02*
X193039895Y-76841304D01*
X193306562Y-76041304D01*
X190373229Y-79279742D02*
X190982753Y-79279742D01*
X191782753Y-79584504D02*
X191325610Y-79584504D01*
X191554181Y-79584504D02*
X191554181Y-78784504D01*
X191477991Y-78898790D01*
X191401800Y-78974980D01*
X191325610Y-79013076D01*
X192087514Y-78860695D02*
X192125610Y-78822600D01*
X192201800Y-78784504D01*
X192392276Y-78784504D01*
X192468467Y-78822600D01*
X192506562Y-78860695D01*
X192544657Y-78936885D01*
X192544657Y-79013076D01*
X192506562Y-79127361D01*
X192049419Y-79584504D01*
X192544657Y-79584504D01*
X192773229Y-78784504D02*
X193039895Y-79584504D01*
X193306562Y-78784504D01*
D12*
X149352000Y-109855000D02*
X149352000Y-114173000D01*
X149352000Y-71755000D02*
X149352000Y-76200000D01*
X188722000Y-76454000D02*
X150622000Y-76454000D01*
X148082000Y-76454000D02*
X109982000Y-76454000D01*
X188722000Y-109474000D02*
X150622000Y-109474000D01*
X148082000Y-109474000D02*
X109982000Y-109474000D01*
D11*
G36*
X110871000Y-133328500D02*
G01*
X108077000Y-133350000D01*
X108140500Y-115570000D01*
X110807500Y-115570000D01*
X110871000Y-133328500D01*
G37*
X110871000Y-133328500D02*
X108077000Y-133350000D01*
X108140500Y-115570000D01*
X110807500Y-115570000D01*
X110871000Y-133328500D01*
G36*
X128397000Y-133328500D02*
G01*
X125603000Y-133350000D01*
X125666500Y-115570000D01*
X128333500Y-115570000D01*
X128397000Y-133328500D01*
G37*
X128397000Y-133328500D02*
X125603000Y-133350000D01*
X125666500Y-115570000D01*
X128333500Y-115570000D01*
X128397000Y-133328500D01*
G36*
X141478000Y-133328500D02*
G01*
X138684000Y-133350000D01*
X138747500Y-115570000D01*
X141414500Y-115570000D01*
X141478000Y-133328500D01*
G37*
X141478000Y-133328500D02*
X138684000Y-133350000D01*
X138747500Y-115570000D01*
X141414500Y-115570000D01*
X141478000Y-133328500D01*
G36*
X166878000Y-133328500D02*
G01*
X164084000Y-133350000D01*
X164147500Y-115570000D01*
X166814500Y-115570000D01*
X166878000Y-133328500D01*
G37*
X166878000Y-133328500D02*
X164084000Y-133350000D01*
X164147500Y-115570000D01*
X166814500Y-115570000D01*
X166878000Y-133328500D01*
G36*
X154051000Y-133328500D02*
G01*
X151257000Y-133350000D01*
X151320500Y-115570000D01*
X153987500Y-115570000D01*
X154051000Y-133328500D01*
G37*
X154051000Y-133328500D02*
X151257000Y-133350000D01*
X151320500Y-115570000D01*
X153987500Y-115570000D01*
X154051000Y-133328500D01*
G36*
X174244000Y-133328500D02*
G01*
X171450000Y-133350000D01*
X171513500Y-115570000D01*
X174180500Y-115570000D01*
X174244000Y-133328500D01*
G37*
X174244000Y-133328500D02*
X171450000Y-133350000D01*
X171513500Y-115570000D01*
X174180500Y-115570000D01*
X174244000Y-133328500D01*
G36*
X201295000Y-133350000D02*
G01*
X196977000Y-133350000D01*
X196977000Y-115570000D01*
X201295000Y-115570000D01*
X201295000Y-133350000D01*
G37*
X201295000Y-133350000D02*
X196977000Y-133350000D01*
X196977000Y-115570000D01*
X201295000Y-115570000D01*
X201295000Y-133350000D01*
D10*
X111004466Y-117201904D02*
X111004466Y-116401904D01*
X111309228Y-116401904D01*
X111385419Y-116440000D01*
X111423514Y-116478095D01*
X111461609Y-116554285D01*
X111461609Y-116668571D01*
X111423514Y-116744761D01*
X111385419Y-116782857D01*
X111309228Y-116820952D01*
X111004466Y-116820952D01*
X111804466Y-117201904D02*
X111804466Y-116401904D01*
X111994942Y-116401904D01*
X112109228Y-116440000D01*
X112185419Y-116516190D01*
X112223514Y-116592380D01*
X112261609Y-116744761D01*
X112261609Y-116859047D01*
X112223514Y-117011428D01*
X112185419Y-117087619D01*
X112109228Y-117163809D01*
X111994942Y-117201904D01*
X111804466Y-117201904D01*
X112985419Y-117201904D02*
X112604466Y-117201904D01*
X112604466Y-116401904D01*
D12*
X194564000Y-127762000D02*
X194564000Y-130048000D01*
D10*
X195148285Y-124517142D02*
X195757809Y-124517142D01*
X195453047Y-124821904D02*
X195453047Y-124212380D01*
X196519714Y-124021904D02*
X196138761Y-124021904D01*
X196100666Y-124402857D01*
X196138761Y-124364761D01*
X196214952Y-124326666D01*
X196405428Y-124326666D01*
X196481619Y-124364761D01*
X196519714Y-124402857D01*
X196557809Y-124479047D01*
X196557809Y-124669523D01*
X196519714Y-124745714D01*
X196481619Y-124783809D01*
X196405428Y-124821904D01*
X196214952Y-124821904D01*
X196138761Y-124783809D01*
X196100666Y-124745714D01*
D12*
X200152000Y-127762000D02*
X200152000Y-123952000D01*
X194564000Y-127762000D02*
X200152000Y-127762000D01*
D10*
X189052333Y-124644142D02*
X189661857Y-124644142D01*
X190461857Y-124948904D02*
X190004714Y-124948904D01*
X190233285Y-124948904D02*
X190233285Y-124148904D01*
X190157095Y-124263190D01*
X190080904Y-124339380D01*
X190004714Y-124377476D01*
X190766619Y-124225095D02*
X190804714Y-124187000D01*
X190880904Y-124148904D01*
X191071380Y-124148904D01*
X191147571Y-124187000D01*
X191185666Y-124225095D01*
X191223761Y-124301285D01*
X191223761Y-124377476D01*
X191185666Y-124491761D01*
X190728523Y-124948904D01*
X191223761Y-124948904D01*
X191973333Y-124644142D02*
X192582857Y-124644142D01*
X192278095Y-124948904D02*
X192278095Y-124339380D01*
X193382857Y-124948904D02*
X192925714Y-124948904D01*
X193154285Y-124948904D02*
X193154285Y-124148904D01*
X193078095Y-124263190D01*
X193001904Y-124339380D01*
X192925714Y-124377476D01*
X193687619Y-124225095D02*
X193725714Y-124187000D01*
X193801904Y-124148904D01*
X193992380Y-124148904D01*
X194068571Y-124187000D01*
X194106666Y-124225095D01*
X194144761Y-124301285D01*
X194144761Y-124377476D01*
X194106666Y-124491761D01*
X193649523Y-124948904D01*
X194144761Y-124948904D01*
D12*
X188722000Y-123952000D02*
X188722000Y-127762000D01*
X194564000Y-123952000D02*
X188722000Y-123952000D01*
X194564000Y-127762000D02*
X194564000Y-123952000D01*
X188722000Y-127762000D02*
X194564000Y-127762000D01*
D10*
X190373229Y-82022942D02*
X190982753Y-82022942D01*
X190677991Y-82327704D02*
X190677991Y-81718180D01*
X191782753Y-82327704D02*
X191325610Y-82327704D01*
X191554181Y-82327704D02*
X191554181Y-81527704D01*
X191477991Y-81641990D01*
X191401800Y-81718180D01*
X191325610Y-81756276D01*
X192087514Y-81603895D02*
X192125610Y-81565800D01*
X192201800Y-81527704D01*
X192392276Y-81527704D01*
X192468467Y-81565800D01*
X192506562Y-81603895D01*
X192544657Y-81680085D01*
X192544657Y-81756276D01*
X192506562Y-81870561D01*
X192049419Y-82327704D01*
X192544657Y-82327704D01*
X192773229Y-81527704D02*
X193039895Y-82327704D01*
X193306562Y-81527704D01*
D13*
%TO.C,svg2mod*%
G36*
X169253550Y-125456093D02*
G01*
X169155222Y-125525096D01*
X169040263Y-125581473D01*
X168908706Y-125625260D01*
X168760587Y-125656491D01*
X168595940Y-125675204D01*
X168414800Y-125681434D01*
X167542300Y-125681434D01*
X167542300Y-126075459D01*
X170089800Y-126075459D01*
X170089800Y-121882824D01*
X167512300Y-121882824D01*
X167512300Y-122276849D01*
X168293550Y-122276849D01*
X168447085Y-122279244D01*
X168585268Y-122286346D01*
X168708218Y-122298035D01*
X168816050Y-122314192D01*
X168941976Y-122343760D01*
X169050124Y-122383344D01*
X169141050Y-122432657D01*
X169252716Y-122518978D01*
X169345216Y-122621037D01*
X169418550Y-122739121D01*
X169471513Y-122869652D01*
X169503087Y-123011629D01*
X169513550Y-123165338D01*
X169506069Y-123302172D01*
X169483706Y-123428504D01*
X169446577Y-123543971D01*
X169394800Y-123648212D01*
X169327085Y-123743579D01*
X169242143Y-123830738D01*
X169140093Y-123909688D01*
X169021050Y-123980429D01*
X169141050Y-124041070D01*
X169244175Y-124111127D01*
X169330425Y-124190842D01*
X169399800Y-124280455D01*
X169453218Y-124380933D01*
X169491518Y-124493242D01*
X169514585Y-124617622D01*
X169522300Y-124754316D01*
X169515326Y-124905825D01*
X169493179Y-125043563D01*
X169455893Y-125167495D01*
X169403503Y-125277584D01*
X169336044Y-125373795D01*
X169253550Y-125456093D01*
G37*
X169253550Y-125456093D02*
X169155222Y-125525096D01*
X169040263Y-125581473D01*
X168908706Y-125625260D01*
X168760587Y-125656491D01*
X168595940Y-125675204D01*
X168414800Y-125681434D01*
X167542300Y-125681434D01*
X167542300Y-126075459D01*
X170089800Y-126075459D01*
X170089800Y-121882824D01*
X167512300Y-121882824D01*
X167512300Y-122276849D01*
X168293550Y-122276849D01*
X168447085Y-122279244D01*
X168585268Y-122286346D01*
X168708218Y-122298035D01*
X168816050Y-122314192D01*
X168941976Y-122343760D01*
X169050124Y-122383344D01*
X169141050Y-122432657D01*
X169252716Y-122518978D01*
X169345216Y-122621037D01*
X169418550Y-122739121D01*
X169471513Y-122869652D01*
X169503087Y-123011629D01*
X169513550Y-123165338D01*
X169506069Y-123302172D01*
X169483706Y-123428504D01*
X169446577Y-123543971D01*
X169394800Y-123648212D01*
X169327085Y-123743579D01*
X169242143Y-123830738D01*
X169140093Y-123909688D01*
X169021050Y-123980429D01*
X169141050Y-124041070D01*
X169244175Y-124111127D01*
X169330425Y-124190842D01*
X169399800Y-124280455D01*
X169453218Y-124380933D01*
X169491518Y-124493242D01*
X169514585Y-124617622D01*
X169522300Y-124754316D01*
X169515326Y-124905825D01*
X169493179Y-125043563D01*
X169455893Y-125167495D01*
X169403503Y-125277584D01*
X169336044Y-125373795D01*
X169253550Y-125456093D01*
D11*
G36*
X166674800Y-126378060D02*
G01*
X166787300Y-126465621D01*
X166787300Y-126575073D01*
X166873550Y-126575073D01*
X166933550Y-126555758D01*
X166946050Y-126518416D01*
X166936050Y-126486224D01*
X166913550Y-126469484D01*
X166866050Y-126465621D01*
X166787300Y-126465621D01*
X166674800Y-126378060D01*
X166787300Y-126663922D01*
X166787300Y-126783675D01*
X166874800Y-126783675D01*
X166937300Y-126768223D01*
X166956050Y-126723154D01*
X166938550Y-126681949D01*
X166879800Y-126663922D01*
X166787300Y-126663922D01*
X166674800Y-126378060D01*
X166899800Y-126378060D01*
X166991050Y-126393512D01*
X167041050Y-126437293D01*
X167061050Y-126506827D01*
X167039331Y-126575717D01*
X166973550Y-126617566D01*
X167048550Y-126663922D01*
X167073550Y-126739894D01*
X167032300Y-126836469D01*
X166898550Y-126877674D01*
X166674800Y-126877674D01*
X166674800Y-126378060D01*
G37*
G36*
X167384800Y-126378060D02*
G01*
X167358550Y-126681949D01*
X167307300Y-126506827D01*
X167256050Y-126681949D01*
X167358550Y-126681949D01*
X167384800Y-126378060D01*
X167536050Y-126876386D01*
X167414800Y-126876386D01*
X167384800Y-126773373D01*
X167228550Y-126773373D01*
X167198550Y-126876386D01*
X167099800Y-126876386D01*
X167254800Y-126378060D01*
X167384800Y-126378060D01*
G37*
G36*
X167703550Y-126777236D02*
G01*
X167896050Y-126777236D01*
X167896050Y-126876386D01*
X167588550Y-126876386D01*
X167588550Y-126378060D01*
X167703550Y-126378060D01*
X167703550Y-126777236D01*
G37*
G36*
X167953550Y-126378060D02*
G01*
X168064800Y-126469484D01*
X168064800Y-126782387D01*
X168111050Y-126782387D01*
X168203550Y-126734743D01*
X168233550Y-126622717D01*
X168216050Y-126539018D01*
X168173550Y-126484936D01*
X168112300Y-126469484D01*
X168064800Y-126469484D01*
X167953550Y-126378060D01*
X168101050Y-126378060D01*
X168236050Y-126403814D01*
X168314800Y-126484936D01*
X168349800Y-126625292D01*
X168334644Y-126723476D01*
X168288550Y-126804277D01*
X168215425Y-126858198D01*
X168119800Y-126876386D01*
X167953550Y-126876386D01*
X167953550Y-126378060D01*
G37*
D12*
%TO.C,J8*%
X125924000Y-117567400D02*
X125924000Y-122767400D01*
X164084000Y-117567400D02*
X125924000Y-117567400D01*
X166684000Y-122767400D02*
X125924000Y-122767400D01*
X164084000Y-117567400D02*
X164084000Y-120167400D01*
X164084000Y-120167400D02*
X166684000Y-120167400D01*
X166684000Y-120167400D02*
X166684000Y-122767400D01*
X165354000Y-117567400D02*
X166684000Y-117567400D01*
X166684000Y-117567400D02*
X166684000Y-118897400D01*
%TO.C,U1*%
X195205600Y-111368200D02*
X195205600Y-101128200D01*
X199846600Y-111368200D02*
X199846600Y-101128200D01*
X195205600Y-111368200D02*
X199846600Y-111368200D01*
X195205600Y-101128200D02*
X199846600Y-101128200D01*
X196715600Y-111368200D02*
X196715600Y-101128200D01*
X195205600Y-108098200D02*
X196715600Y-108098200D01*
X195205600Y-104397200D02*
X196715600Y-104397200D01*
%TO.C,J9*%
X171583500Y-117567400D02*
X171583500Y-122767400D01*
X181803500Y-117567400D02*
X171583500Y-117567400D01*
X184403500Y-122767400D02*
X171583500Y-122767400D01*
X181803500Y-117567400D02*
X181803500Y-120167400D01*
X181803500Y-120167400D02*
X184403500Y-120167400D01*
X184403500Y-120167400D02*
X184403500Y-122767400D01*
X183073500Y-117567400D02*
X184403500Y-117567400D01*
X184403500Y-117567400D02*
X184403500Y-118897400D01*
%TO.C,J7*%
X108064500Y-117567400D02*
X108064500Y-122767400D01*
X118284500Y-117567400D02*
X108064500Y-117567400D01*
X120884500Y-122767400D02*
X108064500Y-122767400D01*
X118284500Y-117567400D02*
X118284500Y-120167400D01*
X118284500Y-120167400D02*
X120884500Y-120167400D01*
X120884500Y-120167400D02*
X120884500Y-122767400D01*
X119554500Y-117567400D02*
X120884500Y-117567400D01*
X120884500Y-117567400D02*
X120884500Y-118897400D01*
%TO.C,J6*%
X189336500Y-117567400D02*
X189336500Y-122767400D01*
X197016500Y-117567400D02*
X189336500Y-117567400D01*
X199616500Y-122767400D02*
X189336500Y-122767400D01*
X197016500Y-117567400D02*
X197016500Y-120167400D01*
X197016500Y-120167400D02*
X199616500Y-120167400D01*
X199616500Y-120167400D02*
X199616500Y-122767400D01*
X198286500Y-117567400D02*
X199616500Y-117567400D01*
X199616500Y-117567400D02*
X199616500Y-118897400D01*
%TO.C,J5*%
X194315600Y-90922800D02*
X194315600Y-96122800D01*
X196915600Y-90922800D02*
X194315600Y-90922800D01*
X199515600Y-96122800D02*
X194315600Y-96122800D01*
X196915600Y-90922800D02*
X196915600Y-93522800D01*
X196915600Y-93522800D02*
X199515600Y-93522800D01*
X199515600Y-93522800D02*
X199515600Y-96122800D01*
X198185600Y-90922800D02*
X199515600Y-90922800D01*
X199515600Y-90922800D02*
X199515600Y-92252800D01*
%TO.C,D4*%
X197599100Y-72677400D02*
X193714100Y-72677400D01*
X193714100Y-72677400D02*
X193714100Y-74947400D01*
X193714100Y-74947400D02*
X197599100Y-74947400D01*
%TO.C,J1*%
X199616500Y-130345000D02*
X189336500Y-130345000D01*
X189336500Y-130345000D02*
X189336500Y-133005000D01*
X189336500Y-133005000D02*
X199616500Y-133005000D01*
X199616500Y-133005000D02*
X199616500Y-130345000D01*
X198666500Y-133005000D02*
X198666500Y-139005000D01*
X198666500Y-139005000D02*
X197906500Y-139005000D01*
X197906500Y-139005000D02*
X197906500Y-133005000D01*
X198606500Y-133005000D02*
X198606500Y-139005000D01*
X198486500Y-133005000D02*
X198486500Y-139005000D01*
X198366500Y-133005000D02*
X198366500Y-139005000D01*
X198246500Y-133005000D02*
X198246500Y-139005000D01*
X198126500Y-133005000D02*
X198126500Y-139005000D01*
X198006500Y-133005000D02*
X198006500Y-139005000D01*
X198666500Y-129947929D02*
X198666500Y-130345000D01*
X197906500Y-129947929D02*
X197906500Y-130345000D01*
X198666500Y-127475000D02*
X198666500Y-127862071D01*
X197906500Y-127475000D02*
X197906500Y-127862071D01*
X197016500Y-130345000D02*
X197016500Y-133005000D01*
X196126500Y-133005000D02*
X196126500Y-139005000D01*
X196126500Y-139005000D02*
X195366500Y-139005000D01*
X195366500Y-139005000D02*
X195366500Y-133005000D01*
X196126500Y-129947929D02*
X196126500Y-130345000D01*
X195366500Y-129947929D02*
X195366500Y-130345000D01*
X196126500Y-127407929D02*
X196126500Y-127862071D01*
X195366500Y-127407929D02*
X195366500Y-127862071D01*
X194476500Y-130345000D02*
X194476500Y-133005000D01*
X193586500Y-133005000D02*
X193586500Y-139005000D01*
X193586500Y-139005000D02*
X192826500Y-139005000D01*
X192826500Y-139005000D02*
X192826500Y-133005000D01*
X193586500Y-129947929D02*
X193586500Y-130345000D01*
X192826500Y-129947929D02*
X192826500Y-130345000D01*
X193586500Y-127407929D02*
X193586500Y-127862071D01*
X192826500Y-127407929D02*
X192826500Y-127862071D01*
X191936500Y-130345000D02*
X191936500Y-133005000D01*
X191046500Y-133005000D02*
X191046500Y-139005000D01*
X191046500Y-139005000D02*
X190286500Y-139005000D01*
X190286500Y-139005000D02*
X190286500Y-133005000D01*
X191046500Y-129947929D02*
X191046500Y-130345000D01*
X190286500Y-129947929D02*
X190286500Y-130345000D01*
X191046500Y-127407929D02*
X191046500Y-127862071D01*
X190286500Y-127407929D02*
X190286500Y-127862071D01*
X198286500Y-125095000D02*
X199556500Y-125095000D01*
X199556500Y-125095000D02*
X199556500Y-126365000D01*
%TO.C,J4*%
X184403500Y-130345000D02*
X171583500Y-130345000D01*
X171583500Y-130345000D02*
X171583500Y-133005000D01*
X171583500Y-133005000D02*
X184403500Y-133005000D01*
X184403500Y-133005000D02*
X184403500Y-130345000D01*
X183453500Y-133005000D02*
X183453500Y-139005000D01*
X183453500Y-139005000D02*
X182693500Y-139005000D01*
X182693500Y-139005000D02*
X182693500Y-133005000D01*
X183393500Y-133005000D02*
X183393500Y-139005000D01*
X183273500Y-133005000D02*
X183273500Y-139005000D01*
X183153500Y-133005000D02*
X183153500Y-139005000D01*
X183033500Y-133005000D02*
X183033500Y-139005000D01*
X182913500Y-133005000D02*
X182913500Y-139005000D01*
X182793500Y-133005000D02*
X182793500Y-139005000D01*
X183453500Y-129947929D02*
X183453500Y-130345000D01*
X182693500Y-129947929D02*
X182693500Y-130345000D01*
X183453500Y-127475000D02*
X183453500Y-127862071D01*
X182693500Y-127475000D02*
X182693500Y-127862071D01*
X181803500Y-130345000D02*
X181803500Y-133005000D01*
X180913500Y-133005000D02*
X180913500Y-139005000D01*
X180913500Y-139005000D02*
X180153500Y-139005000D01*
X180153500Y-139005000D02*
X180153500Y-133005000D01*
X180913500Y-129947929D02*
X180913500Y-130345000D01*
X180153500Y-129947929D02*
X180153500Y-130345000D01*
X180913500Y-127407929D02*
X180913500Y-127862071D01*
X180153500Y-127407929D02*
X180153500Y-127862071D01*
X179263500Y-130345000D02*
X179263500Y-133005000D01*
X178373500Y-133005000D02*
X178373500Y-139005000D01*
X178373500Y-139005000D02*
X177613500Y-139005000D01*
X177613500Y-139005000D02*
X177613500Y-133005000D01*
X178373500Y-129947929D02*
X178373500Y-130345000D01*
X177613500Y-129947929D02*
X177613500Y-130345000D01*
X178373500Y-127407929D02*
X178373500Y-127862071D01*
X177613500Y-127407929D02*
X177613500Y-127862071D01*
X176723500Y-130345000D02*
X176723500Y-133005000D01*
X175833500Y-133005000D02*
X175833500Y-139005000D01*
X175833500Y-139005000D02*
X175073500Y-139005000D01*
X175073500Y-139005000D02*
X175073500Y-133005000D01*
X175833500Y-129947929D02*
X175833500Y-130345000D01*
X175073500Y-129947929D02*
X175073500Y-130345000D01*
X175833500Y-127407929D02*
X175833500Y-127862071D01*
X175073500Y-127407929D02*
X175073500Y-127862071D01*
X174183500Y-130345000D02*
X174183500Y-133005000D01*
X173293500Y-133005000D02*
X173293500Y-139005000D01*
X173293500Y-139005000D02*
X172533500Y-139005000D01*
X172533500Y-139005000D02*
X172533500Y-133005000D01*
X173293500Y-129947929D02*
X173293500Y-130345000D01*
X172533500Y-129947929D02*
X172533500Y-130345000D01*
X173293500Y-127407929D02*
X173293500Y-127862071D01*
X172533500Y-127407929D02*
X172533500Y-127862071D01*
X183073500Y-125095000D02*
X184343500Y-125095000D01*
X184343500Y-125095000D02*
X184343500Y-126365000D01*
%TO.C,J2*%
X120884500Y-130345000D02*
X108064500Y-130345000D01*
X108064500Y-130345000D02*
X108064500Y-133005000D01*
X108064500Y-133005000D02*
X120884500Y-133005000D01*
X120884500Y-133005000D02*
X120884500Y-130345000D01*
X119934500Y-133005000D02*
X119934500Y-139005000D01*
X119934500Y-139005000D02*
X119174500Y-139005000D01*
X119174500Y-139005000D02*
X119174500Y-133005000D01*
X119874500Y-133005000D02*
X119874500Y-139005000D01*
X119754500Y-133005000D02*
X119754500Y-139005000D01*
X119634500Y-133005000D02*
X119634500Y-139005000D01*
X119514500Y-133005000D02*
X119514500Y-139005000D01*
X119394500Y-133005000D02*
X119394500Y-139005000D01*
X119274500Y-133005000D02*
X119274500Y-139005000D01*
X119934500Y-129947929D02*
X119934500Y-130345000D01*
X119174500Y-129947929D02*
X119174500Y-130345000D01*
X119934500Y-127475000D02*
X119934500Y-127862071D01*
X119174500Y-127475000D02*
X119174500Y-127862071D01*
X118284500Y-130345000D02*
X118284500Y-133005000D01*
X117394500Y-133005000D02*
X117394500Y-139005000D01*
X117394500Y-139005000D02*
X116634500Y-139005000D01*
X116634500Y-139005000D02*
X116634500Y-133005000D01*
X117394500Y-129947929D02*
X117394500Y-130345000D01*
X116634500Y-129947929D02*
X116634500Y-130345000D01*
X117394500Y-127407929D02*
X117394500Y-127862071D01*
X116634500Y-127407929D02*
X116634500Y-127862071D01*
X115744500Y-130345000D02*
X115744500Y-133005000D01*
X114854500Y-133005000D02*
X114854500Y-139005000D01*
X114854500Y-139005000D02*
X114094500Y-139005000D01*
X114094500Y-139005000D02*
X114094500Y-133005000D01*
X114854500Y-129947929D02*
X114854500Y-130345000D01*
X114094500Y-129947929D02*
X114094500Y-130345000D01*
X114854500Y-127407929D02*
X114854500Y-127862071D01*
X114094500Y-127407929D02*
X114094500Y-127862071D01*
X113204500Y-130345000D02*
X113204500Y-133005000D01*
X112314500Y-133005000D02*
X112314500Y-139005000D01*
X112314500Y-139005000D02*
X111554500Y-139005000D01*
X111554500Y-139005000D02*
X111554500Y-133005000D01*
X112314500Y-129947929D02*
X112314500Y-130345000D01*
X111554500Y-129947929D02*
X111554500Y-130345000D01*
X112314500Y-127407929D02*
X112314500Y-127862071D01*
X111554500Y-127407929D02*
X111554500Y-127862071D01*
X110664500Y-130345000D02*
X110664500Y-133005000D01*
X109774500Y-133005000D02*
X109774500Y-139005000D01*
X109774500Y-139005000D02*
X109014500Y-139005000D01*
X109014500Y-139005000D02*
X109014500Y-133005000D01*
X109774500Y-129947929D02*
X109774500Y-130345000D01*
X109014500Y-129947929D02*
X109014500Y-130345000D01*
X109774500Y-127407929D02*
X109774500Y-127862071D01*
X109014500Y-127407929D02*
X109014500Y-127862071D01*
X119554500Y-125095000D02*
X120824500Y-125095000D01*
X120824500Y-125095000D02*
X120824500Y-126365000D01*
%TO.C,J3*%
X166684000Y-130345000D02*
X125924000Y-130345000D01*
X125924000Y-130345000D02*
X125924000Y-133005000D01*
X125924000Y-133005000D02*
X166684000Y-133005000D01*
X166684000Y-133005000D02*
X166684000Y-130345000D01*
X165734000Y-133005000D02*
X165734000Y-139005000D01*
X165734000Y-139005000D02*
X164974000Y-139005000D01*
X164974000Y-139005000D02*
X164974000Y-133005000D01*
X165674000Y-133005000D02*
X165674000Y-139005000D01*
X165554000Y-133005000D02*
X165554000Y-139005000D01*
X165434000Y-133005000D02*
X165434000Y-139005000D01*
X165314000Y-133005000D02*
X165314000Y-139005000D01*
X165194000Y-133005000D02*
X165194000Y-139005000D01*
X165074000Y-133005000D02*
X165074000Y-139005000D01*
X165734000Y-129947929D02*
X165734000Y-130345000D01*
X164974000Y-129947929D02*
X164974000Y-130345000D01*
X165734000Y-127475000D02*
X165734000Y-127862071D01*
X164974000Y-127475000D02*
X164974000Y-127862071D01*
X164084000Y-130345000D02*
X164084000Y-133005000D01*
X163194000Y-133005000D02*
X163194000Y-139005000D01*
X163194000Y-139005000D02*
X162434000Y-139005000D01*
X162434000Y-139005000D02*
X162434000Y-133005000D01*
X163194000Y-129947929D02*
X163194000Y-130345000D01*
X162434000Y-129947929D02*
X162434000Y-130345000D01*
X163194000Y-127407929D02*
X163194000Y-127862071D01*
X162434000Y-127407929D02*
X162434000Y-127862071D01*
X161544000Y-130345000D02*
X161544000Y-133005000D01*
X160654000Y-133005000D02*
X160654000Y-139005000D01*
X160654000Y-139005000D02*
X159894000Y-139005000D01*
X159894000Y-139005000D02*
X159894000Y-133005000D01*
X160654000Y-129947929D02*
X160654000Y-130345000D01*
X159894000Y-129947929D02*
X159894000Y-130345000D01*
X160654000Y-127407929D02*
X160654000Y-127862071D01*
X159894000Y-127407929D02*
X159894000Y-127862071D01*
X159004000Y-130345000D02*
X159004000Y-133005000D01*
X158114000Y-133005000D02*
X158114000Y-139005000D01*
X158114000Y-139005000D02*
X157354000Y-139005000D01*
X157354000Y-139005000D02*
X157354000Y-133005000D01*
X158114000Y-129947929D02*
X158114000Y-130345000D01*
X157354000Y-129947929D02*
X157354000Y-130345000D01*
X158114000Y-127407929D02*
X158114000Y-127862071D01*
X157354000Y-127407929D02*
X157354000Y-127862071D01*
X156464000Y-130345000D02*
X156464000Y-133005000D01*
X155574000Y-133005000D02*
X155574000Y-139005000D01*
X155574000Y-139005000D02*
X154814000Y-139005000D01*
X154814000Y-139005000D02*
X154814000Y-133005000D01*
X155574000Y-129947929D02*
X155574000Y-130345000D01*
X154814000Y-129947929D02*
X154814000Y-130345000D01*
X155574000Y-127407929D02*
X155574000Y-127862071D01*
X154814000Y-127407929D02*
X154814000Y-127862071D01*
X153924000Y-130345000D02*
X153924000Y-133005000D01*
X153034000Y-133005000D02*
X153034000Y-139005000D01*
X153034000Y-139005000D02*
X152274000Y-139005000D01*
X152274000Y-139005000D02*
X152274000Y-133005000D01*
X153034000Y-129947929D02*
X153034000Y-130345000D01*
X152274000Y-129947929D02*
X152274000Y-130345000D01*
X153034000Y-127407929D02*
X153034000Y-127862071D01*
X152274000Y-127407929D02*
X152274000Y-127862071D01*
X151384000Y-130345000D02*
X151384000Y-133005000D01*
X150494000Y-133005000D02*
X150494000Y-139005000D01*
X150494000Y-139005000D02*
X149734000Y-139005000D01*
X149734000Y-139005000D02*
X149734000Y-133005000D01*
X150494000Y-129947929D02*
X150494000Y-130345000D01*
X149734000Y-129947929D02*
X149734000Y-130345000D01*
X150494000Y-127407929D02*
X150494000Y-127862071D01*
X149734000Y-127407929D02*
X149734000Y-127862071D01*
X148844000Y-130345000D02*
X148844000Y-133005000D01*
X147954000Y-133005000D02*
X147954000Y-139005000D01*
X147954000Y-139005000D02*
X147194000Y-139005000D01*
X147194000Y-139005000D02*
X147194000Y-133005000D01*
X147954000Y-129947929D02*
X147954000Y-130345000D01*
X147194000Y-129947929D02*
X147194000Y-130345000D01*
X147954000Y-127407929D02*
X147954000Y-127862071D01*
X147194000Y-127407929D02*
X147194000Y-127862071D01*
X146304000Y-130345000D02*
X146304000Y-133005000D01*
X145414000Y-133005000D02*
X145414000Y-139005000D01*
X145414000Y-139005000D02*
X144654000Y-139005000D01*
X144654000Y-139005000D02*
X144654000Y-133005000D01*
X145414000Y-129947929D02*
X145414000Y-130345000D01*
X144654000Y-129947929D02*
X144654000Y-130345000D01*
X145414000Y-127407929D02*
X145414000Y-127862071D01*
X144654000Y-127407929D02*
X144654000Y-127862071D01*
X143764000Y-130345000D02*
X143764000Y-133005000D01*
X142874000Y-133005000D02*
X142874000Y-139005000D01*
X142874000Y-139005000D02*
X142114000Y-139005000D01*
X142114000Y-139005000D02*
X142114000Y-133005000D01*
X142874000Y-129947929D02*
X142874000Y-130345000D01*
X142114000Y-129947929D02*
X142114000Y-130345000D01*
X142874000Y-127407929D02*
X142874000Y-127862071D01*
X142114000Y-127407929D02*
X142114000Y-127862071D01*
X141224000Y-130345000D02*
X141224000Y-133005000D01*
X140334000Y-133005000D02*
X140334000Y-139005000D01*
X140334000Y-139005000D02*
X139574000Y-139005000D01*
X139574000Y-139005000D02*
X139574000Y-133005000D01*
X140334000Y-129947929D02*
X140334000Y-130345000D01*
X139574000Y-129947929D02*
X139574000Y-130345000D01*
X140334000Y-127407929D02*
X140334000Y-127862071D01*
X139574000Y-127407929D02*
X139574000Y-127862071D01*
X138684000Y-130345000D02*
X138684000Y-133005000D01*
X137794000Y-133005000D02*
X137794000Y-139005000D01*
X137794000Y-139005000D02*
X137034000Y-139005000D01*
X137034000Y-139005000D02*
X137034000Y-133005000D01*
X137794000Y-129947929D02*
X137794000Y-130345000D01*
X137034000Y-129947929D02*
X137034000Y-130345000D01*
X137794000Y-127407929D02*
X137794000Y-127862071D01*
X137034000Y-127407929D02*
X137034000Y-127862071D01*
X136144000Y-130345000D02*
X136144000Y-133005000D01*
X135254000Y-133005000D02*
X135254000Y-139005000D01*
X135254000Y-139005000D02*
X134494000Y-139005000D01*
X134494000Y-139005000D02*
X134494000Y-133005000D01*
X135254000Y-129947929D02*
X135254000Y-130345000D01*
X134494000Y-129947929D02*
X134494000Y-130345000D01*
X135254000Y-127407929D02*
X135254000Y-127862071D01*
X134494000Y-127407929D02*
X134494000Y-127862071D01*
X133604000Y-130345000D02*
X133604000Y-133005000D01*
X132714000Y-133005000D02*
X132714000Y-139005000D01*
X132714000Y-139005000D02*
X131954000Y-139005000D01*
X131954000Y-139005000D02*
X131954000Y-133005000D01*
X132714000Y-129947929D02*
X132714000Y-130345000D01*
X131954000Y-129947929D02*
X131954000Y-130345000D01*
X132714000Y-127407929D02*
X132714000Y-127862071D01*
X131954000Y-127407929D02*
X131954000Y-127862071D01*
X131064000Y-130345000D02*
X131064000Y-133005000D01*
X130174000Y-133005000D02*
X130174000Y-139005000D01*
X130174000Y-139005000D02*
X129414000Y-139005000D01*
X129414000Y-139005000D02*
X129414000Y-133005000D01*
X130174000Y-129947929D02*
X130174000Y-130345000D01*
X129414000Y-129947929D02*
X129414000Y-130345000D01*
X130174000Y-127407929D02*
X130174000Y-127862071D01*
X129414000Y-127407929D02*
X129414000Y-127862071D01*
X128524000Y-130345000D02*
X128524000Y-133005000D01*
X127634000Y-133005000D02*
X127634000Y-139005000D01*
X127634000Y-139005000D02*
X126874000Y-139005000D01*
X126874000Y-139005000D02*
X126874000Y-133005000D01*
X127634000Y-129947929D02*
X127634000Y-130345000D01*
X126874000Y-129947929D02*
X126874000Y-130345000D01*
X127634000Y-127407929D02*
X127634000Y-127862071D01*
X126874000Y-127407929D02*
X126874000Y-127862071D01*
X165354000Y-125095000D02*
X166624000Y-125095000D01*
X166624000Y-125095000D02*
X166624000Y-126365000D01*
%TO.C,D3*%
X193714100Y-82999200D02*
X197599100Y-82999200D01*
X193714100Y-80729200D02*
X193714100Y-82999200D01*
X197599100Y-80729200D02*
X193714100Y-80729200D01*
%TO.C,D2*%
X193714100Y-77631334D02*
X197599100Y-77631334D01*
X193714100Y-75361334D02*
X193714100Y-77631334D01*
X197599100Y-75361334D02*
X193714100Y-75361334D01*
%TO.C,D1*%
X193714100Y-80315267D02*
X197599100Y-80315267D01*
X193714100Y-78045267D02*
X193714100Y-80315267D01*
X197599100Y-78045267D02*
X193714100Y-78045267D01*
%TO.C,J8*%
D10*
X167245904Y-120434066D02*
X167817333Y-120434066D01*
X167931619Y-120472161D01*
X168007809Y-120548352D01*
X168045904Y-120662638D01*
X168045904Y-120738828D01*
X167588761Y-119938828D02*
X167550666Y-120015019D01*
X167512571Y-120053114D01*
X167436380Y-120091209D01*
X167398285Y-120091209D01*
X167322095Y-120053114D01*
X167284000Y-120015019D01*
X167245904Y-119938828D01*
X167245904Y-119786447D01*
X167284000Y-119710257D01*
X167322095Y-119672161D01*
X167398285Y-119634066D01*
X167436380Y-119634066D01*
X167512571Y-119672161D01*
X167550666Y-119710257D01*
X167588761Y-119786447D01*
X167588761Y-119938828D01*
X167626857Y-120015019D01*
X167664952Y-120053114D01*
X167741142Y-120091209D01*
X167893523Y-120091209D01*
X167969714Y-120053114D01*
X168007809Y-120015019D01*
X168045904Y-119938828D01*
X168045904Y-119786447D01*
X168007809Y-119710257D01*
X167969714Y-119672161D01*
X167893523Y-119634066D01*
X167741142Y-119634066D01*
X167664952Y-119672161D01*
X167626857Y-119710257D01*
X167588761Y-119786447D01*
%TO.C,U1*%
X193767504Y-106857723D02*
X194415123Y-106857723D01*
X194491314Y-106819628D01*
X194529409Y-106781533D01*
X194567504Y-106705342D01*
X194567504Y-106552961D01*
X194529409Y-106476771D01*
X194491314Y-106438676D01*
X194415123Y-106400580D01*
X193767504Y-106400580D01*
X194567504Y-105600580D02*
X194567504Y-106057723D01*
X194567504Y-105829152D02*
X193767504Y-105829152D01*
X193881790Y-105905342D01*
X193957980Y-105981533D01*
X193996076Y-106057723D01*
%TO.C,J9*%
X184965404Y-120434066D02*
X185536833Y-120434066D01*
X185651119Y-120472161D01*
X185727309Y-120548352D01*
X185765404Y-120662638D01*
X185765404Y-120738828D01*
X185765404Y-120015019D02*
X185765404Y-119862638D01*
X185727309Y-119786447D01*
X185689214Y-119748352D01*
X185574928Y-119672161D01*
X185422547Y-119634066D01*
X185117785Y-119634066D01*
X185041595Y-119672161D01*
X185003500Y-119710257D01*
X184965404Y-119786447D01*
X184965404Y-119938828D01*
X185003500Y-120015019D01*
X185041595Y-120053114D01*
X185117785Y-120091209D01*
X185308261Y-120091209D01*
X185384452Y-120053114D01*
X185422547Y-120015019D01*
X185460642Y-119938828D01*
X185460642Y-119786447D01*
X185422547Y-119710257D01*
X185384452Y-119672161D01*
X185308261Y-119634066D01*
%TO.C,J7*%
X121446404Y-120434066D02*
X122017833Y-120434066D01*
X122132119Y-120472161D01*
X122208309Y-120548352D01*
X122246404Y-120662638D01*
X122246404Y-120738828D01*
X121446404Y-120129304D02*
X121446404Y-119595971D01*
X122246404Y-119938828D01*
%TO.C,J6*%
X200178404Y-120434066D02*
X200749833Y-120434066D01*
X200864119Y-120472161D01*
X200940309Y-120548352D01*
X200978404Y-120662638D01*
X200978404Y-120738828D01*
X200178404Y-119710257D02*
X200178404Y-119862638D01*
X200216500Y-119938828D01*
X200254595Y-119976923D01*
X200368880Y-120053114D01*
X200521261Y-120091209D01*
X200826023Y-120091209D01*
X200902214Y-120053114D01*
X200940309Y-120015019D01*
X200978404Y-119938828D01*
X200978404Y-119786447D01*
X200940309Y-119710257D01*
X200902214Y-119672161D01*
X200826023Y-119634066D01*
X200635547Y-119634066D01*
X200559357Y-119672161D01*
X200521261Y-119710257D01*
X200483166Y-119786447D01*
X200483166Y-119938828D01*
X200521261Y-120015019D01*
X200559357Y-120053114D01*
X200635547Y-120091209D01*
%TO.C,J1*%
X200118404Y-132286666D02*
X200689833Y-132286666D01*
X200804119Y-132324761D01*
X200880309Y-132400952D01*
X200918404Y-132515238D01*
X200918404Y-132591428D01*
X200918404Y-131486666D02*
X200918404Y-131943809D01*
X200918404Y-131715238D02*
X200118404Y-131715238D01*
X200232690Y-131791428D01*
X200308880Y-131867619D01*
X200346976Y-131943809D01*
%TO.C,J4*%
X184766004Y-131178266D02*
X185337433Y-131178266D01*
X185451719Y-131216361D01*
X185527909Y-131292552D01*
X185566004Y-131406838D01*
X185566004Y-131483028D01*
X185032671Y-130454457D02*
X185566004Y-130454457D01*
X184727909Y-130644933D02*
X185299338Y-130835409D01*
X185299338Y-130340171D01*
%TO.C,J2*%
X121386404Y-131838666D02*
X121957833Y-131838666D01*
X122072119Y-131876761D01*
X122148309Y-131952952D01*
X122186404Y-132067238D01*
X122186404Y-132143428D01*
X121462595Y-131495809D02*
X121424500Y-131457714D01*
X121386404Y-131381523D01*
X121386404Y-131191047D01*
X121424500Y-131114857D01*
X121462595Y-131076761D01*
X121538785Y-131038666D01*
X121614976Y-131038666D01*
X121729261Y-131076761D01*
X122186404Y-131533904D01*
X122186404Y-131038666D01*
%TO.C,J3*%
X167201904Y-131838666D02*
X167773333Y-131838666D01*
X167887619Y-131876761D01*
X167963809Y-131952952D01*
X168001904Y-132067238D01*
X168001904Y-132143428D01*
X167201904Y-131533904D02*
X167201904Y-131038666D01*
X167506666Y-131305333D01*
X167506666Y-131191047D01*
X167544761Y-131114857D01*
X167582857Y-131076761D01*
X167659047Y-131038666D01*
X167849523Y-131038666D01*
X167925714Y-131076761D01*
X167963809Y-131114857D01*
X168001904Y-131191047D01*
X168001904Y-131419619D01*
X167963809Y-131495809D01*
X167925714Y-131533904D01*
%TD*%
M02*
