%TF.GenerationSoftware,KiCad,Pcbnew,(5.1.10)-1*%
%TF.CreationDate,2021-09-08T13:29:56-05:00*%
%TF.ProjectId,gd protoboard pcb,67642070-726f-4746-9f62-6f6172642070,rev?*%
%TF.SameCoordinates,Original*%
%TF.FileFunction,Soldermask,Bot*%
%TF.FilePolarity,Negative*%
%FSLAX46Y46*%
G04 Gerber Fmt 4.6, Leading zero omitted, Abs format (unit mm)*
G04 Created by KiCad (PCBNEW (5.1.10)-1) date 2021-09-08 13:29:56*
%MOMM*%
%LPD*%
G01*
G04 APERTURE LIST*
%ADD10C,0.100000*%
%ADD11O,1.700000X1.700000*%
%ADD12R,1.700000X1.700000*%
%ADD13O,2.000000X1.905000*%
%ADD14R,2.000000X1.905000*%
%ADD15C,1.700000*%
G04 APERTURE END LIST*
D10*
G36*
X189865000Y-114935000D02*
G01*
X108585000Y-114935000D01*
X108585000Y-71120000D01*
X189865000Y-71120000D01*
X189865000Y-114935000D01*
G37*
X189865000Y-114935000D02*
X108585000Y-114935000D01*
X108585000Y-71120000D01*
X189865000Y-71120000D01*
X189865000Y-114935000D01*
D11*
%TO.C,J8*%
X127254000Y-121437400D03*
X127254000Y-118897400D03*
X129794000Y-121437400D03*
X129794000Y-118897400D03*
X132334000Y-121437400D03*
X132334000Y-118897400D03*
X134874000Y-121437400D03*
X134874000Y-118897400D03*
X137414000Y-121437400D03*
X137414000Y-118897400D03*
X139954000Y-121437400D03*
X139954000Y-118897400D03*
X142494000Y-121437400D03*
X142494000Y-118897400D03*
X145034000Y-121437400D03*
X145034000Y-118897400D03*
X147574000Y-121437400D03*
X147574000Y-118897400D03*
X150114000Y-121437400D03*
X150114000Y-118897400D03*
X152654000Y-121437400D03*
X152654000Y-118897400D03*
X155194000Y-121437400D03*
X155194000Y-118897400D03*
X157734000Y-121437400D03*
X157734000Y-118897400D03*
X160274000Y-121437400D03*
X160274000Y-118897400D03*
X162814000Y-121437400D03*
X162814000Y-118897400D03*
X165354000Y-121437400D03*
D12*
X165354000Y-118897400D03*
%TD*%
D13*
%TO.C,U1*%
X198475600Y-103708200D03*
X198475600Y-106248200D03*
D14*
X198475600Y-108788200D03*
%TD*%
%TO.C,C6*%
G36*
G01*
X196273000Y-100871000D02*
X196273000Y-101821000D01*
G75*
G02*
X196023000Y-102071000I-250000J0D01*
G01*
X195523000Y-102071000D01*
G75*
G02*
X195273000Y-101821000I0J250000D01*
G01*
X195273000Y-100871000D01*
G75*
G02*
X195523000Y-100621000I250000J0D01*
G01*
X196023000Y-100621000D01*
G75*
G02*
X196273000Y-100871000I0J-250000D01*
G01*
G37*
G36*
G01*
X198173000Y-100871000D02*
X198173000Y-101821000D01*
G75*
G02*
X197923000Y-102071000I-250000J0D01*
G01*
X197423000Y-102071000D01*
G75*
G02*
X197173000Y-101821000I0J250000D01*
G01*
X197173000Y-100871000D01*
G75*
G02*
X197423000Y-100621000I250000J0D01*
G01*
X197923000Y-100621000D01*
G75*
G02*
X198173000Y-100871000I0J-250000D01*
G01*
G37*
%TD*%
%TO.C,C5*%
G36*
G01*
X195613000Y-108019000D02*
X196563000Y-108019000D01*
G75*
G02*
X196813000Y-108269000I0J-250000D01*
G01*
X196813000Y-108769000D01*
G75*
G02*
X196563000Y-109019000I-250000J0D01*
G01*
X195613000Y-109019000D01*
G75*
G02*
X195363000Y-108769000I0J250000D01*
G01*
X195363000Y-108269000D01*
G75*
G02*
X195613000Y-108019000I250000J0D01*
G01*
G37*
G36*
G01*
X195613000Y-106119000D02*
X196563000Y-106119000D01*
G75*
G02*
X196813000Y-106369000I0J-250000D01*
G01*
X196813000Y-106869000D01*
G75*
G02*
X196563000Y-107119000I-250000J0D01*
G01*
X195613000Y-107119000D01*
G75*
G02*
X195363000Y-106869000I0J250000D01*
G01*
X195363000Y-106369000D01*
G75*
G02*
X195613000Y-106119000I250000J0D01*
G01*
G37*
%TD*%
D11*
%TO.C,J13*%
X188722000Y-89154000D03*
X188722000Y-86614000D03*
X188722000Y-84074000D03*
X188722000Y-81534000D03*
D15*
X188722000Y-78994000D03*
%TD*%
%TO.C,J13*%
X173482000Y-78994000D03*
D11*
X173482000Y-81534000D03*
X173482000Y-84074000D03*
X173482000Y-86614000D03*
X173482000Y-89154000D03*
%TD*%
D15*
%TO.C,J8*%
X109982000Y-113284000D03*
D11*
X112522000Y-113284000D03*
X115062000Y-113284000D03*
X117602000Y-113284000D03*
%TD*%
%TO.C,J8*%
X188722000Y-113284000D03*
X186182000Y-113284000D03*
X183642000Y-113284000D03*
D15*
X181102000Y-113284000D03*
%TD*%
D11*
%TO.C,J8*%
X117602000Y-110744000D03*
X115062000Y-110744000D03*
X112522000Y-110744000D03*
D15*
X109982000Y-110744000D03*
%TD*%
D11*
%TO.C,J8*%
X158242000Y-113284000D03*
X155702000Y-113284000D03*
X153162000Y-113284000D03*
D15*
X150622000Y-113284000D03*
%TD*%
D11*
%TO.C,J8*%
X178562000Y-113284000D03*
X176022000Y-113284000D03*
X173482000Y-113284000D03*
D15*
X170942000Y-113284000D03*
%TD*%
D11*
%TO.C,J8*%
X137922000Y-113284000D03*
X135382000Y-113284000D03*
X132842000Y-113284000D03*
D15*
X130302000Y-113284000D03*
%TD*%
D11*
%TO.C,J8*%
X168402000Y-113284000D03*
X165862000Y-113284000D03*
X163322000Y-113284000D03*
D15*
X160782000Y-113284000D03*
%TD*%
D11*
%TO.C,J8*%
X148082000Y-113284000D03*
X145542000Y-113284000D03*
X143002000Y-113284000D03*
D15*
X140462000Y-113284000D03*
%TD*%
D11*
%TO.C,J8*%
X127762000Y-113284000D03*
X125222000Y-113284000D03*
X122682000Y-113284000D03*
D15*
X120142000Y-113284000D03*
%TD*%
%TO.C,J8*%
X181102000Y-110744000D03*
D11*
X183642000Y-110744000D03*
X186182000Y-110744000D03*
X188722000Y-110744000D03*
%TD*%
D15*
%TO.C,J8*%
X170942000Y-110744000D03*
D11*
X173482000Y-110744000D03*
X176022000Y-110744000D03*
X178562000Y-110744000D03*
%TD*%
D15*
%TO.C,J8*%
X130302000Y-110744000D03*
D11*
X132842000Y-110744000D03*
X135382000Y-110744000D03*
X137922000Y-110744000D03*
%TD*%
D15*
%TO.C,J8*%
X150622000Y-110744000D03*
D11*
X153162000Y-110744000D03*
X155702000Y-110744000D03*
X158242000Y-110744000D03*
%TD*%
D15*
%TO.C,J8*%
X160782000Y-110744000D03*
D11*
X163322000Y-110744000D03*
X165862000Y-110744000D03*
X168402000Y-110744000D03*
%TD*%
D15*
%TO.C,J8*%
X140462000Y-110744000D03*
D11*
X143002000Y-110744000D03*
X145542000Y-110744000D03*
X148082000Y-110744000D03*
%TD*%
D15*
%TO.C,J8*%
X120142000Y-110744000D03*
D11*
X122682000Y-110744000D03*
X125222000Y-110744000D03*
X127762000Y-110744000D03*
%TD*%
%TO.C,J8*%
X117602000Y-75184000D03*
X115062000Y-75184000D03*
X112522000Y-75184000D03*
D15*
X109982000Y-75184000D03*
%TD*%
%TO.C,J8*%
X181102000Y-75184000D03*
D11*
X183642000Y-75184000D03*
X186182000Y-75184000D03*
X188722000Y-75184000D03*
%TD*%
D15*
%TO.C,J8*%
X170942000Y-75184000D03*
D11*
X173482000Y-75184000D03*
X176022000Y-75184000D03*
X178562000Y-75184000D03*
%TD*%
D15*
%TO.C,J8*%
X130302000Y-75184000D03*
D11*
X132842000Y-75184000D03*
X135382000Y-75184000D03*
X137922000Y-75184000D03*
%TD*%
D15*
%TO.C,J8*%
X150622000Y-75184000D03*
D11*
X153162000Y-75184000D03*
X155702000Y-75184000D03*
X158242000Y-75184000D03*
%TD*%
D15*
%TO.C,J8*%
X160782000Y-75184000D03*
D11*
X163322000Y-75184000D03*
X165862000Y-75184000D03*
X168402000Y-75184000D03*
%TD*%
D15*
%TO.C,J8*%
X140462000Y-75184000D03*
D11*
X143002000Y-75184000D03*
X145542000Y-75184000D03*
X148082000Y-75184000D03*
%TD*%
D15*
%TO.C,J8*%
X120142000Y-75184000D03*
D11*
X122682000Y-75184000D03*
X125222000Y-75184000D03*
X127762000Y-75184000D03*
%TD*%
%TO.C,J13*%
X188722000Y-106934000D03*
X188722000Y-104394000D03*
X188722000Y-101854000D03*
X188722000Y-99314000D03*
D15*
X188722000Y-96774000D03*
%TD*%
D11*
%TO.C,J13*%
X186182000Y-106934000D03*
X186182000Y-104394000D03*
X186182000Y-101854000D03*
X186182000Y-99314000D03*
D15*
X186182000Y-96774000D03*
%TD*%
D11*
%TO.C,J13*%
X186182000Y-89154000D03*
X186182000Y-86614000D03*
X186182000Y-84074000D03*
X186182000Y-81534000D03*
D15*
X186182000Y-78994000D03*
%TD*%
D11*
%TO.C,J8*%
X188722000Y-72644000D03*
X186182000Y-72644000D03*
X183642000Y-72644000D03*
D15*
X181102000Y-72644000D03*
%TD*%
D11*
%TO.C,J8*%
X178562000Y-72644000D03*
X176022000Y-72644000D03*
X173482000Y-72644000D03*
D15*
X170942000Y-72644000D03*
%TD*%
D11*
%TO.C,J8*%
X168402000Y-72644000D03*
X165862000Y-72644000D03*
X163322000Y-72644000D03*
D15*
X160782000Y-72644000D03*
%TD*%
D11*
%TO.C,J8*%
X158242000Y-72644000D03*
X155702000Y-72644000D03*
X153162000Y-72644000D03*
D15*
X150622000Y-72644000D03*
%TD*%
D11*
%TO.C,J8*%
X148082000Y-72644000D03*
X145542000Y-72644000D03*
X143002000Y-72644000D03*
D15*
X140462000Y-72644000D03*
%TD*%
D11*
%TO.C,J8*%
X137922000Y-72644000D03*
X135382000Y-72644000D03*
X132842000Y-72644000D03*
D15*
X130302000Y-72644000D03*
%TD*%
D11*
%TO.C,J8*%
X127762000Y-72644000D03*
X125222000Y-72644000D03*
X122682000Y-72644000D03*
D15*
X120142000Y-72644000D03*
%TD*%
%TO.C,J8*%
X109982000Y-72644000D03*
D11*
X112522000Y-72644000D03*
X115062000Y-72644000D03*
X117602000Y-72644000D03*
%TD*%
%TO.C,J13*%
X135382000Y-106934000D03*
X135382000Y-104394000D03*
X135382000Y-101854000D03*
X135382000Y-99314000D03*
D15*
X135382000Y-96774000D03*
%TD*%
D11*
%TO.C,J13*%
X178562000Y-106934000D03*
X178562000Y-104394000D03*
X178562000Y-101854000D03*
X178562000Y-99314000D03*
D15*
X178562000Y-96774000D03*
%TD*%
D11*
%TO.C,J13*%
X173482000Y-106934000D03*
X173482000Y-104394000D03*
X173482000Y-101854000D03*
X173482000Y-99314000D03*
D15*
X173482000Y-96774000D03*
%TD*%
D11*
%TO.C,J13*%
X163322000Y-106934000D03*
X163322000Y-104394000D03*
X163322000Y-101854000D03*
X163322000Y-99314000D03*
D15*
X163322000Y-96774000D03*
%TD*%
D11*
%TO.C,J13*%
X176022000Y-106934000D03*
X176022000Y-104394000D03*
X176022000Y-101854000D03*
X176022000Y-99314000D03*
D15*
X176022000Y-96774000D03*
%TD*%
D11*
%TO.C,J13*%
X168402000Y-106934000D03*
X168402000Y-104394000D03*
X168402000Y-101854000D03*
X168402000Y-99314000D03*
D15*
X168402000Y-96774000D03*
%TD*%
D11*
%TO.C,J13*%
X170942000Y-106934000D03*
X170942000Y-104394000D03*
X170942000Y-101854000D03*
X170942000Y-99314000D03*
D15*
X170942000Y-96774000D03*
%TD*%
D11*
%TO.C,J13*%
X183642000Y-106934000D03*
X183642000Y-104394000D03*
X183642000Y-101854000D03*
X183642000Y-99314000D03*
D15*
X183642000Y-96774000D03*
%TD*%
D11*
%TO.C,J13*%
X181102000Y-106934000D03*
X181102000Y-104394000D03*
X181102000Y-101854000D03*
X181102000Y-99314000D03*
D15*
X181102000Y-96774000D03*
%TD*%
D11*
%TO.C,J13*%
X165862000Y-106934000D03*
X165862000Y-104394000D03*
X165862000Y-101854000D03*
X165862000Y-99314000D03*
D15*
X165862000Y-96774000D03*
%TD*%
D11*
%TO.C,J13*%
X158242000Y-106934000D03*
X158242000Y-104394000D03*
X158242000Y-101854000D03*
X158242000Y-99314000D03*
D15*
X158242000Y-96774000D03*
%TD*%
D11*
%TO.C,J13*%
X153162000Y-106934000D03*
X153162000Y-104394000D03*
X153162000Y-101854000D03*
X153162000Y-99314000D03*
D15*
X153162000Y-96774000D03*
%TD*%
D11*
%TO.C,J13*%
X127762000Y-106934000D03*
X127762000Y-104394000D03*
X127762000Y-101854000D03*
X127762000Y-99314000D03*
D15*
X127762000Y-96774000D03*
%TD*%
D11*
%TO.C,J13*%
X148082000Y-106934000D03*
X148082000Y-104394000D03*
X148082000Y-101854000D03*
X148082000Y-99314000D03*
D15*
X148082000Y-96774000D03*
%TD*%
D11*
%TO.C,J13*%
X143002000Y-106934000D03*
X143002000Y-104394000D03*
X143002000Y-101854000D03*
X143002000Y-99314000D03*
D15*
X143002000Y-96774000D03*
%TD*%
D11*
%TO.C,J13*%
X140462000Y-106934000D03*
X140462000Y-104394000D03*
X140462000Y-101854000D03*
X140462000Y-99314000D03*
D15*
X140462000Y-96774000D03*
%TD*%
D11*
%TO.C,J13*%
X132842000Y-106934000D03*
X132842000Y-104394000D03*
X132842000Y-101854000D03*
X132842000Y-99314000D03*
D15*
X132842000Y-96774000D03*
%TD*%
D11*
%TO.C,J13*%
X117602000Y-106934000D03*
X117602000Y-104394000D03*
X117602000Y-101854000D03*
X117602000Y-99314000D03*
D15*
X117602000Y-96774000D03*
%TD*%
D11*
%TO.C,J13*%
X115062000Y-106934000D03*
X115062000Y-104394000D03*
X115062000Y-101854000D03*
X115062000Y-99314000D03*
D15*
X115062000Y-96774000D03*
%TD*%
D11*
%TO.C,J13*%
X150622000Y-106934000D03*
X150622000Y-104394000D03*
X150622000Y-101854000D03*
X150622000Y-99314000D03*
D15*
X150622000Y-96774000D03*
%TD*%
D11*
%TO.C,J13*%
X155702000Y-106934000D03*
X155702000Y-104394000D03*
X155702000Y-101854000D03*
X155702000Y-99314000D03*
D15*
X155702000Y-96774000D03*
%TD*%
D11*
%TO.C,J13*%
X130302000Y-106934000D03*
X130302000Y-104394000D03*
X130302000Y-101854000D03*
X130302000Y-99314000D03*
D15*
X130302000Y-96774000D03*
%TD*%
D11*
%TO.C,J13*%
X145542000Y-106934000D03*
X145542000Y-104394000D03*
X145542000Y-101854000D03*
X145542000Y-99314000D03*
D15*
X145542000Y-96774000D03*
%TD*%
D11*
%TO.C,J13*%
X122682000Y-106934000D03*
X122682000Y-104394000D03*
X122682000Y-101854000D03*
X122682000Y-99314000D03*
D15*
X122682000Y-96774000D03*
%TD*%
D11*
%TO.C,J13*%
X160782000Y-106934000D03*
X160782000Y-104394000D03*
X160782000Y-101854000D03*
X160782000Y-99314000D03*
D15*
X160782000Y-96774000D03*
%TD*%
D11*
%TO.C,J13*%
X125222000Y-106934000D03*
X125222000Y-104394000D03*
X125222000Y-101854000D03*
X125222000Y-99314000D03*
D15*
X125222000Y-96774000D03*
%TD*%
D11*
%TO.C,J13*%
X120142000Y-106934000D03*
X120142000Y-104394000D03*
X120142000Y-101854000D03*
X120142000Y-99314000D03*
D15*
X120142000Y-96774000D03*
%TD*%
%TO.C,J13*%
X109982000Y-96774000D03*
D11*
X109982000Y-99314000D03*
X109982000Y-101854000D03*
X109982000Y-104394000D03*
X109982000Y-106934000D03*
%TD*%
%TO.C,J13*%
X137922000Y-106934000D03*
X137922000Y-104394000D03*
X137922000Y-101854000D03*
X137922000Y-99314000D03*
D15*
X137922000Y-96774000D03*
%TD*%
D11*
%TO.C,J13*%
X112522000Y-106934000D03*
X112522000Y-104394000D03*
X112522000Y-101854000D03*
X112522000Y-99314000D03*
D15*
X112522000Y-96774000D03*
%TD*%
%TO.C,J13*%
X183642000Y-78994000D03*
D11*
X183642000Y-81534000D03*
X183642000Y-84074000D03*
X183642000Y-86614000D03*
X183642000Y-89154000D03*
%TD*%
D15*
%TO.C,J13*%
X181102000Y-78994000D03*
D11*
X181102000Y-81534000D03*
X181102000Y-84074000D03*
X181102000Y-86614000D03*
X181102000Y-89154000D03*
%TD*%
D15*
%TO.C,J13*%
X178562000Y-78994000D03*
D11*
X178562000Y-81534000D03*
X178562000Y-84074000D03*
X178562000Y-86614000D03*
X178562000Y-89154000D03*
%TD*%
D15*
%TO.C,J13*%
X176022000Y-78994000D03*
D11*
X176022000Y-81534000D03*
X176022000Y-84074000D03*
X176022000Y-86614000D03*
X176022000Y-89154000D03*
%TD*%
D15*
%TO.C,J13*%
X170942000Y-78994000D03*
D11*
X170942000Y-81534000D03*
X170942000Y-84074000D03*
X170942000Y-86614000D03*
X170942000Y-89154000D03*
%TD*%
D15*
%TO.C,J13*%
X168402000Y-78994000D03*
D11*
X168402000Y-81534000D03*
X168402000Y-84074000D03*
X168402000Y-86614000D03*
X168402000Y-89154000D03*
%TD*%
D15*
%TO.C,J13*%
X165862000Y-78994000D03*
D11*
X165862000Y-81534000D03*
X165862000Y-84074000D03*
X165862000Y-86614000D03*
X165862000Y-89154000D03*
%TD*%
D15*
%TO.C,J13*%
X163322000Y-78994000D03*
D11*
X163322000Y-81534000D03*
X163322000Y-84074000D03*
X163322000Y-86614000D03*
X163322000Y-89154000D03*
%TD*%
D15*
%TO.C,J13*%
X158242000Y-78994000D03*
D11*
X158242000Y-81534000D03*
X158242000Y-84074000D03*
X158242000Y-86614000D03*
X158242000Y-89154000D03*
%TD*%
D15*
%TO.C,J13*%
X155702000Y-78994000D03*
D11*
X155702000Y-81534000D03*
X155702000Y-84074000D03*
X155702000Y-86614000D03*
X155702000Y-89154000D03*
%TD*%
D15*
%TO.C,J13*%
X153162000Y-78994000D03*
D11*
X153162000Y-81534000D03*
X153162000Y-84074000D03*
X153162000Y-86614000D03*
X153162000Y-89154000D03*
%TD*%
D15*
%TO.C,J13*%
X150622000Y-78994000D03*
D11*
X150622000Y-81534000D03*
X150622000Y-84074000D03*
X150622000Y-86614000D03*
X150622000Y-89154000D03*
%TD*%
D15*
%TO.C,J13*%
X148082000Y-78994000D03*
D11*
X148082000Y-81534000D03*
X148082000Y-84074000D03*
X148082000Y-86614000D03*
X148082000Y-89154000D03*
%TD*%
D15*
%TO.C,J13*%
X145542000Y-78994000D03*
D11*
X145542000Y-81534000D03*
X145542000Y-84074000D03*
X145542000Y-86614000D03*
X145542000Y-89154000D03*
%TD*%
D15*
%TO.C,J13*%
X143002000Y-78994000D03*
D11*
X143002000Y-81534000D03*
X143002000Y-84074000D03*
X143002000Y-86614000D03*
X143002000Y-89154000D03*
%TD*%
D15*
%TO.C,J13*%
X140462000Y-78994000D03*
D11*
X140462000Y-81534000D03*
X140462000Y-84074000D03*
X140462000Y-86614000D03*
X140462000Y-89154000D03*
%TD*%
D15*
%TO.C,J13*%
X137922000Y-78994000D03*
D11*
X137922000Y-81534000D03*
X137922000Y-84074000D03*
X137922000Y-86614000D03*
X137922000Y-89154000D03*
%TD*%
D15*
%TO.C,J13*%
X160782000Y-78994000D03*
D11*
X160782000Y-81534000D03*
X160782000Y-84074000D03*
X160782000Y-86614000D03*
X160782000Y-89154000D03*
%TD*%
D15*
%TO.C,J13*%
X132842000Y-78994000D03*
D11*
X132842000Y-81534000D03*
X132842000Y-84074000D03*
X132842000Y-86614000D03*
X132842000Y-89154000D03*
%TD*%
D15*
%TO.C,J13*%
X130302000Y-78994000D03*
D11*
X130302000Y-81534000D03*
X130302000Y-84074000D03*
X130302000Y-86614000D03*
X130302000Y-89154000D03*
%TD*%
D15*
%TO.C,J13*%
X127762000Y-78994000D03*
D11*
X127762000Y-81534000D03*
X127762000Y-84074000D03*
X127762000Y-86614000D03*
X127762000Y-89154000D03*
%TD*%
D15*
%TO.C,J13*%
X125222000Y-78994000D03*
D11*
X125222000Y-81534000D03*
X125222000Y-84074000D03*
X125222000Y-86614000D03*
X125222000Y-89154000D03*
%TD*%
D15*
%TO.C,J13*%
X122682000Y-78994000D03*
D11*
X122682000Y-81534000D03*
X122682000Y-84074000D03*
X122682000Y-86614000D03*
X122682000Y-89154000D03*
%TD*%
D15*
%TO.C,J13*%
X120142000Y-78994000D03*
D11*
X120142000Y-81534000D03*
X120142000Y-84074000D03*
X120142000Y-86614000D03*
X120142000Y-89154000D03*
%TD*%
D15*
%TO.C,J13*%
X117602000Y-78994000D03*
D11*
X117602000Y-81534000D03*
X117602000Y-84074000D03*
X117602000Y-86614000D03*
X117602000Y-89154000D03*
%TD*%
D15*
%TO.C,J13*%
X115062000Y-78994000D03*
D11*
X115062000Y-81534000D03*
X115062000Y-84074000D03*
X115062000Y-86614000D03*
X115062000Y-89154000D03*
%TD*%
D15*
%TO.C,J13*%
X112522000Y-78994000D03*
D11*
X112522000Y-81534000D03*
X112522000Y-84074000D03*
X112522000Y-86614000D03*
X112522000Y-89154000D03*
%TD*%
%TO.C,J13*%
X109982000Y-89154000D03*
X109982000Y-86614000D03*
X109982000Y-84074000D03*
X109982000Y-81534000D03*
D15*
X109982000Y-78994000D03*
%TD*%
%TO.C,J13*%
X135382000Y-78994000D03*
D11*
X135382000Y-81534000D03*
X135382000Y-84074000D03*
X135382000Y-86614000D03*
X135382000Y-89154000D03*
%TD*%
%TO.C,J9*%
X172913500Y-121437400D03*
X172913500Y-118897400D03*
X175453500Y-121437400D03*
X175453500Y-118897400D03*
X177993500Y-121437400D03*
X177993500Y-118897400D03*
X180533500Y-121437400D03*
X180533500Y-118897400D03*
X183073500Y-121437400D03*
D12*
X183073500Y-118897400D03*
%TD*%
D11*
%TO.C,J7*%
X109394500Y-121437400D03*
X109394500Y-118897400D03*
X111934500Y-121437400D03*
X111934500Y-118897400D03*
X114474500Y-121437400D03*
X114474500Y-118897400D03*
X117014500Y-121437400D03*
X117014500Y-118897400D03*
X119554500Y-121437400D03*
D12*
X119554500Y-118897400D03*
%TD*%
D11*
%TO.C,J6*%
X190666500Y-121437400D03*
X190666500Y-118897400D03*
X193206500Y-121437400D03*
X193206500Y-118897400D03*
X195746500Y-121437400D03*
X195746500Y-118897400D03*
X198286500Y-121437400D03*
D12*
X198286500Y-118897400D03*
%TD*%
D11*
%TO.C,J5*%
X195645600Y-94792800D03*
X195645600Y-92252800D03*
X198185600Y-94792800D03*
D12*
X198185600Y-92252800D03*
%TD*%
%TO.C,R4*%
G36*
G01*
X196272100Y-74262401D02*
X196272100Y-73362399D01*
G75*
G02*
X196522099Y-73112400I249999J0D01*
G01*
X197047101Y-73112400D01*
G75*
G02*
X197297100Y-73362399I0J-249999D01*
G01*
X197297100Y-74262401D01*
G75*
G02*
X197047101Y-74512400I-249999J0D01*
G01*
X196522099Y-74512400D01*
G75*
G02*
X196272100Y-74262401I0J249999D01*
G01*
G37*
G36*
G01*
X194447100Y-74262401D02*
X194447100Y-73362399D01*
G75*
G02*
X194697099Y-73112400I249999J0D01*
G01*
X195222101Y-73112400D01*
G75*
G02*
X195472100Y-73362399I0J-249999D01*
G01*
X195472100Y-74262401D01*
G75*
G02*
X195222101Y-74512400I-249999J0D01*
G01*
X194697099Y-74512400D01*
G75*
G02*
X194447100Y-74262401I0J249999D01*
G01*
G37*
%TD*%
%TO.C,C4*%
G36*
G01*
X193616600Y-114650100D02*
X192666600Y-114650100D01*
G75*
G02*
X192416600Y-114400100I0J250000D01*
G01*
X192416600Y-113900100D01*
G75*
G02*
X192666600Y-113650100I250000J0D01*
G01*
X193616600Y-113650100D01*
G75*
G02*
X193866600Y-113900100I0J-250000D01*
G01*
X193866600Y-114400100D01*
G75*
G02*
X193616600Y-114650100I-250000J0D01*
G01*
G37*
G36*
G01*
X193616600Y-116550100D02*
X192666600Y-116550100D01*
G75*
G02*
X192416600Y-116300100I0J250000D01*
G01*
X192416600Y-115800100D01*
G75*
G02*
X192666600Y-115550100I250000J0D01*
G01*
X193616600Y-115550100D01*
G75*
G02*
X193866600Y-115800100I0J-250000D01*
G01*
X193866600Y-116300100D01*
G75*
G02*
X193616600Y-116550100I-250000J0D01*
G01*
G37*
%TD*%
D11*
%TO.C,J1*%
X190666500Y-128905000D03*
X190666500Y-126365000D03*
X193206500Y-128905000D03*
X193206500Y-126365000D03*
X195746500Y-128905000D03*
X195746500Y-126365000D03*
X198286500Y-128905000D03*
D12*
X198286500Y-126365000D03*
%TD*%
D11*
%TO.C,J4*%
X172913500Y-128905000D03*
X172913500Y-126365000D03*
X175453500Y-128905000D03*
X175453500Y-126365000D03*
X177993500Y-128905000D03*
X177993500Y-126365000D03*
X180533500Y-128905000D03*
X180533500Y-126365000D03*
X183073500Y-128905000D03*
D12*
X183073500Y-126365000D03*
%TD*%
D11*
%TO.C,J2*%
X109394500Y-128905000D03*
X109394500Y-126365000D03*
X111934500Y-128905000D03*
X111934500Y-126365000D03*
X114474500Y-128905000D03*
X114474500Y-126365000D03*
X117014500Y-128905000D03*
X117014500Y-126365000D03*
X119554500Y-128905000D03*
D12*
X119554500Y-126365000D03*
%TD*%
D11*
%TO.C,J3*%
X127254000Y-128905000D03*
X127254000Y-126365000D03*
X129794000Y-128905000D03*
X129794000Y-126365000D03*
X132334000Y-128905000D03*
X132334000Y-126365000D03*
X134874000Y-128905000D03*
X134874000Y-126365000D03*
X137414000Y-128905000D03*
X137414000Y-126365000D03*
X139954000Y-128905000D03*
X139954000Y-126365000D03*
X142494000Y-128905000D03*
X142494000Y-126365000D03*
X145034000Y-128905000D03*
X145034000Y-126365000D03*
X147574000Y-128905000D03*
X147574000Y-126365000D03*
X150114000Y-128905000D03*
X150114000Y-126365000D03*
X152654000Y-128905000D03*
X152654000Y-126365000D03*
X155194000Y-128905000D03*
X155194000Y-126365000D03*
X157734000Y-128905000D03*
X157734000Y-126365000D03*
X160274000Y-128905000D03*
X160274000Y-126365000D03*
X162814000Y-128905000D03*
X162814000Y-126365000D03*
X165354000Y-128905000D03*
D12*
X165354000Y-126365000D03*
%TD*%
%TO.C,R1*%
G36*
G01*
X196272100Y-79630268D02*
X196272100Y-78730266D01*
G75*
G02*
X196522099Y-78480267I249999J0D01*
G01*
X197047101Y-78480267D01*
G75*
G02*
X197297100Y-78730266I0J-249999D01*
G01*
X197297100Y-79630268D01*
G75*
G02*
X197047101Y-79880267I-249999J0D01*
G01*
X196522099Y-79880267D01*
G75*
G02*
X196272100Y-79630268I0J249999D01*
G01*
G37*
G36*
G01*
X194447100Y-79630268D02*
X194447100Y-78730266D01*
G75*
G02*
X194697099Y-78480267I249999J0D01*
G01*
X195222101Y-78480267D01*
G75*
G02*
X195472100Y-78730266I0J-249999D01*
G01*
X195472100Y-79630268D01*
G75*
G02*
X195222101Y-79880267I-249999J0D01*
G01*
X194697099Y-79880267D01*
G75*
G02*
X194447100Y-79630268I0J249999D01*
G01*
G37*
%TD*%
%TO.C,R3*%
G36*
G01*
X196272100Y-82314201D02*
X196272100Y-81414199D01*
G75*
G02*
X196522099Y-81164200I249999J0D01*
G01*
X197047101Y-81164200D01*
G75*
G02*
X197297100Y-81414199I0J-249999D01*
G01*
X197297100Y-82314201D01*
G75*
G02*
X197047101Y-82564200I-249999J0D01*
G01*
X196522099Y-82564200D01*
G75*
G02*
X196272100Y-82314201I0J249999D01*
G01*
G37*
G36*
G01*
X194447100Y-82314201D02*
X194447100Y-81414199D01*
G75*
G02*
X194697099Y-81164200I249999J0D01*
G01*
X195222101Y-81164200D01*
G75*
G02*
X195472100Y-81414199I0J-249999D01*
G01*
X195472100Y-82314201D01*
G75*
G02*
X195222101Y-82564200I-249999J0D01*
G01*
X194697099Y-82564200D01*
G75*
G02*
X194447100Y-82314201I0J249999D01*
G01*
G37*
%TD*%
%TO.C,R2*%
G36*
G01*
X196272100Y-76946335D02*
X196272100Y-76046333D01*
G75*
G02*
X196522099Y-75796334I249999J0D01*
G01*
X197047101Y-75796334D01*
G75*
G02*
X197297100Y-76046333I0J-249999D01*
G01*
X197297100Y-76946335D01*
G75*
G02*
X197047101Y-77196334I-249999J0D01*
G01*
X196522099Y-77196334D01*
G75*
G02*
X196272100Y-76946335I0J249999D01*
G01*
G37*
G36*
G01*
X194447100Y-76946335D02*
X194447100Y-76046333D01*
G75*
G02*
X194697099Y-75796334I249999J0D01*
G01*
X195222101Y-75796334D01*
G75*
G02*
X195472100Y-76046333I0J-249999D01*
G01*
X195472100Y-76946335D01*
G75*
G02*
X195222101Y-77196334I-249999J0D01*
G01*
X194697099Y-77196334D01*
G75*
G02*
X194447100Y-76946335I0J249999D01*
G01*
G37*
%TD*%
%TO.C,C3*%
G36*
G01*
X196258200Y-114650100D02*
X195308200Y-114650100D01*
G75*
G02*
X195058200Y-114400100I0J250000D01*
G01*
X195058200Y-113900100D01*
G75*
G02*
X195308200Y-113650100I250000J0D01*
G01*
X196258200Y-113650100D01*
G75*
G02*
X196508200Y-113900100I0J-250000D01*
G01*
X196508200Y-114400100D01*
G75*
G02*
X196258200Y-114650100I-250000J0D01*
G01*
G37*
G36*
G01*
X196258200Y-116550100D02*
X195308200Y-116550100D01*
G75*
G02*
X195058200Y-116300100I0J250000D01*
G01*
X195058200Y-115800100D01*
G75*
G02*
X195308200Y-115550100I250000J0D01*
G01*
X196258200Y-115550100D01*
G75*
G02*
X196508200Y-115800100I0J-250000D01*
G01*
X196508200Y-116300100D01*
G75*
G02*
X196258200Y-116550100I-250000J0D01*
G01*
G37*
%TD*%
%TO.C,C2*%
G36*
G01*
X196590500Y-89377500D02*
X196590500Y-90327500D01*
G75*
G02*
X196340500Y-90577500I-250000J0D01*
G01*
X195840500Y-90577500D01*
G75*
G02*
X195590500Y-90327500I0J250000D01*
G01*
X195590500Y-89377500D01*
G75*
G02*
X195840500Y-89127500I250000J0D01*
G01*
X196340500Y-89127500D01*
G75*
G02*
X196590500Y-89377500I0J-250000D01*
G01*
G37*
G36*
G01*
X198490500Y-89377500D02*
X198490500Y-90327500D01*
G75*
G02*
X198240500Y-90577500I-250000J0D01*
G01*
X197740500Y-90577500D01*
G75*
G02*
X197490500Y-90327500I0J250000D01*
G01*
X197490500Y-89377500D01*
G75*
G02*
X197740500Y-89127500I250000J0D01*
G01*
X198240500Y-89127500D01*
G75*
G02*
X198490500Y-89377500I0J-250000D01*
G01*
G37*
%TD*%
%TO.C,C1*%
G36*
G01*
X187713600Y-120312600D02*
X188663600Y-120312600D01*
G75*
G02*
X188913600Y-120562600I0J-250000D01*
G01*
X188913600Y-121062600D01*
G75*
G02*
X188663600Y-121312600I-250000J0D01*
G01*
X187713600Y-121312600D01*
G75*
G02*
X187463600Y-121062600I0J250000D01*
G01*
X187463600Y-120562600D01*
G75*
G02*
X187713600Y-120312600I250000J0D01*
G01*
G37*
G36*
G01*
X187713600Y-118412600D02*
X188663600Y-118412600D01*
G75*
G02*
X188913600Y-118662600I0J-250000D01*
G01*
X188913600Y-119162600D01*
G75*
G02*
X188663600Y-119412600I-250000J0D01*
G01*
X187713600Y-119412600D01*
G75*
G02*
X187463600Y-119162600I0J250000D01*
G01*
X187463600Y-118662600D01*
G75*
G02*
X187713600Y-118412600I250000J0D01*
G01*
G37*
%TD*%
M02*
