%TF.GenerationSoftware,KiCad,Pcbnew,(5.1.10)-1*%
%TF.CreationDate,2021-06-15T10:48:06-05:00*%
%TF.ProjectId,gd MegaII proto pcb,6764204d-6567-4614-9949-2070726f746f,rev?*%
%TF.SameCoordinates,Original*%
%TF.FileFunction,Soldermask,Bot*%
%TF.FilePolarity,Negative*%
%FSLAX46Y46*%
G04 Gerber Fmt 4.6, Leading zero omitted, Abs format (unit mm)*
G04 Created by KiCad (PCBNEW (5.1.10)-1) date 2021-06-15 10:48:06*
%MOMM*%
%LPD*%
G01*
G04 APERTURE LIST*
%ADD10C,0.100000*%
%ADD11O,1.700000X1.700000*%
%ADD12R,1.700000X1.700000*%
%ADD13O,2.400000X1.600000*%
%ADD14R,2.400000X1.600000*%
%ADD15C,1.600000*%
%ADD16R,1.600000X1.600000*%
%ADD17R,0.640000X0.700000*%
%ADD18R,0.500000X0.700000*%
%ADD19R,0.700000X0.640000*%
%ADD20R,0.700000X0.500000*%
%ADD21C,1.422400*%
%ADD22R,1.422400X1.422400*%
%ADD23C,2.500000*%
G04 APERTURE END LIST*
D10*
G36*
X114300000Y-90805000D02*
G01*
X107950000Y-90805000D01*
X107950000Y-84455000D01*
X114300000Y-84455000D01*
X114300000Y-90805000D01*
G37*
X114300000Y-90805000D02*
X107950000Y-90805000D01*
X107950000Y-84455000D01*
X114300000Y-84455000D01*
X114300000Y-90805000D01*
G36*
X151130000Y-128270000D02*
G01*
X144780000Y-128270000D01*
X144780000Y-121920000D01*
X151130000Y-121920000D01*
X151130000Y-128270000D01*
G37*
X151130000Y-128270000D02*
X144780000Y-128270000D01*
X144780000Y-121920000D01*
X151130000Y-121920000D01*
X151130000Y-128270000D01*
G36*
X189230000Y-107950000D02*
G01*
X184150000Y-107950000D01*
X184150000Y-93980000D01*
X189230000Y-93980000D01*
X189230000Y-107950000D01*
G37*
X189230000Y-107950000D02*
X184150000Y-107950000D01*
X184150000Y-93980000D01*
X189230000Y-93980000D01*
X189230000Y-107950000D01*
G36*
X182245000Y-149225000D02*
G01*
X156210000Y-149225000D01*
X156210000Y-144145000D01*
X182245000Y-144145000D01*
X182245000Y-149225000D01*
G37*
X182245000Y-149225000D02*
X156210000Y-149225000D01*
X156210000Y-144145000D01*
X182245000Y-144145000D01*
X182245000Y-149225000D01*
G36*
X146050000Y-149225000D02*
G01*
X116205000Y-149225000D01*
X116205000Y-144145000D01*
X146050000Y-144145000D01*
X146050000Y-149225000D01*
G37*
X146050000Y-149225000D02*
X116205000Y-149225000D01*
X116205000Y-144145000D01*
X146050000Y-144145000D01*
X146050000Y-149225000D01*
G36*
X93980000Y-122555000D02*
G01*
X88900000Y-122555000D01*
X88900000Y-107950000D01*
X93980000Y-107950000D01*
X93980000Y-122555000D01*
G37*
X93980000Y-122555000D02*
X88900000Y-122555000D01*
X88900000Y-107950000D01*
X93980000Y-107950000D01*
X93980000Y-122555000D01*
G36*
X93980000Y-102870000D02*
G01*
X88900000Y-102870000D01*
X88900000Y-88265000D01*
X93980000Y-88265000D01*
X93980000Y-102870000D01*
G37*
X93980000Y-102870000D02*
X88900000Y-102870000D01*
X88900000Y-88265000D01*
X93980000Y-88265000D01*
X93980000Y-102870000D01*
G36*
X106045000Y-36830000D02*
G01*
X94615000Y-36830000D01*
X94615000Y-31750000D01*
X106045000Y-31750000D01*
X106045000Y-36830000D01*
G37*
X106045000Y-36830000D02*
X94615000Y-36830000D01*
X94615000Y-31750000D01*
X106045000Y-31750000D01*
X106045000Y-36830000D01*
G36*
X181610000Y-34925000D02*
G01*
X158115000Y-34925000D01*
X158115000Y-31750000D01*
X181610000Y-31750000D01*
X181610000Y-34925000D01*
G37*
X181610000Y-34925000D02*
X158115000Y-34925000D01*
X158115000Y-31750000D01*
X181610000Y-31750000D01*
X181610000Y-34925000D01*
G36*
X189230000Y-80010000D02*
G01*
X182880000Y-80010000D01*
X182880000Y-38100000D01*
X189230000Y-38100000D01*
X189230000Y-80010000D01*
G37*
X189230000Y-80010000D02*
X182880000Y-80010000D01*
X182880000Y-38100000D01*
X189230000Y-38100000D01*
X189230000Y-80010000D01*
D11*
%TO.C,J8*%
X148336000Y-139700000D03*
X150876000Y-139700000D03*
D12*
X153416000Y-139700000D03*
%TD*%
D11*
%TO.C,J6*%
X105410000Y-139700000D03*
X102870000Y-139700000D03*
D12*
X100330000Y-139700000D03*
%TD*%
D11*
%TO.C,J7*%
X156210000Y-38227000D03*
X156210000Y-40767000D03*
X153670000Y-38227000D03*
X153670000Y-40767000D03*
X151130000Y-38227000D03*
X151130000Y-40767000D03*
X148590000Y-38227000D03*
X148590000Y-40767000D03*
X146050000Y-38227000D03*
X146050000Y-40767000D03*
X143510000Y-38227000D03*
X143510000Y-40767000D03*
X140970000Y-38227000D03*
X140970000Y-40767000D03*
X138430000Y-38227000D03*
X138430000Y-40767000D03*
X135890000Y-38227000D03*
X135890000Y-40767000D03*
X133350000Y-38227000D03*
X133350000Y-40767000D03*
X130810000Y-38227000D03*
X130810000Y-40767000D03*
X128270000Y-38227000D03*
X128270000Y-40767000D03*
X125730000Y-38227000D03*
X125730000Y-40767000D03*
X123190000Y-38227000D03*
X123190000Y-40767000D03*
X120650000Y-38227000D03*
X120650000Y-40767000D03*
X118110000Y-38227000D03*
X118110000Y-40767000D03*
X115570000Y-38227000D03*
X115570000Y-40767000D03*
X113030000Y-38227000D03*
X113030000Y-40767000D03*
X110490000Y-38227000D03*
X110490000Y-40767000D03*
X107950000Y-38227000D03*
D12*
X107950000Y-40767000D03*
%TD*%
D13*
%TO.C,U7*%
X142621000Y-48006000D03*
X135001000Y-68326000D03*
X142621000Y-50546000D03*
X135001000Y-65786000D03*
X142621000Y-53086000D03*
X135001000Y-63246000D03*
X142621000Y-55626000D03*
X135001000Y-60706000D03*
X142621000Y-58166000D03*
X135001000Y-58166000D03*
X142621000Y-60706000D03*
X135001000Y-55626000D03*
X142621000Y-63246000D03*
X135001000Y-53086000D03*
X142621000Y-65786000D03*
X135001000Y-50546000D03*
X142621000Y-68326000D03*
D14*
X135001000Y-48006000D03*
%TD*%
D11*
%TO.C,JP8*%
X104140000Y-77216000D03*
X106680000Y-77216000D03*
X109220000Y-77216000D03*
X111760000Y-77216000D03*
X114300000Y-77216000D03*
X116840000Y-77216000D03*
X119380000Y-77216000D03*
X121920000Y-77216000D03*
X124460000Y-77216000D03*
X127000000Y-77216000D03*
D12*
X129540000Y-77216000D03*
%TD*%
D11*
%TO.C,J12*%
X147320000Y-73533000D03*
X144780000Y-73533000D03*
X142240000Y-73533000D03*
D12*
X139700000Y-73533000D03*
%TD*%
D11*
%TO.C,JP1*%
X96520000Y-134620000D03*
X96520000Y-132080000D03*
X96520000Y-129540000D03*
D12*
X96520000Y-127000000D03*
%TD*%
D11*
%TO.C,JP15*%
X158750000Y-81280000D03*
X158750000Y-83820000D03*
X158750000Y-86360000D03*
X158750000Y-88900000D03*
X158750000Y-91440000D03*
X158750000Y-93980000D03*
X158750000Y-96520000D03*
X158750000Y-99060000D03*
X158750000Y-101600000D03*
X158750000Y-104140000D03*
D12*
X158750000Y-106680000D03*
%TD*%
D11*
%TO.C,J11*%
X172720000Y-44450000D03*
X172720000Y-41910000D03*
X172720000Y-39370000D03*
D12*
X172720000Y-36830000D03*
%TD*%
%TO.C,C10*%
G36*
G01*
X143198000Y-87343000D02*
X143198000Y-86393000D01*
G75*
G02*
X143448000Y-86143000I250000J0D01*
G01*
X143948000Y-86143000D01*
G75*
G02*
X144198000Y-86393000I0J-250000D01*
G01*
X144198000Y-87343000D01*
G75*
G02*
X143948000Y-87593000I-250000J0D01*
G01*
X143448000Y-87593000D01*
G75*
G02*
X143198000Y-87343000I0J250000D01*
G01*
G37*
G36*
G01*
X141298000Y-87343000D02*
X141298000Y-86393000D01*
G75*
G02*
X141548000Y-86143000I250000J0D01*
G01*
X142048000Y-86143000D01*
G75*
G02*
X142298000Y-86393000I0J-250000D01*
G01*
X142298000Y-87343000D01*
G75*
G02*
X142048000Y-87593000I-250000J0D01*
G01*
X141548000Y-87593000D01*
G75*
G02*
X141298000Y-87343000I0J250000D01*
G01*
G37*
%TD*%
D15*
%TO.C,C2*%
X161370000Y-39751000D03*
D16*
X166370000Y-39751000D03*
%TD*%
D17*
%TO.C,RN9*%
X130810000Y-72452000D03*
D18*
X131680000Y-72452000D03*
D17*
X133350000Y-72452000D03*
D18*
X132480000Y-72452000D03*
D17*
X130810000Y-73852000D03*
D18*
X132480000Y-73852000D03*
X131680000Y-73852000D03*
D17*
X133350000Y-73852000D03*
%TD*%
D11*
%TO.C,JP16*%
X158750000Y-109220000D03*
X158750000Y-111760000D03*
X158750000Y-114300000D03*
X158750000Y-116840000D03*
X158750000Y-119380000D03*
X158750000Y-121920000D03*
X158750000Y-124460000D03*
X158750000Y-127000000D03*
X158750000Y-129540000D03*
D12*
X158750000Y-132080000D03*
%TD*%
D11*
%TO.C,JP12*%
X132080000Y-77216000D03*
X134620000Y-77216000D03*
X137160000Y-77216000D03*
X139700000Y-77216000D03*
X142240000Y-77216000D03*
X144780000Y-77216000D03*
X147320000Y-77216000D03*
X149860000Y-77216000D03*
X152400000Y-77216000D03*
D12*
X154940000Y-77216000D03*
%TD*%
D11*
%TO.C,JP11*%
X154940000Y-135890000D03*
X152400000Y-135890000D03*
X149860000Y-135890000D03*
X147320000Y-135890000D03*
X144780000Y-135890000D03*
X142240000Y-135890000D03*
X139700000Y-135890000D03*
X137160000Y-135890000D03*
X134620000Y-135890000D03*
X132080000Y-135890000D03*
D12*
X129540000Y-135890000D03*
%TD*%
D11*
%TO.C,JP7*%
X127000000Y-135890000D03*
X124460000Y-135890000D03*
X121920000Y-135890000D03*
X119380000Y-135890000D03*
X116840000Y-135890000D03*
X114300000Y-135890000D03*
X111760000Y-135890000D03*
X109220000Y-135890000D03*
X106680000Y-135890000D03*
D12*
X104140000Y-135890000D03*
%TD*%
D11*
%TO.C,JP4*%
X100330000Y-132080000D03*
X100330000Y-129540000D03*
X100330000Y-127000000D03*
X100330000Y-124460000D03*
X100330000Y-121920000D03*
X100330000Y-119380000D03*
X100330000Y-116840000D03*
X100330000Y-114300000D03*
X100330000Y-111760000D03*
X100330000Y-109220000D03*
D12*
X100330000Y-106680000D03*
%TD*%
D11*
%TO.C,JP3*%
X100330000Y-104140000D03*
X100330000Y-101600000D03*
X100330000Y-99060000D03*
X100330000Y-96520000D03*
X100330000Y-93980000D03*
X100330000Y-91440000D03*
X100330000Y-88900000D03*
X100330000Y-86360000D03*
X100330000Y-83820000D03*
D12*
X100330000Y-81280000D03*
%TD*%
D11*
%TO.C,J10*%
X181737000Y-92710000D03*
X179197000Y-92710000D03*
X181737000Y-90170000D03*
X179197000Y-90170000D03*
X181737000Y-87630000D03*
X179197000Y-87630000D03*
X181737000Y-85090000D03*
X179197000Y-85090000D03*
X181737000Y-82550000D03*
D12*
X179197000Y-82550000D03*
%TD*%
D19*
%TO.C,RN5*%
X169610000Y-132334000D03*
D20*
X169610000Y-134004000D03*
X169610000Y-133204000D03*
D19*
X169610000Y-134874000D03*
D20*
X168210000Y-133204000D03*
D19*
X168210000Y-132334000D03*
D20*
X168210000Y-134004000D03*
D19*
X168210000Y-134874000D03*
%TD*%
%TO.C,RN4*%
X170118000Y-114300000D03*
D20*
X170118000Y-115970000D03*
X170118000Y-115170000D03*
D19*
X170118000Y-116840000D03*
D20*
X168718000Y-115170000D03*
D19*
X168718000Y-114300000D03*
D20*
X168718000Y-115970000D03*
D19*
X168718000Y-116840000D03*
%TD*%
%TO.C,RN2*%
X169610000Y-127000000D03*
D20*
X169610000Y-128670000D03*
X169610000Y-127870000D03*
D19*
X169610000Y-129540000D03*
D20*
X168210000Y-127870000D03*
D19*
X168210000Y-127000000D03*
D20*
X168210000Y-128670000D03*
D19*
X168210000Y-129540000D03*
%TD*%
%TO.C,RN1*%
X170118000Y-108204000D03*
D20*
X170118000Y-109874000D03*
X170118000Y-109074000D03*
D19*
X170118000Y-110744000D03*
D20*
X168718000Y-109074000D03*
D19*
X168718000Y-108204000D03*
D20*
X168718000Y-109874000D03*
D19*
X168718000Y-110744000D03*
%TD*%
D11*
%TO.C,J9*%
X182880000Y-132842000D03*
X180340000Y-132842000D03*
X182880000Y-130302000D03*
X180340000Y-130302000D03*
X182880000Y-127762000D03*
X180340000Y-127762000D03*
X182880000Y-125222000D03*
X180340000Y-125222000D03*
X182880000Y-122682000D03*
X180340000Y-122682000D03*
X182880000Y-120142000D03*
X180340000Y-120142000D03*
X182880000Y-117602000D03*
X180340000Y-117602000D03*
X182880000Y-115062000D03*
X180340000Y-115062000D03*
X182880000Y-112522000D03*
X180340000Y-112522000D03*
X182880000Y-109982000D03*
D12*
X180340000Y-109982000D03*
%TD*%
D11*
%TO.C,J5*%
X178308000Y-74041000D03*
X175768000Y-74041000D03*
D12*
X173228000Y-74041000D03*
%TD*%
D11*
%TO.C,J4*%
X178308000Y-77724000D03*
X175768000Y-77724000D03*
D12*
X173228000Y-77724000D03*
%TD*%
D11*
%TO.C,J3*%
X173228000Y-68453000D03*
X175768000Y-68453000D03*
D12*
X178308000Y-68453000D03*
%TD*%
D11*
%TO.C,J2*%
X172847000Y-101727000D03*
X170307000Y-101727000D03*
D12*
X167767000Y-101727000D03*
%TD*%
D11*
%TO.C,J1*%
X172847000Y-98044000D03*
X170307000Y-98044000D03*
D12*
X167767000Y-98044000D03*
%TD*%
D13*
%TO.C,U9*%
X156464000Y-48006000D03*
X148844000Y-68326000D03*
X156464000Y-50546000D03*
X148844000Y-65786000D03*
X156464000Y-53086000D03*
X148844000Y-63246000D03*
X156464000Y-55626000D03*
X148844000Y-60706000D03*
X156464000Y-58166000D03*
X148844000Y-58166000D03*
X156464000Y-60706000D03*
X148844000Y-55626000D03*
X156464000Y-63246000D03*
X148844000Y-53086000D03*
X156464000Y-65786000D03*
X148844000Y-50546000D03*
X156464000Y-68326000D03*
D14*
X148844000Y-48006000D03*
%TD*%
%TO.C,U8*%
G36*
G01*
X164015000Y-81765000D02*
X164015000Y-82065000D01*
G75*
G02*
X163865000Y-82215000I-150000J0D01*
G01*
X162115000Y-82215000D01*
G75*
G02*
X161965000Y-82065000I0J150000D01*
G01*
X161965000Y-81765000D01*
G75*
G02*
X162115000Y-81615000I150000J0D01*
G01*
X163865000Y-81615000D01*
G75*
G02*
X164015000Y-81765000I0J-150000D01*
G01*
G37*
G36*
G01*
X164015000Y-83035000D02*
X164015000Y-83335000D01*
G75*
G02*
X163865000Y-83485000I-150000J0D01*
G01*
X162115000Y-83485000D01*
G75*
G02*
X161965000Y-83335000I0J150000D01*
G01*
X161965000Y-83035000D01*
G75*
G02*
X162115000Y-82885000I150000J0D01*
G01*
X163865000Y-82885000D01*
G75*
G02*
X164015000Y-83035000I0J-150000D01*
G01*
G37*
G36*
G01*
X164015000Y-84305000D02*
X164015000Y-84605000D01*
G75*
G02*
X163865000Y-84755000I-150000J0D01*
G01*
X162115000Y-84755000D01*
G75*
G02*
X161965000Y-84605000I0J150000D01*
G01*
X161965000Y-84305000D01*
G75*
G02*
X162115000Y-84155000I150000J0D01*
G01*
X163865000Y-84155000D01*
G75*
G02*
X164015000Y-84305000I0J-150000D01*
G01*
G37*
G36*
G01*
X164015000Y-85575000D02*
X164015000Y-85875000D01*
G75*
G02*
X163865000Y-86025000I-150000J0D01*
G01*
X162115000Y-86025000D01*
G75*
G02*
X161965000Y-85875000I0J150000D01*
G01*
X161965000Y-85575000D01*
G75*
G02*
X162115000Y-85425000I150000J0D01*
G01*
X163865000Y-85425000D01*
G75*
G02*
X164015000Y-85575000I0J-150000D01*
G01*
G37*
G36*
G01*
X164015000Y-86845000D02*
X164015000Y-87145000D01*
G75*
G02*
X163865000Y-87295000I-150000J0D01*
G01*
X162115000Y-87295000D01*
G75*
G02*
X161965000Y-87145000I0J150000D01*
G01*
X161965000Y-86845000D01*
G75*
G02*
X162115000Y-86695000I150000J0D01*
G01*
X163865000Y-86695000D01*
G75*
G02*
X164015000Y-86845000I0J-150000D01*
G01*
G37*
G36*
G01*
X164015000Y-88115000D02*
X164015000Y-88415000D01*
G75*
G02*
X163865000Y-88565000I-150000J0D01*
G01*
X162115000Y-88565000D01*
G75*
G02*
X161965000Y-88415000I0J150000D01*
G01*
X161965000Y-88115000D01*
G75*
G02*
X162115000Y-87965000I150000J0D01*
G01*
X163865000Y-87965000D01*
G75*
G02*
X164015000Y-88115000I0J-150000D01*
G01*
G37*
G36*
G01*
X164015000Y-89385000D02*
X164015000Y-89685000D01*
G75*
G02*
X163865000Y-89835000I-150000J0D01*
G01*
X162115000Y-89835000D01*
G75*
G02*
X161965000Y-89685000I0J150000D01*
G01*
X161965000Y-89385000D01*
G75*
G02*
X162115000Y-89235000I150000J0D01*
G01*
X163865000Y-89235000D01*
G75*
G02*
X164015000Y-89385000I0J-150000D01*
G01*
G37*
G36*
G01*
X164015000Y-90655000D02*
X164015000Y-90955000D01*
G75*
G02*
X163865000Y-91105000I-150000J0D01*
G01*
X162115000Y-91105000D01*
G75*
G02*
X161965000Y-90955000I0J150000D01*
G01*
X161965000Y-90655000D01*
G75*
G02*
X162115000Y-90505000I150000J0D01*
G01*
X163865000Y-90505000D01*
G75*
G02*
X164015000Y-90655000I0J-150000D01*
G01*
G37*
G36*
G01*
X164015000Y-91925000D02*
X164015000Y-92225000D01*
G75*
G02*
X163865000Y-92375000I-150000J0D01*
G01*
X162115000Y-92375000D01*
G75*
G02*
X161965000Y-92225000I0J150000D01*
G01*
X161965000Y-91925000D01*
G75*
G02*
X162115000Y-91775000I150000J0D01*
G01*
X163865000Y-91775000D01*
G75*
G02*
X164015000Y-91925000I0J-150000D01*
G01*
G37*
G36*
G01*
X164015000Y-93195000D02*
X164015000Y-93495000D01*
G75*
G02*
X163865000Y-93645000I-150000J0D01*
G01*
X162115000Y-93645000D01*
G75*
G02*
X161965000Y-93495000I0J150000D01*
G01*
X161965000Y-93195000D01*
G75*
G02*
X162115000Y-93045000I150000J0D01*
G01*
X163865000Y-93045000D01*
G75*
G02*
X164015000Y-93195000I0J-150000D01*
G01*
G37*
G36*
G01*
X173315000Y-93195000D02*
X173315000Y-93495000D01*
G75*
G02*
X173165000Y-93645000I-150000J0D01*
G01*
X171415000Y-93645000D01*
G75*
G02*
X171265000Y-93495000I0J150000D01*
G01*
X171265000Y-93195000D01*
G75*
G02*
X171415000Y-93045000I150000J0D01*
G01*
X173165000Y-93045000D01*
G75*
G02*
X173315000Y-93195000I0J-150000D01*
G01*
G37*
G36*
G01*
X173315000Y-91925000D02*
X173315000Y-92225000D01*
G75*
G02*
X173165000Y-92375000I-150000J0D01*
G01*
X171415000Y-92375000D01*
G75*
G02*
X171265000Y-92225000I0J150000D01*
G01*
X171265000Y-91925000D01*
G75*
G02*
X171415000Y-91775000I150000J0D01*
G01*
X173165000Y-91775000D01*
G75*
G02*
X173315000Y-91925000I0J-150000D01*
G01*
G37*
G36*
G01*
X173315000Y-90655000D02*
X173315000Y-90955000D01*
G75*
G02*
X173165000Y-91105000I-150000J0D01*
G01*
X171415000Y-91105000D01*
G75*
G02*
X171265000Y-90955000I0J150000D01*
G01*
X171265000Y-90655000D01*
G75*
G02*
X171415000Y-90505000I150000J0D01*
G01*
X173165000Y-90505000D01*
G75*
G02*
X173315000Y-90655000I0J-150000D01*
G01*
G37*
G36*
G01*
X173315000Y-89385000D02*
X173315000Y-89685000D01*
G75*
G02*
X173165000Y-89835000I-150000J0D01*
G01*
X171415000Y-89835000D01*
G75*
G02*
X171265000Y-89685000I0J150000D01*
G01*
X171265000Y-89385000D01*
G75*
G02*
X171415000Y-89235000I150000J0D01*
G01*
X173165000Y-89235000D01*
G75*
G02*
X173315000Y-89385000I0J-150000D01*
G01*
G37*
G36*
G01*
X173315000Y-88115000D02*
X173315000Y-88415000D01*
G75*
G02*
X173165000Y-88565000I-150000J0D01*
G01*
X171415000Y-88565000D01*
G75*
G02*
X171265000Y-88415000I0J150000D01*
G01*
X171265000Y-88115000D01*
G75*
G02*
X171415000Y-87965000I150000J0D01*
G01*
X173165000Y-87965000D01*
G75*
G02*
X173315000Y-88115000I0J-150000D01*
G01*
G37*
G36*
G01*
X173315000Y-86845000D02*
X173315000Y-87145000D01*
G75*
G02*
X173165000Y-87295000I-150000J0D01*
G01*
X171415000Y-87295000D01*
G75*
G02*
X171265000Y-87145000I0J150000D01*
G01*
X171265000Y-86845000D01*
G75*
G02*
X171415000Y-86695000I150000J0D01*
G01*
X173165000Y-86695000D01*
G75*
G02*
X173315000Y-86845000I0J-150000D01*
G01*
G37*
G36*
G01*
X173315000Y-85575000D02*
X173315000Y-85875000D01*
G75*
G02*
X173165000Y-86025000I-150000J0D01*
G01*
X171415000Y-86025000D01*
G75*
G02*
X171265000Y-85875000I0J150000D01*
G01*
X171265000Y-85575000D01*
G75*
G02*
X171415000Y-85425000I150000J0D01*
G01*
X173165000Y-85425000D01*
G75*
G02*
X173315000Y-85575000I0J-150000D01*
G01*
G37*
G36*
G01*
X173315000Y-84305000D02*
X173315000Y-84605000D01*
G75*
G02*
X173165000Y-84755000I-150000J0D01*
G01*
X171415000Y-84755000D01*
G75*
G02*
X171265000Y-84605000I0J150000D01*
G01*
X171265000Y-84305000D01*
G75*
G02*
X171415000Y-84155000I150000J0D01*
G01*
X173165000Y-84155000D01*
G75*
G02*
X173315000Y-84305000I0J-150000D01*
G01*
G37*
G36*
G01*
X173315000Y-83035000D02*
X173315000Y-83335000D01*
G75*
G02*
X173165000Y-83485000I-150000J0D01*
G01*
X171415000Y-83485000D01*
G75*
G02*
X171265000Y-83335000I0J150000D01*
G01*
X171265000Y-83035000D01*
G75*
G02*
X171415000Y-82885000I150000J0D01*
G01*
X173165000Y-82885000D01*
G75*
G02*
X173315000Y-83035000I0J-150000D01*
G01*
G37*
G36*
G01*
X173315000Y-81765000D02*
X173315000Y-82065000D01*
G75*
G02*
X173165000Y-82215000I-150000J0D01*
G01*
X171415000Y-82215000D01*
G75*
G02*
X171265000Y-82065000I0J150000D01*
G01*
X171265000Y-81765000D01*
G75*
G02*
X171415000Y-81615000I150000J0D01*
G01*
X173165000Y-81615000D01*
G75*
G02*
X173315000Y-81765000I0J-150000D01*
G01*
G37*
%TD*%
D13*
%TO.C,U4*%
X114935000Y-48006000D03*
X107315000Y-68326000D03*
X114935000Y-50546000D03*
X107315000Y-65786000D03*
X114935000Y-53086000D03*
X107315000Y-63246000D03*
X114935000Y-55626000D03*
X107315000Y-60706000D03*
X114935000Y-58166000D03*
X107315000Y-58166000D03*
X114935000Y-60706000D03*
X107315000Y-55626000D03*
X114935000Y-63246000D03*
X107315000Y-53086000D03*
X114935000Y-65786000D03*
X107315000Y-50546000D03*
X114935000Y-68326000D03*
D14*
X107315000Y-48006000D03*
%TD*%
D13*
%TO.C,U2*%
X128778000Y-48006000D03*
X121158000Y-68326000D03*
X128778000Y-50546000D03*
X121158000Y-65786000D03*
X128778000Y-53086000D03*
X121158000Y-63246000D03*
X128778000Y-55626000D03*
X121158000Y-60706000D03*
X128778000Y-58166000D03*
X121158000Y-58166000D03*
X128778000Y-60706000D03*
X121158000Y-55626000D03*
X128778000Y-63246000D03*
X121158000Y-53086000D03*
X128778000Y-65786000D03*
X121158000Y-50546000D03*
X128778000Y-68326000D03*
D14*
X121158000Y-48006000D03*
%TD*%
D21*
%TO.C,U1*%
X144780000Y-96393000D03*
X144780000Y-98933000D03*
X144780000Y-101473000D03*
X144780000Y-104013000D03*
X144780000Y-106553000D03*
X144780000Y-109093000D03*
X144780000Y-111633000D03*
X144780000Y-114173000D03*
X144780000Y-116713000D03*
X144780000Y-119253000D03*
X142240000Y-96393000D03*
X142240000Y-98933000D03*
X142240000Y-101473000D03*
X142240000Y-104013000D03*
X142240000Y-106553000D03*
X142240000Y-109093000D03*
X142240000Y-111633000D03*
X142240000Y-114173000D03*
X142240000Y-116713000D03*
X142240000Y-119253000D03*
X142240000Y-121793000D03*
X139700000Y-121793000D03*
X137160000Y-121793000D03*
X134620000Y-121793000D03*
X132080000Y-121793000D03*
X129540000Y-121793000D03*
X127000000Y-121793000D03*
X124460000Y-121793000D03*
X121920000Y-121793000D03*
X119380000Y-121793000D03*
X116840000Y-121793000D03*
X139700000Y-119253000D03*
X137160000Y-119253000D03*
X134620000Y-119253000D03*
X132080000Y-119253000D03*
X129540000Y-119253000D03*
X127000000Y-119253000D03*
X124460000Y-119253000D03*
X121920000Y-119253000D03*
X119380000Y-119253000D03*
X116840000Y-119253000D03*
X114300000Y-119253000D03*
X114300000Y-116713000D03*
X114300000Y-114173000D03*
X114300000Y-111633000D03*
X114300000Y-109093000D03*
X114300000Y-106553000D03*
X114300000Y-104013000D03*
X114300000Y-101473000D03*
X114300000Y-98933000D03*
X114300000Y-96393000D03*
X114300000Y-93853000D03*
X116840000Y-116713000D03*
X116840000Y-114173000D03*
X116840000Y-111633000D03*
X116840000Y-109093000D03*
X116840000Y-106553000D03*
X116840000Y-104013000D03*
X116840000Y-101473000D03*
X116840000Y-98933000D03*
X116840000Y-96393000D03*
X116840000Y-93853000D03*
X142240000Y-91313000D03*
X139700000Y-91313000D03*
X137160000Y-91313000D03*
X134620000Y-91313000D03*
X132080000Y-91313000D03*
X116840000Y-91313000D03*
X119380000Y-91313000D03*
X121920000Y-91313000D03*
X124460000Y-91313000D03*
X127000000Y-91313000D03*
D22*
X129540000Y-91313000D03*
D21*
X144780000Y-93853000D03*
X142240000Y-93853000D03*
X139700000Y-93853000D03*
X137160000Y-93853000D03*
X134620000Y-93853000D03*
X132080000Y-93853000D03*
X119380000Y-93853000D03*
X121920000Y-93853000D03*
X124460000Y-93853000D03*
X127000000Y-93853000D03*
X129540000Y-93853000D03*
%TD*%
D23*
%TO.C,H4*%
X92456000Y-144780000D03*
%TD*%
%TO.C,H3*%
X92646500Y-35052000D03*
%TD*%
%TO.C,H2*%
X185674000Y-35052000D03*
%TD*%
%TO.C,H1*%
X185674000Y-144780000D03*
%TD*%
%TO.C,C9*%
G36*
G01*
X153104000Y-68928000D02*
X153104000Y-67978000D01*
G75*
G02*
X153354000Y-67728000I250000J0D01*
G01*
X153854000Y-67728000D01*
G75*
G02*
X154104000Y-67978000I0J-250000D01*
G01*
X154104000Y-68928000D01*
G75*
G02*
X153854000Y-69178000I-250000J0D01*
G01*
X153354000Y-69178000D01*
G75*
G02*
X153104000Y-68928000I0J250000D01*
G01*
G37*
G36*
G01*
X151204000Y-68928000D02*
X151204000Y-67978000D01*
G75*
G02*
X151454000Y-67728000I250000J0D01*
G01*
X151954000Y-67728000D01*
G75*
G02*
X152204000Y-67978000I0J-250000D01*
G01*
X152204000Y-68928000D01*
G75*
G02*
X151954000Y-69178000I-250000J0D01*
G01*
X151454000Y-69178000D01*
G75*
G02*
X151204000Y-68928000I0J250000D01*
G01*
G37*
%TD*%
%TO.C,C8*%
G36*
G01*
X165042000Y-80231000D02*
X165042000Y-79281000D01*
G75*
G02*
X165292000Y-79031000I250000J0D01*
G01*
X165792000Y-79031000D01*
G75*
G02*
X166042000Y-79281000I0J-250000D01*
G01*
X166042000Y-80231000D01*
G75*
G02*
X165792000Y-80481000I-250000J0D01*
G01*
X165292000Y-80481000D01*
G75*
G02*
X165042000Y-80231000I0J250000D01*
G01*
G37*
G36*
G01*
X163142000Y-80231000D02*
X163142000Y-79281000D01*
G75*
G02*
X163392000Y-79031000I250000J0D01*
G01*
X163892000Y-79031000D01*
G75*
G02*
X164142000Y-79281000I0J-250000D01*
G01*
X164142000Y-80231000D01*
G75*
G02*
X163892000Y-80481000I-250000J0D01*
G01*
X163392000Y-80481000D01*
G75*
G02*
X163142000Y-80231000I0J250000D01*
G01*
G37*
%TD*%
%TO.C,C7*%
G36*
G01*
X111702000Y-68801000D02*
X111702000Y-67851000D01*
G75*
G02*
X111952000Y-67601000I250000J0D01*
G01*
X112452000Y-67601000D01*
G75*
G02*
X112702000Y-67851000I0J-250000D01*
G01*
X112702000Y-68801000D01*
G75*
G02*
X112452000Y-69051000I-250000J0D01*
G01*
X111952000Y-69051000D01*
G75*
G02*
X111702000Y-68801000I0J250000D01*
G01*
G37*
G36*
G01*
X109802000Y-68801000D02*
X109802000Y-67851000D01*
G75*
G02*
X110052000Y-67601000I250000J0D01*
G01*
X110552000Y-67601000D01*
G75*
G02*
X110802000Y-67851000I0J-250000D01*
G01*
X110802000Y-68801000D01*
G75*
G02*
X110552000Y-69051000I-250000J0D01*
G01*
X110052000Y-69051000D01*
G75*
G02*
X109802000Y-68801000I0J250000D01*
G01*
G37*
%TD*%
%TO.C,C6*%
G36*
G01*
X139261000Y-68928000D02*
X139261000Y-67978000D01*
G75*
G02*
X139511000Y-67728000I250000J0D01*
G01*
X140011000Y-67728000D01*
G75*
G02*
X140261000Y-67978000I0J-250000D01*
G01*
X140261000Y-68928000D01*
G75*
G02*
X140011000Y-69178000I-250000J0D01*
G01*
X139511000Y-69178000D01*
G75*
G02*
X139261000Y-68928000I0J250000D01*
G01*
G37*
G36*
G01*
X137361000Y-68928000D02*
X137361000Y-67978000D01*
G75*
G02*
X137611000Y-67728000I250000J0D01*
G01*
X138111000Y-67728000D01*
G75*
G02*
X138361000Y-67978000I0J-250000D01*
G01*
X138361000Y-68928000D01*
G75*
G02*
X138111000Y-69178000I-250000J0D01*
G01*
X137611000Y-69178000D01*
G75*
G02*
X137361000Y-68928000I0J250000D01*
G01*
G37*
%TD*%
%TO.C,C5*%
G36*
G01*
X122624000Y-71595000D02*
X122624000Y-70645000D01*
G75*
G02*
X122874000Y-70395000I250000J0D01*
G01*
X123374000Y-70395000D01*
G75*
G02*
X123624000Y-70645000I0J-250000D01*
G01*
X123624000Y-71595000D01*
G75*
G02*
X123374000Y-71845000I-250000J0D01*
G01*
X122874000Y-71845000D01*
G75*
G02*
X122624000Y-71595000I0J250000D01*
G01*
G37*
G36*
G01*
X120724000Y-71595000D02*
X120724000Y-70645000D01*
G75*
G02*
X120974000Y-70395000I250000J0D01*
G01*
X121474000Y-70395000D01*
G75*
G02*
X121724000Y-70645000I0J-250000D01*
G01*
X121724000Y-71595000D01*
G75*
G02*
X121474000Y-71845000I-250000J0D01*
G01*
X120974000Y-71845000D01*
G75*
G02*
X120724000Y-71595000I0J250000D01*
G01*
G37*
%TD*%
M02*
