M48
; DRILL file {KiCad (5.1.10)-1} date 06/15/21 10:47:28
; FORMAT={-:-/ absolute / inch / decimal}
; #@! TF.CreationDate,2021-06-15T10:47:28-05:00
; #@! TF.GenerationSoftware,Kicad,Pcbnew,(5.1.10)-1
; #@! TF.FileFunction,Plated,1,4,PTH
FMAT,2
INCH
T1C0.0157
T2C0.0315
T3C0.0394
%
G90
G05
T1
X5.5325Y-4.025
X5.5775Y-3.0575
X5.6075Y-3.655
X5.6529Y-2.8797
X5.68Y-3.655
X5.7575Y-4.065
X5.8075Y-4.0575
X5.845Y-3.1525
X5.855Y-4.06
X5.92Y-4.0375
X5.9575Y-4.16
X6.0925Y-3.0225
X6.1375Y-4.165
X6.21Y-3.535
X6.21Y-3.59
X6.21Y-3.65
X6.22Y-3.235
X6.2203Y-3.7903
X6.28Y-3.46
X6.33Y-3.2725
X6.3425Y-3.9175
X6.3425Y-3.9725
X6.5225Y-3.9825
X6.5425Y-3.35
X6.5825Y-3.96
X6.7025Y-3.305
X6.72Y-2.82
X7.14Y-4.3725
X7.165Y-3.385
X7.2078Y-3.2122
X7.255Y-3.2109
X7.255Y-3.295
X7.345Y-3.135
X7.435Y-3.015
X7.535Y-3.015
X7.585Y-3.215
X7.595Y-3.685
X7.6137Y-3.0214
X7.765Y-3.295
X7.885Y-3.025
X7.8879Y-3.0673
X7.975Y-3.365
X8.3002Y-3.2425
X8.355Y-3.025
X8.37Y-3.4175
X8.495Y-3.0225
X8.5725Y-3.035
T2
X5.41Y-2.755
X5.41Y-2.855
X5.41Y-2.955
X5.41Y-3.055
X5.41Y-3.155
X5.41Y-3.255
X5.41Y-3.355
X5.41Y-3.455
X5.41Y-3.555
X5.41Y-3.655
X5.41Y-3.755
X5.41Y-3.855
X5.41Y-3.955
X5.41Y-4.055
X5.995Y-4.285
X6.01Y-2.755
X6.01Y-2.855
X6.01Y-2.955
X6.01Y-3.055
X6.01Y-3.155
X6.01Y-3.255
X6.01Y-3.355
X6.01Y-3.455
X6.01Y-3.555
X6.01Y-3.655
X6.01Y-3.755
X6.01Y-3.855
X6.01Y-3.955
X6.01Y-4.055
X6.0934Y-4.285
T3
X5.66Y-2.61
X5.7075Y-4.2475
X5.7075Y-4.3475
X5.76Y-2.61
X5.8075Y-4.2475
X5.8075Y-4.3475
X6.1775Y-2.69
X6.2775Y-2.69
X6.3775Y-2.69
X6.4325Y-4.265
X6.4325Y-4.365
X6.5325Y-4.265
X6.5325Y-4.365
X6.5425Y-2.69
X6.6325Y-4.265
X6.6325Y-4.365
X6.6425Y-2.69
X6.7325Y-4.265
X6.7325Y-4.365
X6.7425Y-2.69
X6.8325Y-4.265
X6.8325Y-4.365
X6.945Y-2.89
X6.945Y-2.99
X6.945Y-3.09
X6.945Y-3.19
X6.945Y-3.29
X6.945Y-3.39
X6.945Y-3.49
X6.945Y-3.59
X6.945Y-3.69
X6.945Y-3.79
X6.945Y-3.89
X7.085Y-2.74
X7.085Y-4.04
X7.185Y-2.74
X7.185Y-4.04
X7.285Y-2.74
X7.285Y-4.04
X7.385Y-2.74
X7.385Y-4.04
X7.485Y-2.74
X7.485Y-4.04
X7.585Y-2.74
X7.585Y-4.04
X7.6025Y-4.2675
X7.6025Y-4.3675
X7.685Y-2.74
X7.685Y-4.04
X7.7025Y-4.2675
X7.7025Y-4.3675
X7.785Y-2.74
X7.785Y-4.04
X7.8025Y-4.2675
X7.8025Y-4.3675
X7.885Y-2.74
X7.885Y-4.04
X7.9025Y-4.2675
X7.9025Y-4.3675
X7.985Y-2.74
X7.985Y-4.04
X8.0025Y-4.2675
X8.0025Y-4.3675
X8.085Y-2.74
X8.085Y-4.04
X8.1025Y-4.2675
X8.1025Y-4.3675
X8.2025Y-4.2675
X8.2025Y-4.3675
X8.225Y-2.89
X8.225Y-2.99
X8.225Y-3.09
X8.225Y-3.19
X8.225Y-3.29
X8.225Y-3.39
X8.225Y-3.49
X8.225Y-3.59
X8.225Y-3.69
X8.225Y-3.79
X8.225Y-3.89
X8.26Y-2.74
X8.3025Y-4.2675
X8.3025Y-4.3675
X8.36Y-2.74
X8.4Y-3.51
X8.4Y-3.61
X8.4Y-3.71
X8.4Y-3.81
X8.4Y-3.91
X8.4Y-4.01
X8.4Y-4.11
X8.4025Y-4.2675
X8.4025Y-4.3675
X8.5025Y-4.2675
X8.5025Y-4.3675
T0
M30
