%TF.GenerationSoftware,KiCad,Pcbnew,(5.1.10)-1*%
%TF.CreationDate,2021-06-15T10:47:19-05:00*%
%TF.ProjectId,gd 6502 proto pcb,67642036-3530-4322-9070-726f746f2070,rev?*%
%TF.SameCoordinates,Original*%
%TF.FileFunction,Paste,Top*%
%TF.FilePolarity,Positive*%
%FSLAX46Y46*%
G04 Gerber Fmt 4.6, Leading zero omitted, Abs format (unit mm)*
G04 Created by KiCad (PCBNEW (5.1.10)-1) date 2021-06-15 10:47:19*
%MOMM*%
%LPD*%
G01*
G04 APERTURE LIST*
%ADD10R,0.520000X1.500000*%
%ADD11R,1.500000X0.520000*%
%ADD12R,0.700000X0.640000*%
%ADD13R,0.700000X0.500000*%
G04 APERTURE END LIST*
%TO.C,U5*%
G36*
G01*
X160464000Y-100688000D02*
X160464000Y-100988000D01*
G75*
G02*
X160314000Y-101138000I-150000J0D01*
G01*
X158564000Y-101138000D01*
G75*
G02*
X158414000Y-100988000I0J150000D01*
G01*
X158414000Y-100688000D01*
G75*
G02*
X158564000Y-100538000I150000J0D01*
G01*
X160314000Y-100538000D01*
G75*
G02*
X160464000Y-100688000I0J-150000D01*
G01*
G37*
G36*
G01*
X160464000Y-99418000D02*
X160464000Y-99718000D01*
G75*
G02*
X160314000Y-99868000I-150000J0D01*
G01*
X158564000Y-99868000D01*
G75*
G02*
X158414000Y-99718000I0J150000D01*
G01*
X158414000Y-99418000D01*
G75*
G02*
X158564000Y-99268000I150000J0D01*
G01*
X160314000Y-99268000D01*
G75*
G02*
X160464000Y-99418000I0J-150000D01*
G01*
G37*
G36*
G01*
X160464000Y-98148000D02*
X160464000Y-98448000D01*
G75*
G02*
X160314000Y-98598000I-150000J0D01*
G01*
X158564000Y-98598000D01*
G75*
G02*
X158414000Y-98448000I0J150000D01*
G01*
X158414000Y-98148000D01*
G75*
G02*
X158564000Y-97998000I150000J0D01*
G01*
X160314000Y-97998000D01*
G75*
G02*
X160464000Y-98148000I0J-150000D01*
G01*
G37*
G36*
G01*
X160464000Y-96878000D02*
X160464000Y-97178000D01*
G75*
G02*
X160314000Y-97328000I-150000J0D01*
G01*
X158564000Y-97328000D01*
G75*
G02*
X158414000Y-97178000I0J150000D01*
G01*
X158414000Y-96878000D01*
G75*
G02*
X158564000Y-96728000I150000J0D01*
G01*
X160314000Y-96728000D01*
G75*
G02*
X160464000Y-96878000I0J-150000D01*
G01*
G37*
G36*
G01*
X160464000Y-95608000D02*
X160464000Y-95908000D01*
G75*
G02*
X160314000Y-96058000I-150000J0D01*
G01*
X158564000Y-96058000D01*
G75*
G02*
X158414000Y-95908000I0J150000D01*
G01*
X158414000Y-95608000D01*
G75*
G02*
X158564000Y-95458000I150000J0D01*
G01*
X160314000Y-95458000D01*
G75*
G02*
X160464000Y-95608000I0J-150000D01*
G01*
G37*
G36*
G01*
X160464000Y-94338000D02*
X160464000Y-94638000D01*
G75*
G02*
X160314000Y-94788000I-150000J0D01*
G01*
X158564000Y-94788000D01*
G75*
G02*
X158414000Y-94638000I0J150000D01*
G01*
X158414000Y-94338000D01*
G75*
G02*
X158564000Y-94188000I150000J0D01*
G01*
X160314000Y-94188000D01*
G75*
G02*
X160464000Y-94338000I0J-150000D01*
G01*
G37*
G36*
G01*
X160464000Y-93068000D02*
X160464000Y-93368000D01*
G75*
G02*
X160314000Y-93518000I-150000J0D01*
G01*
X158564000Y-93518000D01*
G75*
G02*
X158414000Y-93368000I0J150000D01*
G01*
X158414000Y-93068000D01*
G75*
G02*
X158564000Y-92918000I150000J0D01*
G01*
X160314000Y-92918000D01*
G75*
G02*
X160464000Y-93068000I0J-150000D01*
G01*
G37*
G36*
G01*
X160464000Y-91798000D02*
X160464000Y-92098000D01*
G75*
G02*
X160314000Y-92248000I-150000J0D01*
G01*
X158564000Y-92248000D01*
G75*
G02*
X158414000Y-92098000I0J150000D01*
G01*
X158414000Y-91798000D01*
G75*
G02*
X158564000Y-91648000I150000J0D01*
G01*
X160314000Y-91648000D01*
G75*
G02*
X160464000Y-91798000I0J-150000D01*
G01*
G37*
G36*
G01*
X160464000Y-90528000D02*
X160464000Y-90828000D01*
G75*
G02*
X160314000Y-90978000I-150000J0D01*
G01*
X158564000Y-90978000D01*
G75*
G02*
X158414000Y-90828000I0J150000D01*
G01*
X158414000Y-90528000D01*
G75*
G02*
X158564000Y-90378000I150000J0D01*
G01*
X160314000Y-90378000D01*
G75*
G02*
X160464000Y-90528000I0J-150000D01*
G01*
G37*
G36*
G01*
X160464000Y-89258000D02*
X160464000Y-89558000D01*
G75*
G02*
X160314000Y-89708000I-150000J0D01*
G01*
X158564000Y-89708000D01*
G75*
G02*
X158414000Y-89558000I0J150000D01*
G01*
X158414000Y-89258000D01*
G75*
G02*
X158564000Y-89108000I150000J0D01*
G01*
X160314000Y-89108000D01*
G75*
G02*
X160464000Y-89258000I0J-150000D01*
G01*
G37*
G36*
G01*
X169764000Y-89258000D02*
X169764000Y-89558000D01*
G75*
G02*
X169614000Y-89708000I-150000J0D01*
G01*
X167864000Y-89708000D01*
G75*
G02*
X167714000Y-89558000I0J150000D01*
G01*
X167714000Y-89258000D01*
G75*
G02*
X167864000Y-89108000I150000J0D01*
G01*
X169614000Y-89108000D01*
G75*
G02*
X169764000Y-89258000I0J-150000D01*
G01*
G37*
G36*
G01*
X169764000Y-90528000D02*
X169764000Y-90828000D01*
G75*
G02*
X169614000Y-90978000I-150000J0D01*
G01*
X167864000Y-90978000D01*
G75*
G02*
X167714000Y-90828000I0J150000D01*
G01*
X167714000Y-90528000D01*
G75*
G02*
X167864000Y-90378000I150000J0D01*
G01*
X169614000Y-90378000D01*
G75*
G02*
X169764000Y-90528000I0J-150000D01*
G01*
G37*
G36*
G01*
X169764000Y-91798000D02*
X169764000Y-92098000D01*
G75*
G02*
X169614000Y-92248000I-150000J0D01*
G01*
X167864000Y-92248000D01*
G75*
G02*
X167714000Y-92098000I0J150000D01*
G01*
X167714000Y-91798000D01*
G75*
G02*
X167864000Y-91648000I150000J0D01*
G01*
X169614000Y-91648000D01*
G75*
G02*
X169764000Y-91798000I0J-150000D01*
G01*
G37*
G36*
G01*
X169764000Y-93068000D02*
X169764000Y-93368000D01*
G75*
G02*
X169614000Y-93518000I-150000J0D01*
G01*
X167864000Y-93518000D01*
G75*
G02*
X167714000Y-93368000I0J150000D01*
G01*
X167714000Y-93068000D01*
G75*
G02*
X167864000Y-92918000I150000J0D01*
G01*
X169614000Y-92918000D01*
G75*
G02*
X169764000Y-93068000I0J-150000D01*
G01*
G37*
G36*
G01*
X169764000Y-94338000D02*
X169764000Y-94638000D01*
G75*
G02*
X169614000Y-94788000I-150000J0D01*
G01*
X167864000Y-94788000D01*
G75*
G02*
X167714000Y-94638000I0J150000D01*
G01*
X167714000Y-94338000D01*
G75*
G02*
X167864000Y-94188000I150000J0D01*
G01*
X169614000Y-94188000D01*
G75*
G02*
X169764000Y-94338000I0J-150000D01*
G01*
G37*
G36*
G01*
X169764000Y-95608000D02*
X169764000Y-95908000D01*
G75*
G02*
X169614000Y-96058000I-150000J0D01*
G01*
X167864000Y-96058000D01*
G75*
G02*
X167714000Y-95908000I0J150000D01*
G01*
X167714000Y-95608000D01*
G75*
G02*
X167864000Y-95458000I150000J0D01*
G01*
X169614000Y-95458000D01*
G75*
G02*
X169764000Y-95608000I0J-150000D01*
G01*
G37*
G36*
G01*
X169764000Y-96878000D02*
X169764000Y-97178000D01*
G75*
G02*
X169614000Y-97328000I-150000J0D01*
G01*
X167864000Y-97328000D01*
G75*
G02*
X167714000Y-97178000I0J150000D01*
G01*
X167714000Y-96878000D01*
G75*
G02*
X167864000Y-96728000I150000J0D01*
G01*
X169614000Y-96728000D01*
G75*
G02*
X169764000Y-96878000I0J-150000D01*
G01*
G37*
G36*
G01*
X169764000Y-98148000D02*
X169764000Y-98448000D01*
G75*
G02*
X169614000Y-98598000I-150000J0D01*
G01*
X167864000Y-98598000D01*
G75*
G02*
X167714000Y-98448000I0J150000D01*
G01*
X167714000Y-98148000D01*
G75*
G02*
X167864000Y-97998000I150000J0D01*
G01*
X169614000Y-97998000D01*
G75*
G02*
X169764000Y-98148000I0J-150000D01*
G01*
G37*
G36*
G01*
X169764000Y-99418000D02*
X169764000Y-99718000D01*
G75*
G02*
X169614000Y-99868000I-150000J0D01*
G01*
X167864000Y-99868000D01*
G75*
G02*
X167714000Y-99718000I0J150000D01*
G01*
X167714000Y-99418000D01*
G75*
G02*
X167864000Y-99268000I150000J0D01*
G01*
X169614000Y-99268000D01*
G75*
G02*
X169764000Y-99418000I0J-150000D01*
G01*
G37*
G36*
G01*
X169764000Y-100688000D02*
X169764000Y-100988000D01*
G75*
G02*
X169614000Y-101138000I-150000J0D01*
G01*
X167864000Y-101138000D01*
G75*
G02*
X167714000Y-100988000I0J150000D01*
G01*
X167714000Y-100688000D01*
G75*
G02*
X167864000Y-100538000I150000J0D01*
G01*
X169614000Y-100538000D01*
G75*
G02*
X169764000Y-100688000I0J-150000D01*
G01*
G37*
%TD*%
%TO.C,R4*%
G36*
G01*
X158959500Y-106368001D02*
X158959500Y-105467999D01*
G75*
G02*
X159209499Y-105218000I249999J0D01*
G01*
X159734501Y-105218000D01*
G75*
G02*
X159984500Y-105467999I0J-249999D01*
G01*
X159984500Y-106368001D01*
G75*
G02*
X159734501Y-106618000I-249999J0D01*
G01*
X159209499Y-106618000D01*
G75*
G02*
X158959500Y-106368001I0J249999D01*
G01*
G37*
G36*
G01*
X157134500Y-106368001D02*
X157134500Y-105467999D01*
G75*
G02*
X157384499Y-105218000I249999J0D01*
G01*
X157909501Y-105218000D01*
G75*
G02*
X158159500Y-105467999I0J-249999D01*
G01*
X158159500Y-106368001D01*
G75*
G02*
X157909501Y-106618000I-249999J0D01*
G01*
X157384499Y-106618000D01*
G75*
G02*
X157134500Y-106368001I0J249999D01*
G01*
G37*
%TD*%
%TO.C,D1*%
G36*
G01*
X159311500Y-109270500D02*
X158061500Y-109270500D01*
G75*
G02*
X157811500Y-109020500I0J250000D01*
G01*
X157811500Y-108270500D01*
G75*
G02*
X158061500Y-108020500I250000J0D01*
G01*
X159311500Y-108020500D01*
G75*
G02*
X159561500Y-108270500I0J-250000D01*
G01*
X159561500Y-109020500D01*
G75*
G02*
X159311500Y-109270500I-250000J0D01*
G01*
G37*
G36*
G01*
X159311500Y-112070500D02*
X158061500Y-112070500D01*
G75*
G02*
X157811500Y-111820500I0J250000D01*
G01*
X157811500Y-111070500D01*
G75*
G02*
X158061500Y-110820500I250000J0D01*
G01*
X159311500Y-110820500D01*
G75*
G02*
X159561500Y-111070500I0J-250000D01*
G01*
X159561500Y-111820500D01*
G75*
G02*
X159311500Y-112070500I-250000J0D01*
G01*
G37*
%TD*%
%TO.C,U4*%
G36*
G01*
X160464000Y-82908000D02*
X160464000Y-83208000D01*
G75*
G02*
X160314000Y-83358000I-150000J0D01*
G01*
X158564000Y-83358000D01*
G75*
G02*
X158414000Y-83208000I0J150000D01*
G01*
X158414000Y-82908000D01*
G75*
G02*
X158564000Y-82758000I150000J0D01*
G01*
X160314000Y-82758000D01*
G75*
G02*
X160464000Y-82908000I0J-150000D01*
G01*
G37*
G36*
G01*
X160464000Y-81638000D02*
X160464000Y-81938000D01*
G75*
G02*
X160314000Y-82088000I-150000J0D01*
G01*
X158564000Y-82088000D01*
G75*
G02*
X158414000Y-81938000I0J150000D01*
G01*
X158414000Y-81638000D01*
G75*
G02*
X158564000Y-81488000I150000J0D01*
G01*
X160314000Y-81488000D01*
G75*
G02*
X160464000Y-81638000I0J-150000D01*
G01*
G37*
G36*
G01*
X160464000Y-80368000D02*
X160464000Y-80668000D01*
G75*
G02*
X160314000Y-80818000I-150000J0D01*
G01*
X158564000Y-80818000D01*
G75*
G02*
X158414000Y-80668000I0J150000D01*
G01*
X158414000Y-80368000D01*
G75*
G02*
X158564000Y-80218000I150000J0D01*
G01*
X160314000Y-80218000D01*
G75*
G02*
X160464000Y-80368000I0J-150000D01*
G01*
G37*
G36*
G01*
X160464000Y-79098000D02*
X160464000Y-79398000D01*
G75*
G02*
X160314000Y-79548000I-150000J0D01*
G01*
X158564000Y-79548000D01*
G75*
G02*
X158414000Y-79398000I0J150000D01*
G01*
X158414000Y-79098000D01*
G75*
G02*
X158564000Y-78948000I150000J0D01*
G01*
X160314000Y-78948000D01*
G75*
G02*
X160464000Y-79098000I0J-150000D01*
G01*
G37*
G36*
G01*
X160464000Y-77828000D02*
X160464000Y-78128000D01*
G75*
G02*
X160314000Y-78278000I-150000J0D01*
G01*
X158564000Y-78278000D01*
G75*
G02*
X158414000Y-78128000I0J150000D01*
G01*
X158414000Y-77828000D01*
G75*
G02*
X158564000Y-77678000I150000J0D01*
G01*
X160314000Y-77678000D01*
G75*
G02*
X160464000Y-77828000I0J-150000D01*
G01*
G37*
G36*
G01*
X160464000Y-76558000D02*
X160464000Y-76858000D01*
G75*
G02*
X160314000Y-77008000I-150000J0D01*
G01*
X158564000Y-77008000D01*
G75*
G02*
X158414000Y-76858000I0J150000D01*
G01*
X158414000Y-76558000D01*
G75*
G02*
X158564000Y-76408000I150000J0D01*
G01*
X160314000Y-76408000D01*
G75*
G02*
X160464000Y-76558000I0J-150000D01*
G01*
G37*
G36*
G01*
X160464000Y-75288000D02*
X160464000Y-75588000D01*
G75*
G02*
X160314000Y-75738000I-150000J0D01*
G01*
X158564000Y-75738000D01*
G75*
G02*
X158414000Y-75588000I0J150000D01*
G01*
X158414000Y-75288000D01*
G75*
G02*
X158564000Y-75138000I150000J0D01*
G01*
X160314000Y-75138000D01*
G75*
G02*
X160464000Y-75288000I0J-150000D01*
G01*
G37*
G36*
G01*
X160464000Y-74018000D02*
X160464000Y-74318000D01*
G75*
G02*
X160314000Y-74468000I-150000J0D01*
G01*
X158564000Y-74468000D01*
G75*
G02*
X158414000Y-74318000I0J150000D01*
G01*
X158414000Y-74018000D01*
G75*
G02*
X158564000Y-73868000I150000J0D01*
G01*
X160314000Y-73868000D01*
G75*
G02*
X160464000Y-74018000I0J-150000D01*
G01*
G37*
G36*
G01*
X160464000Y-72748000D02*
X160464000Y-73048000D01*
G75*
G02*
X160314000Y-73198000I-150000J0D01*
G01*
X158564000Y-73198000D01*
G75*
G02*
X158414000Y-73048000I0J150000D01*
G01*
X158414000Y-72748000D01*
G75*
G02*
X158564000Y-72598000I150000J0D01*
G01*
X160314000Y-72598000D01*
G75*
G02*
X160464000Y-72748000I0J-150000D01*
G01*
G37*
G36*
G01*
X160464000Y-71478000D02*
X160464000Y-71778000D01*
G75*
G02*
X160314000Y-71928000I-150000J0D01*
G01*
X158564000Y-71928000D01*
G75*
G02*
X158414000Y-71778000I0J150000D01*
G01*
X158414000Y-71478000D01*
G75*
G02*
X158564000Y-71328000I150000J0D01*
G01*
X160314000Y-71328000D01*
G75*
G02*
X160464000Y-71478000I0J-150000D01*
G01*
G37*
G36*
G01*
X169764000Y-71478000D02*
X169764000Y-71778000D01*
G75*
G02*
X169614000Y-71928000I-150000J0D01*
G01*
X167864000Y-71928000D01*
G75*
G02*
X167714000Y-71778000I0J150000D01*
G01*
X167714000Y-71478000D01*
G75*
G02*
X167864000Y-71328000I150000J0D01*
G01*
X169614000Y-71328000D01*
G75*
G02*
X169764000Y-71478000I0J-150000D01*
G01*
G37*
G36*
G01*
X169764000Y-72748000D02*
X169764000Y-73048000D01*
G75*
G02*
X169614000Y-73198000I-150000J0D01*
G01*
X167864000Y-73198000D01*
G75*
G02*
X167714000Y-73048000I0J150000D01*
G01*
X167714000Y-72748000D01*
G75*
G02*
X167864000Y-72598000I150000J0D01*
G01*
X169614000Y-72598000D01*
G75*
G02*
X169764000Y-72748000I0J-150000D01*
G01*
G37*
G36*
G01*
X169764000Y-74018000D02*
X169764000Y-74318000D01*
G75*
G02*
X169614000Y-74468000I-150000J0D01*
G01*
X167864000Y-74468000D01*
G75*
G02*
X167714000Y-74318000I0J150000D01*
G01*
X167714000Y-74018000D01*
G75*
G02*
X167864000Y-73868000I150000J0D01*
G01*
X169614000Y-73868000D01*
G75*
G02*
X169764000Y-74018000I0J-150000D01*
G01*
G37*
G36*
G01*
X169764000Y-75288000D02*
X169764000Y-75588000D01*
G75*
G02*
X169614000Y-75738000I-150000J0D01*
G01*
X167864000Y-75738000D01*
G75*
G02*
X167714000Y-75588000I0J150000D01*
G01*
X167714000Y-75288000D01*
G75*
G02*
X167864000Y-75138000I150000J0D01*
G01*
X169614000Y-75138000D01*
G75*
G02*
X169764000Y-75288000I0J-150000D01*
G01*
G37*
G36*
G01*
X169764000Y-76558000D02*
X169764000Y-76858000D01*
G75*
G02*
X169614000Y-77008000I-150000J0D01*
G01*
X167864000Y-77008000D01*
G75*
G02*
X167714000Y-76858000I0J150000D01*
G01*
X167714000Y-76558000D01*
G75*
G02*
X167864000Y-76408000I150000J0D01*
G01*
X169614000Y-76408000D01*
G75*
G02*
X169764000Y-76558000I0J-150000D01*
G01*
G37*
G36*
G01*
X169764000Y-77828000D02*
X169764000Y-78128000D01*
G75*
G02*
X169614000Y-78278000I-150000J0D01*
G01*
X167864000Y-78278000D01*
G75*
G02*
X167714000Y-78128000I0J150000D01*
G01*
X167714000Y-77828000D01*
G75*
G02*
X167864000Y-77678000I150000J0D01*
G01*
X169614000Y-77678000D01*
G75*
G02*
X169764000Y-77828000I0J-150000D01*
G01*
G37*
G36*
G01*
X169764000Y-79098000D02*
X169764000Y-79398000D01*
G75*
G02*
X169614000Y-79548000I-150000J0D01*
G01*
X167864000Y-79548000D01*
G75*
G02*
X167714000Y-79398000I0J150000D01*
G01*
X167714000Y-79098000D01*
G75*
G02*
X167864000Y-78948000I150000J0D01*
G01*
X169614000Y-78948000D01*
G75*
G02*
X169764000Y-79098000I0J-150000D01*
G01*
G37*
G36*
G01*
X169764000Y-80368000D02*
X169764000Y-80668000D01*
G75*
G02*
X169614000Y-80818000I-150000J0D01*
G01*
X167864000Y-80818000D01*
G75*
G02*
X167714000Y-80668000I0J150000D01*
G01*
X167714000Y-80368000D01*
G75*
G02*
X167864000Y-80218000I150000J0D01*
G01*
X169614000Y-80218000D01*
G75*
G02*
X169764000Y-80368000I0J-150000D01*
G01*
G37*
G36*
G01*
X169764000Y-81638000D02*
X169764000Y-81938000D01*
G75*
G02*
X169614000Y-82088000I-150000J0D01*
G01*
X167864000Y-82088000D01*
G75*
G02*
X167714000Y-81938000I0J150000D01*
G01*
X167714000Y-81638000D01*
G75*
G02*
X167864000Y-81488000I150000J0D01*
G01*
X169614000Y-81488000D01*
G75*
G02*
X169764000Y-81638000I0J-150000D01*
G01*
G37*
G36*
G01*
X169764000Y-82908000D02*
X169764000Y-83208000D01*
G75*
G02*
X169614000Y-83358000I-150000J0D01*
G01*
X167864000Y-83358000D01*
G75*
G02*
X167714000Y-83208000I0J150000D01*
G01*
X167714000Y-82908000D01*
G75*
G02*
X167864000Y-82758000I150000J0D01*
G01*
X169614000Y-82758000D01*
G75*
G02*
X169764000Y-82908000I0J-150000D01*
G01*
G37*
%TD*%
%TO.C,U3*%
G36*
G01*
X216701500Y-78509000D02*
X216701500Y-78209000D01*
G75*
G02*
X216851500Y-78059000I150000J0D01*
G01*
X218501500Y-78059000D01*
G75*
G02*
X218651500Y-78209000I0J-150000D01*
G01*
X218651500Y-78509000D01*
G75*
G02*
X218501500Y-78659000I-150000J0D01*
G01*
X216851500Y-78659000D01*
G75*
G02*
X216701500Y-78509000I0J150000D01*
G01*
G37*
G36*
G01*
X216701500Y-79779000D02*
X216701500Y-79479000D01*
G75*
G02*
X216851500Y-79329000I150000J0D01*
G01*
X218501500Y-79329000D01*
G75*
G02*
X218651500Y-79479000I0J-150000D01*
G01*
X218651500Y-79779000D01*
G75*
G02*
X218501500Y-79929000I-150000J0D01*
G01*
X216851500Y-79929000D01*
G75*
G02*
X216701500Y-79779000I0J150000D01*
G01*
G37*
G36*
G01*
X216701500Y-81049000D02*
X216701500Y-80749000D01*
G75*
G02*
X216851500Y-80599000I150000J0D01*
G01*
X218501500Y-80599000D01*
G75*
G02*
X218651500Y-80749000I0J-150000D01*
G01*
X218651500Y-81049000D01*
G75*
G02*
X218501500Y-81199000I-150000J0D01*
G01*
X216851500Y-81199000D01*
G75*
G02*
X216701500Y-81049000I0J150000D01*
G01*
G37*
G36*
G01*
X216701500Y-82319000D02*
X216701500Y-82019000D01*
G75*
G02*
X216851500Y-81869000I150000J0D01*
G01*
X218501500Y-81869000D01*
G75*
G02*
X218651500Y-82019000I0J-150000D01*
G01*
X218651500Y-82319000D01*
G75*
G02*
X218501500Y-82469000I-150000J0D01*
G01*
X216851500Y-82469000D01*
G75*
G02*
X216701500Y-82319000I0J150000D01*
G01*
G37*
G36*
G01*
X216701500Y-83589000D02*
X216701500Y-83289000D01*
G75*
G02*
X216851500Y-83139000I150000J0D01*
G01*
X218501500Y-83139000D01*
G75*
G02*
X218651500Y-83289000I0J-150000D01*
G01*
X218651500Y-83589000D01*
G75*
G02*
X218501500Y-83739000I-150000J0D01*
G01*
X216851500Y-83739000D01*
G75*
G02*
X216701500Y-83589000I0J150000D01*
G01*
G37*
G36*
G01*
X216701500Y-84859000D02*
X216701500Y-84559000D01*
G75*
G02*
X216851500Y-84409000I150000J0D01*
G01*
X218501500Y-84409000D01*
G75*
G02*
X218651500Y-84559000I0J-150000D01*
G01*
X218651500Y-84859000D01*
G75*
G02*
X218501500Y-85009000I-150000J0D01*
G01*
X216851500Y-85009000D01*
G75*
G02*
X216701500Y-84859000I0J150000D01*
G01*
G37*
G36*
G01*
X216701500Y-86129000D02*
X216701500Y-85829000D01*
G75*
G02*
X216851500Y-85679000I150000J0D01*
G01*
X218501500Y-85679000D01*
G75*
G02*
X218651500Y-85829000I0J-150000D01*
G01*
X218651500Y-86129000D01*
G75*
G02*
X218501500Y-86279000I-150000J0D01*
G01*
X216851500Y-86279000D01*
G75*
G02*
X216701500Y-86129000I0J150000D01*
G01*
G37*
G36*
G01*
X211751500Y-86129000D02*
X211751500Y-85829000D01*
G75*
G02*
X211901500Y-85679000I150000J0D01*
G01*
X213551500Y-85679000D01*
G75*
G02*
X213701500Y-85829000I0J-150000D01*
G01*
X213701500Y-86129000D01*
G75*
G02*
X213551500Y-86279000I-150000J0D01*
G01*
X211901500Y-86279000D01*
G75*
G02*
X211751500Y-86129000I0J150000D01*
G01*
G37*
G36*
G01*
X211751500Y-84859000D02*
X211751500Y-84559000D01*
G75*
G02*
X211901500Y-84409000I150000J0D01*
G01*
X213551500Y-84409000D01*
G75*
G02*
X213701500Y-84559000I0J-150000D01*
G01*
X213701500Y-84859000D01*
G75*
G02*
X213551500Y-85009000I-150000J0D01*
G01*
X211901500Y-85009000D01*
G75*
G02*
X211751500Y-84859000I0J150000D01*
G01*
G37*
G36*
G01*
X211751500Y-83589000D02*
X211751500Y-83289000D01*
G75*
G02*
X211901500Y-83139000I150000J0D01*
G01*
X213551500Y-83139000D01*
G75*
G02*
X213701500Y-83289000I0J-150000D01*
G01*
X213701500Y-83589000D01*
G75*
G02*
X213551500Y-83739000I-150000J0D01*
G01*
X211901500Y-83739000D01*
G75*
G02*
X211751500Y-83589000I0J150000D01*
G01*
G37*
G36*
G01*
X211751500Y-82319000D02*
X211751500Y-82019000D01*
G75*
G02*
X211901500Y-81869000I150000J0D01*
G01*
X213551500Y-81869000D01*
G75*
G02*
X213701500Y-82019000I0J-150000D01*
G01*
X213701500Y-82319000D01*
G75*
G02*
X213551500Y-82469000I-150000J0D01*
G01*
X211901500Y-82469000D01*
G75*
G02*
X211751500Y-82319000I0J150000D01*
G01*
G37*
G36*
G01*
X211751500Y-81049000D02*
X211751500Y-80749000D01*
G75*
G02*
X211901500Y-80599000I150000J0D01*
G01*
X213551500Y-80599000D01*
G75*
G02*
X213701500Y-80749000I0J-150000D01*
G01*
X213701500Y-81049000D01*
G75*
G02*
X213551500Y-81199000I-150000J0D01*
G01*
X211901500Y-81199000D01*
G75*
G02*
X211751500Y-81049000I0J150000D01*
G01*
G37*
G36*
G01*
X211751500Y-79779000D02*
X211751500Y-79479000D01*
G75*
G02*
X211901500Y-79329000I150000J0D01*
G01*
X213551500Y-79329000D01*
G75*
G02*
X213701500Y-79479000I0J-150000D01*
G01*
X213701500Y-79779000D01*
G75*
G02*
X213551500Y-79929000I-150000J0D01*
G01*
X211901500Y-79929000D01*
G75*
G02*
X211751500Y-79779000I0J150000D01*
G01*
G37*
G36*
G01*
X211751500Y-78509000D02*
X211751500Y-78209000D01*
G75*
G02*
X211901500Y-78059000I150000J0D01*
G01*
X213551500Y-78059000D01*
G75*
G02*
X213701500Y-78209000I0J-150000D01*
G01*
X213701500Y-78509000D01*
G75*
G02*
X213551500Y-78659000I-150000J0D01*
G01*
X211901500Y-78659000D01*
G75*
G02*
X211751500Y-78509000I0J150000D01*
G01*
G37*
%TD*%
D10*
%TO.C,U2*%
X188659000Y-80056000D03*
X189459000Y-80056000D03*
X190259000Y-80056000D03*
X191059000Y-80056000D03*
X191859000Y-80056000D03*
X192659000Y-80056000D03*
X193459000Y-80056000D03*
X194259000Y-80056000D03*
X195059000Y-80056000D03*
X195859000Y-80056000D03*
X196659000Y-80056000D03*
D11*
X198709000Y-82106000D03*
X198709000Y-82906000D03*
X198709000Y-83706000D03*
X198709000Y-84506000D03*
X198709000Y-85306000D03*
X198709000Y-86106000D03*
X198709000Y-86906000D03*
X198709000Y-87706000D03*
X198709000Y-88506000D03*
X198709000Y-89306000D03*
X198709000Y-90106000D03*
D10*
X196659000Y-92156000D03*
X195859000Y-92156000D03*
X195059000Y-92156000D03*
X194259000Y-92156000D03*
X193459000Y-92156000D03*
X192659000Y-92156000D03*
X191859000Y-92156000D03*
X191059000Y-92156000D03*
X190259000Y-92156000D03*
X189459000Y-92156000D03*
X188659000Y-92156000D03*
D11*
X186609000Y-90106000D03*
X186609000Y-89306000D03*
X186609000Y-88506000D03*
X186609000Y-87706000D03*
X186609000Y-86906000D03*
X186609000Y-86106000D03*
X186609000Y-85306000D03*
X186609000Y-84506000D03*
X186609000Y-83706000D03*
X186609000Y-82906000D03*
X186609000Y-82106000D03*
%TD*%
%TO.C,RNP1*%
G36*
G01*
X213506000Y-75824501D02*
X213506000Y-74924499D01*
G75*
G02*
X213755999Y-74674500I249999J0D01*
G01*
X214281001Y-74674500D01*
G75*
G02*
X214531000Y-74924499I0J-249999D01*
G01*
X214531000Y-75824501D01*
G75*
G02*
X214281001Y-76074500I-249999J0D01*
G01*
X213755999Y-76074500D01*
G75*
G02*
X213506000Y-75824501I0J249999D01*
G01*
G37*
G36*
G01*
X211681000Y-75824501D02*
X211681000Y-74924499D01*
G75*
G02*
X211930999Y-74674500I249999J0D01*
G01*
X212456001Y-74674500D01*
G75*
G02*
X212706000Y-74924499I0J-249999D01*
G01*
X212706000Y-75824501D01*
G75*
G02*
X212456001Y-76074500I-249999J0D01*
G01*
X211930999Y-76074500D01*
G75*
G02*
X211681000Y-75824501I0J249999D01*
G01*
G37*
%TD*%
D12*
%TO.C,RN4*%
X163385500Y-95929500D03*
D13*
X163385500Y-97599500D03*
X163385500Y-96799500D03*
D12*
X163385500Y-98469500D03*
D13*
X164785500Y-96799500D03*
D12*
X164785500Y-95929500D03*
D13*
X164785500Y-97599500D03*
D12*
X164785500Y-98469500D03*
%TD*%
%TO.C,RN3*%
X163320500Y-90551000D03*
D13*
X163320500Y-92221000D03*
X163320500Y-91421000D03*
D12*
X163320500Y-93091000D03*
D13*
X164720500Y-91421000D03*
D12*
X164720500Y-90551000D03*
D13*
X164720500Y-92221000D03*
D12*
X164720500Y-93091000D03*
%TD*%
%TO.C,RN2*%
X163447500Y-78994000D03*
D13*
X163447500Y-80664000D03*
X163447500Y-79864000D03*
D12*
X163447500Y-81534000D03*
D13*
X164847500Y-79864000D03*
D12*
X164847500Y-78994000D03*
D13*
X164847500Y-80664000D03*
D12*
X164847500Y-81534000D03*
%TD*%
%TO.C,RN1*%
X163382500Y-72707500D03*
D13*
X163382500Y-74377500D03*
X163382500Y-73577500D03*
D12*
X163382500Y-75247500D03*
D13*
X164782500Y-73577500D03*
D12*
X164782500Y-72707500D03*
D13*
X164782500Y-74377500D03*
D12*
X164782500Y-75247500D03*
%TD*%
%TO.C,C7*%
G36*
G01*
X216339000Y-74899500D02*
X216339000Y-75849500D01*
G75*
G02*
X216089000Y-76099500I-250000J0D01*
G01*
X215589000Y-76099500D01*
G75*
G02*
X215339000Y-75849500I0J250000D01*
G01*
X215339000Y-74899500D01*
G75*
G02*
X215589000Y-74649500I250000J0D01*
G01*
X216089000Y-74649500D01*
G75*
G02*
X216339000Y-74899500I0J-250000D01*
G01*
G37*
G36*
G01*
X218239000Y-74899500D02*
X218239000Y-75849500D01*
G75*
G02*
X217989000Y-76099500I-250000J0D01*
G01*
X217489000Y-76099500D01*
G75*
G02*
X217239000Y-75849500I0J250000D01*
G01*
X217239000Y-74899500D01*
G75*
G02*
X217489000Y-74649500I250000J0D01*
G01*
X217989000Y-74649500D01*
G75*
G02*
X218239000Y-74899500I0J-250000D01*
G01*
G37*
%TD*%
M02*
